%TF.GenerationSoftware,KiCad,Pcbnew,(6.0.7)*%
%TF.CreationDate,2022-10-29T13:55:09+02:00*%
%TF.ProjectId,Didaktik,44696461-6b74-4696-9b2e-6b696361645f,rev?*%
%TF.SameCoordinates,Original*%
%TF.FileFunction,Legend,Bot*%
%TF.FilePolarity,Positive*%
%FSLAX46Y46*%
G04 Gerber Fmt 4.6, Leading zero omitted, Abs format (unit mm)*
G04 Created by KiCad (PCBNEW (6.0.7)) date 2022-10-29 13:55:09*
%MOMM*%
%LPD*%
G01*
G04 APERTURE LIST*
%ADD10C,0.150000*%
%ADD11C,0.120000*%
%ADD12C,0.250000*%
G04 APERTURE END LIST*
D10*
X34242261Y-52215952D02*
X32242261Y-52215952D01*
X32242261Y-52692142D01*
X32337500Y-52977857D01*
X32527976Y-53168333D01*
X32718452Y-53263571D01*
X33099404Y-53358809D01*
X33385119Y-53358809D01*
X33766071Y-53263571D01*
X33956547Y-53168333D01*
X34147023Y-52977857D01*
X34242261Y-52692142D01*
X34242261Y-52215952D01*
X34242261Y-54215952D02*
X32908928Y-54215952D01*
X32242261Y-54215952D02*
X32337500Y-54120714D01*
X32432738Y-54215952D01*
X32337500Y-54311190D01*
X32242261Y-54215952D01*
X32432738Y-54215952D01*
X34242261Y-56025476D02*
X32242261Y-56025476D01*
X34147023Y-56025476D02*
X34242261Y-55835000D01*
X34242261Y-55454047D01*
X34147023Y-55263571D01*
X34051785Y-55168333D01*
X33861309Y-55073095D01*
X33289880Y-55073095D01*
X33099404Y-55168333D01*
X33004166Y-55263571D01*
X32908928Y-55454047D01*
X32908928Y-55835000D01*
X33004166Y-56025476D01*
X34242261Y-57835000D02*
X33194642Y-57835000D01*
X33004166Y-57739761D01*
X32908928Y-57549285D01*
X32908928Y-57168333D01*
X33004166Y-56977857D01*
X34147023Y-57835000D02*
X34242261Y-57644523D01*
X34242261Y-57168333D01*
X34147023Y-56977857D01*
X33956547Y-56882619D01*
X33766071Y-56882619D01*
X33575595Y-56977857D01*
X33480357Y-57168333D01*
X33480357Y-57644523D01*
X33385119Y-57835000D01*
X34242261Y-58787380D02*
X32242261Y-58787380D01*
X33480357Y-58977857D02*
X34242261Y-59549285D01*
X32908928Y-59549285D02*
X33670833Y-58787380D01*
X32908928Y-60120714D02*
X32908928Y-60882619D01*
X32242261Y-60406428D02*
X33956547Y-60406428D01*
X34147023Y-60501666D01*
X34242261Y-60692142D01*
X34242261Y-60882619D01*
X34242261Y-61549285D02*
X32908928Y-61549285D01*
X32242261Y-61549285D02*
X32337500Y-61454047D01*
X32432738Y-61549285D01*
X32337500Y-61644523D01*
X32242261Y-61549285D01*
X32432738Y-61549285D01*
X34242261Y-62501666D02*
X32242261Y-62501666D01*
X33480357Y-62692142D02*
X34242261Y-63263571D01*
X32908928Y-63263571D02*
X33670833Y-62501666D01*
X32908928Y-66501666D02*
X34242261Y-66501666D01*
X32147023Y-66025476D02*
X33575595Y-65549285D01*
X33575595Y-66787380D01*
X32242261Y-67930238D02*
X32242261Y-68120714D01*
X32337500Y-68311190D01*
X32432738Y-68406428D01*
X32623214Y-68501666D01*
X33004166Y-68596904D01*
X33480357Y-68596904D01*
X33861309Y-68501666D01*
X34051785Y-68406428D01*
X34147023Y-68311190D01*
X34242261Y-68120714D01*
X34242261Y-67930238D01*
X34147023Y-67739761D01*
X34051785Y-67644523D01*
X33861309Y-67549285D01*
X33480357Y-67454047D01*
X33004166Y-67454047D01*
X32623214Y-67549285D01*
X32432738Y-67644523D01*
X32337500Y-67739761D01*
X32242261Y-67930238D01*
X32908928Y-70787380D02*
X34242261Y-71263571D01*
X32908928Y-71739761D01*
X34242261Y-73549285D02*
X34242261Y-72406428D01*
X34242261Y-72977857D02*
X32242261Y-72977857D01*
X32527976Y-72787380D01*
X32718452Y-72596904D01*
X32813690Y-72406428D01*
X34051785Y-74406428D02*
X34147023Y-74501666D01*
X34242261Y-74406428D01*
X34147023Y-74311190D01*
X34051785Y-74406428D01*
X34242261Y-74406428D01*
X32242261Y-75739761D02*
X32242261Y-75930238D01*
X32337500Y-76120714D01*
X32432738Y-76215952D01*
X32623214Y-76311190D01*
X33004166Y-76406428D01*
X33480357Y-76406428D01*
X33861309Y-76311190D01*
X34051785Y-76215952D01*
X34147023Y-76120714D01*
X34242261Y-75930238D01*
X34242261Y-75739761D01*
X34147023Y-75549285D01*
X34051785Y-75454047D01*
X33861309Y-75358809D01*
X33480357Y-75263571D01*
X33004166Y-75263571D01*
X32623214Y-75358809D01*
X32432738Y-75454047D01*
X32337500Y-75549285D01*
X32242261Y-75739761D01*
X34242261Y-78787380D02*
X32242261Y-78787380D01*
X33004166Y-78787380D02*
X32908928Y-78977857D01*
X32908928Y-79358809D01*
X33004166Y-79549285D01*
X33099404Y-79644523D01*
X33289880Y-79739761D01*
X33861309Y-79739761D01*
X34051785Y-79644523D01*
X34147023Y-79549285D01*
X34242261Y-79358809D01*
X34242261Y-78977857D01*
X34147023Y-78787380D01*
X32908928Y-80406428D02*
X34242261Y-80882619D01*
X32908928Y-81358809D02*
X34242261Y-80882619D01*
X34718452Y-80692142D01*
X34813690Y-80596904D01*
X34908928Y-80406428D01*
X34051785Y-84787380D02*
X34147023Y-84692142D01*
X34242261Y-84406428D01*
X34242261Y-84215952D01*
X34147023Y-83930238D01*
X33956547Y-83739761D01*
X33766071Y-83644523D01*
X33385119Y-83549285D01*
X33099404Y-83549285D01*
X32718452Y-83644523D01*
X32527976Y-83739761D01*
X32337500Y-83930238D01*
X32242261Y-84215952D01*
X32242261Y-84406428D01*
X32337500Y-84692142D01*
X32432738Y-84787380D01*
X34242261Y-86501666D02*
X33194642Y-86501666D01*
X33004166Y-86406428D01*
X32908928Y-86215952D01*
X32908928Y-85834999D01*
X33004166Y-85644523D01*
X34147023Y-86501666D02*
X34242261Y-86311190D01*
X34242261Y-85834999D01*
X34147023Y-85644523D01*
X33956547Y-85549285D01*
X33766071Y-85549285D01*
X33575595Y-85644523D01*
X33480357Y-85834999D01*
X33480357Y-86311190D01*
X33385119Y-86501666D01*
X34242261Y-87739761D02*
X34147023Y-87549285D01*
X33956547Y-87454047D01*
X32242261Y-87454047D01*
X32908928Y-88311190D02*
X34242261Y-88787380D01*
X32908928Y-89263571D01*
X34242261Y-90025476D02*
X32908928Y-90025476D01*
X32242261Y-90025476D02*
X32337500Y-89930238D01*
X32432738Y-90025476D01*
X32337500Y-90120714D01*
X32242261Y-90025476D01*
X32432738Y-90025476D01*
X32908928Y-90977857D02*
X34242261Y-90977857D01*
X33099404Y-90977857D02*
X33004166Y-91073095D01*
X32908928Y-91263571D01*
X32908928Y-91549285D01*
X33004166Y-91739761D01*
X33194642Y-91834999D01*
X34242261Y-91834999D01*
X32908928Y-92692142D02*
X32908928Y-94120714D01*
X32051785Y-93263571D02*
X34623214Y-92692142D01*
X33766071Y-93930238D02*
X33766071Y-92501666D01*
X34623214Y-93358809D02*
X32051785Y-93930238D01*
X32242261Y-95168333D02*
X32242261Y-95358809D01*
X32337500Y-95549285D01*
X32432738Y-95644523D01*
X32623214Y-95739761D01*
X33004166Y-95834999D01*
X33480357Y-95834999D01*
X33861309Y-95739761D01*
X34051785Y-95644523D01*
X34147023Y-95549285D01*
X34242261Y-95358809D01*
X34242261Y-95168333D01*
X34147023Y-94977857D01*
X34051785Y-94882619D01*
X33861309Y-94787380D01*
X33480357Y-94692142D01*
X33004166Y-94692142D01*
X32623214Y-94787380D01*
X32432738Y-94882619D01*
X32337500Y-94977857D01*
X32242261Y-95168333D01*
X32242261Y-97644523D02*
X32242261Y-96692142D01*
X33194642Y-96596904D01*
X33099404Y-96692142D01*
X33004166Y-96882619D01*
X33004166Y-97358809D01*
X33099404Y-97549285D01*
X33194642Y-97644523D01*
X33385119Y-97739761D01*
X33861309Y-97739761D01*
X34051785Y-97644523D01*
X34147023Y-97549285D01*
X34242261Y-97358809D01*
X34242261Y-96882619D01*
X34147023Y-96692142D01*
X34051785Y-96596904D01*
X32242261Y-99454047D02*
X32242261Y-99073095D01*
X32337500Y-98882619D01*
X32432738Y-98787380D01*
X32718452Y-98596904D01*
X33099404Y-98501666D01*
X33861309Y-98501666D01*
X34051785Y-98596904D01*
X34147023Y-98692142D01*
X34242261Y-98882619D01*
X34242261Y-99263571D01*
X34147023Y-99454047D01*
X34051785Y-99549285D01*
X33861309Y-99644523D01*
X33385119Y-99644523D01*
X33194642Y-99549285D01*
X33099404Y-99454047D01*
X33004166Y-99263571D01*
X33004166Y-98882619D01*
X33099404Y-98692142D01*
X33194642Y-98596904D01*
X33385119Y-98501666D01*
X32242261Y-100311190D02*
X32242261Y-101549285D01*
X33004166Y-100882619D01*
X33004166Y-101168333D01*
X33099404Y-101358809D01*
X33194642Y-101454047D01*
X33385119Y-101549285D01*
X33861309Y-101549285D01*
X34051785Y-101454047D01*
X34147023Y-101358809D01*
X34242261Y-101168333D01*
X34242261Y-100596904D01*
X34147023Y-100406428D01*
X34051785Y-100311190D01*
%TO.C,D29*%
X166314285Y-103227380D02*
X166314285Y-102227380D01*
X166076190Y-102227380D01*
X165933333Y-102275000D01*
X165838095Y-102370238D01*
X165790476Y-102465476D01*
X165742857Y-102655952D01*
X165742857Y-102798809D01*
X165790476Y-102989285D01*
X165838095Y-103084523D01*
X165933333Y-103179761D01*
X166076190Y-103227380D01*
X166314285Y-103227380D01*
X165361904Y-102322619D02*
X165314285Y-102275000D01*
X165219047Y-102227380D01*
X164980952Y-102227380D01*
X164885714Y-102275000D01*
X164838095Y-102322619D01*
X164790476Y-102417857D01*
X164790476Y-102513095D01*
X164838095Y-102655952D01*
X165409523Y-103227380D01*
X164790476Y-103227380D01*
X164314285Y-103227380D02*
X164123809Y-103227380D01*
X164028571Y-103179761D01*
X163980952Y-103132142D01*
X163885714Y-102989285D01*
X163838095Y-102798809D01*
X163838095Y-102417857D01*
X163885714Y-102322619D01*
X163933333Y-102275000D01*
X164028571Y-102227380D01*
X164219047Y-102227380D01*
X164314285Y-102275000D01*
X164361904Y-102322619D01*
X164409523Y-102417857D01*
X164409523Y-102655952D01*
X164361904Y-102751190D01*
X164314285Y-102798809D01*
X164219047Y-102846428D01*
X164028571Y-102846428D01*
X163933333Y-102798809D01*
X163885714Y-102751190D01*
X163838095Y-102655952D01*
%TO.C,J2*%
X62585523Y-95866000D02*
X62661714Y-95827904D01*
X62776000Y-95827904D01*
X62890285Y-95866000D01*
X62966476Y-95942190D01*
X63004571Y-96018380D01*
X63042666Y-96170761D01*
X63042666Y-96285047D01*
X63004571Y-96437428D01*
X62966476Y-96513619D01*
X62890285Y-96589809D01*
X62776000Y-96627904D01*
X62699809Y-96627904D01*
X62585523Y-96589809D01*
X62547428Y-96551714D01*
X62547428Y-96285047D01*
X62699809Y-96285047D01*
X62204571Y-96627904D02*
X62204571Y-95827904D01*
X61747428Y-96627904D01*
X61747428Y-95827904D01*
X61366476Y-96627904D02*
X61366476Y-95827904D01*
X61176000Y-95827904D01*
X61061714Y-95866000D01*
X60985523Y-95942190D01*
X60947428Y-96018380D01*
X60909333Y-96170761D01*
X60909333Y-96285047D01*
X60947428Y-96437428D01*
X60985523Y-96513619D01*
X61061714Y-96589809D01*
X61176000Y-96627904D01*
X61366476Y-96627904D01*
X55257571Y-99129809D02*
X55143285Y-99167904D01*
X54952809Y-99167904D01*
X54876619Y-99129809D01*
X54838523Y-99091714D01*
X54800428Y-99015523D01*
X54800428Y-98939333D01*
X54838523Y-98863142D01*
X54876619Y-98825047D01*
X54952809Y-98786952D01*
X55105190Y-98748857D01*
X55181380Y-98710761D01*
X55219476Y-98672666D01*
X55257571Y-98596476D01*
X55257571Y-98520285D01*
X55219476Y-98444095D01*
X55181380Y-98406000D01*
X55105190Y-98367904D01*
X54914714Y-98367904D01*
X54800428Y-98406000D01*
X54000428Y-99091714D02*
X54038523Y-99129809D01*
X54152809Y-99167904D01*
X54229000Y-99167904D01*
X54343285Y-99129809D01*
X54419476Y-99053619D01*
X54457571Y-98977428D01*
X54495666Y-98825047D01*
X54495666Y-98710761D01*
X54457571Y-98558380D01*
X54419476Y-98482190D01*
X54343285Y-98406000D01*
X54229000Y-98367904D01*
X54152809Y-98367904D01*
X54038523Y-98406000D01*
X54000428Y-98444095D01*
X53657571Y-99167904D02*
X53657571Y-98367904D01*
X53200428Y-99167904D02*
X53543285Y-98710761D01*
X53200428Y-98367904D02*
X53657571Y-98825047D01*
X55232142Y-101707904D02*
X55232142Y-100907904D01*
X54965476Y-101479333D01*
X54698809Y-100907904D01*
X54698809Y-101707904D01*
X54317857Y-101707904D02*
X54317857Y-100907904D01*
X53975000Y-101669809D02*
X53860714Y-101707904D01*
X53670238Y-101707904D01*
X53594047Y-101669809D01*
X53555952Y-101631714D01*
X53517857Y-101555523D01*
X53517857Y-101479333D01*
X53555952Y-101403142D01*
X53594047Y-101365047D01*
X53670238Y-101326952D01*
X53822619Y-101288857D01*
X53898809Y-101250761D01*
X53936904Y-101212666D01*
X53975000Y-101136476D01*
X53975000Y-101060285D01*
X53936904Y-100984095D01*
X53898809Y-100946000D01*
X53822619Y-100907904D01*
X53632142Y-100907904D01*
X53517857Y-100946000D01*
X53022619Y-100907904D02*
X52870238Y-100907904D01*
X52794047Y-100946000D01*
X52717857Y-101022190D01*
X52679761Y-101174571D01*
X52679761Y-101441238D01*
X52717857Y-101593619D01*
X52794047Y-101669809D01*
X52870238Y-101707904D01*
X53022619Y-101707904D01*
X53098809Y-101669809D01*
X53175000Y-101593619D01*
X53213095Y-101441238D01*
X53213095Y-101174571D01*
X53175000Y-101022190D01*
X53098809Y-100946000D01*
X53022619Y-100907904D01*
X63233142Y-99167904D02*
X63233142Y-98367904D01*
X62966476Y-98939333D01*
X62699809Y-98367904D01*
X62699809Y-99167904D01*
X62166476Y-98367904D02*
X62014095Y-98367904D01*
X61937904Y-98406000D01*
X61861714Y-98482190D01*
X61823619Y-98634571D01*
X61823619Y-98901238D01*
X61861714Y-99053619D01*
X61937904Y-99129809D01*
X62014095Y-99167904D01*
X62166476Y-99167904D01*
X62242666Y-99129809D01*
X62318857Y-99053619D01*
X62356952Y-98901238D01*
X62356952Y-98634571D01*
X62318857Y-98482190D01*
X62242666Y-98406000D01*
X62166476Y-98367904D01*
X61518857Y-99129809D02*
X61404571Y-99167904D01*
X61214095Y-99167904D01*
X61137904Y-99129809D01*
X61099809Y-99091714D01*
X61061714Y-99015523D01*
X61061714Y-98939333D01*
X61099809Y-98863142D01*
X61137904Y-98825047D01*
X61214095Y-98786952D01*
X61366476Y-98748857D01*
X61442666Y-98710761D01*
X61480761Y-98672666D01*
X61518857Y-98596476D01*
X61518857Y-98520285D01*
X61480761Y-98444095D01*
X61442666Y-98406000D01*
X61366476Y-98367904D01*
X61176000Y-98367904D01*
X61061714Y-98406000D01*
X60718857Y-99167904D02*
X60718857Y-98367904D01*
X62915666Y-100907904D02*
X62649000Y-101707904D01*
X62382333Y-100907904D01*
X61658523Y-101631714D02*
X61696619Y-101669809D01*
X61810904Y-101707904D01*
X61887095Y-101707904D01*
X62001380Y-101669809D01*
X62077571Y-101593619D01*
X62115666Y-101517428D01*
X62153761Y-101365047D01*
X62153761Y-101250761D01*
X62115666Y-101098380D01*
X62077571Y-101022190D01*
X62001380Y-100946000D01*
X61887095Y-100907904D01*
X61810904Y-100907904D01*
X61696619Y-100946000D01*
X61658523Y-100984095D01*
X60858523Y-101631714D02*
X60896619Y-101669809D01*
X61010904Y-101707904D01*
X61087095Y-101707904D01*
X61201380Y-101669809D01*
X61277571Y-101593619D01*
X61315666Y-101517428D01*
X61353761Y-101365047D01*
X61353761Y-101250761D01*
X61315666Y-101098380D01*
X61277571Y-101022190D01*
X61201380Y-100946000D01*
X61087095Y-100907904D01*
X61010904Y-100907904D01*
X60896619Y-100946000D01*
X60858523Y-100984095D01*
X54540095Y-96627904D02*
X54806761Y-96246952D01*
X54997238Y-96627904D02*
X54997238Y-95827904D01*
X54692476Y-95827904D01*
X54616285Y-95866000D01*
X54578190Y-95904095D01*
X54540095Y-95980285D01*
X54540095Y-96094571D01*
X54578190Y-96170761D01*
X54616285Y-96208857D01*
X54692476Y-96246952D01*
X54997238Y-96246952D01*
X54235333Y-96589809D02*
X54121047Y-96627904D01*
X53930571Y-96627904D01*
X53854380Y-96589809D01*
X53816285Y-96551714D01*
X53778190Y-96475523D01*
X53778190Y-96399333D01*
X53816285Y-96323142D01*
X53854380Y-96285047D01*
X53930571Y-96246952D01*
X54082952Y-96208857D01*
X54159142Y-96170761D01*
X54197238Y-96132666D01*
X54235333Y-96056476D01*
X54235333Y-95980285D01*
X54197238Y-95904095D01*
X54159142Y-95866000D01*
X54082952Y-95827904D01*
X53892476Y-95827904D01*
X53778190Y-95866000D01*
X53549619Y-95827904D02*
X53092476Y-95827904D01*
X53321047Y-96627904D02*
X53321047Y-95827904D01*
D11*
%TO.C,D29*%
X167350000Y-103775000D02*
X167350000Y-105775000D01*
X167350000Y-103775000D02*
X163450000Y-103775000D01*
X167350000Y-105775000D02*
X163450000Y-105775000D01*
D10*
%TO.C,J1*%
X229512500Y-42821000D02*
X230512500Y-42821000D01*
X230512500Y-42821000D02*
X230512500Y-40421000D01*
X224512500Y-40421000D02*
X224512500Y-42821000D01*
X224512500Y-42821000D02*
X225512500Y-42821000D01*
X229512500Y-38621000D02*
X225512500Y-38621000D01*
D11*
%TO.C,D6*%
X72100000Y-69262500D02*
X68200000Y-69262500D01*
X72100000Y-67262500D02*
X72100000Y-69262500D01*
X72100000Y-67262500D02*
X68200000Y-67262500D01*
%TO.C,C1*%
X42016000Y-72370836D02*
X42016000Y-72155164D01*
X41296000Y-72370836D02*
X41296000Y-72155164D01*
%TO.C,D14*%
X110200000Y-67262500D02*
X110200000Y-69262500D01*
X110200000Y-67262500D02*
X106300000Y-67262500D01*
X110200000Y-69262500D02*
X106300000Y-69262500D01*
%TO.C,D40*%
X234025000Y-86312500D02*
X230125000Y-86312500D01*
X234025000Y-86312500D02*
X234025000Y-88312500D01*
X234025000Y-88312500D02*
X230125000Y-88312500D01*
%TO.C,D8*%
X72100000Y-105362500D02*
X72100000Y-107362500D01*
X72100000Y-107362500D02*
X68200000Y-107362500D01*
X72100000Y-105362500D02*
X68200000Y-105362500D01*
%TO.C,D3*%
X62575000Y-84725000D02*
X58675000Y-84725000D01*
X62575000Y-86725000D02*
X58675000Y-86725000D01*
X62575000Y-84725000D02*
X62575000Y-86725000D01*
%TO.C,D36*%
X214975000Y-84725000D02*
X214975000Y-86725000D01*
X214975000Y-86725000D02*
X211075000Y-86725000D01*
X214975000Y-84725000D02*
X211075000Y-84725000D01*
%TO.C,D32*%
X195925000Y-86312500D02*
X192025000Y-86312500D01*
X195925000Y-88312500D02*
X192025000Y-88312500D01*
X195925000Y-86312500D02*
X195925000Y-88312500D01*
%TO.C,C4*%
X53200807Y-85647479D02*
X53353310Y-85494976D01*
X52691690Y-85138362D02*
X52844193Y-84985859D01*
%TO.C,D1*%
X43525000Y-46625000D02*
X43525000Y-48625000D01*
X43525000Y-46625000D02*
X39625000Y-46625000D01*
X43525000Y-48625000D02*
X39625000Y-48625000D01*
%TO.C,R4*%
X35078641Y-80644000D02*
X34771359Y-80644000D01*
X35078641Y-79884000D02*
X34771359Y-79884000D01*
%TO.C,Y1*%
X48092060Y-83119406D02*
X50920487Y-80290979D01*
X50425513Y-85452859D02*
X48092060Y-83119406D01*
%TO.C,D15*%
X119725000Y-86312500D02*
X119725000Y-88312500D01*
X119725000Y-86312500D02*
X115825000Y-86312500D01*
X119725000Y-88312500D02*
X115825000Y-88312500D01*
%TO.C,U1*%
X41524348Y-74909341D02*
X42037000Y-74396689D01*
X46629659Y-80014652D02*
X47142311Y-79502000D01*
X37444341Y-78989348D02*
X36931689Y-79502000D01*
X36931689Y-79502000D02*
X37444341Y-80014652D01*
X42037000Y-84607311D02*
X41524348Y-84094659D01*
X42549652Y-84094659D02*
X42037000Y-84607311D01*
X47142311Y-79502000D02*
X46629659Y-78989348D01*
%TO.C,D25*%
X226862500Y-46242000D02*
X228162500Y-46242000D01*
X228162500Y-49362000D02*
X226162500Y-49362000D01*
%TO.C,D34*%
X195925000Y-46625000D02*
X195925000Y-48625000D01*
X195925000Y-48625000D02*
X192025000Y-48625000D01*
X195925000Y-46625000D02*
X192025000Y-46625000D01*
%TO.C,D23*%
X157825000Y-86312500D02*
X153925000Y-86312500D01*
X157825000Y-86312500D02*
X157825000Y-88312500D01*
X157825000Y-88312500D02*
X153925000Y-88312500D01*
%TO.C,D21*%
X138775000Y-48212500D02*
X134875000Y-48212500D01*
X138775000Y-48212500D02*
X138775000Y-50212500D01*
X138775000Y-50212500D02*
X134875000Y-50212500D01*
%TO.C,D39*%
X224500000Y-69262500D02*
X220600000Y-69262500D01*
X224500000Y-67262500D02*
X220600000Y-67262500D01*
X224500000Y-67262500D02*
X224500000Y-69262500D01*
%TO.C,D30*%
X176875000Y-48212500D02*
X176875000Y-50212500D01*
X176875000Y-50212500D02*
X172975000Y-50212500D01*
X176875000Y-48212500D02*
X172975000Y-48212500D01*
%TO.C,D41*%
X229262500Y-105362500D02*
X225362500Y-105362500D01*
X229262500Y-105362500D02*
X229262500Y-107362500D01*
X229262500Y-107362500D02*
X225362500Y-107362500D01*
%TO.C,D20*%
X129250000Y-103775000D02*
X129250000Y-105775000D01*
X129250000Y-103775000D02*
X125350000Y-103775000D01*
X129250000Y-105775000D02*
X125350000Y-105775000D01*
%TO.C,D24*%
X148300000Y-107362500D02*
X144400000Y-107362500D01*
X148300000Y-105362500D02*
X144400000Y-105362500D01*
X148300000Y-105362500D02*
X148300000Y-107362500D01*
%TO.C,D26*%
X157825000Y-46625000D02*
X153925000Y-46625000D01*
X157825000Y-48625000D02*
X153925000Y-48625000D01*
X157825000Y-46625000D02*
X157825000Y-48625000D01*
%TO.C,D22*%
X148300000Y-67262500D02*
X144400000Y-67262500D01*
X148300000Y-69262500D02*
X144400000Y-69262500D01*
X148300000Y-67262500D02*
X148300000Y-69262500D01*
%TO.C,D13*%
X100675000Y-48212500D02*
X96775000Y-48212500D01*
X100675000Y-48212500D02*
X100675000Y-50212500D01*
X100675000Y-50212500D02*
X96775000Y-50212500D01*
D12*
%TO.C,J2*%
X55483935Y-97567192D02*
X60483935Y-97567192D01*
X60483935Y-97567192D02*
X60483935Y-95067192D01*
X55483935Y-95067192D02*
X55483935Y-97567192D01*
X60483935Y-95067192D02*
X55483935Y-95067192D01*
D11*
%TO.C,C3*%
X48427193Y-85583979D02*
X48274690Y-85431476D01*
X48936310Y-85074862D02*
X48783807Y-84922359D01*
%TO.C,D7*%
X81625000Y-86312500D02*
X81625000Y-88312500D01*
X81625000Y-86312500D02*
X77725000Y-86312500D01*
X81625000Y-88312500D02*
X77725000Y-88312500D01*
%TO.C,D4*%
X48287500Y-103775000D02*
X48287500Y-105775000D01*
X48287500Y-103775000D02*
X44387500Y-103775000D01*
X48287500Y-105775000D02*
X44387500Y-105775000D01*
%TO.C,R2*%
X45592000Y-71347359D02*
X45592000Y-71654641D01*
X44832000Y-71347359D02*
X44832000Y-71654641D01*
%TO.C,D38*%
X214975000Y-48212500D02*
X211075000Y-48212500D01*
X214975000Y-50212500D02*
X211075000Y-50212500D01*
X214975000Y-48212500D02*
X214975000Y-50212500D01*
%TO.C,R3*%
X49526341Y-77817940D02*
X49309060Y-77600659D01*
X48988940Y-78355341D02*
X48771659Y-78138060D01*
%TO.C,D31*%
X186400000Y-67262500D02*
X186400000Y-69262500D01*
X186400000Y-67262500D02*
X182500000Y-67262500D01*
X186400000Y-69262500D02*
X182500000Y-69262500D01*
%TO.C,D2*%
X53050000Y-67675000D02*
X49150000Y-67675000D01*
X53050000Y-65675000D02*
X53050000Y-67675000D01*
X53050000Y-65675000D02*
X49150000Y-65675000D01*
%TO.C,D9*%
X81625000Y-46625000D02*
X81625000Y-48625000D01*
X81625000Y-46625000D02*
X77725000Y-46625000D01*
X81625000Y-48625000D02*
X77725000Y-48625000D01*
%TO.C,D12*%
X91150000Y-105775000D02*
X87250000Y-105775000D01*
X91150000Y-103775000D02*
X87250000Y-103775000D01*
X91150000Y-103775000D02*
X91150000Y-105775000D01*
%TO.C,D35*%
X205450000Y-65675000D02*
X201550000Y-65675000D01*
X205450000Y-65675000D02*
X205450000Y-67675000D01*
X205450000Y-67675000D02*
X201550000Y-67675000D01*
%TO.C,R9*%
X239389074Y-39156492D02*
X239389074Y-38849210D01*
X240149074Y-39156492D02*
X240149074Y-38849210D01*
%TO.C,F1*%
X232685000Y-48546936D02*
X232685000Y-49751064D01*
X230865000Y-48546936D02*
X230865000Y-49751064D01*
%TO.C,D33*%
X186400000Y-105362500D02*
X186400000Y-107362500D01*
X186400000Y-107362500D02*
X182500000Y-107362500D01*
X186400000Y-105362500D02*
X182500000Y-105362500D01*
%TO.C,D17*%
X119725000Y-46625000D02*
X115825000Y-46625000D01*
X119725000Y-48625000D02*
X115825000Y-48625000D01*
X119725000Y-46625000D02*
X119725000Y-48625000D01*
%TO.C,D27*%
X167350000Y-65675000D02*
X163450000Y-65675000D01*
X167350000Y-67675000D02*
X163450000Y-67675000D01*
X167350000Y-65675000D02*
X167350000Y-67675000D01*
%TO.C,D16*%
X110200000Y-107362500D02*
X106300000Y-107362500D01*
X110200000Y-105362500D02*
X110200000Y-107362500D01*
X110200000Y-105362500D02*
X106300000Y-105362500D01*
%TO.C,D28*%
X176875000Y-84725000D02*
X176875000Y-86725000D01*
X176875000Y-86725000D02*
X172975000Y-86725000D01*
X176875000Y-84725000D02*
X172975000Y-84725000D01*
%TO.C,D18*%
X129250000Y-67675000D02*
X125350000Y-67675000D01*
X129250000Y-65675000D02*
X129250000Y-67675000D01*
X129250000Y-65675000D02*
X125350000Y-65675000D01*
%TO.C,R8*%
X239332500Y-46191141D02*
X239332500Y-45883859D01*
X240092500Y-46191141D02*
X240092500Y-45883859D01*
%TO.C,D5*%
X62575000Y-48212500D02*
X62575000Y-50212500D01*
X62575000Y-50212500D02*
X58675000Y-50212500D01*
X62575000Y-48212500D02*
X58675000Y-48212500D01*
%TO.C,D19*%
X138775000Y-84725000D02*
X138775000Y-86725000D01*
X138775000Y-84725000D02*
X134875000Y-84725000D01*
X138775000Y-86725000D02*
X134875000Y-86725000D01*
%TO.C,C5*%
X35889693Y-77419810D02*
X35737190Y-77267307D01*
X36398810Y-76910693D02*
X36246307Y-76758190D01*
%TO.C,D10*%
X91150000Y-65675000D02*
X87250000Y-65675000D01*
X91150000Y-67675000D02*
X87250000Y-67675000D01*
X91150000Y-65675000D02*
X91150000Y-67675000D01*
%TO.C,R1*%
X44576000Y-71347359D02*
X44576000Y-71654641D01*
X43816000Y-71347359D02*
X43816000Y-71654641D01*
%TO.C,C7*%
X49859693Y-77419810D02*
X49707190Y-77267307D01*
X50368810Y-76910693D02*
X50216307Y-76758190D01*
%TO.C,C6*%
X45770190Y-75132693D02*
X45922693Y-74980190D01*
X46279307Y-75641810D02*
X46431810Y-75489307D01*
%TO.C,D37*%
X205450000Y-105775000D02*
X201550000Y-105775000D01*
X205450000Y-103775000D02*
X201550000Y-103775000D01*
X205450000Y-103775000D02*
X205450000Y-105775000D01*
%TO.C,C2*%
X40310307Y-85140190D02*
X40462810Y-85292693D01*
X39801190Y-85649307D02*
X39953693Y-85801810D01*
%TO.C,C8*%
X47731000Y-72370836D02*
X47731000Y-72155164D01*
X47011000Y-72370836D02*
X47011000Y-72155164D01*
%TO.C,D11*%
X100675000Y-84725000D02*
X100675000Y-86725000D01*
X100675000Y-84725000D02*
X96775000Y-84725000D01*
X100675000Y-86725000D02*
X96775000Y-86725000D01*
%TD*%
M02*
