M48
; DRILL file {KiCad (6.0.7)} date Fri Dec 16 21:18:28 2022
; FORMAT={-:-/ absolute / inch / decimal}
; #@! TF.CreationDate,2022-12-16T21:18:28+01:00
; #@! TF.GenerationSoftware,Kicad,Pcbnew,(6.0.7)
; #@! TF.FileFunction,Plated,1,2,PTH
FMAT,2
INCH
; #@! TA.AperFunction,Plated,PTH,ViaDrill
T1C0.0157
; #@! TA.AperFunction,Plated,PTH,ComponentDrill
T2C0.0390
; #@! TA.AperFunction,Plated,PTH,ComponentDrill
T3C0.0394
; #@! TA.AperFunction,Plated,PTH,ComponentDrill
T4C0.0579
%
G90
G05
T1
X1.3333Y-2.7935
X1.3525Y-2.8386
X1.3877Y-2.7339
X1.395Y-2.5761
X1.405Y-2.35
X1.4125Y-3.0936
X1.4275Y-3.0186
X1.455Y-1.9574
X1.455Y-2.355
X1.5006Y-2.6247
X1.765Y-3.125
X1.8Y-3.065
X1.87Y-2.721
X1.93Y-2.97
X1.9452Y-2.7048
X2.3713Y-2.4397
X2.3713Y-2.4971
X2.4106Y-2.4397
X2.4106Y-2.4968
X2.45Y-2.4397
X2.45Y-2.4968
X8.99Y-1.87
X9.0081Y-1.72
X9.0337Y-1.9568
X9.0453Y-1.4416
X9.3124Y-1.6192
X9.3125Y-1.8692
X9.3417Y-2.575
X9.3422Y-2.622
X9.3871Y-2.4667
X9.4212Y-2.575
X9.4212Y-2.625
X9.435Y-2.31
T2
X9.3125Y-1.45
X9.3125Y-1.55
X9.3125Y-1.7
X9.3125Y-1.8
T3
X1.405Y-2.085
X1.405Y-2.185
X1.405Y-2.285
X1.505Y-2.085
X1.505Y-2.185
X1.505Y-2.285
T4
X0.35Y-1.525
X0.6Y-1.425
X0.725Y-1.525
X0.975Y-1.425
X1.475Y0.725
X1.475Y-0.025
X1.475Y-0.775
X1.475Y-1.525
X1.475Y-3.775
X1.475Y-4.525
X1.475Y-4.9
X1.6625Y-3.775
X1.725Y0.825
X1.725Y0.075
X1.725Y-0.675
X1.725Y-1.425
X1.725Y-3.675
X1.725Y-4.425
X1.725Y-4.8
X1.85Y-2.275
X1.9125Y-3.675
X2.1Y-2.175
X2.225Y-1.525
X2.225Y-3.025
X2.225Y-3.775
X2.475Y-1.425
X2.475Y-2.925
X2.475Y-3.675
X2.6Y-2.275
X2.6Y-3.775
X2.85Y-2.175
X2.85Y-3.675
X2.975Y-1.525
X2.975Y-3.025
X2.975Y-3.775
X3.225Y-1.425
X3.225Y-2.925
X3.225Y-3.675
X3.35Y-2.275
X3.35Y-3.775
X3.6Y-2.175
X3.6Y-3.675
X3.725Y-1.525
X3.725Y-3.025
X3.725Y-3.775
X3.975Y-1.425
X3.975Y-2.925
X3.975Y-3.675
X4.1Y-2.275
X4.1Y-3.775
X4.1Y-3.775
X4.35Y-2.175
X4.35Y-3.675
X4.35Y-3.675
X4.475Y-1.525
X4.475Y-3.025
X4.475Y-3.775
X4.6625Y-3.775
X4.725Y-1.425
X4.725Y-2.925
X4.725Y-3.675
X4.85Y-2.275
X4.85Y-3.775
X4.9125Y-3.675
X5.1Y-2.175
X5.1Y-3.675
X5.22Y-1.525
X5.225Y-3.025
X5.225Y-3.775
X5.225Y-3.775
X5.47Y-1.425
X5.475Y-2.925
X5.475Y-3.675
X5.475Y-3.675
X5.6Y-2.275
X5.6Y-3.775
X5.7875Y-3.775
X5.85Y-2.175
X5.85Y-3.675
X5.975Y-1.525
X5.975Y-3.025
X5.975Y-3.775
X6.0375Y-3.675
X6.225Y-1.425
X6.225Y-2.925
X6.225Y-3.675
X6.35Y-2.275
X6.35Y-3.775
X6.35Y-3.775
X6.6Y-2.175
X6.6Y-3.675
X6.6Y-3.675
X6.725Y-1.525
X6.725Y-3.025
X6.725Y-3.775
X6.975Y-1.425
X6.975Y-2.925
X6.975Y-3.675
X7.1Y-2.275
X7.1Y-3.775
X7.35Y-2.175
X7.35Y-3.675
X7.475Y-1.525
X7.475Y-3.025
X7.475Y-3.775
X7.725Y-1.425
X7.725Y-2.925
X7.725Y-3.675
X7.85Y-2.275
X7.85Y-3.775
X8.1Y-2.175
X8.1Y-3.675
X8.225Y-1.525
X8.225Y-3.025
X8.225Y-3.775
X8.475Y-1.425
X8.475Y-2.925
X8.475Y-3.675
X8.6Y-2.275
X8.7875Y-3.775
X8.85Y-2.175
X8.975Y-3.025
X8.975Y-3.775
X9.0375Y-3.675
X9.225Y-2.925
X9.225Y-3.675
X9.725Y-3.025
X9.975Y-2.925
X10.1Y-3.025
X10.35Y-2.925
T0
M30
