%TF.GenerationSoftware,KiCad,Pcbnew,(6.0.7)*%
%TF.CreationDate,2022-12-16T21:18:24+01:00*%
%TF.ProjectId,Didaktik multilayout,44696461-6b74-4696-9b20-6d756c74696c,rev?*%
%TF.SameCoordinates,Original*%
%TF.FileFunction,Legend,Bot*%
%TF.FilePolarity,Positive*%
%FSLAX46Y46*%
G04 Gerber Fmt 4.6, Leading zero omitted, Abs format (unit mm)*
G04 Created by KiCad (PCBNEW (6.0.7)) date 2022-12-16 21:18:24*
%MOMM*%
%LPD*%
G01*
G04 APERTURE LIST*
%ADD10C,0.150000*%
%ADD11C,0.120000*%
%ADD12C,0.250000*%
G04 APERTURE END LIST*
D10*
X89233333Y-85177380D02*
X89423809Y-85177380D01*
X89519047Y-85225000D01*
X89566666Y-85272619D01*
X89661904Y-85415476D01*
X89709523Y-85605952D01*
X89709523Y-85986904D01*
X89661904Y-86082142D01*
X89614285Y-86129761D01*
X89519047Y-86177380D01*
X89328571Y-86177380D01*
X89233333Y-86129761D01*
X89185714Y-86082142D01*
X89138095Y-85986904D01*
X89138095Y-85748809D01*
X89185714Y-85653571D01*
X89233333Y-85605952D01*
X89328571Y-85558333D01*
X89519047Y-85558333D01*
X89614285Y-85605952D01*
X89661904Y-85653571D01*
X89709523Y-85748809D01*
X88709523Y-85177380D02*
X88709523Y-85986904D01*
X88661904Y-86082142D01*
X88614285Y-86129761D01*
X88519047Y-86177380D01*
X88328571Y-86177380D01*
X88233333Y-86129761D01*
X88185714Y-86082142D01*
X88138095Y-85986904D01*
X88138095Y-85177380D01*
X130222182Y-86842169D02*
X130174563Y-86794550D01*
X130079325Y-86746930D01*
X129841230Y-86746930D01*
X129745992Y-86794550D01*
X129698373Y-86842169D01*
X129650754Y-86937407D01*
X129650754Y-87032645D01*
X129698373Y-87175502D01*
X130269801Y-87746930D01*
X129650754Y-87746930D01*
X129222182Y-86746930D02*
X129222182Y-87556454D01*
X129174563Y-87651692D01*
X129126944Y-87699311D01*
X129031706Y-87746930D01*
X128841230Y-87746930D01*
X128745992Y-87699311D01*
X128698373Y-87651692D01*
X128650754Y-87556454D01*
X128650754Y-86746930D01*
X77104166Y-34319666D02*
X77104166Y-32569666D01*
X76687500Y-32569666D01*
X76437500Y-32653000D01*
X76270833Y-32819666D01*
X76187500Y-32986333D01*
X76104166Y-33319666D01*
X76104166Y-33569666D01*
X76187500Y-33903000D01*
X76270833Y-34069666D01*
X76437500Y-34236333D01*
X76687500Y-34319666D01*
X77104166Y-34319666D01*
X75354166Y-34319666D02*
X75354166Y-33153000D01*
X75354166Y-32569666D02*
X75437500Y-32653000D01*
X75354166Y-32736333D01*
X75270833Y-32653000D01*
X75354166Y-32569666D01*
X75354166Y-32736333D01*
X73770833Y-34319666D02*
X73770833Y-32569666D01*
X73770833Y-34236333D02*
X73937500Y-34319666D01*
X74270833Y-34319666D01*
X74437500Y-34236333D01*
X74520833Y-34153000D01*
X74604166Y-33986333D01*
X74604166Y-33486333D01*
X74520833Y-33319666D01*
X74437500Y-33236333D01*
X74270833Y-33153000D01*
X73937500Y-33153000D01*
X73770833Y-33236333D01*
X72187500Y-34319666D02*
X72187500Y-33403000D01*
X72270833Y-33236333D01*
X72437500Y-33153000D01*
X72770833Y-33153000D01*
X72937500Y-33236333D01*
X72187500Y-34236333D02*
X72354166Y-34319666D01*
X72770833Y-34319666D01*
X72937500Y-34236333D01*
X73020833Y-34069666D01*
X73020833Y-33903000D01*
X72937500Y-33736333D01*
X72770833Y-33653000D01*
X72354166Y-33653000D01*
X72187500Y-33569666D01*
X71354166Y-34319666D02*
X71354166Y-32569666D01*
X71187500Y-33653000D02*
X70687500Y-34319666D01*
X70687500Y-33153000D02*
X71354166Y-33819666D01*
X70187500Y-33153000D02*
X69520833Y-33153000D01*
X69937500Y-32569666D02*
X69937500Y-34069666D01*
X69854166Y-34236333D01*
X69687500Y-34319666D01*
X69520833Y-34319666D01*
X68937500Y-34319666D02*
X68937500Y-33153000D01*
X68937500Y-32569666D02*
X69020833Y-32653000D01*
X68937500Y-32736333D01*
X68854166Y-32653000D01*
X68937500Y-32569666D01*
X68937500Y-32736333D01*
X68104166Y-34319666D02*
X68104166Y-32569666D01*
X67937500Y-33653000D02*
X67437500Y-34319666D01*
X67437500Y-33153000D02*
X68104166Y-33819666D01*
X64604166Y-33153000D02*
X64604166Y-34319666D01*
X65020833Y-32486333D02*
X65437500Y-33736333D01*
X64354166Y-33736333D01*
X63354166Y-32569666D02*
X63187499Y-32569666D01*
X63020833Y-32653000D01*
X62937499Y-32736333D01*
X62854166Y-32903000D01*
X62770833Y-33236333D01*
X62770833Y-33653000D01*
X62854166Y-33986333D01*
X62937499Y-34153000D01*
X63020833Y-34236333D01*
X63187499Y-34319666D01*
X63354166Y-34319666D01*
X63520833Y-34236333D01*
X63604166Y-34153000D01*
X63687499Y-33986333D01*
X63770833Y-33653000D01*
X63770833Y-33236333D01*
X63687499Y-32903000D01*
X63604166Y-32736333D01*
X63520833Y-32653000D01*
X63354166Y-32569666D01*
X60854166Y-33153000D02*
X60437499Y-34319666D01*
X60020833Y-33153000D01*
X58437500Y-34319666D02*
X59437500Y-34319666D01*
X58937500Y-34319666D02*
X58937500Y-32569666D01*
X59104166Y-32819666D01*
X59270833Y-32986333D01*
X59437500Y-33069666D01*
X57687499Y-34153000D02*
X57604166Y-34236333D01*
X57687499Y-34319666D01*
X57770833Y-34236333D01*
X57687499Y-34153000D01*
X57687499Y-34319666D01*
X56520833Y-32569666D02*
X56354166Y-32569666D01*
X56187500Y-32653000D01*
X56104166Y-32736333D01*
X56020833Y-32903000D01*
X55937500Y-33236333D01*
X55937500Y-33653000D01*
X56020833Y-33986333D01*
X56104166Y-34153000D01*
X56187500Y-34236333D01*
X56354166Y-34319666D01*
X56520833Y-34319666D01*
X56687500Y-34236333D01*
X56770833Y-34153000D01*
X56854166Y-33986333D01*
X56937500Y-33653000D01*
X56937500Y-33236333D01*
X56854166Y-32903000D01*
X56770833Y-32736333D01*
X56687500Y-32653000D01*
X56520833Y-32569666D01*
X53854166Y-34319666D02*
X53854166Y-32569666D01*
X53854166Y-33236333D02*
X53687500Y-33153000D01*
X53354166Y-33153000D01*
X53187500Y-33236333D01*
X53104166Y-33319666D01*
X53020833Y-33486333D01*
X53020833Y-33986333D01*
X53104166Y-34153000D01*
X53187500Y-34236333D01*
X53354166Y-34319666D01*
X53687500Y-34319666D01*
X53854166Y-34236333D01*
X52437500Y-33153000D02*
X52020833Y-34319666D01*
X51604166Y-33153000D02*
X52020833Y-34319666D01*
X52187500Y-34736333D01*
X52270833Y-34819666D01*
X52437500Y-34903000D01*
X48604166Y-34153000D02*
X48687500Y-34236333D01*
X48937500Y-34319666D01*
X49104166Y-34319666D01*
X49354166Y-34236333D01*
X49520833Y-34069666D01*
X49604166Y-33903000D01*
X49687500Y-33569666D01*
X49687500Y-33319666D01*
X49604166Y-32986333D01*
X49520833Y-32819666D01*
X49354166Y-32653000D01*
X49104166Y-32569666D01*
X48937500Y-32569666D01*
X48687500Y-32653000D01*
X48604166Y-32736333D01*
X47104166Y-34319666D02*
X47104166Y-33403000D01*
X47187500Y-33236333D01*
X47354166Y-33153000D01*
X47687500Y-33153000D01*
X47854166Y-33236333D01*
X47104166Y-34236333D02*
X47270833Y-34319666D01*
X47687500Y-34319666D01*
X47854166Y-34236333D01*
X47937500Y-34069666D01*
X47937500Y-33903000D01*
X47854166Y-33736333D01*
X47687500Y-33653000D01*
X47270833Y-33653000D01*
X47104166Y-33569666D01*
X46020833Y-34319666D02*
X46187500Y-34236333D01*
X46270833Y-34069666D01*
X46270833Y-32569666D01*
X45520833Y-33153000D02*
X45104166Y-34319666D01*
X44687500Y-33153000D01*
X44020833Y-34319666D02*
X44020833Y-33153000D01*
X44020833Y-32569666D02*
X44104166Y-32653000D01*
X44020833Y-32736333D01*
X43937500Y-32653000D01*
X44020833Y-32569666D01*
X44020833Y-32736333D01*
X43187500Y-33153000D02*
X43187500Y-34319666D01*
X43187500Y-33319666D02*
X43104166Y-33236333D01*
X42937500Y-33153000D01*
X42687500Y-33153000D01*
X42520833Y-33236333D01*
X42437500Y-33403000D01*
X42437500Y-34319666D01*
X41687499Y-33153000D02*
X40437499Y-33153000D01*
X41187499Y-32403000D02*
X41687499Y-34653000D01*
X40604166Y-33903000D02*
X41854166Y-33903000D01*
X41104166Y-34653000D02*
X40604166Y-32403000D01*
X39520833Y-32569666D02*
X39354166Y-32569666D01*
X39187499Y-32653000D01*
X39104166Y-32736333D01*
X39020833Y-32903000D01*
X38937499Y-33236333D01*
X38937499Y-33653000D01*
X39020833Y-33986333D01*
X39104166Y-34153000D01*
X39187499Y-34236333D01*
X39354166Y-34319666D01*
X39520833Y-34319666D01*
X39687499Y-34236333D01*
X39770833Y-34153000D01*
X39854166Y-33986333D01*
X39937499Y-33653000D01*
X39937499Y-33236333D01*
X39854166Y-32903000D01*
X39770833Y-32736333D01*
X39687499Y-32653000D01*
X39520833Y-32569666D01*
X37354166Y-32569666D02*
X38187499Y-32569666D01*
X38270833Y-33403000D01*
X38187499Y-33319666D01*
X38020833Y-33236333D01*
X37604166Y-33236333D01*
X37437499Y-33319666D01*
X37354166Y-33403000D01*
X37270833Y-33569666D01*
X37270833Y-33986333D01*
X37354166Y-34153000D01*
X37437499Y-34236333D01*
X37604166Y-34319666D01*
X38020833Y-34319666D01*
X38187499Y-34236333D01*
X38270833Y-34153000D01*
X35770833Y-32569666D02*
X36104166Y-32569666D01*
X36270833Y-32653000D01*
X36354166Y-32736333D01*
X36520833Y-32986333D01*
X36604166Y-33319666D01*
X36604166Y-33986333D01*
X36520833Y-34153000D01*
X36437499Y-34236333D01*
X36270833Y-34319666D01*
X35937499Y-34319666D01*
X35770833Y-34236333D01*
X35687499Y-34153000D01*
X35604166Y-33986333D01*
X35604166Y-33569666D01*
X35687499Y-33403000D01*
X35770833Y-33319666D01*
X35937499Y-33236333D01*
X36270833Y-33236333D01*
X36437499Y-33319666D01*
X36520833Y-33403000D01*
X36604166Y-33569666D01*
X35020833Y-32569666D02*
X33937499Y-32569666D01*
X34520833Y-33236333D01*
X34270833Y-33236333D01*
X34104166Y-33319666D01*
X34020833Y-33403000D01*
X33937499Y-33569666D01*
X33937499Y-33986333D01*
X34020833Y-34153000D01*
X34104166Y-34236333D01*
X34270833Y-34319666D01*
X34770833Y-34319666D01*
X34937499Y-34236333D01*
X35020833Y-34153000D01*
X184483333Y-85177380D02*
X184673809Y-85177380D01*
X184769047Y-85225000D01*
X184816666Y-85272619D01*
X184911904Y-85415476D01*
X184959523Y-85605952D01*
X184959523Y-85986904D01*
X184911904Y-86082142D01*
X184864285Y-86129761D01*
X184769047Y-86177380D01*
X184578571Y-86177380D01*
X184483333Y-86129761D01*
X184435714Y-86082142D01*
X184388095Y-85986904D01*
X184388095Y-85748809D01*
X184435714Y-85653571D01*
X184483333Y-85605952D01*
X184578571Y-85558333D01*
X184769047Y-85558333D01*
X184864285Y-85605952D01*
X184911904Y-85653571D01*
X184959523Y-85748809D01*
X183959523Y-85177380D02*
X183959523Y-85986904D01*
X183911904Y-86082142D01*
X183864285Y-86129761D01*
X183769047Y-86177380D01*
X183578571Y-86177380D01*
X183483333Y-86129761D01*
X183435714Y-86082142D01*
X183388095Y-85986904D01*
X183388095Y-85177380D01*
X80232142Y-86764880D02*
X79565476Y-86764880D01*
X79994047Y-87764880D01*
X79184523Y-86764880D02*
X79184523Y-87574404D01*
X79136904Y-87669642D01*
X79089285Y-87717261D01*
X78994047Y-87764880D01*
X78803571Y-87764880D01*
X78708333Y-87717261D01*
X78660714Y-87669642D01*
X78613095Y-87574404D01*
X78613095Y-86764880D01*
X165957142Y-101052380D02*
X165338095Y-101052380D01*
X165671428Y-101433333D01*
X165528571Y-101433333D01*
X165433333Y-101480952D01*
X165385714Y-101528571D01*
X165338095Y-101623809D01*
X165338095Y-101861904D01*
X165385714Y-101957142D01*
X165433333Y-102004761D01*
X165528571Y-102052380D01*
X165814285Y-102052380D01*
X165909523Y-102004761D01*
X165957142Y-101957142D01*
X164909523Y-101052380D02*
X164909523Y-101861904D01*
X164861904Y-101957142D01*
X164814285Y-102004761D01*
X164719047Y-102052380D01*
X164528571Y-102052380D01*
X164433333Y-102004761D01*
X164385714Y-101957142D01*
X164338095Y-101861904D01*
X164338095Y-101052380D01*
X106319974Y-86976703D02*
X106272355Y-86929084D01*
X106177117Y-86881464D01*
X105939022Y-86881464D01*
X105843784Y-86929084D01*
X105796165Y-86976703D01*
X105748546Y-87071941D01*
X105748546Y-87167179D01*
X105796165Y-87310036D01*
X106367593Y-87881464D01*
X105748546Y-87881464D01*
X105319974Y-86881464D02*
X105319974Y-87690988D01*
X105272355Y-87786226D01*
X105224736Y-87833845D01*
X105129498Y-87881464D01*
X104939022Y-87881464D01*
X104843784Y-87833845D01*
X104796165Y-87786226D01*
X104748546Y-87690988D01*
X104748546Y-86881464D01*
X41219380Y-57062809D02*
X40219380Y-57062809D01*
X41171761Y-57491380D02*
X41219380Y-57634238D01*
X41219380Y-57872333D01*
X41171761Y-57967571D01*
X41124142Y-58015190D01*
X41028904Y-58062809D01*
X40933666Y-58062809D01*
X40838428Y-58015190D01*
X40790809Y-57967571D01*
X40743190Y-57872333D01*
X40695571Y-57681857D01*
X40647952Y-57586619D01*
X40600333Y-57539000D01*
X40505095Y-57491380D01*
X40409857Y-57491380D01*
X40314619Y-57539000D01*
X40267000Y-57586619D01*
X40219380Y-57681857D01*
X40219380Y-57919952D01*
X40267000Y-58062809D01*
X41219380Y-58491380D02*
X40219380Y-58491380D01*
X40219380Y-58872333D01*
X40267000Y-58967571D01*
X40314619Y-59015190D01*
X40409857Y-59062809D01*
X40552714Y-59062809D01*
X40647952Y-59015190D01*
X40695571Y-58967571D01*
X40743190Y-58872333D01*
X40743190Y-58491380D01*
X151764880Y-102052380D02*
X152336309Y-102052380D01*
X152050595Y-102052380D02*
X152050595Y-101052380D01*
X152145833Y-101195238D01*
X152241071Y-101290476D01*
X152336309Y-101338095D01*
X151336309Y-101957142D02*
X151288690Y-102004761D01*
X151336309Y-102052380D01*
X151383928Y-102004761D01*
X151336309Y-101957142D01*
X151336309Y-102052380D01*
X150383928Y-101052380D02*
X150860119Y-101052380D01*
X150907738Y-101528571D01*
X150860119Y-101480952D01*
X150764880Y-101433333D01*
X150526785Y-101433333D01*
X150431547Y-101480952D01*
X150383928Y-101528571D01*
X150336309Y-101623809D01*
X150336309Y-101861904D01*
X150383928Y-101957142D01*
X150431547Y-102004761D01*
X150526785Y-102052380D01*
X150764880Y-102052380D01*
X150860119Y-102004761D01*
X150907738Y-101957142D01*
X149907738Y-101052380D02*
X149907738Y-101861904D01*
X149860119Y-101957142D01*
X149812500Y-102004761D01*
X149717261Y-102052380D01*
X149526785Y-102052380D01*
X149431547Y-102004761D01*
X149383928Y-101957142D01*
X149336309Y-101861904D01*
X149336309Y-101052380D01*
X123189880Y-102052380D02*
X123761309Y-102052380D01*
X123475595Y-102052380D02*
X123475595Y-101052380D01*
X123570833Y-101195238D01*
X123666071Y-101290476D01*
X123761309Y-101338095D01*
X122761309Y-101957142D02*
X122713690Y-102004761D01*
X122761309Y-102052380D01*
X122808928Y-102004761D01*
X122761309Y-101957142D01*
X122761309Y-102052380D01*
X121808928Y-101052380D02*
X122285119Y-101052380D01*
X122332738Y-101528571D01*
X122285119Y-101480952D01*
X122189880Y-101433333D01*
X121951785Y-101433333D01*
X121856547Y-101480952D01*
X121808928Y-101528571D01*
X121761309Y-101623809D01*
X121761309Y-101861904D01*
X121808928Y-101957142D01*
X121856547Y-102004761D01*
X121951785Y-102052380D01*
X122189880Y-102052380D01*
X122285119Y-102004761D01*
X122332738Y-101957142D01*
X121332738Y-101052380D02*
X121332738Y-101861904D01*
X121285119Y-101957142D01*
X121237500Y-102004761D01*
X121142261Y-102052380D01*
X120951785Y-102052380D01*
X120856547Y-102004761D01*
X120808928Y-101957142D01*
X120761309Y-101861904D01*
X120761309Y-101052380D01*
X108807142Y-101052380D02*
X108188095Y-101052380D01*
X108521428Y-101433333D01*
X108378571Y-101433333D01*
X108283333Y-101480952D01*
X108235714Y-101528571D01*
X108188095Y-101623809D01*
X108188095Y-101861904D01*
X108235714Y-101957142D01*
X108283333Y-102004761D01*
X108378571Y-102052380D01*
X108664285Y-102052380D01*
X108759523Y-102004761D01*
X108807142Y-101957142D01*
X107759523Y-101052380D02*
X107759523Y-101861904D01*
X107711904Y-101957142D01*
X107664285Y-102004761D01*
X107569047Y-102052380D01*
X107378571Y-102052380D01*
X107283333Y-102004761D01*
X107235714Y-101957142D01*
X107188095Y-101861904D01*
X107188095Y-101052380D01*
X194532142Y-86764880D02*
X193865476Y-86764880D01*
X194294047Y-87764880D01*
X193484523Y-86764880D02*
X193484523Y-87574404D01*
X193436904Y-87669642D01*
X193389285Y-87717261D01*
X193294047Y-87764880D01*
X193103571Y-87764880D01*
X193008333Y-87717261D01*
X192960714Y-87669642D01*
X192913095Y-87574404D01*
X192913095Y-86764880D01*
X156384523Y-101147619D02*
X156336904Y-101100000D01*
X156241666Y-101052380D01*
X156003571Y-101052380D01*
X155908333Y-101100000D01*
X155860714Y-101147619D01*
X155813095Y-101242857D01*
X155813095Y-101338095D01*
X155860714Y-101480952D01*
X156432142Y-102052380D01*
X155813095Y-102052380D01*
X155384523Y-101052380D02*
X155384523Y-101861904D01*
X155336904Y-101957142D01*
X155289285Y-102004761D01*
X155194047Y-102052380D01*
X155003571Y-102052380D01*
X154908333Y-102004761D01*
X154860714Y-101957142D01*
X154813095Y-101861904D01*
X154813095Y-101052380D01*
X46989880Y-102052380D02*
X47561309Y-102052380D01*
X47275595Y-102052380D02*
X47275595Y-101052380D01*
X47370833Y-101195238D01*
X47466071Y-101290476D01*
X47561309Y-101338095D01*
X46561309Y-101957142D02*
X46513690Y-102004761D01*
X46561309Y-102052380D01*
X46608928Y-102004761D01*
X46561309Y-101957142D01*
X46561309Y-102052380D01*
X45608928Y-101052380D02*
X46085119Y-101052380D01*
X46132738Y-101528571D01*
X46085119Y-101480952D01*
X45989880Y-101433333D01*
X45751785Y-101433333D01*
X45656547Y-101480952D01*
X45608928Y-101528571D01*
X45561309Y-101623809D01*
X45561309Y-101861904D01*
X45608928Y-101957142D01*
X45656547Y-102004761D01*
X45751785Y-102052380D01*
X45989880Y-102052380D01*
X46085119Y-102004761D01*
X46132738Y-101957142D01*
X45132738Y-101052380D02*
X45132738Y-101861904D01*
X45085119Y-101957142D01*
X45037500Y-102004761D01*
X44942261Y-102052380D01*
X44751785Y-102052380D01*
X44656547Y-102004761D01*
X44608928Y-101957142D01*
X44561309Y-101861904D01*
X44561309Y-101052380D01*
X137382142Y-102639880D02*
X136715476Y-102639880D01*
X137144047Y-103639880D01*
X136334523Y-102639880D02*
X136334523Y-103449404D01*
X136286904Y-103544642D01*
X136239285Y-103592261D01*
X136144047Y-103639880D01*
X135953571Y-103639880D01*
X135858333Y-103592261D01*
X135810714Y-103544642D01*
X135763095Y-103449404D01*
X135763095Y-102639880D01*
X227964880Y-102052380D02*
X228536309Y-102052380D01*
X228250595Y-102052380D02*
X228250595Y-101052380D01*
X228345833Y-101195238D01*
X228441071Y-101290476D01*
X228536309Y-101338095D01*
X227536309Y-101957142D02*
X227488690Y-102004761D01*
X227536309Y-102052380D01*
X227583928Y-102004761D01*
X227536309Y-101957142D01*
X227536309Y-102052380D01*
X226583928Y-101052380D02*
X227060119Y-101052380D01*
X227107738Y-101528571D01*
X227060119Y-101480952D01*
X226964880Y-101433333D01*
X226726785Y-101433333D01*
X226631547Y-101480952D01*
X226583928Y-101528571D01*
X226536309Y-101623809D01*
X226536309Y-101861904D01*
X226583928Y-101957142D01*
X226631547Y-102004761D01*
X226726785Y-102052380D01*
X226964880Y-102052380D01*
X227060119Y-102004761D01*
X227107738Y-101957142D01*
X226107738Y-101052380D02*
X226107738Y-101861904D01*
X226060119Y-101957142D01*
X226012500Y-102004761D01*
X225917261Y-102052380D01*
X225726785Y-102052380D01*
X225631547Y-102004761D01*
X225583928Y-101957142D01*
X225536309Y-101861904D01*
X225536309Y-101052380D01*
X136858333Y-101052380D02*
X137048809Y-101052380D01*
X137144047Y-101100000D01*
X137191666Y-101147619D01*
X137286904Y-101290476D01*
X137334523Y-101480952D01*
X137334523Y-101861904D01*
X137286904Y-101957142D01*
X137239285Y-102004761D01*
X137144047Y-102052380D01*
X136953571Y-102052380D01*
X136858333Y-102004761D01*
X136810714Y-101957142D01*
X136763095Y-101861904D01*
X136763095Y-101623809D01*
X136810714Y-101528571D01*
X136858333Y-101480952D01*
X136953571Y-101433333D01*
X137144047Y-101433333D01*
X137239285Y-101480952D01*
X137286904Y-101528571D01*
X137334523Y-101623809D01*
X136334523Y-101052380D02*
X136334523Y-101861904D01*
X136286904Y-101957142D01*
X136239285Y-102004761D01*
X136144047Y-102052380D01*
X135953571Y-102052380D01*
X135858333Y-102004761D01*
X135810714Y-101957142D01*
X135763095Y-101861904D01*
X135763095Y-101052380D01*
X185007142Y-86764880D02*
X184388095Y-86764880D01*
X184721428Y-87145833D01*
X184578571Y-87145833D01*
X184483333Y-87193452D01*
X184435714Y-87241071D01*
X184388095Y-87336309D01*
X184388095Y-87574404D01*
X184435714Y-87669642D01*
X184483333Y-87717261D01*
X184578571Y-87764880D01*
X184864285Y-87764880D01*
X184959523Y-87717261D01*
X185007142Y-87669642D01*
X183959523Y-86764880D02*
X183959523Y-87574404D01*
X183911904Y-87669642D01*
X183864285Y-87717261D01*
X183769047Y-87764880D01*
X183578571Y-87764880D01*
X183483333Y-87717261D01*
X183435714Y-87669642D01*
X183388095Y-87574404D01*
X183388095Y-86764880D01*
X144366151Y-86840603D02*
X144318532Y-86792984D01*
X144223294Y-86745364D01*
X143985199Y-86745364D01*
X143889961Y-86792984D01*
X143842342Y-86840603D01*
X143794723Y-86935841D01*
X143794723Y-87031079D01*
X143842342Y-87173936D01*
X144413770Y-87745364D01*
X143794723Y-87745364D01*
X143366151Y-86745364D02*
X143366151Y-87554888D01*
X143318532Y-87650126D01*
X143270913Y-87697745D01*
X143175675Y-87745364D01*
X142985199Y-87745364D01*
X142889961Y-87697745D01*
X142842342Y-87650126D01*
X142794723Y-87554888D01*
X142794723Y-86745364D01*
X127857142Y-86764880D02*
X127238095Y-86764880D01*
X127571428Y-87145833D01*
X127428571Y-87145833D01*
X127333333Y-87193452D01*
X127285714Y-87241071D01*
X127238095Y-87336309D01*
X127238095Y-87574404D01*
X127285714Y-87669642D01*
X127333333Y-87717261D01*
X127428571Y-87764880D01*
X127714285Y-87764880D01*
X127809523Y-87717261D01*
X127857142Y-87669642D01*
X126809523Y-86764880D02*
X126809523Y-87574404D01*
X126761904Y-87669642D01*
X126714285Y-87717261D01*
X126619047Y-87764880D01*
X126428571Y-87764880D01*
X126333333Y-87717261D01*
X126285714Y-87669642D01*
X126238095Y-87574404D01*
X126238095Y-86764880D01*
X89757142Y-86764880D02*
X89138095Y-86764880D01*
X89471428Y-87145833D01*
X89328571Y-87145833D01*
X89233333Y-87193452D01*
X89185714Y-87241071D01*
X89138095Y-87336309D01*
X89138095Y-87574404D01*
X89185714Y-87669642D01*
X89233333Y-87717261D01*
X89328571Y-87764880D01*
X89614285Y-87764880D01*
X89709523Y-87717261D01*
X89757142Y-87669642D01*
X88709523Y-86764880D02*
X88709523Y-87574404D01*
X88661904Y-87669642D01*
X88614285Y-87717261D01*
X88519047Y-87764880D01*
X88328571Y-87764880D01*
X88233333Y-87717261D01*
X88185714Y-87669642D01*
X88138095Y-87574404D01*
X88138095Y-86764880D01*
X168313204Y-86795759D02*
X168265585Y-86748140D01*
X168170347Y-86700520D01*
X167932252Y-86700520D01*
X167837014Y-86748140D01*
X167789395Y-86795759D01*
X167741776Y-86890997D01*
X167741776Y-86986235D01*
X167789395Y-87129092D01*
X168360823Y-87700520D01*
X167741776Y-87700520D01*
X167313204Y-86700520D02*
X167313204Y-87510044D01*
X167265585Y-87605282D01*
X167217966Y-87652901D01*
X167122728Y-87700520D01*
X166932252Y-87700520D01*
X166837014Y-87652901D01*
X166789395Y-87605282D01*
X166741776Y-87510044D01*
X166741776Y-86700520D01*
X146907142Y-86764880D02*
X146288095Y-86764880D01*
X146621428Y-87145833D01*
X146478571Y-87145833D01*
X146383333Y-87193452D01*
X146335714Y-87241071D01*
X146288095Y-87336309D01*
X146288095Y-87574404D01*
X146335714Y-87669642D01*
X146383333Y-87717261D01*
X146478571Y-87764880D01*
X146764285Y-87764880D01*
X146859523Y-87717261D01*
X146907142Y-87669642D01*
X145859523Y-86764880D02*
X145859523Y-87574404D01*
X145811904Y-87669642D01*
X145764285Y-87717261D01*
X145669047Y-87764880D01*
X145478571Y-87764880D01*
X145383333Y-87717261D01*
X145335714Y-87669642D01*
X145288095Y-87574404D01*
X145288095Y-86764880D01*
X118284523Y-101147619D02*
X118236904Y-101100000D01*
X118141666Y-101052380D01*
X117903571Y-101052380D01*
X117808333Y-101100000D01*
X117760714Y-101147619D01*
X117713095Y-101242857D01*
X117713095Y-101338095D01*
X117760714Y-101480952D01*
X118332142Y-102052380D01*
X117713095Y-102052380D01*
X117284523Y-101052380D02*
X117284523Y-101861904D01*
X117236904Y-101957142D01*
X117189285Y-102004761D01*
X117094047Y-102052380D01*
X116903571Y-102052380D01*
X116808333Y-102004761D01*
X116760714Y-101957142D01*
X116713095Y-101861904D01*
X116713095Y-101052380D01*
D11*
%TO.C,D29*%
X178800000Y-103850000D02*
X176800000Y-103850000D01*
X178800000Y-103850000D02*
X178800000Y-99950000D01*
X176800000Y-103850000D02*
X176800000Y-99950000D01*
%TO.C,D6*%
X72025000Y-62575000D02*
X72025000Y-58675000D01*
X74025000Y-62575000D02*
X72025000Y-62575000D01*
X74025000Y-62575000D02*
X74025000Y-58675000D01*
%TO.C,C1*%
X39285500Y-66747086D02*
X39285500Y-66531414D01*
X38565500Y-66747086D02*
X38565500Y-66531414D01*
%TO.C,D14*%
X112125000Y-62575000D02*
X110125000Y-62575000D01*
X112125000Y-62575000D02*
X112125000Y-58675000D01*
X110125000Y-62575000D02*
X110125000Y-58675000D01*
%TO.C,D40*%
X235950000Y-81625000D02*
X235950000Y-77725000D01*
X235950000Y-81625000D02*
X233950000Y-81625000D01*
X233950000Y-81625000D02*
X233950000Y-77725000D01*
%TO.C,D8*%
X74025000Y-103850000D02*
X72025000Y-103850000D01*
X72025000Y-103850000D02*
X72025000Y-99950000D01*
X74025000Y-103850000D02*
X74025000Y-99950000D01*
%TO.C,D3*%
X64500000Y-81625000D02*
X64500000Y-77725000D01*
X62500000Y-81625000D02*
X62500000Y-77725000D01*
X64500000Y-81625000D02*
X62500000Y-81625000D01*
%TO.C,D36*%
X216900000Y-81625000D02*
X214900000Y-81625000D01*
X214900000Y-81625000D02*
X214900000Y-77725000D01*
X216900000Y-81625000D02*
X216900000Y-77725000D01*
%TO.C,D32*%
X197850000Y-81625000D02*
X197850000Y-77725000D01*
X195850000Y-81625000D02*
X195850000Y-77725000D01*
X197850000Y-81625000D02*
X195850000Y-81625000D01*
%TO.C,C4*%
X39158500Y-63445086D02*
X39158500Y-63229414D01*
X38438500Y-63445086D02*
X38438500Y-63229414D01*
%TO.C,D1*%
X45450000Y-43525000D02*
X43450000Y-43525000D01*
X45450000Y-43525000D02*
X45450000Y-39625000D01*
X43450000Y-43525000D02*
X43450000Y-39625000D01*
%TO.C,R4*%
X47471359Y-75058000D02*
X47778641Y-75058000D01*
X47471359Y-75818000D02*
X47778641Y-75818000D01*
%TO.C,Y1*%
X44354500Y-64987250D02*
X40354500Y-64987250D01*
X44354500Y-61687250D02*
X44354500Y-64987250D01*
%TO.C,D15*%
X121650000Y-81625000D02*
X119650000Y-81625000D01*
X121650000Y-81625000D02*
X121650000Y-77725000D01*
X119650000Y-81625000D02*
X119650000Y-77725000D01*
%TO.C,U1*%
X39152000Y-76027750D02*
X38427000Y-76027750D01*
X39152000Y-68807750D02*
X38427000Y-68807750D01*
X44922000Y-76027750D02*
X45647000Y-76027750D01*
X45647000Y-76027750D02*
X45647000Y-75302750D01*
X45647000Y-68807750D02*
X45647000Y-69532750D01*
X44922000Y-68807750D02*
X45647000Y-68807750D01*
X38427000Y-68807750D02*
X38427000Y-69532750D01*
%TO.C,D34*%
X197850000Y-43525000D02*
X195850000Y-43525000D01*
X195850000Y-43525000D02*
X195850000Y-39625000D01*
X197850000Y-43525000D02*
X197850000Y-39625000D01*
%TO.C,D23*%
X159750000Y-81625000D02*
X159750000Y-77725000D01*
X159750000Y-81625000D02*
X157750000Y-81625000D01*
X157750000Y-81625000D02*
X157750000Y-77725000D01*
%TO.C,D21*%
X140700000Y-43525000D02*
X140700000Y-39625000D01*
X140700000Y-43525000D02*
X138700000Y-43525000D01*
X138700000Y-43525000D02*
X138700000Y-39625000D01*
%TO.C,D39*%
X224425000Y-62575000D02*
X224425000Y-58675000D01*
X226425000Y-62575000D02*
X226425000Y-58675000D01*
X226425000Y-62575000D02*
X224425000Y-62575000D01*
%TO.C,D30*%
X178800000Y-43525000D02*
X176800000Y-43525000D01*
X176800000Y-43525000D02*
X176800000Y-39625000D01*
X178800000Y-43525000D02*
X178800000Y-39625000D01*
%TO.C,D41*%
X235950000Y-103850000D02*
X235950000Y-99950000D01*
X235950000Y-103850000D02*
X233950000Y-103850000D01*
X233950000Y-103850000D02*
X233950000Y-99950000D01*
%TO.C,D20*%
X140700000Y-103850000D02*
X138700000Y-103850000D01*
X140700000Y-103850000D02*
X140700000Y-99950000D01*
X138700000Y-103850000D02*
X138700000Y-99950000D01*
%TO.C,D24*%
X157750000Y-103850000D02*
X157750000Y-99950000D01*
X159750000Y-103850000D02*
X159750000Y-99950000D01*
X159750000Y-103850000D02*
X157750000Y-103850000D01*
%TO.C,F1*%
X234717000Y-48165936D02*
X234717000Y-49370064D01*
X232897000Y-48165936D02*
X232897000Y-49370064D01*
%TO.C,D26*%
X159750000Y-43525000D02*
X159750000Y-39625000D01*
X157750000Y-43525000D02*
X157750000Y-39625000D01*
X159750000Y-43525000D02*
X157750000Y-43525000D01*
%TO.C,D22*%
X150225000Y-62575000D02*
X150225000Y-58675000D01*
X148225000Y-62575000D02*
X148225000Y-58675000D01*
X150225000Y-62575000D02*
X148225000Y-62575000D01*
D10*
%TO.C,J1*%
X223137500Y-36100000D02*
X223137500Y-40100000D01*
X227337500Y-35100000D02*
X224937500Y-35100000D01*
X227337500Y-41100000D02*
X227337500Y-40100000D01*
X224937500Y-41100000D02*
X227337500Y-41100000D01*
X227337500Y-36100000D02*
X227337500Y-35100000D01*
D11*
%TO.C,D13*%
X102600000Y-43525000D02*
X102600000Y-39625000D01*
X102600000Y-43525000D02*
X100600000Y-43525000D01*
X100600000Y-43525000D02*
X100600000Y-39625000D01*
D12*
%TO.C,J2*%
X39457000Y-56749000D02*
X34457000Y-56749000D01*
X34457000Y-56749000D02*
X34457000Y-59249000D01*
X39457000Y-59249000D02*
X39457000Y-56749000D01*
X34457000Y-59249000D02*
X39457000Y-59249000D01*
D11*
%TO.C,C3*%
X46143500Y-63229414D02*
X46143500Y-63445086D01*
X45423500Y-63229414D02*
X45423500Y-63445086D01*
%TO.C,D7*%
X83550000Y-81625000D02*
X81550000Y-81625000D01*
X83550000Y-81625000D02*
X83550000Y-77725000D01*
X81550000Y-81625000D02*
X81550000Y-77725000D01*
%TO.C,D4*%
X50212500Y-103850000D02*
X48212500Y-103850000D01*
X50212500Y-103850000D02*
X50212500Y-99950000D01*
X48212500Y-103850000D02*
X48212500Y-99950000D01*
%TO.C,R2*%
X34707859Y-72863250D02*
X35015141Y-72863250D01*
X34707859Y-73623250D02*
X35015141Y-73623250D01*
%TO.C,D38*%
X216900000Y-43525000D02*
X216900000Y-39625000D01*
X214900000Y-43525000D02*
X214900000Y-39625000D01*
X216900000Y-43525000D02*
X214900000Y-43525000D01*
%TO.C,R3*%
X35688000Y-66422109D02*
X35688000Y-66729391D01*
X36448000Y-66422109D02*
X36448000Y-66729391D01*
%TO.C,D31*%
X188325000Y-62575000D02*
X186325000Y-62575000D01*
X188325000Y-62575000D02*
X188325000Y-58675000D01*
X186325000Y-62575000D02*
X186325000Y-58675000D01*
%TO.C,D2*%
X52975000Y-62575000D02*
X52975000Y-58675000D01*
X54975000Y-62575000D02*
X52975000Y-62575000D01*
X54975000Y-62575000D02*
X54975000Y-58675000D01*
%TO.C,D9*%
X83550000Y-43525000D02*
X81550000Y-43525000D01*
X83550000Y-43525000D02*
X83550000Y-39625000D01*
X81550000Y-43525000D02*
X81550000Y-39625000D01*
%TO.C,D12*%
X91075000Y-103850000D02*
X91075000Y-99950000D01*
X93075000Y-103850000D02*
X93075000Y-99950000D01*
X93075000Y-103850000D02*
X91075000Y-103850000D01*
%TO.C,D35*%
X207375000Y-62575000D02*
X207375000Y-58675000D01*
X207375000Y-62575000D02*
X205375000Y-62575000D01*
X205375000Y-62575000D02*
X205375000Y-58675000D01*
%TO.C,R9*%
X239389074Y-38253641D02*
X239389074Y-37946359D01*
X240149074Y-38253641D02*
X240149074Y-37946359D01*
%TO.C,D33*%
X197850000Y-103850000D02*
X195850000Y-103850000D01*
X195850000Y-103850000D02*
X195850000Y-99950000D01*
X197850000Y-103850000D02*
X197850000Y-99950000D01*
%TO.C,D17*%
X121650000Y-43462500D02*
X121650000Y-39562500D01*
X119650000Y-43462500D02*
X119650000Y-39562500D01*
X121650000Y-43462500D02*
X119650000Y-43462500D01*
%TO.C,D27*%
X169275000Y-62575000D02*
X169275000Y-58675000D01*
X167275000Y-62575000D02*
X167275000Y-58675000D01*
X169275000Y-62575000D02*
X167275000Y-62575000D01*
%TO.C,D25*%
X231155000Y-47661000D02*
X229155000Y-47661000D01*
X229855000Y-44541000D02*
X231155000Y-44541000D01*
%TO.C,D16*%
X110125000Y-103850000D02*
X110125000Y-99950000D01*
X112125000Y-103850000D02*
X110125000Y-103850000D01*
X112125000Y-103850000D02*
X112125000Y-99950000D01*
%TO.C,D28*%
X178800000Y-81625000D02*
X176800000Y-81625000D01*
X176800000Y-81625000D02*
X176800000Y-77725000D01*
X178800000Y-81625000D02*
X178800000Y-77725000D01*
%TO.C,D18*%
X129175000Y-62575000D02*
X129175000Y-58675000D01*
X131175000Y-62575000D02*
X129175000Y-62575000D01*
X131175000Y-62575000D02*
X131175000Y-58675000D01*
%TO.C,R8*%
X239332500Y-44603641D02*
X239332500Y-44296359D01*
X240092500Y-44603641D02*
X240092500Y-44296359D01*
%TO.C,D5*%
X64500000Y-43525000D02*
X62500000Y-43525000D01*
X62500000Y-43525000D02*
X62500000Y-39625000D01*
X64500000Y-43525000D02*
X64500000Y-39625000D01*
%TO.C,D19*%
X140700000Y-81625000D02*
X138700000Y-81625000D01*
X140700000Y-81625000D02*
X140700000Y-77725000D01*
X138700000Y-81625000D02*
X138700000Y-77725000D01*
%TO.C,C5*%
X47390164Y-69744000D02*
X47605836Y-69744000D01*
X47390164Y-70464000D02*
X47605836Y-70464000D01*
%TO.C,D10*%
X93075000Y-62575000D02*
X93075000Y-58675000D01*
X91075000Y-62575000D02*
X91075000Y-58675000D01*
X93075000Y-62575000D02*
X91075000Y-62575000D01*
%TO.C,R1*%
X34707859Y-73879250D02*
X35015141Y-73879250D01*
X34707859Y-74639250D02*
X35015141Y-74639250D01*
%TO.C,C7*%
X45191000Y-77743164D02*
X45191000Y-77958836D01*
X44471000Y-77743164D02*
X44471000Y-77958836D01*
%TO.C,C6*%
X35858336Y-72460250D02*
X35642664Y-72460250D01*
X35858336Y-71740250D02*
X35642664Y-71740250D01*
%TO.C,D37*%
X214900000Y-103850000D02*
X214900000Y-99950000D01*
X216900000Y-103850000D02*
X216900000Y-99950000D01*
X216900000Y-103850000D02*
X214900000Y-103850000D01*
%TO.C,C2*%
X37351310Y-77612557D02*
X37198807Y-77765060D01*
X36842193Y-77103440D02*
X36689690Y-77255943D01*
%TO.C,C8*%
X35223336Y-70597250D02*
X35007664Y-70597250D01*
X35223336Y-71317250D02*
X35007664Y-71317250D01*
%TO.C,D11*%
X102600000Y-81625000D02*
X100600000Y-81625000D01*
X102600000Y-81625000D02*
X102600000Y-77725000D01*
X100600000Y-81625000D02*
X100600000Y-77725000D01*
%TD*%
M02*
