%TF.GenerationSoftware,KiCad,Pcbnew,(6.0.7)*%
%TF.CreationDate,2023-01-26T12:09:47+01:00*%
%TF.ProjectId,Didaktik multilayout,44696461-6b74-4696-9b20-6d756c74696c,rev?*%
%TF.SameCoordinates,Original*%
%TF.FileFunction,Soldermask,Top*%
%TF.FilePolarity,Negative*%
%FSLAX46Y46*%
G04 Gerber Fmt 4.6, Leading zero omitted, Abs format (unit mm)*
G04 Created by KiCad (PCBNEW (6.0.7)) date 2023-01-26 12:09:47*
%MOMM*%
%LPD*%
G01*
G04 APERTURE LIST*
%TA.AperFunction,Profile*%
%ADD10C,0.150000*%
%TD*%
%ADD11C,1.750000*%
%ADD12C,3.987800*%
%ADD13C,3.048000*%
%ADD14O,2.159000X1.905000*%
%ADD15R,2.159000X1.905000*%
%ADD16R,1.600000X1.600000*%
%ADD17C,1.600000*%
%ADD18R,2.000000X2.000000*%
%ADD19C,2.000000*%
%ADD20R,1.800000X1.100000*%
%ADD21R,1.350000X1.350000*%
%ADD22O,1.350000X1.350000*%
G04 APERTURE END LIST*
D10*
X31750000Y-106362500D02*
G75*
G03*
X33337500Y-107950000I1587500J0D01*
G01*
X33337500Y-31750000D02*
X239712500Y-31750000D01*
X31750000Y-106362500D02*
X31750000Y-33337500D01*
X239712500Y-107950000D02*
G75*
G03*
X241300000Y-106362500I0J1587500D01*
G01*
X239712500Y-107950000D02*
X33337500Y-107950000D01*
X241300000Y-33337500D02*
G75*
G03*
X239712500Y-31750000I-1587500J0D01*
G01*
X33337500Y-31750000D02*
G75*
G03*
X31750000Y-33337500I0J-1587500D01*
G01*
X241300000Y-33337500D02*
X241300000Y-106362500D01*
D11*
%TO.C,SW33*%
X83820000Y-98425000D03*
X93980000Y-98425000D03*
D12*
X88900000Y-98425000D03*
%TD*%
%TO.C,SW15*%
X127000000Y-60325000D03*
D11*
X121920000Y-60325000D03*
X132080000Y-60325000D03*
%TD*%
D13*
%TO.C,SW36c1*%
X79375000Y-105410000D03*
X193675000Y-105410000D03*
D12*
X79375000Y-90170000D03*
D11*
X131445000Y-98425000D03*
D12*
X193675000Y-90170000D03*
X136525000Y-98425000D03*
D11*
X141605000Y-98425000D03*
%TD*%
D12*
%TO.C,SW7*%
X155575000Y-41275000D03*
D11*
X160655000Y-41275000D03*
X150495000Y-41275000D03*
%TD*%
%TO.C,SW27*%
X169545000Y-79375000D03*
X179705000Y-79375000D03*
D12*
X174625000Y-79375000D03*
%TD*%
D11*
%TO.C,SW34b1*%
X102870000Y-98425000D03*
D13*
X88900000Y-105410000D03*
D12*
X88900000Y-90170000D03*
X127000000Y-90170000D03*
X107950000Y-98425000D03*
D11*
X113030000Y-98425000D03*
D13*
X127000000Y-105410000D03*
%TD*%
D11*
%TO.C,SW14*%
X102870000Y-60325000D03*
D12*
X107950000Y-60325000D03*
D11*
X113030000Y-60325000D03*
%TD*%
D12*
%TO.C,SW33a1*%
X79375000Y-98425000D03*
D11*
X74295000Y-98425000D03*
X84455000Y-98425000D03*
%TD*%
%TO.C,SW9*%
X188595000Y-41275000D03*
X198755000Y-41275000D03*
D12*
X193675000Y-41275000D03*
%TD*%
D14*
%TO.C,D42*%
X236537500Y-45720000D03*
D15*
X236537500Y-43180000D03*
%TD*%
D11*
%TO.C,SW29*%
X217805000Y-79375000D03*
X207645000Y-79375000D03*
D12*
X212725000Y-79375000D03*
%TD*%
D11*
%TO.C,SW8*%
X179705000Y-41275000D03*
X169545000Y-41275000D03*
D12*
X174625000Y-41275000D03*
%TD*%
D13*
%TO.C,SW35b1*%
X105568750Y-105410000D03*
D12*
X105568750Y-90170000D03*
X129381250Y-90170000D03*
X117475000Y-98425000D03*
D11*
X122555000Y-98425000D03*
D13*
X129381250Y-105410000D03*
D11*
X112395000Y-98425000D03*
%TD*%
%TO.C,SW2*%
X55245000Y-41275000D03*
D12*
X60325000Y-41275000D03*
D11*
X65405000Y-41275000D03*
%TD*%
%TO.C,SW34*%
X113030000Y-98425000D03*
X102870000Y-98425000D03*
D12*
X107950000Y-98425000D03*
%TD*%
D11*
%TO.C,SW24*%
X112395000Y-79375000D03*
X122555000Y-79375000D03*
D12*
X117475000Y-79375000D03*
%TD*%
D11*
%TO.C,SW31*%
X40957500Y-98425000D03*
D12*
X46037500Y-98425000D03*
D11*
X51117500Y-98425000D03*
%TD*%
%TO.C,SW37a1*%
X169545000Y-98425000D03*
X179705000Y-98425000D03*
D12*
X174625000Y-98425000D03*
%TD*%
D11*
%TO.C,SW20*%
X227330000Y-60325000D03*
X217170000Y-60325000D03*
D12*
X222250000Y-60325000D03*
%TD*%
%TO.C,SW5*%
X117475000Y-41275000D03*
D11*
X112395000Y-41275000D03*
X122555000Y-41275000D03*
%TD*%
D16*
%TO.C,R5*%
X37248000Y-85344000D03*
D17*
X45048000Y-85344000D03*
%TD*%
D11*
%TO.C,SW40a1*%
X226695000Y-98425000D03*
X236855000Y-98425000D03*
D12*
X231775000Y-98425000D03*
%TD*%
D11*
%TO.C,SW35*%
X132080000Y-98425000D03*
D12*
X127000000Y-98425000D03*
D11*
X121920000Y-98425000D03*
%TD*%
%TO.C,SW31a1*%
X36195000Y-98425000D03*
D12*
X41275000Y-98425000D03*
D11*
X46355000Y-98425000D03*
%TD*%
%TO.C,SW38*%
X189230000Y-98425000D03*
D12*
X184150000Y-98425000D03*
D11*
X179070000Y-98425000D03*
%TD*%
D12*
%TO.C,SW12*%
X69850000Y-60325000D03*
D11*
X74930000Y-60325000D03*
X64770000Y-60325000D03*
%TD*%
%TO.C,SW22*%
X84455000Y-79375000D03*
X74295000Y-79375000D03*
D12*
X79375000Y-79375000D03*
%TD*%
%TO.C,SW36a1*%
X150812500Y-98425000D03*
D11*
X155892500Y-98425000D03*
X145732500Y-98425000D03*
%TD*%
D13*
%TO.C,SW36b1*%
X143668750Y-105410000D03*
D12*
X167481250Y-90170000D03*
X155575000Y-98425000D03*
X143668750Y-90170000D03*
D13*
X167481250Y-105410000D03*
D11*
X150495000Y-98425000D03*
X160655000Y-98425000D03*
%TD*%
D12*
%TO.C,SW10*%
X212725000Y-41275000D03*
D11*
X217805000Y-41275000D03*
X207645000Y-41275000D03*
%TD*%
D14*
%TO.C,D43*%
X236537500Y-39370000D03*
D15*
X236537500Y-36830000D03*
%TD*%
D13*
%TO.C,SW35c1*%
X184150000Y-105410000D03*
D12*
X88900000Y-90170000D03*
D13*
X88900000Y-105410000D03*
D12*
X136525000Y-98425000D03*
D11*
X141605000Y-98425000D03*
X131445000Y-98425000D03*
D12*
X184150000Y-90170000D03*
%TD*%
%TO.C,SW6*%
X136398000Y-41275000D03*
D11*
X131318000Y-41275000D03*
X141478000Y-41275000D03*
%TD*%
%TO.C,SW19*%
X198120000Y-60325000D03*
X208280000Y-60325000D03*
D12*
X203200000Y-60325000D03*
%TD*%
D11*
%TO.C,SW3*%
X74295000Y-41275000D03*
X84455000Y-41275000D03*
D12*
X79375000Y-41275000D03*
%TD*%
D11*
%TO.C,SW17*%
X160020000Y-60325000D03*
D12*
X165100000Y-60325000D03*
D11*
X170180000Y-60325000D03*
%TD*%
%TO.C,SW39*%
X208280000Y-98425000D03*
X198120000Y-98425000D03*
D12*
X203200000Y-98425000D03*
%TD*%
%TO.C,SW11*%
X50800000Y-60325000D03*
D11*
X45720000Y-60325000D03*
X55880000Y-60325000D03*
%TD*%
D12*
%TO.C,SW21*%
X60325000Y-79375000D03*
D11*
X65405000Y-79375000D03*
X55245000Y-79375000D03*
%TD*%
D12*
%TO.C,SW16*%
X146050000Y-60325000D03*
D11*
X151130000Y-60325000D03*
X140970000Y-60325000D03*
%TD*%
%TO.C,SW18*%
X179070000Y-60325000D03*
D12*
X184150000Y-60325000D03*
D11*
X189230000Y-60325000D03*
%TD*%
D18*
%TO.C,SW42*%
X229275000Y-86875000D03*
D19*
X234275000Y-86875000D03*
X231775000Y-86875000D03*
X234275000Y-72375000D03*
X229275000Y-72375000D03*
%TD*%
D12*
%TO.C,SW32a1*%
X60325000Y-98425000D03*
D11*
X65405000Y-98425000D03*
X55245000Y-98425000D03*
%TD*%
D13*
%TO.C,SW37b1*%
X184150000Y-105410000D03*
D12*
X146050000Y-90170000D03*
D11*
X160020000Y-98425000D03*
X170180000Y-98425000D03*
D12*
X165100000Y-98425000D03*
X184150000Y-90170000D03*
D13*
X146050000Y-105410000D03*
%TD*%
D11*
%TO.C,SW34a1*%
X93345000Y-98425000D03*
X103505000Y-98425000D03*
D12*
X98425000Y-98425000D03*
%TD*%
%TO.C,SW36*%
X146050000Y-98425000D03*
D11*
X140970000Y-98425000D03*
X151130000Y-98425000D03*
%TD*%
D12*
%TO.C,SW28*%
X193675000Y-79375000D03*
D11*
X188595000Y-79375000D03*
X198755000Y-79375000D03*
%TD*%
D12*
%TO.C,SW1*%
X41275000Y-41275000D03*
D11*
X36195000Y-41275000D03*
X46355000Y-41275000D03*
%TD*%
%TO.C,SW40*%
X232092500Y-98425000D03*
D12*
X227012500Y-98425000D03*
D11*
X221932500Y-98425000D03*
%TD*%
D20*
%TO.C,SW_Reset1*%
X239637500Y-57412500D03*
X233437500Y-53712500D03*
X239637500Y-53712500D03*
X233437500Y-57412500D03*
%TD*%
D12*
%TO.C,SW39a1*%
X212725000Y-98425000D03*
D11*
X207645000Y-98425000D03*
X217805000Y-98425000D03*
%TD*%
%TO.C,SW37*%
X170180000Y-98425000D03*
D12*
X165100000Y-98425000D03*
D11*
X160020000Y-98425000D03*
%TD*%
D12*
%TO.C,SW4*%
X98425000Y-41275000D03*
D11*
X93345000Y-41275000D03*
X103505000Y-41275000D03*
%TD*%
%TO.C,SW35a1*%
X117157500Y-98425000D03*
X127317500Y-98425000D03*
D12*
X122237500Y-98425000D03*
%TD*%
D11*
%TO.C,SW32*%
X74930000Y-98425000D03*
X64770000Y-98425000D03*
D12*
X69850000Y-98425000D03*
%TD*%
D11*
%TO.C,SW26*%
X160655000Y-79375000D03*
D12*
X155575000Y-79375000D03*
D11*
X150495000Y-79375000D03*
%TD*%
D12*
%TO.C,SW30*%
X231775000Y-79375000D03*
D11*
X226695000Y-79375000D03*
X236855000Y-79375000D03*
%TD*%
D12*
%TO.C,SW38a1*%
X193675000Y-98425000D03*
D11*
X198755000Y-98425000D03*
X188595000Y-98425000D03*
%TD*%
D12*
%TO.C,SW13*%
X88900000Y-60325000D03*
D11*
X83820000Y-60325000D03*
X93980000Y-60325000D03*
%TD*%
D18*
%TO.C,SW41*%
X38775000Y-48775000D03*
D19*
X43775000Y-48775000D03*
X41275000Y-48775000D03*
X43775000Y-34275000D03*
X38775000Y-34275000D03*
%TD*%
D11*
%TO.C,SW25*%
X131445000Y-79375000D03*
D12*
X136525000Y-79375000D03*
D11*
X141605000Y-79375000D03*
%TD*%
D12*
%TO.C,SW23*%
X98425000Y-79375000D03*
D11*
X103505000Y-79375000D03*
X93345000Y-79375000D03*
%TD*%
D21*
%TO.C,J3*%
X222250000Y-75787500D03*
D22*
X222250000Y-77787500D03*
X222250000Y-79787500D03*
%TD*%
D21*
%TO.C,SW_Reset2*%
X236537500Y-56562500D03*
D22*
X236537500Y-54562500D03*
%TD*%
M02*
