%TF.GenerationSoftware,KiCad,Pcbnew,(6.0.7)*%
%TF.CreationDate,2022-10-29T13:55:09+02:00*%
%TF.ProjectId,Didaktik,44696461-6b74-4696-9b2e-6b696361645f,rev?*%
%TF.SameCoordinates,Original*%
%TF.FileFunction,Copper,L1,Top*%
%TF.FilePolarity,Positive*%
%FSLAX46Y46*%
G04 Gerber Fmt 4.6, Leading zero omitted, Abs format (unit mm)*
G04 Created by KiCad (PCBNEW (6.0.7)) date 2022-10-29 13:55:09*
%MOMM*%
%LPD*%
G01*
G04 APERTURE LIST*
G04 Aperture macros list*
%AMHorizOval*
0 Thick line with rounded ends*
0 $1 width*
0 $2 $3 position (X,Y) of the first rounded end (center of the circle)*
0 $4 $5 position (X,Y) of the second rounded end (center of the circle)*
0 Add line between two ends*
20,1,$1,$2,$3,$4,$5,0*
0 Add two circle primitives to create the rounded ends*
1,1,$1,$2,$3*
1,1,$1,$4,$5*%
G04 Aperture macros list end*
%ADD10C,0.300000*%
%TA.AperFunction,NonConductor*%
%ADD11C,0.300000*%
%TD*%
%TA.AperFunction,ComponentPad*%
%ADD12C,2.000000*%
%TD*%
%TA.AperFunction,ComponentPad*%
%ADD13C,2.250000*%
%TD*%
%TA.AperFunction,ComponentPad*%
%ADD14HorizOval,2.250000X0.019771X0.290016X-0.019771X-0.290016X0*%
%TD*%
%TA.AperFunction,ComponentPad*%
%ADD15HorizOval,2.250000X0.654995X0.730004X-0.654995X-0.730004X0*%
%TD*%
%TA.AperFunction,ComponentPad*%
%ADD16O,2.159000X1.905000*%
%TD*%
%TA.AperFunction,ComponentPad*%
%ADD17R,2.159000X1.905000*%
%TD*%
%TA.AperFunction,SMDPad,CuDef*%
%ADD18R,1.800000X1.100000*%
%TD*%
%TA.AperFunction,ComponentPad*%
%ADD19C,1.700000*%
%TD*%
%TA.AperFunction,ComponentPad*%
%ADD20R,1.700000X1.700000*%
%TD*%
%TA.AperFunction,ViaPad*%
%ADD21C,0.800000*%
%TD*%
%TA.AperFunction,Conductor*%
%ADD22C,0.200000*%
%TD*%
%TA.AperFunction,Conductor*%
%ADD23C,0.381000*%
%TD*%
%TA.AperFunction,Conductor*%
%ADD24C,0.250000*%
%TD*%
G04 APERTURE END LIST*
D10*
D11*
X186932857Y-190289571D02*
X186932857Y-188789571D01*
X187290000Y-188789571D01*
X187504285Y-188861000D01*
X187647142Y-189003857D01*
X187718571Y-189146714D01*
X187790000Y-189432428D01*
X187790000Y-189646714D01*
X187718571Y-189932428D01*
X187647142Y-190075285D01*
X187504285Y-190218142D01*
X187290000Y-190289571D01*
X186932857Y-190289571D01*
X188432857Y-190289571D02*
X188432857Y-189289571D01*
X188432857Y-188789571D02*
X188361428Y-188861000D01*
X188432857Y-188932428D01*
X188504285Y-188861000D01*
X188432857Y-188789571D01*
X188432857Y-188932428D01*
X189790000Y-190289571D02*
X189790000Y-188789571D01*
X189790000Y-190218142D02*
X189647142Y-190289571D01*
X189361428Y-190289571D01*
X189218571Y-190218142D01*
X189147142Y-190146714D01*
X189075714Y-190003857D01*
X189075714Y-189575285D01*
X189147142Y-189432428D01*
X189218571Y-189361000D01*
X189361428Y-189289571D01*
X189647142Y-189289571D01*
X189790000Y-189361000D01*
X191147142Y-190289571D02*
X191147142Y-189503857D01*
X191075714Y-189361000D01*
X190932857Y-189289571D01*
X190647142Y-189289571D01*
X190504285Y-189361000D01*
X191147142Y-190218142D02*
X191004285Y-190289571D01*
X190647142Y-190289571D01*
X190504285Y-190218142D01*
X190432857Y-190075285D01*
X190432857Y-189932428D01*
X190504285Y-189789571D01*
X190647142Y-189718142D01*
X191004285Y-189718142D01*
X191147142Y-189646714D01*
X191861428Y-190289571D02*
X191861428Y-188789571D01*
X192004285Y-189718142D02*
X192432857Y-190289571D01*
X192432857Y-189289571D02*
X191861428Y-189861000D01*
X192861428Y-189289571D02*
X193432857Y-189289571D01*
X193075714Y-188789571D02*
X193075714Y-190075285D01*
X193147142Y-190218142D01*
X193290000Y-190289571D01*
X193432857Y-190289571D01*
X193932857Y-190289571D02*
X193932857Y-189289571D01*
X193932857Y-188789571D02*
X193861428Y-188861000D01*
X193932857Y-188932428D01*
X194004285Y-188861000D01*
X193932857Y-188789571D01*
X193932857Y-188932428D01*
X194647142Y-190289571D02*
X194647142Y-188789571D01*
X194790000Y-189718142D02*
X195218571Y-190289571D01*
X195218571Y-189289571D02*
X194647142Y-189861000D01*
X197647142Y-189289571D02*
X197647142Y-190289571D01*
X197290000Y-188718142D02*
X196932857Y-189789571D01*
X197861428Y-189789571D01*
X198718571Y-188789571D02*
X198861428Y-188789571D01*
X199004285Y-188861000D01*
X199075714Y-188932428D01*
X199147142Y-189075285D01*
X199218571Y-189361000D01*
X199218571Y-189718142D01*
X199147142Y-190003857D01*
X199075714Y-190146714D01*
X199004285Y-190218142D01*
X198861428Y-190289571D01*
X198718571Y-190289571D01*
X198575714Y-190218142D01*
X198504285Y-190146714D01*
X198432857Y-190003857D01*
X198361428Y-189718142D01*
X198361428Y-189361000D01*
X198432857Y-189075285D01*
X198504285Y-188932428D01*
X198575714Y-188861000D01*
X198718571Y-188789571D01*
D12*
%TO.P,SW3,1,1*%
%TO.N,COL0*%
X55800000Y-56525000D03*
D13*
X53340000Y-55245000D03*
D14*
X53319771Y-55534984D03*
D15*
%TO.P,SW3,2,2*%
%TO.N,Net-(D2-Pad2)*%
X47644995Y-57054996D03*
D13*
X48300000Y-56325000D03*
D12*
X50800000Y-54425000D03*
%TD*%
D14*
%TO.P,SW20,1,1*%
%TO.N,COL2*%
X139044771Y-74584984D03*
D13*
X139065000Y-74295000D03*
D12*
X141525000Y-75575000D03*
%TO.P,SW20,2,2*%
%TO.N,Net-(D19-Pad2)*%
X136525000Y-73475000D03*
D13*
X134025000Y-75375000D03*
D15*
X133369995Y-76104996D03*
%TD*%
D14*
%TO.P,SW10,1,1*%
%TO.N,COL1*%
X81894771Y-36484984D03*
D13*
X81915000Y-36195000D03*
D12*
X84375000Y-37475000D03*
%TO.P,SW10,2,2*%
%TO.N,Net-(D9-Pad2)*%
X79375000Y-35375000D03*
D15*
X76219995Y-38004996D03*
D13*
X76875000Y-37275000D03*
%TD*%
D12*
%TO.P,SW9,1,1*%
%TO.N,COL0*%
X74850000Y-94625000D03*
D14*
X72369771Y-93634984D03*
D13*
X72390000Y-93345000D03*
D15*
%TO.P,SW9,2,2*%
%TO.N,Net-(D8-Pad2)*%
X66694995Y-95154996D03*
D13*
X67350000Y-94425000D03*
D12*
X69850000Y-92525000D03*
%TD*%
%TO.P,SW12,1,1*%
%TO.N,COL1*%
X103425000Y-75575000D03*
D13*
X100965000Y-74295000D03*
D14*
X100944771Y-74584984D03*
D13*
%TO.P,SW12,2,2*%
%TO.N,Net-(D11-Pad2)*%
X95925000Y-75375000D03*
D15*
X95269995Y-76104996D03*
D12*
X98425000Y-73475000D03*
%TD*%
D14*
%TO.P,SW31,1,1*%
%TO.N,COL3*%
X186669771Y-55534984D03*
D12*
X189150000Y-56525000D03*
D13*
X186690000Y-55245000D03*
D15*
%TO.P,SW31,2,2*%
%TO.N,Net-(D31-Pad2)*%
X180994995Y-57054996D03*
D12*
X184150000Y-54425000D03*
D13*
X181650000Y-56325000D03*
%TD*%
D14*
%TO.P,SW23,1,1*%
%TO.N,COL2*%
X148569771Y-55534984D03*
D13*
X148590000Y-55245000D03*
D12*
X151050000Y-56525000D03*
D13*
%TO.P,SW23,2,2*%
%TO.N,Net-(D22-Pad2)*%
X143550000Y-56325000D03*
D12*
X146050000Y-54425000D03*
D15*
X142894995Y-57054996D03*
%TD*%
D14*
%TO.P,SW5,1,1*%
%TO.N,COL0*%
X48557271Y-93634984D03*
D12*
X51037500Y-94625000D03*
D13*
X48577500Y-93345000D03*
D15*
%TO.P,SW5,2,2*%
%TO.N,Net-(D4-Pad2)*%
X42882495Y-95154996D03*
D12*
X46037500Y-92525000D03*
D13*
X43537500Y-94425000D03*
%TD*%
D12*
%TO.P,SW40,1,1*%
%TO.N,COL4*%
X236775000Y-75575000D03*
D13*
X234315000Y-74295000D03*
D14*
X234294771Y-74584984D03*
D12*
%TO.P,SW40,2,2*%
%TO.N,Net-(D40-Pad2)*%
X231775000Y-73475000D03*
D13*
X229275000Y-75375000D03*
D15*
X228619995Y-76104996D03*
%TD*%
D14*
%TO.P,SW34,1,1*%
%TO.N,COL4*%
X196194771Y-36484984D03*
D13*
X196215000Y-36195000D03*
D12*
X198675000Y-37475000D03*
D13*
%TO.P,SW34,2,2*%
%TO.N,Net-(D34-Pad2)*%
X191175000Y-37275000D03*
D15*
X190519995Y-38004996D03*
D12*
X193675000Y-35375000D03*
%TD*%
D16*
%TO.P,D42,1,K*%
%TO.N,GND*%
X236537500Y-47307500D03*
D17*
%TO.P,D42,2,A*%
%TO.N,Net-(D42-Pad2)*%
X236537500Y-44767500D03*
%TD*%
D12*
%TO.P,SW19,1,1*%
%TO.N,COL2*%
X132000000Y-56525000D03*
D14*
X129519771Y-55534984D03*
D13*
X129540000Y-55245000D03*
D12*
%TO.P,SW19,2,2*%
%TO.N,Net-(D18-Pad2)*%
X127000000Y-54425000D03*
D13*
X124500000Y-56325000D03*
D15*
X123844995Y-57054996D03*
%TD*%
D14*
%TO.P,SW27,1,1*%
%TO.N,COL3*%
X167619771Y-55534984D03*
D13*
X167640000Y-55245000D03*
D12*
X170100000Y-56525000D03*
D15*
%TO.P,SW27,2,2*%
%TO.N,Net-(D27-Pad2)*%
X161944995Y-57054996D03*
D12*
X165100000Y-54425000D03*
D13*
X162600000Y-56325000D03*
%TD*%
D12*
%TO.P,SW38,1,1*%
%TO.N,COL4*%
X217725000Y-37475000D03*
D14*
X215244771Y-36484984D03*
D13*
X215265000Y-36195000D03*
D12*
%TO.P,SW38,2,2*%
%TO.N,Net-(D38-Pad2)*%
X212725000Y-35375000D03*
D15*
X209569995Y-38004996D03*
D13*
X210225000Y-37275000D03*
%TD*%
D12*
%TO.P,SW15,1,1*%
%TO.N,COL1*%
X112950000Y-56525000D03*
D13*
X110490000Y-55245000D03*
D14*
X110469771Y-55534984D03*
D12*
%TO.P,SW15,2,2*%
%TO.N,Net-(D14-Pad2)*%
X107950000Y-54425000D03*
D15*
X104794995Y-57054996D03*
D13*
X105450000Y-56325000D03*
%TD*%
D14*
%TO.P,SW32,1,1*%
%TO.N,COL3*%
X196194771Y-74584984D03*
D13*
X196215000Y-74295000D03*
D12*
X198675000Y-75575000D03*
%TO.P,SW32,2,2*%
%TO.N,Net-(D32-Pad2)*%
X193675000Y-73475000D03*
D15*
X190519995Y-76104996D03*
D13*
X191175000Y-75375000D03*
%TD*%
%TO.P,SW21,1,1*%
%TO.N,COL2*%
X129540000Y-93345000D03*
D12*
X132000000Y-94625000D03*
D14*
X129519771Y-93634984D03*
D12*
%TO.P,SW21,2,2*%
%TO.N,Net-(D20-Pad2)*%
X127000000Y-92525000D03*
D15*
X123844995Y-95154996D03*
D13*
X124500000Y-94425000D03*
%TD*%
%TO.P,SW7,1,1*%
%TO.N,COL0*%
X72390000Y-55245000D03*
D14*
X72369771Y-55534984D03*
D12*
X74850000Y-56525000D03*
D13*
%TO.P,SW7,2,2*%
%TO.N,Net-(D6-Pad2)*%
X67350000Y-56325000D03*
D12*
X69850000Y-54425000D03*
D15*
X66694995Y-57054996D03*
%TD*%
D14*
%TO.P,SW11,1,1*%
%TO.N,COL1*%
X91419771Y-55534984D03*
D12*
X93900000Y-56525000D03*
D13*
X91440000Y-55245000D03*
D15*
%TO.P,SW11,2,2*%
%TO.N,Net-(D10-Pad2)*%
X85744995Y-57054996D03*
D12*
X88900000Y-54425000D03*
D13*
X86400000Y-56325000D03*
%TD*%
D14*
%TO.P,SW14,1,1*%
%TO.N,COL1*%
X100944771Y-36484984D03*
D12*
X103425000Y-37475000D03*
D13*
X100965000Y-36195000D03*
D15*
%TO.P,SW14,2,2*%
%TO.N,Net-(D13-Pad2)*%
X95269995Y-38004996D03*
D12*
X98425000Y-35375000D03*
D13*
X95925000Y-37275000D03*
%TD*%
%TO.P,SW41,1,1*%
%TO.N,COL4*%
X229552500Y-93345000D03*
D14*
X229532271Y-93634984D03*
D12*
X232012500Y-94625000D03*
D15*
%TO.P,SW41,2,2*%
%TO.N,Net-(D41-Pad2)*%
X223857495Y-95154996D03*
D13*
X224512500Y-94425000D03*
D12*
X227012500Y-92525000D03*
%TD*%
%TO.P,SW30,1,1*%
%TO.N,COL3*%
X179625000Y-37475000D03*
D13*
X177165000Y-36195000D03*
D14*
X177144771Y-36484984D03*
D12*
%TO.P,SW30,2,2*%
%TO.N,Net-(D30-Pad2)*%
X174625000Y-35375000D03*
D15*
X171469995Y-38004996D03*
D13*
X172125000Y-37275000D03*
%TD*%
%TO.P,SW8,1,1*%
%TO.N,COL0*%
X81915000Y-74295000D03*
D14*
X81894771Y-74584984D03*
D12*
X84375000Y-75575000D03*
%TO.P,SW8,2,2*%
%TO.N,Net-(D7-Pad2)*%
X79375000Y-73475000D03*
D13*
X76875000Y-75375000D03*
D15*
X76219995Y-76104996D03*
%TD*%
D12*
%TO.P,SW18,1,1*%
%TO.N,COL2*%
X122475000Y-37475000D03*
D13*
X120015000Y-36195000D03*
D14*
X119994771Y-36484984D03*
D13*
%TO.P,SW18,2,2*%
%TO.N,Net-(D17-Pad2)*%
X114975000Y-37275000D03*
D12*
X117475000Y-35375000D03*
D15*
X114319995Y-38004996D03*
%TD*%
D14*
%TO.P,SW24,1,1*%
%TO.N,COL2*%
X158094771Y-74584984D03*
D13*
X158115000Y-74295000D03*
D12*
X160575000Y-75575000D03*
%TO.P,SW24,2,2*%
%TO.N,Net-(D23-Pad2)*%
X155575000Y-73475000D03*
D13*
X153075000Y-75375000D03*
D15*
X152419995Y-76104996D03*
%TD*%
D14*
%TO.P,SW2,1,1*%
%TO.N,COL0*%
X43794771Y-36484984D03*
D12*
X46275000Y-37475000D03*
D13*
X43815000Y-36195000D03*
D15*
%TO.P,SW2,2,2*%
%TO.N,Net-(D1-Pad2)*%
X38119995Y-38004996D03*
D12*
X41275000Y-35375000D03*
D13*
X38775000Y-37275000D03*
%TD*%
D16*
%TO.P,D43,1,K*%
%TO.N,GND*%
X236537500Y-40280000D03*
D17*
%TO.P,D43,2,A*%
%TO.N,Net-(D43-Pad2)*%
X236537500Y-37740000D03*
%TD*%
D13*
%TO.P,SW28,1,1*%
%TO.N,COL3*%
X177165000Y-74295000D03*
D14*
X177144771Y-74584984D03*
D12*
X179625000Y-75575000D03*
D15*
%TO.P,SW28,2,2*%
%TO.N,Net-(D28-Pad2)*%
X171469995Y-76104996D03*
D13*
X172125000Y-75375000D03*
D12*
X174625000Y-73475000D03*
%TD*%
D14*
%TO.P,SW13,1,1*%
%TO.N,COL1*%
X91419771Y-93634984D03*
D12*
X93900000Y-94625000D03*
D13*
X91440000Y-93345000D03*
%TO.P,SW13,2,2*%
%TO.N,Net-(D12-Pad2)*%
X86400000Y-94425000D03*
D12*
X88900000Y-92525000D03*
D15*
X85744995Y-95154996D03*
%TD*%
D14*
%TO.P,SW36,1,1*%
%TO.N,COL4*%
X215244771Y-74584984D03*
D12*
X217725000Y-75575000D03*
D13*
X215265000Y-74295000D03*
D12*
%TO.P,SW36,2,2*%
%TO.N,Net-(D36-Pad2)*%
X212725000Y-73475000D03*
D13*
X210225000Y-75375000D03*
D15*
X209569995Y-76104996D03*
%TD*%
D13*
%TO.P,SW6,1,1*%
%TO.N,COL0*%
X62865000Y-36195000D03*
D14*
X62844771Y-36484984D03*
D12*
X65325000Y-37475000D03*
D13*
%TO.P,SW6,2,2*%
%TO.N,Net-(D5-Pad2)*%
X57825000Y-37275000D03*
D15*
X57169995Y-38004996D03*
D12*
X60325000Y-35375000D03*
%TD*%
%TO.P,SW25,1,1*%
%TO.N,COL2*%
X151050000Y-94625000D03*
D13*
X148590000Y-93345000D03*
D14*
X148569771Y-93634984D03*
D15*
%TO.P,SW25,2,2*%
%TO.N,Net-(D24-Pad2)*%
X142894995Y-95154996D03*
D12*
X146050000Y-92525000D03*
D13*
X143550000Y-94425000D03*
%TD*%
D14*
%TO.P,SW26,1,1*%
%TO.N,COL3*%
X158094771Y-36484984D03*
D13*
X158115000Y-36195000D03*
D12*
X160575000Y-37475000D03*
%TO.P,SW26,2,2*%
%TO.N,Net-(D26-Pad2)*%
X155575000Y-35375000D03*
D13*
X153075000Y-37275000D03*
D15*
X152419995Y-38004996D03*
%TD*%
D13*
%TO.P,SW35,1,1*%
%TO.N,COL4*%
X205740000Y-55245000D03*
D12*
X208200000Y-56525000D03*
D14*
X205719771Y-55534984D03*
D12*
%TO.P,SW35,2,2*%
%TO.N,Net-(D35-Pad2)*%
X203200000Y-54425000D03*
D15*
X200044995Y-57054996D03*
D13*
X200700000Y-56325000D03*
%TD*%
%TO.P,SW4,1,1*%
%TO.N,COL0*%
X62865000Y-74295000D03*
D14*
X62844771Y-74584984D03*
D12*
X65325000Y-75575000D03*
D15*
%TO.P,SW4,2,2*%
%TO.N,Net-(D3-Pad2)*%
X57169995Y-76104996D03*
D12*
X60325000Y-73475000D03*
D13*
X57825000Y-75375000D03*
%TD*%
D14*
%TO.P,SW37,1,1*%
%TO.N,COL4*%
X205719771Y-93634984D03*
D13*
X205740000Y-93345000D03*
D12*
X208200000Y-94625000D03*
D15*
%TO.P,SW37,2,2*%
%TO.N,Net-(D37-Pad2)*%
X200044995Y-95154996D03*
D12*
X203200000Y-92525000D03*
D13*
X200700000Y-94425000D03*
%TD*%
D12*
%TO.P,SW39,1,1*%
%TO.N,COL4*%
X227250000Y-56525000D03*
D14*
X224769771Y-55534984D03*
D13*
X224790000Y-55245000D03*
%TO.P,SW39,2,2*%
%TO.N,Net-(D39-Pad2)*%
X219750000Y-56325000D03*
D15*
X219094995Y-57054996D03*
D12*
X222250000Y-54425000D03*
%TD*%
D18*
%TO.P,SW1,1,1*%
%TO.N,GND*%
X239637500Y-57412500D03*
%TO.P,SW1,2,2*%
%TO.N,RESET*%
X233437500Y-53712500D03*
%TO.P,SW1,3*%
%TO.N,N/C*%
X239637500Y-53712500D03*
%TO.P,SW1,4*%
X233437500Y-57412500D03*
%TD*%
D14*
%TO.P,SW22,1,1*%
%TO.N,COL2*%
X139044771Y-36484984D03*
D13*
X139065000Y-36195000D03*
D12*
X141525000Y-37475000D03*
D15*
%TO.P,SW22,2,2*%
%TO.N,Net-(D21-Pad2)*%
X133369995Y-38004996D03*
D12*
X136525000Y-35375000D03*
D13*
X134025000Y-37275000D03*
%TD*%
D12*
%TO.P,SW16,1,1*%
%TO.N,COL1*%
X122475000Y-75575000D03*
D14*
X119994771Y-74584984D03*
D13*
X120015000Y-74295000D03*
%TO.P,SW16,2,2*%
%TO.N,Net-(D15-Pad2)*%
X114975000Y-75375000D03*
D15*
X114319995Y-76104996D03*
D12*
X117475000Y-73475000D03*
%TD*%
%TO.P,SW33,1,1*%
%TO.N,COL3*%
X189150000Y-94625000D03*
D13*
X186690000Y-93345000D03*
D14*
X186669771Y-93634984D03*
D15*
%TO.P,SW33,2,2*%
%TO.N,Net-(D33-Pad2)*%
X180994995Y-95154996D03*
D12*
X184150000Y-92525000D03*
D13*
X181650000Y-94425000D03*
%TD*%
D14*
%TO.P,SW29,1,1*%
%TO.N,COL3*%
X167619771Y-93634984D03*
D13*
X167640000Y-93345000D03*
D12*
X170100000Y-94625000D03*
D15*
%TO.P,SW29,2,2*%
%TO.N,Net-(D29-Pad2)*%
X161944995Y-95154996D03*
D13*
X162600000Y-94425000D03*
D12*
X165100000Y-92525000D03*
%TD*%
%TO.P,SW17,1,1*%
%TO.N,COL1*%
X112950000Y-94625000D03*
D13*
X110490000Y-93345000D03*
D14*
X110469771Y-93634984D03*
D15*
%TO.P,SW17,2,2*%
%TO.N,Net-(D16-Pad2)*%
X104794995Y-95154996D03*
D13*
X105450000Y-94425000D03*
D12*
X107950000Y-92525000D03*
%TD*%
D19*
%TO.P,J2,1,MISO*%
%TO.N,MISO*%
X56713935Y-101357192D03*
%TO.P,J2,2,VCC*%
%TO.N,+5V*%
X59253935Y-101357192D03*
%TO.P,J2,3,SCK*%
%TO.N,SCK*%
X56713935Y-98817192D03*
%TO.P,J2,4,MOSI*%
%TO.N,MOSI*%
X59253935Y-98817192D03*
%TO.P,J2,5,~{RST}*%
%TO.N,RESET*%
X56713935Y-96277192D03*
D20*
%TO.P,J2,6,GND*%
%TO.N,GND*%
X59253935Y-96277192D03*
%TD*%
D21*
%TO.N,+5V*%
X48514000Y-72771000D03*
X40259000Y-72898000D03*
X38989000Y-85979000D03*
X51689000Y-76073000D03*
X35306000Y-77851000D03*
%TO.N,GND*%
X35052000Y-76073000D03*
X50419000Y-76073000D03*
X48895000Y-86741000D03*
X241300000Y-57404000D03*
X225552000Y-44847000D03*
X41148000Y-86487000D03*
X33528000Y-80264000D03*
X225552000Y-49657000D03*
X236474000Y-42164000D03*
X53175500Y-77780494D03*
X46482000Y-74041000D03*
X41656000Y-70993000D03*
X236474000Y-49149000D03*
X47371000Y-70993000D03*
X59261470Y-94483118D03*
X228981000Y-44847000D03*
X52578000Y-87122000D03*
%TO.N,ROW0*%
X210185000Y-47498000D03*
X208026000Y-47625000D03*
%TO.N,ROW2*%
X217614500Y-66675000D03*
X219773500Y-66548000D03*
%TO.N,ROW4*%
X227139500Y-85852000D03*
X229298500Y-85598000D03*
%TO.N,ROW6*%
X222440500Y-104775000D03*
X224599500Y-104648000D03*
%TO.N,Net-(D5-Pad2)*%
X57150000Y-48418750D03*
X57150000Y-46831250D03*
%TO.N,Net-(D6-Pad2)*%
X66675000Y-67468750D03*
X66675000Y-65881250D03*
%TO.N,Net-(D7-Pad2)*%
X76327000Y-86614000D03*
X76327000Y-84963000D03*
%TO.N,Net-(D8-Pad2)*%
X66802000Y-104013000D03*
X66802000Y-105664000D03*
%TO.N,Net-(D13-Pad2)*%
X95250000Y-46831250D03*
X95250000Y-50006250D03*
%TO.N,Net-(D14-Pad2)*%
X104775000Y-65913000D03*
X104865408Y-68936636D03*
%TO.N,Net-(D15-Pad2)*%
X114427000Y-84963000D03*
X114427000Y-88138000D03*
%TO.N,Net-(D16-Pad2)*%
X104775000Y-104013000D03*
X104775000Y-107188000D03*
%TO.N,Net-(D21-Pad2)*%
X133169350Y-46900500D03*
X133350000Y-50006250D03*
%TO.N,Net-(D22-Pad2)*%
X142875000Y-68961000D03*
X142875000Y-65913000D03*
%TO.N,Net-(D23-Pad2)*%
X152527000Y-84963000D03*
X152527000Y-88138000D03*
%TO.N,Net-(D24-Pad2)*%
X142875000Y-107188000D03*
X142875000Y-104013000D03*
%TO.N,Net-(D30-Pad2)*%
X171450000Y-50006250D03*
X171450000Y-46831250D03*
%TO.N,Net-(D31-Pad2)*%
X180975000Y-68961000D03*
X180975000Y-65786000D03*
%TO.N,Net-(D32-Pad2)*%
X190627000Y-84963000D03*
X190627000Y-88138000D03*
%TO.N,Net-(D33-Pad2)*%
X180975000Y-107188000D03*
X180975000Y-104013000D03*
%TO.N,Net-(D38-Pad2)*%
X209347075Y-48215825D03*
X209296000Y-49911000D03*
%TO.N,Net-(D39-Pad2)*%
X218948000Y-69088000D03*
X218948000Y-67310000D03*
%TO.N,Net-(D40-Pad2)*%
X228473000Y-88265000D03*
X228346000Y-86233000D03*
%TO.N,Net-(D41-Pad2)*%
X223774000Y-107188000D03*
X223774000Y-105410000D03*
%TO.N,MISO*%
X43053000Y-101346000D03*
X41402000Y-101346000D03*
%TO.N,COL0*%
X37846000Y-49498804D03*
%TO.N,COL1*%
X36781479Y-49511061D03*
%TO.N,COL2*%
X35782830Y-49469757D03*
%TO.N,COL3*%
X34784178Y-49428536D03*
%TO.N,COL4*%
X34163000Y-83693000D03*
%TO.N,SCK*%
X42606179Y-86289373D03*
X38919364Y-84120424D03*
%TO.N,MOSI*%
X39751000Y-83566000D03*
X43180000Y-85471000D03*
%TO.N,RESET*%
X53467000Y-96266000D03*
X48006000Y-78359000D03*
X53467000Y-91440000D03*
X231027431Y-58415564D03*
X51415688Y-74683444D03*
%TD*%
D22*
%TO.N,+5V*%
X51943000Y-78232000D02*
X42291000Y-87884000D01*
X51943000Y-76200000D02*
X51943000Y-78232000D01*
X48514000Y-72771000D02*
X51943000Y-76200000D01*
D23*
X59253935Y-101357192D02*
X56725127Y-103886000D01*
X56725127Y-103886000D02*
X39751000Y-103886000D01*
D22*
X35306000Y-77851000D02*
X40259000Y-72898000D01*
D23*
X37592000Y-101727000D02*
X37592000Y-91186000D01*
X39751000Y-103886000D02*
X37592000Y-101727000D01*
X37592000Y-91186000D02*
X40894000Y-87884000D01*
D22*
X35306000Y-82296000D02*
X35306000Y-77851000D01*
X40894000Y-87884000D02*
X35306000Y-82296000D01*
X42291000Y-87884000D02*
X40894000Y-87884000D01*
D23*
%TO.N,GND*%
X241291500Y-57412500D02*
X241300000Y-57404000D01*
X225552000Y-44847000D02*
X228981000Y-44847000D01*
X239637500Y-57412500D02*
X241291500Y-57412500D01*
D24*
%TO.N,ROW0*%
X210177825Y-47490825D02*
X210185000Y-47498000D01*
X208026000Y-47625000D02*
X208160175Y-47490825D01*
X208160175Y-47490825D02*
X210177825Y-47490825D01*
%TO.N,ROW2*%
X217614500Y-66675000D02*
X217741500Y-66548000D01*
X217741500Y-66548000D02*
X219773500Y-66548000D01*
%TO.N,ROW4*%
X229208500Y-85508000D02*
X229298500Y-85598000D01*
X229208500Y-85635000D02*
X229298500Y-85725000D01*
X227483500Y-85508000D02*
X229208500Y-85508000D01*
X227139500Y-85852000D02*
X227483500Y-85508000D01*
%TO.N,ROW6*%
X222567500Y-104648000D02*
X224599500Y-104648000D01*
X222440500Y-104775000D02*
X222567500Y-104648000D01*
%TO.N,Net-(D5-Pad2)*%
X57150000Y-48418750D02*
X57150000Y-46831250D01*
%TO.N,Net-(D6-Pad2)*%
X66675000Y-65881250D02*
X66675000Y-67468750D01*
%TO.N,Net-(D7-Pad2)*%
X76327000Y-85058250D02*
X76327000Y-86645750D01*
%TO.N,Net-(D8-Pad2)*%
X66802000Y-104108250D02*
X66802000Y-105695750D01*
%TO.N,Net-(D13-Pad2)*%
X95250000Y-50006250D02*
X95250000Y-46831250D01*
%TO.N,Net-(D14-Pad2)*%
X104775000Y-65913000D02*
X104775000Y-68782299D01*
X104820204Y-68891432D02*
X104865408Y-68936636D01*
X104820211Y-68891425D02*
G75*
G02*
X104775000Y-68782299I109089J109125D01*
G01*
%TO.N,Net-(D15-Pad2)*%
X114427000Y-85020386D02*
X114427000Y-87953614D01*
%TO.N,Net-(D16-Pad2)*%
X104775000Y-104070386D02*
X104775000Y-107003614D01*
%TO.N,Net-(D21-Pad2)*%
X133350000Y-47208888D02*
X133350000Y-50006250D01*
X133169350Y-46900500D02*
X133259675Y-46990825D01*
X133350004Y-47208888D02*
G75*
G03*
X133259675Y-46990825I-308404J-12D01*
G01*
%TO.N,Net-(D22-Pad2)*%
X142875000Y-65970386D02*
X142875000Y-68903614D01*
%TO.N,Net-(D23-Pad2)*%
X152527000Y-85020386D02*
X152527000Y-87953614D01*
%TO.N,Net-(D24-Pad2)*%
X142875000Y-104070386D02*
X142875000Y-107003614D01*
%TO.N,Net-(D30-Pad2)*%
X171450000Y-50006250D02*
X171450000Y-46831250D01*
%TO.N,Net-(D31-Pad2)*%
X180975000Y-65843386D02*
X180975000Y-68776614D01*
%TO.N,Net-(D32-Pad2)*%
X190627000Y-85020386D02*
X190627000Y-87953614D01*
%TO.N,Net-(D33-Pad2)*%
X180975000Y-104070386D02*
X180975000Y-107003614D01*
%TO.N,Net-(D38-Pad2)*%
X209347075Y-48215825D02*
X209347075Y-49803325D01*
%TO.N,Net-(D39-Pad2)*%
X218948000Y-67373500D02*
X218948000Y-69088000D01*
%TO.N,Net-(D40-Pad2)*%
X228473000Y-86360000D02*
X228473000Y-88265000D01*
X228473000Y-86360000D02*
G75*
G03*
X228346000Y-86233000I-127000J0D01*
G01*
%TO.N,Net-(D41-Pad2)*%
X223774000Y-105410000D02*
X223774000Y-107188000D01*
%TO.N,MISO*%
X43053000Y-101346000D02*
X41402000Y-101346000D01*
%TO.N,COL0*%
X73670000Y-56525000D02*
X74850000Y-56525000D01*
X74850000Y-56525000D02*
X81915000Y-63590000D01*
X72390000Y-44540000D02*
X72390000Y-55245000D01*
X34549999Y-41650001D02*
X34549999Y-41788999D01*
X81915000Y-63590000D02*
X81915000Y-74295000D01*
X81915000Y-74295000D02*
X83195000Y-75575000D01*
X37780156Y-49464156D02*
X37780156Y-49470464D01*
X48577500Y-93345000D02*
X49857500Y-94625000D01*
X83195000Y-75575000D02*
X84375000Y-75575000D01*
X62865000Y-65004213D02*
X62865000Y-74295000D01*
X37846000Y-49498804D02*
X37814804Y-49498804D01*
X34549999Y-39035176D02*
X34549999Y-41650001D01*
X72390000Y-55245000D02*
X73670000Y-56525000D01*
X82169465Y-77780535D02*
X82169465Y-83565535D01*
X47357000Y-34050000D02*
X39535175Y-34050000D01*
X45971680Y-34050000D02*
X47357000Y-34050000D01*
X54620000Y-56525000D02*
X55800000Y-56525000D01*
X73670000Y-94625000D02*
X74850000Y-94625000D01*
X64145000Y-37475000D02*
X65325000Y-37475000D01*
X72390000Y-93345000D02*
X73670000Y-94625000D01*
X34607500Y-46233999D02*
X34607500Y-46291500D01*
X43826680Y-36195000D02*
X45106680Y-37475000D01*
X43826680Y-36195000D02*
X45971680Y-34050000D01*
X62865000Y-34604010D02*
X62310990Y-34050000D01*
X53340000Y-55245000D02*
X54620000Y-56525000D01*
X62865000Y-36195000D02*
X64145000Y-37475000D01*
X34549999Y-41650001D02*
X34549999Y-46233999D01*
X64145000Y-75575000D02*
X65325000Y-75575000D01*
X65325000Y-37475000D02*
X72390000Y-44540000D01*
X65325000Y-75575000D02*
X63383232Y-77516768D01*
X55800000Y-57939213D02*
X62865000Y-65004213D01*
X53340000Y-44540000D02*
X53340000Y-55245000D01*
X46275000Y-37475000D02*
X53340000Y-44540000D01*
X37846000Y-49149000D02*
X37465000Y-49149000D01*
X45106680Y-37475000D02*
X46286680Y-37475000D01*
X62865000Y-36195000D02*
X62865000Y-34604010D01*
X37846000Y-49498804D02*
X37846000Y-49149000D01*
X37465000Y-49149000D02*
X34607500Y-46291500D01*
X59494149Y-34050000D02*
X47476744Y-34050000D01*
X34549999Y-46233999D02*
X34607500Y-46233999D01*
X82169465Y-83565535D02*
X72390000Y-93345000D01*
X63383232Y-77516768D02*
X63383232Y-82549073D01*
X39535175Y-34050000D02*
X34549999Y-39035176D01*
X49857500Y-94625000D02*
X51037500Y-94625000D01*
X62310990Y-34050000D02*
X59168000Y-34050000D01*
X84375000Y-75575000D02*
X82169465Y-77780535D01*
X47397932Y-34050000D02*
X47357000Y-34050000D01*
X52587305Y-93345000D02*
X48577500Y-93345000D01*
X62865000Y-74295000D02*
X64145000Y-75575000D01*
X63383232Y-82549073D02*
X52587305Y-93345000D01*
X55800000Y-56525000D02*
X55800000Y-57939213D01*
%TO.N,COL1*%
X101546732Y-77453268D02*
X101546732Y-83238268D01*
X38887389Y-34061390D02*
X34315389Y-38633390D01*
X112950000Y-56525000D02*
X120015000Y-63590000D01*
X122475000Y-75575000D02*
X120269465Y-77780535D01*
X81915000Y-36195000D02*
X83195000Y-37475000D01*
X40712000Y-33600000D02*
X39348779Y-33600000D01*
X110490000Y-93345000D02*
X111770000Y-94625000D01*
X84330198Y-33403198D02*
X84330198Y-33401000D01*
X34315389Y-38633390D02*
X34099999Y-38848780D01*
X102245000Y-37475000D02*
X103425000Y-37475000D01*
X100965000Y-36195000D02*
X100965000Y-34604010D01*
X111770000Y-94625000D02*
X112950000Y-94625000D01*
X92720000Y-94625000D02*
X93900000Y-94625000D01*
X120015000Y-63590000D02*
X120015000Y-74295000D01*
X120269465Y-83565535D02*
X110490000Y-93345000D01*
X110490000Y-55245000D02*
X111770000Y-56525000D01*
X39348779Y-33600000D02*
X38887389Y-34061390D01*
X102245000Y-75575000D02*
X103425000Y-75575000D01*
X120015000Y-74295000D02*
X121295000Y-75575000D01*
X84203198Y-33530198D02*
X84330198Y-33403198D01*
X84375000Y-37475000D02*
X91440000Y-44540000D01*
X81915000Y-36195000D02*
X81915000Y-35818396D01*
X34099999Y-40068001D02*
X34099999Y-46420395D01*
X34099999Y-40068001D02*
X34099999Y-40259000D01*
X93900000Y-56525000D02*
X100965000Y-63590000D01*
X83195000Y-37475000D02*
X84375000Y-37475000D01*
X40712000Y-33600000D02*
X40513000Y-33600000D01*
X84203198Y-33600000D02*
X40712000Y-33600000D01*
X91440000Y-44540000D02*
X91440000Y-55245000D01*
X101546732Y-83238268D02*
X91440000Y-93345000D01*
X92720000Y-56525000D02*
X93900000Y-56525000D01*
X100965000Y-74295000D02*
X102245000Y-75575000D01*
X103425000Y-37475000D02*
X110490000Y-44540000D01*
X103425000Y-75575000D02*
X101546732Y-77453268D01*
X99698490Y-33337500D02*
X84395896Y-33337500D01*
X111770000Y-56525000D02*
X112950000Y-56525000D01*
X110490000Y-44540000D02*
X110490000Y-55245000D01*
X34099999Y-38848780D02*
X34099999Y-40068001D01*
X100965000Y-63590000D02*
X100965000Y-74295000D01*
X91440000Y-93345000D02*
X92720000Y-94625000D01*
X34099999Y-46420395D02*
X36781479Y-49101875D01*
X91440000Y-55245000D02*
X92720000Y-56525000D01*
X121295000Y-75575000D02*
X122475000Y-75575000D01*
X81915000Y-35818396D02*
X84203198Y-33530198D01*
X100965000Y-36195000D02*
X102245000Y-37475000D01*
X100965000Y-34604010D02*
X99698490Y-33337500D01*
X36781479Y-49101875D02*
X36781479Y-49511061D01*
X84395896Y-33337500D02*
X84331297Y-33402099D01*
X120269465Y-77780535D02*
X120269465Y-83565535D01*
%TO.N,COL2*%
X158115000Y-74295000D02*
X159395000Y-75575000D01*
X160575000Y-75575000D02*
X157943901Y-78206099D01*
X149870000Y-94625000D02*
X151050000Y-94625000D01*
X148590000Y-55245000D02*
X149870000Y-56525000D01*
X148590000Y-44540000D02*
X148590000Y-55245000D01*
X157943901Y-83991099D02*
X148590000Y-93345000D01*
X129540000Y-93345000D02*
X130820000Y-94625000D01*
X39162383Y-33150000D02*
X33649999Y-38662384D01*
X122475000Y-34878000D02*
X123571000Y-33782000D01*
X158115000Y-63590000D02*
X158115000Y-74295000D01*
X157943901Y-78206099D02*
X157943901Y-83991099D01*
X93335332Y-32887500D02*
X84333500Y-32887500D01*
X122475000Y-37475000D02*
X129540000Y-44540000D01*
X148590000Y-93345000D02*
X149870000Y-94625000D01*
X151050000Y-56525000D02*
X158115000Y-63590000D01*
X141525000Y-75575000D02*
X139329232Y-77770768D01*
X33649999Y-38662384D02*
X33649999Y-46606791D01*
X84333500Y-32887500D02*
X84207896Y-32887500D01*
X140345000Y-37475000D02*
X141525000Y-37475000D01*
X139065000Y-74295000D02*
X140345000Y-75575000D01*
X159395000Y-75575000D02*
X160575000Y-75575000D01*
X33649999Y-46606791D02*
X35782830Y-48739622D01*
X149870000Y-56525000D02*
X151050000Y-56525000D01*
X84207896Y-32887500D02*
X83947000Y-33148396D01*
X132000000Y-56525000D02*
X139065000Y-63590000D01*
X122475000Y-37475000D02*
X122475000Y-34878000D01*
X121295000Y-37475000D02*
X122475000Y-37475000D01*
X141525000Y-37475000D02*
X148590000Y-44540000D01*
X139065000Y-36195000D02*
X140345000Y-37475000D01*
X123571000Y-33782000D02*
X123489872Y-33863128D01*
X139329232Y-77770768D02*
X139329232Y-83555768D01*
X35782830Y-48739622D02*
X35782830Y-49469757D01*
X129540000Y-55245000D02*
X130820000Y-56525000D01*
X129540000Y-44540000D02*
X129540000Y-55245000D01*
X130820000Y-94625000D02*
X132000000Y-94625000D01*
X123489872Y-33863128D02*
X122512160Y-32885416D01*
X93337416Y-32885416D02*
X93335332Y-32887500D01*
X83947000Y-33148396D02*
X83947000Y-33150000D01*
X139065000Y-35306000D02*
X137541000Y-33782000D01*
X139329232Y-83555768D02*
X129540000Y-93345000D01*
X122512160Y-32885416D02*
X93337416Y-32885416D01*
X130820000Y-56525000D02*
X132000000Y-56525000D01*
X120015000Y-36195000D02*
X121295000Y-37475000D01*
X83947000Y-33150000D02*
X39162383Y-33150000D01*
X137541000Y-33782000D02*
X123571000Y-33782000D01*
X139065000Y-36195000D02*
X139065000Y-35306000D01*
X139065000Y-63590000D02*
X139065000Y-74295000D01*
X140345000Y-75575000D02*
X141525000Y-75575000D01*
X84333500Y-32887500D02*
X84209500Y-32887500D01*
%TO.N,COL3*%
X162090973Y-32435416D02*
X163404062Y-33748505D01*
X196215000Y-74295000D02*
X197495000Y-75575000D01*
X196175000Y-74875000D02*
X196175000Y-75575000D01*
X34784178Y-48400822D02*
X34784178Y-49428536D01*
X84023584Y-32435416D02*
X162090973Y-32435416D01*
X196175000Y-75575000D02*
X198675000Y-75575000D01*
X177165000Y-36195000D02*
X178445000Y-37475000D01*
X33199999Y-38862000D02*
X33199999Y-39243000D01*
X177165000Y-36195000D02*
X177165000Y-34604010D01*
X33199999Y-39243000D02*
X33199999Y-46793187D01*
X158115000Y-36195000D02*
X160464500Y-33845500D01*
X189150000Y-56525000D02*
X196215000Y-63590000D01*
X178445000Y-75575000D02*
X179625000Y-75575000D01*
X163404062Y-33748505D02*
X163542505Y-33748505D01*
X170100000Y-56525000D02*
X177165000Y-63590000D01*
X178445000Y-37475000D02*
X179625000Y-37475000D01*
X34795906Y-48389094D02*
X34784178Y-48400822D01*
X179625000Y-37475000D02*
X186690000Y-44540000D01*
X167640000Y-44540000D02*
X167640000Y-55245000D01*
X197495000Y-75575000D02*
X198675000Y-75575000D01*
X33199999Y-46793187D02*
X34795906Y-48389094D01*
X186690000Y-44540000D02*
X186690000Y-55245000D01*
X177165000Y-34604010D02*
X176309495Y-33748505D01*
X83373000Y-32700000D02*
X79502000Y-32700000D01*
X83373000Y-32700000D02*
X83759000Y-32700000D01*
X163542505Y-33748505D02*
X176309495Y-33748505D01*
X187970000Y-56525000D02*
X189150000Y-56525000D01*
X83759000Y-32700000D02*
X84023584Y-32435416D01*
X168920000Y-94625000D02*
X170100000Y-94625000D01*
X158115000Y-36195000D02*
X159395000Y-37475000D01*
X160464500Y-33845500D02*
X160561495Y-33748505D01*
X196469465Y-77780535D02*
X196469465Y-83565535D01*
X198675000Y-75575000D02*
X196469465Y-77780535D01*
X179625000Y-75575000D02*
X178127732Y-77072268D01*
X159395000Y-37475000D02*
X160575000Y-37475000D01*
X168920000Y-56525000D02*
X170100000Y-56525000D01*
X83566000Y-32700000D02*
X83373000Y-32700000D01*
X160575000Y-37475000D02*
X167640000Y-44540000D01*
X38975987Y-32700000D02*
X35012493Y-36663494D01*
X196469465Y-83565535D02*
X186690000Y-93345000D01*
X167640000Y-93345000D02*
X168920000Y-94625000D01*
X186690000Y-55245000D02*
X187970000Y-56525000D01*
X196215000Y-63590000D02*
X196215000Y-74295000D01*
X79502000Y-32700000D02*
X41783000Y-32700000D01*
X187970000Y-94625000D02*
X189150000Y-94625000D01*
X177165000Y-74295000D02*
X178445000Y-75575000D01*
X167640000Y-55245000D02*
X168920000Y-56525000D01*
X196215000Y-74295000D02*
X196215000Y-74778432D01*
X33199999Y-38475988D02*
X33199999Y-38862000D01*
X35012493Y-36663494D02*
X33199999Y-38475988D01*
X186690000Y-93345000D02*
X187970000Y-94625000D01*
X178127732Y-82857268D02*
X167640000Y-93345000D01*
X160561495Y-33748505D02*
X163542505Y-33748505D01*
X177165000Y-63590000D02*
X177165000Y-74295000D01*
X41783000Y-32700000D02*
X38975987Y-32700000D01*
X178127732Y-77072268D02*
X178127732Y-82857268D01*
X196174991Y-74874991D02*
G75*
G03*
X196215000Y-74778432I-96591J96591D01*
G01*
%TO.N,COL4*%
X216554999Y-82530001D02*
X205740000Y-93345000D01*
X215265000Y-63590000D02*
X215265000Y-74295000D01*
X196215000Y-36195000D02*
X198513932Y-33896068D01*
X216554999Y-76745001D02*
X216554999Y-82530001D01*
X208200000Y-56525000D02*
X215265000Y-63590000D01*
X235150732Y-77199268D02*
X235150732Y-87746768D01*
X216545000Y-37475000D02*
X217725000Y-37475000D01*
X38313795Y-32725796D02*
X32749999Y-38289592D01*
X215265000Y-35687000D02*
X213474068Y-33896068D01*
X217725000Y-75575000D02*
X216554999Y-76745001D01*
X226070000Y-56525000D02*
X227250000Y-56525000D01*
X215265000Y-74295000D02*
X216545000Y-75575000D01*
X198675000Y-37475000D02*
X205740000Y-44540000D01*
X207020000Y-56525000D02*
X208200000Y-56525000D01*
X32749999Y-38862000D02*
X32749999Y-46752001D01*
X32749999Y-82279999D02*
X34163000Y-83693000D01*
X198762281Y-31985416D02*
X200672932Y-33896068D01*
X224790000Y-55245000D02*
X226070000Y-56525000D01*
X197495000Y-37475000D02*
X198675000Y-37475000D01*
X83312000Y-32250000D02*
X83572604Y-32250000D01*
X32749999Y-38289592D02*
X32749999Y-38481000D01*
X230832500Y-94625000D02*
X232012500Y-94625000D01*
X235595000Y-75575000D02*
X236775000Y-75575000D01*
X205740000Y-93345000D02*
X207020000Y-94625000D01*
X196215000Y-36195000D02*
X197495000Y-37475000D01*
X32749999Y-46752001D02*
X32749999Y-46979583D01*
X234315000Y-63590000D02*
X234315000Y-74295000D01*
X198513932Y-33896068D02*
X200672932Y-33896068D01*
X83312000Y-32250000D02*
X38989000Y-32250000D01*
X235150732Y-87746768D02*
X229552500Y-93345000D01*
X38989000Y-32250000D02*
X38789591Y-32250000D01*
X205740000Y-44540000D02*
X205740000Y-55245000D01*
X32749999Y-38481000D02*
X32749999Y-38862000D01*
X215265000Y-36195000D02*
X215265000Y-35687000D01*
X234315000Y-74295000D02*
X235595000Y-75575000D01*
X213474068Y-33896068D02*
X200672932Y-33896068D01*
X224790000Y-44540000D02*
X224790000Y-55245000D01*
X38789591Y-32250000D02*
X38313795Y-32725796D01*
X215265000Y-36195000D02*
X216545000Y-37475000D01*
X83312000Y-32250000D02*
X82550000Y-32250000D01*
X227250000Y-56525000D02*
X234315000Y-63590000D01*
X32749999Y-46752001D02*
X32749999Y-82279999D01*
X83572604Y-32250000D02*
X83837188Y-31985416D01*
X217725000Y-37475000D02*
X224790000Y-44540000D01*
X236775000Y-75575000D02*
X235150732Y-77199268D01*
X216545000Y-75575000D02*
X217725000Y-75575000D01*
X207020000Y-94625000D02*
X208200000Y-94625000D01*
X229552500Y-93345000D02*
X230832500Y-94625000D01*
X83837188Y-31985416D02*
X198762281Y-31985416D01*
X205740000Y-55245000D02*
X207020000Y-56525000D01*
%TO.N,SCK*%
X40423000Y-86787305D02*
X40847695Y-87212000D01*
X40847695Y-87212000D02*
X41683552Y-87212000D01*
X41683552Y-87212000D02*
X42606179Y-86289373D01*
X40423000Y-85624060D02*
X40423000Y-86787305D01*
X38919364Y-84120424D02*
X40423000Y-85624060D01*
%TO.N,MOSI*%
X41656000Y-85471000D02*
X43180000Y-85471000D01*
X39751000Y-83566000D02*
X41656000Y-85471000D01*
%TO.N,RESET*%
X47789000Y-72470695D02*
X48213695Y-72046000D01*
X52451000Y-79248000D02*
X55118000Y-81915000D01*
X48814305Y-72046000D02*
X51415688Y-74647383D01*
X51415688Y-74683444D02*
X52451000Y-75718756D01*
X48213695Y-72046000D02*
X48814305Y-72046000D01*
X231017997Y-54605003D02*
X231017997Y-58170997D01*
X48006000Y-78359000D02*
X47789000Y-78142000D01*
X52451000Y-78359000D02*
X52451000Y-79248000D01*
X231910500Y-53712500D02*
X231017997Y-54605003D01*
X55118000Y-81915000D02*
X56261000Y-83058000D01*
X53478192Y-96277192D02*
X56713935Y-96277192D01*
X231027431Y-58180431D02*
X231027431Y-58415564D01*
X231017997Y-58170997D02*
X231017997Y-58424997D01*
X52451000Y-75718756D02*
X52451000Y-78359000D01*
X231910500Y-53712500D02*
X231902000Y-53721000D01*
X56261000Y-88646000D02*
X53467000Y-91440000D01*
X231017997Y-58170997D02*
X231027431Y-58180431D01*
X56261000Y-83947000D02*
X56261000Y-88646000D01*
X53467000Y-96266000D02*
X53478192Y-96277192D01*
X51415688Y-74647383D02*
X51415688Y-74683444D01*
X233437500Y-53712500D02*
X231910500Y-53712500D01*
X56261000Y-83058000D02*
X56261000Y-83947000D01*
X47789000Y-78142000D02*
X47789000Y-72470695D01*
%TD*%
%TA.AperFunction,Conductor*%
%TO.N,GND*%
G36*
X61663671Y-69743249D02*
G01*
X61710391Y-69796708D01*
X61722000Y-69849535D01*
X61722000Y-73094422D01*
X61701998Y-73162543D01*
X61648342Y-73209036D01*
X61578068Y-73219140D01*
X61513488Y-73189646D01*
X61474731Y-73128623D01*
X61465085Y-73094422D01*
X61450565Y-73042936D01*
X61352980Y-72845053D01*
X61324541Y-72806968D01*
X61224420Y-72672891D01*
X61224420Y-72672890D01*
X61220967Y-72668267D01*
X61058949Y-72518499D01*
X60872350Y-72400764D01*
X60667421Y-72319006D01*
X60661761Y-72317880D01*
X60661757Y-72317879D01*
X60456691Y-72277089D01*
X60456688Y-72277089D01*
X60451024Y-72275962D01*
X60445249Y-72275886D01*
X60445245Y-72275886D01*
X60334504Y-72274437D01*
X60230406Y-72273074D01*
X60224709Y-72274053D01*
X60224708Y-72274053D01*
X60018654Y-72309459D01*
X60018653Y-72309459D01*
X60012957Y-72310438D01*
X59805957Y-72386804D01*
X59800996Y-72389756D01*
X59800995Y-72389756D01*
X59666592Y-72469718D01*
X59616341Y-72499614D01*
X59450457Y-72645090D01*
X59313863Y-72818360D01*
X59211131Y-73013620D01*
X59145703Y-73224333D01*
X59119770Y-73443440D01*
X59134200Y-73663604D01*
X59135621Y-73669200D01*
X59135622Y-73669205D01*
X59161266Y-73770175D01*
X59188511Y-73877452D01*
X59190928Y-73882694D01*
X59190928Y-73882695D01*
X59275468Y-74066074D01*
X59280883Y-74077821D01*
X59408222Y-74258002D01*
X59566264Y-74411961D01*
X59571060Y-74415166D01*
X59571063Y-74415168D01*
X59655261Y-74471427D01*
X59749717Y-74534540D01*
X59755020Y-74536818D01*
X59755023Y-74536820D01*
X59947129Y-74619355D01*
X59952436Y-74621635D01*
X60032088Y-74639658D01*
X60161995Y-74669054D01*
X60162001Y-74669055D01*
X60167632Y-74670329D01*
X60173403Y-74670556D01*
X60173405Y-74670556D01*
X60241211Y-74673220D01*
X60388098Y-74678991D01*
X60497275Y-74663161D01*
X60600738Y-74648160D01*
X60600743Y-74648159D01*
X60606452Y-74647331D01*
X60611916Y-74645476D01*
X60611921Y-74645475D01*
X60809907Y-74578268D01*
X60809912Y-74578266D01*
X60815379Y-74576410D01*
X60864013Y-74549174D01*
X60909246Y-74523842D01*
X61007884Y-74468602D01*
X61064338Y-74421650D01*
X61173086Y-74331204D01*
X61177518Y-74327518D01*
X61315726Y-74161342D01*
X61374664Y-74121759D01*
X61445646Y-74120323D01*
X61506136Y-74157490D01*
X61536929Y-74221462D01*
X61538121Y-74252891D01*
X61534437Y-74295000D01*
X61534917Y-74300480D01*
X61534917Y-74305980D01*
X61534531Y-74305980D01*
X61534628Y-74314587D01*
X61498633Y-74842584D01*
X61501971Y-75016393D01*
X61546623Y-75243986D01*
X61548604Y-75249119D01*
X61548604Y-75249120D01*
X61612074Y-75413603D01*
X61630119Y-75460368D01*
X61632959Y-75465076D01*
X61703890Y-75582660D01*
X61722000Y-75647743D01*
X61722000Y-77373903D01*
X61701998Y-77442024D01*
X61648342Y-77488517D01*
X61578068Y-77498621D01*
X61529604Y-77480990D01*
X61384589Y-77391077D01*
X61384584Y-77391074D01*
X61381040Y-77388877D01*
X61298663Y-77351855D01*
X61112903Y-77268371D01*
X61112897Y-77268369D01*
X61109086Y-77266656D01*
X61105080Y-77265462D01*
X61105078Y-77265461D01*
X60897040Y-77203443D01*
X60823356Y-77181477D01*
X60528871Y-77134835D01*
X60483599Y-77132779D01*
X60437031Y-77130664D01*
X60437012Y-77130664D01*
X60435612Y-77130600D01*
X60249375Y-77130600D01*
X60027499Y-77145337D01*
X59735226Y-77204270D01*
X59453314Y-77301340D01*
X59449581Y-77303209D01*
X59449577Y-77303211D01*
X59220958Y-77417695D01*
X59186716Y-77434842D01*
X59140400Y-77466318D01*
X59019975Y-77548159D01*
X58940117Y-77602430D01*
X58717849Y-77801161D01*
X58715132Y-77804331D01*
X58715131Y-77804332D01*
X58534232Y-78015391D01*
X58523816Y-78027543D01*
X58521542Y-78031045D01*
X58521538Y-78031050D01*
X58363987Y-78273658D01*
X58361429Y-78277597D01*
X58359635Y-78281376D01*
X58359634Y-78281377D01*
X58326664Y-78350812D01*
X58233539Y-78546932D01*
X58232260Y-78550915D01*
X58232259Y-78550918D01*
X58148627Y-78811400D01*
X58142394Y-78830815D01*
X58141653Y-78834934D01*
X58092610Y-79107509D01*
X58089596Y-79124259D01*
X58089407Y-79128426D01*
X58089406Y-79128433D01*
X58077633Y-79387684D01*
X58076070Y-79422108D01*
X58076433Y-79426256D01*
X58076433Y-79426260D01*
X58101691Y-79714964D01*
X58101692Y-79714972D01*
X58102056Y-79719130D01*
X58167097Y-80010105D01*
X58270050Y-80289923D01*
X58271997Y-80293616D01*
X58271998Y-80293618D01*
X58289297Y-80326429D01*
X58409106Y-80553666D01*
X58581822Y-80796701D01*
X58584666Y-80799751D01*
X58584671Y-80799757D01*
X58782314Y-81011703D01*
X58785164Y-81014759D01*
X59015559Y-81204008D01*
X59268960Y-81361123D01*
X59272772Y-81362836D01*
X59537097Y-81481629D01*
X59537103Y-81481631D01*
X59540914Y-81483344D01*
X59544920Y-81484538D01*
X59544922Y-81484539D01*
X59683779Y-81525933D01*
X59826644Y-81568523D01*
X60121129Y-81615165D01*
X60166401Y-81617221D01*
X60212969Y-81619336D01*
X60212988Y-81619336D01*
X60214388Y-81619400D01*
X60400625Y-81619400D01*
X60622501Y-81604663D01*
X60914774Y-81545730D01*
X61196686Y-81448660D01*
X61200419Y-81446791D01*
X61200423Y-81446789D01*
X61459540Y-81317033D01*
X61459542Y-81317032D01*
X61463284Y-81315158D01*
X61525178Y-81273095D01*
X61592762Y-81251349D01*
X61661374Y-81269593D01*
X61709231Y-81322036D01*
X61722000Y-81377307D01*
X61722000Y-83697788D01*
X61701998Y-83765909D01*
X61685095Y-83786883D01*
X58622383Y-86849596D01*
X56801595Y-88670384D01*
X56739283Y-88704410D01*
X56668468Y-88699345D01*
X56611632Y-88656798D01*
X56586821Y-88590278D01*
X56586500Y-88581289D01*
X56586500Y-83077713D01*
X56586979Y-83066732D01*
X56589303Y-83040170D01*
X56589303Y-83040168D01*
X56590263Y-83029193D01*
X56580508Y-82992783D01*
X56578133Y-82982072D01*
X56573501Y-82955806D01*
X56571588Y-82944955D01*
X56566079Y-82935412D01*
X56564888Y-82932140D01*
X56563408Y-82928967D01*
X56560554Y-82918316D01*
X56538945Y-82887456D01*
X56533039Y-82878185D01*
X56519707Y-82855094D01*
X56514194Y-82845545D01*
X56485317Y-82821315D01*
X56477215Y-82813889D01*
X54256637Y-80593311D01*
X54222611Y-80530999D01*
X54227676Y-80460184D01*
X54270223Y-80403348D01*
X54336743Y-80378537D01*
X54392830Y-80387350D01*
X54505452Y-80432738D01*
X54505457Y-80432740D01*
X54511019Y-80434981D01*
X54516900Y-80436129D01*
X54516905Y-80436131D01*
X54712676Y-80474362D01*
X54712679Y-80474362D01*
X54717122Y-80475230D01*
X54722643Y-80475500D01*
X54877469Y-80475500D01*
X54880441Y-80475216D01*
X54880450Y-80475216D01*
X54915726Y-80471850D01*
X54947018Y-80468864D01*
X54983130Y-80470630D01*
X55060770Y-80485792D01*
X55130225Y-80499356D01*
X55130228Y-80499356D01*
X55134671Y-80500224D01*
X55140314Y-80500500D01*
X55298664Y-80500500D01*
X55458795Y-80485222D01*
X55464551Y-80483533D01*
X55464553Y-80483533D01*
X55626132Y-80436131D01*
X55664876Y-80424765D01*
X55737522Y-80387350D01*
X55850476Y-80329175D01*
X55850479Y-80329173D01*
X55855807Y-80326429D01*
X56024698Y-80193763D01*
X56165455Y-80031554D01*
X56273001Y-79845655D01*
X56343453Y-79642774D01*
X56358849Y-79536593D01*
X56373409Y-79436171D01*
X56373409Y-79436168D01*
X56374270Y-79430231D01*
X56364341Y-79215694D01*
X56348528Y-79150079D01*
X56315428Y-79012740D01*
X56314022Y-79006906D01*
X56285441Y-78944044D01*
X56233958Y-78830815D01*
X56225131Y-78811400D01*
X56100874Y-78636230D01*
X56096551Y-78632091D01*
X56096547Y-78632087D01*
X55950065Y-78491861D01*
X55950064Y-78491861D01*
X55945735Y-78487716D01*
X55765311Y-78371218D01*
X55566113Y-78290939D01*
X55432150Y-78264778D01*
X55359775Y-78250644D01*
X55359772Y-78250644D01*
X55355329Y-78249776D01*
X55349686Y-78249500D01*
X55191336Y-78249500D01*
X55031205Y-78264778D01*
X55025447Y-78266467D01*
X55025448Y-78266467D01*
X55000934Y-78273658D01*
X54941321Y-78276418D01*
X54937343Y-78275641D01*
X54937330Y-78275639D01*
X54932878Y-78274770D01*
X54927357Y-78274500D01*
X54772531Y-78274500D01*
X54615954Y-78289439D01*
X54610198Y-78291128D01*
X54610196Y-78291128D01*
X54528845Y-78314994D01*
X54414451Y-78348553D01*
X54360177Y-78376506D01*
X54233092Y-78441959D01*
X54233089Y-78441961D01*
X54227761Y-78444705D01*
X54182793Y-78480028D01*
X54067338Y-78570718D01*
X54067333Y-78570722D01*
X54062621Y-78574424D01*
X54058690Y-78578954D01*
X54058689Y-78578955D01*
X53928921Y-78728498D01*
X53928917Y-78728503D01*
X53924990Y-78733029D01*
X53819834Y-78914799D01*
X53750947Y-79113174D01*
X53750086Y-79119109D01*
X53750086Y-79119111D01*
X53732664Y-79239272D01*
X53720814Y-79320996D01*
X53730523Y-79530767D01*
X53731927Y-79536592D01*
X53731927Y-79536593D01*
X53776905Y-79723219D01*
X53779724Y-79734918D01*
X53782206Y-79740376D01*
X53782207Y-79740380D01*
X53810104Y-79801736D01*
X53820090Y-79872027D01*
X53790490Y-79936558D01*
X53730699Y-79974842D01*
X53659703Y-79974724D01*
X53606308Y-79942982D01*
X52813405Y-79150079D01*
X52779379Y-79087767D01*
X52776500Y-79060984D01*
X52776500Y-76790885D01*
X55185169Y-76790885D01*
X55197712Y-77022478D01*
X55250279Y-77248374D01*
X55341275Y-77461711D01*
X55344277Y-77466316D01*
X55344278Y-77466318D01*
X55396217Y-77545992D01*
X55467933Y-77656005D01*
X55471692Y-77660022D01*
X55622648Y-77821337D01*
X55622653Y-77821342D01*
X55626407Y-77825353D01*
X55630805Y-77828655D01*
X55630807Y-77828657D01*
X55807479Y-77961307D01*
X55807482Y-77961309D01*
X55811880Y-77964611D01*
X55892915Y-78005722D01*
X56013813Y-78067057D01*
X56013817Y-78067059D01*
X56018716Y-78069544D01*
X56023973Y-78071141D01*
X56023975Y-78071142D01*
X56235371Y-78135369D01*
X56235375Y-78135370D01*
X56240632Y-78136967D01*
X56470885Y-78164831D01*
X56571467Y-78159384D01*
X56696984Y-78152586D01*
X56696989Y-78152585D01*
X56702478Y-78152288D01*
X56928375Y-78099720D01*
X57030503Y-78056159D01*
X57136652Y-78010883D01*
X57136654Y-78010882D01*
X57141711Y-78008725D01*
X57205564Y-77967100D01*
X57331399Y-77885070D01*
X57331402Y-77885068D01*
X57336005Y-77882067D01*
X57462937Y-77763286D01*
X57472242Y-77752916D01*
X58785203Y-76289596D01*
X58789891Y-76284648D01*
X58844270Y-76230269D01*
X58897194Y-76154685D01*
X58899637Y-76151317D01*
X58951296Y-76082514D01*
X58951297Y-76082513D01*
X58954601Y-76078112D01*
X58957091Y-76073204D01*
X58957094Y-76073199D01*
X58960532Y-76066422D01*
X58969687Y-76051154D01*
X58977301Y-76040281D01*
X59016299Y-75956649D01*
X59018107Y-75952933D01*
X59059534Y-75871276D01*
X59063345Y-75858731D01*
X59069708Y-75842113D01*
X59072994Y-75835066D01*
X59075320Y-75830079D01*
X59085976Y-75790312D01*
X59099197Y-75740972D01*
X59100344Y-75736956D01*
X59125359Y-75654621D01*
X59125360Y-75654617D01*
X59126957Y-75649360D01*
X59128531Y-75636350D01*
X59131911Y-75618880D01*
X59135349Y-75606050D01*
X59143392Y-75514120D01*
X59143825Y-75509970D01*
X59144269Y-75506301D01*
X59154821Y-75419107D01*
X59154524Y-75413616D01*
X59154524Y-75413603D01*
X59154112Y-75406010D01*
X59154407Y-75388213D01*
X59155563Y-75375000D01*
X59147526Y-75283137D01*
X59147232Y-75278999D01*
X59142576Y-75193008D01*
X59142575Y-75193003D01*
X59142278Y-75187514D01*
X59139304Y-75174734D01*
X59136506Y-75157163D01*
X59135830Y-75149439D01*
X59135828Y-75149430D01*
X59135349Y-75143950D01*
X59133926Y-75138640D01*
X59133925Y-75138633D01*
X59111497Y-75054930D01*
X59110483Y-75050879D01*
X59090957Y-74966973D01*
X59089711Y-74961618D01*
X59084555Y-74949531D01*
X59078746Y-74932709D01*
X59075320Y-74919921D01*
X59045433Y-74855827D01*
X59036401Y-74836457D01*
X59034699Y-74832643D01*
X59000873Y-74753341D01*
X58998715Y-74748281D01*
X58991522Y-74737247D01*
X58982893Y-74721710D01*
X58977301Y-74709719D01*
X58924529Y-74634353D01*
X58922189Y-74630890D01*
X58875061Y-74558595D01*
X58875060Y-74558594D01*
X58872057Y-74553987D01*
X58863055Y-74544367D01*
X58851845Y-74530548D01*
X58847427Y-74524239D01*
X58847424Y-74524235D01*
X58844270Y-74519731D01*
X58779280Y-74454741D01*
X58776375Y-74451738D01*
X58717347Y-74388660D01*
X58717345Y-74388658D01*
X58713583Y-74384638D01*
X58709186Y-74381336D01*
X58709183Y-74381334D01*
X58703032Y-74376716D01*
X58689590Y-74365051D01*
X58680269Y-74355730D01*
X58605042Y-74303056D01*
X58601664Y-74300607D01*
X58569407Y-74276387D01*
X58528111Y-74245381D01*
X58516326Y-74239402D01*
X58501064Y-74230249D01*
X58494787Y-74225853D01*
X58494783Y-74225851D01*
X58490282Y-74222699D01*
X58439684Y-74199105D01*
X58407070Y-74183897D01*
X58403313Y-74182069D01*
X58357661Y-74158908D01*
X58321274Y-74140448D01*
X58316011Y-74138849D01*
X58316006Y-74138847D01*
X58308627Y-74136605D01*
X58292013Y-74130245D01*
X58280079Y-74124680D01*
X58274774Y-74123259D01*
X58274770Y-74123257D01*
X58212305Y-74106520D01*
X58191421Y-74100924D01*
X58187422Y-74099781D01*
X58099358Y-74073025D01*
X58086217Y-74071434D01*
X58068760Y-74068056D01*
X58056050Y-74064651D01*
X57964638Y-74056653D01*
X57960521Y-74056223D01*
X57869105Y-74045161D01*
X57855875Y-74045878D01*
X57838087Y-74045582D01*
X57832881Y-74045127D01*
X57825000Y-74044437D01*
X57819525Y-74044916D01*
X57819522Y-74044916D01*
X57733683Y-74052426D01*
X57729516Y-74052721D01*
X57701863Y-74054219D01*
X57637512Y-74057704D01*
X57624590Y-74060711D01*
X57607041Y-74063506D01*
X57593950Y-74064651D01*
X57510265Y-74087075D01*
X57505453Y-74088364D01*
X57501399Y-74089378D01*
X57451774Y-74100926D01*
X57411615Y-74110271D01*
X57399405Y-74115479D01*
X57382595Y-74121283D01*
X57375237Y-74123255D01*
X57375232Y-74123257D01*
X57369921Y-74124680D01*
X57364939Y-74127003D01*
X57364934Y-74127005D01*
X57286935Y-74163376D01*
X57283121Y-74165078D01*
X57241067Y-74183016D01*
X57198279Y-74201267D01*
X57193665Y-74204275D01*
X57187156Y-74208518D01*
X57171601Y-74217158D01*
X57164708Y-74220372D01*
X57164703Y-74220375D01*
X57159719Y-74222699D01*
X57104009Y-74261708D01*
X57084753Y-74275191D01*
X57081290Y-74277531D01*
X57024443Y-74314589D01*
X57003985Y-74327925D01*
X56999963Y-74331689D01*
X56994282Y-74337005D01*
X56980465Y-74348214D01*
X56969731Y-74355730D01*
X56905049Y-74420412D01*
X56902048Y-74423316D01*
X56877053Y-74446706D01*
X56875220Y-74448749D01*
X56875217Y-74448752D01*
X56864461Y-74460740D01*
X56859773Y-74465688D01*
X56805730Y-74519731D01*
X56802579Y-74524232D01*
X56802575Y-74524236D01*
X56789468Y-74542955D01*
X56780038Y-74554831D01*
X56440994Y-74932702D01*
X55489767Y-75992862D01*
X55488113Y-75995065D01*
X55488108Y-75995071D01*
X55388693Y-76127479D01*
X55385389Y-76131880D01*
X55280456Y-76338716D01*
X55278859Y-76343973D01*
X55278858Y-76343975D01*
X55229539Y-76506305D01*
X55213033Y-76560632D01*
X55185169Y-76790885D01*
X52776500Y-76790885D01*
X52776500Y-75738469D01*
X52776979Y-75727488D01*
X52779303Y-75700926D01*
X52779303Y-75700924D01*
X52780263Y-75689949D01*
X52770508Y-75653539D01*
X52768133Y-75642828D01*
X52763910Y-75618880D01*
X52761588Y-75605711D01*
X52756078Y-75596167D01*
X52754886Y-75592891D01*
X52753407Y-75589720D01*
X52750554Y-75579072D01*
X52728940Y-75548204D01*
X52723036Y-75538935D01*
X52709707Y-75515848D01*
X52709704Y-75515844D01*
X52704194Y-75506301D01*
X52675330Y-75482081D01*
X52667227Y-75474656D01*
X52358616Y-75166045D01*
X52048397Y-74855827D01*
X52014372Y-74793514D01*
X52012570Y-74750284D01*
X52013440Y-74743680D01*
X52021370Y-74683444D01*
X52000732Y-74526682D01*
X51940224Y-74380603D01*
X51861134Y-74277531D01*
X51848993Y-74261708D01*
X51843970Y-74255162D01*
X51818177Y-74235370D01*
X51792937Y-74216003D01*
X51718529Y-74158908D01*
X51572450Y-74098400D01*
X51415688Y-74077762D01*
X51380711Y-74082367D01*
X51310565Y-74071428D01*
X51275171Y-74046540D01*
X49058416Y-71829785D01*
X49050989Y-71821681D01*
X49033846Y-71801251D01*
X49033847Y-71801251D01*
X49026760Y-71792806D01*
X49017211Y-71787293D01*
X48994120Y-71773961D01*
X48984849Y-71768055D01*
X48963020Y-71752770D01*
X48953989Y-71746446D01*
X48943339Y-71743592D01*
X48940171Y-71742115D01*
X48936895Y-71740923D01*
X48927350Y-71735412D01*
X48893606Y-71729462D01*
X48890247Y-71728870D01*
X48879520Y-71726492D01*
X48843112Y-71716736D01*
X48832127Y-71717697D01*
X48832125Y-71717697D01*
X48805577Y-71720020D01*
X48794595Y-71720500D01*
X48233393Y-71720500D01*
X48222411Y-71720020D01*
X48195875Y-71717698D01*
X48195873Y-71717698D01*
X48184888Y-71716737D01*
X48174238Y-71719591D01*
X48174236Y-71719591D01*
X48148499Y-71726488D01*
X48137764Y-71728868D01*
X48137753Y-71728870D01*
X48100650Y-71735412D01*
X48091102Y-71740924D01*
X48087825Y-71742117D01*
X48084657Y-71743594D01*
X48074011Y-71746447D01*
X48064982Y-71752769D01*
X48043148Y-71768057D01*
X48033880Y-71773961D01*
X48001240Y-71792806D01*
X47994157Y-71801247D01*
X47994156Y-71801248D01*
X47977020Y-71821670D01*
X47969595Y-71829773D01*
X47572778Y-72226591D01*
X47564674Y-72234017D01*
X47535806Y-72258240D01*
X47530293Y-72267789D01*
X47516961Y-72290880D01*
X47511055Y-72300151D01*
X47489446Y-72331011D01*
X47486592Y-72341661D01*
X47485115Y-72344829D01*
X47483923Y-72348105D01*
X47478412Y-72357650D01*
X47473624Y-72384806D01*
X47471870Y-72394753D01*
X47469492Y-72405480D01*
X47459736Y-72441888D01*
X47460697Y-72452873D01*
X47460697Y-72452875D01*
X47463020Y-72479423D01*
X47463500Y-72490405D01*
X47463500Y-78074465D01*
X47453909Y-78122682D01*
X47420956Y-78202238D01*
X47400318Y-78359000D01*
X47420956Y-78515762D01*
X47481464Y-78661841D01*
X47577718Y-78787282D01*
X47703159Y-78883536D01*
X47849238Y-78944044D01*
X48006000Y-78964682D01*
X48014188Y-78963604D01*
X48154574Y-78945122D01*
X48162762Y-78944044D01*
X48308841Y-78883536D01*
X48434282Y-78787282D01*
X48530536Y-78661841D01*
X48591044Y-78515762D01*
X48611682Y-78359000D01*
X48591044Y-78202238D01*
X48530536Y-78056159D01*
X48434282Y-77930718D01*
X48308841Y-77834464D01*
X48192281Y-77786183D01*
X48137001Y-77741636D01*
X48114500Y-77669775D01*
X48114500Y-73444071D01*
X48134502Y-73375950D01*
X48188158Y-73329457D01*
X48258432Y-73319353D01*
X48288718Y-73327662D01*
X48357238Y-73356044D01*
X48365426Y-73357122D01*
X48435619Y-73366363D01*
X48514000Y-73376682D01*
X48612084Y-73363769D01*
X48682232Y-73374708D01*
X48717625Y-73399596D01*
X51082591Y-75764563D01*
X51116617Y-75826875D01*
X51109905Y-75901876D01*
X51103956Y-75916238D01*
X51083318Y-76073000D01*
X51103956Y-76229762D01*
X51164464Y-76375841D01*
X51260718Y-76501282D01*
X51386159Y-76597536D01*
X51532238Y-76658044D01*
X51540426Y-76659122D01*
X51548402Y-76661259D01*
X51547511Y-76664586D01*
X51597845Y-76686836D01*
X51636954Y-76746089D01*
X51642500Y-76783059D01*
X51642500Y-78055339D01*
X51622498Y-78123460D01*
X51605595Y-78144434D01*
X43960361Y-85789668D01*
X43898049Y-85823694D01*
X43827234Y-85818629D01*
X43770398Y-85776082D01*
X43745587Y-85709562D01*
X43754858Y-85652354D01*
X43761883Y-85635395D01*
X43761884Y-85635390D01*
X43765044Y-85627762D01*
X43785682Y-85471000D01*
X43765044Y-85314238D01*
X43704536Y-85168159D01*
X43608282Y-85042718D01*
X43482841Y-84946464D01*
X43336762Y-84885956D01*
X43180000Y-84865318D01*
X43023238Y-84885956D01*
X42877159Y-84946464D01*
X42751718Y-85042718D01*
X42746695Y-85049264D01*
X42710677Y-85096204D01*
X42653339Y-85138071D01*
X42610714Y-85145500D01*
X41843016Y-85145500D01*
X41774895Y-85125498D01*
X41753921Y-85108595D01*
X40383709Y-83738383D01*
X40349683Y-83676071D01*
X40347882Y-83632842D01*
X40355604Y-83574188D01*
X40356682Y-83566000D01*
X40336044Y-83409238D01*
X40275536Y-83263159D01*
X40179282Y-83137718D01*
X40053841Y-83041464D01*
X39907762Y-82980956D01*
X39751000Y-82960318D01*
X39594238Y-82980956D01*
X39448159Y-83041464D01*
X39322718Y-83137718D01*
X39226464Y-83263159D01*
X39165956Y-83409238D01*
X39164878Y-83417426D01*
X39164878Y-83417427D01*
X39164548Y-83419933D01*
X39163682Y-83421892D01*
X39162741Y-83425402D01*
X39162194Y-83425255D01*
X39135827Y-83484860D01*
X39076562Y-83523953D01*
X39023182Y-83528410D01*
X38919364Y-83514742D01*
X38762602Y-83535380D01*
X38616523Y-83595888D01*
X38491082Y-83692142D01*
X38486059Y-83698688D01*
X38470967Y-83718357D01*
X38394828Y-83817583D01*
X38334320Y-83963662D01*
X38313682Y-84120424D01*
X38334320Y-84277186D01*
X38394828Y-84423265D01*
X38491082Y-84548706D01*
X38616523Y-84644960D01*
X38762602Y-84705468D01*
X38919364Y-84726106D01*
X38986207Y-84717306D01*
X39056354Y-84728245D01*
X39091744Y-84753131D01*
X40060597Y-85721984D01*
X40094621Y-85784294D01*
X40097500Y-85811077D01*
X40097500Y-86358339D01*
X40077498Y-86426460D01*
X40023842Y-86472953D01*
X39953568Y-86483057D01*
X39888988Y-86453563D01*
X39882405Y-86447434D01*
X39617596Y-86182625D01*
X39583570Y-86120313D01*
X39581769Y-86077084D01*
X39593604Y-85987188D01*
X39594682Y-85979000D01*
X39574044Y-85822238D01*
X39513536Y-85676159D01*
X39417282Y-85550718D01*
X39291841Y-85454464D01*
X39145762Y-85393956D01*
X39087085Y-85386231D01*
X38997188Y-85374396D01*
X38989000Y-85373318D01*
X38890916Y-85386231D01*
X38820768Y-85375292D01*
X38785375Y-85350404D01*
X35643405Y-82208434D01*
X35609379Y-82146122D01*
X35606500Y-82119339D01*
X35606500Y-78439469D01*
X35626502Y-78371348D01*
X35655796Y-78339506D01*
X35727736Y-78284305D01*
X35734282Y-78279282D01*
X35830536Y-78153841D01*
X35891044Y-78007762D01*
X35911682Y-77851000D01*
X35898769Y-77752916D01*
X35909708Y-77682768D01*
X35934596Y-77647375D01*
X40055375Y-73526596D01*
X40117687Y-73492570D01*
X40160916Y-73490769D01*
X40259000Y-73503682D01*
X40267188Y-73502604D01*
X40407574Y-73484122D01*
X40415762Y-73483044D01*
X40561841Y-73422536D01*
X40687282Y-73326282D01*
X40783536Y-73200841D01*
X40844044Y-73054762D01*
X40864682Y-72898000D01*
X40844044Y-72741238D01*
X40783536Y-72595159D01*
X40687282Y-72469718D01*
X40561841Y-72373464D01*
X40415762Y-72312956D01*
X40259000Y-72292318D01*
X40102238Y-72312956D01*
X39956159Y-72373464D01*
X39830718Y-72469718D01*
X39734464Y-72595159D01*
X39673956Y-72741238D01*
X39653318Y-72898000D01*
X39654396Y-72906188D01*
X39666231Y-72996084D01*
X39655292Y-73066232D01*
X39630404Y-73101625D01*
X35509625Y-77222404D01*
X35447313Y-77256430D01*
X35404084Y-77258231D01*
X35367640Y-77253433D01*
X35306000Y-77245318D01*
X35297812Y-77246396D01*
X35207916Y-77258231D01*
X35149238Y-77265956D01*
X35003159Y-77326464D01*
X34877718Y-77422718D01*
X34781464Y-77548159D01*
X34720956Y-77694238D01*
X34700318Y-77851000D01*
X34720956Y-78007762D01*
X34781464Y-78153841D01*
X34877718Y-78279282D01*
X34884264Y-78284305D01*
X34956204Y-78339506D01*
X34998071Y-78396844D01*
X35005500Y-78439469D01*
X35005500Y-82243634D01*
X35005304Y-82246307D01*
X35003575Y-82251342D01*
X35004011Y-82262964D01*
X35004011Y-82262966D01*
X35005411Y-82300255D01*
X35005500Y-82304981D01*
X35005500Y-82323948D01*
X35006382Y-82328683D01*
X35006610Y-82332209D01*
X35007774Y-82363208D01*
X35012364Y-82373893D01*
X35013401Y-82378493D01*
X35016962Y-82390214D01*
X35018661Y-82394617D01*
X35020791Y-82406053D01*
X35026895Y-82415955D01*
X35033727Y-82427039D01*
X35042231Y-82443411D01*
X35048451Y-82457888D01*
X35048453Y-82457892D01*
X35051964Y-82466063D01*
X35055978Y-82470949D01*
X35058163Y-82473134D01*
X35060215Y-82475397D01*
X35060055Y-82475542D01*
X35067175Y-82484549D01*
X35073427Y-82491444D01*
X35079532Y-82501348D01*
X35101320Y-82517916D01*
X35114139Y-82529110D01*
X38360404Y-85775375D01*
X38394430Y-85837687D01*
X38396231Y-85880916D01*
X38383318Y-85979000D01*
X38403956Y-86135762D01*
X38464464Y-86281841D01*
X38560718Y-86407282D01*
X38686159Y-86503536D01*
X38832238Y-86564044D01*
X38840426Y-86565122D01*
X38910619Y-86574363D01*
X38989000Y-86584682D01*
X39087084Y-86571769D01*
X39157232Y-86582708D01*
X39192625Y-86607596D01*
X40315941Y-87730912D01*
X40349967Y-87793224D01*
X40344902Y-87864039D01*
X40315941Y-87909102D01*
X37359313Y-90865730D01*
X37359311Y-90865731D01*
X37271731Y-90953311D01*
X37267228Y-90962147D01*
X37267228Y-90962148D01*
X37262087Y-90972237D01*
X37251757Y-90989094D01*
X37245102Y-90998253D01*
X37245100Y-90998256D01*
X37239273Y-91006277D01*
X37233215Y-91024922D01*
X37232711Y-91026474D01*
X37225143Y-91044744D01*
X37220004Y-91054829D01*
X37220002Y-91054834D01*
X37215501Y-91063668D01*
X37213950Y-91073461D01*
X37213949Y-91073464D01*
X37212178Y-91084649D01*
X37207562Y-91103876D01*
X37201000Y-91124072D01*
X37201000Y-101788928D01*
X37204065Y-101798360D01*
X37204065Y-101798362D01*
X37207562Y-101809124D01*
X37212178Y-101828351D01*
X37213949Y-101839536D01*
X37213950Y-101839539D01*
X37215501Y-101849332D01*
X37220002Y-101858166D01*
X37220004Y-101858171D01*
X37225143Y-101868256D01*
X37232711Y-101886526D01*
X37239273Y-101906723D01*
X37245100Y-101914744D01*
X37245102Y-101914747D01*
X37251757Y-101923906D01*
X37262087Y-101940763D01*
X37271731Y-101959689D01*
X37359311Y-102047269D01*
X37359313Y-102047270D01*
X39430730Y-104118687D01*
X39430731Y-104118689D01*
X39518311Y-104206269D01*
X39527147Y-104210772D01*
X39527148Y-104210772D01*
X39537237Y-104215913D01*
X39554094Y-104226243D01*
X39563253Y-104232898D01*
X39563256Y-104232900D01*
X39571277Y-104238727D01*
X39589922Y-104244785D01*
X39591474Y-104245289D01*
X39609744Y-104252857D01*
X39619829Y-104257996D01*
X39619834Y-104257998D01*
X39628668Y-104262499D01*
X39638461Y-104264050D01*
X39638464Y-104264051D01*
X39649649Y-104265822D01*
X39668876Y-104270438D01*
X39679638Y-104273935D01*
X39679640Y-104273935D01*
X39689072Y-104277000D01*
X56787055Y-104277000D01*
X56796487Y-104273935D01*
X56796489Y-104273935D01*
X56807251Y-104270438D01*
X56826478Y-104265822D01*
X56837663Y-104264051D01*
X56837666Y-104264050D01*
X56847459Y-104262499D01*
X56856293Y-104257998D01*
X56856298Y-104257996D01*
X56866383Y-104252857D01*
X56884653Y-104245289D01*
X56886205Y-104244785D01*
X56904850Y-104238727D01*
X56912871Y-104232900D01*
X56912874Y-104232898D01*
X56922033Y-104226243D01*
X56938890Y-104215913D01*
X56948979Y-104210772D01*
X56948980Y-104210772D01*
X56957816Y-104206269D01*
X57045396Y-104118689D01*
X57045397Y-104118687D01*
X58782971Y-102381113D01*
X58845283Y-102347087D01*
X58911002Y-102350375D01*
X59021406Y-102386248D01*
X59021410Y-102386249D01*
X59027264Y-102388151D01*
X59231829Y-102412543D01*
X59237964Y-102412071D01*
X59237966Y-102412071D01*
X59293974Y-102407761D01*
X59437235Y-102396738D01*
X59443165Y-102395082D01*
X59443167Y-102395082D01*
X59603289Y-102350375D01*
X59635660Y-102341337D01*
X59641149Y-102338564D01*
X59641155Y-102338562D01*
X59814051Y-102251225D01*
X59819545Y-102248450D01*
X59981886Y-102121616D01*
X60030035Y-102065835D01*
X60112475Y-101970326D01*
X60112475Y-101970325D01*
X60116499Y-101965664D01*
X60119894Y-101959689D01*
X60170539Y-101870536D01*
X60218258Y-101786536D01*
X60283286Y-101591055D01*
X60309106Y-101386666D01*
X60309518Y-101357192D01*
X60289415Y-101152162D01*
X60229870Y-100954941D01*
X60133153Y-100773041D01*
X60045171Y-100665165D01*
X60006841Y-100618167D01*
X60006838Y-100618164D01*
X60002946Y-100613392D01*
X59982596Y-100596557D01*
X59848960Y-100486003D01*
X59848956Y-100486001D01*
X59844210Y-100482074D01*
X59662990Y-100384089D01*
X59466189Y-100323169D01*
X59460064Y-100322525D01*
X59460063Y-100322525D01*
X59267433Y-100302279D01*
X59267431Y-100302279D01*
X59261304Y-100301635D01*
X59174464Y-100309538D01*
X59062277Y-100319747D01*
X59062274Y-100319748D01*
X59056138Y-100320306D01*
X58858507Y-100378472D01*
X58675937Y-100473918D01*
X58671136Y-100477778D01*
X58671133Y-100477780D01*
X58600539Y-100534539D01*
X58515382Y-100603007D01*
X58382959Y-100760822D01*
X58379991Y-100766220D01*
X58379988Y-100766225D01*
X58346857Y-100826491D01*
X58283711Y-100941354D01*
X58221419Y-101137724D01*
X58220733Y-101143841D01*
X58220732Y-101143845D01*
X58214722Y-101197426D01*
X58198455Y-101342454D01*
X58198971Y-101348598D01*
X58211917Y-101502762D01*
X58215694Y-101547745D01*
X58253311Y-101678929D01*
X58260916Y-101705452D01*
X58260465Y-101776447D01*
X58228892Y-101829277D01*
X56600075Y-103458095D01*
X56537763Y-103492120D01*
X56510980Y-103495000D01*
X41451974Y-103495000D01*
X41383853Y-103474998D01*
X41337360Y-103421342D01*
X41327256Y-103351068D01*
X41356750Y-103286488D01*
X41365401Y-103277452D01*
X41464049Y-103184165D01*
X41464051Y-103184163D01*
X41469007Y-103179476D01*
X41572875Y-103026640D01*
X41605139Y-102945975D01*
X41638966Y-102861402D01*
X41638967Y-102861397D01*
X41641500Y-102855065D01*
X41671681Y-102672756D01*
X41666323Y-102570506D01*
X41662367Y-102495032D01*
X41662010Y-102488219D01*
X41641166Y-102412543D01*
X41614751Y-102316646D01*
X41612938Y-102310064D01*
X41526754Y-102146602D01*
X41511448Y-102128489D01*
X41482755Y-102063549D01*
X41493727Y-101993406D01*
X41540880Y-101940329D01*
X41559467Y-101930752D01*
X41617478Y-101906723D01*
X41704841Y-101870536D01*
X41830282Y-101774282D01*
X41871323Y-101720796D01*
X41928661Y-101678929D01*
X41971286Y-101671500D01*
X42483714Y-101671500D01*
X42551835Y-101691502D01*
X42583677Y-101720796D01*
X42624718Y-101774282D01*
X42750159Y-101870536D01*
X42896238Y-101931044D01*
X42904426Y-101932122D01*
X42964577Y-101940041D01*
X43053000Y-101951682D01*
X43061188Y-101950604D01*
X43201574Y-101932122D01*
X43209762Y-101931044D01*
X43355841Y-101870536D01*
X43481282Y-101774282D01*
X43577536Y-101648841D01*
X43638044Y-101502762D01*
X43658682Y-101346000D01*
X43658215Y-101342454D01*
X55658455Y-101342454D01*
X55658971Y-101348598D01*
X55671917Y-101502762D01*
X55675694Y-101547745D01*
X55677393Y-101553670D01*
X55725316Y-101720796D01*
X55732479Y-101745778D01*
X55735294Y-101751255D01*
X55735295Y-101751258D01*
X55815193Y-101906723D01*
X55826647Y-101929010D01*
X55954612Y-102090462D01*
X56111499Y-102223983D01*
X56291333Y-102324489D01*
X56371002Y-102350375D01*
X56481406Y-102386248D01*
X56481410Y-102386249D01*
X56487264Y-102388151D01*
X56691829Y-102412543D01*
X56697964Y-102412071D01*
X56697966Y-102412071D01*
X56753974Y-102407761D01*
X56897235Y-102396738D01*
X56903165Y-102395082D01*
X56903167Y-102395082D01*
X57063289Y-102350375D01*
X57095660Y-102341337D01*
X57101149Y-102338564D01*
X57101155Y-102338562D01*
X57274051Y-102251225D01*
X57279545Y-102248450D01*
X57441886Y-102121616D01*
X57490035Y-102065835D01*
X57572475Y-101970326D01*
X57572475Y-101970325D01*
X57576499Y-101965664D01*
X57579894Y-101959689D01*
X57630539Y-101870536D01*
X57678258Y-101786536D01*
X57743286Y-101591055D01*
X57769106Y-101386666D01*
X57769518Y-101357192D01*
X57749415Y-101152162D01*
X57689870Y-100954941D01*
X57593153Y-100773041D01*
X57505171Y-100665165D01*
X57466841Y-100618167D01*
X57466838Y-100618164D01*
X57462946Y-100613392D01*
X57442596Y-100596557D01*
X57308960Y-100486003D01*
X57308956Y-100486001D01*
X57304210Y-100482074D01*
X57122990Y-100384089D01*
X56926189Y-100323169D01*
X56920064Y-100322525D01*
X56920063Y-100322525D01*
X56727433Y-100302279D01*
X56727431Y-100302279D01*
X56721304Y-100301635D01*
X56634464Y-100309538D01*
X56522277Y-100319747D01*
X56522274Y-100319748D01*
X56516138Y-100320306D01*
X56318507Y-100378472D01*
X56135937Y-100473918D01*
X56131136Y-100477778D01*
X56131133Y-100477780D01*
X56060539Y-100534539D01*
X55975382Y-100603007D01*
X55842959Y-100760822D01*
X55839991Y-100766220D01*
X55839988Y-100766225D01*
X55806857Y-100826491D01*
X55743711Y-100941354D01*
X55681419Y-101137724D01*
X55680733Y-101143841D01*
X55680732Y-101143845D01*
X55674722Y-101197426D01*
X55658455Y-101342454D01*
X43658215Y-101342454D01*
X43638044Y-101189238D01*
X43577536Y-101043159D01*
X43503925Y-100947227D01*
X43486305Y-100924264D01*
X43481282Y-100917718D01*
X43355841Y-100821464D01*
X43227407Y-100768265D01*
X43217391Y-100764116D01*
X43209762Y-100760956D01*
X43053000Y-100740318D01*
X42896238Y-100760956D01*
X42888609Y-100764116D01*
X42878593Y-100768265D01*
X42750159Y-100821464D01*
X42624718Y-100917718D01*
X42619695Y-100924264D01*
X42583677Y-100971204D01*
X42526339Y-101013071D01*
X42483714Y-101020500D01*
X41971286Y-101020500D01*
X41903165Y-101000498D01*
X41871323Y-100971204D01*
X41835305Y-100924264D01*
X41830282Y-100917718D01*
X41704841Y-100821464D01*
X41576407Y-100768265D01*
X41566391Y-100764116D01*
X41558762Y-100760956D01*
X41402000Y-100740318D01*
X41245238Y-100760956D01*
X41237609Y-100764116D01*
X41227593Y-100768265D01*
X41099159Y-100821464D01*
X40973718Y-100917718D01*
X40968695Y-100924264D01*
X40951075Y-100947227D01*
X40877464Y-101043159D01*
X40816956Y-101189238D01*
X40796318Y-101346000D01*
X40816956Y-101502762D01*
X40820116Y-101510391D01*
X40858365Y-101602732D01*
X40865954Y-101673322D01*
X40834175Y-101736809D01*
X40773117Y-101773036D01*
X40755564Y-101776213D01*
X40660797Y-101786508D01*
X40633791Y-101789442D01*
X40458652Y-101848383D01*
X40300256Y-101943557D01*
X40295296Y-101948248D01*
X40295294Y-101948249D01*
X40173369Y-102063549D01*
X40165993Y-102070524D01*
X40062125Y-102223360D01*
X40059592Y-102229694D01*
X40059590Y-102229697D01*
X39996034Y-102388598D01*
X39996033Y-102388603D01*
X39993500Y-102394935D01*
X39963319Y-102577244D01*
X39963676Y-102584061D01*
X39963676Y-102584065D01*
X39971802Y-102739111D01*
X39972990Y-102761781D01*
X39974801Y-102768354D01*
X39974801Y-102768357D01*
X40000430Y-102861402D01*
X40022062Y-102939936D01*
X40108246Y-103103398D01*
X40227520Y-103244540D01*
X40232944Y-103248687D01*
X40232945Y-103248688D01*
X40259387Y-103268904D01*
X40301355Y-103326168D01*
X40305700Y-103397032D01*
X40271044Y-103458995D01*
X40208390Y-103492386D01*
X40182858Y-103495000D01*
X39965147Y-103495000D01*
X39897026Y-103474998D01*
X39876052Y-103458095D01*
X38019905Y-101601948D01*
X37985879Y-101539636D01*
X37983000Y-101512853D01*
X37983000Y-98370996D01*
X39433314Y-98370996D01*
X39443023Y-98580767D01*
X39444427Y-98586592D01*
X39444427Y-98586593D01*
X39489405Y-98773219D01*
X39492224Y-98784918D01*
X39494706Y-98790376D01*
X39494707Y-98790380D01*
X39537820Y-98885201D01*
X39579140Y-98976081D01*
X39700637Y-99147360D01*
X39852331Y-99292575D01*
X39857366Y-99295826D01*
X40023709Y-99403233D01*
X40023712Y-99403234D01*
X40028746Y-99406485D01*
X40034309Y-99408727D01*
X40217955Y-99482739D01*
X40217958Y-99482740D01*
X40223519Y-99484981D01*
X40229400Y-99486129D01*
X40229405Y-99486131D01*
X40425176Y-99524362D01*
X40425179Y-99524362D01*
X40429622Y-99525230D01*
X40435143Y-99525500D01*
X40589969Y-99525500D01*
X40592941Y-99525216D01*
X40592950Y-99525216D01*
X40628226Y-99521850D01*
X40659518Y-99518864D01*
X40695630Y-99520630D01*
X40773270Y-99535792D01*
X40842725Y-99549356D01*
X40842728Y-99549356D01*
X40847171Y-99550224D01*
X40852814Y-99550500D01*
X41011164Y-99550500D01*
X41171295Y-99535222D01*
X41177051Y-99533533D01*
X41177053Y-99533533D01*
X41338632Y-99486131D01*
X41377376Y-99474765D01*
X41422651Y-99451447D01*
X41562976Y-99379175D01*
X41562979Y-99379173D01*
X41568307Y-99376429D01*
X41737198Y-99243763D01*
X41877955Y-99081554D01*
X41985501Y-98895655D01*
X42055953Y-98692774D01*
X42056816Y-98686826D01*
X42085909Y-98486171D01*
X42085909Y-98486168D01*
X42086770Y-98480231D01*
X42086394Y-98472108D01*
X43788570Y-98472108D01*
X43788933Y-98476256D01*
X43788933Y-98476260D01*
X43814191Y-98764964D01*
X43814192Y-98764972D01*
X43814556Y-98769130D01*
X43815470Y-98773219D01*
X43863614Y-98988600D01*
X43879597Y-99060105D01*
X43881041Y-99064030D01*
X43881042Y-99064033D01*
X43915941Y-99158884D01*
X43982550Y-99339923D01*
X43984497Y-99343616D01*
X43984498Y-99343618D01*
X44001797Y-99376429D01*
X44121606Y-99603666D01*
X44294322Y-99846701D01*
X44297166Y-99849751D01*
X44297171Y-99849757D01*
X44494814Y-100061703D01*
X44497664Y-100064759D01*
X44728059Y-100254008D01*
X44981460Y-100411123D01*
X44985272Y-100412836D01*
X45249597Y-100531629D01*
X45249603Y-100531631D01*
X45253414Y-100533344D01*
X45257420Y-100534538D01*
X45257422Y-100534539D01*
X45396279Y-100575934D01*
X45539144Y-100618523D01*
X45833629Y-100665165D01*
X45878901Y-100667221D01*
X45925469Y-100669336D01*
X45925488Y-100669336D01*
X45926888Y-100669400D01*
X46113125Y-100669400D01*
X46335001Y-100654663D01*
X46627274Y-100595730D01*
X46909186Y-100498660D01*
X46912919Y-100496791D01*
X46912923Y-100496789D01*
X47172040Y-100367033D01*
X47172042Y-100367032D01*
X47175784Y-100365158D01*
X47422383Y-100197570D01*
X47644651Y-99998839D01*
X47752900Y-99872543D01*
X47835964Y-99775631D01*
X47835967Y-99775627D01*
X47838684Y-99772457D01*
X47840958Y-99768955D01*
X47840962Y-99768950D01*
X47998792Y-99525913D01*
X47998795Y-99525908D01*
X48001071Y-99522403D01*
X48034764Y-99451447D01*
X48070385Y-99376429D01*
X48128961Y-99253068D01*
X48132938Y-99240683D01*
X48218826Y-98973172D01*
X48218826Y-98973171D01*
X48220106Y-98969185D01*
X48250105Y-98802454D01*
X48272165Y-98679850D01*
X48272166Y-98679845D01*
X48272904Y-98675741D01*
X48275792Y-98612162D01*
X48286241Y-98382062D01*
X48286241Y-98382056D01*
X48286430Y-98377892D01*
X48285827Y-98370996D01*
X48285720Y-98369769D01*
X49988230Y-98369769D01*
X49998159Y-98584306D01*
X50048478Y-98793094D01*
X50050960Y-98798552D01*
X50050961Y-98798556D01*
X50097471Y-98900849D01*
X50137369Y-98988600D01*
X50192962Y-99066971D01*
X50249986Y-99147360D01*
X50261626Y-99163770D01*
X50265949Y-99167909D01*
X50265953Y-99167913D01*
X50353686Y-99251899D01*
X50416765Y-99312284D01*
X50597189Y-99428782D01*
X50796387Y-99509061D01*
X50884878Y-99526342D01*
X51002725Y-99549356D01*
X51002728Y-99549356D01*
X51007171Y-99550224D01*
X51012814Y-99550500D01*
X51171164Y-99550500D01*
X51331295Y-99535222D01*
X51340087Y-99532643D01*
X51361566Y-99526342D01*
X51421179Y-99523582D01*
X51425157Y-99524359D01*
X51425170Y-99524361D01*
X51429622Y-99525230D01*
X51435143Y-99525500D01*
X51589969Y-99525500D01*
X51746546Y-99510561D01*
X51752302Y-99508872D01*
X51752304Y-99508872D01*
X51877918Y-99472021D01*
X51948049Y-99451447D01*
X52079912Y-99383533D01*
X52129408Y-99358041D01*
X52129411Y-99358039D01*
X52134739Y-99355295D01*
X52210447Y-99295826D01*
X52295162Y-99229282D01*
X52295167Y-99229278D01*
X52299879Y-99225576D01*
X52357752Y-99158884D01*
X52433579Y-99071502D01*
X52433583Y-99071497D01*
X52437510Y-99066971D01*
X52542666Y-98885201D01*
X52571400Y-98802454D01*
X55658455Y-98802454D01*
X55658971Y-98808598D01*
X55674497Y-98993487D01*
X55675694Y-99007745D01*
X55677393Y-99013670D01*
X55716916Y-99151502D01*
X55732479Y-99205778D01*
X55735294Y-99211255D01*
X55735295Y-99211258D01*
X55823832Y-99383533D01*
X55826647Y-99389010D01*
X55954612Y-99550462D01*
X55959305Y-99554456D01*
X55959306Y-99554457D01*
X56021128Y-99607071D01*
X56111499Y-99683983D01*
X56291333Y-99784489D01*
X56386173Y-99815304D01*
X56481406Y-99846248D01*
X56481410Y-99846249D01*
X56487264Y-99848151D01*
X56691829Y-99872543D01*
X56697964Y-99872071D01*
X56697966Y-99872071D01*
X56753974Y-99867761D01*
X56897235Y-99856738D01*
X56903165Y-99855082D01*
X56903167Y-99855082D01*
X57089732Y-99802992D01*
X57089731Y-99802992D01*
X57095660Y-99801337D01*
X57101149Y-99798564D01*
X57101155Y-99798562D01*
X57274051Y-99711225D01*
X57279545Y-99708450D01*
X57441886Y-99581616D01*
X57468745Y-99550500D01*
X57572475Y-99430326D01*
X57572475Y-99430325D01*
X57576499Y-99425664D01*
X57597322Y-99389010D01*
X57640908Y-99312284D01*
X57678258Y-99246536D01*
X57743286Y-99051055D01*
X57769106Y-98846666D01*
X57769518Y-98817192D01*
X57749415Y-98612162D01*
X57689870Y-98414941D01*
X57593153Y-98233041D01*
X57469045Y-98080870D01*
X57466841Y-98078167D01*
X57466838Y-98078164D01*
X57462946Y-98073392D01*
X57443018Y-98056906D01*
X57308960Y-97946003D01*
X57308956Y-97946001D01*
X57304210Y-97942074D01*
X57122990Y-97844089D01*
X56926189Y-97783169D01*
X56920064Y-97782525D01*
X56920063Y-97782525D01*
X56727433Y-97762279D01*
X56727431Y-97762279D01*
X56721304Y-97761635D01*
X56634464Y-97769538D01*
X56522277Y-97779747D01*
X56522274Y-97779748D01*
X56516138Y-97780306D01*
X56318507Y-97838472D01*
X56135937Y-97933918D01*
X56131136Y-97937778D01*
X56131133Y-97937780D01*
X55982970Y-98056906D01*
X55975382Y-98063007D01*
X55842959Y-98220822D01*
X55839991Y-98226220D01*
X55839988Y-98226225D01*
X55756609Y-98377892D01*
X55743711Y-98401354D01*
X55681419Y-98597724D01*
X55680733Y-98603841D01*
X55680732Y-98603845D01*
X55670122Y-98698438D01*
X55658455Y-98802454D01*
X52571400Y-98802454D01*
X52611553Y-98686826D01*
X52612414Y-98680889D01*
X52640825Y-98484944D01*
X52640825Y-98484941D01*
X52641686Y-98479004D01*
X52631977Y-98269233D01*
X52585930Y-98078167D01*
X52584182Y-98070915D01*
X52584181Y-98070913D01*
X52582776Y-98065082D01*
X52580076Y-98059142D01*
X52498340Y-97879374D01*
X52495860Y-97873919D01*
X52374363Y-97702640D01*
X52222669Y-97557425D01*
X52125533Y-97494705D01*
X52051291Y-97446767D01*
X52051288Y-97446766D01*
X52046254Y-97443515D01*
X51999000Y-97424471D01*
X51857045Y-97367261D01*
X51857042Y-97367260D01*
X51851481Y-97365019D01*
X51845600Y-97363871D01*
X51845595Y-97363869D01*
X51649824Y-97325638D01*
X51649821Y-97325638D01*
X51645378Y-97324770D01*
X51639857Y-97324500D01*
X51485031Y-97324500D01*
X51482059Y-97324784D01*
X51482050Y-97324784D01*
X51452572Y-97327597D01*
X51415482Y-97331136D01*
X51379370Y-97329370D01*
X51280697Y-97310100D01*
X51232275Y-97300644D01*
X51232272Y-97300644D01*
X51227829Y-97299776D01*
X51222186Y-97299500D01*
X51063836Y-97299500D01*
X50903705Y-97314778D01*
X50897949Y-97316467D01*
X50897947Y-97316467D01*
X50819643Y-97339439D01*
X50697624Y-97375235D01*
X50692297Y-97377979D01*
X50692296Y-97377979D01*
X50512024Y-97470825D01*
X50512021Y-97470827D01*
X50506693Y-97473571D01*
X50337802Y-97606237D01*
X50197045Y-97768446D01*
X50194045Y-97773631D01*
X50194044Y-97773633D01*
X50157540Y-97836732D01*
X50089499Y-97954345D01*
X50019047Y-98157226D01*
X50018187Y-98163159D01*
X50018186Y-98163162D01*
X50001938Y-98275223D01*
X49988230Y-98369769D01*
X48285720Y-98369769D01*
X48260809Y-98085036D01*
X48260808Y-98085028D01*
X48260444Y-98080870D01*
X48233429Y-97960013D01*
X48196317Y-97793983D01*
X48196316Y-97793980D01*
X48195403Y-97789895D01*
X48192929Y-97783169D01*
X48134980Y-97625670D01*
X48092450Y-97510077D01*
X48082898Y-97491959D01*
X47982028Y-97300644D01*
X47953394Y-97246334D01*
X47780678Y-97003299D01*
X47777834Y-97000249D01*
X47777829Y-97000243D01*
X47580186Y-96788297D01*
X47580184Y-96788295D01*
X47577336Y-96785241D01*
X47346941Y-96595992D01*
X47093540Y-96438877D01*
X46902925Y-96353211D01*
X46825403Y-96318371D01*
X46825397Y-96318369D01*
X46821586Y-96316656D01*
X46817580Y-96315462D01*
X46817578Y-96315461D01*
X46651662Y-96266000D01*
X52861318Y-96266000D01*
X52881956Y-96422762D01*
X52885116Y-96430391D01*
X52888631Y-96438877D01*
X52942464Y-96568841D01*
X53038718Y-96694282D01*
X53164159Y-96790536D01*
X53310238Y-96851044D01*
X53318426Y-96852122D01*
X53335213Y-96854332D01*
X53467000Y-96871682D01*
X53475188Y-96870604D01*
X53615574Y-96852122D01*
X53623762Y-96851044D01*
X53769841Y-96790536D01*
X53895282Y-96694282D01*
X53900305Y-96687736D01*
X53900308Y-96687733D01*
X53927735Y-96651989D01*
X53985073Y-96610121D01*
X54027698Y-96602692D01*
X55623146Y-96602692D01*
X55691267Y-96622694D01*
X55735213Y-96671098D01*
X55798220Y-96793696D01*
X55826647Y-96849010D01*
X55954612Y-97010462D01*
X55959305Y-97014456D01*
X55959306Y-97014457D01*
X56029703Y-97074369D01*
X56111499Y-97143983D01*
X56291333Y-97244489D01*
X56386173Y-97275305D01*
X56481406Y-97306248D01*
X56481410Y-97306249D01*
X56487264Y-97308151D01*
X56691829Y-97332543D01*
X56697964Y-97332071D01*
X56697966Y-97332071D01*
X56753974Y-97327761D01*
X56897235Y-97316738D01*
X56903165Y-97315082D01*
X56903167Y-97315082D01*
X57089732Y-97262992D01*
X57089731Y-97262992D01*
X57095660Y-97261337D01*
X57101149Y-97258564D01*
X57101155Y-97258562D01*
X57241579Y-97187628D01*
X57279545Y-97168450D01*
X57303519Y-97149720D01*
X57360715Y-97105033D01*
X57441886Y-97041616D01*
X57463048Y-97017100D01*
X57572475Y-96890326D01*
X57572475Y-96890325D01*
X57576499Y-96885664D01*
X57582357Y-96875353D01*
X57660380Y-96738007D01*
X57711419Y-96688656D01*
X57781037Y-96674734D01*
X57847131Y-96700660D01*
X57888716Y-96758203D01*
X57895936Y-96800244D01*
X57895936Y-97171861D01*
X57896306Y-97178682D01*
X57901830Y-97229544D01*
X57905456Y-97244796D01*
X57950611Y-97365246D01*
X57959149Y-97380841D01*
X58035650Y-97482916D01*
X58048211Y-97495477D01*
X58150286Y-97571978D01*
X58165881Y-97580516D01*
X58286329Y-97625670D01*
X58301584Y-97629297D01*
X58352449Y-97634823D01*
X58359263Y-97635192D01*
X58734367Y-97635192D01*
X58802488Y-97655194D01*
X58848981Y-97708850D01*
X58859085Y-97779124D01*
X58829591Y-97843704D01*
X58792747Y-97872851D01*
X58675937Y-97933918D01*
X58671136Y-97937778D01*
X58671133Y-97937780D01*
X58522970Y-98056906D01*
X58515382Y-98063007D01*
X58382959Y-98220822D01*
X58379991Y-98226220D01*
X58379988Y-98226225D01*
X58296609Y-98377892D01*
X58283711Y-98401354D01*
X58221419Y-98597724D01*
X58220733Y-98603841D01*
X58220732Y-98603845D01*
X58210122Y-98698438D01*
X58198455Y-98802454D01*
X58198971Y-98808598D01*
X58214497Y-98993487D01*
X58215694Y-99007745D01*
X58217393Y-99013670D01*
X58256916Y-99151502D01*
X58272479Y-99205778D01*
X58275294Y-99211255D01*
X58275295Y-99211258D01*
X58363832Y-99383533D01*
X58366647Y-99389010D01*
X58494612Y-99550462D01*
X58499305Y-99554456D01*
X58499306Y-99554457D01*
X58561128Y-99607071D01*
X58651499Y-99683983D01*
X58831333Y-99784489D01*
X58926173Y-99815304D01*
X59021406Y-99846248D01*
X59021410Y-99846249D01*
X59027264Y-99848151D01*
X59231829Y-99872543D01*
X59237964Y-99872071D01*
X59237966Y-99872071D01*
X59293974Y-99867761D01*
X59437235Y-99856738D01*
X59443165Y-99855082D01*
X59443167Y-99855082D01*
X59629732Y-99802992D01*
X59629731Y-99802992D01*
X59635660Y-99801337D01*
X59641149Y-99798564D01*
X59641155Y-99798562D01*
X59814051Y-99711225D01*
X59819545Y-99708450D01*
X59981886Y-99581616D01*
X60008745Y-99550500D01*
X60112475Y-99430326D01*
X60112475Y-99430325D01*
X60116499Y-99425664D01*
X60137322Y-99389010D01*
X60180908Y-99312284D01*
X60218258Y-99246536D01*
X60283286Y-99051055D01*
X60309106Y-98846666D01*
X60309518Y-98817192D01*
X60289415Y-98612162D01*
X60229870Y-98414941D01*
X60133153Y-98233041D01*
X60009045Y-98080870D01*
X60006841Y-98078167D01*
X60006838Y-98078164D01*
X60002946Y-98073392D01*
X59983018Y-98056906D01*
X59848960Y-97946003D01*
X59848956Y-97946001D01*
X59844210Y-97942074D01*
X59806187Y-97921515D01*
X59714661Y-97872027D01*
X59664252Y-97822032D01*
X59648875Y-97752721D01*
X59673411Y-97686099D01*
X59730071Y-97643318D01*
X59774590Y-97635191D01*
X60148604Y-97635191D01*
X60155425Y-97634821D01*
X60206287Y-97629297D01*
X60221539Y-97625671D01*
X60341989Y-97580516D01*
X60357584Y-97571978D01*
X60459659Y-97495477D01*
X60472220Y-97482916D01*
X60548721Y-97380841D01*
X60557259Y-97365246D01*
X60602413Y-97244798D01*
X60606040Y-97229543D01*
X60611566Y-97178678D01*
X60611935Y-97171864D01*
X60611935Y-96549307D01*
X60607460Y-96534068D01*
X60606070Y-96532863D01*
X60598387Y-96531192D01*
X59125935Y-96531192D01*
X59057814Y-96511190D01*
X59011321Y-96457534D01*
X58999935Y-96405192D01*
X58999935Y-96005077D01*
X59507935Y-96005077D01*
X59512410Y-96020316D01*
X59513800Y-96021521D01*
X59521483Y-96023192D01*
X60593819Y-96023192D01*
X60609058Y-96018717D01*
X60610263Y-96017327D01*
X60611934Y-96009644D01*
X60611934Y-95382523D01*
X60611564Y-95375702D01*
X60606040Y-95324840D01*
X60602414Y-95309588D01*
X60557259Y-95189138D01*
X60548721Y-95173543D01*
X60472220Y-95071468D01*
X60459659Y-95058907D01*
X60357584Y-94982406D01*
X60341989Y-94973868D01*
X60221541Y-94928714D01*
X60206286Y-94925087D01*
X60155421Y-94919561D01*
X60148607Y-94919192D01*
X59526050Y-94919192D01*
X59510811Y-94923667D01*
X59509606Y-94925057D01*
X59507935Y-94932740D01*
X59507935Y-96005077D01*
X58999935Y-96005077D01*
X58999935Y-94937308D01*
X58995460Y-94922069D01*
X58994070Y-94920864D01*
X58986387Y-94919193D01*
X58359266Y-94919193D01*
X58352445Y-94919563D01*
X58301583Y-94925087D01*
X58286331Y-94928713D01*
X58165881Y-94973868D01*
X58150286Y-94982406D01*
X58048211Y-95058907D01*
X58035650Y-95071468D01*
X57959149Y-95173543D01*
X57950611Y-95189138D01*
X57905457Y-95309586D01*
X57901830Y-95324841D01*
X57896304Y-95375706D01*
X57895935Y-95382520D01*
X57895935Y-95757134D01*
X57875933Y-95825255D01*
X57822277Y-95871748D01*
X57752003Y-95881852D01*
X57687423Y-95852358D01*
X57658683Y-95816287D01*
X57647618Y-95795475D01*
X57593153Y-95693041D01*
X57488862Y-95565168D01*
X57466841Y-95538167D01*
X57466838Y-95538164D01*
X57462946Y-95533392D01*
X57311376Y-95408002D01*
X57308960Y-95406003D01*
X57308956Y-95406001D01*
X57304210Y-95402074D01*
X57122990Y-95304089D01*
X56926189Y-95243169D01*
X56920064Y-95242525D01*
X56920063Y-95242525D01*
X56727433Y-95222279D01*
X56727431Y-95222279D01*
X56721304Y-95221635D01*
X56634464Y-95229538D01*
X56522277Y-95239747D01*
X56522274Y-95239748D01*
X56516138Y-95240306D01*
X56318507Y-95298472D01*
X56135937Y-95393918D01*
X56131136Y-95397778D01*
X56131133Y-95397780D01*
X55980189Y-95519142D01*
X55975382Y-95523007D01*
X55842959Y-95680822D01*
X55839991Y-95686220D01*
X55839988Y-95686225D01*
X55761958Y-95828162D01*
X55743711Y-95861354D01*
X55741849Y-95867223D01*
X55739420Y-95872891D01*
X55737393Y-95872022D01*
X55703277Y-95922673D01*
X55638075Y-95950767D01*
X55622836Y-95951692D01*
X54044874Y-95951692D01*
X53976753Y-95931690D01*
X53944911Y-95902396D01*
X53900305Y-95844264D01*
X53895282Y-95837718D01*
X53769841Y-95741464D01*
X53637919Y-95686820D01*
X53631391Y-95684116D01*
X53623762Y-95680956D01*
X53467000Y-95660318D01*
X53310238Y-95680956D01*
X53302609Y-95684116D01*
X53296081Y-95686820D01*
X53164159Y-95741464D01*
X53038718Y-95837718D01*
X53033695Y-95844264D01*
X53012606Y-95871748D01*
X52942464Y-95963159D01*
X52881956Y-96109238D01*
X52861318Y-96266000D01*
X46651662Y-96266000D01*
X46609540Y-96253443D01*
X46535856Y-96231477D01*
X46241371Y-96184835D01*
X46196099Y-96182779D01*
X46149531Y-96180664D01*
X46149512Y-96180664D01*
X46148112Y-96180600D01*
X45961875Y-96180600D01*
X45739999Y-96195337D01*
X45447726Y-96254270D01*
X45165814Y-96351340D01*
X45162081Y-96353209D01*
X45162077Y-96353211D01*
X44953749Y-96457534D01*
X44899216Y-96484842D01*
X44652617Y-96652430D01*
X44430349Y-96851161D01*
X44427632Y-96854331D01*
X44427631Y-96854332D01*
X44255019Y-97055722D01*
X44236316Y-97077543D01*
X44234042Y-97081045D01*
X44234038Y-97081050D01*
X44080674Y-97317210D01*
X44073929Y-97327597D01*
X44072135Y-97331376D01*
X44072134Y-97331377D01*
X44038934Y-97401297D01*
X43946039Y-97596932D01*
X43944760Y-97600915D01*
X43944759Y-97600918D01*
X43857450Y-97872854D01*
X43854894Y-97880815D01*
X43845853Y-97931066D01*
X43804093Y-98163162D01*
X43802096Y-98174259D01*
X43801907Y-98178426D01*
X43801906Y-98178433D01*
X43792659Y-98382062D01*
X43788570Y-98472108D01*
X42086394Y-98472108D01*
X42076841Y-98265694D01*
X42068972Y-98233041D01*
X42027928Y-98062740D01*
X42026522Y-98056906D01*
X41979891Y-97954345D01*
X41945803Y-97879374D01*
X41937631Y-97861400D01*
X41828480Y-97707526D01*
X41816840Y-97691116D01*
X41816839Y-97691115D01*
X41813374Y-97686230D01*
X41809051Y-97682091D01*
X41809047Y-97682087D01*
X41662565Y-97541861D01*
X41662564Y-97541861D01*
X41658235Y-97537716D01*
X41477811Y-97421218D01*
X41278613Y-97340939D01*
X41144650Y-97314778D01*
X41072275Y-97300644D01*
X41072272Y-97300644D01*
X41067829Y-97299776D01*
X41062186Y-97299500D01*
X40903836Y-97299500D01*
X40743705Y-97314778D01*
X40737947Y-97316467D01*
X40737948Y-97316467D01*
X40713434Y-97323658D01*
X40653821Y-97326418D01*
X40649843Y-97325641D01*
X40649830Y-97325639D01*
X40645378Y-97324770D01*
X40639857Y-97324500D01*
X40485031Y-97324500D01*
X40328454Y-97339439D01*
X40322698Y-97341128D01*
X40322696Y-97341128D01*
X40245179Y-97363869D01*
X40126951Y-97398553D01*
X40044005Y-97441273D01*
X39945592Y-97491959D01*
X39945589Y-97491961D01*
X39940261Y-97494705D01*
X39920692Y-97510077D01*
X39779838Y-97620718D01*
X39779833Y-97620722D01*
X39775121Y-97624424D01*
X39771190Y-97628954D01*
X39771189Y-97628955D01*
X39641421Y-97778498D01*
X39641417Y-97778503D01*
X39637490Y-97783029D01*
X39532334Y-97964799D01*
X39463447Y-98163174D01*
X39462586Y-98169109D01*
X39462586Y-98169111D01*
X39447201Y-98275223D01*
X39433314Y-98370996D01*
X37983000Y-98370996D01*
X37983000Y-95840885D01*
X40897669Y-95840885D01*
X40902099Y-95922673D01*
X40907543Y-96023192D01*
X40910212Y-96072478D01*
X40962779Y-96298374D01*
X41053775Y-96511711D01*
X41056777Y-96516316D01*
X41056778Y-96516318D01*
X41176949Y-96700660D01*
X41180433Y-96706005D01*
X41184192Y-96710022D01*
X41335148Y-96871337D01*
X41335153Y-96871342D01*
X41338907Y-96875353D01*
X41343305Y-96878655D01*
X41343307Y-96878657D01*
X41519979Y-97011307D01*
X41519982Y-97011309D01*
X41524380Y-97014611D01*
X41585079Y-97045405D01*
X41726313Y-97117057D01*
X41726317Y-97117059D01*
X41731216Y-97119544D01*
X41736473Y-97121141D01*
X41736475Y-97121142D01*
X41947871Y-97185369D01*
X41947875Y-97185370D01*
X41953132Y-97186967D01*
X42183385Y-97214831D01*
X42283967Y-97209384D01*
X42409484Y-97202586D01*
X42409489Y-97202585D01*
X42414978Y-97202288D01*
X42640875Y-97149720D01*
X42717453Y-97117057D01*
X42849152Y-97060883D01*
X42849154Y-97060882D01*
X42854211Y-97058725D01*
X42874644Y-97045405D01*
X43043899Y-96935070D01*
X43043902Y-96935068D01*
X43048505Y-96932067D01*
X43175437Y-96813286D01*
X43195850Y-96790536D01*
X44497703Y-95339596D01*
X44502391Y-95334648D01*
X44556770Y-95280269D01*
X44609694Y-95204685D01*
X44612137Y-95201317D01*
X44663796Y-95132514D01*
X44663797Y-95132513D01*
X44667101Y-95128112D01*
X44669591Y-95123204D01*
X44669594Y-95123199D01*
X44673032Y-95116422D01*
X44682187Y-95101154D01*
X44689801Y-95090281D01*
X44728799Y-95006649D01*
X44730607Y-95002933D01*
X44772034Y-94921276D01*
X44775845Y-94908731D01*
X44782208Y-94892113D01*
X44787820Y-94880079D01*
X44811697Y-94790972D01*
X44812844Y-94786956D01*
X44837859Y-94704621D01*
X44837860Y-94704617D01*
X44839457Y-94699360D01*
X44841031Y-94686350D01*
X44844411Y-94668880D01*
X44846426Y-94661360D01*
X44847849Y-94656050D01*
X44855892Y-94564120D01*
X44856325Y-94559970D01*
X44861758Y-94515076D01*
X44867321Y-94469107D01*
X44867024Y-94463616D01*
X44867024Y-94463603D01*
X44866612Y-94456010D01*
X44866907Y-94438213D01*
X44868063Y-94425000D01*
X44860026Y-94333137D01*
X44859732Y-94328999D01*
X44855076Y-94243008D01*
X44855075Y-94243003D01*
X44854778Y-94237514D01*
X44851804Y-94224734D01*
X44849006Y-94207163D01*
X44848330Y-94199439D01*
X44848328Y-94199430D01*
X44847849Y-94193950D01*
X44846426Y-94188640D01*
X44846425Y-94188633D01*
X44823997Y-94104930D01*
X44822983Y-94100879D01*
X44803457Y-94016973D01*
X44802211Y-94011618D01*
X44797055Y-93999531D01*
X44791246Y-93982709D01*
X44787820Y-93969921D01*
X44785493Y-93964930D01*
X44748901Y-93886457D01*
X44747199Y-93882643D01*
X44719740Y-93818267D01*
X44711215Y-93798281D01*
X44704022Y-93787247D01*
X44695393Y-93771710D01*
X44689801Y-93759719D01*
X44637029Y-93684353D01*
X44634689Y-93680890D01*
X44587561Y-93608595D01*
X44587560Y-93608594D01*
X44584557Y-93603987D01*
X44575555Y-93594367D01*
X44564345Y-93580548D01*
X44559927Y-93574239D01*
X44559924Y-93574235D01*
X44556770Y-93569731D01*
X44491780Y-93504741D01*
X44488875Y-93501738D01*
X44429847Y-93438660D01*
X44429845Y-93438658D01*
X44426083Y-93434638D01*
X44421686Y-93431336D01*
X44421683Y-93431334D01*
X44415532Y-93426716D01*
X44402090Y-93415051D01*
X44392769Y-93405730D01*
X44317542Y-93353056D01*
X44314164Y-93350607D01*
X44281907Y-93326387D01*
X44240611Y-93295381D01*
X44228826Y-93289402D01*
X44213564Y-93280249D01*
X44207287Y-93275853D01*
X44207283Y-93275851D01*
X44202782Y-93272699D01*
X44152184Y-93249105D01*
X44119570Y-93233897D01*
X44115813Y-93232069D01*
X44067366Y-93207490D01*
X44033774Y-93190448D01*
X44028511Y-93188849D01*
X44028506Y-93188847D01*
X44021127Y-93186605D01*
X44004513Y-93180245D01*
X43992579Y-93174680D01*
X43987274Y-93173259D01*
X43987270Y-93173257D01*
X43924805Y-93156520D01*
X43903921Y-93150924D01*
X43899922Y-93149781D01*
X43811858Y-93123025D01*
X43798717Y-93121434D01*
X43781260Y-93118056D01*
X43768550Y-93114651D01*
X43677138Y-93106653D01*
X43673021Y-93106223D01*
X43581605Y-93095161D01*
X43568375Y-93095878D01*
X43550587Y-93095582D01*
X43545381Y-93095127D01*
X43537500Y-93094437D01*
X43532025Y-93094916D01*
X43532022Y-93094916D01*
X43446183Y-93102426D01*
X43442016Y-93102721D01*
X43414363Y-93104219D01*
X43350012Y-93107704D01*
X43337090Y-93110711D01*
X43319541Y-93113506D01*
X43306450Y-93114651D01*
X43222765Y-93137075D01*
X43217953Y-93138364D01*
X43213899Y-93139378D01*
X43164274Y-93150926D01*
X43124115Y-93160271D01*
X43111905Y-93165479D01*
X43095095Y-93171283D01*
X43087737Y-93173255D01*
X43087732Y-93173257D01*
X43082421Y-93174680D01*
X43077439Y-93177003D01*
X43077434Y-93177005D01*
X42999435Y-93213376D01*
X42995621Y-93215078D01*
X42953567Y-93233016D01*
X42910779Y-93251267D01*
X42906165Y-93254275D01*
X42899656Y-93258518D01*
X42884101Y-93267158D01*
X42877208Y-93270372D01*
X42877203Y-93270375D01*
X42872219Y-93272699D01*
X42816050Y-93312029D01*
X42797253Y-93325191D01*
X42793790Y-93327531D01*
X42736943Y-93364589D01*
X42716485Y-93377925D01*
X42712463Y-93381689D01*
X42706782Y-93387005D01*
X42692965Y-93398214D01*
X42682231Y-93405730D01*
X42617549Y-93470412D01*
X42614548Y-93473316D01*
X42589553Y-93496706D01*
X42587720Y-93498749D01*
X42587717Y-93498752D01*
X42576961Y-93510740D01*
X42572273Y-93515688D01*
X42518230Y-93569731D01*
X42515079Y-93574232D01*
X42515075Y-93574236D01*
X42501968Y-93592955D01*
X42492538Y-93604831D01*
X42153494Y-93982702D01*
X41202267Y-95042862D01*
X41200613Y-95045065D01*
X41200608Y-95045071D01*
X41101193Y-95177479D01*
X41097889Y-95181880D01*
X41068532Y-95239747D01*
X40996098Y-95382523D01*
X40992956Y-95388716D01*
X40991359Y-95393973D01*
X40991358Y-95393975D01*
X40941544Y-95557934D01*
X40925533Y-95610632D01*
X40897669Y-95840885D01*
X37983000Y-95840885D01*
X37983000Y-91400147D01*
X38003002Y-91332026D01*
X38019905Y-91311052D01*
X41109552Y-88221405D01*
X41171864Y-88187379D01*
X41198647Y-88184500D01*
X42238634Y-88184500D01*
X42241307Y-88184696D01*
X42246342Y-88186425D01*
X42257964Y-88185989D01*
X42257966Y-88185989D01*
X42295255Y-88184589D01*
X42299981Y-88184500D01*
X42318948Y-88184500D01*
X42323683Y-88183618D01*
X42327209Y-88183390D01*
X42330949Y-88183249D01*
X42358208Y-88182226D01*
X42368893Y-88177636D01*
X42373493Y-88176599D01*
X42385214Y-88173038D01*
X42389617Y-88171339D01*
X42401053Y-88169209D01*
X42422041Y-88156272D01*
X42438411Y-88147769D01*
X42452888Y-88141549D01*
X42452892Y-88141547D01*
X42461063Y-88138036D01*
X42465949Y-88134022D01*
X42468134Y-88131837D01*
X42470397Y-88129785D01*
X42470542Y-88129945D01*
X42479549Y-88122825D01*
X42486444Y-88116573D01*
X42496348Y-88110468D01*
X42512916Y-88088680D01*
X42524110Y-88075861D01*
X51910405Y-78689567D01*
X51972717Y-78655541D01*
X52043532Y-78660606D01*
X52100368Y-78703153D01*
X52125179Y-78769673D01*
X52125500Y-78778662D01*
X52125500Y-79228290D01*
X52125020Y-79239272D01*
X52121736Y-79276807D01*
X52124590Y-79287456D01*
X52131491Y-79313210D01*
X52133870Y-79323942D01*
X52140412Y-79361045D01*
X52145923Y-79370590D01*
X52147115Y-79373866D01*
X52148592Y-79377034D01*
X52151446Y-79387684D01*
X52157770Y-79396715D01*
X52173055Y-79418544D01*
X52178961Y-79427815D01*
X52192293Y-79450906D01*
X52197806Y-79460455D01*
X52206251Y-79467541D01*
X52226682Y-79484685D01*
X52234785Y-79492111D01*
X55252079Y-82509405D01*
X55286105Y-82571717D01*
X55281040Y-82642532D01*
X55238493Y-82699368D01*
X55171973Y-82724179D01*
X55162984Y-82724500D01*
X55058836Y-82724500D01*
X54921291Y-82739442D01*
X54746152Y-82798383D01*
X54587756Y-82893557D01*
X54582796Y-82898248D01*
X54582794Y-82898249D01*
X54488435Y-82987481D01*
X54453493Y-83020524D01*
X54349625Y-83173360D01*
X54347092Y-83179694D01*
X54347090Y-83179697D01*
X54283534Y-83338598D01*
X54283533Y-83338603D01*
X54281000Y-83344935D01*
X54273513Y-83390159D01*
X54252889Y-83514742D01*
X54250819Y-83527244D01*
X54251176Y-83534061D01*
X54251176Y-83534065D01*
X54252774Y-83564555D01*
X54260490Y-83711781D01*
X54262301Y-83718354D01*
X54262301Y-83718357D01*
X54287828Y-83811032D01*
X54309562Y-83889936D01*
X54395746Y-84053398D01*
X54515020Y-84194540D01*
X54520444Y-84198687D01*
X54520445Y-84198688D01*
X54656399Y-84302633D01*
X54656403Y-84302636D01*
X54661820Y-84306777D01*
X54668000Y-84309659D01*
X54668002Y-84309660D01*
X54823120Y-84381993D01*
X54823123Y-84381994D01*
X54829297Y-84384873D01*
X54835942Y-84386358D01*
X54835947Y-84386360D01*
X54944207Y-84410558D01*
X55009637Y-84425183D01*
X55015307Y-84425500D01*
X55151164Y-84425500D01*
X55288709Y-84410558D01*
X55463848Y-84351617D01*
X55622244Y-84256443D01*
X55630253Y-84248870D01*
X55712755Y-84170850D01*
X55722928Y-84161231D01*
X55786164Y-84128959D01*
X55856811Y-84135999D01*
X55912437Y-84180115D01*
X55935500Y-84252779D01*
X55935500Y-88458984D01*
X55915498Y-88527105D01*
X55898595Y-88548079D01*
X53639383Y-90807291D01*
X53577071Y-90841317D01*
X53533843Y-90843118D01*
X53467000Y-90834318D01*
X53310238Y-90854956D01*
X53164159Y-90915464D01*
X53038718Y-91011718D01*
X52942464Y-91137159D01*
X52881956Y-91283238D01*
X52880878Y-91291426D01*
X52876583Y-91324053D01*
X52861318Y-91440000D01*
X52881956Y-91596762D01*
X52942464Y-91742841D01*
X53038718Y-91868282D01*
X53164159Y-91964536D01*
X53232681Y-91992919D01*
X53287961Y-92037466D01*
X53310382Y-92104829D01*
X53292824Y-92173621D01*
X53273557Y-92198422D01*
X52489384Y-92982595D01*
X52427072Y-93016621D01*
X52400289Y-93019500D01*
X49959224Y-93019500D01*
X49891103Y-92999498D01*
X49844610Y-92945842D01*
X49837518Y-92926112D01*
X49829245Y-92895239D01*
X49827820Y-92889921D01*
X49797108Y-92824059D01*
X49793751Y-92816169D01*
X49773907Y-92764741D01*
X49773904Y-92764735D01*
X49771923Y-92759601D01*
X49753921Y-92729759D01*
X49747620Y-92717933D01*
X49745602Y-92713604D01*
X49729801Y-92679719D01*
X49688460Y-92620678D01*
X49683783Y-92613490D01*
X49674785Y-92598574D01*
X49652122Y-92561005D01*
X49648515Y-92556870D01*
X49648509Y-92556862D01*
X49628938Y-92534427D01*
X49620676Y-92523871D01*
X49599931Y-92494245D01*
X49599930Y-92494243D01*
X49596770Y-92489731D01*
X49546344Y-92439305D01*
X49540490Y-92433039D01*
X49503277Y-92390381D01*
X49499655Y-92386229D01*
X49471799Y-92363752D01*
X49461827Y-92354788D01*
X49432769Y-92325730D01*
X49428255Y-92322569D01*
X49375091Y-92285342D01*
X49368241Y-92280189D01*
X49323445Y-92244044D01*
X49323439Y-92244040D01*
X49319156Y-92240584D01*
X49287292Y-92222994D01*
X49275915Y-92215899D01*
X49247291Y-92195856D01*
X49247289Y-92195855D01*
X49242782Y-92192699D01*
X49237800Y-92190376D01*
X49237790Y-92190370D01*
X49179890Y-92163371D01*
X49172248Y-92159486D01*
X49120919Y-92131151D01*
X49120916Y-92131150D01*
X49116107Y-92128495D01*
X49081026Y-92116484D01*
X49068595Y-92111475D01*
X49032579Y-92094680D01*
X49027265Y-92093256D01*
X49027262Y-92093255D01*
X48966632Y-92077009D01*
X48958431Y-92074510D01*
X48901881Y-92055149D01*
X48896679Y-92053368D01*
X48891253Y-92052518D01*
X48891248Y-92052517D01*
X48865039Y-92048413D01*
X48859333Y-92047520D01*
X48846218Y-92044744D01*
X48832047Y-92040947D01*
X48808550Y-92034651D01*
X48741667Y-92028800D01*
X48733179Y-92027765D01*
X48694103Y-92021646D01*
X48672969Y-92018336D01*
X48672965Y-92018336D01*
X48667539Y-92017486D01*
X48633806Y-92018134D01*
X48628998Y-92018226D01*
X48615598Y-92017770D01*
X48582978Y-92014916D01*
X48582975Y-92014916D01*
X48577500Y-92014437D01*
X48511788Y-92020186D01*
X48503249Y-92020641D01*
X48441153Y-92021833D01*
X48441149Y-92021833D01*
X48435649Y-92021939D01*
X48397072Y-92029507D01*
X48383827Y-92031381D01*
X48346450Y-92034651D01*
X48283845Y-92051426D01*
X48275514Y-92053357D01*
X48213448Y-92065534D01*
X48213447Y-92065534D01*
X48208056Y-92066592D01*
X48202931Y-92068570D01*
X48202926Y-92068571D01*
X48170706Y-92081003D01*
X48157963Y-92085156D01*
X48127734Y-92093256D01*
X48127731Y-92093257D01*
X48122421Y-92094680D01*
X48117430Y-92097007D01*
X48117431Y-92097007D01*
X48064693Y-92121599D01*
X48056808Y-92124954D01*
X47991674Y-92150087D01*
X47976094Y-92159486D01*
X47956808Y-92171120D01*
X47944973Y-92177426D01*
X47917211Y-92190371D01*
X47917209Y-92190372D01*
X47912219Y-92192699D01*
X47860871Y-92228653D01*
X47853718Y-92233307D01*
X47793078Y-92269888D01*
X47781270Y-92280189D01*
X47761927Y-92297063D01*
X47751369Y-92305327D01*
X47726736Y-92322575D01*
X47726732Y-92322579D01*
X47722231Y-92325730D01*
X47678564Y-92369397D01*
X47672299Y-92375251D01*
X47618303Y-92422355D01*
X47604626Y-92439305D01*
X47591999Y-92454954D01*
X47583035Y-92464926D01*
X47558230Y-92489731D01*
X47551596Y-92499206D01*
X47523236Y-92539708D01*
X47518081Y-92546562D01*
X47472658Y-92602855D01*
X47472398Y-92603326D01*
X47418979Y-92647726D01*
X47348512Y-92656385D01*
X47284551Y-92625572D01*
X47247401Y-92565070D01*
X47243485Y-92532416D01*
X47243168Y-92532426D01*
X47243048Y-92528777D01*
X47243045Y-92528749D01*
X47243046Y-92528707D01*
X47243046Y-92528706D01*
X47243143Y-92525000D01*
X47222954Y-92305289D01*
X47217329Y-92285342D01*
X47178624Y-92148104D01*
X47163065Y-92092936D01*
X47065480Y-91895053D01*
X46933467Y-91718267D01*
X46771449Y-91568499D01*
X46584850Y-91450764D01*
X46379921Y-91369006D01*
X46374261Y-91367880D01*
X46374257Y-91367879D01*
X46169191Y-91327089D01*
X46169188Y-91327089D01*
X46163524Y-91325962D01*
X46157749Y-91325886D01*
X46157745Y-91325886D01*
X46047004Y-91324437D01*
X45942906Y-91323074D01*
X45937209Y-91324053D01*
X45937208Y-91324053D01*
X45731154Y-91359459D01*
X45731153Y-91359459D01*
X45725457Y-91360438D01*
X45518457Y-91436804D01*
X45328841Y-91549614D01*
X45162957Y-91695090D01*
X45026363Y-91868360D01*
X44923631Y-92063620D01*
X44858203Y-92274333D01*
X44832270Y-92493440D01*
X44846700Y-92713604D01*
X44848121Y-92719200D01*
X44848122Y-92719205D01*
X44872748Y-92816169D01*
X44901011Y-92927452D01*
X44903428Y-92932694D01*
X44903428Y-92932695D01*
X44987968Y-93116074D01*
X44993383Y-93127821D01*
X45120722Y-93308002D01*
X45278764Y-93461961D01*
X45283560Y-93465166D01*
X45283563Y-93465168D01*
X45367761Y-93521427D01*
X45462217Y-93584540D01*
X45467520Y-93586818D01*
X45467523Y-93586820D01*
X45645035Y-93663085D01*
X45664936Y-93671635D01*
X45744588Y-93689658D01*
X45874495Y-93719054D01*
X45874501Y-93719055D01*
X45880132Y-93720329D01*
X45885903Y-93720556D01*
X45885905Y-93720556D01*
X45953711Y-93723220D01*
X46100598Y-93728991D01*
X46209775Y-93713161D01*
X46313238Y-93698160D01*
X46313243Y-93698159D01*
X46318952Y-93697331D01*
X46324416Y-93695476D01*
X46324421Y-93695475D01*
X46522407Y-93628268D01*
X46522412Y-93628266D01*
X46527879Y-93626410D01*
X46534067Y-93622945D01*
X46621042Y-93574236D01*
X46720384Y-93518602D01*
X46890018Y-93377518D01*
X47028226Y-93211342D01*
X47087164Y-93171759D01*
X47158146Y-93170323D01*
X47218636Y-93207490D01*
X47249429Y-93271462D01*
X47250621Y-93302891D01*
X47246937Y-93345000D01*
X47247417Y-93350480D01*
X47247417Y-93355980D01*
X47247031Y-93355980D01*
X47247128Y-93364587D01*
X47211133Y-93892584D01*
X47214471Y-94066393D01*
X47259123Y-94293986D01*
X47261104Y-94299119D01*
X47261104Y-94299120D01*
X47324574Y-94463603D01*
X47342619Y-94510368D01*
X47462420Y-94708964D01*
X47523724Y-94779238D01*
X47611273Y-94879597D01*
X47611277Y-94879601D01*
X47614887Y-94883739D01*
X47619164Y-94887190D01*
X47619167Y-94887193D01*
X47737166Y-94982406D01*
X47795386Y-95029384D01*
X47998435Y-95141473D01*
X48003631Y-95143252D01*
X48212660Y-95214819D01*
X48212664Y-95214820D01*
X48217863Y-95216600D01*
X48447003Y-95252482D01*
X48582818Y-95249874D01*
X48673389Y-95248135D01*
X48673392Y-95248135D01*
X48678893Y-95248029D01*
X48906486Y-95203377D01*
X48943387Y-95189138D01*
X49117738Y-95121861D01*
X49117743Y-95121859D01*
X49122868Y-95119881D01*
X49141793Y-95108465D01*
X49316756Y-95002920D01*
X49321464Y-95000080D01*
X49459023Y-94880079D01*
X49471550Y-94869151D01*
X49536033Y-94839443D01*
X49606340Y-94849312D01*
X49635372Y-94867579D01*
X49637961Y-94869751D01*
X49645045Y-94878194D01*
X49654588Y-94883704D01*
X49654592Y-94883707D01*
X49677679Y-94897036D01*
X49686949Y-94902941D01*
X49705617Y-94916012D01*
X49717816Y-94924554D01*
X49728464Y-94927407D01*
X49731635Y-94928886D01*
X49734911Y-94930078D01*
X49744455Y-94935588D01*
X49781576Y-94942134D01*
X49792288Y-94944509D01*
X49816545Y-94951008D01*
X49877166Y-94987958D01*
X49900838Y-95027532D01*
X49901011Y-95027452D01*
X49993383Y-95227821D01*
X50120722Y-95408002D01*
X50278764Y-95561961D01*
X50283560Y-95565166D01*
X50283563Y-95565168D01*
X50367761Y-95621427D01*
X50462217Y-95684540D01*
X50467520Y-95686818D01*
X50467523Y-95686820D01*
X50631184Y-95757134D01*
X50664936Y-95771635D01*
X50744588Y-95789658D01*
X50874495Y-95819054D01*
X50874501Y-95819055D01*
X50880132Y-95820329D01*
X50885903Y-95820556D01*
X50885905Y-95820556D01*
X50953711Y-95823220D01*
X51100598Y-95828991D01*
X51209775Y-95813161D01*
X51313238Y-95798160D01*
X51313243Y-95798159D01*
X51318952Y-95797331D01*
X51324416Y-95795476D01*
X51324421Y-95795475D01*
X51522407Y-95728268D01*
X51522412Y-95728266D01*
X51527879Y-95726410D01*
X51720384Y-95618602D01*
X51736293Y-95605371D01*
X51885586Y-95481204D01*
X51890018Y-95477518D01*
X51956336Y-95397780D01*
X52027408Y-95312326D01*
X52027410Y-95312323D01*
X52031102Y-95307884D01*
X52106337Y-95173543D01*
X52136086Y-95120422D01*
X52136087Y-95120420D01*
X52138910Y-95115379D01*
X52140766Y-95109912D01*
X52140768Y-95109907D01*
X52207975Y-94911921D01*
X52207976Y-94911916D01*
X52209831Y-94906452D01*
X52210659Y-94900743D01*
X52210660Y-94900738D01*
X52237865Y-94713106D01*
X52241491Y-94688098D01*
X52243143Y-94625000D01*
X52222954Y-94405289D01*
X52163065Y-94192936D01*
X52065480Y-93995053D01*
X52042986Y-93964930D01*
X51973509Y-93871889D01*
X51948777Y-93805339D01*
X51963951Y-93735983D01*
X52014213Y-93685841D01*
X52074467Y-93670500D01*
X52567595Y-93670500D01*
X52578577Y-93670980D01*
X52605125Y-93673303D01*
X52605127Y-93673303D01*
X52616112Y-93674264D01*
X52652520Y-93664508D01*
X52663247Y-93662130D01*
X52666606Y-93661538D01*
X52700350Y-93655588D01*
X52709895Y-93650077D01*
X52713171Y-93648885D01*
X52716339Y-93647408D01*
X52726989Y-93644554D01*
X52757849Y-93622945D01*
X52767120Y-93617039D01*
X52790211Y-93603707D01*
X52799760Y-93598194D01*
X52823990Y-93569317D01*
X52831416Y-93561215D01*
X61506905Y-84885727D01*
X61569217Y-84851701D01*
X61640032Y-84856766D01*
X61696868Y-84899313D01*
X61721679Y-84965833D01*
X61722000Y-84974822D01*
X61722000Y-105919535D01*
X61701998Y-105987656D01*
X61648342Y-106034149D01*
X61596537Y-106045534D01*
X55538036Y-106071315D01*
X32003094Y-106171463D01*
X31934889Y-106151751D01*
X31888168Y-106098294D01*
X31876559Y-106045905D01*
X31870197Y-104226243D01*
X31750440Y-69975906D01*
X31770204Y-69907716D01*
X31823696Y-69861036D01*
X31875905Y-69849467D01*
X32218829Y-69848013D01*
X32297965Y-69847678D01*
X32366170Y-69867391D01*
X32412890Y-69920849D01*
X32424499Y-69973677D01*
X32424499Y-82260289D01*
X32424019Y-82271271D01*
X32420735Y-82308806D01*
X32430490Y-82345209D01*
X32432869Y-82355941D01*
X32439411Y-82393044D01*
X32444922Y-82402589D01*
X32446114Y-82405865D01*
X32447591Y-82409033D01*
X32450445Y-82419683D01*
X32456769Y-82428714D01*
X32472054Y-82450543D01*
X32477960Y-82459814D01*
X32481568Y-82466063D01*
X32496805Y-82492454D01*
X32515792Y-82508386D01*
X32525681Y-82516684D01*
X32533784Y-82524110D01*
X33530291Y-83520618D01*
X33564317Y-83582930D01*
X33566118Y-83626158D01*
X33557318Y-83693000D01*
X33577956Y-83849762D01*
X33638464Y-83995841D01*
X33734718Y-84121282D01*
X33860159Y-84217536D01*
X34006238Y-84278044D01*
X34163000Y-84298682D01*
X34171188Y-84297604D01*
X34311574Y-84279122D01*
X34319762Y-84278044D01*
X34465841Y-84217536D01*
X34591282Y-84121282D01*
X34687536Y-83995841D01*
X34748044Y-83849762D01*
X34768682Y-83693000D01*
X34748044Y-83536238D01*
X34687536Y-83390159D01*
X34591282Y-83264718D01*
X34465841Y-83168464D01*
X34319762Y-83107956D01*
X34163000Y-83087318D01*
X34096159Y-83096118D01*
X34026012Y-83085179D01*
X33990619Y-83060292D01*
X33112404Y-82182078D01*
X33078379Y-82119765D01*
X33075499Y-82092982D01*
X33075499Y-69969850D01*
X33095501Y-69901729D01*
X33149157Y-69855236D01*
X33200961Y-69843852D01*
X61595467Y-69723536D01*
X61663671Y-69743249D01*
G37*
%TD.AperFunction*%
%TA.AperFunction,Conductor*%
G36*
X39887990Y-84173821D02*
G01*
X39923383Y-84198709D01*
X41411889Y-85687215D01*
X41419316Y-85695319D01*
X41443545Y-85724194D01*
X41453094Y-85729707D01*
X41476185Y-85743039D01*
X41485456Y-85748945D01*
X41516316Y-85770554D01*
X41526966Y-85773408D01*
X41530134Y-85774885D01*
X41533410Y-85776077D01*
X41542955Y-85781588D01*
X41576699Y-85787538D01*
X41580058Y-85788130D01*
X41590785Y-85790508D01*
X41627193Y-85800264D01*
X41638169Y-85799304D01*
X41638172Y-85799304D01*
X41664743Y-85796979D01*
X41675724Y-85796500D01*
X41974364Y-85796500D01*
X42042485Y-85816502D01*
X42088978Y-85870158D01*
X42099082Y-85940432D01*
X42084345Y-85983010D01*
X42081643Y-85986532D01*
X42021135Y-86132611D01*
X42000497Y-86289373D01*
X42001575Y-86297561D01*
X42009297Y-86356215D01*
X41998358Y-86426363D01*
X41973470Y-86461756D01*
X41585631Y-86849595D01*
X41523319Y-86883621D01*
X41496536Y-86886500D01*
X41034713Y-86886500D01*
X40966592Y-86866498D01*
X40945618Y-86849596D01*
X40785405Y-86689384D01*
X40751380Y-86627072D01*
X40748500Y-86600288D01*
X40748500Y-85643758D01*
X40748980Y-85632776D01*
X40751302Y-85606240D01*
X40751302Y-85606238D01*
X40752263Y-85595253D01*
X40742512Y-85558863D01*
X40740132Y-85548129D01*
X40735502Y-85521872D01*
X40733588Y-85511015D01*
X40728076Y-85501467D01*
X40726883Y-85498190D01*
X40725406Y-85495022D01*
X40722553Y-85484376D01*
X40700942Y-85453512D01*
X40695038Y-85444244D01*
X40681704Y-85421149D01*
X40676194Y-85411605D01*
X40647324Y-85387380D01*
X40639221Y-85379954D01*
X40144145Y-84884878D01*
X39644890Y-84385624D01*
X39610865Y-84323312D01*
X39615929Y-84252497D01*
X39658476Y-84195661D01*
X39724996Y-84170850D01*
X39734554Y-84171135D01*
X39734554Y-84170604D01*
X39742812Y-84170604D01*
X39751000Y-84171682D01*
X39817843Y-84162882D01*
X39887990Y-84173821D01*
G37*
%TD.AperFunction*%
%TD*%
%TA.AperFunction,Conductor*%
%TO.N,GND*%
G36*
X241242121Y-33357502D02*
G01*
X241288614Y-33411158D01*
X241300000Y-33463500D01*
X241300000Y-60199000D01*
X241279998Y-60267121D01*
X241226342Y-60313614D01*
X241174000Y-60325000D01*
X231562516Y-60325000D01*
X231494395Y-60304998D01*
X231473421Y-60288095D01*
X229600890Y-58415564D01*
X230421749Y-58415564D01*
X230442387Y-58572326D01*
X230502895Y-58718405D01*
X230599149Y-58843846D01*
X230724590Y-58940100D01*
X230870669Y-59000608D01*
X231027431Y-59021246D01*
X231035619Y-59020168D01*
X231176005Y-59001686D01*
X231184193Y-59000608D01*
X231330272Y-58940100D01*
X231455713Y-58843846D01*
X231551967Y-58718405D01*
X231612475Y-58572326D01*
X231633113Y-58415564D01*
X231612475Y-58258802D01*
X231551967Y-58112723D01*
X231455713Y-57987282D01*
X231449153Y-57982248D01*
X232337000Y-57982248D01*
X232348633Y-58040731D01*
X232392948Y-58107052D01*
X232459269Y-58151367D01*
X232471438Y-58153788D01*
X232471439Y-58153788D01*
X232511684Y-58161793D01*
X232517752Y-58163000D01*
X234357248Y-58163000D01*
X234363316Y-58161793D01*
X234403561Y-58153788D01*
X234403562Y-58153788D01*
X234415731Y-58151367D01*
X234482052Y-58107052D01*
X234526367Y-58040731D01*
X234533043Y-58007169D01*
X238229501Y-58007169D01*
X238229871Y-58013990D01*
X238235395Y-58064852D01*
X238239021Y-58080104D01*
X238284176Y-58200554D01*
X238292714Y-58216149D01*
X238369215Y-58318224D01*
X238381776Y-58330785D01*
X238483851Y-58407286D01*
X238499446Y-58415824D01*
X238619894Y-58460978D01*
X238635149Y-58464605D01*
X238686014Y-58470131D01*
X238692828Y-58470500D01*
X239365385Y-58470500D01*
X239380624Y-58466025D01*
X239381829Y-58464635D01*
X239383500Y-58456952D01*
X239383500Y-58452384D01*
X239891500Y-58452384D01*
X239895975Y-58467623D01*
X239897365Y-58468828D01*
X239905048Y-58470499D01*
X240582169Y-58470499D01*
X240588990Y-58470129D01*
X240639852Y-58464605D01*
X240655104Y-58460979D01*
X240775554Y-58415824D01*
X240791149Y-58407286D01*
X240893224Y-58330785D01*
X240905785Y-58318224D01*
X240982286Y-58216149D01*
X240990824Y-58200554D01*
X241035978Y-58080106D01*
X241039605Y-58064851D01*
X241045131Y-58013986D01*
X241045500Y-58007172D01*
X241045500Y-57684615D01*
X241041025Y-57669376D01*
X241039635Y-57668171D01*
X241031952Y-57666500D01*
X239909615Y-57666500D01*
X239894376Y-57670975D01*
X239893171Y-57672365D01*
X239891500Y-57680048D01*
X239891500Y-58452384D01*
X239383500Y-58452384D01*
X239383500Y-57684615D01*
X239379025Y-57669376D01*
X239377635Y-57668171D01*
X239369952Y-57666500D01*
X238247616Y-57666500D01*
X238232377Y-57670975D01*
X238231172Y-57672365D01*
X238229501Y-57680048D01*
X238229501Y-58007169D01*
X234533043Y-58007169D01*
X234538000Y-57982248D01*
X234538000Y-57140385D01*
X238229500Y-57140385D01*
X238233975Y-57155624D01*
X238235365Y-57156829D01*
X238243048Y-57158500D01*
X239365385Y-57158500D01*
X239380624Y-57154025D01*
X239381829Y-57152635D01*
X239383500Y-57144952D01*
X239383500Y-57140385D01*
X239891500Y-57140385D01*
X239895975Y-57155624D01*
X239897365Y-57156829D01*
X239905048Y-57158500D01*
X241027384Y-57158500D01*
X241042623Y-57154025D01*
X241043828Y-57152635D01*
X241045499Y-57144952D01*
X241045499Y-56817831D01*
X241045129Y-56811010D01*
X241039605Y-56760148D01*
X241035979Y-56744896D01*
X240990824Y-56624446D01*
X240982286Y-56608851D01*
X240905785Y-56506776D01*
X240893224Y-56494215D01*
X240791149Y-56417714D01*
X240775554Y-56409176D01*
X240655106Y-56364022D01*
X240639851Y-56360395D01*
X240588986Y-56354869D01*
X240582172Y-56354500D01*
X239909615Y-56354500D01*
X239894376Y-56358975D01*
X239893171Y-56360365D01*
X239891500Y-56368048D01*
X239891500Y-57140385D01*
X239383500Y-57140385D01*
X239383500Y-56372616D01*
X239379025Y-56357377D01*
X239377635Y-56356172D01*
X239369952Y-56354501D01*
X238692831Y-56354501D01*
X238686010Y-56354871D01*
X238635148Y-56360395D01*
X238619896Y-56364021D01*
X238499446Y-56409176D01*
X238483851Y-56417714D01*
X238381776Y-56494215D01*
X238369215Y-56506776D01*
X238292714Y-56608851D01*
X238284176Y-56624446D01*
X238239022Y-56744894D01*
X238235395Y-56760149D01*
X238229869Y-56811014D01*
X238229500Y-56817828D01*
X238229500Y-57140385D01*
X234538000Y-57140385D01*
X234538000Y-56842752D01*
X234531686Y-56811010D01*
X234528788Y-56796439D01*
X234528788Y-56796438D01*
X234526367Y-56784269D01*
X234482052Y-56717948D01*
X234415731Y-56673633D01*
X234403562Y-56671212D01*
X234403561Y-56671212D01*
X234363316Y-56663207D01*
X234357248Y-56662000D01*
X232517752Y-56662000D01*
X232511684Y-56663207D01*
X232471439Y-56671212D01*
X232471438Y-56671212D01*
X232459269Y-56673633D01*
X232392948Y-56717948D01*
X232348633Y-56784269D01*
X232346212Y-56796438D01*
X232346212Y-56796439D01*
X232343314Y-56811010D01*
X232337000Y-56842752D01*
X232337000Y-57982248D01*
X231449153Y-57982248D01*
X231441090Y-57976061D01*
X231392793Y-57939002D01*
X231350926Y-57881664D01*
X231343497Y-57839039D01*
X231343497Y-54792019D01*
X231363499Y-54723898D01*
X231380402Y-54702924D01*
X232008421Y-54074905D01*
X232070733Y-54040879D01*
X232097516Y-54038000D01*
X232211000Y-54038000D01*
X232279121Y-54058002D01*
X232325614Y-54111658D01*
X232337000Y-54164000D01*
X232337000Y-54282248D01*
X232348633Y-54340731D01*
X232392948Y-54407052D01*
X232459269Y-54451367D01*
X232471438Y-54453788D01*
X232471439Y-54453788D01*
X232507722Y-54461005D01*
X232517752Y-54463000D01*
X234357248Y-54463000D01*
X234367278Y-54461005D01*
X234403561Y-54453788D01*
X234403562Y-54453788D01*
X234415731Y-54451367D01*
X234482052Y-54407052D01*
X234526367Y-54340731D01*
X234538000Y-54282248D01*
X238537000Y-54282248D01*
X238548633Y-54340731D01*
X238592948Y-54407052D01*
X238659269Y-54451367D01*
X238671438Y-54453788D01*
X238671439Y-54453788D01*
X238707722Y-54461005D01*
X238717752Y-54463000D01*
X240557248Y-54463000D01*
X240567278Y-54461005D01*
X240603561Y-54453788D01*
X240603562Y-54453788D01*
X240615731Y-54451367D01*
X240682052Y-54407052D01*
X240726367Y-54340731D01*
X240738000Y-54282248D01*
X240738000Y-53142752D01*
X240726367Y-53084269D01*
X240682052Y-53017948D01*
X240615731Y-52973633D01*
X240603562Y-52971212D01*
X240603561Y-52971212D01*
X240563316Y-52963207D01*
X240557248Y-52962000D01*
X238717752Y-52962000D01*
X238711684Y-52963207D01*
X238671439Y-52971212D01*
X238671438Y-52971212D01*
X238659269Y-52973633D01*
X238592948Y-53017948D01*
X238548633Y-53084269D01*
X238537000Y-53142752D01*
X238537000Y-54282248D01*
X234538000Y-54282248D01*
X234538000Y-53142752D01*
X234526367Y-53084269D01*
X234482052Y-53017948D01*
X234415731Y-52973633D01*
X234403562Y-52971212D01*
X234403561Y-52971212D01*
X234363316Y-52963207D01*
X234357248Y-52962000D01*
X232517752Y-52962000D01*
X232511684Y-52963207D01*
X232471439Y-52971212D01*
X232471438Y-52971212D01*
X232459269Y-52973633D01*
X232392948Y-53017948D01*
X232348633Y-53084269D01*
X232337000Y-53142752D01*
X232337000Y-53261000D01*
X232316998Y-53329121D01*
X232263342Y-53375614D01*
X232211000Y-53387000D01*
X231930210Y-53387000D01*
X231919228Y-53386520D01*
X231892680Y-53384197D01*
X231892678Y-53384197D01*
X231881693Y-53383236D01*
X231845285Y-53392992D01*
X231834558Y-53395370D01*
X231831199Y-53395962D01*
X231797455Y-53401912D01*
X231787910Y-53407423D01*
X231784634Y-53408615D01*
X231781466Y-53410092D01*
X231770816Y-53412946D01*
X231761785Y-53419270D01*
X231739956Y-53434555D01*
X231730685Y-53440461D01*
X231707594Y-53453793D01*
X231698045Y-53459306D01*
X231690959Y-53467751D01*
X231673815Y-53488182D01*
X231666389Y-53496285D01*
X230801782Y-54360892D01*
X230793678Y-54368319D01*
X230764803Y-54392548D01*
X230759290Y-54402097D01*
X230745958Y-54425188D01*
X230740052Y-54434459D01*
X230718443Y-54465319D01*
X230715589Y-54475969D01*
X230714112Y-54479137D01*
X230712920Y-54482413D01*
X230707409Y-54491958D01*
X230705488Y-54502855D01*
X230700867Y-54529061D01*
X230698489Y-54539788D01*
X230688733Y-54576196D01*
X230689694Y-54587181D01*
X230689694Y-54587183D01*
X230692017Y-54613731D01*
X230692497Y-54624713D01*
X230692497Y-57853517D01*
X230672495Y-57921638D01*
X230643201Y-57953480D01*
X230599149Y-57987282D01*
X230502895Y-58112723D01*
X230442387Y-58258802D01*
X230421749Y-58415564D01*
X229600890Y-58415564D01*
X228364752Y-57179426D01*
X228330726Y-57117114D01*
X228335791Y-57046299D01*
X228343909Y-57028774D01*
X228351410Y-57015379D01*
X228353266Y-57009912D01*
X228353268Y-57009907D01*
X228420475Y-56811921D01*
X228420476Y-56811916D01*
X228422331Y-56806452D01*
X228423159Y-56800743D01*
X228423160Y-56800738D01*
X228448721Y-56624446D01*
X228453991Y-56588098D01*
X228455643Y-56525000D01*
X228435454Y-56305289D01*
X228375565Y-56092936D01*
X228277980Y-55895053D01*
X228201463Y-55792584D01*
X228149420Y-55722891D01*
X228149420Y-55722890D01*
X228145967Y-55718267D01*
X227983949Y-55568499D01*
X227797350Y-55450764D01*
X227592421Y-55369006D01*
X227586761Y-55367880D01*
X227586757Y-55367879D01*
X227381691Y-55327089D01*
X227381688Y-55327089D01*
X227376024Y-55325962D01*
X227370249Y-55325886D01*
X227370245Y-55325886D01*
X227259504Y-55324437D01*
X227155406Y-55323074D01*
X227149709Y-55324053D01*
X227149708Y-55324053D01*
X226943654Y-55359459D01*
X226943653Y-55359459D01*
X226937957Y-55360438D01*
X226730957Y-55436804D01*
X226541341Y-55549614D01*
X226375457Y-55695090D01*
X226371878Y-55699630D01*
X226371877Y-55699631D01*
X226312554Y-55774883D01*
X226254674Y-55815997D01*
X226183753Y-55819291D01*
X226122311Y-55783720D01*
X226089853Y-55720577D01*
X226087896Y-55688308D01*
X226109399Y-55372889D01*
X226109586Y-55370478D01*
X226120084Y-55250475D01*
X226120563Y-55245000D01*
X226120084Y-55239524D01*
X226114177Y-55172003D01*
X226113721Y-55163442D01*
X226112677Y-55109078D01*
X226112677Y-55109074D01*
X226112571Y-55103576D01*
X226110349Y-55092253D01*
X226105957Y-55069864D01*
X226104079Y-55056587D01*
X226100828Y-55019429D01*
X226100349Y-55013950D01*
X226081439Y-54943378D01*
X226079502Y-54935024D01*
X226068979Y-54881385D01*
X226068978Y-54881383D01*
X226067919Y-54875983D01*
X226065939Y-54870851D01*
X226065937Y-54870845D01*
X226055485Y-54843759D01*
X226051331Y-54831012D01*
X226041745Y-54795239D01*
X226040320Y-54789921D01*
X226009608Y-54724059D01*
X226006251Y-54716169D01*
X225986407Y-54664741D01*
X225986404Y-54664735D01*
X225984423Y-54659601D01*
X225966421Y-54629759D01*
X225960120Y-54617933D01*
X225944625Y-54584703D01*
X225942301Y-54579719D01*
X225900960Y-54520678D01*
X225896283Y-54513490D01*
X225867458Y-54465707D01*
X225864622Y-54461005D01*
X225861015Y-54456870D01*
X225861009Y-54456862D01*
X225841438Y-54434427D01*
X225833176Y-54423871D01*
X225812431Y-54394245D01*
X225812430Y-54394243D01*
X225809270Y-54389731D01*
X225758844Y-54339305D01*
X225752990Y-54333039D01*
X225715777Y-54290381D01*
X225712155Y-54286229D01*
X225684299Y-54263752D01*
X225674327Y-54254788D01*
X225645269Y-54225730D01*
X225640755Y-54222569D01*
X225587591Y-54185342D01*
X225580741Y-54180189D01*
X225535945Y-54144044D01*
X225535939Y-54144040D01*
X225531656Y-54140584D01*
X225499792Y-54122994D01*
X225488415Y-54115899D01*
X225459791Y-54095856D01*
X225459789Y-54095855D01*
X225455282Y-54092699D01*
X225450300Y-54090376D01*
X225450290Y-54090370D01*
X225392390Y-54063371D01*
X225384748Y-54059486D01*
X225333419Y-54031151D01*
X225333416Y-54031150D01*
X225328607Y-54028495D01*
X225293526Y-54016484D01*
X225281095Y-54011475D01*
X225245079Y-53994680D01*
X225208887Y-53984982D01*
X225148265Y-53948030D01*
X225117244Y-53884168D01*
X225115500Y-53863276D01*
X225115500Y-47579694D01*
X234974573Y-47579694D01*
X234984110Y-47642015D01*
X234986499Y-47652043D01*
X235057898Y-47870488D01*
X235061895Y-47879997D01*
X235168011Y-48083844D01*
X235173505Y-48092569D01*
X235311493Y-48276352D01*
X235318336Y-48284059D01*
X235484491Y-48442839D01*
X235492501Y-48449326D01*
X235682347Y-48578830D01*
X235691321Y-48583929D01*
X235899769Y-48680687D01*
X235909456Y-48684250D01*
X236130909Y-48745665D01*
X236141029Y-48747596D01*
X236265487Y-48760897D01*
X236280108Y-48758249D01*
X236283500Y-48745871D01*
X236283500Y-48744448D01*
X236791500Y-48744448D01*
X236795825Y-48759177D01*
X236807611Y-48761238D01*
X236898704Y-48753749D01*
X236908866Y-48752067D01*
X237131771Y-48696078D01*
X237141519Y-48692759D01*
X237352289Y-48601115D01*
X237361364Y-48596249D01*
X237554327Y-48471415D01*
X237562498Y-48465122D01*
X237732480Y-48310450D01*
X237739506Y-48302917D01*
X237881945Y-48122556D01*
X237887650Y-48113969D01*
X237998714Y-47912778D01*
X238002944Y-47903366D01*
X238079659Y-47686732D01*
X238082293Y-47676761D01*
X238099647Y-47579337D01*
X238098187Y-47566040D01*
X238083630Y-47561500D01*
X236809615Y-47561500D01*
X236794376Y-47565975D01*
X236793171Y-47567365D01*
X236791500Y-47575048D01*
X236791500Y-48744448D01*
X236283500Y-48744448D01*
X236283500Y-47579615D01*
X236279025Y-47564376D01*
X236277635Y-47563171D01*
X236269952Y-47561500D01*
X234989904Y-47561500D01*
X234976560Y-47565418D01*
X234974573Y-47579694D01*
X225115500Y-47579694D01*
X225115500Y-47035663D01*
X234975353Y-47035663D01*
X234976813Y-47048960D01*
X234991370Y-47053500D01*
X238085096Y-47053500D01*
X238098440Y-47049582D01*
X238100427Y-47035306D01*
X238090890Y-46972985D01*
X238088501Y-46962957D01*
X238017102Y-46744512D01*
X238013105Y-46735003D01*
X237906989Y-46531156D01*
X237901495Y-46522431D01*
X237763507Y-46338648D01*
X237756664Y-46330941D01*
X237590509Y-46172161D01*
X237582504Y-46165678D01*
X237560383Y-46150588D01*
X237515381Y-46095676D01*
X237507210Y-46025151D01*
X237538465Y-45961404D01*
X237599222Y-45924675D01*
X237624427Y-45921403D01*
X237624398Y-45921107D01*
X237630561Y-45920500D01*
X237636748Y-45920500D01*
X237642816Y-45919293D01*
X237683061Y-45911288D01*
X237683062Y-45911288D01*
X237695231Y-45908867D01*
X237761552Y-45864552D01*
X237805867Y-45798231D01*
X237817500Y-45739748D01*
X237817500Y-43795252D01*
X237805867Y-43736769D01*
X237761552Y-43670448D01*
X237695231Y-43626133D01*
X237683062Y-43623712D01*
X237683061Y-43623712D01*
X237642816Y-43615707D01*
X237636748Y-43614500D01*
X235438252Y-43614500D01*
X235432184Y-43615707D01*
X235391939Y-43623712D01*
X235391938Y-43623712D01*
X235379769Y-43626133D01*
X235313448Y-43670448D01*
X235269133Y-43736769D01*
X235257500Y-43795252D01*
X235257500Y-45739748D01*
X235269133Y-45798231D01*
X235313448Y-45864552D01*
X235379769Y-45908867D01*
X235391938Y-45911288D01*
X235391939Y-45911288D01*
X235432184Y-45919293D01*
X235438252Y-45920500D01*
X235444439Y-45920500D01*
X235450602Y-45921107D01*
X235450369Y-45923476D01*
X235508354Y-45940502D01*
X235554847Y-45994158D01*
X235564951Y-46064432D01*
X235535457Y-46129012D01*
X235517110Y-46146330D01*
X235512500Y-46149880D01*
X235342520Y-46304550D01*
X235335494Y-46312083D01*
X235193055Y-46492444D01*
X235187350Y-46501031D01*
X235076286Y-46702222D01*
X235072056Y-46711634D01*
X234995341Y-46928268D01*
X234992707Y-46938239D01*
X234975353Y-47035663D01*
X225115500Y-47035663D01*
X225115500Y-44559710D01*
X225115980Y-44548728D01*
X225118303Y-44522180D01*
X225118303Y-44522178D01*
X225119264Y-44511193D01*
X225109508Y-44474785D01*
X225107130Y-44464058D01*
X225106538Y-44460699D01*
X225100588Y-44426955D01*
X225095077Y-44417410D01*
X225093885Y-44414134D01*
X225092408Y-44410966D01*
X225089554Y-44400316D01*
X225067945Y-44369456D01*
X225062039Y-44360185D01*
X225048707Y-44337094D01*
X225043194Y-44327545D01*
X225014317Y-44303315D01*
X225006215Y-44295889D01*
X223874405Y-43164079D01*
X223840379Y-43101767D01*
X223837500Y-43074984D01*
X223837500Y-40552194D01*
X234974573Y-40552194D01*
X234984110Y-40614515D01*
X234986499Y-40624543D01*
X235057898Y-40842988D01*
X235061895Y-40852497D01*
X235168011Y-41056344D01*
X235173505Y-41065069D01*
X235311493Y-41248852D01*
X235318336Y-41256559D01*
X235484491Y-41415339D01*
X235492501Y-41421826D01*
X235682347Y-41551330D01*
X235691321Y-41556429D01*
X235899769Y-41653187D01*
X235909456Y-41656750D01*
X236130909Y-41718165D01*
X236141029Y-41720096D01*
X236265487Y-41733397D01*
X236280108Y-41730749D01*
X236283500Y-41718371D01*
X236283500Y-41716948D01*
X236791500Y-41716948D01*
X236795825Y-41731677D01*
X236807611Y-41733738D01*
X236898704Y-41726249D01*
X236908866Y-41724567D01*
X237131771Y-41668578D01*
X237141519Y-41665259D01*
X237352289Y-41573615D01*
X237361364Y-41568749D01*
X237554327Y-41443915D01*
X237562498Y-41437622D01*
X237732480Y-41282950D01*
X237739506Y-41275417D01*
X237881945Y-41095056D01*
X237887650Y-41086469D01*
X237998714Y-40885278D01*
X238002944Y-40875866D01*
X238079659Y-40659232D01*
X238082293Y-40649261D01*
X238099647Y-40551837D01*
X238098187Y-40538540D01*
X238083630Y-40534000D01*
X236809615Y-40534000D01*
X236794376Y-40538475D01*
X236793171Y-40539865D01*
X236791500Y-40547548D01*
X236791500Y-41716948D01*
X236283500Y-41716948D01*
X236283500Y-40552115D01*
X236279025Y-40536876D01*
X236277635Y-40535671D01*
X236269952Y-40534000D01*
X234989904Y-40534000D01*
X234976560Y-40537918D01*
X234974573Y-40552194D01*
X223837500Y-40552194D01*
X223837500Y-40008163D01*
X234975353Y-40008163D01*
X234976813Y-40021460D01*
X234991370Y-40026000D01*
X238085096Y-40026000D01*
X238098440Y-40022082D01*
X238100427Y-40007806D01*
X238090890Y-39945485D01*
X238088501Y-39935457D01*
X238017102Y-39717012D01*
X238013105Y-39707503D01*
X237906989Y-39503656D01*
X237901495Y-39494931D01*
X237763507Y-39311148D01*
X237756664Y-39303441D01*
X237590509Y-39144661D01*
X237582504Y-39138178D01*
X237560383Y-39123088D01*
X237515381Y-39068176D01*
X237507210Y-38997651D01*
X237538465Y-38933904D01*
X237599222Y-38897175D01*
X237624427Y-38893903D01*
X237624398Y-38893607D01*
X237630561Y-38893000D01*
X237636748Y-38893000D01*
X237642816Y-38891793D01*
X237683061Y-38883788D01*
X237683062Y-38883788D01*
X237695231Y-38881367D01*
X237761552Y-38837052D01*
X237805867Y-38770731D01*
X237817500Y-38712248D01*
X237817500Y-36767752D01*
X237805867Y-36709269D01*
X237761552Y-36642948D01*
X237695231Y-36598633D01*
X237683062Y-36596212D01*
X237683061Y-36596212D01*
X237642816Y-36588207D01*
X237636748Y-36587000D01*
X235438252Y-36587000D01*
X235432184Y-36588207D01*
X235391939Y-36596212D01*
X235391938Y-36596212D01*
X235379769Y-36598633D01*
X235313448Y-36642948D01*
X235269133Y-36709269D01*
X235257500Y-36767752D01*
X235257500Y-38712248D01*
X235269133Y-38770731D01*
X235313448Y-38837052D01*
X235379769Y-38881367D01*
X235391938Y-38883788D01*
X235391939Y-38883788D01*
X235432184Y-38891793D01*
X235438252Y-38893000D01*
X235444439Y-38893000D01*
X235450602Y-38893607D01*
X235450369Y-38895976D01*
X235508354Y-38913002D01*
X235554847Y-38966658D01*
X235564951Y-39036932D01*
X235535457Y-39101512D01*
X235517110Y-39118830D01*
X235512500Y-39122380D01*
X235342520Y-39277050D01*
X235335494Y-39284583D01*
X235193055Y-39464944D01*
X235187350Y-39473531D01*
X235076286Y-39674722D01*
X235072056Y-39684134D01*
X234995341Y-39900768D01*
X234992707Y-39910739D01*
X234975353Y-40008163D01*
X223837500Y-40008163D01*
X223837500Y-33463500D01*
X223857502Y-33395379D01*
X223911158Y-33348886D01*
X223963500Y-33337500D01*
X241174000Y-33337500D01*
X241242121Y-33357502D01*
G37*
%TD.AperFunction*%
%TD*%
M02*
