M48
; DRILL file {KiCad (6.0.7)} date Sat Oct 29 13:55:15 2022
; FORMAT={-:-/ absolute / inch / decimal}
; #@! TF.CreationDate,2022-10-29T13:55:15+02:00
; #@! TF.GenerationSoftware,Kicad,Pcbnew,(6.0.7)
; #@! TF.FileFunction,NonPlated,1,2,NPTH
FMAT,2
INCH
; #@! TA.AperFunction,NonPlated,NPTH,ComponentDrill
T1C0.0472
; #@! TA.AperFunction,NonPlated,NPTH,ComponentDrill
T2C0.0669
; #@! TA.AperFunction,NonPlated,NPTH,ComponentDrill
T3C0.0689
; #@! TA.AperFunction,NonPlated,NPTH,ComponentDrill
T4C0.1570
%
G90
G05
T1
X1.4195Y-1.7904
X1.607Y-4.0404
X1.7945Y-2.5404
X2.1695Y-1.7904
X2.1695Y-3.2904
X2.5445Y-2.5404
X2.5445Y-4.0404
X2.9195Y-1.7904
X2.9195Y-3.2904
X3.2945Y-2.5404
X3.2945Y-4.0404
X3.6695Y-1.7904
X3.6695Y-3.2904
X4.0445Y-2.5404
X4.0445Y-4.0404
X4.4195Y-1.7904
X4.4195Y-3.2904
X4.7945Y-2.5404
X4.7945Y-4.0404
X5.1695Y-1.7904
X5.1695Y-3.2904
X5.5445Y-2.5404
X5.5445Y-4.0404
X5.9195Y-1.7904
X5.9195Y-3.2904
X6.2945Y-2.5404
X6.2945Y-4.0404
X6.6695Y-1.7904
X6.6695Y-3.2904
X7.0445Y-2.5404
X7.0445Y-4.0404
X7.4195Y-1.7904
X7.4195Y-3.2904
X7.7945Y-2.5404
X7.7945Y-4.0404
X8.1695Y-1.7904
X8.1695Y-3.2904
X8.5445Y-2.5404
X8.732Y-4.0404
X8.9195Y-3.2904
T2
X1.4085Y-1.625
X1.596Y-3.875
X1.7835Y-2.375
X1.8415Y-1.625
X2.029Y-3.875
X2.1585Y-1.625
X2.1585Y-3.125
X2.2165Y-2.375
X2.5335Y-2.375
X2.5335Y-3.875
X2.5915Y-1.625
X2.5915Y-3.125
X2.9085Y-1.625
X2.9085Y-3.125
X2.9665Y-2.375
X2.9665Y-3.875
X3.2835Y-2.375
X3.2835Y-3.875
X3.3415Y-1.625
X3.3415Y-3.125
X3.6585Y-1.625
X3.6585Y-3.125
X3.7165Y-2.375
X3.7165Y-3.875
X4.0335Y-2.375
X4.0335Y-3.875
X4.0915Y-1.625
X4.0915Y-3.125
X4.4085Y-1.625
X4.4085Y-3.125
X4.4665Y-2.375
X4.4665Y-3.875
X4.7835Y-2.375
X4.7835Y-3.875
X4.8415Y-1.625
X4.8415Y-3.125
X5.1585Y-1.625
X5.1585Y-3.125
X5.2165Y-2.375
X5.2165Y-3.875
X5.5335Y-2.375
X5.5335Y-3.875
X5.5915Y-1.625
X5.5915Y-3.125
X5.9085Y-1.625
X5.9085Y-3.125
X5.9665Y-2.375
X5.9665Y-3.875
X6.2835Y-2.375
X6.2835Y-3.875
X6.3415Y-1.625
X6.3415Y-3.125
X6.6585Y-1.625
X6.6585Y-3.125
X6.7165Y-2.375
X6.7165Y-3.875
X7.0335Y-2.375
X7.0335Y-3.875
X7.0915Y-1.625
X7.0915Y-3.125
X7.4085Y-1.625
X7.4085Y-3.125
X7.4665Y-2.375
X7.4665Y-3.875
X7.7835Y-2.375
X7.7835Y-3.875
X7.8415Y-1.625
X7.8415Y-3.125
X8.1585Y-1.625
X8.1585Y-3.125
X8.2165Y-2.375
X8.2165Y-3.875
X8.5335Y-2.375
X8.5915Y-1.625
X8.5915Y-3.125
X8.721Y-3.875
X8.9085Y-3.125
X8.9665Y-2.375
X9.154Y-3.875
X9.3415Y-3.125
T3
X1.425Y-1.625
X1.6125Y-3.875
X1.8Y-2.375
X1.825Y-1.625
X2.0125Y-3.875
X2.175Y-1.625
X2.175Y-3.125
X2.2Y-2.375
X2.55Y-2.375
X2.55Y-3.875
X2.575Y-1.625
X2.575Y-3.125
X2.925Y-1.625
X2.925Y-3.125
X2.95Y-2.375
X2.95Y-3.875
X3.3Y-2.375
X3.3Y-3.875
X3.325Y-1.625
X3.325Y-3.125
X3.675Y-1.625
X3.675Y-3.125
X3.7Y-2.375
X3.7Y-3.875
X4.05Y-2.375
X4.05Y-3.875
X4.075Y-1.625
X4.075Y-3.125
X4.425Y-1.625
X4.425Y-3.125
X4.45Y-2.375
X4.45Y-3.875
X4.8Y-2.375
X4.8Y-3.875
X4.825Y-1.625
X4.825Y-3.125
X5.175Y-1.625
X5.175Y-3.125
X5.2Y-2.375
X5.2Y-3.875
X5.55Y-2.375
X5.55Y-3.875
X5.575Y-1.625
X5.575Y-3.125
X5.925Y-1.625
X5.925Y-3.125
X5.95Y-2.375
X5.95Y-3.875
X6.3Y-2.375
X6.3Y-3.875
X6.325Y-1.625
X6.325Y-3.125
X6.675Y-1.625
X6.675Y-3.125
X6.7Y-2.375
X6.7Y-3.875
X7.05Y-2.375
X7.05Y-3.875
X7.075Y-1.625
X7.075Y-3.125
X7.425Y-1.625
X7.425Y-3.125
X7.45Y-2.375
X7.45Y-3.875
X7.8Y-2.375
X7.8Y-3.875
X7.825Y-1.625
X7.825Y-3.125
X8.175Y-1.625
X8.175Y-3.125
X8.2Y-2.375
X8.2Y-3.875
X8.55Y-2.375
X8.575Y-1.625
X8.575Y-3.125
X8.7375Y-3.875
X8.925Y-3.125
X8.95Y-2.375
X9.1375Y-3.875
X9.325Y-3.125
T4
X1.625Y-1.625
X1.8125Y-3.875
X2.0Y-2.375
X2.375Y-1.625
X2.375Y-3.125
X2.75Y-2.375
X2.75Y-3.875
X3.125Y-1.625
X3.125Y-3.125
X3.5Y-2.375
X3.5Y-3.875
X3.875Y-1.625
X3.875Y-3.125
X4.25Y-2.375
X4.25Y-3.875
X4.625Y-1.625
X4.625Y-3.125
X5.0Y-2.375
X5.0Y-3.875
X5.375Y-1.625
X5.375Y-3.125
X5.75Y-2.375
X5.75Y-3.875
X6.125Y-1.625
X6.125Y-3.125
X6.5Y-2.375
X6.5Y-3.875
X6.875Y-1.625
X6.875Y-3.125
X7.25Y-2.375
X7.25Y-3.875
X7.625Y-1.625
X7.625Y-3.125
X8.0Y-2.375
X8.0Y-3.875
X8.375Y-1.625
X8.375Y-3.125
X8.75Y-2.375
X8.9375Y-3.875
X9.125Y-3.125
T0
M30
