%TF.GenerationSoftware,KiCad,Pcbnew,(6.0.7)*%
%TF.CreationDate,2022-12-16T21:18:24+01:00*%
%TF.ProjectId,Didaktik multilayout,44696461-6b74-4696-9b20-6d756c74696c,rev?*%
%TF.SameCoordinates,Original*%
%TF.FileFunction,Copper,L2,Bot*%
%TF.FilePolarity,Positive*%
%FSLAX46Y46*%
G04 Gerber Fmt 4.6, Leading zero omitted, Abs format (unit mm)*
G04 Created by KiCad (PCBNEW (6.0.7)) date 2022-12-16 21:18:24*
%MOMM*%
%LPD*%
G01*
G04 APERTURE LIST*
G04 Aperture macros list*
%AMRoundRect*
0 Rectangle with rounded corners*
0 $1 Rounding radius*
0 $2 $3 $4 $5 $6 $7 $8 $9 X,Y pos of 4 corners*
0 Add a 4 corners polygon primitive as box body*
4,1,4,$2,$3,$4,$5,$6,$7,$8,$9,$2,$3,0*
0 Add four circle primitives for the rounded corners*
1,1,$1+$1,$2,$3*
1,1,$1+$1,$4,$5*
1,1,$1+$1,$6,$7*
1,1,$1+$1,$8,$9*
0 Add four rect primitives between the rounded corners*
20,1,$1+$1,$2,$3,$4,$5,0*
20,1,$1+$1,$4,$5,$6,$7,0*
20,1,$1+$1,$6,$7,$8,$9,0*
20,1,$1+$1,$8,$9,$2,$3,0*%
G04 Aperture macros list end*
%TA.AperFunction,NonConductor*%
%ADD10C,0.150000*%
%TD*%
%ADD11C,0.150000*%
%TA.AperFunction,ComponentPad*%
%ADD12C,2.250000*%
%TD*%
%TA.AperFunction,ComponentPad*%
%ADD13O,2.159000X1.905000*%
%TD*%
%TA.AperFunction,ComponentPad*%
%ADD14R,2.159000X1.905000*%
%TD*%
%TA.AperFunction,SMDPad,CuDef*%
%ADD15R,1.200000X0.900000*%
%TD*%
%TA.AperFunction,SMDPad,CuDef*%
%ADD16RoundRect,0.140000X0.170000X-0.140000X0.170000X0.140000X-0.170000X0.140000X-0.170000X-0.140000X0*%
%TD*%
%TA.AperFunction,SMDPad,CuDef*%
%ADD17RoundRect,0.135000X-0.135000X-0.185000X0.135000X-0.185000X0.135000X0.185000X-0.135000X0.185000X0*%
%TD*%
%TA.AperFunction,SMDPad,CuDef*%
%ADD18R,1.400000X1.200000*%
%TD*%
%TA.AperFunction,SMDPad,CuDef*%
%ADD19RoundRect,0.062500X-0.475000X-0.062500X0.475000X-0.062500X0.475000X0.062500X-0.475000X0.062500X0*%
%TD*%
%TA.AperFunction,SMDPad,CuDef*%
%ADD20RoundRect,0.062500X-0.062500X-0.475000X0.062500X-0.475000X0.062500X0.475000X-0.062500X0.475000X0*%
%TD*%
%TA.AperFunction,SMDPad,CuDef*%
%ADD21R,5.200000X5.200000*%
%TD*%
%TA.AperFunction,SMDPad,CuDef*%
%ADD22RoundRect,0.250000X-0.625000X0.375000X-0.625000X-0.375000X0.625000X-0.375000X0.625000X0.375000X0*%
%TD*%
%TA.AperFunction,SMDPad,CuDef*%
%ADD23R,1.800000X1.200000*%
%TD*%
%TA.AperFunction,SMDPad,CuDef*%
%ADD24R,1.550000X0.600000*%
%TD*%
%TA.AperFunction,ComponentPad*%
%ADD25C,1.700000*%
%TD*%
%TA.AperFunction,ComponentPad*%
%ADD26R,1.700000X1.700000*%
%TD*%
%TA.AperFunction,SMDPad,CuDef*%
%ADD27RoundRect,0.140000X-0.170000X0.140000X-0.170000X-0.140000X0.170000X-0.140000X0.170000X0.140000X0*%
%TD*%
%TA.AperFunction,SMDPad,CuDef*%
%ADD28RoundRect,0.135000X-0.185000X0.135000X-0.185000X-0.135000X0.185000X-0.135000X0.185000X0.135000X0*%
%TD*%
%TA.AperFunction,SMDPad,CuDef*%
%ADD29RoundRect,0.135000X0.185000X-0.135000X0.185000X0.135000X-0.185000X0.135000X-0.185000X-0.135000X0*%
%TD*%
%TA.AperFunction,SMDPad,CuDef*%
%ADD30R,0.700000X1.000000*%
%TD*%
%TA.AperFunction,SMDPad,CuDef*%
%ADD31R,0.700000X0.600000*%
%TD*%
%TA.AperFunction,SMDPad,CuDef*%
%ADD32RoundRect,0.140000X-0.140000X-0.170000X0.140000X-0.170000X0.140000X0.170000X-0.140000X0.170000X0*%
%TD*%
%TA.AperFunction,SMDPad,CuDef*%
%ADD33RoundRect,0.140000X0.140000X0.170000X-0.140000X0.170000X-0.140000X-0.170000X0.140000X-0.170000X0*%
%TD*%
%TA.AperFunction,SMDPad,CuDef*%
%ADD34RoundRect,0.140000X-0.021213X0.219203X-0.219203X0.021213X0.021213X-0.219203X0.219203X-0.021213X0*%
%TD*%
%TA.AperFunction,ViaPad*%
%ADD35C,0.800000*%
%TD*%
%TA.AperFunction,Conductor*%
%ADD36C,0.250000*%
%TD*%
%TA.AperFunction,Conductor*%
%ADD37C,0.200000*%
%TD*%
%TA.AperFunction,Conductor*%
%ADD38C,0.381000*%
%TD*%
G04 APERTURE END LIST*
D10*
X3175000Y25400000D02*
X269875000Y25400000D01*
X269875000Y25400000D02*
X269875000Y-136525000D01*
X269875000Y-136525000D02*
X3175000Y-136525000D01*
X3175000Y-136525000D02*
X3175000Y25400000D01*
D11*
D10*
X131429761Y-150797619D02*
X131477380Y-150750000D01*
X131572619Y-150702380D01*
X131810714Y-150702380D01*
X131905952Y-150750000D01*
X131953571Y-150797619D01*
X132001190Y-150892857D01*
X132001190Y-150988095D01*
X131953571Y-151130952D01*
X131382142Y-151702380D01*
X132001190Y-151702380D01*
X132858333Y-150702380D02*
X132667857Y-150702380D01*
X132572619Y-150750000D01*
X132525000Y-150797619D01*
X132429761Y-150940476D01*
X132382142Y-151130952D01*
X132382142Y-151511904D01*
X132429761Y-151607142D01*
X132477380Y-151654761D01*
X132572619Y-151702380D01*
X132763095Y-151702380D01*
X132858333Y-151654761D01*
X132905952Y-151607142D01*
X132953571Y-151511904D01*
X132953571Y-151273809D01*
X132905952Y-151178571D01*
X132858333Y-151130952D01*
X132763095Y-151083333D01*
X132572619Y-151083333D01*
X132477380Y-151130952D01*
X132429761Y-151178571D01*
X132382142Y-151273809D01*
X133810714Y-150702380D02*
X133620238Y-150702380D01*
X133525000Y-150750000D01*
X133477380Y-150797619D01*
X133382142Y-150940476D01*
X133334523Y-151130952D01*
X133334523Y-151511904D01*
X133382142Y-151607142D01*
X133429761Y-151654761D01*
X133525000Y-151702380D01*
X133715476Y-151702380D01*
X133810714Y-151654761D01*
X133858333Y-151607142D01*
X133905952Y-151511904D01*
X133905952Y-151273809D01*
X133858333Y-151178571D01*
X133810714Y-151130952D01*
X133715476Y-151083333D01*
X133525000Y-151083333D01*
X133429761Y-151130952D01*
X133382142Y-151178571D01*
X133334523Y-151273809D01*
X134334523Y-151607142D02*
X134382142Y-151654761D01*
X134334523Y-151702380D01*
X134286904Y-151654761D01*
X134334523Y-151607142D01*
X134334523Y-151702380D01*
X134715476Y-150702380D02*
X135382142Y-150702380D01*
X134953571Y-151702380D01*
X135953571Y-150702380D02*
X136048809Y-150702380D01*
X136144047Y-150750000D01*
X136191666Y-150797619D01*
X136239285Y-150892857D01*
X136286904Y-151083333D01*
X136286904Y-151321428D01*
X136239285Y-151511904D01*
X136191666Y-151607142D01*
X136144047Y-151654761D01*
X136048809Y-151702380D01*
X135953571Y-151702380D01*
X135858333Y-151654761D01*
X135810714Y-151607142D01*
X135763095Y-151511904D01*
X135715476Y-151321428D01*
X135715476Y-151083333D01*
X135763095Y-150892857D01*
X135810714Y-150797619D01*
X135858333Y-150750000D01*
X135953571Y-150702380D01*
X136905952Y-150702380D02*
X137001190Y-150702380D01*
X137096428Y-150750000D01*
X137144047Y-150797619D01*
X137191666Y-150892857D01*
X137239285Y-151083333D01*
X137239285Y-151321428D01*
X137191666Y-151511904D01*
X137144047Y-151607142D01*
X137096428Y-151654761D01*
X137001190Y-151702380D01*
X136905952Y-151702380D01*
X136810714Y-151654761D01*
X136763095Y-151607142D01*
X136715476Y-151511904D01*
X136667857Y-151321428D01*
X136667857Y-151083333D01*
X136715476Y-150892857D01*
X136763095Y-150797619D01*
X136810714Y-150750000D01*
X136905952Y-150702380D01*
X137858333Y-150702380D02*
X137953571Y-150702380D01*
X138048809Y-150750000D01*
X138096428Y-150797619D01*
X138144047Y-150892857D01*
X138191666Y-151083333D01*
X138191666Y-151321428D01*
X138144047Y-151511904D01*
X138096428Y-151607142D01*
X138048809Y-151654761D01*
X137953571Y-151702380D01*
X137858333Y-151702380D01*
X137763095Y-151654761D01*
X137715476Y-151607142D01*
X137667857Y-151511904D01*
X137620238Y-151321428D01*
X137620238Y-151083333D01*
X137667857Y-150892857D01*
X137715476Y-150797619D01*
X137763095Y-150750000D01*
X137858333Y-150702380D01*
X139382142Y-151702380D02*
X139382142Y-151035714D01*
X139382142Y-151130952D02*
X139429761Y-151083333D01*
X139525000Y-151035714D01*
X139667857Y-151035714D01*
X139763095Y-151083333D01*
X139810714Y-151178571D01*
X139810714Y-151702380D01*
X139810714Y-151178571D02*
X139858333Y-151083333D01*
X139953571Y-151035714D01*
X140096428Y-151035714D01*
X140191666Y-151083333D01*
X140239285Y-151178571D01*
X140239285Y-151702380D01*
X140715476Y-151702380D02*
X140715476Y-151035714D01*
X140715476Y-151130952D02*
X140763095Y-151083333D01*
X140858333Y-151035714D01*
X141001190Y-151035714D01*
X141096428Y-151083333D01*
X141144047Y-151178571D01*
X141144047Y-151702380D01*
X141144047Y-151178571D02*
X141191666Y-151083333D01*
X141286904Y-151035714D01*
X141429761Y-151035714D01*
X141525000Y-151083333D01*
X141572619Y-151178571D01*
X141572619Y-151702380D01*
X3175000Y-137025000D02*
X3175000Y-152986420D01*
X269875000Y-137025000D02*
X269875000Y-152986420D01*
X3175000Y-152400000D02*
X269875000Y-152400000D01*
X3175000Y-152400000D02*
X269875000Y-152400000D01*
X3175000Y-152400000D02*
X4301504Y-152986421D01*
X3175000Y-152400000D02*
X4301504Y-151813579D01*
X269875000Y-152400000D02*
X268748496Y-151813579D01*
X269875000Y-152400000D02*
X268748496Y-152986421D01*
D11*
D10*
X302514880Y-60086309D02*
X302514880Y-60657738D01*
X302514880Y-60372023D02*
X301514880Y-60372023D01*
X301657738Y-60467261D01*
X301752976Y-60562500D01*
X301800595Y-60657738D01*
X301514880Y-59229166D02*
X301514880Y-59419642D01*
X301562500Y-59514880D01*
X301610119Y-59562500D01*
X301752976Y-59657738D01*
X301943452Y-59705357D01*
X302324404Y-59705357D01*
X302419642Y-59657738D01*
X302467261Y-59610119D01*
X302514880Y-59514880D01*
X302514880Y-59324404D01*
X302467261Y-59229166D01*
X302419642Y-59181547D01*
X302324404Y-59133928D01*
X302086309Y-59133928D01*
X301991071Y-59181547D01*
X301943452Y-59229166D01*
X301895833Y-59324404D01*
X301895833Y-59514880D01*
X301943452Y-59610119D01*
X301991071Y-59657738D01*
X302086309Y-59705357D01*
X302514880Y-58181547D02*
X302514880Y-58752976D01*
X302514880Y-58467261D02*
X301514880Y-58467261D01*
X301657738Y-58562500D01*
X301752976Y-58657738D01*
X301800595Y-58752976D01*
X302419642Y-57752976D02*
X302467261Y-57705357D01*
X302514880Y-57752976D01*
X302467261Y-57800595D01*
X302419642Y-57752976D01*
X302514880Y-57752976D01*
X302514880Y-57229166D02*
X302514880Y-57038690D01*
X302467261Y-56943452D01*
X302419642Y-56895833D01*
X302276785Y-56800595D01*
X302086309Y-56752976D01*
X301705357Y-56752976D01*
X301610119Y-56800595D01*
X301562500Y-56848214D01*
X301514880Y-56943452D01*
X301514880Y-57133928D01*
X301562500Y-57229166D01*
X301610119Y-57276785D01*
X301705357Y-57324404D01*
X301943452Y-57324404D01*
X302038690Y-57276785D01*
X302086309Y-57229166D01*
X302133928Y-57133928D01*
X302133928Y-56943452D01*
X302086309Y-56848214D01*
X302038690Y-56800595D01*
X301943452Y-56752976D01*
X301610119Y-56372023D02*
X301562500Y-56324404D01*
X301514880Y-56229166D01*
X301514880Y-55991071D01*
X301562500Y-55895833D01*
X301610119Y-55848214D01*
X301705357Y-55800595D01*
X301800595Y-55800595D01*
X301943452Y-55848214D01*
X302514880Y-56419642D01*
X302514880Y-55800595D01*
X301514880Y-54895833D02*
X301514880Y-55372023D01*
X301991071Y-55419642D01*
X301943452Y-55372023D01*
X301895833Y-55276785D01*
X301895833Y-55038690D01*
X301943452Y-54943452D01*
X301991071Y-54895833D01*
X302086309Y-54848214D01*
X302324404Y-54848214D01*
X302419642Y-54895833D01*
X302467261Y-54943452D01*
X302514880Y-55038690D01*
X302514880Y-55276785D01*
X302467261Y-55372023D01*
X302419642Y-55419642D01*
X301514880Y-54229166D02*
X301514880Y-54133928D01*
X301562500Y-54038690D01*
X301610119Y-53991071D01*
X301705357Y-53943452D01*
X301895833Y-53895833D01*
X302133928Y-53895833D01*
X302324404Y-53943452D01*
X302419642Y-53991071D01*
X302467261Y-54038690D01*
X302514880Y-54133928D01*
X302514880Y-54229166D01*
X302467261Y-54324404D01*
X302419642Y-54372023D01*
X302324404Y-54419642D01*
X302133928Y-54467261D01*
X301895833Y-54467261D01*
X301705357Y-54419642D01*
X301610119Y-54372023D01*
X301562500Y-54324404D01*
X301514880Y-54229166D01*
X302514880Y-52705357D02*
X301848214Y-52705357D01*
X301943452Y-52705357D02*
X301895833Y-52657738D01*
X301848214Y-52562500D01*
X301848214Y-52419642D01*
X301895833Y-52324404D01*
X301991071Y-52276785D01*
X302514880Y-52276785D01*
X301991071Y-52276785D02*
X301895833Y-52229166D01*
X301848214Y-52133928D01*
X301848214Y-51991071D01*
X301895833Y-51895833D01*
X301991071Y-51848214D01*
X302514880Y-51848214D01*
X302514880Y-51372023D02*
X301848214Y-51372023D01*
X301943452Y-51372023D02*
X301895833Y-51324404D01*
X301848214Y-51229166D01*
X301848214Y-51086309D01*
X301895833Y-50991071D01*
X301991071Y-50943452D01*
X302514880Y-50943452D01*
X301991071Y-50943452D02*
X301895833Y-50895833D01*
X301848214Y-50800595D01*
X301848214Y-50657738D01*
X301895833Y-50562500D01*
X301991071Y-50514880D01*
X302514880Y-50514880D01*
X270375000Y25400000D02*
X303798920Y25400000D01*
X270375000Y-136525000D02*
X303798920Y-136525000D01*
X303212500Y25400000D02*
X303212500Y-136525000D01*
X303212500Y25400000D02*
X303212500Y-136525000D01*
X303212500Y25400000D02*
X302626079Y24273496D01*
X303212500Y25400000D02*
X303798921Y24273496D01*
X303212500Y-136525000D02*
X303798921Y-135398496D01*
X303212500Y-136525000D02*
X302626079Y-135398496D01*
D12*
%TO.P,SW33,1,1*%
%TO.N,COL2*%
X85090000Y-95885000D03*
%TO.P,SW33,2,2*%
%TO.N,Net-(D12-Pad2)*%
X91440000Y-93345000D03*
%TD*%
%TO.P,SW15,1,1*%
%TO.N,COL4*%
X123190000Y-57785000D03*
%TO.P,SW15,2,2*%
%TO.N,Net-(D18-Pad2)*%
X129540000Y-55245000D03*
%TD*%
%TO.P,SW36c1,1,1*%
%TO.N,COL4*%
X132715000Y-95885000D03*
%TO.P,SW36c1,2,2*%
%TO.N,Net-(D20-Pad2)*%
X139065000Y-93345000D03*
%TD*%
%TO.P,SW7,1,1*%
%TO.N,COL6*%
X151765000Y-38735000D03*
%TO.P,SW7,2,2*%
%TO.N,Net-(D26-Pad2)*%
X158115000Y-36195000D03*
%TD*%
%TO.P,SW27,1,1*%
%TO.N,COL6*%
X170815000Y-76835000D03*
%TO.P,SW27,2,2*%
%TO.N,Net-(D28-Pad2)*%
X177165000Y-74295000D03*
%TD*%
%TO.P,SW34b1,1,1*%
%TO.N,COL3*%
X104140000Y-95885000D03*
%TO.P,SW34b1,2,2*%
%TO.N,Net-(D16-Pad2)*%
X110490000Y-93345000D03*
%TD*%
%TO.P,SW14,1,1*%
%TO.N,COL3*%
X104140000Y-57785000D03*
%TO.P,SW14,2,2*%
%TO.N,Net-(D14-Pad2)*%
X110490000Y-55245000D03*
%TD*%
%TO.P,SW33a1,1,1*%
%TO.N,COL2*%
X75565000Y-95885000D03*
%TO.P,SW33a1,2,2*%
%TO.N,Net-(D12-Pad2)*%
X81915000Y-93345000D03*
%TD*%
%TO.P,SW9,1,1*%
%TO.N,COL8*%
X189865000Y-38735000D03*
%TO.P,SW9,2,2*%
%TO.N,Net-(D34-Pad2)*%
X196215000Y-36195000D03*
%TD*%
D13*
%TO.P,D42,1,K*%
%TO.N,GND*%
X236537500Y-45720000D03*
D14*
%TO.P,D42,2,A*%
%TO.N,Net-(D42-Pad2)*%
X236537500Y-43180000D03*
%TD*%
D12*
%TO.P,SW29,1,1*%
%TO.N,COL8*%
X208915000Y-76835000D03*
%TO.P,SW29,2,2*%
%TO.N,Net-(D36-Pad2)*%
X215265000Y-74295000D03*
%TD*%
%TO.P,SW8,1,1*%
%TO.N,COL7*%
X170815000Y-38735000D03*
%TO.P,SW8,2,2*%
%TO.N,Net-(D30-Pad2)*%
X177165000Y-36195000D03*
%TD*%
%TO.P,SW35b1,1,1*%
%TO.N,COL4*%
X113665000Y-95885000D03*
%TO.P,SW35b1,2,2*%
%TO.N,Net-(D20-Pad2)*%
X120015000Y-93345000D03*
%TD*%
%TO.P,SW2,1,1*%
%TO.N,COL1*%
X56515000Y-38735000D03*
%TO.P,SW2,2,2*%
%TO.N,Net-(D5-Pad2)*%
X62865000Y-36195000D03*
%TD*%
%TO.P,SW34,1,1*%
%TO.N,COL3*%
X104140000Y-95885000D03*
%TO.P,SW34,2,2*%
%TO.N,Net-(D16-Pad2)*%
X110490000Y-93345000D03*
%TD*%
%TO.P,SW1,1,1*%
%TO.N,N/C*%
X37465000Y-19685000D03*
%TO.P,SW1,2,2*%
X43815000Y-17145000D03*
%TD*%
%TO.P,SW24,1,1*%
%TO.N,COL3*%
X113665000Y-76835000D03*
%TO.P,SW24,2,2*%
%TO.N,Net-(D15-Pad2)*%
X120015000Y-74295000D03*
%TD*%
%TO.P,SW31,1,1*%
%TO.N,COL0*%
X42227500Y-95885000D03*
%TO.P,SW31,2,2*%
%TO.N,Net-(D4-Pad2)*%
X48577500Y-93345000D03*
%TD*%
%TO.P,SW37a1,1,1*%
%TO.N,COL6*%
X170815000Y-95885000D03*
%TO.P,SW37a1,2,2*%
%TO.N,Net-(D29-Pad2)*%
X177165000Y-93345000D03*
%TD*%
%TO.P,SW20,1,1*%
%TO.N,COL9*%
X218440000Y-57785000D03*
%TO.P,SW20,2,2*%
%TO.N,Net-(D39-Pad2)*%
X224790000Y-55245000D03*
%TD*%
%TO.P,SW5,1,1*%
%TO.N,COL4*%
X113665000Y-38735000D03*
%TO.P,SW5,2,2*%
%TO.N,Net-(D17-Pad2)*%
X120015000Y-36195000D03*
%TD*%
%TO.P,SW1,1,1*%
%TO.N,N/C*%
X37465000Y-114935000D03*
%TO.P,SW1,2,2*%
X43815000Y-112395000D03*
%TD*%
%TO.P,SW40a1,1,1*%
%TO.N,COL9*%
X227965000Y-95885000D03*
%TO.P,SW40a1,2,2*%
%TO.N,Net-(D41-Pad2)*%
X234315000Y-93345000D03*
%TD*%
%TO.P,SW35,1,1*%
%TO.N,COL4*%
X123190000Y-95885000D03*
%TO.P,SW35,2,2*%
%TO.N,Net-(D20-Pad2)*%
X129540000Y-93345000D03*
%TD*%
%TO.P,SW1,1,1*%
%TO.N,N/C*%
X18415000Y-38735000D03*
%TO.P,SW1,2,2*%
X24765000Y-36195000D03*
%TD*%
%TO.P,SW31a1,1,1*%
%TO.N,COL0*%
X37465000Y-95885000D03*
%TO.P,SW31a1,2,2*%
%TO.N,Net-(D4-Pad2)*%
X43815000Y-93345000D03*
%TD*%
%TO.P,SW38,1,1*%
%TO.N,COL7*%
X180340000Y-95885000D03*
%TO.P,SW38,2,2*%
%TO.N,Net-(D33-Pad2)*%
X186690000Y-93345000D03*
%TD*%
%TO.P,SW12,1,1*%
%TO.N,COL1*%
X66040000Y-57785000D03*
%TO.P,SW12,2,2*%
%TO.N,Net-(D6-Pad2)*%
X72390000Y-55245000D03*
%TD*%
%TO.P,SW22,1,1*%
%TO.N,COL1*%
X75565000Y-76835000D03*
%TO.P,SW22,2,2*%
%TO.N,Net-(D7-Pad2)*%
X81915000Y-74295000D03*
%TD*%
%TO.P,SW36a1,1,1*%
%TO.N,COL5*%
X147002500Y-95885000D03*
%TO.P,SW36a1,2,2*%
%TO.N,Net-(D24-Pad2)*%
X153352500Y-93345000D03*
%TD*%
%TO.P,SW36b1,1,1*%
%TO.N,COL5*%
X151765000Y-95885000D03*
%TO.P,SW36b1,2,2*%
%TO.N,Net-(D24-Pad2)*%
X158115000Y-93345000D03*
%TD*%
%TO.P,SW10,1,1*%
%TO.N,COL9*%
X208915000Y-38735000D03*
%TO.P,SW10,2,2*%
%TO.N,Net-(D38-Pad2)*%
X215265000Y-36195000D03*
%TD*%
D13*
%TO.P,D43,1,K*%
%TO.N,GND*%
X236537500Y-39370000D03*
D14*
%TO.P,D43,2,A*%
%TO.N,Net-(D43-Pad2)*%
X236537500Y-36830000D03*
%TD*%
D12*
%TO.P,SW35c1,1,1*%
%TO.N,COL4*%
X132715000Y-95885000D03*
%TO.P,SW35c1,2,2*%
%TO.N,Net-(D20-Pad2)*%
X139065000Y-93345000D03*
%TD*%
%TO.P,SW6,1,1*%
%TO.N,COL5*%
X132588000Y-38735000D03*
%TO.P,SW6,2,2*%
%TO.N,Net-(D21-Pad2)*%
X138938000Y-36195000D03*
%TD*%
%TO.P,SW19,1,1*%
%TO.N,COL8*%
X199390000Y-57785000D03*
%TO.P,SW19,2,2*%
%TO.N,Net-(D35-Pad2)*%
X205740000Y-55245000D03*
%TD*%
%TO.P,SW3,1,1*%
%TO.N,COL2*%
X75565000Y-38735000D03*
%TO.P,SW3,2,2*%
%TO.N,Net-(D9-Pad2)*%
X81915000Y-36195000D03*
%TD*%
%TO.P,SW1,1,1*%
%TO.N,N/C*%
X8890000Y-38735000D03*
%TO.P,SW1,2,2*%
X15240000Y-36195000D03*
%TD*%
%TO.P,SW17,1,1*%
%TO.N,COL6*%
X161290000Y-57785000D03*
%TO.P,SW17,2,2*%
%TO.N,Net-(D27-Pad2)*%
X167640000Y-55245000D03*
%TD*%
%TO.P,SW39,1,1*%
%TO.N,COL8*%
X199390000Y-95885000D03*
%TO.P,SW39,2,2*%
%TO.N,Net-(D37-Pad2)*%
X205740000Y-93345000D03*
%TD*%
%TO.P,SW11,1,1*%
%TO.N,COL0*%
X46990000Y-57785000D03*
%TO.P,SW11,2,2*%
%TO.N,Net-(D2-Pad2)*%
X53340000Y-55245000D03*
%TD*%
%TO.P,SW21,1,1*%
%TO.N,COL0*%
X56515000Y-76835000D03*
%TO.P,SW21,2,2*%
%TO.N,Net-(D3-Pad2)*%
X62865000Y-74295000D03*
%TD*%
%TO.P,SW16,1,1*%
%TO.N,COL5*%
X142240000Y-57785000D03*
%TO.P,SW16,2,2*%
%TO.N,Net-(D22-Pad2)*%
X148590000Y-55245000D03*
%TD*%
%TO.P,SW18,1,1*%
%TO.N,COL7*%
X180340000Y-57785000D03*
%TO.P,SW18,2,2*%
%TO.N,Net-(D31-Pad2)*%
X186690000Y-55245000D03*
%TD*%
%TO.P,SW1,1,1*%
%TO.N,N/C*%
X256540000Y-76835000D03*
%TO.P,SW1,2,2*%
X262890000Y-74295000D03*
%TD*%
%TO.P,SW32a1,1,1*%
%TO.N,COL1*%
X56515000Y-95885000D03*
%TO.P,SW32a1,2,2*%
%TO.N,Net-(D8-Pad2)*%
X62865000Y-93345000D03*
%TD*%
%TO.P,SW1,1,1*%
%TO.N,N/C*%
X37465000Y-124460000D03*
%TO.P,SW1,2,2*%
X43815000Y-121920000D03*
%TD*%
%TO.P,SW37b1,1,1*%
%TO.N,COL6*%
X161290000Y-95885000D03*
%TO.P,SW37b1,2,2*%
%TO.N,Net-(D29-Pad2)*%
X167640000Y-93345000D03*
%TD*%
%TO.P,SW1,1,1*%
%TO.N,N/C*%
X247015000Y-76835000D03*
%TO.P,SW1,2,2*%
X253365000Y-74295000D03*
%TD*%
%TO.P,SW34a1,1,1*%
%TO.N,COL3*%
X94615000Y-95885000D03*
%TO.P,SW34a1,2,2*%
%TO.N,Net-(D16-Pad2)*%
X100965000Y-93345000D03*
%TD*%
%TO.P,SW36,1,1*%
%TO.N,COL5*%
X142240000Y-95885000D03*
%TO.P,SW36,2,2*%
%TO.N,Net-(D24-Pad2)*%
X148590000Y-93345000D03*
%TD*%
%TO.P,SW28,1,1*%
%TO.N,COL7*%
X189865000Y-76835000D03*
%TO.P,SW28,2,2*%
%TO.N,Net-(D32-Pad2)*%
X196215000Y-74295000D03*
%TD*%
%TO.P,SW1,1,1*%
%TO.N,COL0*%
X37465000Y-38735000D03*
%TO.P,SW1,2,2*%
%TO.N,Net-(D1-Pad2)*%
X43815000Y-36195000D03*
%TD*%
%TO.P,SW40,1,1*%
%TO.N,COL9*%
X223202500Y-95885000D03*
%TO.P,SW40,2,2*%
%TO.N,Net-(D41-Pad2)*%
X229552500Y-93345000D03*
%TD*%
%TO.P,SW39a1,1,1*%
%TO.N,COL8*%
X208915000Y-95885000D03*
%TO.P,SW39a1,2,2*%
%TO.N,Net-(D37-Pad2)*%
X215265000Y-93345000D03*
%TD*%
%TO.P,SW37,1,1*%
%TO.N,COL6*%
X161290000Y-95885000D03*
%TO.P,SW37,2,2*%
%TO.N,Net-(D29-Pad2)*%
X167640000Y-93345000D03*
%TD*%
%TO.P,SW1,1,1*%
%TO.N,N/C*%
X37465000Y-635000D03*
%TO.P,SW1,2,2*%
X43815000Y1905000D03*
%TD*%
%TO.P,SW4,1,1*%
%TO.N,COL3*%
X94615000Y-38735000D03*
%TO.P,SW4,2,2*%
%TO.N,Net-(D13-Pad2)*%
X100965000Y-36195000D03*
%TD*%
%TO.P,SW35a1,1,1*%
%TO.N,COL4*%
X118427500Y-95885000D03*
%TO.P,SW35a1,2,2*%
%TO.N,Net-(D20-Pad2)*%
X124777500Y-93345000D03*
%TD*%
%TO.P,SW32,1,1*%
%TO.N,COL1*%
X66040000Y-95885000D03*
%TO.P,SW32,2,2*%
%TO.N,Net-(D8-Pad2)*%
X72390000Y-93345000D03*
%TD*%
%TO.P,SW26,1,1*%
%TO.N,COL5*%
X151765000Y-76835000D03*
%TO.P,SW26,2,2*%
%TO.N,Net-(D23-Pad2)*%
X158115000Y-74295000D03*
%TD*%
%TO.P,SW30,1,1*%
%TO.N,COL9*%
X227965000Y-76835000D03*
%TO.P,SW30,2,2*%
%TO.N,Net-(D40-Pad2)*%
X234315000Y-74295000D03*
%TD*%
%TO.P,SW38a1,1,1*%
%TO.N,COL7*%
X189865000Y-95885000D03*
%TO.P,SW38a1,2,2*%
%TO.N,Net-(D33-Pad2)*%
X196215000Y-93345000D03*
%TD*%
%TO.P,SW13,1,1*%
%TO.N,COL2*%
X85090000Y-57785000D03*
%TO.P,SW13,2,2*%
%TO.N,Net-(D10-Pad2)*%
X91440000Y-55245000D03*
%TD*%
%TO.P,SW1,1,1*%
%TO.N,N/C*%
X37465000Y18415000D03*
%TO.P,SW1,2,2*%
X43815000Y20955000D03*
%TD*%
%TO.P,SW25,1,1*%
%TO.N,COL4*%
X132715000Y-76835000D03*
%TO.P,SW25,2,2*%
%TO.N,Net-(D19-Pad2)*%
X139065000Y-74295000D03*
%TD*%
%TO.P,SW23,1,1*%
%TO.N,COL2*%
X94615000Y-76835000D03*
%TO.P,SW23,2,2*%
%TO.N,Net-(D11-Pad2)*%
X100965000Y-74295000D03*
%TD*%
D15*
%TO.P,D29,1,K*%
%TO.N,ROW3*%
X177800000Y-103250000D03*
%TO.P,D29,2,A*%
%TO.N,Net-(D29-Pad2)*%
X177800000Y-99950000D03*
%TD*%
%TO.P,D6,1,K*%
%TO.N,ROW1*%
X73025000Y-61975000D03*
%TO.P,D6,2,A*%
%TO.N,Net-(D6-Pad2)*%
X73025000Y-58675000D03*
%TD*%
D16*
%TO.P,C1,1*%
%TO.N,+5V*%
X38925500Y-67119250D03*
%TO.P,C1,2*%
%TO.N,GND*%
X38925500Y-66159250D03*
%TD*%
D15*
%TO.P,D14,1,K*%
%TO.N,ROW1*%
X111125000Y-61975000D03*
%TO.P,D14,2,A*%
%TO.N,Net-(D14-Pad2)*%
X111125000Y-58675000D03*
%TD*%
%TO.P,D40,1,K*%
%TO.N,ROW2*%
X234950000Y-81025000D03*
%TO.P,D40,2,A*%
%TO.N,Net-(D40-Pad2)*%
X234950000Y-77725000D03*
%TD*%
%TO.P,D8,1,K*%
%TO.N,ROW3*%
X73025000Y-103250000D03*
%TO.P,D8,2,A*%
%TO.N,Net-(D8-Pad2)*%
X73025000Y-99950000D03*
%TD*%
%TO.P,D3,1,K*%
%TO.N,ROW2*%
X63500000Y-81025000D03*
%TO.P,D3,2,A*%
%TO.N,Net-(D3-Pad2)*%
X63500000Y-77725000D03*
%TD*%
%TO.P,D36,1,K*%
%TO.N,ROW2*%
X215900000Y-81025000D03*
%TO.P,D36,2,A*%
%TO.N,Net-(D36-Pad2)*%
X215900000Y-77725000D03*
%TD*%
%TO.P,D32,1,K*%
%TO.N,ROW2*%
X196850000Y-81025000D03*
%TO.P,D32,2,A*%
%TO.N,Net-(D32-Pad2)*%
X196850000Y-77725000D03*
%TD*%
D16*
%TO.P,C4,1*%
%TO.N,GND*%
X38798500Y-63817250D03*
%TO.P,C4,2*%
%TO.N,XTAL2*%
X38798500Y-62857250D03*
%TD*%
D15*
%TO.P,D1,1,K*%
%TO.N,ROW0*%
X44450000Y-42925000D03*
%TO.P,D1,2,A*%
%TO.N,Net-(D1-Pad2)*%
X44450000Y-39625000D03*
%TD*%
D17*
%TO.P,R4,1*%
%TO.N,Net-(R4-Pad1)*%
X47115000Y-75438000D03*
%TO.P,R4,2*%
%TO.N,GND*%
X48135000Y-75438000D03*
%TD*%
D18*
%TO.P,Y1,1,1*%
%TO.N,XTAL1*%
X43454500Y-64187250D03*
%TO.P,Y1,2,2*%
%TO.N,GND*%
X41254500Y-64187250D03*
%TO.P,Y1,3,3*%
%TO.N,XTAL2*%
X41254500Y-62487250D03*
%TO.P,Y1,4,4*%
%TO.N,GND*%
X43454500Y-62487250D03*
%TD*%
D15*
%TO.P,D15,1,K*%
%TO.N,ROW2*%
X120650000Y-81025000D03*
%TO.P,D15,2,A*%
%TO.N,Net-(D15-Pad2)*%
X120650000Y-77725000D03*
%TD*%
D19*
%TO.P,U1,1,PE6*%
%TO.N,unconnected-(U1-Pad1)*%
X38699500Y-74917750D03*
%TO.P,U1,2,UVCC*%
%TO.N,+5V*%
X38699500Y-74417750D03*
%TO.P,U1,3,D-*%
%TO.N,Net-(R1-Pad2)*%
X38699500Y-73917750D03*
%TO.P,U1,4,D+*%
%TO.N,Net-(R2-Pad2)*%
X38699500Y-73417750D03*
%TO.P,U1,5,UGND*%
%TO.N,GND*%
X38699500Y-72917750D03*
%TO.P,U1,6,UCAP*%
%TO.N,Net-(C6-Pad1)*%
X38699500Y-72417750D03*
%TO.P,U1,7,VBUS*%
%TO.N,+5V*%
X38699500Y-71917750D03*
%TO.P,U1,8,PB0*%
%TO.N,unconnected-(U1-Pad8)*%
X38699500Y-71417750D03*
%TO.P,U1,9,PB1*%
%TO.N,unconnected-(U1-Pad9)*%
X38699500Y-70917750D03*
%TO.P,U1,10,PB2*%
%TO.N,unconnected-(U1-Pad10)*%
X38699500Y-70417750D03*
%TO.P,U1,11,PB3*%
%TO.N,unconnected-(U1-Pad11)*%
X38699500Y-69917750D03*
D20*
%TO.P,U1,12,PB7*%
%TO.N,unconnected-(U1-Pad12)*%
X39537000Y-69080250D03*
%TO.P,U1,13,~{RESET}*%
%TO.N,RESET*%
X40037000Y-69080250D03*
%TO.P,U1,14,VCC*%
%TO.N,+5V*%
X40537000Y-69080250D03*
%TO.P,U1,15,GND*%
%TO.N,GND*%
X41037000Y-69080250D03*
%TO.P,U1,16,XTAL2*%
%TO.N,XTAL2*%
X41537000Y-69080250D03*
%TO.P,U1,17,XTAL1*%
%TO.N,XTAL1*%
X42037000Y-69080250D03*
%TO.P,U1,18,PD0*%
%TO.N,SCK*%
X42537000Y-69080250D03*
%TO.P,U1,19,PD1*%
%TO.N,MOSI*%
X43037000Y-69080250D03*
%TO.P,U1,20,PD2*%
%TO.N,MISO*%
X43537000Y-69080250D03*
%TO.P,U1,21,PD3*%
%TO.N,LED Power*%
X44037000Y-69080250D03*
%TO.P,U1,22,PD5*%
%TO.N,LED capslock*%
X44537000Y-69080250D03*
D19*
%TO.P,U1,23,GND*%
%TO.N,GND*%
X45374500Y-69917750D03*
%TO.P,U1,24,AVCC*%
%TO.N,+5V*%
X45374500Y-70417750D03*
%TO.P,U1,25,PD4*%
%TO.N,ROW1*%
X45374500Y-70917750D03*
%TO.P,U1,26,PD6*%
%TO.N,ROW0*%
X45374500Y-71417750D03*
%TO.P,U1,27,PD7*%
%TO.N,ROW3*%
X45374500Y-71917750D03*
%TO.P,U1,28,PB4*%
%TO.N,ROW2*%
X45374500Y-72417750D03*
%TO.P,U1,29,PB5*%
%TO.N,COL9*%
X45374500Y-72917750D03*
%TO.P,U1,30,PB6*%
%TO.N,COL8*%
X45374500Y-73417750D03*
%TO.P,U1,31,PC6*%
%TO.N,COL7*%
X45374500Y-73917750D03*
%TO.P,U1,32,PC7*%
%TO.N,COL6*%
X45374500Y-74417750D03*
%TO.P,U1,33,~{HWB}/PE2*%
%TO.N,Net-(R4-Pad1)*%
X45374500Y-74917750D03*
D20*
%TO.P,U1,34,VCC*%
%TO.N,+5V*%
X44537000Y-75755250D03*
%TO.P,U1,35,GND*%
%TO.N,GND*%
X44037000Y-75755250D03*
%TO.P,U1,36,PF7*%
%TO.N,COL5*%
X43537000Y-75755250D03*
%TO.P,U1,37,PF6*%
%TO.N,COL4*%
X43037000Y-75755250D03*
%TO.P,U1,38,PF5*%
%TO.N,COL3*%
X42537000Y-75755250D03*
%TO.P,U1,39,PF4*%
%TO.N,COL2*%
X42037000Y-75755250D03*
%TO.P,U1,40,PF1*%
%TO.N,COL1*%
X41537000Y-75755250D03*
%TO.P,U1,41,PF0*%
%TO.N,COL0*%
X41037000Y-75755250D03*
%TO.P,U1,42,AREF*%
%TO.N,unconnected-(U1-Pad42)*%
X40537000Y-75755250D03*
%TO.P,U1,43,GND*%
%TO.N,GND*%
X40037000Y-75755250D03*
%TO.P,U1,44,AVCC*%
%TO.N,+5V*%
X39537000Y-75755250D03*
D21*
%TO.P,U1,45,GND*%
%TO.N,GND*%
X42037000Y-72417750D03*
%TD*%
D15*
%TO.P,D34,1,K*%
%TO.N,ROW0*%
X196850000Y-42925000D03*
%TO.P,D34,2,A*%
%TO.N,Net-(D34-Pad2)*%
X196850000Y-39625000D03*
%TD*%
%TO.P,D23,1,K*%
%TO.N,ROW2*%
X158750000Y-81025000D03*
%TO.P,D23,2,A*%
%TO.N,Net-(D23-Pad2)*%
X158750000Y-77725000D03*
%TD*%
%TO.P,D21,1,K*%
%TO.N,ROW0*%
X139700000Y-42925000D03*
%TO.P,D21,2,A*%
%TO.N,Net-(D21-Pad2)*%
X139700000Y-39625000D03*
%TD*%
%TO.P,D39,1,K*%
%TO.N,ROW1*%
X225425000Y-61975000D03*
%TO.P,D39,2,A*%
%TO.N,Net-(D39-Pad2)*%
X225425000Y-58675000D03*
%TD*%
%TO.P,D30,1,K*%
%TO.N,ROW0*%
X177800000Y-42925000D03*
%TO.P,D30,2,A*%
%TO.N,Net-(D30-Pad2)*%
X177800000Y-39625000D03*
%TD*%
%TO.P,D41,1,K*%
%TO.N,ROW3*%
X234950000Y-103250000D03*
%TO.P,D41,2,A*%
%TO.N,Net-(D41-Pad2)*%
X234950000Y-99950000D03*
%TD*%
%TO.P,D20,1,K*%
%TO.N,ROW3*%
X139700000Y-103250000D03*
%TO.P,D20,2,A*%
%TO.N,Net-(D20-Pad2)*%
X139700000Y-99950000D03*
%TD*%
%TO.P,D24,1,K*%
%TO.N,ROW3*%
X158750000Y-103250000D03*
%TO.P,D24,2,A*%
%TO.N,Net-(D24-Pad2)*%
X158750000Y-99950000D03*
%TD*%
D22*
%TO.P,F1,1*%
%TO.N,VCC*%
X233807000Y-47368000D03*
%TO.P,F1,2*%
%TO.N,+5V*%
X233807000Y-50168000D03*
%TD*%
D15*
%TO.P,D26,1,K*%
%TO.N,ROW0*%
X158750000Y-42925000D03*
%TO.P,D26,2,A*%
%TO.N,Net-(D26-Pad2)*%
X158750000Y-39625000D03*
%TD*%
%TO.P,D22,1,K*%
%TO.N,ROW1*%
X149225000Y-61975000D03*
%TO.P,D22,2,A*%
%TO.N,Net-(D22-Pad2)*%
X149225000Y-58675000D03*
%TD*%
D23*
%TO.P,J1,*%
%TO.N,*%
X223837500Y-35300000D03*
X223837500Y-40900000D03*
D24*
%TO.P,J1,1,Pin_1*%
%TO.N,VCC*%
X227712500Y-39600000D03*
%TO.P,J1,2,Pin_2*%
%TO.N,D-*%
X227712500Y-38600000D03*
%TO.P,J1,3,Pin_3*%
%TO.N,D+*%
X227712500Y-37600000D03*
%TO.P,J1,4,Pin_4*%
%TO.N,GND*%
X227712500Y-36600000D03*
%TD*%
D15*
%TO.P,D13,1,K*%
%TO.N,ROW0*%
X101600000Y-42925000D03*
%TO.P,D13,2,A*%
%TO.N,Net-(D13-Pad2)*%
X101600000Y-39625000D03*
%TD*%
D25*
%TO.P,J2,1,MISO*%
%TO.N,MISO*%
X38227000Y-52959000D03*
%TO.P,J2,2,VCC*%
%TO.N,+5V*%
X35687000Y-52959000D03*
%TO.P,J2,3,SCK*%
%TO.N,SCK*%
X38227000Y-55499000D03*
%TO.P,J2,4,MOSI*%
%TO.N,MOSI*%
X35687000Y-55499000D03*
%TO.P,J2,5,~{RST}*%
%TO.N,RESET*%
X38227000Y-58039000D03*
D26*
%TO.P,J2,6,GND*%
%TO.N,GND*%
X35687000Y-58039000D03*
%TD*%
D27*
%TO.P,C3,1*%
%TO.N,GND*%
X45783500Y-62857250D03*
%TO.P,C3,2*%
%TO.N,XTAL1*%
X45783500Y-63817250D03*
%TD*%
D15*
%TO.P,D7,1,K*%
%TO.N,ROW2*%
X82550000Y-81025000D03*
%TO.P,D7,2,A*%
%TO.N,Net-(D7-Pad2)*%
X82550000Y-77725000D03*
%TD*%
%TO.P,D4,1,K*%
%TO.N,ROW3*%
X49212500Y-103250000D03*
%TO.P,D4,2,A*%
%TO.N,Net-(D4-Pad2)*%
X49212500Y-99950000D03*
%TD*%
D17*
%TO.P,R2,1*%
%TO.N,D+*%
X34351500Y-73243250D03*
%TO.P,R2,2*%
%TO.N,Net-(R2-Pad2)*%
X35371500Y-73243250D03*
%TD*%
D15*
%TO.P,D38,1,K*%
%TO.N,ROW0*%
X215900000Y-42925000D03*
%TO.P,D38,2,A*%
%TO.N,Net-(D38-Pad2)*%
X215900000Y-39625000D03*
%TD*%
D28*
%TO.P,R3,1*%
%TO.N,+5V*%
X36068000Y-66065750D03*
%TO.P,R3,2*%
%TO.N,RESET*%
X36068000Y-67085750D03*
%TD*%
D15*
%TO.P,D31,1,K*%
%TO.N,ROW1*%
X187325000Y-61975000D03*
%TO.P,D31,2,A*%
%TO.N,Net-(D31-Pad2)*%
X187325000Y-58675000D03*
%TD*%
%TO.P,D2,1,K*%
%TO.N,ROW1*%
X53975000Y-61975000D03*
%TO.P,D2,2,A*%
%TO.N,Net-(D2-Pad2)*%
X53975000Y-58675000D03*
%TD*%
%TO.P,D9,1,K*%
%TO.N,ROW0*%
X82550000Y-42925000D03*
%TO.P,D9,2,A*%
%TO.N,Net-(D9-Pad2)*%
X82550000Y-39625000D03*
%TD*%
%TO.P,D12,1,K*%
%TO.N,ROW3*%
X92075000Y-103250000D03*
%TO.P,D12,2,A*%
%TO.N,Net-(D12-Pad2)*%
X92075000Y-99950000D03*
%TD*%
%TO.P,D35,1,K*%
%TO.N,ROW1*%
X206375000Y-61975000D03*
%TO.P,D35,2,A*%
%TO.N,Net-(D35-Pad2)*%
X206375000Y-58675000D03*
%TD*%
D29*
%TO.P,R9,1*%
%TO.N,LED capslock*%
X239769074Y-38610000D03*
%TO.P,R9,2*%
%TO.N,Net-(D43-Pad2)*%
X239769074Y-37590000D03*
%TD*%
D15*
%TO.P,D33,1,K*%
%TO.N,ROW3*%
X196850000Y-103250000D03*
%TO.P,D33,2,A*%
%TO.N,Net-(D33-Pad2)*%
X196850000Y-99950000D03*
%TD*%
%TO.P,D17,1,K*%
%TO.N,ROW0*%
X120650000Y-42862500D03*
%TO.P,D17,2,A*%
%TO.N,Net-(D17-Pad2)*%
X120650000Y-39562500D03*
%TD*%
%TO.P,D27,1,K*%
%TO.N,ROW1*%
X168275000Y-61975000D03*
%TO.P,D27,2,A*%
%TO.N,Net-(D27-Pad2)*%
X168275000Y-58675000D03*
%TD*%
D30*
%TO.P,D25,1,GND*%
%TO.N,GND*%
X229505000Y-46851000D03*
D31*
%TO.P,D25,2,I/O1*%
%TO.N,D-*%
X229505000Y-45151000D03*
%TO.P,D25,3,I/O2*%
%TO.N,D+*%
X231505000Y-45151000D03*
%TO.P,D25,4,VCC*%
%TO.N,VCC*%
X231505000Y-47051000D03*
%TD*%
D15*
%TO.P,D16,1,K*%
%TO.N,ROW3*%
X111125000Y-103250000D03*
%TO.P,D16,2,A*%
%TO.N,Net-(D16-Pad2)*%
X111125000Y-99950000D03*
%TD*%
%TO.P,D28,1,K*%
%TO.N,ROW2*%
X177800000Y-81025000D03*
%TO.P,D28,2,A*%
%TO.N,Net-(D28-Pad2)*%
X177800000Y-77725000D03*
%TD*%
%TO.P,D18,1,K*%
%TO.N,ROW1*%
X130175000Y-61975000D03*
%TO.P,D18,2,A*%
%TO.N,Net-(D18-Pad2)*%
X130175000Y-58675000D03*
%TD*%
D29*
%TO.P,R8,1*%
%TO.N,LED Power*%
X239712500Y-44960000D03*
%TO.P,R8,2*%
%TO.N,Net-(D42-Pad2)*%
X239712500Y-43940000D03*
%TD*%
D15*
%TO.P,D5,1,K*%
%TO.N,ROW0*%
X63500000Y-42925000D03*
%TO.P,D5,2,A*%
%TO.N,Net-(D5-Pad2)*%
X63500000Y-39625000D03*
%TD*%
%TO.P,D19,1,K*%
%TO.N,ROW2*%
X139700000Y-81025000D03*
%TO.P,D19,2,A*%
%TO.N,Net-(D19-Pad2)*%
X139700000Y-77725000D03*
%TD*%
D32*
%TO.P,C5,1*%
%TO.N,+5V*%
X47018000Y-70104000D03*
%TO.P,C5,2*%
%TO.N,GND*%
X47978000Y-70104000D03*
%TD*%
D15*
%TO.P,D10,1,K*%
%TO.N,ROW1*%
X92075000Y-61975000D03*
%TO.P,D10,2,A*%
%TO.N,Net-(D10-Pad2)*%
X92075000Y-58675000D03*
%TD*%
D17*
%TO.P,R1,1*%
%TO.N,D-*%
X34351500Y-74259250D03*
%TO.P,R1,2*%
%TO.N,Net-(R1-Pad2)*%
X35371500Y-74259250D03*
%TD*%
D27*
%TO.P,C7,1*%
%TO.N,+5V*%
X44831000Y-77371000D03*
%TO.P,C7,2*%
%TO.N,GND*%
X44831000Y-78331000D03*
%TD*%
D33*
%TO.P,C6,1*%
%TO.N,Net-(C6-Pad1)*%
X36230500Y-72100250D03*
%TO.P,C6,2*%
%TO.N,GND*%
X35270500Y-72100250D03*
%TD*%
D15*
%TO.P,D37,1,K*%
%TO.N,ROW3*%
X215900000Y-103250000D03*
%TO.P,D37,2,A*%
%TO.N,Net-(D37-Pad2)*%
X215900000Y-99950000D03*
%TD*%
D34*
%TO.P,C2,1*%
%TO.N,+5V*%
X37359911Y-77094839D03*
%TO.P,C2,2*%
%TO.N,GND*%
X36681089Y-77773661D03*
%TD*%
D33*
%TO.P,C8,1*%
%TO.N,+5V*%
X35595500Y-70957250D03*
%TO.P,C8,2*%
%TO.N,GND*%
X34635500Y-70957250D03*
%TD*%
D15*
%TO.P,D11,1,K*%
%TO.N,ROW2*%
X101600000Y-81025000D03*
%TO.P,D11,2,A*%
%TO.N,Net-(D11-Pad2)*%
X101600000Y-77725000D03*
%TD*%
D35*
%TO.N,MOSI*%
X61230497Y-61969401D03*
X61230497Y-63418401D03*
%TO.N,MISO*%
X62230000Y-63418401D03*
X62230000Y-61969401D03*
%TO.N,LED capslock*%
X237292652Y-66599500D03*
X239299500Y-66675000D03*
%TO.N,LED Power*%
X237280353Y-65405000D03*
X239299500Y-65405000D03*
%TO.N,GND*%
X239649000Y-58674000D03*
X35877500Y-78577250D03*
X35687000Y-59690000D03*
X49407299Y-68702701D03*
X34353500Y-72100250D03*
X49022000Y-75438000D03*
X236534647Y-41127157D03*
X33865500Y-70953717D03*
X44831000Y-79375000D03*
X228346000Y-47498000D03*
X229751671Y-36616701D03*
X236537500Y-47476835D03*
%TO.N,+5V*%
X35246463Y-69442014D03*
X45720000Y-77851000D03*
X36258500Y-76672250D03*
X35433000Y-65432750D03*
X38114235Y-66667544D03*
X47498500Y-69114000D03*
%TO.N,SCK*%
X60231020Y-63425536D03*
X60230994Y-61969401D03*
%TO.N,ROW0*%
X228805500Y-43688000D03*
X238431195Y-62654597D03*
%TO.N,RESET*%
X36957000Y-49718000D03*
X229455500Y-49703748D03*
X36957000Y-59817000D03*
%TD*%
D36*
%TO.N,Net-(D1-Pad2)*%
X43815000Y-36195000D02*
X44450000Y-36830000D01*
X44450000Y-36830000D02*
X44450000Y-39625000D01*
%TO.N,Net-(D2-Pad2)*%
X53975000Y-55880000D02*
X53975000Y-58675000D01*
X53340000Y-55245000D02*
X53975000Y-55880000D01*
%TO.N,Net-(D3-Pad2)*%
X63500000Y-74930000D02*
X63500000Y-77725000D01*
X62865000Y-74295000D02*
X63500000Y-74930000D01*
%TO.N,Net-(D4-Pad2)*%
X43815000Y-93345000D02*
X48577500Y-93345000D01*
X48577500Y-93345000D02*
X49212500Y-93980000D01*
X49212500Y-93980000D02*
X49212500Y-99950000D01*
%TO.N,Net-(D5-Pad2)*%
X63500000Y-36830000D02*
X63500000Y-39625000D01*
X62865000Y-36195000D02*
X63500000Y-36830000D01*
%TO.N,Net-(D6-Pad2)*%
X73025000Y-55880000D02*
X73025000Y-58675000D01*
X72390000Y-55245000D02*
X73025000Y-55880000D01*
%TO.N,Net-(D7-Pad2)*%
X81915000Y-74295000D02*
X82550000Y-74930000D01*
X82550000Y-74930000D02*
X82550000Y-77725000D01*
%TO.N,Net-(D8-Pad2)*%
X72390000Y-93345000D02*
X73025000Y-93980000D01*
X73025000Y-93980000D02*
X73025000Y-99950000D01*
X62865000Y-93345000D02*
X72390000Y-93345000D01*
%TO.N,Net-(D9-Pad2)*%
X81915000Y-36195000D02*
X82550000Y-36830000D01*
X82550000Y-36830000D02*
X82550000Y-39625000D01*
%TO.N,Net-(D10-Pad2)*%
X91440000Y-55245000D02*
X92075000Y-55880000D01*
X92075000Y-55880000D02*
X92075000Y-58675000D01*
%TO.N,Net-(D11-Pad2)*%
X100965000Y-74295000D02*
X101600000Y-74930000D01*
X101600000Y-74930000D02*
X101600000Y-77725000D01*
%TO.N,Net-(D12-Pad2)*%
X92075000Y-93980000D02*
X92075000Y-99950000D01*
X81915000Y-93345000D02*
X91440000Y-93345000D01*
X91440000Y-93345000D02*
X92075000Y-93980000D01*
%TO.N,Net-(D13-Pad2)*%
X100965000Y-36195000D02*
X101600000Y-36830000D01*
X101600000Y-36830000D02*
X101600000Y-39625000D01*
%TO.N,Net-(D14-Pad2)*%
X111125000Y-55880000D02*
X111125000Y-58675000D01*
X110490000Y-55245000D02*
X111125000Y-55880000D01*
%TO.N,Net-(D15-Pad2)*%
X120650000Y-74930000D02*
X120650000Y-77725000D01*
X120015000Y-74295000D02*
X120650000Y-74930000D01*
%TO.N,Net-(D17-Pad2)*%
X120650000Y-36830000D02*
X120650000Y-39562500D01*
X120015000Y-36195000D02*
X120650000Y-36830000D01*
%TO.N,Net-(D18-Pad2)*%
X129540000Y-55245000D02*
X130175000Y-55880000D01*
X130175000Y-55880000D02*
X130175000Y-58675000D01*
%TO.N,Net-(D19-Pad2)*%
X139065000Y-74295000D02*
X139700000Y-74930000D01*
X139700000Y-74930000D02*
X139700000Y-77725000D01*
%TO.N,Net-(D20-Pad2)*%
X139700000Y-93980000D02*
X139700000Y-99950000D01*
X120015000Y-93345000D02*
X124777500Y-93345000D01*
X124777500Y-93345000D02*
X129540000Y-93345000D01*
X139065000Y-93345000D02*
X139700000Y-93980000D01*
X129540000Y-93345000D02*
X139065000Y-93345000D01*
%TO.N,Net-(D21-Pad2)*%
X139700000Y-36957000D02*
X139700000Y-39625000D01*
X138938000Y-36195000D02*
X139700000Y-36957000D01*
%TO.N,Net-(D22-Pad2)*%
X149225000Y-55880000D02*
X149225000Y-58675000D01*
X148590000Y-55245000D02*
X149225000Y-55880000D01*
%TO.N,Net-(D23-Pad2)*%
X158750000Y-74930000D02*
X158750000Y-77725000D01*
X158115000Y-74295000D02*
X158750000Y-74930000D01*
%TO.N,Net-(D26-Pad2)*%
X158115000Y-36195000D02*
X158750000Y-36830000D01*
X158750000Y-36830000D02*
X158750000Y-39625000D01*
%TO.N,Net-(D27-Pad2)*%
X167640000Y-55245000D02*
X168275000Y-55880000D01*
X168275000Y-55880000D02*
X168275000Y-58675000D01*
%TO.N,Net-(D28-Pad2)*%
X177800000Y-74930000D02*
X177800000Y-77725000D01*
X177165000Y-74295000D02*
X177800000Y-74930000D01*
%TO.N,Net-(D29-Pad2)*%
X177800000Y-93980000D02*
X177800000Y-99950000D01*
X177165000Y-93345000D02*
X177800000Y-93980000D01*
X167640000Y-93345000D02*
X177165000Y-93345000D01*
%TO.N,Net-(D30-Pad2)*%
X177800000Y-36830000D02*
X177800000Y-39625000D01*
X177165000Y-36195000D02*
X177800000Y-36830000D01*
%TO.N,Net-(D31-Pad2)*%
X187325000Y-55880000D02*
X187325000Y-58675000D01*
X186690000Y-55245000D02*
X187325000Y-55880000D01*
%TO.N,Net-(D32-Pad2)*%
X196215000Y-74295000D02*
X196850000Y-74930000D01*
X196850000Y-74930000D02*
X196850000Y-77725000D01*
%TO.N,Net-(D33-Pad2)*%
X196215000Y-93345000D02*
X196850000Y-93980000D01*
X186690000Y-93345000D02*
X196215000Y-93345000D01*
X196850000Y-93980000D02*
X196850000Y-99950000D01*
%TO.N,Net-(D34-Pad2)*%
X196215000Y-36195000D02*
X196850000Y-36830000D01*
X196850000Y-36830000D02*
X196850000Y-39625000D01*
%TO.N,Net-(D35-Pad2)*%
X206375000Y-55880000D02*
X206375000Y-58675000D01*
X205740000Y-55245000D02*
X206375000Y-55880000D01*
%TO.N,Net-(D36-Pad2)*%
X215265000Y-74295000D02*
X215900000Y-74930000D01*
X215900000Y-74930000D02*
X215900000Y-77725000D01*
%TO.N,Net-(D37-Pad2)*%
X215265000Y-93345000D02*
X215900000Y-93980000D01*
X215900000Y-93980000D02*
X215900000Y-99950000D01*
X205740000Y-93345000D02*
X215265000Y-93345000D01*
%TO.N,Net-(D38-Pad2)*%
X215265000Y-36195000D02*
X215900000Y-36830000D01*
X215900000Y-36830000D02*
X215900000Y-39625000D01*
%TO.N,Net-(D39-Pad2)*%
X224790000Y-55245000D02*
X225425000Y-55880000D01*
X225425000Y-55880000D02*
X225425000Y-58675000D01*
%TO.N,Net-(D40-Pad2)*%
X234315000Y-74295000D02*
X234950000Y-74930000D01*
X234950000Y-74930000D02*
X234950000Y-77725000D01*
%TO.N,Net-(D41-Pad2)*%
X234315000Y-93345000D02*
X234950000Y-93980000D01*
X234950000Y-93980000D02*
X234950000Y-99950000D01*
X229552500Y-93345000D02*
X234315000Y-93345000D01*
%TO.N,COL0*%
X54616980Y-76835000D02*
X49086980Y-82365000D01*
X41037000Y-79905980D02*
X41037000Y-75755250D01*
X43496020Y-82365000D02*
X41037000Y-79905980D01*
X56515000Y-76835000D02*
X54616980Y-76835000D01*
X49086980Y-82365000D02*
X43496020Y-82365000D01*
%TO.N,COL1*%
X43682416Y-81915000D02*
X41537000Y-79769584D01*
X75565000Y-76835000D02*
X71501000Y-72771000D01*
X41537000Y-79769584D02*
X41537000Y-76462000D01*
X48900584Y-81915000D02*
X43682416Y-81915000D01*
X58044584Y-72771000D02*
X48900584Y-81915000D01*
X71501000Y-72771000D02*
X58044584Y-72771000D01*
X41537000Y-75755250D02*
X41537000Y-76462000D01*
%TO.N,COL3*%
X89916000Y-71871000D02*
X58166000Y-71871000D01*
X58166000Y-71871000D02*
X57794604Y-71871000D01*
X42537000Y-79496792D02*
X42537000Y-75755250D01*
X58166000Y-71871000D02*
X57671792Y-71871000D01*
X108701000Y-71871000D02*
X89916000Y-71871000D01*
X57671792Y-71871000D02*
X48542792Y-81000000D01*
X44040208Y-81000000D02*
X42537000Y-79496792D01*
X48542792Y-81000000D02*
X44040208Y-81000000D01*
X113665000Y-76835000D02*
X108701000Y-71871000D01*
%TO.N,COL4*%
X44226604Y-80550000D02*
X43037000Y-79360396D01*
X48356396Y-80550000D02*
X48038000Y-80550000D01*
X48292000Y-80550000D02*
X48038000Y-80550000D01*
X48038000Y-80550000D02*
X44226604Y-80550000D01*
X43037000Y-79360396D02*
X43037000Y-75755250D01*
X127254000Y-71374000D02*
X57532396Y-71374000D01*
X57532396Y-71374000D02*
X48356396Y-80550000D01*
X132715000Y-76835000D02*
X127254000Y-71374000D01*
%TO.N,Net-(R1-Pad2)*%
X38699500Y-73917750D02*
X35713000Y-73917750D01*
X35713000Y-73917750D02*
X35371500Y-74259250D01*
%TO.N,Net-(D43-Pad2)*%
X236537500Y-36830000D02*
X239009074Y-36830000D01*
X239009074Y-36830000D02*
X239769074Y-37590000D01*
%TO.N,Net-(D42-Pad2)*%
X238952500Y-43180000D02*
X239712500Y-43940000D01*
X236537500Y-43180000D02*
X238952500Y-43180000D01*
%TO.N,Net-(D24-Pad2)*%
X148590000Y-93345000D02*
X153352500Y-93345000D01*
X158750000Y-93980000D02*
X158750000Y-99950000D01*
X158115000Y-93345000D02*
X158750000Y-93980000D01*
X153352500Y-93345000D02*
X158115000Y-93345000D01*
%TO.N,Net-(C6-Pad1)*%
X38699500Y-72417750D02*
X36548000Y-72417750D01*
X36548000Y-72417750D02*
X36230500Y-72100250D01*
%TO.N,XTAL1*%
X45413500Y-64187250D02*
X45783500Y-63817250D01*
X41987000Y-69065750D02*
X41987000Y-66371750D01*
X42037000Y-69080250D02*
X42001500Y-69080250D01*
X41987000Y-66371750D02*
X43454500Y-64904250D01*
X43454500Y-64904250D02*
X43454500Y-64187250D01*
X43454500Y-64187250D02*
X45413500Y-64187250D01*
X42001500Y-69080250D02*
X41987000Y-69065750D01*
%TO.N,XTAL2*%
X39168500Y-62487250D02*
X41254500Y-62487250D01*
X40918500Y-62487250D02*
X41254500Y-62487250D01*
X41537000Y-69080250D02*
X41537000Y-66329750D01*
X38798500Y-62857250D02*
X39168500Y-62487250D01*
X41537000Y-66329750D02*
X40195500Y-64988250D01*
X40195500Y-63210250D02*
X40918500Y-62487250D01*
X40195500Y-64988250D02*
X40195500Y-63210250D01*
%TO.N,MOSI*%
X61230497Y-61969401D02*
X61230497Y-52721497D01*
X60782500Y-52273500D02*
X41706500Y-52273500D01*
X43037000Y-67069208D02*
X43037000Y-69080250D01*
X61230497Y-52721497D02*
X60782500Y-52273500D01*
X36957000Y-54229000D02*
X35687000Y-55499000D01*
X44585208Y-65521000D02*
X43037000Y-67069208D01*
X39751000Y-54229000D02*
X36957000Y-54229000D01*
X41706500Y-52273500D02*
X39751000Y-54229000D01*
X60971000Y-65521000D02*
X44585208Y-65521000D01*
X61230497Y-65261503D02*
X60971000Y-65521000D01*
X61230497Y-63418401D02*
X61230497Y-65261503D01*
%TO.N,MISO*%
X43537000Y-69080250D02*
X43537000Y-67461000D01*
X62230000Y-65532000D02*
X62230000Y-63418401D01*
X43537000Y-67205604D02*
X44771604Y-65971000D01*
X44771604Y-65971000D02*
X61791000Y-65971000D01*
X61602500Y-51823500D02*
X40886500Y-51823500D01*
X62230000Y-61969401D02*
X62230000Y-52451000D01*
X62230000Y-52451000D02*
X61602500Y-51823500D01*
X43537000Y-67461000D02*
X43537000Y-67205604D01*
X40886500Y-51823500D02*
X39751000Y-52959000D01*
X61791000Y-65971000D02*
X62230000Y-65532000D01*
X43537000Y-67461000D02*
X43537000Y-67334000D01*
X39751000Y-52959000D02*
X38227000Y-52959000D01*
%TO.N,LED capslock*%
X239299500Y-66675000D02*
X239386412Y-66675000D01*
X239386412Y-66675000D02*
X240411000Y-65650412D01*
X240411000Y-65650412D02*
X240411000Y-39251926D01*
X232736000Y-66874000D02*
X45267000Y-66874000D01*
X237018152Y-66874000D02*
X232736000Y-66874000D01*
X240411000Y-39251926D02*
X239769074Y-38610000D01*
X45267000Y-66874000D02*
X44537000Y-67604000D01*
X237292652Y-66599500D02*
X237018152Y-66874000D01*
X44537000Y-67604000D02*
X44537000Y-69080250D01*
%TO.N,LED Power*%
X238887000Y-58293000D02*
X238887000Y-59055000D01*
X44958000Y-66421000D02*
X44037000Y-67342000D01*
X239712500Y-44960000D02*
X239712500Y-57340500D01*
X237280353Y-65405000D02*
X237280353Y-65586494D01*
X239712500Y-57340500D02*
X239709014Y-57343986D01*
X239709014Y-64995486D02*
X239709014Y-64201986D01*
X239709014Y-57470986D02*
X238887000Y-58293000D01*
X239709014Y-57343986D02*
X239709014Y-57470986D01*
X239709014Y-64201986D02*
X239709014Y-64582986D01*
X233426000Y-66421000D02*
X44958000Y-66421000D01*
X236445847Y-66421000D02*
X233426000Y-66421000D01*
X239299500Y-65405000D02*
X239709014Y-64995486D01*
X237280353Y-65586494D02*
X236445847Y-66421000D01*
X44037000Y-67342000D02*
X44037000Y-69080250D01*
X239709014Y-59877014D02*
X239709014Y-64201986D01*
X238887000Y-59055000D02*
X239709014Y-59877014D01*
X239709014Y-64582986D02*
X239709014Y-64926101D01*
%TO.N,GND*%
X40037000Y-75755250D02*
X40037000Y-74417750D01*
X42862500Y-61305250D02*
X43454500Y-61897250D01*
X39560500Y-65115250D02*
X39560500Y-64226250D01*
X39151500Y-63817250D02*
X38798500Y-63817250D01*
X44831000Y-78331000D02*
X45076000Y-78576000D01*
X44037000Y-76676000D02*
X44196000Y-76835000D01*
X41037000Y-71417750D02*
X42037000Y-72417750D01*
X46672500Y-69151500D02*
X46672500Y-68643500D01*
X41037000Y-69080250D02*
X41037000Y-71417750D01*
X34635500Y-71239250D02*
X35270500Y-71874250D01*
X43454500Y-61897250D02*
X43454500Y-62487250D01*
X44831000Y-78331000D02*
X44831000Y-79375000D01*
X45374500Y-69917750D02*
X45906250Y-69917750D01*
X39588500Y-66159250D02*
X38925500Y-66159250D01*
X48071500Y-76524805D02*
X48071500Y-75501500D01*
X35270500Y-72100250D02*
X34353500Y-72100250D01*
X36080391Y-72917750D02*
X38699500Y-72917750D01*
X44037000Y-75755250D02*
X44037000Y-74417750D01*
X35687000Y-58039000D02*
X35687000Y-59690000D01*
X34635500Y-70957250D02*
X33869033Y-70957250D01*
X228993000Y-46851000D02*
X228346000Y-47498000D01*
X46926500Y-68389500D02*
X47942500Y-68389500D01*
X35270500Y-72100250D02*
X35270500Y-72107859D01*
X48006000Y-70104000D02*
X49407299Y-68702701D01*
X48071500Y-75501500D02*
X48135000Y-75438000D01*
X38262500Y-63817250D02*
X38036500Y-63591250D01*
X45349500Y-69942750D02*
X44512000Y-69942750D01*
X227712500Y-36600000D02*
X229734970Y-36600000D01*
X36791678Y-77884250D02*
X36681089Y-77773661D01*
X229734970Y-36600000D02*
X229751671Y-36616701D01*
X46020305Y-78576000D02*
X48071500Y-76524805D01*
X41354500Y-64187250D02*
X43054500Y-62487250D01*
X34635500Y-70957250D02*
X34635500Y-71239250D01*
X236537500Y-39393696D02*
X236537500Y-41124304D01*
X41037000Y-67607750D02*
X39588500Y-66159250D01*
X48223000Y-68670000D02*
X48223000Y-69859000D01*
X42037000Y-72417750D02*
X41537000Y-72917750D01*
X236537500Y-45741164D02*
X236537500Y-47476835D01*
X38476896Y-77884250D02*
X36791678Y-77884250D01*
X41037000Y-69080250D02*
X41037000Y-67607750D01*
X44196000Y-77851000D02*
X44676000Y-78331000D01*
X45413500Y-62487250D02*
X45783500Y-62857250D01*
X48135000Y-75438000D02*
X49022000Y-75438000D01*
X46672500Y-68643500D02*
X46926500Y-68389500D01*
X45906250Y-69917750D02*
X46672500Y-69151500D01*
X36681089Y-77773661D02*
X35877500Y-78577250D01*
X44512000Y-69942750D02*
X42037000Y-72417750D01*
X43454500Y-62487250D02*
X45413500Y-62487250D01*
X229505000Y-46851000D02*
X228993000Y-46851000D01*
X48223000Y-69859000D02*
X47978000Y-70104000D01*
X40037000Y-76340758D02*
X38752310Y-77625448D01*
X44037000Y-74417750D02*
X42037000Y-72417750D01*
X38798500Y-63817250D02*
X38262500Y-63817250D01*
X40037000Y-74417750D02*
X42037000Y-72417750D01*
X38735698Y-77625448D02*
X38476896Y-77884250D01*
X38036500Y-62067250D02*
X38798500Y-61305250D01*
X41254500Y-64187250D02*
X41354500Y-64187250D01*
X44196000Y-76835000D02*
X44196000Y-77851000D01*
X43054500Y-62487250D02*
X43454500Y-62487250D01*
X47978000Y-70104000D02*
X48006000Y-70104000D01*
X47942500Y-68389500D02*
X48223000Y-68670000D01*
X44676000Y-78331000D02*
X44831000Y-78331000D01*
X41037000Y-67607750D02*
X41037000Y-66591750D01*
X39560500Y-64226250D02*
X39151500Y-63817250D01*
X45374500Y-69917750D02*
X45349500Y-69942750D01*
X38752310Y-77625448D02*
X38735698Y-77625448D01*
X45076000Y-78576000D02*
X46020305Y-78576000D01*
X41037000Y-66591750D02*
X39560500Y-65115250D01*
X40037000Y-75755250D02*
X40037000Y-76340758D01*
X35270500Y-71874250D02*
X35270500Y-72100250D01*
X33869033Y-70957250D02*
X33865500Y-70953717D01*
X44037000Y-75755250D02*
X44037000Y-76676000D01*
X38798500Y-61305250D02*
X42862500Y-61305250D01*
X35270500Y-72107859D02*
X36080391Y-72917750D01*
X41537000Y-72917750D02*
X38699500Y-72917750D01*
X38036500Y-63591250D02*
X38036500Y-62067250D01*
D37*
%TO.N,D-*%
X229505000Y-39417500D02*
X229505000Y-45151000D01*
X34418500Y-50417500D02*
X32766000Y-52070000D01*
X227712500Y-38600000D02*
X228687500Y-38600000D01*
X230155000Y-45801000D02*
X230155000Y-50261000D01*
X228687500Y-38600000D02*
X229505000Y-39417500D01*
X230155000Y-50261000D02*
X229998500Y-50417500D01*
X32766000Y-73814750D02*
X33210500Y-74259250D01*
X33210500Y-74259250D02*
X34351500Y-74259250D01*
X229998500Y-50417500D02*
X34418500Y-50417500D01*
X229505000Y-45151000D02*
X230155000Y-45801000D01*
X32766000Y-52070000D02*
X32766000Y-73814750D01*
%TO.N,D+*%
X231505000Y-39386000D02*
X229719000Y-37600000D01*
X34594828Y-50817500D02*
X230614500Y-50817500D01*
X230855000Y-45801000D02*
X231505000Y-45151000D01*
X231505000Y-39386000D02*
X231505000Y-45151000D01*
X230614500Y-50817500D02*
X230855000Y-50577000D01*
X34350460Y-73242210D02*
X33355461Y-73242210D01*
X34351500Y-73243250D02*
X34350460Y-73242210D01*
X227712500Y-37600000D02*
X229608000Y-37600000D01*
X229719000Y-37600000D02*
X229608000Y-37600000D01*
X230855000Y-50577000D02*
X230855000Y-45801000D01*
X33166000Y-73052750D02*
X33166000Y-52246328D01*
X33166000Y-52246328D02*
X34594828Y-50817500D01*
X33355461Y-73242210D02*
X33166000Y-73052750D01*
D36*
%TO.N,+5V*%
X44537000Y-75755250D02*
X44513750Y-75755250D01*
X37624000Y-74417750D02*
X37020500Y-75021250D01*
X46704250Y-70417750D02*
X47018000Y-70104000D01*
X39537000Y-75755250D02*
X39537000Y-76187750D01*
X39537000Y-76187750D02*
X38290500Y-77434250D01*
X37020500Y-76755428D02*
X37359911Y-77094839D01*
D38*
X232667000Y-51308000D02*
X233807000Y-50168000D01*
D36*
X35595500Y-71028500D02*
X35941000Y-71374000D01*
X44831000Y-76708000D02*
X44831000Y-77371000D01*
X47498500Y-69214500D02*
X47498500Y-69114000D01*
X34290000Y-54356000D02*
X34290000Y-64287750D01*
X35941000Y-71374000D02*
X36471859Y-71374000D01*
D38*
X33656500Y-68736250D02*
X33656500Y-52449500D01*
D36*
X38699500Y-74417750D02*
X37624000Y-74417750D01*
X44487000Y-76364000D02*
X44831000Y-76708000D01*
X45240000Y-77371000D02*
X45720000Y-77851000D01*
D38*
X34798000Y-51308000D02*
X232667000Y-51308000D01*
D36*
X40537000Y-69080250D02*
X40537000Y-67869750D01*
X44487000Y-75782000D02*
X44487000Y-76364000D01*
X38925500Y-67119250D02*
X38565941Y-67119250D01*
X39786500Y-67119250D02*
X38925500Y-67119250D01*
D38*
X35595500Y-69791051D02*
X35246463Y-69442014D01*
D36*
X47018000Y-69695000D02*
X47498500Y-69214500D01*
D38*
X33656500Y-52449500D02*
X34798000Y-51308000D01*
D36*
X38565941Y-67119250D02*
X38114235Y-66667544D01*
X37359911Y-77094839D02*
X36937322Y-76672250D01*
D38*
X35595500Y-70675250D02*
X35595500Y-69791051D01*
D36*
X36937322Y-76672250D02*
X36258500Y-76672250D01*
X34290000Y-64287750D02*
X36068000Y-66065750D01*
X40537000Y-67869750D02*
X39786500Y-67119250D01*
X37699322Y-77434250D02*
X37359911Y-77094839D01*
D38*
X35595500Y-70675250D02*
X35595500Y-70957250D01*
D36*
X37015609Y-71917750D02*
X37175250Y-71917750D01*
X45374500Y-70417750D02*
X46704250Y-70417750D01*
X44831000Y-77371000D02*
X45240000Y-77371000D01*
X36471859Y-71374000D02*
X37015609Y-71917750D01*
X37020500Y-75021250D02*
X37020500Y-76755428D01*
D38*
X35595500Y-70675250D02*
X33656500Y-68736250D01*
D36*
X38290500Y-77434250D02*
X37699322Y-77434250D01*
X44513750Y-75755250D02*
X44487000Y-75782000D01*
X47018000Y-70104000D02*
X47018000Y-69695000D01*
X35687000Y-52959000D02*
X34290000Y-54356000D01*
X38699500Y-71917750D02*
X37175250Y-71917750D01*
%TO.N,COL5*%
X48170000Y-80100000D02*
X44413000Y-80100000D01*
X43537000Y-79224000D02*
X43537000Y-75755250D01*
X151765000Y-76835000D02*
X146812000Y-71882000D01*
X44413000Y-80100000D02*
X43537000Y-79224000D01*
X146812000Y-71882000D02*
X145854000Y-70924000D01*
X145854000Y-70924000D02*
X121343000Y-70924000D01*
X57346000Y-70924000D02*
X48170000Y-80100000D01*
X121343000Y-70924000D02*
X57346000Y-70924000D01*
%TO.N,COL6*%
X164454000Y-70474000D02*
X142378000Y-70474000D01*
X57034000Y-70474000D02*
X53086000Y-74422000D01*
X45374500Y-74417750D02*
X49026250Y-74417750D01*
X142378000Y-70474000D02*
X57034000Y-70474000D01*
X170815000Y-76835000D02*
X164465000Y-70485000D01*
X164465000Y-70485000D02*
X164454000Y-70474000D01*
X53086000Y-74422000D02*
X49030500Y-74422000D01*
X49030500Y-74422000D02*
X49026250Y-74417750D01*
%TO.N,VCC*%
X233807000Y-39370000D02*
X233807000Y-47368000D01*
X233807000Y-47368000D02*
X231822000Y-47368000D01*
X231822000Y-47368000D02*
X231505000Y-47051000D01*
X226612500Y-35975000D02*
X226661000Y-35975000D01*
X226612500Y-39287500D02*
X226612500Y-35975000D01*
X230124000Y-35687000D02*
X233807000Y-39370000D01*
X226925000Y-39600000D02*
X226612500Y-39287500D01*
X226949000Y-35687000D02*
X230124000Y-35687000D01*
X227712500Y-39600000D02*
X226925000Y-39600000D01*
X226661000Y-35975000D02*
X226949000Y-35687000D01*
%TO.N,SCK*%
X60231020Y-63425536D02*
X60224976Y-63431580D01*
X59962186Y-65024000D02*
X60224976Y-64761210D01*
X39751000Y-55499000D02*
X38227000Y-55499000D01*
X42537000Y-66932812D02*
X44445812Y-65024000D01*
X59708500Y-52723500D02*
X42526500Y-52723500D01*
X44445812Y-65024000D02*
X59962186Y-65024000D01*
X42526500Y-52723500D02*
X39751000Y-55499000D01*
X42537000Y-69080250D02*
X42537000Y-66932812D01*
X60224976Y-63431580D02*
X60224976Y-64761210D01*
X60230994Y-53245994D02*
X59708500Y-52723500D01*
X60230994Y-61969401D02*
X60230994Y-53245994D01*
%TO.N,COL7*%
X52828250Y-73917750D02*
X45374500Y-73917750D01*
X56722000Y-70024000D02*
X52828250Y-73917750D01*
X189865000Y-76835000D02*
X183054000Y-70024000D01*
X183054000Y-70024000D02*
X56722000Y-70024000D01*
%TO.N,COL8*%
X52691854Y-73417750D02*
X45374500Y-73417750D01*
X201654000Y-69574000D02*
X56535604Y-69574000D01*
X56535604Y-69574000D02*
X52691854Y-73417750D01*
X208915000Y-76835000D02*
X201654000Y-69574000D01*
%TO.N,COL9*%
X56349208Y-69124000D02*
X52555458Y-72917750D01*
X196632000Y-69124000D02*
X56349208Y-69124000D01*
X227965000Y-76835000D02*
X220254000Y-69124000D01*
X52555458Y-72917750D02*
X45374500Y-72917750D01*
X220254000Y-69124000D02*
X196632000Y-69124000D01*
%TO.N,ROW3*%
X238575000Y-79756000D02*
X238575000Y-72205000D01*
X237236000Y-68224000D02*
X215925000Y-68224000D01*
X234950000Y-103250000D02*
X237872000Y-103250000D01*
X238575000Y-72205000D02*
X238575000Y-68901604D01*
X49212500Y-103250000D02*
X92075000Y-103250000D01*
X92075000Y-103250000D02*
X111125000Y-103250000D01*
X215900000Y-103250000D02*
X234950000Y-103250000D01*
X238575000Y-68901604D02*
X237897396Y-68224000D01*
X177800000Y-103250000D02*
X196850000Y-103250000D01*
X55976416Y-68224000D02*
X52282666Y-71917750D01*
X139700000Y-103250000D02*
X158750000Y-103250000D01*
X238575000Y-102547000D02*
X238575000Y-79756000D01*
X237872000Y-103250000D02*
X238506000Y-102616000D01*
X237897396Y-68224000D02*
X237236000Y-68224000D01*
X158750000Y-103250000D02*
X177800000Y-103250000D01*
X215925000Y-68224000D02*
X55976416Y-68224000D01*
X238506000Y-102616000D02*
X238575000Y-102547000D01*
X73025000Y-103250000D02*
X49212500Y-103250000D01*
X52282666Y-71917750D02*
X45374500Y-71917750D01*
X196850000Y-103250000D02*
X215900000Y-103250000D01*
X111125000Y-103250000D02*
X139700000Y-103250000D01*
%TO.N,ROW2*%
X237711000Y-68674000D02*
X237998000Y-68961000D01*
X197568901Y-81743901D02*
X215181099Y-81743901D01*
X234231099Y-81743901D02*
X234950000Y-81025000D01*
X196131099Y-81743901D02*
X178518901Y-81743901D01*
X138937000Y-81788000D02*
X121413000Y-81788000D01*
X234950000Y-81026000D02*
X235712000Y-81788000D01*
X157987000Y-81788000D02*
X140463000Y-81788000D01*
X101600000Y-81025000D02*
X102363000Y-81788000D01*
X102363000Y-81788000D02*
X120015000Y-81788000D01*
X210599000Y-68674000D02*
X56162812Y-68674000D01*
X219583000Y-68674000D02*
X237711000Y-68674000D01*
X215900000Y-81025000D02*
X216618901Y-81743901D01*
X216618901Y-81743901D02*
X234231099Y-81743901D01*
X177081099Y-81743901D02*
X159468901Y-81743901D01*
X82550000Y-81025000D02*
X81831099Y-81743901D01*
X120650000Y-81153000D02*
X120650000Y-81025000D01*
X234950000Y-81025000D02*
X234950000Y-81026000D01*
X178518901Y-81743901D02*
X177800000Y-81025000D01*
X140463000Y-81788000D02*
X139700000Y-81025000D01*
X215181099Y-81743901D02*
X215900000Y-81025000D01*
X56162812Y-68674000D02*
X52419062Y-72417750D01*
X52419062Y-72417750D02*
X45374500Y-72417750D01*
X64218901Y-81743901D02*
X63500000Y-81025000D01*
X196850000Y-81025000D02*
X196131099Y-81743901D01*
X158750000Y-81025000D02*
X157987000Y-81788000D01*
X121413000Y-81788000D02*
X120650000Y-81025000D01*
X120015000Y-81788000D02*
X120650000Y-81153000D01*
X101600000Y-81025000D02*
X100881099Y-81743901D01*
X237490000Y-81661000D02*
X238125000Y-81026000D01*
X210599000Y-68674000D02*
X219583000Y-68674000D01*
X159468901Y-81743901D02*
X158750000Y-81025000D01*
X83268901Y-81743901D02*
X82550000Y-81025000D01*
X237363000Y-81788000D02*
X237490000Y-81661000D01*
X196850000Y-81025000D02*
X197568901Y-81743901D01*
X100881099Y-81743901D02*
X83268901Y-81743901D01*
X235712000Y-81788000D02*
X237363000Y-81788000D01*
X177800000Y-81025000D02*
X177081099Y-81743901D01*
X238125000Y-81026000D02*
X238125000Y-78613000D01*
X81831099Y-81743901D02*
X64218901Y-81743901D01*
X238125000Y-78613000D02*
X238125000Y-69088000D01*
X238125000Y-69088000D02*
X237998000Y-68961000D01*
X139700000Y-81025000D02*
X138937000Y-81788000D01*
%TO.N,ROW1*%
X186606099Y-62693901D02*
X168993901Y-62693901D01*
X238125000Y-66800604D02*
X237601604Y-67324000D01*
X92075000Y-61975000D02*
X91356099Y-62693901D01*
X54693901Y-62693901D02*
X53975000Y-61975000D01*
X225425000Y-61975000D02*
X224706099Y-62693901D01*
X149225000Y-61975000D02*
X148506099Y-62693901D01*
X111125000Y-61975000D02*
X110362000Y-62738000D01*
X129456099Y-62693901D02*
X111843901Y-62693901D01*
X226187000Y-62738000D02*
X237490000Y-62738000D01*
X225425000Y-61976000D02*
X226187000Y-62738000D01*
X72306099Y-62693901D02*
X54693901Y-62693901D01*
X188043901Y-62693901D02*
X187325000Y-61975000D01*
X148506099Y-62693901D02*
X130893901Y-62693901D01*
X238125000Y-63373000D02*
X238125000Y-66800604D01*
X55603624Y-67324000D02*
X52009874Y-70917750D01*
X52009874Y-70917750D02*
X45374500Y-70917750D01*
X207093901Y-62693901D02*
X206375000Y-61975000D01*
X206375000Y-61975000D02*
X205656099Y-62693901D01*
X130175000Y-61975000D02*
X129456099Y-62693901D01*
X110362000Y-62738000D02*
X92838000Y-62738000D01*
X225425000Y-61975000D02*
X225425000Y-61976000D01*
X224706099Y-62693901D02*
X207093901Y-62693901D01*
X92838000Y-62738000D02*
X92075000Y-61975000D01*
X237601604Y-67324000D02*
X55603624Y-67324000D01*
X168275000Y-61975000D02*
X167556099Y-62693901D01*
X130893901Y-62693901D02*
X130175000Y-61975000D01*
X91356099Y-62693901D02*
X73743901Y-62693901D01*
X187325000Y-61975000D02*
X186606099Y-62693901D01*
X149943901Y-62693901D02*
X149225000Y-61975000D01*
X237490000Y-62738000D02*
X238125000Y-63373000D01*
X167556099Y-62693901D02*
X149943901Y-62693901D01*
X205656099Y-62693901D02*
X188043901Y-62693901D01*
X168993901Y-62693901D02*
X168275000Y-61975000D01*
X73743901Y-62693901D02*
X73025000Y-61975000D01*
X111843901Y-62693901D02*
X111125000Y-61975000D01*
X73025000Y-61975000D02*
X72306099Y-62693901D01*
%TO.N,ROW0*%
X215900000Y-42925000D02*
X215900000Y-42926000D01*
X45168901Y-43643901D02*
X62781099Y-43643901D01*
X238431195Y-62654597D02*
X238575000Y-62798402D01*
X138981099Y-43643901D02*
X139700000Y-42925000D01*
X215137000Y-43688000D02*
X197613000Y-43688000D01*
X120650000Y-42862500D02*
X121431401Y-43643901D01*
X215900000Y-42925000D02*
X215137000Y-43688000D01*
X177800000Y-42925000D02*
X177081099Y-43643901D01*
X62781099Y-43643901D02*
X63500000Y-42925000D01*
X159468901Y-43643901D02*
X158750000Y-42925000D01*
X44450000Y-42925000D02*
X45168901Y-43643901D01*
X64218901Y-43643901D02*
X81870901Y-43643901D01*
X197613000Y-43688000D02*
X196850000Y-42925000D01*
X101600000Y-42925000D02*
X102363000Y-43688000D01*
X140418901Y-43643901D02*
X158031099Y-43643901D01*
X119824500Y-43688000D02*
X120650000Y-42862500D01*
X83268901Y-43643901D02*
X100965000Y-43643901D01*
X196850000Y-42925000D02*
X196131099Y-43643901D01*
X55790020Y-67774000D02*
X52146270Y-71417750D01*
X100965000Y-43643901D02*
X101600000Y-43008901D01*
X196131099Y-43643901D02*
X178518901Y-43643901D01*
X52146270Y-71417750D02*
X45374500Y-71417750D01*
X228805500Y-43688000D02*
X220472000Y-43688000D01*
X158031099Y-43643901D02*
X158750000Y-42925000D01*
X63500000Y-42925000D02*
X64218901Y-43643901D01*
X238575000Y-62798402D02*
X238575000Y-66987000D01*
X237788000Y-67774000D02*
X55790020Y-67774000D01*
X82550000Y-42964802D02*
X82550000Y-42925000D01*
X102363000Y-43688000D02*
X119824500Y-43688000D01*
X121431401Y-43643901D02*
X138981099Y-43643901D01*
X139700000Y-42925000D02*
X140418901Y-43643901D01*
X178518901Y-43643901D02*
X177800000Y-42925000D01*
X216662000Y-43688000D02*
X220472000Y-43688000D01*
X81870901Y-43643901D02*
X82550000Y-42964802D01*
X101600000Y-43008901D02*
X101600000Y-42925000D01*
X177081099Y-43643901D02*
X159468901Y-43643901D01*
X238575000Y-66987000D02*
X237788000Y-67774000D01*
X82550000Y-42925000D02*
X83268901Y-43643901D01*
X215900000Y-42926000D02*
X216662000Y-43688000D01*
%TO.N,RESET*%
X37586500Y-60838500D02*
X37586500Y-58679500D01*
X37586500Y-58679500D02*
X38227000Y-58039000D01*
X36068000Y-67085750D02*
X37586500Y-65567250D01*
X36891500Y-67909250D02*
X39687500Y-67909250D01*
X37586500Y-60446500D02*
X36957000Y-59817000D01*
X37586500Y-65567250D02*
X37586500Y-60838500D01*
X36957000Y-49992500D02*
X229432061Y-49992500D01*
X40037000Y-68258750D02*
X40037000Y-69080250D01*
X229455500Y-49969061D02*
X229432061Y-49992500D01*
X36068000Y-67085750D02*
X36891500Y-67909250D01*
X39687500Y-67909250D02*
X40037000Y-68258750D01*
X229455500Y-49703748D02*
X229455500Y-49969061D01*
X37586500Y-60838500D02*
X37586500Y-60446500D01*
X36957000Y-49718000D02*
X36957000Y-49992500D01*
%TO.N,Net-(R4-Pad1)*%
X46594750Y-74917750D02*
X47115000Y-75438000D01*
X45374500Y-74917750D02*
X46594750Y-74917750D01*
%TO.N,Net-(R2-Pad2)*%
X38699500Y-73417750D02*
X35546000Y-73417750D01*
X35546000Y-73417750D02*
X35371500Y-73243250D01*
%TO.N,Net-(D16-Pad2)*%
X111125000Y-93980000D02*
X111125000Y-99950000D01*
X100965000Y-93345000D02*
X110490000Y-93345000D01*
X110490000Y-93345000D02*
X111125000Y-93980000D01*
%TO.N,COL2*%
X43853812Y-81450000D02*
X42037000Y-79633188D01*
X90101000Y-72321000D02*
X72194000Y-72321000D01*
X42037000Y-79633188D02*
X42037000Y-75755250D01*
X72194000Y-72321000D02*
X57981000Y-72321000D01*
X57981000Y-72321000D02*
X57858188Y-72321000D01*
X48729188Y-81450000D02*
X43853812Y-81450000D01*
X94615000Y-76835000D02*
X90101000Y-72321000D01*
X57858188Y-72321000D02*
X48729188Y-81450000D01*
%TD*%
%TA.AperFunction,Conductor*%
%TO.N,GND*%
G36*
X238956121Y-32532002D02*
G01*
X239002614Y-32585658D01*
X239014000Y-32638000D01*
X239014000Y-36378500D01*
X238993998Y-36446621D01*
X238940342Y-36493114D01*
X238888000Y-36504500D01*
X237943500Y-36504500D01*
X237875379Y-36484498D01*
X237828886Y-36430842D01*
X237817500Y-36378500D01*
X237817500Y-35857752D01*
X237805867Y-35799269D01*
X237761552Y-35732948D01*
X237695231Y-35688633D01*
X237683062Y-35686212D01*
X237683061Y-35686212D01*
X237642816Y-35678207D01*
X237636748Y-35677000D01*
X235438252Y-35677000D01*
X235432184Y-35678207D01*
X235391939Y-35686212D01*
X235391938Y-35686212D01*
X235379769Y-35688633D01*
X235313448Y-35732948D01*
X235269133Y-35799269D01*
X235257500Y-35857752D01*
X235257500Y-37802248D01*
X235258707Y-37808316D01*
X235265069Y-37840298D01*
X235269133Y-37860731D01*
X235313448Y-37927052D01*
X235379769Y-37971367D01*
X235391938Y-37973788D01*
X235391939Y-37973788D01*
X235414543Y-37978284D01*
X235438252Y-37983000D01*
X235444439Y-37983000D01*
X235450602Y-37983607D01*
X235450369Y-37985976D01*
X235508354Y-38003002D01*
X235554847Y-38056658D01*
X235564951Y-38126932D01*
X235535457Y-38191512D01*
X235517110Y-38208830D01*
X235512500Y-38212380D01*
X235342520Y-38367050D01*
X235335494Y-38374583D01*
X235193055Y-38554944D01*
X235187350Y-38563531D01*
X235076286Y-38764722D01*
X235072056Y-38774134D01*
X234995341Y-38990768D01*
X234992707Y-39000739D01*
X234975353Y-39098163D01*
X234976813Y-39111460D01*
X234991370Y-39116000D01*
X238085096Y-39116000D01*
X238098440Y-39112082D01*
X238100427Y-39097806D01*
X238090890Y-39035485D01*
X238088501Y-39025457D01*
X238017102Y-38807012D01*
X238013105Y-38797503D01*
X237906989Y-38593656D01*
X237901495Y-38584931D01*
X237763507Y-38401148D01*
X237756664Y-38393441D01*
X237590509Y-38234661D01*
X237582504Y-38228178D01*
X237560383Y-38213088D01*
X237515381Y-38158176D01*
X237507210Y-38087651D01*
X237538465Y-38023904D01*
X237599222Y-37987175D01*
X237624427Y-37983903D01*
X237624398Y-37983607D01*
X237630561Y-37983000D01*
X237636748Y-37983000D01*
X237660457Y-37978284D01*
X237683061Y-37973788D01*
X237683062Y-37973788D01*
X237695231Y-37971367D01*
X237761552Y-37927052D01*
X237805867Y-37860731D01*
X237809932Y-37840298D01*
X237816293Y-37808316D01*
X237817500Y-37802248D01*
X237817500Y-37281500D01*
X237837502Y-37213379D01*
X237891158Y-37166886D01*
X237943500Y-37155500D01*
X238822058Y-37155500D01*
X238890179Y-37175502D01*
X238911153Y-37192405D01*
X238977095Y-37258347D01*
X239011121Y-37320659D01*
X239014000Y-37347442D01*
X239014000Y-42728500D01*
X238993998Y-42796621D01*
X238940342Y-42843114D01*
X238888000Y-42854500D01*
X237943500Y-42854500D01*
X237875379Y-42834498D01*
X237828886Y-42780842D01*
X237817500Y-42728500D01*
X237817500Y-42207752D01*
X237805867Y-42149269D01*
X237761552Y-42082948D01*
X237695231Y-42038633D01*
X237683062Y-42036212D01*
X237683061Y-42036212D01*
X237642816Y-42028207D01*
X237636748Y-42027000D01*
X235438252Y-42027000D01*
X235432184Y-42028207D01*
X235391939Y-42036212D01*
X235391938Y-42036212D01*
X235379769Y-42038633D01*
X235313448Y-42082948D01*
X235269133Y-42149269D01*
X235257500Y-42207752D01*
X235257500Y-44152248D01*
X235258707Y-44158316D01*
X235265069Y-44190298D01*
X235269133Y-44210731D01*
X235313448Y-44277052D01*
X235379769Y-44321367D01*
X235391938Y-44323788D01*
X235391939Y-44323788D01*
X235423758Y-44330117D01*
X235438252Y-44333000D01*
X235444439Y-44333000D01*
X235450602Y-44333607D01*
X235450369Y-44335976D01*
X235508354Y-44353002D01*
X235554847Y-44406658D01*
X235564951Y-44476932D01*
X235535457Y-44541512D01*
X235517110Y-44558830D01*
X235512500Y-44562380D01*
X235342520Y-44717050D01*
X235335494Y-44724583D01*
X235193055Y-44904944D01*
X235187350Y-44913531D01*
X235076286Y-45114722D01*
X235072056Y-45124134D01*
X234995341Y-45340768D01*
X234992707Y-45350739D01*
X234975353Y-45448163D01*
X234976813Y-45461460D01*
X234991370Y-45466000D01*
X238085096Y-45466000D01*
X238098440Y-45462082D01*
X238100427Y-45447806D01*
X238090890Y-45385485D01*
X238088501Y-45375457D01*
X238017102Y-45157012D01*
X238013105Y-45147503D01*
X237906989Y-44943656D01*
X237901495Y-44934931D01*
X237763507Y-44751148D01*
X237756664Y-44743441D01*
X237590509Y-44584661D01*
X237582504Y-44578178D01*
X237560383Y-44563088D01*
X237515381Y-44508176D01*
X237507210Y-44437651D01*
X237538465Y-44373904D01*
X237599222Y-44337175D01*
X237624427Y-44333903D01*
X237624398Y-44333607D01*
X237630561Y-44333000D01*
X237636748Y-44333000D01*
X237651242Y-44330117D01*
X237683061Y-44323788D01*
X237683062Y-44323788D01*
X237695231Y-44321367D01*
X237761552Y-44277052D01*
X237805867Y-44210731D01*
X237809932Y-44190298D01*
X237816293Y-44158316D01*
X237817500Y-44152248D01*
X237817500Y-43631500D01*
X237837502Y-43563379D01*
X237891158Y-43516886D01*
X237943500Y-43505500D01*
X238765484Y-43505500D01*
X238833605Y-43525502D01*
X238854579Y-43542405D01*
X238977095Y-43664921D01*
X239011121Y-43727233D01*
X239014000Y-43754016D01*
X239014000Y-50039000D01*
X238993998Y-50107121D01*
X238940342Y-50153614D01*
X238888000Y-50165000D01*
X235008500Y-50165000D01*
X234940379Y-50144998D01*
X234893886Y-50091342D01*
X234882500Y-50039000D01*
X234882500Y-49739166D01*
X234879519Y-49707631D01*
X234834634Y-49579816D01*
X234829042Y-49572246D01*
X234829041Y-49572243D01*
X234759742Y-49478421D01*
X234754150Y-49470850D01*
X234737206Y-49458335D01*
X234652757Y-49395959D01*
X234652754Y-49395958D01*
X234645184Y-49390366D01*
X234517369Y-49345481D01*
X234509723Y-49344758D01*
X234509722Y-49344758D01*
X234503752Y-49344194D01*
X234485834Y-49342500D01*
X233128166Y-49342500D01*
X233110248Y-49344194D01*
X233104278Y-49344758D01*
X233104277Y-49344758D01*
X233096631Y-49345481D01*
X232968816Y-49390366D01*
X232961246Y-49395958D01*
X232961243Y-49395959D01*
X232876794Y-49458335D01*
X232859850Y-49470850D01*
X232854258Y-49478421D01*
X232784959Y-49572243D01*
X232784958Y-49572246D01*
X232779366Y-49579816D01*
X232734481Y-49707631D01*
X232731500Y-49739166D01*
X232731500Y-50039000D01*
X232711498Y-50107121D01*
X232657842Y-50153614D01*
X232605500Y-50165000D01*
X231281500Y-50165000D01*
X231213379Y-50144998D01*
X231166886Y-50091342D01*
X231155500Y-50039000D01*
X231155500Y-47677500D01*
X231175502Y-47609379D01*
X231229158Y-47562886D01*
X231281500Y-47551500D01*
X231492310Y-47551500D01*
X231560431Y-47571502D01*
X231588832Y-47596509D01*
X231609545Y-47621194D01*
X231619094Y-47626707D01*
X231642185Y-47640039D01*
X231651456Y-47645945D01*
X231682316Y-47667554D01*
X231692966Y-47670408D01*
X231696134Y-47671885D01*
X231699410Y-47673077D01*
X231708955Y-47678588D01*
X231742699Y-47684538D01*
X231746058Y-47685130D01*
X231756785Y-47687508D01*
X231793193Y-47697264D01*
X231804169Y-47696304D01*
X231804172Y-47696304D01*
X231830743Y-47693979D01*
X231841724Y-47693500D01*
X232607081Y-47693500D01*
X232675202Y-47713502D01*
X232721695Y-47767158D01*
X232732522Y-47807643D01*
X232734481Y-47828369D01*
X232779366Y-47956184D01*
X232784958Y-47963754D01*
X232784959Y-47963757D01*
X232795748Y-47978364D01*
X232859850Y-48065150D01*
X232867421Y-48070742D01*
X232961243Y-48140041D01*
X232961246Y-48140042D01*
X232968816Y-48145634D01*
X233096631Y-48190519D01*
X233104277Y-48191242D01*
X233104278Y-48191242D01*
X233110248Y-48191806D01*
X233128166Y-48193500D01*
X234485834Y-48193500D01*
X234503752Y-48191806D01*
X234509722Y-48191242D01*
X234509723Y-48191242D01*
X234517369Y-48190519D01*
X234645184Y-48145634D01*
X234652754Y-48140042D01*
X234652757Y-48140041D01*
X234746579Y-48070742D01*
X234754150Y-48065150D01*
X234818252Y-47978364D01*
X234829041Y-47963757D01*
X234829042Y-47963754D01*
X234834634Y-47956184D01*
X234879519Y-47828369D01*
X234882500Y-47796834D01*
X234882500Y-46939166D01*
X234879519Y-46907631D01*
X234834634Y-46779816D01*
X234829042Y-46772246D01*
X234829041Y-46772243D01*
X234759742Y-46678421D01*
X234754150Y-46670850D01*
X234737206Y-46658335D01*
X234652757Y-46595959D01*
X234652754Y-46595958D01*
X234645184Y-46590366D01*
X234517369Y-46545481D01*
X234509723Y-46544758D01*
X234509722Y-46544758D01*
X234503752Y-46544194D01*
X234485834Y-46542500D01*
X234258500Y-46542500D01*
X234190379Y-46522498D01*
X234143886Y-46468842D01*
X234132500Y-46416500D01*
X234132500Y-45992194D01*
X234974573Y-45992194D01*
X234984110Y-46054515D01*
X234986499Y-46064543D01*
X235057898Y-46282988D01*
X235061895Y-46292497D01*
X235168011Y-46496344D01*
X235173505Y-46505069D01*
X235311493Y-46688852D01*
X235318336Y-46696559D01*
X235484491Y-46855339D01*
X235492501Y-46861826D01*
X235682347Y-46991330D01*
X235691321Y-46996429D01*
X235899769Y-47093187D01*
X235909456Y-47096750D01*
X236130909Y-47158165D01*
X236141029Y-47160096D01*
X236265487Y-47173397D01*
X236280108Y-47170749D01*
X236283500Y-47158371D01*
X236283500Y-47156948D01*
X236791500Y-47156948D01*
X236795825Y-47171677D01*
X236807611Y-47173738D01*
X236898704Y-47166249D01*
X236908866Y-47164567D01*
X237131771Y-47108578D01*
X237141519Y-47105259D01*
X237352289Y-47013615D01*
X237361364Y-47008749D01*
X237554327Y-46883915D01*
X237562498Y-46877622D01*
X237732480Y-46722950D01*
X237739506Y-46715417D01*
X237881945Y-46535056D01*
X237887650Y-46526469D01*
X237998714Y-46325278D01*
X238002944Y-46315866D01*
X238079659Y-46099232D01*
X238082293Y-46089261D01*
X238099647Y-45991837D01*
X238098187Y-45978540D01*
X238083630Y-45974000D01*
X236809615Y-45974000D01*
X236794376Y-45978475D01*
X236793171Y-45979865D01*
X236791500Y-45987548D01*
X236791500Y-47156948D01*
X236283500Y-47156948D01*
X236283500Y-45992115D01*
X236279025Y-45976876D01*
X236277635Y-45975671D01*
X236269952Y-45974000D01*
X234989904Y-45974000D01*
X234976560Y-45977918D01*
X234974573Y-45992194D01*
X234132500Y-45992194D01*
X234132500Y-39642194D01*
X234974573Y-39642194D01*
X234984110Y-39704515D01*
X234986499Y-39714543D01*
X235057898Y-39932988D01*
X235061895Y-39942497D01*
X235168011Y-40146344D01*
X235173505Y-40155069D01*
X235311493Y-40338852D01*
X235318336Y-40346559D01*
X235484491Y-40505339D01*
X235492501Y-40511826D01*
X235682347Y-40641330D01*
X235691321Y-40646429D01*
X235899769Y-40743187D01*
X235909456Y-40746750D01*
X236130909Y-40808165D01*
X236141029Y-40810096D01*
X236265487Y-40823397D01*
X236280108Y-40820749D01*
X236283500Y-40808371D01*
X236283500Y-40806948D01*
X236791500Y-40806948D01*
X236795825Y-40821677D01*
X236807611Y-40823738D01*
X236898704Y-40816249D01*
X236908866Y-40814567D01*
X237131771Y-40758578D01*
X237141519Y-40755259D01*
X237352289Y-40663615D01*
X237361364Y-40658749D01*
X237554327Y-40533915D01*
X237562498Y-40527622D01*
X237732480Y-40372950D01*
X237739506Y-40365417D01*
X237881945Y-40185056D01*
X237887650Y-40176469D01*
X237998714Y-39975278D01*
X238002944Y-39965866D01*
X238079659Y-39749232D01*
X238082293Y-39739261D01*
X238099647Y-39641837D01*
X238098187Y-39628540D01*
X238083630Y-39624000D01*
X236809615Y-39624000D01*
X236794376Y-39628475D01*
X236793171Y-39629865D01*
X236791500Y-39637548D01*
X236791500Y-40806948D01*
X236283500Y-40806948D01*
X236283500Y-39642115D01*
X236279025Y-39626876D01*
X236277635Y-39625671D01*
X236269952Y-39624000D01*
X234989904Y-39624000D01*
X234976560Y-39627918D01*
X234974573Y-39642194D01*
X234132500Y-39642194D01*
X234132500Y-39389710D01*
X234132980Y-39378728D01*
X234135303Y-39352180D01*
X234135303Y-39352178D01*
X234136264Y-39341193D01*
X234126508Y-39304785D01*
X234124130Y-39294058D01*
X234123538Y-39290699D01*
X234117588Y-39256955D01*
X234112077Y-39247410D01*
X234110885Y-39244134D01*
X234109408Y-39240966D01*
X234106554Y-39230316D01*
X234084945Y-39199456D01*
X234079039Y-39190185D01*
X234065707Y-39167094D01*
X234060194Y-39157545D01*
X234031317Y-39133315D01*
X234023215Y-39125889D01*
X230368111Y-35470785D01*
X230360684Y-35462681D01*
X230343541Y-35442251D01*
X230343542Y-35442251D01*
X230336455Y-35433806D01*
X230326906Y-35428293D01*
X230303815Y-35414961D01*
X230294544Y-35409055D01*
X230272715Y-35393770D01*
X230263684Y-35387446D01*
X230253034Y-35384592D01*
X230249866Y-35383115D01*
X230246590Y-35381923D01*
X230237045Y-35376412D01*
X230203301Y-35370462D01*
X230199942Y-35369870D01*
X230189215Y-35367492D01*
X230152807Y-35357736D01*
X230141822Y-35358697D01*
X230141820Y-35358697D01*
X230115272Y-35361020D01*
X230104290Y-35361500D01*
X226968711Y-35361500D01*
X226957729Y-35361020D01*
X226931179Y-35358697D01*
X226931178Y-35358697D01*
X226920194Y-35357736D01*
X226909543Y-35360590D01*
X226909542Y-35360590D01*
X226883792Y-35367489D01*
X226873065Y-35369867D01*
X226846815Y-35374496D01*
X226846810Y-35374498D01*
X226835955Y-35376412D01*
X226826407Y-35381925D01*
X226823131Y-35383117D01*
X226819969Y-35384591D01*
X226809316Y-35387446D01*
X226800285Y-35393770D01*
X226778456Y-35409055D01*
X226769185Y-35414961D01*
X226746094Y-35428293D01*
X226736545Y-35433806D01*
X226729459Y-35442251D01*
X226712315Y-35462682D01*
X226704889Y-35470785D01*
X226534569Y-35641105D01*
X226499062Y-35663727D01*
X226499457Y-35664411D01*
X226499455Y-35664412D01*
X226483956Y-35673360D01*
X226464057Y-35682639D01*
X226447240Y-35688760D01*
X226438795Y-35695846D01*
X226438793Y-35695847D01*
X226433528Y-35700265D01*
X226415547Y-35712856D01*
X226400045Y-35721806D01*
X226392961Y-35730248D01*
X226392959Y-35730250D01*
X226388540Y-35735516D01*
X226373014Y-35751042D01*
X226368377Y-35754934D01*
X226359306Y-35762545D01*
X226350358Y-35778043D01*
X226337761Y-35796033D01*
X226326260Y-35809739D01*
X226322492Y-35820092D01*
X226322489Y-35820097D01*
X226320137Y-35826560D01*
X226310857Y-35846462D01*
X226301912Y-35861955D01*
X226299998Y-35872809D01*
X226299996Y-35872815D01*
X226298804Y-35879576D01*
X226293122Y-35900784D01*
X226291112Y-35906308D01*
X226287000Y-35917606D01*
X226287000Y-39267790D01*
X226286520Y-39278772D01*
X226284244Y-39304790D01*
X226283236Y-39316307D01*
X226292343Y-39350292D01*
X226292991Y-39352710D01*
X226295370Y-39363442D01*
X226301912Y-39400545D01*
X226307423Y-39410090D01*
X226308615Y-39413366D01*
X226310092Y-39416534D01*
X226312946Y-39427184D01*
X226319270Y-39436215D01*
X226334555Y-39458044D01*
X226340461Y-39467315D01*
X226344071Y-39473567D01*
X226359306Y-39499955D01*
X226367751Y-39507041D01*
X226388182Y-39524185D01*
X226396285Y-39531611D01*
X226680889Y-39816215D01*
X226688316Y-39824319D01*
X226708465Y-39848332D01*
X226737000Y-39916174D01*
X226737000Y-39919748D01*
X226748633Y-39978231D01*
X226792948Y-40044552D01*
X226859269Y-40088867D01*
X226871438Y-40091288D01*
X226871439Y-40091288D01*
X226911684Y-40099293D01*
X226917752Y-40100500D01*
X228507248Y-40100500D01*
X228513316Y-40099293D01*
X228553561Y-40091288D01*
X228553562Y-40091288D01*
X228565731Y-40088867D01*
X228632052Y-40044552D01*
X228676367Y-39978231D01*
X228688000Y-39919748D01*
X228688000Y-39329661D01*
X228708002Y-39261540D01*
X228761658Y-39215047D01*
X228831932Y-39204943D01*
X228896512Y-39234437D01*
X228903095Y-39240566D01*
X229167595Y-39505066D01*
X229201621Y-39567378D01*
X229204500Y-39594161D01*
X229204500Y-43014722D01*
X229184498Y-43082843D01*
X229130842Y-43129336D01*
X229060568Y-43139440D01*
X229030282Y-43131131D01*
X228969891Y-43106116D01*
X228962262Y-43102956D01*
X228805500Y-43082318D01*
X228648738Y-43102956D01*
X228502659Y-43163464D01*
X228377218Y-43259718D01*
X228372195Y-43266264D01*
X228336177Y-43313204D01*
X228278839Y-43355071D01*
X228236214Y-43362500D01*
X222376000Y-43362500D01*
X222307879Y-43342498D01*
X222261386Y-43288842D01*
X222250000Y-43236500D01*
X222250000Y-41519748D01*
X222737000Y-41519748D01*
X222748633Y-41578231D01*
X222792948Y-41644552D01*
X222859269Y-41688867D01*
X222871438Y-41691288D01*
X222871439Y-41691288D01*
X222911684Y-41699293D01*
X222917752Y-41700500D01*
X224757248Y-41700500D01*
X224763316Y-41699293D01*
X224803561Y-41691288D01*
X224803562Y-41691288D01*
X224815731Y-41688867D01*
X224882052Y-41644552D01*
X224926367Y-41578231D01*
X224938000Y-41519748D01*
X224938000Y-40280252D01*
X224926367Y-40221769D01*
X224882052Y-40155448D01*
X224815731Y-40111133D01*
X224803562Y-40108712D01*
X224803561Y-40108712D01*
X224763316Y-40100707D01*
X224757248Y-40099500D01*
X222917752Y-40099500D01*
X222911684Y-40100707D01*
X222871439Y-40108712D01*
X222871438Y-40108712D01*
X222859269Y-40111133D01*
X222792948Y-40155448D01*
X222748633Y-40221769D01*
X222737000Y-40280252D01*
X222737000Y-41519748D01*
X222250000Y-41519748D01*
X222250000Y-35919748D01*
X222737000Y-35919748D01*
X222748633Y-35978231D01*
X222792948Y-36044552D01*
X222859269Y-36088867D01*
X222871438Y-36091288D01*
X222871439Y-36091288D01*
X222911684Y-36099293D01*
X222917752Y-36100500D01*
X224757248Y-36100500D01*
X224763316Y-36099293D01*
X224803561Y-36091288D01*
X224803562Y-36091288D01*
X224815731Y-36088867D01*
X224882052Y-36044552D01*
X224926367Y-35978231D01*
X224938000Y-35919748D01*
X224938000Y-34680252D01*
X224926367Y-34621769D01*
X224882052Y-34555448D01*
X224815731Y-34511133D01*
X224803562Y-34508712D01*
X224803561Y-34508712D01*
X224763316Y-34500707D01*
X224757248Y-34499500D01*
X222917752Y-34499500D01*
X222911684Y-34500707D01*
X222871439Y-34508712D01*
X222871438Y-34508712D01*
X222859269Y-34511133D01*
X222792948Y-34555448D01*
X222748633Y-34621769D01*
X222737000Y-34680252D01*
X222737000Y-35919748D01*
X222250000Y-35919748D01*
X222250000Y-32638000D01*
X222270002Y-32569879D01*
X222323658Y-32523386D01*
X222376000Y-32512000D01*
X238888000Y-32512000D01*
X238956121Y-32532002D01*
G37*
%TD.AperFunction*%
%TA.AperFunction,Conductor*%
G36*
X228304335Y-44033502D02*
G01*
X228336177Y-44062796D01*
X228377218Y-44116282D01*
X228502659Y-44212536D01*
X228648738Y-44273044D01*
X228805500Y-44293682D01*
X228813688Y-44292604D01*
X228954074Y-44274122D01*
X228962262Y-44273044D01*
X229030282Y-44244869D01*
X229100871Y-44237280D01*
X229164358Y-44269059D01*
X229200586Y-44330117D01*
X229204500Y-44361278D01*
X229204500Y-44533320D01*
X229184498Y-44601441D01*
X229130842Y-44647934D01*
X229103082Y-44656899D01*
X229088939Y-44659712D01*
X229088938Y-44659712D01*
X229076769Y-44662133D01*
X229010448Y-44706448D01*
X228966133Y-44772769D01*
X228954500Y-44831252D01*
X228954500Y-45470748D01*
X228966133Y-45529231D01*
X229010448Y-45595552D01*
X229020761Y-45602443D01*
X229020763Y-45602445D01*
X229062204Y-45630135D01*
X229107732Y-45684612D01*
X229116580Y-45755055D01*
X229085938Y-45819099D01*
X229036432Y-45852882D01*
X228916946Y-45897676D01*
X228901351Y-45906214D01*
X228799276Y-45982715D01*
X228786715Y-45995276D01*
X228710214Y-46097351D01*
X228701676Y-46112946D01*
X228656522Y-46233394D01*
X228652895Y-46248649D01*
X228647369Y-46299514D01*
X228647000Y-46306328D01*
X228647000Y-46578885D01*
X228651475Y-46594124D01*
X228652865Y-46595329D01*
X228660548Y-46597000D01*
X229633000Y-46597000D01*
X229701121Y-46617002D01*
X229747614Y-46670658D01*
X229759000Y-46723000D01*
X229759000Y-47840884D01*
X229763475Y-47856123D01*
X229774689Y-47865840D01*
X229817594Y-47889267D01*
X229851620Y-47951578D01*
X229854500Y-47978364D01*
X229854500Y-49030470D01*
X229834498Y-49098591D01*
X229780842Y-49145084D01*
X229710568Y-49155188D01*
X229680282Y-49146879D01*
X229619891Y-49121864D01*
X229612262Y-49118704D01*
X229455500Y-49098066D01*
X229298738Y-49118704D01*
X229152659Y-49179212D01*
X229027218Y-49275466D01*
X228930964Y-49400907D01*
X228870456Y-49546986D01*
X228869378Y-49555175D01*
X228869079Y-49557445D01*
X228868294Y-49559219D01*
X228867241Y-49563150D01*
X228866628Y-49562986D01*
X228840357Y-49622373D01*
X228781092Y-49661465D01*
X228744157Y-49667000D01*
X222376000Y-49667000D01*
X222307879Y-49646998D01*
X222261386Y-49593342D01*
X222250000Y-49541000D01*
X222250000Y-47395669D01*
X228647001Y-47395669D01*
X228647371Y-47402490D01*
X228652895Y-47453352D01*
X228656521Y-47468604D01*
X228701676Y-47589054D01*
X228710214Y-47604649D01*
X228786715Y-47706724D01*
X228799276Y-47719285D01*
X228901351Y-47795786D01*
X228916946Y-47804324D01*
X229037394Y-47849478D01*
X229052649Y-47853105D01*
X229103514Y-47858631D01*
X229110328Y-47859000D01*
X229232885Y-47859000D01*
X229248124Y-47854525D01*
X229249329Y-47853135D01*
X229251000Y-47845452D01*
X229251000Y-47123115D01*
X229246525Y-47107876D01*
X229245135Y-47106671D01*
X229237452Y-47105000D01*
X228665116Y-47105000D01*
X228649877Y-47109475D01*
X228648672Y-47110865D01*
X228647001Y-47118548D01*
X228647001Y-47395669D01*
X222250000Y-47395669D01*
X222250000Y-44139500D01*
X222270002Y-44071379D01*
X222323658Y-44024886D01*
X222376000Y-44013500D01*
X228236214Y-44013500D01*
X228304335Y-44033502D01*
G37*
%TD.AperFunction*%
%TA.AperFunction,Conductor*%
G36*
X230005105Y-36032502D02*
G01*
X230026079Y-36049405D01*
X233444595Y-39467921D01*
X233478621Y-39530233D01*
X233481500Y-39557016D01*
X233481500Y-46416500D01*
X233461498Y-46484621D01*
X233407842Y-46531114D01*
X233355500Y-46542500D01*
X233128166Y-46542500D01*
X233110248Y-46544194D01*
X233104278Y-46544758D01*
X233104277Y-46544758D01*
X233096631Y-46545481D01*
X232968816Y-46590366D01*
X232961246Y-46595958D01*
X232961243Y-46595959D01*
X232876794Y-46658335D01*
X232859850Y-46670850D01*
X232854258Y-46678421D01*
X232784959Y-46772243D01*
X232784958Y-46772246D01*
X232779366Y-46779816D01*
X232734481Y-46907631D01*
X232733758Y-46915277D01*
X232733758Y-46915278D01*
X232732522Y-46928356D01*
X232706199Y-46994292D01*
X232648406Y-47035530D01*
X232607081Y-47042500D01*
X232181500Y-47042500D01*
X232113379Y-47022498D01*
X232066886Y-46968842D01*
X232055500Y-46916500D01*
X232055500Y-46731252D01*
X232043867Y-46672769D01*
X231999552Y-46606448D01*
X231933231Y-46562133D01*
X231921062Y-46559712D01*
X231921061Y-46559712D01*
X231880816Y-46551707D01*
X231874748Y-46550500D01*
X231281500Y-46550500D01*
X231213379Y-46530498D01*
X231166886Y-46476842D01*
X231155500Y-46424500D01*
X231155500Y-45977661D01*
X231175502Y-45909540D01*
X231192405Y-45888566D01*
X231392566Y-45688405D01*
X231454878Y-45654379D01*
X231481661Y-45651500D01*
X231874748Y-45651500D01*
X231880816Y-45650293D01*
X231921061Y-45642288D01*
X231921062Y-45642288D01*
X231933231Y-45639867D01*
X231946596Y-45630937D01*
X231974261Y-45612451D01*
X231999552Y-45595552D01*
X232043867Y-45529231D01*
X232055500Y-45470748D01*
X232055500Y-44831252D01*
X232043867Y-44772769D01*
X231999552Y-44706448D01*
X231933231Y-44662133D01*
X231921062Y-44659712D01*
X231921061Y-44659712D01*
X231906918Y-44656899D01*
X231844008Y-44623991D01*
X231808877Y-44562296D01*
X231805500Y-44533320D01*
X231805500Y-39438366D01*
X231805696Y-39435693D01*
X231807425Y-39430658D01*
X231806768Y-39413137D01*
X231805589Y-39381744D01*
X231805500Y-39377018D01*
X231805500Y-39358052D01*
X231804619Y-39353317D01*
X231804390Y-39349790D01*
X231803662Y-39330415D01*
X231803226Y-39318791D01*
X231798634Y-39308104D01*
X231797595Y-39303492D01*
X231794043Y-39291800D01*
X231792339Y-39287383D01*
X231790209Y-39275947D01*
X231777272Y-39254959D01*
X231768769Y-39238589D01*
X231762549Y-39224112D01*
X231762547Y-39224108D01*
X231759036Y-39215937D01*
X231755022Y-39211051D01*
X231752837Y-39208866D01*
X231750785Y-39206603D01*
X231750945Y-39206458D01*
X231743825Y-39197451D01*
X231737573Y-39190556D01*
X231731468Y-39180652D01*
X231709680Y-39164084D01*
X231696861Y-39152890D01*
X229968519Y-37424548D01*
X229966763Y-37422514D01*
X229964425Y-37417731D01*
X229928523Y-37384427D01*
X229925118Y-37381147D01*
X229911723Y-37367752D01*
X229907753Y-37365028D01*
X229905105Y-37362703D01*
X229890881Y-37349508D01*
X229890878Y-37349506D01*
X229882354Y-37341599D01*
X229871550Y-37337289D01*
X229867561Y-37334767D01*
X229856773Y-37329006D01*
X229852448Y-37327089D01*
X229842854Y-37320508D01*
X229831535Y-37317822D01*
X229831533Y-37317821D01*
X229818873Y-37314817D01*
X229801276Y-37309252D01*
X229786638Y-37303412D01*
X229786635Y-37303411D01*
X229778378Y-37300117D01*
X229772085Y-37299500D01*
X229769006Y-37299500D01*
X229765933Y-37299350D01*
X229765944Y-37299134D01*
X229754569Y-37297802D01*
X229745254Y-37297346D01*
X229733934Y-37294660D01*
X229722405Y-37296229D01*
X229722404Y-37296229D01*
X229706827Y-37298349D01*
X229689836Y-37299500D01*
X229062099Y-37299500D01*
X228993978Y-37279498D01*
X228947485Y-37225842D01*
X228937381Y-37155568D01*
X228944117Y-37129270D01*
X228985978Y-37017606D01*
X228989605Y-37002351D01*
X228995131Y-36951486D01*
X228995500Y-36944672D01*
X228995500Y-36872115D01*
X228991025Y-36856876D01*
X228989635Y-36855671D01*
X228981952Y-36854000D01*
X227584500Y-36854000D01*
X227516379Y-36833998D01*
X227469886Y-36780342D01*
X227458500Y-36728000D01*
X227458500Y-36472000D01*
X227478502Y-36403879D01*
X227532158Y-36357386D01*
X227584500Y-36346000D01*
X228977384Y-36346000D01*
X228992623Y-36341525D01*
X228993828Y-36340135D01*
X228995499Y-36332452D01*
X228995499Y-36255331D01*
X228995129Y-36248510D01*
X228989605Y-36197648D01*
X228984151Y-36174707D01*
X228985494Y-36174388D01*
X228980920Y-36111925D01*
X229014840Y-36049556D01*
X229077094Y-36015425D01*
X229104086Y-36012500D01*
X229936984Y-36012500D01*
X230005105Y-36032502D01*
G37*
%TD.AperFunction*%
%TD*%
%TA.AperFunction,Conductor*%
%TO.N,GND*%
G36*
X240003533Y-57740962D02*
G01*
X240060368Y-57783509D01*
X240085179Y-57850029D01*
X240085500Y-57859018D01*
X240085500Y-59310000D01*
X240065498Y-59378121D01*
X240011842Y-59424614D01*
X239959500Y-59436000D01*
X239780518Y-59436000D01*
X239712397Y-59415998D01*
X239691423Y-59399096D01*
X239249405Y-58957079D01*
X239215380Y-58894766D01*
X239212500Y-58867983D01*
X239212500Y-58480017D01*
X239232502Y-58411896D01*
X239249405Y-58390921D01*
X239870405Y-57769922D01*
X239932717Y-57735897D01*
X240003533Y-57740962D01*
G37*
%TD.AperFunction*%
%TD*%
%TA.AperFunction,Conductor*%
%TO.N,GND*%
G36*
X39899024Y-62832752D02*
G01*
X39945517Y-62886408D01*
X39955621Y-62956682D01*
X39940023Y-63001749D01*
X39923462Y-63030434D01*
X39917555Y-63039706D01*
X39895946Y-63070566D01*
X39893092Y-63081216D01*
X39891615Y-63084384D01*
X39890423Y-63087660D01*
X39884912Y-63097205D01*
X39880343Y-63123121D01*
X39878370Y-63134308D01*
X39875992Y-63145035D01*
X39866236Y-63181443D01*
X39867197Y-63192428D01*
X39867197Y-63192430D01*
X39869520Y-63218978D01*
X39870000Y-63229960D01*
X39870000Y-64968540D01*
X39869520Y-64979522D01*
X39866236Y-65017057D01*
X39869090Y-65027706D01*
X39875991Y-65053460D01*
X39878370Y-65064192D01*
X39884912Y-65101295D01*
X39890423Y-65110840D01*
X39891615Y-65114116D01*
X39893092Y-65117284D01*
X39895946Y-65127934D01*
X39907517Y-65144459D01*
X39917555Y-65158794D01*
X39923461Y-65168065D01*
X39930160Y-65179667D01*
X39942306Y-65200705D01*
X39971182Y-65224935D01*
X39979285Y-65232361D01*
X40024924Y-65278000D01*
X37912000Y-65278000D01*
X37912000Y-64461350D01*
X37932002Y-64393229D01*
X37985658Y-64346736D01*
X38055932Y-64336632D01*
X38120512Y-64366126D01*
X38127095Y-64372255D01*
X38222574Y-64467734D01*
X38235001Y-64477374D01*
X38362280Y-64552646D01*
X38376716Y-64558893D01*
X38520141Y-64600562D01*
X38528109Y-64602018D01*
X38541531Y-64599198D01*
X38544500Y-64587737D01*
X38544500Y-64585674D01*
X39052500Y-64585674D01*
X39056844Y-64600469D01*
X39067275Y-64602313D01*
X39076859Y-64600562D01*
X39220284Y-64558893D01*
X39234720Y-64552646D01*
X39361999Y-64477374D01*
X39374426Y-64467734D01*
X39478984Y-64363176D01*
X39488624Y-64350749D01*
X39563896Y-64223470D01*
X39570143Y-64209034D01*
X39605119Y-64088645D01*
X39605079Y-64074545D01*
X39597809Y-64071250D01*
X39070615Y-64071250D01*
X39055376Y-64075725D01*
X39054171Y-64077115D01*
X39052500Y-64084798D01*
X39052500Y-64585674D01*
X38544500Y-64585674D01*
X38544500Y-63689250D01*
X38564502Y-63621129D01*
X38618158Y-63574636D01*
X38670500Y-63563250D01*
X39592058Y-63563250D01*
X39605589Y-63559277D01*
X39606724Y-63551379D01*
X39570143Y-63425466D01*
X39563896Y-63411030D01*
X39488624Y-63283751D01*
X39478984Y-63271324D01*
X39374429Y-63166769D01*
X39356704Y-63153020D01*
X39315138Y-63095464D01*
X39308201Y-63045221D01*
X39308462Y-63041236D01*
X39309000Y-63037151D01*
X39309000Y-62938750D01*
X39329002Y-62870629D01*
X39382658Y-62824136D01*
X39435000Y-62812750D01*
X39830903Y-62812750D01*
X39899024Y-62832752D01*
G37*
%TD.AperFunction*%
%TA.AperFunction,Conductor*%
G36*
X42599219Y-64924785D02*
G01*
X42609490Y-64932487D01*
X42609948Y-64931802D01*
X42676269Y-64976117D01*
X42681625Y-64977182D01*
X42733159Y-65018709D01*
X42755581Y-65086072D01*
X42738024Y-65154864D01*
X42718756Y-65179667D01*
X42620423Y-65278000D01*
X42092721Y-65278000D01*
X42192554Y-65240574D01*
X42208149Y-65232036D01*
X42310224Y-65155535D01*
X42322785Y-65142974D01*
X42399286Y-65040899D01*
X42407825Y-65025302D01*
X42420668Y-64991043D01*
X42463309Y-64934278D01*
X42529870Y-64909578D01*
X42599219Y-64924785D01*
G37*
%TD.AperFunction*%
%TA.AperFunction,Conductor*%
G36*
X44793534Y-60980002D02*
G01*
X44828183Y-61013100D01*
X44864126Y-61063770D01*
X44868449Y-61067909D01*
X44868453Y-61067913D01*
X44947687Y-61143763D01*
X45019265Y-61212284D01*
X45199689Y-61328782D01*
X45398887Y-61409061D01*
X45503175Y-61429427D01*
X45605225Y-61449356D01*
X45605228Y-61449356D01*
X45609671Y-61450224D01*
X45615314Y-61450500D01*
X45773664Y-61450500D01*
X45933795Y-61435222D01*
X45939551Y-61433533D01*
X45939553Y-61433533D01*
X46030620Y-61406817D01*
X46139876Y-61374765D01*
X46145201Y-61372022D01*
X46145207Y-61372020D01*
X46171307Y-61358577D01*
X46241025Y-61345167D01*
X46306926Y-61371579D01*
X46348086Y-61429427D01*
X46355000Y-61470592D01*
X46355000Y-61991287D01*
X46334998Y-62059408D01*
X46281342Y-62105901D01*
X46211068Y-62116005D01*
X46193847Y-62112284D01*
X46061859Y-62073938D01*
X46053891Y-62072482D01*
X46040469Y-62075302D01*
X46037500Y-62086763D01*
X46037500Y-62985250D01*
X46017498Y-63053371D01*
X45963842Y-63099864D01*
X45911500Y-63111250D01*
X44989942Y-63111250D01*
X44976411Y-63115223D01*
X44975276Y-63123121D01*
X45011857Y-63249034D01*
X45018104Y-63263470D01*
X45093376Y-63390749D01*
X45103016Y-63403176D01*
X45207571Y-63507731D01*
X45225296Y-63521480D01*
X45266862Y-63579036D01*
X45273799Y-63629279D01*
X45273538Y-63633264D01*
X45273000Y-63637349D01*
X45273000Y-63735750D01*
X45252998Y-63803871D01*
X45199342Y-63850364D01*
X45147000Y-63861750D01*
X44481000Y-63861750D01*
X44412879Y-63841748D01*
X44366386Y-63788092D01*
X44355000Y-63735750D01*
X44355000Y-63634896D01*
X44375002Y-63566775D01*
X44405435Y-63534070D01*
X44510224Y-63455535D01*
X44522785Y-63442974D01*
X44599286Y-63340899D01*
X44607824Y-63325304D01*
X44652978Y-63204856D01*
X44656605Y-63189601D01*
X44662131Y-63138736D01*
X44662500Y-63131922D01*
X44662500Y-62759365D01*
X44658025Y-62744126D01*
X44656635Y-62742921D01*
X44648952Y-62741250D01*
X43326500Y-62741250D01*
X43258379Y-62721248D01*
X43211886Y-62667592D01*
X43200500Y-62615250D01*
X43200500Y-62585855D01*
X44976881Y-62585855D01*
X44976921Y-62599955D01*
X44984191Y-62603250D01*
X45511385Y-62603250D01*
X45526624Y-62598775D01*
X45527829Y-62597385D01*
X45529500Y-62589702D01*
X45529500Y-62088826D01*
X45525156Y-62074031D01*
X45514725Y-62072187D01*
X45505141Y-62073938D01*
X45361716Y-62115607D01*
X45347280Y-62121854D01*
X45220001Y-62197126D01*
X45207574Y-62206766D01*
X45103016Y-62311324D01*
X45093376Y-62323751D01*
X45018104Y-62451030D01*
X45011857Y-62465466D01*
X44976881Y-62585855D01*
X43200500Y-62585855D01*
X43200500Y-62215135D01*
X43708500Y-62215135D01*
X43712975Y-62230374D01*
X43714365Y-62231579D01*
X43722048Y-62233250D01*
X44644384Y-62233250D01*
X44659623Y-62228775D01*
X44660828Y-62227385D01*
X44662499Y-62219702D01*
X44662499Y-61842581D01*
X44662129Y-61835760D01*
X44656605Y-61784898D01*
X44652979Y-61769646D01*
X44607824Y-61649196D01*
X44599286Y-61633601D01*
X44522785Y-61531526D01*
X44510224Y-61518965D01*
X44408149Y-61442464D01*
X44392554Y-61433926D01*
X44272106Y-61388772D01*
X44256851Y-61385145D01*
X44205986Y-61379619D01*
X44199172Y-61379250D01*
X43726615Y-61379250D01*
X43711376Y-61383725D01*
X43710171Y-61385115D01*
X43708500Y-61392798D01*
X43708500Y-62215135D01*
X43200500Y-62215135D01*
X43200500Y-61397366D01*
X43196025Y-61382127D01*
X43194635Y-61380922D01*
X43186952Y-61379251D01*
X42709831Y-61379251D01*
X42703010Y-61379621D01*
X42652148Y-61385145D01*
X42636896Y-61388771D01*
X42516446Y-61433926D01*
X42500851Y-61442464D01*
X42398776Y-61518965D01*
X42386215Y-61531526D01*
X42309714Y-61633601D01*
X42301175Y-61649198D01*
X42288332Y-61683457D01*
X42245691Y-61740222D01*
X42179130Y-61764922D01*
X42109781Y-61749715D01*
X42099510Y-61742013D01*
X42099052Y-61742698D01*
X42043047Y-61705276D01*
X42032731Y-61698383D01*
X42020562Y-61695962D01*
X42020561Y-61695962D01*
X41980316Y-61687957D01*
X41974248Y-61686750D01*
X40534752Y-61686750D01*
X40528684Y-61687957D01*
X40488439Y-61695962D01*
X40488438Y-61695962D01*
X40476269Y-61698383D01*
X40409948Y-61742698D01*
X40365633Y-61809019D01*
X40354000Y-61867502D01*
X40354000Y-62035750D01*
X40333998Y-62103871D01*
X40280342Y-62150364D01*
X40228000Y-62161750D01*
X39188210Y-62161750D01*
X39177228Y-62161270D01*
X39150680Y-62158947D01*
X39150678Y-62158947D01*
X39139693Y-62157986D01*
X39103285Y-62167742D01*
X39092558Y-62170120D01*
X39089199Y-62170712D01*
X39055455Y-62176662D01*
X39045910Y-62182173D01*
X39042634Y-62183365D01*
X39039466Y-62184842D01*
X39028816Y-62187696D01*
X39019785Y-62194020D01*
X38997956Y-62209305D01*
X38988685Y-62215211D01*
X38980907Y-62219702D01*
X38956045Y-62234056D01*
X38948959Y-62242501D01*
X38931815Y-62262932D01*
X38924389Y-62271035D01*
X38855579Y-62339845D01*
X38793267Y-62373871D01*
X38766485Y-62376750D01*
X38605449Y-62376751D01*
X38588600Y-62376751D01*
X38539013Y-62383278D01*
X38430184Y-62434026D01*
X38345276Y-62518934D01*
X38340617Y-62528926D01*
X38340616Y-62528927D01*
X38300363Y-62615250D01*
X38294528Y-62627763D01*
X38288000Y-62677349D01*
X38288001Y-63037150D01*
X38288539Y-63041238D01*
X38288800Y-63045219D01*
X38273296Y-63114502D01*
X38240297Y-63153019D01*
X38222571Y-63166769D01*
X38127095Y-63262245D01*
X38064783Y-63296271D01*
X37993968Y-63291206D01*
X37937132Y-63248659D01*
X37912321Y-63182139D01*
X37912000Y-63173150D01*
X37912000Y-61086000D01*
X37932002Y-61017879D01*
X37985658Y-60971386D01*
X38038000Y-60960000D01*
X44725413Y-60960000D01*
X44793534Y-60980002D01*
G37*
%TD.AperFunction*%
%TD*%
%TA.AperFunction,Conductor*%
%TO.N,GND*%
G36*
X37102105Y-74263252D02*
G01*
X37148598Y-74316908D01*
X37158702Y-74387182D01*
X37129208Y-74451762D01*
X37123079Y-74458345D01*
X36804285Y-74777139D01*
X36796181Y-74784566D01*
X36767306Y-74808795D01*
X36761793Y-74818344D01*
X36748461Y-74841435D01*
X36742555Y-74850706D01*
X36720946Y-74881566D01*
X36718092Y-74892216D01*
X36716615Y-74895384D01*
X36715423Y-74898660D01*
X36709912Y-74908205D01*
X36705472Y-74933389D01*
X36703370Y-74945308D01*
X36700992Y-74956035D01*
X36691236Y-74992443D01*
X36692197Y-75003428D01*
X36692197Y-75003430D01*
X36694520Y-75029978D01*
X36695000Y-75040960D01*
X36695000Y-76014505D01*
X36674998Y-76082626D01*
X36621342Y-76129119D01*
X36551068Y-76139223D01*
X36520782Y-76130914D01*
X36422891Y-76090366D01*
X36415262Y-76087206D01*
X36258500Y-76066568D01*
X36101738Y-76087206D01*
X35955659Y-76147714D01*
X35830218Y-76243968D01*
X35733964Y-76369409D01*
X35673456Y-76515488D01*
X35652818Y-76672250D01*
X35673456Y-76829012D01*
X35733964Y-76975091D01*
X35830218Y-77100532D01*
X35895844Y-77150888D01*
X35925534Y-77173670D01*
X35967401Y-77231008D01*
X35971623Y-77301879D01*
X35944637Y-77355468D01*
X35937661Y-77363635D01*
X35930372Y-77374182D01*
X35858423Y-77505058D01*
X35852631Y-77519688D01*
X35815857Y-77662909D01*
X35813886Y-77678511D01*
X35813886Y-77826385D01*
X35815857Y-77841987D01*
X35852631Y-77985207D01*
X35858423Y-77999837D01*
X35930373Y-78130715D01*
X35934979Y-78137380D01*
X35946463Y-78144877D01*
X35956669Y-78138870D01*
X36591994Y-77503546D01*
X36654306Y-77469521D01*
X36725122Y-77474586D01*
X36770184Y-77503546D01*
X37421827Y-78155188D01*
X37434202Y-78161945D01*
X37440590Y-78157163D01*
X37503755Y-78042264D01*
X37509547Y-78027634D01*
X37546321Y-77884414D01*
X37547828Y-77872483D01*
X37576211Y-77807407D01*
X37635271Y-77768006D01*
X37670574Y-77764189D01*
X37670515Y-77763514D01*
X37703138Y-77760660D01*
X37708065Y-77760229D01*
X37719046Y-77759750D01*
X38270790Y-77759750D01*
X38281772Y-77760230D01*
X38308320Y-77762553D01*
X38308322Y-77762553D01*
X38319307Y-77763514D01*
X38355715Y-77753758D01*
X38366442Y-77751380D01*
X38369801Y-77750788D01*
X38403545Y-77744838D01*
X38413090Y-77739327D01*
X38416366Y-77738135D01*
X38419534Y-77736658D01*
X38430184Y-77733804D01*
X38461044Y-77712195D01*
X38470315Y-77706289D01*
X38493410Y-77692955D01*
X38493411Y-77692954D01*
X38502955Y-77687444D01*
X38527185Y-77658569D01*
X38534610Y-77650467D01*
X39478348Y-76706729D01*
X39540660Y-76672703D01*
X39611475Y-76677768D01*
X39644145Y-76695860D01*
X39680235Y-76723552D01*
X39694421Y-76731742D01*
X39817941Y-76782906D01*
X39833758Y-76787144D01*
X39933019Y-76800212D01*
X39941228Y-76800750D01*
X40132772Y-76800750D01*
X40140981Y-76800212D01*
X40240242Y-76787144D01*
X40256060Y-76782906D01*
X40379582Y-76731741D01*
X40393763Y-76723554D01*
X40506386Y-76637136D01*
X40508012Y-76639256D01*
X40558717Y-76611568D01*
X40629532Y-76616633D01*
X40686368Y-76659180D01*
X40711179Y-76725700D01*
X40711500Y-76734689D01*
X40711500Y-79884000D01*
X40691498Y-79952121D01*
X40637842Y-79998614D01*
X40585500Y-80010000D01*
X33527000Y-80010000D01*
X33458879Y-79989998D01*
X33412386Y-79936342D01*
X33401000Y-79884000D01*
X33401000Y-78510158D01*
X36309946Y-78510158D01*
X36316018Y-78518837D01*
X36324035Y-78524377D01*
X36454913Y-78596327D01*
X36469543Y-78602119D01*
X36612763Y-78638893D01*
X36628365Y-78640864D01*
X36776239Y-78640864D01*
X36791841Y-78638893D01*
X36935062Y-78602119D01*
X36949692Y-78596327D01*
X37059549Y-78535934D01*
X37069492Y-78525934D01*
X37066682Y-78518465D01*
X36693900Y-78145682D01*
X36679957Y-78138069D01*
X36678123Y-78138200D01*
X36671510Y-78142451D01*
X36317335Y-78496626D01*
X36309946Y-78510158D01*
X33401000Y-78510158D01*
X33401000Y-74685750D01*
X33421002Y-74617629D01*
X33474658Y-74571136D01*
X33527000Y-74559750D01*
X33819904Y-74559750D01*
X33888025Y-74579752D01*
X33924764Y-74621813D01*
X33926452Y-74620631D01*
X33932775Y-74629661D01*
X33937435Y-74639654D01*
X34021096Y-74723315D01*
X34031088Y-74727975D01*
X34031089Y-74727975D01*
X34115855Y-74767502D01*
X34128327Y-74773318D01*
X34177184Y-74779750D01*
X34525816Y-74779750D01*
X34574673Y-74773318D01*
X34587146Y-74767502D01*
X34671911Y-74727975D01*
X34671912Y-74727975D01*
X34681904Y-74723315D01*
X34765565Y-74639654D01*
X34766253Y-74640342D01*
X34813747Y-74602381D01*
X34884367Y-74595073D01*
X34947726Y-74627106D01*
X34956079Y-74636746D01*
X34957435Y-74639654D01*
X35041096Y-74723315D01*
X35051088Y-74727975D01*
X35051089Y-74727975D01*
X35135855Y-74767502D01*
X35148327Y-74773318D01*
X35197184Y-74779750D01*
X35545816Y-74779750D01*
X35594673Y-74773318D01*
X35607146Y-74767502D01*
X35691911Y-74727975D01*
X35691912Y-74727975D01*
X35701904Y-74723315D01*
X35785565Y-74639654D01*
X35791416Y-74627106D01*
X35831494Y-74541160D01*
X35831494Y-74541159D01*
X35835568Y-74532423D01*
X35842000Y-74483566D01*
X35842000Y-74369250D01*
X35862002Y-74301129D01*
X35915658Y-74254636D01*
X35968000Y-74243250D01*
X37033984Y-74243250D01*
X37102105Y-74263252D01*
G37*
%TD.AperFunction*%
%TA.AperFunction,Conductor*%
G36*
X48987814Y-74747544D02*
G01*
X48991045Y-74748410D01*
X48991046Y-74748410D01*
X49001693Y-74751263D01*
X49039231Y-74747979D01*
X49050212Y-74747500D01*
X50674000Y-74747500D01*
X50742121Y-74767502D01*
X50788614Y-74821158D01*
X50800000Y-74873500D01*
X50800000Y-76957484D01*
X50779998Y-77025605D01*
X50763095Y-77046579D01*
X48072079Y-79737595D01*
X48009767Y-79771621D01*
X47982984Y-79774500D01*
X44600016Y-79774500D01*
X44531895Y-79754498D01*
X44510921Y-79737595D01*
X43899405Y-79126079D01*
X43865379Y-79063767D01*
X43862500Y-79036984D01*
X43862500Y-78854369D01*
X43882502Y-78786248D01*
X43936158Y-78739755D01*
X44006432Y-78729651D01*
X44071012Y-78759145D01*
X44096954Y-78790230D01*
X44140876Y-78864499D01*
X44150516Y-78876926D01*
X44255074Y-78981484D01*
X44267501Y-78991124D01*
X44394780Y-79066396D01*
X44409216Y-79072643D01*
X44552641Y-79114312D01*
X44560609Y-79115768D01*
X44574031Y-79112948D01*
X44577000Y-79101487D01*
X44577000Y-78203000D01*
X44597002Y-78134879D01*
X44650658Y-78088386D01*
X44703000Y-78077000D01*
X44959000Y-78077000D01*
X45027121Y-78097002D01*
X45073614Y-78150658D01*
X45085000Y-78203000D01*
X45085000Y-79099424D01*
X45089344Y-79114219D01*
X45099775Y-79116063D01*
X45109359Y-79114312D01*
X45252784Y-79072643D01*
X45267220Y-79066396D01*
X45394499Y-78991124D01*
X45406926Y-78981484D01*
X45511484Y-78876926D01*
X45521124Y-78864499D01*
X45596396Y-78737220D01*
X45602643Y-78722784D01*
X45644312Y-78579359D01*
X45647771Y-78560422D01*
X45649019Y-78560650D01*
X45671878Y-78500671D01*
X45729015Y-78458530D01*
X45755759Y-78451974D01*
X45876762Y-78436044D01*
X46022841Y-78375536D01*
X46148282Y-78279282D01*
X46244536Y-78153841D01*
X46305044Y-78007762D01*
X46325682Y-77851000D01*
X46305044Y-77694238D01*
X46244536Y-77548159D01*
X46148282Y-77422718D01*
X46022841Y-77326464D01*
X45876762Y-77265956D01*
X45720000Y-77245318D01*
X45653157Y-77254118D01*
X45583010Y-77243179D01*
X45547617Y-77218291D01*
X45484111Y-77154785D01*
X45476684Y-77146681D01*
X45459541Y-77126251D01*
X45459542Y-77126251D01*
X45452455Y-77117806D01*
X45442906Y-77112293D01*
X45419815Y-77098961D01*
X45410544Y-77093055D01*
X45388715Y-77077770D01*
X45379684Y-77071446D01*
X45369034Y-77068592D01*
X45365866Y-77067115D01*
X45362589Y-77065922D01*
X45353045Y-77060412D01*
X45342191Y-77058498D01*
X45331829Y-77054727D01*
X45332335Y-77053337D01*
X45275063Y-77023523D01*
X45199316Y-76947776D01*
X45200948Y-76946144D01*
X45165900Y-76902297D01*
X45156500Y-76854542D01*
X45156500Y-76727698D01*
X45156980Y-76716716D01*
X45159302Y-76690180D01*
X45159302Y-76690178D01*
X45160263Y-76679193D01*
X45156209Y-76664062D01*
X45150512Y-76642804D01*
X45148132Y-76632069D01*
X45144165Y-76609573D01*
X45141588Y-76594955D01*
X45136076Y-76585407D01*
X45134883Y-76582130D01*
X45133406Y-76578962D01*
X45130553Y-76568316D01*
X45108942Y-76537452D01*
X45103038Y-76528184D01*
X45089704Y-76505089D01*
X45084194Y-76495545D01*
X45055330Y-76471325D01*
X45047227Y-76463900D01*
X44976134Y-76392807D01*
X44899405Y-76316079D01*
X44865380Y-76253767D01*
X44862500Y-76226983D01*
X44862500Y-75697856D01*
X44862499Y-75697854D01*
X44862499Y-75546659D01*
X44882501Y-75478539D01*
X44912934Y-75445834D01*
X44992724Y-75386035D01*
X45005281Y-75373478D01*
X45065082Y-75293685D01*
X45121942Y-75251170D01*
X45165909Y-75243250D01*
X46407734Y-75243250D01*
X46475855Y-75263252D01*
X46496829Y-75280155D01*
X46607595Y-75390921D01*
X46641621Y-75453233D01*
X46644500Y-75480016D01*
X46644500Y-75662316D01*
X46650932Y-75711173D01*
X46655006Y-75719909D01*
X46655006Y-75719910D01*
X46696275Y-75808411D01*
X46700935Y-75818404D01*
X46784596Y-75902065D01*
X46891827Y-75952068D01*
X46940684Y-75958500D01*
X47289316Y-75958500D01*
X47338173Y-75952068D01*
X47340580Y-75950946D01*
X47407806Y-75951080D01*
X47467455Y-75989583D01*
X47480519Y-76007766D01*
X47483852Y-76013402D01*
X47493503Y-76025843D01*
X47597159Y-76129499D01*
X47609595Y-76139146D01*
X47735778Y-76213770D01*
X47750217Y-76220019D01*
X47863605Y-76252961D01*
X47877705Y-76252921D01*
X47881000Y-76245651D01*
X47881000Y-76239900D01*
X48389000Y-76239900D01*
X48392973Y-76253431D01*
X48400871Y-76254566D01*
X48519783Y-76220019D01*
X48534222Y-76213770D01*
X48660405Y-76139146D01*
X48672841Y-76129499D01*
X48776499Y-76025841D01*
X48786146Y-76013405D01*
X48860770Y-75887222D01*
X48867019Y-75872783D01*
X48908338Y-75730564D01*
X48910637Y-75717977D01*
X48911260Y-75710057D01*
X48908090Y-75694970D01*
X48896626Y-75692000D01*
X48407115Y-75692000D01*
X48391876Y-75696475D01*
X48390671Y-75697865D01*
X48389000Y-75705548D01*
X48389000Y-76239900D01*
X47881000Y-76239900D01*
X47881000Y-75310000D01*
X47901002Y-75241879D01*
X47954658Y-75195386D01*
X48007000Y-75184000D01*
X48894566Y-75184000D01*
X48909361Y-75179656D01*
X48911421Y-75167997D01*
X48910637Y-75158023D01*
X48908338Y-75145436D01*
X48867019Y-75003217D01*
X48860770Y-74988778D01*
X48828013Y-74933389D01*
X48810553Y-74864573D01*
X48833070Y-74797242D01*
X48888414Y-74752773D01*
X48936466Y-74743250D01*
X48955202Y-74743250D01*
X48987814Y-74747544D01*
G37*
%TD.AperFunction*%
%TA.AperFunction,Conductor*%
G36*
X44439092Y-76786819D02*
G01*
X44475319Y-76847877D01*
X44472785Y-76918828D01*
X44442328Y-76968132D01*
X44377776Y-77032684D01*
X44373117Y-77042676D01*
X44373116Y-77042677D01*
X44338083Y-77117806D01*
X44327028Y-77141513D01*
X44320500Y-77191099D01*
X44320501Y-77550900D01*
X44321039Y-77554988D01*
X44321300Y-77558969D01*
X44305796Y-77628252D01*
X44272797Y-77666769D01*
X44255071Y-77680519D01*
X44150516Y-77785074D01*
X44140876Y-77797501D01*
X44096954Y-77871770D01*
X44045061Y-77920222D01*
X43975211Y-77932928D01*
X43909580Y-77905853D01*
X43869005Y-77847593D01*
X43862500Y-77807631D01*
X43862500Y-76926750D01*
X43882502Y-76858629D01*
X43936158Y-76812136D01*
X43988500Y-76800750D01*
X44132772Y-76800750D01*
X44140981Y-76800212D01*
X44240242Y-76787144D01*
X44256060Y-76782906D01*
X44305015Y-76762628D01*
X44375605Y-76755039D01*
X44439092Y-76786819D01*
G37*
%TD.AperFunction*%
%TA.AperFunction,Conductor*%
G36*
X36046514Y-72610212D02*
G01*
X36050599Y-72610750D01*
X36066803Y-72610750D01*
X36226281Y-72610749D01*
X36294401Y-72630751D01*
X36322804Y-72655760D01*
X36335545Y-72670944D01*
X36345094Y-72676457D01*
X36368185Y-72689789D01*
X36377456Y-72695695D01*
X36408316Y-72717304D01*
X36418966Y-72720158D01*
X36422134Y-72721635D01*
X36425410Y-72722827D01*
X36434955Y-72728338D01*
X36468699Y-72734288D01*
X36472058Y-72734880D01*
X36482785Y-72737258D01*
X36519193Y-72747014D01*
X36530169Y-72746054D01*
X36530172Y-72746054D01*
X36556743Y-72743729D01*
X36567724Y-72743250D01*
X37528000Y-72743250D01*
X37596121Y-72763252D01*
X37642614Y-72816908D01*
X37654000Y-72869250D01*
X37654000Y-72966250D01*
X37633998Y-73034371D01*
X37580342Y-73080864D01*
X37528000Y-73092250D01*
X35962151Y-73092250D01*
X35894030Y-73072248D01*
X35847537Y-73018592D01*
X35837229Y-72982693D01*
X35836827Y-72979637D01*
X35836826Y-72979634D01*
X35835568Y-72970077D01*
X35831494Y-72961340D01*
X35831493Y-72961337D01*
X35806553Y-72907854D01*
X35795891Y-72837662D01*
X35824870Y-72772849D01*
X35831652Y-72765508D01*
X35920981Y-72676179D01*
X35934730Y-72658454D01*
X35992286Y-72616888D01*
X36042529Y-72609951D01*
X36046514Y-72610212D01*
G37*
%TD.AperFunction*%
%TA.AperFunction,Conductor*%
G36*
X33675012Y-69308173D02*
G01*
X33681595Y-69314302D01*
X34332644Y-69965351D01*
X34366670Y-70027663D01*
X34361605Y-70098478D01*
X34319058Y-70155314D01*
X34278701Y-70175443D01*
X34243718Y-70185606D01*
X34229280Y-70191854D01*
X34102001Y-70267126D01*
X34089574Y-70276766D01*
X33985016Y-70381324D01*
X33975376Y-70393751D01*
X33900104Y-70521030D01*
X33893857Y-70535466D01*
X33852188Y-70678891D01*
X33850732Y-70686859D01*
X33853552Y-70700281D01*
X33865013Y-70703250D01*
X34763500Y-70703250D01*
X34831621Y-70723252D01*
X34878114Y-70776908D01*
X34889500Y-70829250D01*
X34889500Y-71085250D01*
X34869498Y-71153371D01*
X34815842Y-71199864D01*
X34763500Y-71211250D01*
X33867076Y-71211250D01*
X33852281Y-71215594D01*
X33850437Y-71226025D01*
X33852188Y-71235609D01*
X33893857Y-71379034D01*
X33900104Y-71393470D01*
X33975376Y-71520749D01*
X33985016Y-71533176D01*
X34089574Y-71637734D01*
X34102001Y-71647374D01*
X34229280Y-71722646D01*
X34243716Y-71728893D01*
X34387146Y-71770564D01*
X34393448Y-71771715D01*
X34456866Y-71803632D01*
X34467201Y-71821980D01*
X34488081Y-71843159D01*
X34500013Y-71846250D01*
X35398500Y-71846250D01*
X35466621Y-71866252D01*
X35513114Y-71919908D01*
X35524500Y-71972250D01*
X35524500Y-72228250D01*
X35504498Y-72296371D01*
X35450842Y-72342864D01*
X35398500Y-72354250D01*
X34502076Y-72354250D01*
X34487281Y-72358594D01*
X34485437Y-72369025D01*
X34487188Y-72378609D01*
X34528857Y-72522034D01*
X34538253Y-72543747D01*
X34535904Y-72544763D01*
X34550281Y-72601424D01*
X34527766Y-72668756D01*
X34472423Y-72713226D01*
X34424368Y-72722750D01*
X34177184Y-72722750D01*
X34128327Y-72729182D01*
X34119591Y-72733256D01*
X34119590Y-72733256D01*
X34055264Y-72763252D01*
X34021096Y-72779185D01*
X33937435Y-72862846D01*
X33932775Y-72872839D01*
X33926452Y-72881869D01*
X33924451Y-72880468D01*
X33887667Y-72922245D01*
X33820389Y-72941710D01*
X33592500Y-72941710D01*
X33524379Y-72921708D01*
X33477886Y-72868052D01*
X33466500Y-72815710D01*
X33466500Y-69403397D01*
X33486502Y-69335276D01*
X33540158Y-69288783D01*
X33610432Y-69278679D01*
X33675012Y-69308173D01*
G37*
%TD.AperFunction*%
%TA.AperFunction,Conductor*%
G36*
X50742121Y-67219502D02*
G01*
X50788614Y-67273158D01*
X50800000Y-67325500D01*
X50800000Y-70466250D01*
X50779998Y-70534371D01*
X50726342Y-70580864D01*
X50674000Y-70592250D01*
X48868149Y-70592250D01*
X48800028Y-70572248D01*
X48753535Y-70518592D01*
X48743431Y-70448318D01*
X48747152Y-70431096D01*
X48761313Y-70382355D01*
X48762768Y-70374391D01*
X48759948Y-70360969D01*
X48748487Y-70358000D01*
X47850000Y-70358000D01*
X47781879Y-70337998D01*
X47735386Y-70284342D01*
X47724000Y-70232000D01*
X47724000Y-69976000D01*
X47744002Y-69907879D01*
X47797658Y-69861386D01*
X47850000Y-69850000D01*
X48746424Y-69850000D01*
X48761219Y-69845656D01*
X48763063Y-69835225D01*
X48761312Y-69825641D01*
X48719643Y-69682216D01*
X48713396Y-69667780D01*
X48638124Y-69540501D01*
X48628484Y-69528074D01*
X48523926Y-69423516D01*
X48511499Y-69413876D01*
X48384220Y-69338604D01*
X48369784Y-69332357D01*
X48226359Y-69290688D01*
X48207422Y-69287229D01*
X48207698Y-69285715D01*
X48148611Y-69263196D01*
X48106470Y-69206060D01*
X48099914Y-69146423D01*
X48103104Y-69122190D01*
X48103104Y-69122187D01*
X48104182Y-69114000D01*
X48083544Y-68957238D01*
X48023036Y-68811159D01*
X47926782Y-68685718D01*
X47801341Y-68589464D01*
X47655262Y-68528956D01*
X47498500Y-68508318D01*
X47341738Y-68528956D01*
X47195659Y-68589464D01*
X47070218Y-68685718D01*
X46973964Y-68811159D01*
X46913456Y-68957238D01*
X46892818Y-69114000D01*
X46913310Y-69269651D01*
X46902371Y-69339798D01*
X46877483Y-69375191D01*
X46801785Y-69450889D01*
X46793681Y-69458316D01*
X46764806Y-69482545D01*
X46759293Y-69492094D01*
X46745961Y-69515185D01*
X46740055Y-69524456D01*
X46718446Y-69555316D01*
X46715592Y-69565966D01*
X46714115Y-69569134D01*
X46712922Y-69572411D01*
X46707412Y-69581955D01*
X46705498Y-69592809D01*
X46701727Y-69603171D01*
X46700337Y-69602665D01*
X46670523Y-69659937D01*
X46602749Y-69727711D01*
X46540437Y-69761737D01*
X46469622Y-69756672D01*
X46412786Y-69714125D01*
X46397245Y-69686834D01*
X46350991Y-69575168D01*
X46342804Y-69560987D01*
X46261413Y-69454915D01*
X46249833Y-69443336D01*
X46143765Y-69361948D01*
X46129579Y-69353758D01*
X46006059Y-69302594D01*
X45990242Y-69298356D01*
X45890981Y-69285288D01*
X45882772Y-69284750D01*
X44988500Y-69284750D01*
X44920379Y-69264748D01*
X44873886Y-69211092D01*
X44862500Y-69158750D01*
X44862500Y-67791016D01*
X44882502Y-67722895D01*
X44899405Y-67701921D01*
X45364921Y-67236405D01*
X45427233Y-67202379D01*
X45454016Y-67199500D01*
X50674000Y-67199500D01*
X50742121Y-67219502D01*
G37*
%TD.AperFunction*%
%TA.AperFunction,Conductor*%
G36*
X39812121Y-64663002D02*
G01*
X39858614Y-64716658D01*
X39870000Y-64769000D01*
X39870000Y-64968540D01*
X39869520Y-64979522D01*
X39866236Y-65017057D01*
X39869090Y-65027706D01*
X39875991Y-65053460D01*
X39878370Y-65064192D01*
X39884912Y-65101295D01*
X39890423Y-65110840D01*
X39891615Y-65114116D01*
X39893092Y-65117284D01*
X39895946Y-65127934D01*
X39907517Y-65144459D01*
X39917555Y-65158794D01*
X39923461Y-65168065D01*
X39930160Y-65179667D01*
X39942306Y-65200705D01*
X39971182Y-65224935D01*
X39979285Y-65232361D01*
X41174595Y-66427672D01*
X41208621Y-66489984D01*
X41211500Y-66516767D01*
X41211500Y-67908750D01*
X41191498Y-67976871D01*
X41137842Y-68023364D01*
X41085500Y-68034750D01*
X40988500Y-68034750D01*
X40920379Y-68014748D01*
X40873886Y-67961092D01*
X40862500Y-67908750D01*
X40862500Y-67889463D01*
X40862979Y-67878482D01*
X40865303Y-67851920D01*
X40865303Y-67851918D01*
X40866263Y-67840943D01*
X40856508Y-67804533D01*
X40854133Y-67793822D01*
X40849501Y-67767556D01*
X40847588Y-67756705D01*
X40842078Y-67747161D01*
X40840886Y-67743885D01*
X40839407Y-67740714D01*
X40836554Y-67730066D01*
X40814940Y-67699198D01*
X40809036Y-67689929D01*
X40795707Y-67666842D01*
X40795704Y-67666838D01*
X40790194Y-67657295D01*
X40761330Y-67633075D01*
X40753227Y-67625650D01*
X40030604Y-66903028D01*
X40023177Y-66894923D01*
X40006041Y-66874501D01*
X39998955Y-66866056D01*
X39977796Y-66853840D01*
X39966315Y-66847211D01*
X39957044Y-66841305D01*
X39926184Y-66819696D01*
X39915534Y-66816842D01*
X39912366Y-66815365D01*
X39909090Y-66814173D01*
X39899545Y-66808662D01*
X39865801Y-66802712D01*
X39862442Y-66802120D01*
X39851715Y-66799742D01*
X39815307Y-66789986D01*
X39788318Y-66792347D01*
X39718716Y-66778359D01*
X39667724Y-66728959D01*
X39651533Y-66659834D01*
X39668886Y-66602687D01*
X39690895Y-66565472D01*
X39697143Y-66551034D01*
X39732119Y-66430645D01*
X39732079Y-66416545D01*
X39724809Y-66413250D01*
X38797500Y-66413250D01*
X38729379Y-66393248D01*
X38682886Y-66339592D01*
X38671500Y-66287250D01*
X38671500Y-65887135D01*
X39179500Y-65887135D01*
X39183975Y-65902374D01*
X39185365Y-65903579D01*
X39193048Y-65905250D01*
X39719058Y-65905250D01*
X39732589Y-65901277D01*
X39733724Y-65893379D01*
X39697143Y-65767466D01*
X39690896Y-65753030D01*
X39615624Y-65625751D01*
X39605984Y-65613324D01*
X39501426Y-65508766D01*
X39488999Y-65499126D01*
X39361720Y-65423854D01*
X39347284Y-65417607D01*
X39203859Y-65375938D01*
X39195891Y-65374482D01*
X39182469Y-65377302D01*
X39179500Y-65388763D01*
X39179500Y-65887135D01*
X38671500Y-65887135D01*
X38671500Y-65390826D01*
X38667156Y-65376031D01*
X38656725Y-65374187D01*
X38647141Y-65375938D01*
X38503716Y-65417607D01*
X38489280Y-65423854D01*
X38362001Y-65499126D01*
X38349574Y-65508766D01*
X38245016Y-65613324D01*
X38235376Y-65625751D01*
X38160104Y-65753030D01*
X38153857Y-65767466D01*
X38112188Y-65910891D01*
X38109886Y-65923494D01*
X38107693Y-65951355D01*
X38107465Y-65957177D01*
X38084811Y-66024462D01*
X38029375Y-66068818D01*
X37998010Y-66077163D01*
X37957473Y-66082500D01*
X37949844Y-66085660D01*
X37815648Y-66141246D01*
X37745058Y-66148835D01*
X37681571Y-66117056D01*
X37645344Y-66055998D01*
X37647878Y-65985046D01*
X37678335Y-65935742D01*
X37802722Y-65811355D01*
X37810826Y-65803928D01*
X37831250Y-65786790D01*
X37839694Y-65779705D01*
X37845204Y-65770162D01*
X37845207Y-65770158D01*
X37858536Y-65747071D01*
X37864441Y-65737801D01*
X37865989Y-65735591D01*
X37873053Y-65725501D01*
X37879732Y-65715963D01*
X37886054Y-65706934D01*
X37888907Y-65696286D01*
X37890386Y-65693115D01*
X37891578Y-65689839D01*
X37897088Y-65680295D01*
X37903634Y-65643174D01*
X37906008Y-65632467D01*
X37915763Y-65596057D01*
X37912479Y-65558519D01*
X37912000Y-65547538D01*
X37912000Y-64769000D01*
X37932002Y-64700879D01*
X37985658Y-64654386D01*
X38038000Y-64643000D01*
X39744000Y-64643000D01*
X39812121Y-64663002D01*
G37*
%TD.AperFunction*%
%TA.AperFunction,Conductor*%
G36*
X41508500Y-65277134D02*
G01*
X41512975Y-65292373D01*
X41514365Y-65293578D01*
X41522048Y-65295249D01*
X41999169Y-65295249D01*
X42005990Y-65294879D01*
X42056852Y-65289355D01*
X42072104Y-65285729D01*
X42192554Y-65240574D01*
X42208149Y-65232036D01*
X42310224Y-65155535D01*
X42322785Y-65142974D01*
X42399286Y-65040899D01*
X42407825Y-65025302D01*
X42420668Y-64991043D01*
X42463309Y-64934278D01*
X42529870Y-64909578D01*
X42599219Y-64924785D01*
X42609490Y-64932487D01*
X42609948Y-64931802D01*
X42676269Y-64976117D01*
X42681625Y-64977182D01*
X42733159Y-65018709D01*
X42755581Y-65086072D01*
X42738024Y-65154864D01*
X42718760Y-65179663D01*
X41872095Y-66026329D01*
X41809784Y-66060353D01*
X41738969Y-66055289D01*
X41693906Y-66026329D01*
X41374511Y-65706934D01*
X41037404Y-65369828D01*
X41003380Y-65307516D01*
X41000500Y-65280733D01*
X41000500Y-64643000D01*
X41508500Y-64643000D01*
X41508500Y-65277134D01*
G37*
%TD.AperFunction*%
%TD*%
%TA.AperFunction,Conductor*%
%TO.N,GND*%
G36*
X35883121Y-57805002D02*
G01*
X35929614Y-57858658D01*
X35941000Y-57911000D01*
X35941000Y-59378884D01*
X35945475Y-59394123D01*
X35946865Y-59395328D01*
X35954548Y-59396999D01*
X36292421Y-59396999D01*
X36360542Y-59417001D01*
X36407035Y-59470657D01*
X36417139Y-59540931D01*
X36408830Y-59571215D01*
X36371956Y-59660238D01*
X36351318Y-59817000D01*
X36371956Y-59973762D01*
X36432464Y-60119841D01*
X36437491Y-60126393D01*
X36441621Y-60133546D01*
X36439229Y-60134927D01*
X36459948Y-60188510D01*
X36445687Y-60258059D01*
X36396088Y-60308858D01*
X36334385Y-60325000D01*
X34741500Y-60325000D01*
X34673379Y-60304998D01*
X34626886Y-60251342D01*
X34615500Y-60199000D01*
X34615500Y-59518591D01*
X34635502Y-59450470D01*
X34689158Y-59403977D01*
X34755107Y-59393328D01*
X34785512Y-59396631D01*
X34792328Y-59397000D01*
X35414885Y-59397000D01*
X35430124Y-59392525D01*
X35431329Y-59391135D01*
X35433000Y-59383452D01*
X35433000Y-57911000D01*
X35453002Y-57842879D01*
X35506658Y-57796386D01*
X35559000Y-57785000D01*
X35815000Y-57785000D01*
X35883121Y-57805002D01*
G37*
%TD.AperFunction*%
%TD*%
M02*
