%TF.GenerationSoftware,KiCad,Pcbnew,(6.0.7)*%
%TF.CreationDate,2022-12-16T21:18:24+01:00*%
%TF.ProjectId,Didaktik multilayout,44696461-6b74-4696-9b20-6d756c74696c,rev?*%
%TF.SameCoordinates,Original*%
%TF.FileFunction,Paste,Bot*%
%TF.FilePolarity,Positive*%
%FSLAX46Y46*%
G04 Gerber Fmt 4.6, Leading zero omitted, Abs format (unit mm)*
G04 Created by KiCad (PCBNEW (6.0.7)) date 2022-12-16 21:18:24*
%MOMM*%
%LPD*%
G01*
G04 APERTURE LIST*
G04 Aperture macros list*
%AMRoundRect*
0 Rectangle with rounded corners*
0 $1 Rounding radius*
0 $2 $3 $4 $5 $6 $7 $8 $9 X,Y pos of 4 corners*
0 Add a 4 corners polygon primitive as box body*
4,1,4,$2,$3,$4,$5,$6,$7,$8,$9,$2,$3,0*
0 Add four circle primitives for the rounded corners*
1,1,$1+$1,$2,$3*
1,1,$1+$1,$4,$5*
1,1,$1+$1,$6,$7*
1,1,$1+$1,$8,$9*
0 Add four rect primitives between the rounded corners*
20,1,$1+$1,$2,$3,$4,$5,0*
20,1,$1+$1,$4,$5,$6,$7,0*
20,1,$1+$1,$6,$7,$8,$9,0*
20,1,$1+$1,$8,$9,$2,$3,0*%
G04 Aperture macros list end*
%ADD10R,1.200000X0.900000*%
%ADD11RoundRect,0.140000X0.170000X-0.140000X0.170000X0.140000X-0.170000X0.140000X-0.170000X-0.140000X0*%
%ADD12RoundRect,0.135000X-0.135000X-0.185000X0.135000X-0.185000X0.135000X0.185000X-0.135000X0.185000X0*%
%ADD13R,1.400000X1.200000*%
%ADD14RoundRect,0.250000X-0.275000X-0.275000X0.275000X-0.275000X0.275000X0.275000X-0.275000X0.275000X0*%
%ADD15RoundRect,0.062500X-0.475000X-0.062500X0.475000X-0.062500X0.475000X0.062500X-0.475000X0.062500X0*%
%ADD16RoundRect,0.062500X-0.062500X-0.475000X0.062500X-0.475000X0.062500X0.475000X-0.062500X0.475000X0*%
%ADD17RoundRect,0.250000X-0.625000X0.375000X-0.625000X-0.375000X0.625000X-0.375000X0.625000X0.375000X0*%
%ADD18R,1.800000X1.200000*%
%ADD19R,1.550000X0.600000*%
%ADD20RoundRect,0.140000X-0.170000X0.140000X-0.170000X-0.140000X0.170000X-0.140000X0.170000X0.140000X0*%
%ADD21RoundRect,0.135000X-0.185000X0.135000X-0.185000X-0.135000X0.185000X-0.135000X0.185000X0.135000X0*%
%ADD22RoundRect,0.135000X0.185000X-0.135000X0.185000X0.135000X-0.185000X0.135000X-0.185000X-0.135000X0*%
%ADD23R,0.700000X1.000000*%
%ADD24R,0.700000X0.600000*%
%ADD25RoundRect,0.140000X-0.140000X-0.170000X0.140000X-0.170000X0.140000X0.170000X-0.140000X0.170000X0*%
%ADD26RoundRect,0.140000X0.140000X0.170000X-0.140000X0.170000X-0.140000X-0.170000X0.140000X-0.170000X0*%
%ADD27RoundRect,0.140000X-0.021213X0.219203X-0.219203X0.021213X0.021213X-0.219203X0.219203X-0.021213X0*%
G04 APERTURE END LIST*
D10*
%TO.C,D29*%
X177800000Y-103250000D03*
X177800000Y-99950000D03*
%TD*%
%TO.C,D6*%
X73025000Y-61975000D03*
X73025000Y-58675000D03*
%TD*%
D11*
%TO.C,C1*%
X38925500Y-67119250D03*
X38925500Y-66159250D03*
%TD*%
D10*
%TO.C,D14*%
X111125000Y-61975000D03*
X111125000Y-58675000D03*
%TD*%
%TO.C,D40*%
X234950000Y-81025000D03*
X234950000Y-77725000D03*
%TD*%
%TO.C,D8*%
X73025000Y-103250000D03*
X73025000Y-99950000D03*
%TD*%
%TO.C,D3*%
X63500000Y-81025000D03*
X63500000Y-77725000D03*
%TD*%
%TO.C,D36*%
X215900000Y-81025000D03*
X215900000Y-77725000D03*
%TD*%
%TO.C,D32*%
X196850000Y-81025000D03*
X196850000Y-77725000D03*
%TD*%
D11*
%TO.C,C4*%
X38798500Y-63817250D03*
X38798500Y-62857250D03*
%TD*%
D10*
%TO.C,D1*%
X44450000Y-42925000D03*
X44450000Y-39625000D03*
%TD*%
D12*
%TO.C,R4*%
X47115000Y-75438000D03*
X48135000Y-75438000D03*
%TD*%
D13*
%TO.C,Y1*%
X43454500Y-64187250D03*
X41254500Y-64187250D03*
X41254500Y-62487250D03*
X43454500Y-62487250D03*
%TD*%
D10*
%TO.C,D15*%
X120650000Y-81025000D03*
X120650000Y-77725000D03*
%TD*%
D14*
%TO.C,U1*%
X42687000Y-70467750D03*
X40087000Y-70467750D03*
X43987000Y-70467750D03*
X41387000Y-74367750D03*
X40087000Y-73067750D03*
X42687000Y-73067750D03*
X42687000Y-71767750D03*
X43987000Y-71767750D03*
X41387000Y-70467750D03*
X41387000Y-71767750D03*
X41387000Y-73067750D03*
X42687000Y-74367750D03*
X40087000Y-74367750D03*
X43987000Y-73067750D03*
X40087000Y-71767750D03*
X43987000Y-74367750D03*
D15*
X38699500Y-74917750D03*
X38699500Y-74417750D03*
X38699500Y-73917750D03*
X38699500Y-73417750D03*
X38699500Y-72917750D03*
X38699500Y-72417750D03*
X38699500Y-71917750D03*
X38699500Y-71417750D03*
X38699500Y-70917750D03*
X38699500Y-70417750D03*
X38699500Y-69917750D03*
D16*
X39537000Y-69080250D03*
X40037000Y-69080250D03*
X40537000Y-69080250D03*
X41037000Y-69080250D03*
X41537000Y-69080250D03*
X42037000Y-69080250D03*
X42537000Y-69080250D03*
X43037000Y-69080250D03*
X43537000Y-69080250D03*
X44037000Y-69080250D03*
X44537000Y-69080250D03*
D15*
X45374500Y-69917750D03*
X45374500Y-70417750D03*
X45374500Y-70917750D03*
X45374500Y-71417750D03*
X45374500Y-71917750D03*
X45374500Y-72417750D03*
X45374500Y-72917750D03*
X45374500Y-73417750D03*
X45374500Y-73917750D03*
X45374500Y-74417750D03*
X45374500Y-74917750D03*
D16*
X44537000Y-75755250D03*
X44037000Y-75755250D03*
X43537000Y-75755250D03*
X43037000Y-75755250D03*
X42537000Y-75755250D03*
X42037000Y-75755250D03*
X41537000Y-75755250D03*
X41037000Y-75755250D03*
X40537000Y-75755250D03*
X40037000Y-75755250D03*
X39537000Y-75755250D03*
%TD*%
D10*
%TO.C,D34*%
X196850000Y-42925000D03*
X196850000Y-39625000D03*
%TD*%
%TO.C,D23*%
X158750000Y-81025000D03*
X158750000Y-77725000D03*
%TD*%
%TO.C,D21*%
X139700000Y-42925000D03*
X139700000Y-39625000D03*
%TD*%
%TO.C,D39*%
X225425000Y-61975000D03*
X225425000Y-58675000D03*
%TD*%
%TO.C,D30*%
X177800000Y-42925000D03*
X177800000Y-39625000D03*
%TD*%
%TO.C,D41*%
X234950000Y-103250000D03*
X234950000Y-99950000D03*
%TD*%
%TO.C,D20*%
X139700000Y-103250000D03*
X139700000Y-99950000D03*
%TD*%
%TO.C,D24*%
X158750000Y-103250000D03*
X158750000Y-99950000D03*
%TD*%
D17*
%TO.C,F1*%
X233807000Y-47368000D03*
X233807000Y-50168000D03*
%TD*%
D10*
%TO.C,D26*%
X158750000Y-42925000D03*
X158750000Y-39625000D03*
%TD*%
%TO.C,D22*%
X149225000Y-61975000D03*
X149225000Y-58675000D03*
%TD*%
D18*
%TO.C,J1*%
X223837500Y-35300000D03*
X223837500Y-40900000D03*
D19*
X227712500Y-39600000D03*
X227712500Y-38600000D03*
X227712500Y-37600000D03*
X227712500Y-36600000D03*
%TD*%
D10*
%TO.C,D13*%
X101600000Y-42925000D03*
X101600000Y-39625000D03*
%TD*%
D20*
%TO.C,C3*%
X45783500Y-62857250D03*
X45783500Y-63817250D03*
%TD*%
D10*
%TO.C,D7*%
X82550000Y-81025000D03*
X82550000Y-77725000D03*
%TD*%
%TO.C,D4*%
X49212500Y-103250000D03*
X49212500Y-99950000D03*
%TD*%
D12*
%TO.C,R2*%
X34351500Y-73243250D03*
X35371500Y-73243250D03*
%TD*%
D10*
%TO.C,D38*%
X215900000Y-42925000D03*
X215900000Y-39625000D03*
%TD*%
D21*
%TO.C,R3*%
X36068000Y-66065750D03*
X36068000Y-67085750D03*
%TD*%
D10*
%TO.C,D31*%
X187325000Y-61975000D03*
X187325000Y-58675000D03*
%TD*%
%TO.C,D2*%
X53975000Y-61975000D03*
X53975000Y-58675000D03*
%TD*%
%TO.C,D9*%
X82550000Y-42925000D03*
X82550000Y-39625000D03*
%TD*%
%TO.C,D12*%
X92075000Y-103250000D03*
X92075000Y-99950000D03*
%TD*%
%TO.C,D35*%
X206375000Y-61975000D03*
X206375000Y-58675000D03*
%TD*%
D22*
%TO.C,R9*%
X239769074Y-38610000D03*
X239769074Y-37590000D03*
%TD*%
D10*
%TO.C,D33*%
X196850000Y-103250000D03*
X196850000Y-99950000D03*
%TD*%
%TO.C,D17*%
X120650000Y-42862500D03*
X120650000Y-39562500D03*
%TD*%
%TO.C,D27*%
X168275000Y-61975000D03*
X168275000Y-58675000D03*
%TD*%
D23*
%TO.C,D25*%
X229505000Y-46851000D03*
D24*
X229505000Y-45151000D03*
X231505000Y-45151000D03*
X231505000Y-47051000D03*
%TD*%
D10*
%TO.C,D16*%
X111125000Y-103250000D03*
X111125000Y-99950000D03*
%TD*%
%TO.C,D28*%
X177800000Y-81025000D03*
X177800000Y-77725000D03*
%TD*%
%TO.C,D18*%
X130175000Y-61975000D03*
X130175000Y-58675000D03*
%TD*%
D22*
%TO.C,R8*%
X239712500Y-44960000D03*
X239712500Y-43940000D03*
%TD*%
D10*
%TO.C,D5*%
X63500000Y-42925000D03*
X63500000Y-39625000D03*
%TD*%
%TO.C,D19*%
X139700000Y-81025000D03*
X139700000Y-77725000D03*
%TD*%
D25*
%TO.C,C5*%
X47018000Y-70104000D03*
X47978000Y-70104000D03*
%TD*%
D10*
%TO.C,D10*%
X92075000Y-61975000D03*
X92075000Y-58675000D03*
%TD*%
D12*
%TO.C,R1*%
X34351500Y-74259250D03*
X35371500Y-74259250D03*
%TD*%
D20*
%TO.C,C7*%
X44831000Y-77371000D03*
X44831000Y-78331000D03*
%TD*%
D26*
%TO.C,C6*%
X36230500Y-72100250D03*
X35270500Y-72100250D03*
%TD*%
D10*
%TO.C,D37*%
X215900000Y-103250000D03*
X215900000Y-99950000D03*
%TD*%
D27*
%TO.C,C2*%
X37359911Y-77094839D03*
X36681089Y-77773661D03*
%TD*%
D26*
%TO.C,C8*%
X35595500Y-70957250D03*
X34635500Y-70957250D03*
%TD*%
D10*
%TO.C,D11*%
X101600000Y-81025000D03*
X101600000Y-77725000D03*
%TD*%
M02*
