M48
; DRILL file {KiCad (6.0.7)} date Sun Jan  1 22:37:00 2023
; FORMAT={-:-/ absolute / inch / decimal}
; #@! TF.CreationDate,2023-01-01T22:37:00+01:00
; #@! TF.GenerationSoftware,Kicad,Pcbnew,(6.0.7)
; #@! TF.FileFunction,NonPlated,1,2,NPTH
FMAT,2
INCH
; #@! TA.AperFunction,NonPlated,NPTH,ComponentDrill
T1C0.0689
; #@! TA.AperFunction,NonPlated,NPTH,ComponentDrill
T2C0.1200
; #@! TA.AperFunction,NonPlated,NPTH,ComponentDrill
T3C0.1570
%
G90
G05
T1
X1.425Y-1.625
X1.425Y-3.875
X1.6125Y-3.875
X1.8Y-2.375
X1.825Y-1.625
X1.825Y-3.875
X2.0125Y-3.875
X2.175Y-1.625
X2.175Y-3.125
X2.175Y-3.875
X2.2Y-2.375
X2.55Y-2.375
X2.55Y-3.875
X2.575Y-1.625
X2.575Y-3.125
X2.575Y-3.875
X2.925Y-1.625
X2.925Y-3.125
X2.925Y-3.875
X2.95Y-2.375
X2.95Y-3.875
X3.3Y-2.375
X3.3Y-3.875
X3.325Y-1.625
X3.325Y-3.125
X3.325Y-3.875
X3.675Y-1.625
X3.675Y-3.125
X3.675Y-3.875
X3.7Y-2.375
X3.7Y-3.875
X4.05Y-2.375
X4.05Y-3.875
X4.05Y-3.875
X4.075Y-1.625
X4.075Y-3.125
X4.075Y-3.875
X4.425Y-1.625
X4.425Y-3.125
X4.425Y-3.875
X4.45Y-2.375
X4.45Y-3.875
X4.45Y-3.875
X4.6125Y-3.875
X4.8Y-2.375
X4.8Y-3.875
X4.825Y-1.625
X4.825Y-3.125
X4.825Y-3.875
X5.0125Y-3.875
X5.17Y-1.625
X5.175Y-3.125
X5.175Y-3.875
X5.175Y-3.875
X5.2Y-2.375
X5.2Y-3.875
X5.55Y-2.375
X5.55Y-3.875
X5.57Y-1.625
X5.575Y-3.125
X5.575Y-3.875
X5.575Y-3.875
X5.7375Y-3.875
X5.925Y-1.625
X5.925Y-3.125
X5.925Y-3.875
X5.95Y-2.375
X5.95Y-3.875
X6.1375Y-3.875
X6.3Y-2.375
X6.3Y-3.875
X6.3Y-3.875
X6.325Y-1.625
X6.325Y-3.125
X6.325Y-3.875
X6.675Y-1.625
X6.675Y-3.125
X6.675Y-3.875
X6.7Y-2.375
X6.7Y-3.875
X6.7Y-3.875
X7.05Y-2.375
X7.05Y-3.875
X7.075Y-1.625
X7.075Y-3.125
X7.075Y-3.875
X7.425Y-1.625
X7.425Y-3.125
X7.425Y-3.875
X7.45Y-2.375
X7.45Y-3.875
X7.8Y-2.375
X7.8Y-3.875
X7.825Y-1.625
X7.825Y-3.125
X7.825Y-3.875
X8.175Y-1.625
X8.175Y-3.125
X8.175Y-3.875
X8.2Y-2.375
X8.2Y-3.875
X8.55Y-2.375
X8.575Y-1.625
X8.575Y-3.125
X8.575Y-3.875
X8.7375Y-3.875
X8.925Y-3.125
X8.925Y-3.875
X8.95Y-2.375
X9.1375Y-3.875
X9.325Y-3.125
X9.325Y-3.875
T2
X3.125Y-4.15
X3.5Y-4.15
X3.5Y-4.15
X4.1562Y-4.15
X5.0Y-4.15
X5.0938Y-4.15
X5.6562Y-4.15
X5.75Y-4.15
X6.5938Y-4.15
X7.25Y-4.15
X7.25Y-4.15
X7.625Y-4.15
T3
X1.625Y-1.625
X1.625Y-3.875
X1.8125Y-3.875
X2.0Y-2.375
X2.375Y-1.625
X2.375Y-3.125
X2.375Y-3.875
X2.75Y-2.375
X2.75Y-3.875
X3.125Y-1.625
X3.125Y-3.125
X3.125Y-3.55
X3.125Y-3.875
X3.5Y-2.375
X3.5Y-3.55
X3.5Y-3.55
X3.5Y-3.875
X3.875Y-1.625
X3.875Y-3.125
X3.875Y-3.875
X4.1562Y-3.55
X4.25Y-2.375
X4.25Y-3.875
X4.25Y-3.875
X4.625Y-1.625
X4.625Y-3.125
X4.625Y-3.875
X4.8125Y-3.875
X5.0Y-2.375
X5.0Y-3.55
X5.0Y-3.875
X5.0938Y-3.55
X5.37Y-1.625
X5.375Y-3.125
X5.375Y-3.875
X5.375Y-3.875
X5.6562Y-3.55
X5.75Y-2.375
X5.75Y-3.55
X5.75Y-3.875
X5.9375Y-3.875
X6.125Y-1.625
X6.125Y-3.125
X6.125Y-3.875
X6.5Y-2.375
X6.5Y-3.875
X6.5Y-3.875
X6.5938Y-3.55
X6.875Y-1.625
X6.875Y-3.125
X6.875Y-3.875
X7.25Y-2.375
X7.25Y-3.55
X7.25Y-3.55
X7.25Y-3.875
X7.625Y-1.625
X7.625Y-3.125
X7.625Y-3.55
X7.625Y-3.875
X8.0Y-2.375
X8.0Y-3.875
X8.375Y-1.625
X8.375Y-3.125
X8.375Y-3.875
X8.75Y-2.375
X8.9375Y-3.875
X9.125Y-3.125
X9.125Y-3.875
T0
M30
