%TF.GenerationSoftware,KiCad,Pcbnew,(6.0.7)*%
%TF.CreationDate,2022-10-29T13:55:09+02:00*%
%TF.ProjectId,Didaktik,44696461-6b74-4696-9b2e-6b696361645f,rev?*%
%TF.SameCoordinates,Original*%
%TF.FileFunction,Soldermask,Top*%
%TF.FilePolarity,Negative*%
%FSLAX46Y46*%
G04 Gerber Fmt 4.6, Leading zero omitted, Abs format (unit mm)*
G04 Created by KiCad (PCBNEW (6.0.7)) date 2022-10-29 13:55:09*
%MOMM*%
%LPD*%
G01*
G04 APERTURE LIST*
G04 Aperture macros list*
%AMHorizOval*
0 Thick line with rounded ends*
0 $1 width*
0 $2 $3 position (X,Y) of the first rounded end (center of the circle)*
0 $4 $5 position (X,Y) of the second rounded end (center of the circle)*
0 Add line between two ends*
20,1,$1,$2,$3,$4,$5,0*
0 Add two circle primitives to create the rounded ends*
1,1,$1,$2,$3*
1,1,$1,$4,$5*%
G04 Aperture macros list end*
%ADD10C,1.200000*%
%ADD11C,1.700000*%
%ADD12C,1.750000*%
%ADD13C,3.987800*%
%ADD14C,2.000000*%
%ADD15C,2.250000*%
%ADD16HorizOval,2.250000X0.019771X0.290016X-0.019771X-0.290016X0*%
%ADD17HorizOval,2.250000X0.654995X0.730004X-0.654995X-0.730004X0*%
%ADD18O,2.159000X1.905000*%
%ADD19R,2.159000X1.905000*%
%ADD20R,1.800000X1.100000*%
G04 APERTURE END LIST*
D10*
%TO.C,SW3*%
X45580000Y-64525000D03*
D11*
X56300000Y-60325000D03*
D12*
X55880000Y-60325000D03*
X45720000Y-60325000D03*
D13*
X50800000Y-60325000D03*
D11*
X45300000Y-60325000D03*
D14*
X55800000Y-56525000D03*
D15*
X53340000Y-55245000D03*
D16*
X53319771Y-55534984D03*
D17*
X47644995Y-57054996D03*
D15*
X48300000Y-56325000D03*
D14*
X50800000Y-54425000D03*
%TD*%
D13*
%TO.C,SW20*%
X136525000Y-79375000D03*
D12*
X131445000Y-79375000D03*
D10*
X131305000Y-83575000D03*
D12*
X141605000Y-79375000D03*
D11*
X131025000Y-79375000D03*
X142025000Y-79375000D03*
D16*
X139044771Y-74584984D03*
D15*
X139065000Y-74295000D03*
D14*
X141525000Y-75575000D03*
X136525000Y-73475000D03*
D15*
X134025000Y-75375000D03*
D17*
X133369995Y-76104996D03*
%TD*%
D12*
%TO.C,SW10*%
X84455000Y-41275000D03*
D10*
X74155000Y-45475000D03*
D11*
X84875000Y-41275000D03*
D12*
X74295000Y-41275000D03*
D11*
X73875000Y-41275000D03*
D13*
X79375000Y-41275000D03*
D16*
X81894771Y-36484984D03*
D15*
X81915000Y-36195000D03*
D14*
X84375000Y-37475000D03*
X79375000Y-35375000D03*
D17*
X76219995Y-38004996D03*
D15*
X76875000Y-37275000D03*
%TD*%
D12*
%TO.C,SW9*%
X74930000Y-98425000D03*
D10*
X64630000Y-102625000D03*
D12*
X64770000Y-98425000D03*
D13*
X69850000Y-98425000D03*
D11*
X64350000Y-98425000D03*
X75350000Y-98425000D03*
D14*
X74850000Y-94625000D03*
D16*
X72369771Y-93634984D03*
D15*
X72390000Y-93345000D03*
D17*
X66694995Y-95154996D03*
D15*
X67350000Y-94425000D03*
D14*
X69850000Y-92525000D03*
%TD*%
D13*
%TO.C,SW12*%
X98425000Y-79375000D03*
D11*
X103925000Y-79375000D03*
X92925000Y-79375000D03*
D12*
X103505000Y-79375000D03*
D10*
X93205000Y-83575000D03*
D12*
X93345000Y-79375000D03*
D14*
X103425000Y-75575000D03*
D15*
X100965000Y-74295000D03*
D16*
X100944771Y-74584984D03*
D15*
X95925000Y-75375000D03*
D17*
X95269995Y-76104996D03*
D14*
X98425000Y-73475000D03*
%TD*%
D12*
%TO.C,SW31*%
X179070000Y-60325000D03*
D11*
X189650000Y-60325000D03*
D13*
X184150000Y-60325000D03*
D12*
X189230000Y-60325000D03*
D11*
X178650000Y-60325000D03*
D10*
X178930000Y-64525000D03*
D16*
X186669771Y-55534984D03*
D14*
X189150000Y-56525000D03*
D15*
X186690000Y-55245000D03*
D17*
X180994995Y-57054996D03*
D14*
X184150000Y-54425000D03*
D15*
X181650000Y-56325000D03*
%TD*%
D13*
%TO.C,SW23*%
X146050000Y-60325000D03*
D11*
X151550000Y-60325000D03*
D12*
X140970000Y-60325000D03*
D11*
X140550000Y-60325000D03*
D12*
X151130000Y-60325000D03*
D10*
X140830000Y-64525000D03*
D16*
X148569771Y-55534984D03*
D15*
X148590000Y-55245000D03*
D14*
X151050000Y-56525000D03*
D15*
X143550000Y-56325000D03*
D14*
X146050000Y-54425000D03*
D17*
X142894995Y-57054996D03*
%TD*%
D12*
%TO.C,SW5*%
X51117500Y-98425000D03*
D10*
X40817500Y-102625000D03*
D12*
X40957500Y-98425000D03*
D11*
X40537500Y-98425000D03*
D13*
X46037500Y-98425000D03*
D11*
X51537500Y-98425000D03*
D16*
X48557271Y-93634984D03*
D14*
X51037500Y-94625000D03*
D15*
X48577500Y-93345000D03*
D17*
X42882495Y-95154996D03*
D14*
X46037500Y-92525000D03*
D15*
X43537500Y-94425000D03*
%TD*%
D10*
%TO.C,SW40*%
X226555000Y-83575000D03*
D11*
X226275000Y-79375000D03*
D13*
X231775000Y-79375000D03*
D12*
X226695000Y-79375000D03*
X236855000Y-79375000D03*
D11*
X237275000Y-79375000D03*
D14*
X236775000Y-75575000D03*
D15*
X234315000Y-74295000D03*
D16*
X234294771Y-74584984D03*
D14*
X231775000Y-73475000D03*
D15*
X229275000Y-75375000D03*
D17*
X228619995Y-76104996D03*
%TD*%
D12*
%TO.C,SW34*%
X188595000Y-41275000D03*
D13*
X193675000Y-41275000D03*
D10*
X188455000Y-45475000D03*
D11*
X199175000Y-41275000D03*
X188175000Y-41275000D03*
D12*
X198755000Y-41275000D03*
D16*
X196194771Y-36484984D03*
D15*
X196215000Y-36195000D03*
D14*
X198675000Y-37475000D03*
D15*
X191175000Y-37275000D03*
D17*
X190519995Y-38004996D03*
D14*
X193675000Y-35375000D03*
%TD*%
D18*
%TO.C,D42*%
X236537500Y-47307500D03*
D19*
X236537500Y-44767500D03*
%TD*%
D10*
%TO.C,SW19*%
X121780000Y-64525000D03*
D12*
X132080000Y-60325000D03*
D11*
X132500000Y-60325000D03*
D12*
X121920000Y-60325000D03*
D13*
X127000000Y-60325000D03*
D11*
X121500000Y-60325000D03*
D14*
X132000000Y-56525000D03*
D16*
X129519771Y-55534984D03*
D15*
X129540000Y-55245000D03*
D14*
X127000000Y-54425000D03*
D15*
X124500000Y-56325000D03*
D17*
X123844995Y-57054996D03*
%TD*%
D12*
%TO.C,SW27*%
X170180000Y-60325000D03*
D10*
X159880000Y-64525000D03*
D11*
X159600000Y-60325000D03*
D13*
X165100000Y-60325000D03*
D11*
X170600000Y-60325000D03*
D12*
X160020000Y-60325000D03*
D16*
X167619771Y-55534984D03*
D15*
X167640000Y-55245000D03*
D14*
X170100000Y-56525000D03*
D17*
X161944995Y-57054996D03*
D14*
X165100000Y-54425000D03*
D15*
X162600000Y-56325000D03*
%TD*%
D11*
%TO.C,SW38*%
X207225000Y-41275000D03*
D13*
X212725000Y-41275000D03*
D12*
X217805000Y-41275000D03*
D11*
X218225000Y-41275000D03*
D12*
X207645000Y-41275000D03*
D10*
X207505000Y-45475000D03*
D14*
X217725000Y-37475000D03*
D16*
X215244771Y-36484984D03*
D15*
X215265000Y-36195000D03*
D14*
X212725000Y-35375000D03*
D17*
X209569995Y-38004996D03*
D15*
X210225000Y-37275000D03*
%TD*%
D13*
%TO.C,SW15*%
X107950000Y-60325000D03*
D10*
X102730000Y-64525000D03*
D11*
X113450000Y-60325000D03*
X102450000Y-60325000D03*
D12*
X113030000Y-60325000D03*
X102870000Y-60325000D03*
D14*
X112950000Y-56525000D03*
D15*
X110490000Y-55245000D03*
D16*
X110469771Y-55534984D03*
D14*
X107950000Y-54425000D03*
D17*
X104794995Y-57054996D03*
D15*
X105450000Y-56325000D03*
%TD*%
D12*
%TO.C,SW32*%
X188595000Y-79375000D03*
D10*
X188455000Y-83575000D03*
D12*
X198755000Y-79375000D03*
D13*
X193675000Y-79375000D03*
D11*
X188175000Y-79375000D03*
X199175000Y-79375000D03*
D16*
X196194771Y-74584984D03*
D15*
X196215000Y-74295000D03*
D14*
X198675000Y-75575000D03*
X193675000Y-73475000D03*
D17*
X190519995Y-76104996D03*
D15*
X191175000Y-75375000D03*
%TD*%
D13*
%TO.C,SW21*%
X127000000Y-98425000D03*
D12*
X132080000Y-98425000D03*
X121920000Y-98425000D03*
D11*
X132500000Y-98425000D03*
D10*
X121780000Y-102625000D03*
D11*
X121500000Y-98425000D03*
D15*
X129540000Y-93345000D03*
D14*
X132000000Y-94625000D03*
D16*
X129519771Y-93634984D03*
D14*
X127000000Y-92525000D03*
D17*
X123844995Y-95154996D03*
D15*
X124500000Y-94425000D03*
%TD*%
D12*
%TO.C,SW7*%
X74930000Y-60325000D03*
X64770000Y-60325000D03*
D13*
X69850000Y-60325000D03*
D11*
X75350000Y-60325000D03*
D10*
X64630000Y-64525000D03*
D11*
X64350000Y-60325000D03*
D15*
X72390000Y-55245000D03*
D16*
X72369771Y-55534984D03*
D14*
X74850000Y-56525000D03*
D15*
X67350000Y-56325000D03*
D14*
X69850000Y-54425000D03*
D17*
X66694995Y-57054996D03*
%TD*%
D11*
%TO.C,SW11*%
X94400000Y-60325000D03*
D12*
X93980000Y-60325000D03*
D10*
X83680000Y-64525000D03*
D13*
X88900000Y-60325000D03*
D12*
X83820000Y-60325000D03*
D11*
X83400000Y-60325000D03*
D16*
X91419771Y-55534984D03*
D14*
X93900000Y-56525000D03*
D15*
X91440000Y-55245000D03*
D17*
X85744995Y-57054996D03*
D14*
X88900000Y-54425000D03*
D15*
X86400000Y-56325000D03*
%TD*%
D12*
%TO.C,SW14*%
X93345000Y-41275000D03*
D11*
X103925000Y-41275000D03*
D13*
X98425000Y-41275000D03*
D12*
X103505000Y-41275000D03*
D10*
X93205000Y-45475000D03*
D11*
X92925000Y-41275000D03*
D16*
X100944771Y-36484984D03*
D14*
X103425000Y-37475000D03*
D15*
X100965000Y-36195000D03*
D17*
X95269995Y-38004996D03*
D14*
X98425000Y-35375000D03*
D15*
X95925000Y-37275000D03*
%TD*%
D11*
%TO.C,SW41*%
X221512500Y-98425000D03*
D12*
X232092500Y-98425000D03*
D13*
X227012500Y-98425000D03*
D11*
X232512500Y-98425000D03*
D10*
X221792500Y-102625000D03*
D12*
X221932500Y-98425000D03*
D15*
X229552500Y-93345000D03*
D16*
X229532271Y-93634984D03*
D14*
X232012500Y-94625000D03*
D17*
X223857495Y-95154996D03*
D15*
X224512500Y-94425000D03*
D14*
X227012500Y-92525000D03*
%TD*%
D12*
%TO.C,SW30*%
X169545000Y-41275000D03*
X179705000Y-41275000D03*
D10*
X169405000Y-45475000D03*
D11*
X180125000Y-41275000D03*
D13*
X174625000Y-41275000D03*
D11*
X169125000Y-41275000D03*
D14*
X179625000Y-37475000D03*
D15*
X177165000Y-36195000D03*
D16*
X177144771Y-36484984D03*
D14*
X174625000Y-35375000D03*
D17*
X171469995Y-38004996D03*
D15*
X172125000Y-37275000D03*
%TD*%
D12*
%TO.C,SW8*%
X74295000Y-79375000D03*
D13*
X79375000Y-79375000D03*
D10*
X74155000Y-83575000D03*
D11*
X84875000Y-79375000D03*
D12*
X84455000Y-79375000D03*
D11*
X73875000Y-79375000D03*
D15*
X81915000Y-74295000D03*
D16*
X81894771Y-74584984D03*
D14*
X84375000Y-75575000D03*
X79375000Y-73475000D03*
D15*
X76875000Y-75375000D03*
D17*
X76219995Y-76104996D03*
%TD*%
D13*
%TO.C,SW18*%
X117475000Y-41275000D03*
D11*
X111975000Y-41275000D03*
D10*
X112255000Y-45475000D03*
D12*
X122555000Y-41275000D03*
X112395000Y-41275000D03*
D11*
X122975000Y-41275000D03*
D14*
X122475000Y-37475000D03*
D15*
X120015000Y-36195000D03*
D16*
X119994771Y-36484984D03*
D15*
X114975000Y-37275000D03*
D14*
X117475000Y-35375000D03*
D17*
X114319995Y-38004996D03*
%TD*%
D11*
%TO.C,SW24*%
X150075000Y-79375000D03*
D10*
X150355000Y-83575000D03*
D12*
X160655000Y-79375000D03*
D13*
X155575000Y-79375000D03*
D12*
X150495000Y-79375000D03*
D11*
X161075000Y-79375000D03*
D16*
X158094771Y-74584984D03*
D15*
X158115000Y-74295000D03*
D14*
X160575000Y-75575000D03*
X155575000Y-73475000D03*
D15*
X153075000Y-75375000D03*
D17*
X152419995Y-76104996D03*
%TD*%
D12*
%TO.C,SW2*%
X46355000Y-41275000D03*
D11*
X46775000Y-41275000D03*
D12*
X36195000Y-41275000D03*
D10*
X36055000Y-45475000D03*
D13*
X41275000Y-41275000D03*
D11*
X35775000Y-41275000D03*
D16*
X43794771Y-36484984D03*
D14*
X46275000Y-37475000D03*
D15*
X43815000Y-36195000D03*
D17*
X38119995Y-38004996D03*
D14*
X41275000Y-35375000D03*
D15*
X38775000Y-37275000D03*
%TD*%
D18*
%TO.C,D43*%
X236537500Y-40280000D03*
D19*
X236537500Y-37740000D03*
%TD*%
D12*
%TO.C,SW28*%
X169545000Y-79375000D03*
D13*
X174625000Y-79375000D03*
D11*
X180125000Y-79375000D03*
X169125000Y-79375000D03*
D10*
X169405000Y-83575000D03*
D12*
X179705000Y-79375000D03*
D15*
X177165000Y-74295000D03*
D16*
X177144771Y-74584984D03*
D14*
X179625000Y-75575000D03*
D17*
X171469995Y-76104996D03*
D15*
X172125000Y-75375000D03*
D14*
X174625000Y-73475000D03*
%TD*%
D13*
%TO.C,SW13*%
X88900000Y-98425000D03*
D10*
X83680000Y-102625000D03*
D12*
X93980000Y-98425000D03*
X83820000Y-98425000D03*
D11*
X94400000Y-98425000D03*
X83400000Y-98425000D03*
D16*
X91419771Y-93634984D03*
D14*
X93900000Y-94625000D03*
D15*
X91440000Y-93345000D03*
X86400000Y-94425000D03*
D14*
X88900000Y-92525000D03*
D17*
X85744995Y-95154996D03*
%TD*%
D12*
%TO.C,SW36*%
X207645000Y-79375000D03*
X217805000Y-79375000D03*
D11*
X207225000Y-79375000D03*
X218225000Y-79375000D03*
D10*
X207505000Y-83575000D03*
D13*
X212725000Y-79375000D03*
D16*
X215244771Y-74584984D03*
D14*
X217725000Y-75575000D03*
D15*
X215265000Y-74295000D03*
D14*
X212725000Y-73475000D03*
D15*
X210225000Y-75375000D03*
D17*
X209569995Y-76104996D03*
%TD*%
D11*
%TO.C,SW6*%
X65825000Y-41275000D03*
D12*
X55245000Y-41275000D03*
D13*
X60325000Y-41275000D03*
D10*
X55105000Y-45475000D03*
D11*
X54825000Y-41275000D03*
D12*
X65405000Y-41275000D03*
D15*
X62865000Y-36195000D03*
D16*
X62844771Y-36484984D03*
D14*
X65325000Y-37475000D03*
D15*
X57825000Y-37275000D03*
D17*
X57169995Y-38004996D03*
D14*
X60325000Y-35375000D03*
%TD*%
D12*
%TO.C,SW25*%
X140970000Y-98425000D03*
D13*
X146050000Y-98425000D03*
D12*
X151130000Y-98425000D03*
D11*
X151550000Y-98425000D03*
D10*
X140830000Y-102625000D03*
D11*
X140550000Y-98425000D03*
D14*
X151050000Y-94625000D03*
D15*
X148590000Y-93345000D03*
D16*
X148569771Y-93634984D03*
D17*
X142894995Y-95154996D03*
D14*
X146050000Y-92525000D03*
D15*
X143550000Y-94425000D03*
%TD*%
D12*
%TO.C,SW26*%
X160655000Y-41275000D03*
D10*
X150355000Y-45475000D03*
D11*
X161075000Y-41275000D03*
D13*
X155575000Y-41275000D03*
D11*
X150075000Y-41275000D03*
D12*
X150495000Y-41275000D03*
D16*
X158094771Y-36484984D03*
D15*
X158115000Y-36195000D03*
D14*
X160575000Y-37475000D03*
X155575000Y-35375000D03*
D15*
X153075000Y-37275000D03*
D17*
X152419995Y-38004996D03*
%TD*%
D12*
%TO.C,SW35*%
X208280000Y-60325000D03*
D10*
X197980000Y-64525000D03*
D11*
X208700000Y-60325000D03*
X197700000Y-60325000D03*
D13*
X203200000Y-60325000D03*
D12*
X198120000Y-60325000D03*
D15*
X205740000Y-55245000D03*
D14*
X208200000Y-56525000D03*
D16*
X205719771Y-55534984D03*
D14*
X203200000Y-54425000D03*
D17*
X200044995Y-57054996D03*
D15*
X200700000Y-56325000D03*
%TD*%
D13*
%TO.C,SW4*%
X60325000Y-79375000D03*
D11*
X54825000Y-79375000D03*
D10*
X55105000Y-83575000D03*
D12*
X55245000Y-79375000D03*
X65405000Y-79375000D03*
D11*
X65825000Y-79375000D03*
D15*
X62865000Y-74295000D03*
D16*
X62844771Y-74584984D03*
D14*
X65325000Y-75575000D03*
D17*
X57169995Y-76104996D03*
D14*
X60325000Y-73475000D03*
D15*
X57825000Y-75375000D03*
%TD*%
D13*
%TO.C,SW37*%
X203200000Y-98425000D03*
D11*
X208700000Y-98425000D03*
X197700000Y-98425000D03*
D12*
X198120000Y-98425000D03*
D10*
X197980000Y-102625000D03*
D12*
X208280000Y-98425000D03*
D16*
X205719771Y-93634984D03*
D15*
X205740000Y-93345000D03*
D14*
X208200000Y-94625000D03*
D17*
X200044995Y-95154996D03*
D14*
X203200000Y-92525000D03*
D15*
X200700000Y-94425000D03*
%TD*%
D12*
%TO.C,SW39*%
X227330000Y-60325000D03*
D13*
X222250000Y-60325000D03*
D10*
X217030000Y-64525000D03*
D11*
X216750000Y-60325000D03*
X227750000Y-60325000D03*
D12*
X217170000Y-60325000D03*
D14*
X227250000Y-56525000D03*
D16*
X224769771Y-55534984D03*
D15*
X224790000Y-55245000D03*
X219750000Y-56325000D03*
D17*
X219094995Y-57054996D03*
D14*
X222250000Y-54425000D03*
%TD*%
D20*
%TO.C,SW1*%
X239637500Y-57412500D03*
X233437500Y-53712500D03*
X239637500Y-53712500D03*
X233437500Y-57412500D03*
%TD*%
D12*
%TO.C,SW22*%
X131445000Y-41275000D03*
D13*
X136525000Y-41275000D03*
D11*
X142025000Y-41275000D03*
D12*
X141605000Y-41275000D03*
D11*
X131025000Y-41275000D03*
D10*
X131305000Y-45475000D03*
D16*
X139044771Y-36484984D03*
D15*
X139065000Y-36195000D03*
D14*
X141525000Y-37475000D03*
D17*
X133369995Y-38004996D03*
D14*
X136525000Y-35375000D03*
D15*
X134025000Y-37275000D03*
%TD*%
D12*
%TO.C,SW16*%
X112395000Y-79375000D03*
X122555000Y-79375000D03*
D13*
X117475000Y-79375000D03*
D11*
X111975000Y-79375000D03*
X122975000Y-79375000D03*
D10*
X112255000Y-83575000D03*
D14*
X122475000Y-75575000D03*
D16*
X119994771Y-74584984D03*
D15*
X120015000Y-74295000D03*
X114975000Y-75375000D03*
D17*
X114319995Y-76104996D03*
D14*
X117475000Y-73475000D03*
%TD*%
D13*
%TO.C,SW33*%
X184150000Y-98425000D03*
D11*
X189650000Y-98425000D03*
X178650000Y-98425000D03*
D12*
X179070000Y-98425000D03*
D10*
X178930000Y-102625000D03*
D12*
X189230000Y-98425000D03*
D14*
X189150000Y-94625000D03*
D15*
X186690000Y-93345000D03*
D16*
X186669771Y-93634984D03*
D17*
X180994995Y-95154996D03*
D14*
X184150000Y-92525000D03*
D15*
X181650000Y-94425000D03*
%TD*%
D12*
%TO.C,SW29*%
X170180000Y-98425000D03*
D11*
X170600000Y-98425000D03*
X159600000Y-98425000D03*
D12*
X160020000Y-98425000D03*
D13*
X165100000Y-98425000D03*
D10*
X159880000Y-102625000D03*
D16*
X167619771Y-93634984D03*
D15*
X167640000Y-93345000D03*
D14*
X170100000Y-94625000D03*
D17*
X161944995Y-95154996D03*
D15*
X162600000Y-94425000D03*
D14*
X165100000Y-92525000D03*
%TD*%
D11*
%TO.C,SW17*%
X113450000Y-98425000D03*
D12*
X102870000Y-98425000D03*
D11*
X102450000Y-98425000D03*
D12*
X113030000Y-98425000D03*
D13*
X107950000Y-98425000D03*
D10*
X102730000Y-102625000D03*
D14*
X112950000Y-94625000D03*
D15*
X110490000Y-93345000D03*
D16*
X110469771Y-93634984D03*
D17*
X104794995Y-95154996D03*
D15*
X105450000Y-94425000D03*
D14*
X107950000Y-92525000D03*
%TD*%
M02*
