%TF.GenerationSoftware,KiCad,Pcbnew,(6.0.7)*%
%TF.CreationDate,2023-01-08T18:37:13+01:00*%
%TF.ProjectId,Didaktik multilayout,44696461-6b74-4696-9b20-6d756c74696c,rev?*%
%TF.SameCoordinates,Original*%
%TF.FileFunction,Legend,Top*%
%TF.FilePolarity,Positive*%
%FSLAX46Y46*%
G04 Gerber Fmt 4.6, Leading zero omitted, Abs format (unit mm)*
G04 Created by KiCad (PCBNEW (6.0.7)) date 2023-01-08 18:37:13*
%MOMM*%
%LPD*%
G01*
G04 APERTURE LIST*
%TA.AperFunction,Profile*%
%ADD10C,0.150000*%
%TD*%
%ADD11C,0.150000*%
%ADD12C,0.203200*%
%ADD13C,0.120000*%
%ADD14O,2.159000X1.905000*%
%ADD15R,2.159000X1.905000*%
%ADD16R,1.600000X1.600000*%
%ADD17C,1.600000*%
G04 APERTURE END LIST*
D10*
X31750000Y-106362500D02*
G75*
G03*
X33337500Y-107950000I1587500J0D01*
G01*
X33337500Y-31750000D02*
X239712500Y-31750000D01*
X31750000Y-106362500D02*
X31750000Y-33337500D01*
X239712500Y-107950000D02*
G75*
G03*
X241300000Y-106362500I0J1587500D01*
G01*
X239712500Y-107950000D02*
X33337500Y-107950000D01*
X241300000Y-33337500D02*
G75*
G03*
X239712500Y-31750000I-1587500J0D01*
G01*
X33337500Y-31750000D02*
G75*
G03*
X31750000Y-33337500I0J-1587500D01*
G01*
X241300000Y-33337500D02*
X241300000Y-106362500D01*
D11*
X235481952Y-41811380D02*
X235005761Y-41811380D01*
X235005761Y-40811380D01*
X235815285Y-41287571D02*
X236148619Y-41287571D01*
X236291476Y-41811380D02*
X235815285Y-41811380D01*
X235815285Y-40811380D01*
X236291476Y-40811380D01*
X236720047Y-41811380D02*
X236720047Y-40811380D01*
X236958142Y-40811380D01*
X237101000Y-40859000D01*
X237196238Y-40954238D01*
X237243857Y-41049476D01*
X237291476Y-41239952D01*
X237291476Y-41382809D01*
X237243857Y-41573285D01*
X237196238Y-41668523D01*
X237101000Y-41763761D01*
X236958142Y-41811380D01*
X236720047Y-41811380D01*
X237672428Y-40906619D02*
X237720047Y-40859000D01*
X237815285Y-40811380D01*
X238053380Y-40811380D01*
X238148619Y-40859000D01*
X238196238Y-40906619D01*
X238243857Y-41001857D01*
X238243857Y-41097095D01*
X238196238Y-41239952D01*
X237624809Y-41811380D01*
X238243857Y-41811380D01*
X235021619Y-52522380D02*
X234688285Y-52046190D01*
X234450190Y-52522380D02*
X234450190Y-51522380D01*
X234831142Y-51522380D01*
X234926380Y-51570000D01*
X234974000Y-51617619D01*
X235021619Y-51712857D01*
X235021619Y-51855714D01*
X234974000Y-51950952D01*
X234926380Y-51998571D01*
X234831142Y-52046190D01*
X234450190Y-52046190D01*
X235450190Y-51998571D02*
X235783523Y-51998571D01*
X235926380Y-52522380D02*
X235450190Y-52522380D01*
X235450190Y-51522380D01*
X235926380Y-51522380D01*
X236307333Y-52474761D02*
X236450190Y-52522380D01*
X236688285Y-52522380D01*
X236783523Y-52474761D01*
X236831142Y-52427142D01*
X236878761Y-52331904D01*
X236878761Y-52236666D01*
X236831142Y-52141428D01*
X236783523Y-52093809D01*
X236688285Y-52046190D01*
X236497809Y-51998571D01*
X236402571Y-51950952D01*
X236354952Y-51903333D01*
X236307333Y-51808095D01*
X236307333Y-51712857D01*
X236354952Y-51617619D01*
X236402571Y-51570000D01*
X236497809Y-51522380D01*
X236735904Y-51522380D01*
X236878761Y-51570000D01*
X237307333Y-51998571D02*
X237640666Y-51998571D01*
X237783523Y-52522380D02*
X237307333Y-52522380D01*
X237307333Y-51522380D01*
X237783523Y-51522380D01*
X238069238Y-51522380D02*
X238640666Y-51522380D01*
X238354952Y-52522380D02*
X238354952Y-51522380D01*
X235354952Y-35377380D02*
X234878761Y-35377380D01*
X234878761Y-34377380D01*
X235688285Y-34853571D02*
X236021619Y-34853571D01*
X236164476Y-35377380D02*
X235688285Y-35377380D01*
X235688285Y-34377380D01*
X236164476Y-34377380D01*
X236593047Y-35377380D02*
X236593047Y-34377380D01*
X236831142Y-34377380D01*
X236974000Y-34425000D01*
X237069238Y-34520238D01*
X237116857Y-34615476D01*
X237164476Y-34805952D01*
X237164476Y-34948809D01*
X237116857Y-35139285D01*
X237069238Y-35234523D01*
X236974000Y-35329761D01*
X236831142Y-35377380D01*
X236593047Y-35377380D01*
X238116857Y-35377380D02*
X237545428Y-35377380D01*
X237831142Y-35377380D02*
X237831142Y-34377380D01*
X237735904Y-34520238D01*
X237640666Y-34615476D01*
X237545428Y-34663095D01*
D12*
%TO.C,D42*%
X237807500Y-42621200D02*
X235267500Y-42621200D01*
X235216700Y-42621200D02*
G75*
G03*
X237859021Y-42621805I1320800J-1574800D01*
G01*
%TO.C,G\u002A\u002A\u002A*%
G36*
X143227597Y-63697175D02*
G01*
X143459779Y-63957287D01*
X143581559Y-64175828D01*
X143628124Y-64443965D01*
X143634866Y-64752413D01*
X143606503Y-65204180D01*
X143519021Y-65466985D01*
X143474782Y-65516663D01*
X143363824Y-65726809D01*
X143316777Y-66126562D01*
X143314698Y-66263722D01*
X143283927Y-66714976D01*
X143189913Y-66973509D01*
X143154614Y-67010781D01*
X143044971Y-67216387D01*
X142997246Y-67608013D01*
X142994530Y-67767153D01*
X142981391Y-68138552D01*
X142930678Y-68356069D01*
X142825448Y-68478268D01*
X142781084Y-68504899D01*
X142657226Y-68608799D01*
X142592025Y-68789352D01*
X142568879Y-69104671D01*
X142567639Y-69251957D01*
X142554952Y-69625966D01*
X142505823Y-69845566D01*
X142403648Y-69968873D01*
X142354194Y-69999016D01*
X142234303Y-70097476D01*
X142169073Y-70267207D01*
X142143436Y-70564174D01*
X142140748Y-70791773D01*
X142125586Y-71198948D01*
X142074548Y-71432944D01*
X141980664Y-71531728D01*
X141883589Y-71636726D01*
X141833156Y-71882309D01*
X141820580Y-72240193D01*
X141803819Y-72638986D01*
X141747847Y-72864308D01*
X141660496Y-72948658D01*
X141558816Y-73062680D01*
X141509032Y-73328139D01*
X141500412Y-73603922D01*
X141459831Y-74086248D01*
X141337095Y-74377713D01*
X141327000Y-74389374D01*
X141214126Y-74616368D01*
X141130259Y-74980446D01*
X141105087Y-75198198D01*
X141051255Y-75574849D01*
X140965835Y-75847038D01*
X140904970Y-75933891D01*
X140803950Y-76117088D01*
X140754751Y-76420315D01*
X140753353Y-76482767D01*
X140710517Y-76786012D01*
X140602341Y-76975524D01*
X140459331Y-77010858D01*
X140390258Y-76964212D01*
X140356509Y-76831357D01*
X140333384Y-76550787D01*
X140326463Y-76250178D01*
X140340540Y-75861092D01*
X140392390Y-75628200D01*
X140496433Y-75495528D01*
X140526160Y-75475226D01*
X140648743Y-75350233D01*
X140700290Y-75137333D01*
X140698963Y-74807442D01*
X140711569Y-74390542D01*
X140810305Y-74100465D01*
X140872795Y-74009188D01*
X141013334Y-73724552D01*
X141070634Y-73308100D01*
X141073521Y-73153834D01*
X141093267Y-72767269D01*
X141158268Y-72555260D01*
X141233605Y-72492232D01*
X141337855Y-72372863D01*
X141387041Y-72095880D01*
X141393689Y-71862868D01*
X141427663Y-71440319D01*
X141523163Y-71171314D01*
X141550710Y-71137915D01*
X141654001Y-70922141D01*
X141716771Y-70550657D01*
X141727816Y-70366210D01*
X141773363Y-69917073D01*
X141882081Y-69631643D01*
X141944325Y-69555103D01*
X142069205Y-69357447D01*
X142129535Y-69049399D01*
X142140748Y-68730791D01*
X142150913Y-68370041D01*
X142192563Y-68168627D01*
X142282431Y-68072952D01*
X142354194Y-68047085D01*
X142475165Y-67986051D01*
X142539946Y-67848291D01*
X142564926Y-67580589D01*
X142567639Y-67354008D01*
X142595252Y-66901956D01*
X142680675Y-66637770D01*
X142727723Y-66583890D01*
X142842177Y-66364987D01*
X142887371Y-65971567D01*
X142887807Y-65920639D01*
X142939551Y-65449696D01*
X143101252Y-65118894D01*
X143259831Y-64895845D01*
X143293056Y-64730670D01*
X143194489Y-64543672D01*
X143039296Y-64351962D01*
X142763895Y-64024666D01*
X137836565Y-63996925D01*
X132909236Y-63969184D01*
X132909236Y-63328848D01*
X137864781Y-63301089D01*
X142820327Y-63273329D01*
X143227597Y-63697175D01*
G37*
G36*
X139400151Y-32961147D02*
G01*
X140214746Y-32964701D01*
X140878033Y-32970810D01*
X141405547Y-32979837D01*
X141812820Y-32992145D01*
X142115388Y-33008096D01*
X142328783Y-33028052D01*
X142468540Y-33052377D01*
X142550192Y-33081433D01*
X142589273Y-33115583D01*
X142591034Y-33118560D01*
X142650306Y-33177488D01*
X142771487Y-33221111D01*
X142982619Y-33251607D01*
X143311745Y-33271153D01*
X143786907Y-33281925D01*
X144436149Y-33286100D01*
X144753134Y-33286411D01*
X145494274Y-33289119D01*
X146050022Y-33298584D01*
X146448378Y-33316817D01*
X146717343Y-33345831D01*
X146884916Y-33387636D01*
X146979097Y-33444245D01*
X146981385Y-33446495D01*
X147092487Y-33513543D01*
X147290692Y-33559882D01*
X147608735Y-33588696D01*
X148079354Y-33603171D01*
X148626880Y-33606579D01*
X149228409Y-33609413D01*
X149655372Y-33621107D01*
X149946610Y-33646448D01*
X150140963Y-33690224D01*
X150277271Y-33757224D01*
X150358395Y-33820025D01*
X150499787Y-33918580D01*
X150681668Y-33981682D01*
X150951437Y-34016806D01*
X151356492Y-34031424D01*
X151712108Y-34033470D01*
X152231880Y-34039516D01*
X152574134Y-34060911D01*
X152774540Y-34102539D01*
X152868771Y-34169285D01*
X152881146Y-34193554D01*
X152953953Y-34270137D01*
X153125791Y-34318843D01*
X153433002Y-34344897D01*
X153911929Y-34353524D01*
X153994630Y-34353638D01*
X154483578Y-34357838D01*
X154802534Y-34375730D01*
X154994873Y-34415253D01*
X155103972Y-34484345D01*
X155160916Y-34567083D01*
X155236547Y-34667810D01*
X155362203Y-34730988D01*
X155582443Y-34765117D01*
X155941827Y-34778696D01*
X156279956Y-34780529D01*
X156784798Y-34788789D01*
X157112578Y-34817000D01*
X157299166Y-34870310D01*
X157372516Y-34937334D01*
X157506935Y-35031952D01*
X157800670Y-35091358D01*
X158240140Y-35120032D01*
X158723493Y-35158719D01*
X159087607Y-35233310D01*
X159242944Y-35302072D01*
X159473904Y-35397587D01*
X159823522Y-35472724D01*
X160060802Y-35499229D01*
X160460263Y-35554558D01*
X160699862Y-35649018D01*
X160741777Y-35693997D01*
X160890636Y-35793178D01*
X161211645Y-35841256D01*
X161466208Y-35847756D01*
X161862717Y-35865008D01*
X162085622Y-35922480D01*
X162166020Y-36007840D01*
X162273669Y-36106306D01*
X162525142Y-36156595D01*
X162857413Y-36167924D01*
X163252329Y-36185167D01*
X163499646Y-36248082D01*
X163663249Y-36373447D01*
X163670133Y-36381369D01*
X163841065Y-36514849D01*
X164100133Y-36579870D01*
X164445790Y-36594815D01*
X164834024Y-36615206D01*
X165077333Y-36688429D01*
X165221448Y-36808260D01*
X165397885Y-36944280D01*
X165666694Y-37008874D01*
X165979157Y-37021705D01*
X166422717Y-37057620D01*
X166670812Y-37164511D01*
X166686967Y-37181789D01*
X166881733Y-37290927D01*
X167183858Y-37341268D01*
X167220580Y-37341873D01*
X167528338Y-37383493D01*
X167740671Y-37487489D01*
X167754194Y-37501957D01*
X167948960Y-37611095D01*
X168251085Y-37661436D01*
X168287807Y-37662041D01*
X168595565Y-37703661D01*
X168807898Y-37807657D01*
X168821421Y-37822126D01*
X169003424Y-37924517D01*
X169351443Y-37974808D01*
X169637550Y-37982210D01*
X170012701Y-37989249D01*
X170230907Y-38023143D01*
X170348530Y-38103055D01*
X170421930Y-38248147D01*
X170422261Y-38249016D01*
X170518527Y-38418948D01*
X170682244Y-38496806D01*
X170984757Y-38515814D01*
X170995176Y-38515823D01*
X171351950Y-38550960D01*
X171520365Y-38659107D01*
X171528082Y-38675907D01*
X171687114Y-38797222D01*
X172012129Y-38835991D01*
X172327646Y-38875014D01*
X172565497Y-38971638D01*
X172594830Y-38996075D01*
X172821311Y-39129908D01*
X172959442Y-39156159D01*
X173183017Y-39231360D01*
X173357135Y-39369605D01*
X173654715Y-39545768D01*
X173964000Y-39583050D01*
X174294052Y-39626258D01*
X174439129Y-39743134D01*
X174589966Y-39860709D01*
X174929878Y-39902988D01*
X174965638Y-39903218D01*
X175296389Y-39930901D01*
X175483407Y-40029762D01*
X175544950Y-40116663D01*
X175752454Y-40294523D01*
X175949924Y-40330109D01*
X176225924Y-40403364D01*
X176365076Y-40529323D01*
X176538315Y-40673534D01*
X176837051Y-40700743D01*
X176865638Y-40698691D01*
X177183076Y-40720999D01*
X177366941Y-40819645D01*
X177560293Y-40931527D01*
X177795439Y-40970445D01*
X178091736Y-41050671D01*
X178213017Y-41183890D01*
X178368264Y-41337892D01*
X178649661Y-41395224D01*
X178746631Y-41397336D01*
X179069054Y-41434401D01*
X179249990Y-41562003D01*
X179280244Y-41610781D01*
X179490925Y-41789194D01*
X179710890Y-41824226D01*
X179962306Y-41872428D01*
X180027303Y-41984310D01*
X180085114Y-42085588D01*
X180284845Y-42134649D01*
X180553725Y-42144394D01*
X180884331Y-42160252D01*
X181061943Y-42221961D01*
X181145580Y-42350724D01*
X181147891Y-42357840D01*
X181293973Y-42531149D01*
X181517194Y-42571285D01*
X181761492Y-42623151D01*
X181880182Y-42731369D01*
X182022934Y-42855461D01*
X182198701Y-42891453D01*
X182454862Y-42954362D01*
X182588647Y-43051537D01*
X182803525Y-43188591D01*
X182930093Y-43211621D01*
X183135016Y-43283627D01*
X183385661Y-43462627D01*
X183450638Y-43523580D01*
X183762597Y-43835539D01*
X183762597Y-45530913D01*
X183758174Y-46215114D01*
X183743235Y-46716448D01*
X183715274Y-47065344D01*
X183671784Y-47292231D01*
X183610260Y-47427536D01*
X183605907Y-47433450D01*
X183488576Y-47544337D01*
X183445823Y-47507210D01*
X183346991Y-47411601D01*
X183093452Y-47373832D01*
X183085440Y-47373806D01*
X182723253Y-47295718D01*
X182535286Y-47160361D01*
X182324775Y-46998657D01*
X182158284Y-46946915D01*
X181937678Y-46870083D01*
X181841589Y-46786831D01*
X181635162Y-46659835D01*
X181451642Y-46626747D01*
X181229624Y-46567510D01*
X181133124Y-46466663D01*
X180982287Y-46349088D01*
X180642375Y-46306810D01*
X180606614Y-46306579D01*
X180275863Y-46278896D01*
X180088846Y-46180036D01*
X180027303Y-46093134D01*
X179817802Y-45914847D01*
X179609104Y-45879689D01*
X179352244Y-45822190D01*
X179249321Y-45666243D01*
X179171502Y-45529153D01*
X178993366Y-45466097D01*
X178716328Y-45452798D01*
X178346988Y-45413601D01*
X178118981Y-45306515D01*
X178106294Y-45292714D01*
X177899805Y-45155913D01*
X177780682Y-45132630D01*
X177547929Y-45060620D01*
X177427843Y-44972546D01*
X177214111Y-44861491D01*
X176916733Y-44812574D01*
X176902936Y-44812462D01*
X176541145Y-44741021D01*
X176292009Y-44599016D01*
X176035239Y-44442769D01*
X175806845Y-44385571D01*
X175592241Y-44322128D01*
X175506356Y-44225487D01*
X175346723Y-44104168D01*
X175015590Y-44065403D01*
X174678156Y-44025925D01*
X174480928Y-43892066D01*
X174452956Y-43851957D01*
X174278456Y-43697367D01*
X173977499Y-43640291D01*
X173886421Y-43638512D01*
X173587475Y-43615252D01*
X173380474Y-43557402D01*
X173351799Y-43537368D01*
X173118431Y-43367455D01*
X172773105Y-43182446D01*
X172396141Y-43018672D01*
X172067855Y-42912462D01*
X171923799Y-42891453D01*
X171654641Y-42837828D01*
X171489488Y-42731369D01*
X171281977Y-42619025D01*
X170936138Y-42571711D01*
X170896637Y-42571285D01*
X170587033Y-42549451D01*
X170426467Y-42467377D01*
X170368900Y-42357840D01*
X170302464Y-42239406D01*
X170163462Y-42174537D01*
X169899282Y-42148115D01*
X169626067Y-42144394D01*
X169219811Y-42129070D01*
X168986754Y-42077531D01*
X168889549Y-41984310D01*
X168729745Y-41862992D01*
X168396835Y-41824226D01*
X168010165Y-41767627D01*
X167782792Y-41610781D01*
X167549177Y-41451690D01*
X167182975Y-41397701D01*
X167140151Y-41397336D01*
X166785579Y-41359877D01*
X166622392Y-41245696D01*
X166618838Y-41237252D01*
X166511559Y-41138978D01*
X166260906Y-41088666D01*
X165925140Y-41077168D01*
X165530239Y-41059554D01*
X165309052Y-41000979D01*
X165231443Y-40917083D01*
X165130838Y-40822392D01*
X164895100Y-40771806D01*
X164491488Y-40756999D01*
X164104592Y-40746211D01*
X163874534Y-40703800D01*
X163745349Y-40614698D01*
X163698731Y-40543554D01*
X163593122Y-40418489D01*
X163409157Y-40353332D01*
X163088103Y-40331009D01*
X162964458Y-40330109D01*
X162566929Y-40311208D01*
X162315213Y-40243094D01*
X162151252Y-40116663D01*
X161975678Y-39984715D01*
X161714846Y-39919398D01*
X161345710Y-39903218D01*
X160955998Y-39884332D01*
X160740463Y-39821910D01*
X160671902Y-39743134D01*
X160549627Y-39637531D01*
X160266462Y-39588737D01*
X160055232Y-39583050D01*
X159585876Y-39537320D01*
X159305214Y-39406778D01*
X159132794Y-39307393D01*
X158862053Y-39258070D01*
X158441086Y-39250439D01*
X158349848Y-39252715D01*
X157931161Y-39255530D01*
X157665214Y-39225761D01*
X157492277Y-39151201D01*
X157384797Y-39055457D01*
X157257819Y-38948418D01*
X157087018Y-38882613D01*
X156821941Y-38848531D01*
X156412133Y-38836659D01*
X156220636Y-38835991D01*
X155738494Y-38828220D01*
X155431922Y-38800994D01*
X155263479Y-38748444D01*
X155199510Y-38675907D01*
X155126704Y-38599324D01*
X154954865Y-38550618D01*
X154647654Y-38524564D01*
X154168727Y-38515937D01*
X154086026Y-38515823D01*
X153597078Y-38511623D01*
X153278122Y-38493731D01*
X153085783Y-38454208D01*
X152976684Y-38385116D01*
X152919740Y-38302378D01*
X152849448Y-38206820D01*
X152733662Y-38144787D01*
X152530888Y-38109188D01*
X152199632Y-38092934D01*
X151698401Y-38088938D01*
X151670397Y-38088932D01*
X151121813Y-38081484D01*
X150746774Y-38055768D01*
X150505788Y-38006726D01*
X150359364Y-37929303D01*
X150348188Y-37919610D01*
X150228235Y-37848461D01*
X150028473Y-37797936D01*
X149714810Y-37764241D01*
X149253156Y-37743581D01*
X148670069Y-37732846D01*
X148055525Y-37721819D01*
X147617786Y-37702536D01*
X147320249Y-37670594D01*
X147126310Y-37621587D01*
X146999364Y-37551112D01*
X146972714Y-37528638D01*
X146877878Y-37462731D01*
X146739567Y-37414189D01*
X146527028Y-37380448D01*
X146209504Y-37358942D01*
X145756240Y-37347107D01*
X145136481Y-37342377D01*
X144733438Y-37341873D01*
X144002596Y-37339223D01*
X143457166Y-37329892D01*
X143069161Y-37311813D01*
X142810597Y-37282917D01*
X142653490Y-37241136D01*
X142569853Y-37184401D01*
X142567639Y-37181789D01*
X142518425Y-37148449D01*
X142420064Y-37119983D01*
X142257093Y-37096020D01*
X142014046Y-37076189D01*
X141675459Y-37060120D01*
X141225868Y-37047440D01*
X140649808Y-37037780D01*
X139931815Y-37030767D01*
X139056424Y-37026030D01*
X138008171Y-37023199D01*
X136771591Y-37021902D01*
X135897471Y-37021705D01*
X134535509Y-37022233D01*
X133371526Y-37024063D01*
X132390057Y-37027567D01*
X131575638Y-37033115D01*
X130912805Y-37041080D01*
X130386092Y-37051832D01*
X129980036Y-37065742D01*
X129679172Y-37083181D01*
X129468035Y-37104522D01*
X129331162Y-37130133D01*
X129253087Y-37160388D01*
X129227303Y-37181789D01*
X129146025Y-37239166D01*
X128992396Y-37281507D01*
X128738430Y-37310878D01*
X128356144Y-37329351D01*
X127817552Y-37338992D01*
X127094669Y-37341870D01*
X127061504Y-37341873D01*
X126339476Y-37344034D01*
X125800403Y-37352166D01*
X125413825Y-37368743D01*
X125149281Y-37396239D01*
X124976309Y-37437128D01*
X124864450Y-37493885D01*
X124828112Y-37523279D01*
X124716637Y-37596370D01*
X124546939Y-37647671D01*
X124283518Y-37680970D01*
X123890869Y-37700057D01*
X123333489Y-37708721D01*
X123078156Y-37710044D01*
X122464203Y-37714886D01*
X122029810Y-37727086D01*
X121741120Y-37750579D01*
X121564276Y-37789295D01*
X121465418Y-37847166D01*
X121423934Y-37902168D01*
X121350376Y-37984915D01*
X121214477Y-38039369D01*
X120977286Y-38071120D01*
X120599851Y-38085762D01*
X120122882Y-38088932D01*
X119596180Y-38092337D01*
X119241982Y-38106927D01*
X119019396Y-38139266D01*
X118887530Y-38195919D01*
X118805494Y-38283451D01*
X118793247Y-38302378D01*
X118707054Y-38403531D01*
X118571679Y-38466851D01*
X118341628Y-38500893D01*
X117971404Y-38514216D01*
X117658405Y-38515823D01*
X117165454Y-38523025D01*
X116848630Y-38548340D01*
X116670982Y-38597334D01*
X116595561Y-38675570D01*
X116595432Y-38675907D01*
X116520266Y-38754289D01*
X116342949Y-38803383D01*
X116026520Y-38828760D01*
X115534020Y-38835991D01*
X115533327Y-38835991D01*
X115048494Y-38841813D01*
X114728626Y-38865035D01*
X114525421Y-38914293D01*
X114390580Y-38998224D01*
X114339488Y-39049436D01*
X114195790Y-39165562D01*
X113989981Y-39231189D01*
X113664657Y-39259026D01*
X113375510Y-39262882D01*
X112906942Y-39279574D01*
X112614999Y-39333725D01*
X112471841Y-39422966D01*
X112267988Y-39532094D01*
X111879525Y-39580065D01*
X111711714Y-39583050D01*
X111344216Y-39595803D01*
X111148772Y-39640909D01*
X111085137Y-39728639D01*
X111084446Y-39743134D01*
X111037950Y-39833138D01*
X110871894Y-39883050D01*
X110546425Y-39902118D01*
X110394503Y-39903218D01*
X110004376Y-39913602D01*
X109771657Y-39954567D01*
X109640897Y-40040830D01*
X109590328Y-40116663D01*
X109484719Y-40241728D01*
X109300753Y-40306886D01*
X108979699Y-40329209D01*
X108856055Y-40330109D01*
X108463794Y-40347905D01*
X108214766Y-40413659D01*
X108040797Y-40545917D01*
X108033513Y-40553871D01*
X107867862Y-40691764D01*
X107659706Y-40737660D01*
X107339589Y-40712443D01*
X106986162Y-40690733D01*
X106738886Y-40754613D01*
X106574893Y-40862210D01*
X106240907Y-41025772D01*
X105772862Y-41077167D01*
X105771226Y-41077168D01*
X105360978Y-41114568D01*
X105122086Y-41221990D01*
X105107975Y-41237252D01*
X104914070Y-41346143D01*
X104614583Y-41396710D01*
X104577835Y-41397336D01*
X104177608Y-41473611D01*
X103987387Y-41610781D01*
X103689807Y-41786944D01*
X103380522Y-41824226D01*
X103050470Y-41867434D01*
X102905392Y-41984310D01*
X102804788Y-42079002D01*
X102569050Y-42129588D01*
X102165438Y-42144394D01*
X101778542Y-42155183D01*
X101548484Y-42197594D01*
X101419299Y-42286696D01*
X101372681Y-42357840D01*
X101213108Y-42513954D01*
X100923778Y-42569948D01*
X100848380Y-42571285D01*
X100532901Y-42612632D01*
X100318639Y-42717202D01*
X100305454Y-42731369D01*
X100113528Y-42840954D01*
X99826413Y-42891122D01*
X99802287Y-42891453D01*
X99444537Y-42958500D01*
X99160626Y-43104899D01*
X98925015Y-43255107D01*
X98737135Y-43318338D01*
X98735960Y-43318344D01*
X98538882Y-43388660D01*
X98422561Y-43478428D01*
X98213599Y-43584857D01*
X97909448Y-43637348D01*
X97859750Y-43638512D01*
X97454904Y-43714328D01*
X97263858Y-43851957D01*
X96966278Y-44028121D01*
X96656993Y-44065403D01*
X96326940Y-44108611D01*
X96181863Y-44225487D01*
X96038221Y-44352932D01*
X95881585Y-44385571D01*
X95629782Y-44461922D01*
X95449572Y-44599016D01*
X95200951Y-44759729D01*
X94817370Y-44812341D01*
X94792695Y-44812462D01*
X94482187Y-44834893D01*
X94344498Y-44910640D01*
X94328984Y-44972546D01*
X94234556Y-45099046D01*
X94005466Y-45132630D01*
X93743723Y-45182696D01*
X93620518Y-45292714D01*
X93469682Y-45410289D01*
X93129770Y-45452567D01*
X93094009Y-45452798D01*
X92763258Y-45480481D01*
X92576241Y-45579342D01*
X92514698Y-45666243D01*
X92307194Y-45844103D01*
X92109724Y-45879689D01*
X91818804Y-45962695D01*
X91685684Y-46093134D01*
X91509166Y-46248633D01*
X91204633Y-46305125D01*
X91123049Y-46306579D01*
X90781500Y-46348742D01*
X90632283Y-46466663D01*
X90489081Y-46592439D01*
X90323088Y-46626747D01*
X90054978Y-46693675D01*
X89915238Y-46786831D01*
X89688757Y-46920664D01*
X89550626Y-46946915D01*
X89326308Y-47022124D01*
X89155211Y-47157844D01*
X88983977Y-47294889D01*
X88871863Y-47311630D01*
X88842431Y-47191651D01*
X88816867Y-46892999D01*
X88796775Y-46450436D01*
X88783758Y-45898722D01*
X88779404Y-45306485D01*
X88779404Y-43358484D01*
X89095250Y-43124969D01*
X89344604Y-42969286D01*
X89542881Y-42893008D01*
X89562435Y-42891453D01*
X89753390Y-42815979D01*
X89846631Y-42731369D01*
X90047537Y-42610972D01*
X90274142Y-42571285D01*
X90528093Y-42509289D01*
X90624612Y-42357840D01*
X90709282Y-42215156D01*
X90903509Y-42153513D01*
X91117312Y-42144394D01*
X91545398Y-42074831D01*
X91767639Y-41930949D01*
X92021886Y-41769486D01*
X92247891Y-41717504D01*
X92462477Y-41661839D01*
X92514698Y-41557420D01*
X92579212Y-41450586D01*
X92797394Y-41402932D01*
X92981882Y-41397336D01*
X93343381Y-41357805D01*
X93569349Y-41250930D01*
X93581925Y-41237252D01*
X93788415Y-41100451D01*
X93907537Y-41077168D01*
X94135003Y-41005259D01*
X94275144Y-40902316D01*
X94490931Y-40781325D01*
X94807568Y-40699865D01*
X94891531Y-40690029D01*
X95200152Y-40628314D01*
X95400438Y-40520934D01*
X95423303Y-40491352D01*
X95587127Y-40373639D01*
X95821212Y-40330109D01*
X96088176Y-40268751D01*
X96196631Y-40116663D01*
X96285258Y-39978501D01*
X96475166Y-39915530D01*
X96740785Y-39903218D01*
X97098528Y-39869001D01*
X97269050Y-39763279D01*
X97278625Y-39743134D01*
X97435607Y-39621878D01*
X97741135Y-39583050D01*
X98143221Y-39511802D01*
X98413567Y-39369605D01*
X98650425Y-39219289D01*
X98840819Y-39156163D01*
X98841783Y-39156159D01*
X99037759Y-39080452D01*
X99131505Y-38996075D01*
X99327594Y-38886566D01*
X99633841Y-38836567D01*
X99670563Y-38835991D01*
X99980016Y-38795587D01*
X100213148Y-38696301D01*
X100236847Y-38675907D01*
X100444495Y-38571204D01*
X100752805Y-38517683D01*
X100819170Y-38515823D01*
X101147047Y-38477699D01*
X101349638Y-38341816D01*
X101398587Y-38275697D01*
X101531152Y-38129342D01*
X101723256Y-38061846D01*
X102046232Y-38050453D01*
X102100204Y-38051866D01*
X102518055Y-38030476D01*
X102799213Y-37925549D01*
X102874504Y-37868804D01*
X103183725Y-37715705D01*
X103465036Y-37683007D01*
X103785857Y-37639196D01*
X104021674Y-37519220D01*
X104261083Y-37397328D01*
X104576275Y-37342154D01*
X104598028Y-37341873D01*
X104903308Y-37296286D01*
X105039846Y-37181789D01*
X105145922Y-37084145D01*
X105393905Y-37033765D01*
X105741207Y-37021705D01*
X106117211Y-37009347D01*
X106338413Y-36961373D01*
X106462586Y-36861431D01*
X106495370Y-36808260D01*
X106593005Y-36688988D01*
X106761104Y-36623769D01*
X107055284Y-36597770D01*
X107295790Y-36594815D01*
X107684854Y-36584300D01*
X107916697Y-36542868D01*
X108046934Y-36455689D01*
X108096210Y-36381369D01*
X108201347Y-36256637D01*
X108384366Y-36191466D01*
X108703834Y-36168912D01*
X108833957Y-36167924D01*
X109285426Y-36138498D01*
X109546320Y-36048119D01*
X109590328Y-36007840D01*
X109814927Y-35892638D01*
X110235661Y-35848261D01*
X110298138Y-35847756D01*
X110695785Y-35822698D01*
X110942320Y-35737369D01*
X111041650Y-35650891D01*
X111192869Y-35531791D01*
X111415732Y-35489246D01*
X111751293Y-35506018D01*
X112099085Y-35522837D01*
X112305098Y-35479355D01*
X112434109Y-35364177D01*
X112561051Y-35257264D01*
X112783248Y-35188919D01*
X113147780Y-35147934D01*
X113400867Y-35134081D01*
X113879312Y-35098080D01*
X114173356Y-35037062D01*
X114311199Y-34945012D01*
X114314674Y-34939172D01*
X114406641Y-34862325D01*
X114603000Y-34813610D01*
X114939875Y-34788015D01*
X115453389Y-34780529D01*
X115458187Y-34780529D01*
X115944261Y-34776865D01*
X116258391Y-34760620D01*
X116442026Y-34723912D01*
X116536617Y-34658857D01*
X116580664Y-34567083D01*
X116629913Y-34468952D01*
X116730033Y-34406426D01*
X116922474Y-34371621D01*
X117248686Y-34356657D01*
X117703141Y-34353638D01*
X118204786Y-34347735D01*
X118533643Y-34325882D01*
X118730151Y-34281868D01*
X118834747Y-34209478D01*
X118857103Y-34176324D01*
X118937014Y-34093764D01*
X119092000Y-34041360D01*
X119362147Y-34013252D01*
X119787538Y-34003579D01*
X120037946Y-34003668D01*
X120557863Y-33999443D01*
X120912710Y-33976738D01*
X121150555Y-33928498D01*
X121319467Y-33847669D01*
X121374928Y-33807453D01*
X121503193Y-33725975D01*
X121670859Y-33669675D01*
X121916662Y-33634098D01*
X122279339Y-33614789D01*
X122797623Y-33607291D01*
X123121195Y-33606579D01*
X123743488Y-33602165D01*
X124184886Y-33586793D01*
X124477799Y-33557266D01*
X124654634Y-33510391D01*
X124744950Y-33446495D01*
X124826228Y-33389118D01*
X124979857Y-33346778D01*
X125233822Y-33317406D01*
X125616109Y-33298934D01*
X126154701Y-33289293D01*
X126877584Y-33286415D01*
X126910749Y-33286411D01*
X127651769Y-33283379D01*
X128207192Y-33272968D01*
X128604797Y-33253210D01*
X128872365Y-33222135D01*
X129037675Y-33177774D01*
X129116479Y-33130039D01*
X129177077Y-33097437D01*
X129291623Y-33069462D01*
X129475407Y-33045734D01*
X129743715Y-33025874D01*
X130111837Y-33009505D01*
X130595061Y-32996246D01*
X131208675Y-32985720D01*
X131967966Y-32977548D01*
X132888224Y-32971351D01*
X133984736Y-32966751D01*
X135272791Y-32963369D01*
X135893184Y-32962188D01*
X137254904Y-32960253D01*
X138418715Y-32959785D01*
X139400151Y-32961147D01*
G37*
G36*
X139920153Y-62101733D02*
G01*
X140917214Y-62102798D01*
X141736346Y-62105445D01*
X142395306Y-62110391D01*
X142911851Y-62118349D01*
X143303741Y-62130034D01*
X143588731Y-62146161D01*
X143784581Y-62167445D01*
X143909049Y-62194601D01*
X143979891Y-62228342D01*
X144014866Y-62269384D01*
X144030834Y-62314983D01*
X144121445Y-62488127D01*
X144195369Y-62528428D01*
X144335271Y-62600221D01*
X144532685Y-62775589D01*
X144556451Y-62800733D01*
X144668062Y-62937070D01*
X144740922Y-63088693D01*
X144783199Y-63302344D01*
X144803062Y-63624766D01*
X144808680Y-64102700D01*
X144808815Y-64244839D01*
X144803320Y-64780437D01*
X144783811Y-65137708D01*
X144745758Y-65351559D01*
X144684630Y-65456899D01*
X144648731Y-65478070D01*
X144550265Y-65585719D01*
X144499976Y-65837192D01*
X144488647Y-66169462D01*
X144471404Y-66564378D01*
X144408489Y-66811696D01*
X144283125Y-66975298D01*
X144275202Y-66982182D01*
X144133499Y-67171475D01*
X144070282Y-67462936D01*
X144061757Y-67704450D01*
X144012470Y-68172885D01*
X143876917Y-68507833D01*
X143759173Y-68773894D01*
X143676894Y-69138673D01*
X143660020Y-69300729D01*
X143610534Y-69647315D01*
X143521629Y-69922677D01*
X143471331Y-70002830D01*
X143366027Y-70242967D01*
X143317022Y-70643964D01*
X143314698Y-70769741D01*
X143294479Y-71154685D01*
X143228067Y-71364842D01*
X143154614Y-71425005D01*
X143057199Y-71530644D01*
X143006797Y-71777656D01*
X142994530Y-72129216D01*
X142981302Y-72510830D01*
X142930766Y-72739222D01*
X142826646Y-72873576D01*
X142781084Y-72905296D01*
X142659079Y-73019527D01*
X142593689Y-73206750D01*
X142569359Y-73525088D01*
X142567639Y-73702866D01*
X142556310Y-74085732D01*
X142511973Y-74312492D01*
X142419104Y-74439768D01*
X142354194Y-74481369D01*
X142230986Y-74584359D01*
X142165769Y-74763094D01*
X142142192Y-75075349D01*
X142140748Y-75235532D01*
X142123586Y-75632450D01*
X142066387Y-75855789D01*
X141980664Y-75936893D01*
X141862677Y-76088805D01*
X141820746Y-76430688D01*
X141820580Y-76460859D01*
X141799294Y-76803278D01*
X141723452Y-76966354D01*
X141575077Y-76981030D01*
X141527093Y-76966057D01*
X141444043Y-76840999D01*
X141396520Y-76582858D01*
X141383271Y-76258244D01*
X141403043Y-75933770D01*
X141454580Y-75676046D01*
X141536630Y-75551684D01*
X141553773Y-75548596D01*
X141643777Y-75502100D01*
X141693690Y-75336045D01*
X141712758Y-75010575D01*
X141713858Y-74858654D01*
X141724242Y-74468527D01*
X141765207Y-74235807D01*
X141851469Y-74105048D01*
X141927303Y-74054478D01*
X142048378Y-73954423D01*
X142113617Y-73781526D01*
X142138543Y-73479165D01*
X142140748Y-73275975D01*
X142154176Y-72883076D01*
X142203780Y-72647119D01*
X142303542Y-72512755D01*
X142339972Y-72487287D01*
X142462657Y-72355661D01*
X142528707Y-72119397D01*
X142553429Y-71745473D01*
X142588536Y-71322727D01*
X142673143Y-71087882D01*
X142727735Y-71038495D01*
X142830270Y-70896496D01*
X142880158Y-70596121D01*
X142887807Y-70326949D01*
X142917449Y-69875526D01*
X143008416Y-69615016D01*
X143047891Y-69572126D01*
X143157534Y-69366520D01*
X143205259Y-68974894D01*
X143207975Y-68815754D01*
X143221114Y-68444355D01*
X143271827Y-68226838D01*
X143377057Y-68104638D01*
X143421421Y-68078008D01*
X143544629Y-67975018D01*
X143609846Y-67796283D01*
X143633422Y-67484028D01*
X143634866Y-67323845D01*
X143652028Y-66926928D01*
X143709227Y-66703588D01*
X143794950Y-66622484D01*
X143891276Y-66518886D01*
X143941770Y-66276428D01*
X143955034Y-65904446D01*
X143967600Y-65519163D01*
X144015838Y-65287899D01*
X144115555Y-65152155D01*
X144168479Y-65114540D01*
X144299646Y-64985608D01*
X144364511Y-64770196D01*
X144381925Y-64406226D01*
X144367690Y-64053072D01*
X144300199Y-63822873D01*
X144142268Y-63625744D01*
X144008395Y-63503248D01*
X143785721Y-63285913D01*
X143652075Y-63113344D01*
X143634866Y-63065302D01*
X143533815Y-63036656D01*
X143229566Y-63012383D01*
X142720472Y-62992447D01*
X142004888Y-62976815D01*
X141081166Y-62965453D01*
X139947662Y-62958327D01*
X138602729Y-62955402D01*
X138307625Y-62955319D01*
X137048591Y-62954212D01*
X135988647Y-62950653D01*
X135113448Y-62944289D01*
X134408650Y-62934763D01*
X133859908Y-62921722D01*
X133452877Y-62904811D01*
X133173212Y-62883673D01*
X133006569Y-62857956D01*
X132938602Y-62827302D01*
X132936087Y-62822429D01*
X132976610Y-62668214D01*
X133132544Y-62451802D01*
X133185791Y-62395538D01*
X133479792Y-62101537D01*
X138727404Y-62101537D01*
X139920153Y-62101733D01*
G37*
G36*
X137466717Y-65837797D02*
G01*
X138299814Y-65841212D01*
X138958239Y-65847858D01*
X139461374Y-65858512D01*
X139828602Y-65873956D01*
X140079307Y-65894969D01*
X140232871Y-65922329D01*
X140308678Y-65956818D01*
X140326463Y-65993161D01*
X140411199Y-66163008D01*
X140539908Y-66263722D01*
X140696837Y-66424991D01*
X140752273Y-66717385D01*
X140753353Y-66784550D01*
X140677888Y-67192617D01*
X140539908Y-67384310D01*
X140409839Y-67555816D01*
X140344316Y-67809552D01*
X140326463Y-68204621D01*
X140308535Y-68598179D01*
X140249009Y-68817921D01*
X140166379Y-68893196D01*
X140066397Y-69003806D01*
X140016315Y-69261810D01*
X140006294Y-69567003D01*
X139986719Y-69963279D01*
X139916409Y-70214305D01*
X139792849Y-70372546D01*
X139660901Y-70548120D01*
X139595584Y-70808952D01*
X139579404Y-71178088D01*
X139560518Y-71567800D01*
X139498096Y-71783335D01*
X139419320Y-71851896D01*
X139322245Y-71956894D01*
X139271812Y-72202477D01*
X139259236Y-72560361D01*
X139242474Y-72959154D01*
X139186502Y-73184476D01*
X139099152Y-73268826D01*
X139013939Y-73353713D01*
X138963746Y-73553558D01*
X138941696Y-73907027D01*
X138939068Y-74168864D01*
X138932321Y-74600711D01*
X138904681Y-74868888D01*
X138845048Y-75022948D01*
X138742321Y-75112443D01*
X138725622Y-75121705D01*
X138571531Y-75277132D01*
X138514253Y-75558864D01*
X138512177Y-75654916D01*
X138443175Y-76062454D01*
X138308879Y-76264817D01*
X138134619Y-76517944D01*
X138068753Y-76722546D01*
X138031925Y-76989352D01*
X134075572Y-77017313D01*
X133176806Y-77021762D01*
X132345780Y-77022216D01*
X131606536Y-77018942D01*
X130983115Y-77012203D01*
X130499557Y-77002266D01*
X130179903Y-76989397D01*
X130048194Y-76973859D01*
X130046790Y-76972845D01*
X129979181Y-76776032D01*
X130015794Y-76498991D01*
X130137840Y-76248576D01*
X130238270Y-76010897D01*
X130291807Y-75679780D01*
X130294530Y-75592978D01*
X130334525Y-75240476D01*
X130454614Y-75083112D01*
X130541645Y-74995419D01*
X130592023Y-74789107D01*
X130612954Y-74425271D01*
X130614698Y-74218816D01*
X130622601Y-73793925D01*
X130654215Y-73530136D01*
X130721401Y-73375434D01*
X130828143Y-73282652D01*
X130953398Y-73163391D01*
X131018717Y-72966559D01*
X131040844Y-72632312D01*
X131041589Y-72519774D01*
X131069888Y-72070131D01*
X131156419Y-71814749D01*
X131197366Y-71771706D01*
X131303665Y-71580079D01*
X131367496Y-71224646D01*
X131377348Y-71074842D01*
X131428951Y-70642798D01*
X131546546Y-70380664D01*
X131595100Y-70330746D01*
X131702082Y-70191759D01*
X131762254Y-69969126D01*
X131786528Y-69610067D01*
X131788647Y-69394622D01*
X131801235Y-69009363D01*
X131834396Y-68714205D01*
X131881224Y-68567978D01*
X131886139Y-68563965D01*
X132041103Y-68531967D01*
X132355827Y-68507308D01*
X132777468Y-68490436D01*
X133253184Y-68481801D01*
X133730133Y-68481850D01*
X134155471Y-68491031D01*
X134476356Y-68509794D01*
X134639946Y-68538587D01*
X134643479Y-68540564D01*
X134729746Y-68701193D01*
X134776246Y-69005224D01*
X134784795Y-69386702D01*
X134757212Y-69779672D01*
X134695314Y-70118180D01*
X134600917Y-70336272D01*
X134593773Y-70344628D01*
X134459451Y-70620418D01*
X134407010Y-71071230D01*
X134405998Y-71134843D01*
X134383462Y-71513995D01*
X134314117Y-71732899D01*
X134215578Y-71826678D01*
X134103329Y-71944575D01*
X134045813Y-72171478D01*
X134029824Y-72552596D01*
X134002345Y-72993356D01*
X133916177Y-73253146D01*
X133864923Y-73311417D01*
X133762875Y-73474384D01*
X133725474Y-73767040D01*
X133731520Y-74044863D01*
X133763017Y-74641453D01*
X135790748Y-74641453D01*
X135823526Y-74001947D01*
X135873576Y-73561790D01*
X135967036Y-73315140D01*
X136010291Y-73276266D01*
X136106059Y-73136833D01*
X136154921Y-72835240D01*
X136164278Y-72514144D01*
X136172966Y-72138158D01*
X136209083Y-71923561D01*
X136287710Y-71818655D01*
X136377723Y-71782379D01*
X136497734Y-71722221D01*
X136562525Y-71586581D01*
X136588056Y-71322729D01*
X136591168Y-71077139D01*
X136604072Y-70693766D01*
X136653482Y-70464001D01*
X136755448Y-70328990D01*
X136804614Y-70294417D01*
X136927308Y-70179136D01*
X136992693Y-69989911D01*
X137016576Y-69668244D01*
X137018059Y-69504510D01*
X137032975Y-69109876D01*
X137084332Y-68884290D01*
X137182049Y-68785009D01*
X137185291Y-68783730D01*
X137311238Y-68628273D01*
X137318694Y-68425463D01*
X137284866Y-68131369D01*
X134696841Y-68102791D01*
X132108815Y-68074213D01*
X132108815Y-67759697D01*
X132188846Y-67452894D01*
X132332414Y-67325515D01*
X132479876Y-67204967D01*
X132512175Y-67017054D01*
X132485984Y-66832561D01*
X132456605Y-66477285D01*
X132484310Y-66148052D01*
X132552666Y-65836831D01*
X136439564Y-65836831D01*
X137466717Y-65837797D01*
G37*
G36*
X141894641Y-64621770D02*
G01*
X142016085Y-64771286D01*
X142092475Y-64936347D01*
X142134229Y-65169011D01*
X142151766Y-65521337D01*
X142155362Y-65924445D01*
X142148903Y-66430330D01*
X142123171Y-66763210D01*
X142072363Y-66963098D01*
X141990675Y-67070009D01*
X141989021Y-67071229D01*
X141875802Y-67248953D01*
X141825075Y-67588510D01*
X141820580Y-67783218D01*
X141785575Y-68234723D01*
X141680340Y-68486031D01*
X141660496Y-68504899D01*
X141550854Y-68710504D01*
X141503128Y-69102131D01*
X141500412Y-69261270D01*
X141488147Y-69629305D01*
X141439151Y-69845014D01*
X141335127Y-69968718D01*
X141274611Y-70005629D01*
X141145070Y-70102430D01*
X141086662Y-70252639D01*
X141083532Y-70519538D01*
X141097437Y-70712850D01*
X141113955Y-71069603D01*
X141080055Y-71277895D01*
X140982892Y-71399373D01*
X140949708Y-71421852D01*
X140829248Y-71550947D01*
X140768946Y-71781483D01*
X140753353Y-72142601D01*
X140732415Y-72536701D01*
X140657692Y-72786610D01*
X140539908Y-72933890D01*
X140404692Y-73116731D01*
X140339863Y-73390241D01*
X140326463Y-73715767D01*
X140287245Y-74187872D01*
X140166806Y-74479380D01*
X140148600Y-74501015D01*
X140013355Y-74795998D01*
X139978281Y-75203115D01*
X139930535Y-75661707D01*
X139803310Y-75922126D01*
X139667488Y-76177643D01*
X139591924Y-76499480D01*
X139591106Y-76509100D01*
X139533575Y-76851009D01*
X139430909Y-76985905D01*
X139281641Y-76915705D01*
X139280580Y-76914647D01*
X139206771Y-76739795D01*
X139160490Y-76435767D01*
X139152513Y-76237490D01*
X139179546Y-75848878D01*
X139273586Y-75600827D01*
X139365958Y-75495235D01*
X139497906Y-75319660D01*
X139563224Y-75058828D01*
X139579404Y-74689692D01*
X139598289Y-74299980D01*
X139660711Y-74084446D01*
X139739488Y-74015885D01*
X139838804Y-73906583D01*
X139888984Y-73651459D01*
X139899572Y-73334487D01*
X139917583Y-72941480D01*
X139983030Y-72695363D01*
X140113017Y-72531762D01*
X140245160Y-72363668D01*
X140310364Y-72109624D01*
X140326463Y-71746070D01*
X140349646Y-71339450D01*
X140426213Y-71098212D01*
X140502653Y-71014301D01*
X140619382Y-70842757D01*
X140678518Y-70520323D01*
X140689823Y-70273259D01*
X140719313Y-69867060D01*
X140798178Y-69623068D01*
X140887161Y-69524780D01*
X141000366Y-69380941D01*
X141058309Y-69126689D01*
X141073521Y-68744677D01*
X141090461Y-68346730D01*
X141146981Y-68122301D01*
X141233605Y-68039414D01*
X141331879Y-67932135D01*
X141382191Y-67681482D01*
X141393689Y-67345717D01*
X141411303Y-66950816D01*
X141469878Y-66729628D01*
X141553773Y-66652019D01*
X141664632Y-66517840D01*
X141711317Y-66210083D01*
X141713858Y-66079298D01*
X141714033Y-65884330D01*
X141702331Y-65722675D01*
X141660408Y-65590960D01*
X141569922Y-65485811D01*
X141412528Y-65403857D01*
X141169884Y-65341724D01*
X140823648Y-65296040D01*
X140355474Y-65263431D01*
X139747022Y-65240525D01*
X138979947Y-65223949D01*
X138035906Y-65210330D01*
X136912759Y-65196495D01*
X135836022Y-65182667D01*
X134953376Y-65169622D01*
X134245478Y-65156294D01*
X133692980Y-65141616D01*
X133276537Y-65124524D01*
X132976805Y-65103950D01*
X132774436Y-65078828D01*
X132650087Y-65048092D01*
X132584411Y-65010675D01*
X132558064Y-64965512D01*
X132555984Y-64956369D01*
X132594237Y-64798299D01*
X132675518Y-64769605D01*
X132825279Y-64680122D01*
X132886797Y-64556159D01*
X132906138Y-64503293D01*
X132946889Y-64459964D01*
X133028601Y-64425223D01*
X133170827Y-64398122D01*
X133393118Y-64377713D01*
X133715028Y-64363049D01*
X134156109Y-64353181D01*
X134735912Y-64347162D01*
X135473991Y-64344043D01*
X136389897Y-64342878D01*
X137289317Y-64342714D01*
X141636020Y-64342714D01*
X141894641Y-64621770D01*
G37*
G36*
X140077356Y-47919117D02*
G01*
X140732656Y-47921982D01*
X141256540Y-47928170D01*
X141665416Y-47938139D01*
X141975688Y-47952348D01*
X142203762Y-47971256D01*
X142366043Y-47995322D01*
X142478938Y-48025004D01*
X142558851Y-48060761D01*
X142622188Y-48103052D01*
X142647705Y-48122804D01*
X142758127Y-48199705D01*
X142886745Y-48255902D01*
X143066009Y-48294270D01*
X143328374Y-48317684D01*
X143706291Y-48329017D01*
X144232212Y-48331144D01*
X144938591Y-48326940D01*
X144951272Y-48326839D01*
X145666761Y-48323137D01*
X146197617Y-48326477D01*
X146572594Y-48338970D01*
X146820446Y-48362731D01*
X146969928Y-48399871D01*
X147049796Y-48452503D01*
X147071127Y-48482590D01*
X147137335Y-48550294D01*
X147269319Y-48597949D01*
X147499461Y-48628854D01*
X147860141Y-48646305D01*
X148383740Y-48653600D01*
X148759103Y-48654478D01*
X149375949Y-48656336D01*
X149813541Y-48664759D01*
X150106059Y-48684024D01*
X150287682Y-48718407D01*
X150392590Y-48772184D01*
X150454962Y-48849633D01*
X150465118Y-48867924D01*
X150532800Y-48960848D01*
X150643832Y-49022204D01*
X150838176Y-49058426D01*
X151155794Y-49075951D01*
X151636647Y-49081215D01*
X151790459Y-49081369D01*
X152315036Y-49083813D01*
X152664467Y-49095642D01*
X152877035Y-49123598D01*
X152991021Y-49174425D01*
X153044710Y-49254867D01*
X153060050Y-49305005D01*
X153101689Y-49413121D01*
X153186536Y-49473814D01*
X153359767Y-49494196D01*
X153666556Y-49481380D01*
X154009288Y-49454442D01*
X154472325Y-49423232D01*
X154791748Y-49427671D01*
X155035561Y-49475542D01*
X155271768Y-49574627D01*
X155333037Y-49605931D01*
X155642786Y-49735889D01*
X155984406Y-49800309D01*
X156439519Y-49812983D01*
X156544685Y-49810704D01*
X156976168Y-49809599D01*
X157245047Y-49840476D01*
X157400882Y-49911969D01*
X157454524Y-49969192D01*
X157569914Y-50063633D01*
X157776132Y-50119318D01*
X158119015Y-50144565D01*
X158442986Y-50148596D01*
X158898179Y-50158154D01*
X159179107Y-50191301D01*
X159324284Y-50254748D01*
X159361695Y-50308680D01*
X159477257Y-50411112D01*
X159746055Y-50460739D01*
X160009130Y-50468764D01*
X160379075Y-50485801D01*
X160619296Y-50555151D01*
X160812050Y-50704175D01*
X160856484Y-50750617D01*
X161037614Y-50918777D01*
X161220530Y-50987905D01*
X161491641Y-50981290D01*
X161643486Y-50962740D01*
X161981830Y-50933609D01*
X162190214Y-50970472D01*
X162346086Y-51088931D01*
X162363501Y-51107777D01*
X162538817Y-51240328D01*
X162797768Y-51306030D01*
X163170241Y-51322546D01*
X163559952Y-51341431D01*
X163775487Y-51403853D01*
X163844048Y-51482630D01*
X163951591Y-51581041D01*
X164202830Y-51631337D01*
X164536096Y-51642714D01*
X164987828Y-51671178D01*
X165250449Y-51758938D01*
X165299572Y-51802798D01*
X165506820Y-51912919D01*
X165901399Y-51960406D01*
X166052506Y-51962882D01*
X166412835Y-51973849D01*
X166615229Y-52018108D01*
X166714577Y-52112690D01*
X166740328Y-52176327D01*
X166829360Y-52314801D01*
X167020183Y-52377702D01*
X167282178Y-52389773D01*
X167662218Y-52430504D01*
X167904419Y-52566149D01*
X167939040Y-52603218D01*
X168231717Y-52781562D01*
X168517348Y-52816663D01*
X168823885Y-52858169D01*
X169053804Y-52959790D01*
X169072981Y-52976747D01*
X169314702Y-53089125D01*
X169736481Y-53135807D01*
X169823908Y-53136831D01*
X170193464Y-53153603D01*
X170407160Y-53214370D01*
X170519538Y-53332628D01*
X170674079Y-53473803D01*
X170945505Y-53481286D01*
X171321475Y-53522435D01*
X171552563Y-53659019D01*
X171944365Y-53844979D01*
X172254289Y-53883890D01*
X172585925Y-53926952D01*
X172731566Y-54043974D01*
X172874580Y-54169044D01*
X173044630Y-54204058D01*
X173295398Y-54290620D01*
X173410496Y-54417504D01*
X173531503Y-54552680D01*
X173746325Y-54616772D01*
X174054587Y-54630949D01*
X174388839Y-54648315D01*
X174551400Y-54708376D01*
X174584446Y-54791033D01*
X174654937Y-54902344D01*
X174888609Y-54948212D01*
X175011337Y-54951117D01*
X175443534Y-55026581D01*
X175651673Y-55164562D01*
X175907324Y-55326123D01*
X176135274Y-55378008D01*
X176362563Y-55434531D01*
X176466860Y-55538092D01*
X176623975Y-55659354D01*
X176930695Y-55698176D01*
X177239826Y-55739748D01*
X177452501Y-55843850D01*
X177465958Y-55858260D01*
X177679511Y-55995376D01*
X177804290Y-56018344D01*
X178015256Y-56092758D01*
X178245625Y-56273069D01*
X178257032Y-56285151D01*
X178512878Y-56480156D01*
X178844964Y-56549682D01*
X178945633Y-56551957D01*
X179247871Y-56576691D01*
X179376389Y-56659324D01*
X179386967Y-56712041D01*
X179481783Y-56839515D01*
X179694067Y-56872126D01*
X179964907Y-56924763D01*
X180134026Y-57032210D01*
X180327931Y-57141101D01*
X180627418Y-57191668D01*
X180664166Y-57192294D01*
X181055055Y-57264126D01*
X181248100Y-57398542D01*
X181437568Y-57534752D01*
X181578237Y-57549730D01*
X181745848Y-57581513D01*
X181912096Y-57717011D01*
X182141501Y-57885757D01*
X182344654Y-57939352D01*
X182590447Y-58024090D01*
X182720138Y-58152798D01*
X182941514Y-58327878D01*
X183140741Y-58366243D01*
X183401788Y-58438352D01*
X183495790Y-58579689D01*
X183591605Y-58752165D01*
X183663066Y-58793134D01*
X183699498Y-58894559D01*
X183729370Y-59177745D01*
X183750726Y-59611057D01*
X183761612Y-60162860D01*
X183762597Y-60403548D01*
X183761044Y-61023677D01*
X183753215Y-61466162D01*
X183734353Y-61766801D01*
X183699702Y-61961391D01*
X183644507Y-62085729D01*
X183564012Y-62175611D01*
X183522471Y-62210914D01*
X183364017Y-62359897D01*
X183365212Y-62459405D01*
X183464251Y-62548189D01*
X183535922Y-62630089D01*
X183586997Y-62769827D01*
X183621230Y-63001050D01*
X183642374Y-63357405D01*
X183654184Y-63872538D01*
X183658486Y-64289352D01*
X183662337Y-64859875D01*
X183664685Y-65359095D01*
X183665416Y-65745911D01*
X183664414Y-65979223D01*
X183663345Y-66023596D01*
X183593395Y-66145578D01*
X183463755Y-66120565D01*
X183374300Y-65996915D01*
X183230245Y-65877630D01*
X183007875Y-65836831D01*
X182707286Y-65754364D01*
X182584218Y-65615109D01*
X182439702Y-65464441D01*
X182320467Y-65449061D01*
X182141586Y-65427831D01*
X181913707Y-65298900D01*
X181911609Y-65297255D01*
X181656194Y-65147743D01*
X181435963Y-65089773D01*
X181232856Y-65018719D01*
X181162659Y-64929689D01*
X181008752Y-64810943D01*
X180663249Y-64769679D01*
X180643299Y-64769605D01*
X180302750Y-64737055D01*
X180103424Y-64623912D01*
X180052070Y-64556159D01*
X179844033Y-64386260D01*
X179658172Y-64342714D01*
X179419966Y-64279821D01*
X179303662Y-64174904D01*
X179142911Y-64056139D01*
X178851452Y-63964638D01*
X178738065Y-63945791D01*
X178431941Y-63878036D01*
X178220070Y-63780168D01*
X178181033Y-63740072D01*
X178021762Y-63636131D01*
X177777474Y-63595655D01*
X177519903Y-63545154D01*
X177397829Y-63435571D01*
X177241063Y-63314325D01*
X176937467Y-63275487D01*
X176535830Y-63199346D01*
X176345370Y-63062041D01*
X176105930Y-62898354D01*
X175898589Y-62848596D01*
X175677987Y-62788593D01*
X175583544Y-62688512D01*
X175422802Y-62567228D01*
X175078952Y-62528428D01*
X174740210Y-62492556D01*
X174542045Y-62369372D01*
X174502490Y-62314983D01*
X174346421Y-62169133D01*
X174079205Y-62107724D01*
X173893599Y-62101537D01*
X173563974Y-62076607D01*
X173376221Y-61985025D01*
X173299344Y-61879815D01*
X173154828Y-61729147D01*
X173035593Y-61713767D01*
X172856712Y-61692536D01*
X172628833Y-61563606D01*
X172626735Y-61561961D01*
X172312505Y-61408868D01*
X171976238Y-61354478D01*
X171666211Y-61309360D01*
X171528082Y-61194394D01*
X171368063Y-61073077D01*
X171032902Y-61034310D01*
X170673536Y-60986834D01*
X170411648Y-60864369D01*
X170403574Y-60857315D01*
X170140637Y-60730749D01*
X169718278Y-60697920D01*
X169675407Y-60699169D01*
X169311596Y-60689156D01*
X169083485Y-60613538D01*
X168958402Y-60502635D01*
X168665189Y-60322464D01*
X168387141Y-60287252D01*
X167995948Y-60213413D01*
X167754194Y-60073806D01*
X167462464Y-59916665D01*
X167163957Y-59860361D01*
X166882049Y-59813391D01*
X166687105Y-59700443D01*
X166686967Y-59700277D01*
X166461969Y-59585031D01*
X166039230Y-59540705D01*
X165975739Y-59540193D01*
X165545549Y-59508566D01*
X165264674Y-59404330D01*
X165184195Y-59341591D01*
X164972770Y-59212205D01*
X164673400Y-59172145D01*
X164457705Y-59181027D01*
X164105583Y-59184819D01*
X163883107Y-59117783D01*
X163751658Y-59006099D01*
X163572319Y-58872712D01*
X163304390Y-58807763D01*
X162958850Y-58793134D01*
X162569413Y-58773421D01*
X162325428Y-58702403D01*
X162176015Y-58579689D01*
X162004636Y-58446000D01*
X161744776Y-58381010D01*
X161401889Y-58366243D01*
X161017573Y-58345834D01*
X160808140Y-58278860D01*
X160749090Y-58206159D01*
X160643610Y-58108829D01*
X160396954Y-58058419D01*
X160043827Y-58046075D01*
X159636806Y-58027811D01*
X159390492Y-57965146D01*
X159266329Y-57863279D01*
X159152388Y-57765486D01*
X158957889Y-57714099D01*
X158631949Y-57700302D01*
X158359540Y-57706151D01*
X157945523Y-57712147D01*
X157689173Y-57688626D01*
X157535485Y-57624242D01*
X157434841Y-57515418D01*
X157340216Y-57413159D01*
X157199546Y-57349016D01*
X156966699Y-57314404D01*
X156595542Y-57300737D01*
X156272103Y-57299016D01*
X155776686Y-57291935D01*
X155457522Y-57267026D01*
X155277778Y-57218791D01*
X155200620Y-57141733D01*
X155199510Y-57138932D01*
X155126704Y-57062350D01*
X154954865Y-57013644D01*
X154647654Y-56987590D01*
X154168727Y-56978963D01*
X154086026Y-56978848D01*
X153597078Y-56974648D01*
X153278122Y-56956756D01*
X153085783Y-56917233D01*
X152976684Y-56848141D01*
X152919740Y-56765403D01*
X152852457Y-56672887D01*
X152742147Y-56611642D01*
X152549085Y-56575331D01*
X152233544Y-56557614D01*
X151755798Y-56552153D01*
X151581951Y-56551957D01*
X151038670Y-56547109D01*
X150676939Y-56529945D01*
X150465028Y-56496531D01*
X150371208Y-56442938D01*
X150358395Y-56400353D01*
X150313955Y-56297756D01*
X150164601Y-56223518D01*
X149886284Y-56174306D01*
X149454955Y-56146786D01*
X148846566Y-56137623D01*
X148472094Y-56138857D01*
X147881988Y-56137161D01*
X147465599Y-56119165D01*
X147183550Y-56080733D01*
X146996460Y-56017729D01*
X146927550Y-55976656D01*
X146806223Y-55914333D01*
X146625665Y-55868644D01*
X146355069Y-55837222D01*
X145963631Y-55817701D01*
X145420545Y-55807715D01*
X144695007Y-55804899D01*
X144691414Y-55804899D01*
X143968570Y-55802160D01*
X143430843Y-55792521D01*
X143049961Y-55773853D01*
X142797649Y-55744023D01*
X142645632Y-55700901D01*
X142567639Y-55644815D01*
X142518573Y-55611601D01*
X142420453Y-55583223D01*
X142257879Y-55559315D01*
X142015451Y-55539511D01*
X141677768Y-55523442D01*
X141229429Y-55510743D01*
X140655034Y-55501047D01*
X139939181Y-55493987D01*
X139066471Y-55489197D01*
X138021503Y-55486310D01*
X136788876Y-55484959D01*
X135844110Y-55484731D01*
X134476261Y-55485253D01*
X133306455Y-55487064D01*
X132319292Y-55490531D01*
X131499369Y-55496020D01*
X130831288Y-55503898D01*
X130299647Y-55514532D01*
X129889046Y-55528289D01*
X129584083Y-55545534D01*
X129369359Y-55566635D01*
X129229473Y-55591959D01*
X129149024Y-55621871D01*
X129120580Y-55644815D01*
X129039302Y-55702192D01*
X128885673Y-55744532D01*
X128631708Y-55773904D01*
X128249421Y-55792376D01*
X127710829Y-55802017D01*
X126987947Y-55804895D01*
X126954782Y-55804899D01*
X126235100Y-55806924D01*
X125698078Y-55814709D01*
X125312950Y-55830820D01*
X125048954Y-55857821D01*
X124875326Y-55898278D01*
X124761304Y-55954756D01*
X124714962Y-55991663D01*
X124606354Y-56066965D01*
X124452604Y-56117253D01*
X124216210Y-56145967D01*
X123859674Y-56156546D01*
X123345495Y-56152431D01*
X123030039Y-56146209D01*
X122439573Y-56135213D01*
X122026188Y-56135150D01*
X121753627Y-56150213D01*
X121585631Y-56184595D01*
X121485942Y-56242490D01*
X121418303Y-56328092D01*
X121415238Y-56332974D01*
X121336885Y-56429552D01*
X121218470Y-56492806D01*
X121018470Y-56529661D01*
X120695363Y-56547045D01*
X120207627Y-56551884D01*
X120102513Y-56551957D01*
X119580797Y-56555482D01*
X119231161Y-56570547D01*
X119012292Y-56603887D01*
X118882878Y-56662236D01*
X118801606Y-56752330D01*
X118793247Y-56765403D01*
X118706395Y-56867108D01*
X118569848Y-56930535D01*
X118337770Y-56964399D01*
X117964324Y-56977416D01*
X117670705Y-56978848D01*
X117185057Y-56985351D01*
X116865830Y-57010203D01*
X116666250Y-57061417D01*
X116539542Y-57147007D01*
X116511399Y-57177467D01*
X116399609Y-57275248D01*
X116239476Y-57329239D01*
X115980297Y-57346622D01*
X115571367Y-57334578D01*
X115447135Y-57328204D01*
X114995516Y-57309988D01*
X114699701Y-57320003D01*
X114502927Y-57367140D01*
X114348430Y-57460290D01*
X114288992Y-57509606D01*
X114095660Y-57641321D01*
X113860215Y-57705759D01*
X113510067Y-57718881D01*
X113356500Y-57714653D01*
X112923945Y-57718338D01*
X112645732Y-57774167D01*
X112491449Y-57868246D01*
X112233397Y-57993840D01*
X111806025Y-58044420D01*
X111686348Y-58046075D01*
X111297614Y-58065220D01*
X111083165Y-58128421D01*
X111016317Y-58206159D01*
X110905706Y-58306141D01*
X110647703Y-58356223D01*
X110342509Y-58366243D01*
X109946233Y-58385819D01*
X109695207Y-58456129D01*
X109536967Y-58579689D01*
X109357740Y-58713293D01*
X109090535Y-58778384D01*
X108743724Y-58793134D01*
X108347807Y-58814256D01*
X108100893Y-58888334D01*
X107969726Y-58996258D01*
X107777223Y-59132548D01*
X107466563Y-59194903D01*
X107240686Y-59203683D01*
X106813331Y-59244510D01*
X106530710Y-59351276D01*
X106502023Y-59374088D01*
X106234045Y-59493301D01*
X105784521Y-59539720D01*
X105724645Y-59540193D01*
X105339701Y-59560412D01*
X105129544Y-59626824D01*
X105069381Y-59700277D01*
X104920005Y-59820691D01*
X104670350Y-59860361D01*
X104358478Y-59917754D01*
X104014843Y-60059688D01*
X103946622Y-60099000D01*
X103704681Y-60239751D01*
X103554098Y-60310756D01*
X103533815Y-60312445D01*
X103420301Y-60294452D01*
X103194159Y-60287252D01*
X102927932Y-60344702D01*
X102811763Y-60505971D01*
X102747370Y-60627848D01*
X102617192Y-60690020D01*
X102366498Y-60707488D01*
X102098487Y-60701456D01*
X101712211Y-60701365D01*
X101485406Y-60743145D01*
X101366376Y-60837560D01*
X101354991Y-60856266D01*
X101154886Y-60996917D01*
X100846832Y-61034310D01*
X100532632Y-61075703D01*
X100318690Y-61180182D01*
X100305454Y-61194394D01*
X100114945Y-61302262D01*
X99824528Y-61354326D01*
X99785454Y-61355182D01*
X99422602Y-61415601D01*
X99088434Y-61560173D01*
X99084801Y-61562551D01*
X98854627Y-61687086D01*
X98699905Y-61722377D01*
X98688081Y-61717790D01*
X98576359Y-61755832D01*
X98468987Y-61883951D01*
X98298833Y-62039481D01*
X98009406Y-62098791D01*
X97895063Y-62101537D01*
X97496742Y-62159817D01*
X97263858Y-62314983D01*
X96966278Y-62491146D01*
X96656993Y-62528428D01*
X96326940Y-62571636D01*
X96181863Y-62688512D01*
X96038830Y-62813655D01*
X95869202Y-62848596D01*
X95611913Y-62924377D01*
X95405695Y-63076447D01*
X95168696Y-63241967D01*
X94878694Y-63241353D01*
X94544516Y-63252368D01*
X94323424Y-63387032D01*
X94088775Y-63539549D01*
X93898831Y-63595655D01*
X93678031Y-63672496D01*
X93581925Y-63755739D01*
X93384250Y-63865682D01*
X93072939Y-63915279D01*
X93036148Y-63915823D01*
X92699722Y-63960329D01*
X92503511Y-64108701D01*
X92489930Y-64129268D01*
X92267251Y-64304788D01*
X92065890Y-64342714D01*
X91787208Y-64419413D01*
X91666628Y-64545487D01*
X91483868Y-64703418D01*
X91176136Y-64748260D01*
X90862994Y-64794884D01*
X90618189Y-64908207D01*
X90605482Y-64919016D01*
X90364362Y-65056443D01*
X90198144Y-65089773D01*
X89952571Y-65163797D01*
X89846631Y-65249857D01*
X89645050Y-65386432D01*
X89529936Y-65409941D01*
X89323236Y-65484446D01*
X89152933Y-65623386D01*
X88978942Y-65782328D01*
X88869586Y-65836831D01*
X88848608Y-65734135D01*
X88829359Y-65442148D01*
X88812421Y-64985020D01*
X88798378Y-64386902D01*
X88787812Y-63671945D01*
X88781307Y-62864300D01*
X88779404Y-62101537D01*
X88782425Y-60998980D01*
X88791380Y-60080892D01*
X88806108Y-59352961D01*
X88826444Y-58820875D01*
X88852227Y-58490321D01*
X88883294Y-58366989D01*
X88886126Y-58366243D01*
X88972837Y-58276858D01*
X88992849Y-58152798D01*
X89038344Y-58001535D01*
X89212275Y-57943919D01*
X89340707Y-57939352D01*
X89677623Y-57864531D01*
X89821863Y-57725907D01*
X90014537Y-57556371D01*
X90175326Y-57512462D01*
X90433178Y-57439275D01*
X90555574Y-57352378D01*
X90762638Y-57247798D01*
X91069182Y-57194161D01*
X91134926Y-57192294D01*
X91428878Y-57164883D01*
X91547809Y-57074425D01*
X91554194Y-57032210D01*
X91637929Y-56912088D01*
X91902342Y-56872178D01*
X91916305Y-56872126D01*
X92207796Y-56825148D01*
X92339846Y-56712041D01*
X92466696Y-56604368D01*
X92759450Y-56556286D01*
X92938239Y-56551957D01*
X93256180Y-56543432D01*
X93415257Y-56499827D01*
X93469899Y-56394096D01*
X93475202Y-56285151D01*
X93502773Y-56105301D01*
X93627240Y-56031240D01*
X93852081Y-56018344D01*
X94154726Y-55972494D01*
X94290390Y-55858260D01*
X94444523Y-55739429D01*
X94790434Y-55698242D01*
X94809236Y-55698176D01*
X95163353Y-55660192D01*
X95325371Y-55544663D01*
X95328082Y-55538092D01*
X95470782Y-55419159D01*
X95687357Y-55378008D01*
X95990788Y-55291254D01*
X96123301Y-55156877D01*
X96286495Y-55000680D01*
X96547817Y-54962611D01*
X96639159Y-54968292D01*
X96973210Y-54944358D01*
X97152154Y-54815894D01*
X97384606Y-54670677D01*
X97732544Y-54630949D01*
X98075193Y-54592548D01*
X98235049Y-54481287D01*
X98236627Y-54477386D01*
X98375391Y-54344617D01*
X98599432Y-54257081D01*
X98867023Y-54156797D01*
X99030475Y-54037114D01*
X99222843Y-53934503D01*
X99540716Y-53885319D01*
X99608284Y-53883890D01*
X100003237Y-53831277D01*
X100252093Y-53670445D01*
X100555511Y-53492420D01*
X100844190Y-53456999D01*
X101163311Y-53412762D01*
X101304552Y-53296915D01*
X101409550Y-53199841D01*
X101655133Y-53149407D01*
X102013017Y-53136831D01*
X102411811Y-53120070D01*
X102637133Y-53064098D01*
X102721482Y-52976747D01*
X102879954Y-52855441D01*
X103199429Y-52816663D01*
X103589836Y-52752731D01*
X103798704Y-52603218D01*
X104056779Y-52435707D01*
X104412324Y-52389773D01*
X104749883Y-52350719D01*
X104947209Y-52218104D01*
X104976485Y-52176327D01*
X105093746Y-52052350D01*
X105286750Y-51986989D01*
X105614682Y-51963967D01*
X105752565Y-51962882D01*
X106150234Y-51945882D01*
X106374370Y-51889181D01*
X106456776Y-51802798D01*
X106557583Y-51707994D01*
X106793778Y-51657413D01*
X107195183Y-51642714D01*
X107603860Y-51627351D01*
X107845898Y-51574568D01*
X107966342Y-51474323D01*
X107968656Y-51470283D01*
X108118186Y-51354514D01*
X108425688Y-51293696D01*
X108654537Y-51280793D01*
X109017040Y-51245764D01*
X109309366Y-51174383D01*
X109419199Y-51118267D01*
X109620961Y-51032725D01*
X109948692Y-50970743D01*
X110183395Y-50952237D01*
X110558753Y-50920449D01*
X110787587Y-50843257D01*
X110934432Y-50700219D01*
X111064540Y-50565956D01*
X111256014Y-50495465D01*
X111572629Y-50470290D01*
X111734183Y-50468764D01*
X112130495Y-50451469D01*
X112353191Y-50393863D01*
X112433247Y-50308680D01*
X112518134Y-50223468D01*
X112717979Y-50173275D01*
X113071448Y-50151224D01*
X113333285Y-50148596D01*
X113767047Y-50141463D01*
X114036537Y-50112995D01*
X114190658Y-50052588D01*
X114278313Y-49949637D01*
X114281992Y-49942876D01*
X114355078Y-49844542D01*
X114475017Y-49788266D01*
X114688099Y-49767268D01*
X115040613Y-49774773D01*
X115328791Y-49789603D01*
X115792655Y-49810007D01*
X116098059Y-49803332D01*
X116299094Y-49762002D01*
X116449853Y-49678439D01*
X116518042Y-49623015D01*
X116674512Y-49513417D01*
X116867794Y-49449995D01*
X117153664Y-49423198D01*
X117587900Y-49423478D01*
X117672611Y-49425344D01*
X118128590Y-49429305D01*
X118416948Y-49410063D01*
X118582915Y-49360351D01*
X118671719Y-49272907D01*
X118676859Y-49264038D01*
X118753222Y-49181268D01*
X118897633Y-49127433D01*
X119149562Y-49096752D01*
X119548479Y-49083445D01*
X119924014Y-49081369D01*
X120442617Y-49077140D01*
X120791685Y-49059755D01*
X121015040Y-49022170D01*
X121156505Y-48957339D01*
X121251700Y-48867924D01*
X121340825Y-48783422D01*
X121463316Y-48724596D01*
X121655800Y-48686869D01*
X121954906Y-48665661D01*
X122397262Y-48656394D01*
X122959263Y-48654478D01*
X123564173Y-48652225D01*
X123992406Y-48642349D01*
X124280710Y-48620180D01*
X124465831Y-48581046D01*
X124584519Y-48520276D01*
X124670309Y-48436965D01*
X124746491Y-48361269D01*
X124847089Y-48305792D01*
X125003036Y-48267676D01*
X125245266Y-48244064D01*
X125604711Y-48232101D01*
X126112304Y-48228928D01*
X126798976Y-48231690D01*
X126887086Y-48232236D01*
X127649080Y-48233243D01*
X128222355Y-48224417D01*
X128631471Y-48204315D01*
X128900988Y-48171493D01*
X129055467Y-48124510D01*
X129088805Y-48102901D01*
X129162319Y-48072490D01*
X129313956Y-48046077D01*
X129557909Y-48023302D01*
X129908373Y-48003801D01*
X130379540Y-47987215D01*
X130985604Y-47973181D01*
X131740758Y-47961339D01*
X132659195Y-47951327D01*
X133755110Y-47942784D01*
X135042694Y-47935349D01*
X135813895Y-47931706D01*
X137158911Y-47925869D01*
X138306889Y-47921519D01*
X139274235Y-47919115D01*
X140077356Y-47919117D01*
G37*
G36*
X137132832Y-40757162D02*
G01*
X138269538Y-40758001D01*
X139225406Y-40760039D01*
X140016741Y-40763802D01*
X140659846Y-40769815D01*
X141171024Y-40778601D01*
X141566580Y-40790686D01*
X141862818Y-40806595D01*
X142076041Y-40826851D01*
X142222553Y-40851979D01*
X142318658Y-40882505D01*
X142380660Y-40918952D01*
X142424862Y-40961846D01*
X142432318Y-40970445D01*
X142508007Y-41044226D01*
X142610934Y-41098767D01*
X142771591Y-41136954D01*
X143020471Y-41161672D01*
X143388067Y-41175809D01*
X143904871Y-41182249D01*
X144601375Y-41183880D01*
X144687365Y-41183890D01*
X145409680Y-41185626D01*
X145948001Y-41192494D01*
X146331759Y-41206983D01*
X146590390Y-41231581D01*
X146753327Y-41268777D01*
X146850003Y-41321061D01*
X146895993Y-41370655D01*
X146976366Y-41444928D01*
X147114626Y-41498878D01*
X147344579Y-41536860D01*
X147700030Y-41563229D01*
X148214784Y-41582340D01*
X148615321Y-41592161D01*
X149281493Y-41612106D01*
X149763353Y-41640353D01*
X150089975Y-41680081D01*
X150290431Y-41734473D01*
X150372929Y-41784474D01*
X150521612Y-41863077D01*
X150779154Y-41908670D01*
X151183870Y-41925658D01*
X151576768Y-41922860D01*
X152090261Y-41921049D01*
X152435179Y-41942176D01*
X152655687Y-41991829D01*
X152795949Y-42075598D01*
X152797949Y-42077396D01*
X152951876Y-42166564D01*
X153202115Y-42220810D01*
X153591938Y-42246576D01*
X153964935Y-42251117D01*
X154433727Y-42256027D01*
X154734538Y-42276683D01*
X154912720Y-42321971D01*
X155013625Y-42400779D01*
X155054194Y-42464562D01*
X155131656Y-42566997D01*
X155260741Y-42630499D01*
X155487034Y-42664070D01*
X155856119Y-42676713D01*
X156135023Y-42678008D01*
X156634379Y-42686874D01*
X156971943Y-42719011D01*
X157198845Y-42782728D01*
X157353296Y-42875976D01*
X157592190Y-43000528D01*
X157943126Y-43065148D01*
X158313454Y-43081480D01*
X158811203Y-43113682D01*
X159123363Y-43200434D01*
X159207603Y-43257040D01*
X159469889Y-43376984D01*
X159887371Y-43424706D01*
X159932092Y-43425067D01*
X160348703Y-43462183D01*
X160589328Y-43569554D01*
X160603773Y-43585151D01*
X160819471Y-43697686D01*
X161229030Y-43743820D01*
X161340182Y-43745235D01*
X161730219Y-43764632D01*
X161974549Y-43834622D01*
X162126490Y-43958680D01*
X162302927Y-44094700D01*
X162571736Y-44159294D01*
X162884199Y-44172126D01*
X163327759Y-44208040D01*
X163575854Y-44314931D01*
X163592009Y-44332210D01*
X163796279Y-44441461D01*
X164185499Y-44489374D01*
X164351231Y-44492294D01*
X164728531Y-44506382D01*
X164953587Y-44559888D01*
X165086405Y-44669671D01*
X165110894Y-44705739D01*
X165234802Y-44833887D01*
X165440551Y-44899039D01*
X165789390Y-44918984D01*
X165845789Y-44919184D01*
X166297005Y-44951946D01*
X166552120Y-45051276D01*
X166580244Y-45079268D01*
X166776333Y-45188777D01*
X167082580Y-45238776D01*
X167119302Y-45239352D01*
X167426214Y-45277661D01*
X167654532Y-45371848D01*
X167677873Y-45391723D01*
X167879439Y-45510148D01*
X168181755Y-45607374D01*
X168245790Y-45620563D01*
X168529853Y-45696448D01*
X168714593Y-45789017D01*
X168735111Y-45811198D01*
X168871501Y-45873450D01*
X169160277Y-45929123D01*
X169540436Y-45966655D01*
X169562212Y-45967931D01*
X169988091Y-46005106D01*
X170229350Y-46061800D01*
X170314458Y-46145217D01*
X170315538Y-46158539D01*
X170399072Y-46261921D01*
X170663379Y-46304596D01*
X170770118Y-46306579D01*
X171110223Y-46339840D01*
X171309269Y-46455147D01*
X171357998Y-46520025D01*
X171588381Y-46697781D01*
X171810333Y-46733470D01*
X172061585Y-46782411D01*
X172422539Y-46911185D01*
X172818151Y-47092723D01*
X172845765Y-47106999D01*
X173242053Y-47291870D01*
X173610062Y-47426518D01*
X173874149Y-47483548D01*
X173886538Y-47483923D01*
X174194447Y-47537909D01*
X174418079Y-47644007D01*
X174664169Y-47750405D01*
X174986969Y-47800193D01*
X175019287Y-47800697D01*
X175303531Y-47830485D01*
X175440898Y-47939030D01*
X175469150Y-48014142D01*
X175612511Y-48194554D01*
X175758251Y-48227588D01*
X176005118Y-48292122D01*
X176270556Y-48447066D01*
X176574082Y-48602850D01*
X176781452Y-48608347D01*
X177062453Y-48636298D01*
X177283156Y-48762398D01*
X177519647Y-48912221D01*
X177709676Y-48974646D01*
X177709850Y-48974647D01*
X177905827Y-49050353D01*
X177999572Y-49134731D01*
X178207722Y-49247213D01*
X178556004Y-49294392D01*
X178595859Y-49294815D01*
X178926265Y-49322769D01*
X179113039Y-49422484D01*
X179173521Y-49508260D01*
X179352906Y-49679378D01*
X179505067Y-49721705D01*
X179760298Y-49794770D01*
X179882465Y-49881789D01*
X180091427Y-49988218D01*
X180395578Y-50040709D01*
X180445276Y-50041873D01*
X180850122Y-50117689D01*
X181041168Y-50255319D01*
X181273674Y-50418547D01*
X181471532Y-50468764D01*
X181722094Y-50536973D01*
X181841589Y-50628848D01*
X182045077Y-50765512D01*
X182161757Y-50788932D01*
X182385548Y-50865908D01*
X182481925Y-50949016D01*
X182691980Y-51080336D01*
X182849919Y-51109100D01*
X183087721Y-51183991D01*
X183319828Y-51359005D01*
X183406744Y-51461703D01*
X183468289Y-51578533D01*
X183508056Y-51744479D01*
X183529633Y-51994529D01*
X183536612Y-52363668D01*
X183532584Y-52886882D01*
X183525196Y-53360055D01*
X183511017Y-54019492D01*
X183492767Y-54485958D01*
X183468449Y-54779918D01*
X183436065Y-54921838D01*
X183393620Y-54932181D01*
X183374381Y-54905774D01*
X183204332Y-54728779D01*
X183080665Y-54675058D01*
X182868350Y-54610545D01*
X182570408Y-54483450D01*
X182259220Y-54329433D01*
X182007164Y-54184150D01*
X181889243Y-54088102D01*
X181745113Y-54008692D01*
X181603568Y-53990613D01*
X181345953Y-53920679D01*
X181185810Y-53816553D01*
X180954741Y-53696217D01*
X180633091Y-53623788D01*
X180571716Y-53618696D01*
X180254638Y-53561823D01*
X180011538Y-53451931D01*
X179981275Y-53426218D01*
X179737768Y-53254542D01*
X179573100Y-53182800D01*
X179355204Y-53080322D01*
X179263426Y-52998704D01*
X179119721Y-52917315D01*
X178854422Y-52855817D01*
X178791368Y-52848117D01*
X178440369Y-52780713D01*
X178131839Y-52672789D01*
X178114488Y-52664084D01*
X177549848Y-52392410D01*
X177065423Y-52201312D01*
X176806404Y-52128347D01*
X176528472Y-52024948D01*
X176360456Y-51909360D01*
X176123190Y-51775055D01*
X175976114Y-51749436D01*
X175767654Y-51682110D01*
X175690266Y-51589352D01*
X175530990Y-51468035D01*
X175203516Y-51429268D01*
X174769140Y-51355571D01*
X174506845Y-51215823D01*
X174166714Y-51051328D01*
X173839535Y-51002378D01*
X173440449Y-50925996D01*
X173250412Y-50788932D01*
X173052946Y-50628181D01*
X172906080Y-50575487D01*
X172710930Y-50505263D01*
X172594830Y-50415403D01*
X172377324Y-50299789D01*
X172095520Y-50251925D01*
X171784558Y-50200365D01*
X171549132Y-50091841D01*
X171290697Y-49976799D01*
X171012584Y-49935151D01*
X170688597Y-49879232D01*
X170441664Y-49765973D01*
X170197865Y-49664333D01*
X169840225Y-49590487D01*
X169614980Y-49569483D01*
X169188753Y-49516461D01*
X168931962Y-49409822D01*
X168898945Y-49377020D01*
X168713819Y-49252944D01*
X168419332Y-49152794D01*
X168341413Y-49136824D01*
X168056438Y-49065531D01*
X167872624Y-48980492D01*
X167850326Y-48957511D01*
X167713062Y-48882710D01*
X167443725Y-48817519D01*
X167316468Y-48799424D01*
X166986918Y-48732461D01*
X166730400Y-48630067D01*
X166678563Y-48593318D01*
X166471137Y-48498855D01*
X166154142Y-48445483D01*
X166035293Y-48441033D01*
X165690342Y-48407546D01*
X165405458Y-48323880D01*
X165344670Y-48289853D01*
X165120907Y-48194945D01*
X164773915Y-48111037D01*
X164508118Y-48071645D01*
X164142558Y-48009381D01*
X163851199Y-47919134D01*
X163732084Y-47849296D01*
X163510981Y-47745320D01*
X163139489Y-47694489D01*
X163024092Y-47691601D01*
X162546577Y-47641461D01*
X162213826Y-47487627D01*
X162204614Y-47480529D01*
X161869623Y-47321348D01*
X161390581Y-47269457D01*
X160971294Y-47231310D01*
X160727753Y-47125257D01*
X160710496Y-47106999D01*
X160492842Y-46992739D01*
X160105076Y-46947342D01*
X160056048Y-46946915D01*
X159676205Y-46917073D01*
X159436167Y-46814015D01*
X159351700Y-46733470D01*
X159221659Y-46621387D01*
X159033951Y-46556185D01*
X158734176Y-46526300D01*
X158347772Y-46520025D01*
X157867867Y-46503563D01*
X157575274Y-46455475D01*
X157485013Y-46395255D01*
X157357841Y-46325456D01*
X157042867Y-46267622D01*
X156565604Y-46226189D01*
X156488934Y-46222034D01*
X156022098Y-46183705D01*
X155606044Y-46123590D01*
X155309788Y-46052541D01*
X155246258Y-46026635D01*
X154964406Y-45944879D01*
X154528416Y-45893670D01*
X154098989Y-45879689D01*
X153644590Y-45870891D01*
X153348481Y-45837241D01*
X153155967Y-45767853D01*
X153026463Y-45666243D01*
X152905817Y-45569992D01*
X152744960Y-45507552D01*
X152499020Y-45471899D01*
X152123124Y-45456010D01*
X151662786Y-45452798D01*
X151142909Y-45448610D01*
X150792698Y-45431381D01*
X150568461Y-45394115D01*
X150426505Y-45329816D01*
X150329797Y-45239352D01*
X150238991Y-45153569D01*
X150113992Y-45094298D01*
X149917402Y-45056723D01*
X149611818Y-45036023D01*
X149159841Y-45027379D01*
X148673221Y-45025907D01*
X147994076Y-45018157D01*
X147510865Y-44993968D01*
X147206608Y-44951929D01*
X147066136Y-44892504D01*
X146940443Y-44840486D01*
X146668155Y-44799811D01*
X146232358Y-44769271D01*
X145616141Y-44747658D01*
X144851264Y-44734330D01*
X144089518Y-44721866D01*
X143516019Y-44703728D01*
X143105601Y-44677948D01*
X142833096Y-44642554D01*
X142673339Y-44595579D01*
X142619798Y-44559699D01*
X142455064Y-44502025D01*
X142091503Y-44450215D01*
X141543663Y-44404675D01*
X140826091Y-44365811D01*
X139953335Y-44334028D01*
X138939945Y-44309731D01*
X137800467Y-44293327D01*
X136549450Y-44285221D01*
X135201442Y-44285818D01*
X133770991Y-44295526D01*
X133319884Y-44300369D01*
X132280611Y-44313400D01*
X131434280Y-44326592D01*
X130760389Y-44341026D01*
X130238438Y-44357783D01*
X129847925Y-44377944D01*
X129568349Y-44402591D01*
X129379208Y-44432803D01*
X129260002Y-44469662D01*
X129190228Y-44514250D01*
X129186000Y-44518350D01*
X129094540Y-44580420D01*
X128942187Y-44626432D01*
X128699172Y-44658907D01*
X128335725Y-44680363D01*
X127822077Y-44693319D01*
X127128456Y-44700292D01*
X127028727Y-44700863D01*
X126264789Y-44709195D01*
X125686005Y-44726247D01*
X125264185Y-44754084D01*
X124971141Y-44794774D01*
X124778685Y-44850383D01*
X124739329Y-44868730D01*
X124529216Y-44940327D01*
X124203848Y-44988495D01*
X123731919Y-45016049D01*
X123082128Y-45025800D01*
X122990230Y-45025907D01*
X122405062Y-45028245D01*
X121996733Y-45038559D01*
X121728660Y-45061794D01*
X121564258Y-45102898D01*
X121466944Y-45166818D01*
X121411779Y-45239352D01*
X121330908Y-45335930D01*
X121204899Y-45398252D01*
X120991062Y-45433629D01*
X120646707Y-45449372D01*
X120165287Y-45452798D01*
X119590700Y-45463051D01*
X119199431Y-45496100D01*
X118962230Y-45555378D01*
X118883605Y-45603235D01*
X118666436Y-45693875D01*
X118251888Y-45761486D01*
X117727786Y-45800273D01*
X117117243Y-45848691D01*
X116716806Y-45926327D01*
X116553836Y-46004478D01*
X116307705Y-46106719D01*
X115861180Y-46171400D01*
X115513437Y-46191026D01*
X114784715Y-46260304D01*
X114232462Y-46414824D01*
X114187244Y-46434609D01*
X113743787Y-46582568D01*
X113303589Y-46594235D01*
X113226740Y-46585267D01*
X112850629Y-46567654D01*
X112564882Y-46647960D01*
X112418479Y-46733398D01*
X111992005Y-46904689D01*
X111600272Y-46946212D01*
X111298828Y-46966707D01*
X111102530Y-47017866D01*
X111066659Y-47049945D01*
X110949915Y-47115185D01*
X110682782Y-47180218D01*
X110390748Y-47222693D01*
X109976761Y-47294890D01*
X109693433Y-47399862D01*
X109616069Y-47461515D01*
X109401275Y-47582597D01*
X108982952Y-47658641D01*
X108780645Y-47675258D01*
X108323158Y-47727681D01*
X108070787Y-47813119D01*
X108023107Y-47867021D01*
X107869377Y-47971173D01*
X107511514Y-48015790D01*
X107417776Y-48017536D01*
X107059201Y-48048066D01*
X106765728Y-48121912D01*
X106670200Y-48171432D01*
X106454337Y-48269340D01*
X106116498Y-48357121D01*
X105881308Y-48395674D01*
X105493072Y-48464197D01*
X105150637Y-48558123D01*
X105012781Y-48614650D01*
X104742243Y-48722742D01*
X104542381Y-48760544D01*
X104312393Y-48808780D01*
X104046651Y-48918233D01*
X103733280Y-49040714D01*
X103362615Y-49135383D01*
X103311481Y-49144264D01*
X103026667Y-49220996D01*
X102845354Y-49327755D01*
X102823375Y-49360762D01*
X102675936Y-49463011D01*
X102330256Y-49508077D01*
X102203131Y-49510633D01*
X101730730Y-49556930D01*
X101401597Y-49700109D01*
X101372681Y-49721705D01*
X101074875Y-49870676D01*
X100732965Y-49936162D01*
X100732345Y-49936172D01*
X100413790Y-49984580D01*
X100158411Y-50093656D01*
X100151653Y-50098629D01*
X99884558Y-50219646D01*
X99652343Y-50255319D01*
X99373520Y-50311829D01*
X99200112Y-50415403D01*
X98967574Y-50549552D01*
X98824263Y-50575487D01*
X98602087Y-50650971D01*
X98514586Y-50743297D01*
X98355057Y-50861532D01*
X98066384Y-50954170D01*
X97949334Y-50974326D01*
X97570667Y-51061057D01*
X97222809Y-51196826D01*
X97157480Y-51233009D01*
X96864688Y-51368969D01*
X96597755Y-51428745D01*
X96589218Y-51428869D01*
X96321073Y-51496144D01*
X96181385Y-51589352D01*
X95946712Y-51720374D01*
X95778658Y-51749436D01*
X95523716Y-51825914D01*
X95342849Y-51962882D01*
X95039431Y-52140907D01*
X94750752Y-52176327D01*
X94431631Y-52220564D01*
X94290390Y-52336411D01*
X94144553Y-52472636D01*
X94032563Y-52496495D01*
X93793179Y-52559023D01*
X93629003Y-52653185D01*
X93379691Y-52762739D01*
X93060340Y-52813015D01*
X93045349Y-52813269D01*
X92669675Y-52892592D01*
X92486099Y-53030109D01*
X92265089Y-53194221D01*
X92081229Y-53243554D01*
X91821583Y-53316825D01*
X91699032Y-53403638D01*
X91475136Y-53524454D01*
X91240795Y-53563722D01*
X90940129Y-53630366D01*
X90671291Y-53777168D01*
X90390098Y-53931105D01*
X90123285Y-53990613D01*
X89918011Y-54022954D01*
X89846631Y-54088211D01*
X89761120Y-54191423D01*
X89542257Y-54349111D01*
X89366379Y-54454228D01*
X88886126Y-54722646D01*
X88886126Y-52915873D01*
X88889144Y-52235889D01*
X88899628Y-51742916D01*
X88919724Y-51410584D01*
X88951577Y-51212526D01*
X88997333Y-51122372D01*
X89033143Y-51109100D01*
X89220177Y-51033809D01*
X89313017Y-50949016D01*
X89516505Y-50812353D01*
X89633185Y-50788932D01*
X89856976Y-50711956D01*
X89953353Y-50628848D01*
X90161173Y-50500191D01*
X90334647Y-50468764D01*
X90568518Y-50402891D01*
X90676994Y-50300954D01*
X90837745Y-50182189D01*
X91129204Y-50090689D01*
X91242592Y-50071842D01*
X91548715Y-50004086D01*
X91760586Y-49906218D01*
X91799623Y-49866122D01*
X91964595Y-49751198D01*
X92129931Y-49721705D01*
X92386793Y-49645150D01*
X92568059Y-49508260D01*
X92871064Y-49330319D01*
X93158507Y-49294815D01*
X93463368Y-49253096D01*
X93674979Y-49149329D01*
X93688647Y-49134731D01*
X93880136Y-48998631D01*
X93986799Y-48974647D01*
X94194324Y-48907062D01*
X94335708Y-48808477D01*
X94556757Y-48693018D01*
X94878259Y-48612309D01*
X94969320Y-48601117D01*
X95298643Y-48536458D01*
X95558601Y-48426874D01*
X95602931Y-48393757D01*
X95822227Y-48259928D01*
X95961153Y-48227588D01*
X96146101Y-48142380D01*
X96249992Y-48014142D01*
X96388442Y-47868855D01*
X96637827Y-47807411D01*
X96827654Y-47800697D01*
X97157589Y-47766968D01*
X97383570Y-47680283D01*
X97414313Y-47652215D01*
X97590534Y-47545978D01*
X97886586Y-47455717D01*
X98011868Y-47432603D01*
X98312017Y-47368819D01*
X98512767Y-47291402D01*
X98548341Y-47260917D01*
X98695799Y-47175473D01*
X98810012Y-47160361D01*
X99050097Y-47088032D01*
X99166668Y-47003229D01*
X99366926Y-46889011D01*
X99677272Y-46793795D01*
X99787946Y-46772776D01*
X100119061Y-46680893D01*
X100355908Y-46542807D01*
X100391548Y-46503017D01*
X100615235Y-46349395D01*
X100955191Y-46306579D01*
X101292964Y-46264077D01*
X101440810Y-46146495D01*
X101546290Y-46049165D01*
X101792946Y-45998755D01*
X102146073Y-45986411D01*
X102574336Y-45964069D01*
X102827729Y-45892097D01*
X102910544Y-45821430D01*
X103086486Y-45709399D01*
X103380719Y-45628664D01*
X103490627Y-45614393D01*
X103804638Y-45566030D01*
X104034021Y-45495963D01*
X104075452Y-45471530D01*
X104260313Y-45381934D01*
X104543471Y-45298207D01*
X104574362Y-45291401D01*
X104893248Y-45194961D01*
X105150832Y-45070789D01*
X105158402Y-45065632D01*
X105387055Y-44979266D01*
X105727800Y-44926666D01*
X105908424Y-44919184D01*
X106303815Y-44888722D01*
X106548041Y-44787186D01*
X106616157Y-44722714D01*
X106803399Y-44593807D01*
X107118685Y-44524819D01*
X107409008Y-44505833D01*
X107824670Y-44464628D01*
X108123852Y-44380169D01*
X108206730Y-44328774D01*
X108439816Y-44224790D01*
X108816032Y-44174589D01*
X108930810Y-44172126D01*
X109289315Y-44152634D01*
X109500487Y-44080924D01*
X109615096Y-43958680D01*
X109739004Y-43830532D01*
X109944753Y-43765380D01*
X110293591Y-43745435D01*
X110349991Y-43745235D01*
X110801207Y-43712474D01*
X111056322Y-43613143D01*
X111084446Y-43585151D01*
X111286770Y-43476474D01*
X111672464Y-43428296D01*
X111847922Y-43425067D01*
X112242390Y-43407353D01*
X112463113Y-43348475D01*
X112539970Y-43264983D01*
X112628748Y-43177265D01*
X112837557Y-43126829D01*
X113205362Y-43106350D01*
X113391446Y-43104899D01*
X113822593Y-43095191D01*
X114096627Y-43057911D01*
X114269329Y-42980818D01*
X114364250Y-42891453D01*
X114475687Y-42791004D01*
X114632683Y-42727672D01*
X114881968Y-42693276D01*
X115270271Y-42679635D01*
X115583325Y-42678008D01*
X116064516Y-42674215D01*
X116374164Y-42657444D01*
X116554119Y-42619604D01*
X116646228Y-42552605D01*
X116687387Y-42464562D01*
X116739236Y-42363249D01*
X116845313Y-42299791D01*
X117048735Y-42265263D01*
X117392618Y-42250744D01*
X117735125Y-42247723D01*
X118299468Y-42231035D01*
X118679990Y-42183079D01*
X118904531Y-42100101D01*
X118922281Y-42087639D01*
X119116642Y-42003720D01*
X119450965Y-41953209D01*
X119956469Y-41932129D01*
X120152526Y-41930949D01*
X120760188Y-41914426D01*
X121169817Y-41863828D01*
X121386119Y-41783625D01*
X121579021Y-41712359D01*
X121939249Y-41657803D01*
X122482946Y-41618172D01*
X123090748Y-41595179D01*
X123725457Y-41572672D01*
X124183389Y-41542483D01*
X124501189Y-41499898D01*
X124715505Y-41440201D01*
X124848738Y-41368973D01*
X124967020Y-41303477D01*
X125129078Y-41255208D01*
X125366289Y-41221658D01*
X125710031Y-41200316D01*
X126191680Y-41188674D01*
X126842612Y-41184221D01*
X127162765Y-41183890D01*
X127872661Y-41182843D01*
X128398126Y-41177752D01*
X128768169Y-41165693D01*
X129011800Y-41143743D01*
X129158032Y-41108979D01*
X129235873Y-41058475D01*
X129274335Y-40989309D01*
X129280664Y-40970445D01*
X129298905Y-40926328D01*
X129334115Y-40888750D01*
X129402310Y-40857187D01*
X129519505Y-40831115D01*
X129701716Y-40810009D01*
X129964959Y-40793344D01*
X130325250Y-40780597D01*
X130798605Y-40771242D01*
X131401040Y-40764756D01*
X132148570Y-40760613D01*
X133057212Y-40758290D01*
X134142981Y-40757262D01*
X135421894Y-40757005D01*
X135798985Y-40756999D01*
X137132832Y-40757162D01*
G37*
%TO.C,D43*%
X237807500Y-36271200D02*
X235267500Y-36271200D01*
X235216700Y-36271200D02*
G75*
G03*
X237859021Y-36271805I1320800J-1574800D01*
G01*
D13*
%TO.C,SW42*%
X227975000Y-86875000D02*
X227675000Y-87175000D01*
X231775000Y-79875000D02*
X231775000Y-78875000D01*
X235275000Y-73275000D02*
X237675000Y-73275000D01*
X237675000Y-73275000D02*
X237675000Y-77375000D01*
X227675000Y-86575000D02*
X227975000Y-86875000D01*
X225875000Y-85475000D02*
X237675000Y-85475000D01*
X225875000Y-81375000D02*
X225875000Y-85475000D01*
X230475000Y-73275000D02*
X233075000Y-73275000D01*
X231275000Y-79375000D02*
X232275000Y-79375000D01*
X227675000Y-87175000D02*
X227675000Y-86575000D01*
X237675000Y-81375000D02*
X237675000Y-85475000D01*
X225875000Y-77375000D02*
X225875000Y-73275000D01*
X225875000Y-73275000D02*
X228275000Y-73275000D01*
X234775000Y-79375000D02*
G75*
G03*
X234775000Y-79375000I-3000000J0D01*
G01*
%TO.C,G\u002A\u002A\u002A*%
G36*
X103932726Y-80796839D02*
G01*
X104857281Y-80889689D01*
X105700912Y-81020380D01*
X106363223Y-81182419D01*
X106581095Y-81266514D01*
X107716649Y-81998136D01*
X108532953Y-82938746D01*
X109008979Y-84023505D01*
X109123700Y-85187573D01*
X108856092Y-86366110D01*
X108472933Y-87100373D01*
X107825478Y-87798088D01*
X106910176Y-88419677D01*
X105885912Y-88877325D01*
X104911571Y-89083222D01*
X104882557Y-89084691D01*
X103974580Y-89125185D01*
X103909524Y-88111320D01*
X103890577Y-87496586D01*
X103964750Y-87196518D01*
X104172944Y-87102098D01*
X104289909Y-87097454D01*
X105122238Y-86938900D01*
X105871380Y-86520527D01*
X106449835Y-85928271D01*
X106770102Y-85248066D01*
X106772552Y-84659204D01*
X106370461Y-83872657D01*
X105663414Y-83258040D01*
X104763030Y-82893991D01*
X104174130Y-82828547D01*
X103927934Y-82845923D01*
X103774303Y-82952797D01*
X103690369Y-83231288D01*
X103653263Y-83763513D01*
X103640119Y-84631590D01*
X103639166Y-84749555D01*
X103627068Y-86147233D01*
X103614793Y-87179482D01*
X103600252Y-87907759D01*
X103581357Y-88393521D01*
X103556019Y-88698224D01*
X103522150Y-88883327D01*
X103495905Y-88965101D01*
X103248927Y-89107413D01*
X102738821Y-89202288D01*
X102127687Y-89239974D01*
X101577621Y-89210719D01*
X101250721Y-89104769D01*
X101246212Y-89100459D01*
X101213284Y-88859139D01*
X101196611Y-88272986D01*
X101194324Y-87423672D01*
X101204551Y-86392869D01*
X101225423Y-85262250D01*
X101255069Y-84113487D01*
X101291620Y-83028253D01*
X101333206Y-82088219D01*
X101377955Y-81375059D01*
X101423998Y-80970445D01*
X101433218Y-80933669D01*
X101677494Y-80810244D01*
X102242435Y-80750625D01*
X103027645Y-80748320D01*
X103932726Y-80796839D01*
G37*
G36*
X162554625Y-83608057D02*
G01*
X162583014Y-83522558D01*
X163454474Y-80907538D01*
X166407353Y-80907538D01*
X166407353Y-83468883D01*
X166424442Y-84593211D01*
X166472997Y-85425064D01*
X166548951Y-85915630D01*
X166620799Y-86030227D01*
X166770665Y-86215705D01*
X166834227Y-86662597D01*
X166834244Y-86670564D01*
X166772418Y-87120164D01*
X166623454Y-87310850D01*
X166620799Y-87310900D01*
X166479718Y-87498535D01*
X166409197Y-87959917D01*
X166407353Y-88057958D01*
X166407353Y-88805017D01*
X164059454Y-88805017D01*
X164059454Y-87310900D01*
X162885504Y-87310900D01*
X162214047Y-87298706D01*
X161864514Y-87227172D01*
X161731994Y-87043873D01*
X161711555Y-86724239D01*
X161777711Y-86302110D01*
X161958227Y-85576081D01*
X161992376Y-85457427D01*
X163677292Y-85457427D01*
X163693292Y-85905124D01*
X163846009Y-86030227D01*
X163971836Y-85840395D01*
X164036184Y-85362913D01*
X164038178Y-85123085D01*
X164014515Y-84600529D01*
X163964499Y-84466184D01*
X163868255Y-84681421D01*
X163846009Y-84749555D01*
X163677292Y-85457427D01*
X161992376Y-85457427D01*
X162226174Y-84645086D01*
X162554625Y-83608057D01*
G37*
G36*
X116412840Y-80717828D02*
G01*
X117361552Y-80789574D01*
X118157373Y-80905391D01*
X119474184Y-81325959D01*
X120546737Y-82008329D01*
X121340941Y-82895696D01*
X121822708Y-83931260D01*
X121957947Y-85058217D01*
X121712570Y-86219766D01*
X121557461Y-86570853D01*
X121128549Y-87270119D01*
X120621602Y-87881139D01*
X120398816Y-88080864D01*
X119889376Y-88373379D01*
X119179812Y-88665350D01*
X118395584Y-88919468D01*
X117662149Y-89098423D01*
X117104967Y-89164906D01*
X116887733Y-89125005D01*
X116756601Y-88847837D01*
X116681492Y-88309128D01*
X116674580Y-88072642D01*
X116695294Y-87494871D01*
X116832211Y-87207118D01*
X117197494Y-87072529D01*
X117542913Y-87013162D01*
X118424295Y-86701882D01*
X119131677Y-86131326D01*
X119544487Y-85401150D01*
X119559250Y-85346581D01*
X119551250Y-84580595D01*
X119198376Y-83863124D01*
X118581125Y-83278644D01*
X117779994Y-82911629D01*
X117160538Y-82829345D01*
X116472547Y-82828547D01*
X116413479Y-85976866D01*
X116354412Y-89125185D01*
X115359883Y-89189452D01*
X114743590Y-89185893D01*
X114321915Y-89103258D01*
X114234257Y-89041599D01*
X114192344Y-88769160D01*
X114155880Y-88141715D01*
X114127177Y-87231138D01*
X114108546Y-86109304D01*
X114102285Y-84938122D01*
X114109972Y-83453846D01*
X114135779Y-82351645D01*
X114182685Y-81586971D01*
X114253671Y-81115276D01*
X114351716Y-80892014D01*
X114374129Y-80873697D01*
X114795934Y-80758857D01*
X115516569Y-80707245D01*
X116412840Y-80717828D01*
G37*
G36*
X149147404Y-80860223D02*
G01*
X149459017Y-80949496D01*
X149478334Y-80972080D01*
X149525794Y-81249227D01*
X149570696Y-81867886D01*
X149611315Y-82742677D01*
X149645928Y-83788223D01*
X149672811Y-84919145D01*
X149690241Y-86050063D01*
X149696494Y-87095600D01*
X149689846Y-87970377D01*
X149668574Y-88589016D01*
X149637394Y-88850693D01*
X149455301Y-89094440D01*
X149041080Y-89209173D01*
X148490238Y-89231908D01*
X147867016Y-89210955D01*
X147546784Y-89105206D01*
X147406132Y-88850327D01*
X147364256Y-88644933D01*
X147340787Y-88282176D01*
X147325960Y-87581883D01*
X147319357Y-86633313D01*
X147320557Y-85525725D01*
X147329142Y-84348377D01*
X147344692Y-83190529D01*
X147366788Y-82141438D01*
X147395010Y-81290365D01*
X147399251Y-81195838D01*
X147593756Y-81042229D01*
X148055879Y-80923690D01*
X148626727Y-80857321D01*
X149147404Y-80860223D01*
G37*
G36*
X123453362Y-83576977D02*
G01*
X123598067Y-82802955D01*
X123835152Y-82239500D01*
X124192548Y-81814533D01*
X124698186Y-81455973D01*
X125216756Y-81174345D01*
X126393225Y-80785188D01*
X127582311Y-80768500D01*
X128697024Y-81101135D01*
X129650375Y-81759948D01*
X130241317Y-82511230D01*
X130457617Y-82904487D01*
X130603645Y-83273733D01*
X130690841Y-83709825D01*
X130730644Y-84303623D01*
X130734494Y-85145985D01*
X130714974Y-86273279D01*
X130655252Y-89125185D01*
X129546192Y-89189301D01*
X128437131Y-89253418D01*
X128307353Y-86990732D01*
X126973320Y-86927185D01*
X125639286Y-86863639D01*
X125639286Y-89231908D01*
X123260631Y-89231908D01*
X123329370Y-86045037D01*
X123362901Y-84963000D01*
X125639286Y-84963000D01*
X128433420Y-84963000D01*
X128292176Y-84162580D01*
X128047394Y-83358017D01*
X127630307Y-82908283D01*
X126987204Y-82758125D01*
X126926304Y-82757398D01*
X126244648Y-82936044D01*
X125807708Y-83447774D01*
X125646231Y-84256278D01*
X125646074Y-84269303D01*
X125639286Y-84963000D01*
X123362901Y-84963000D01*
X123373107Y-84633644D01*
X123453362Y-83576977D01*
G37*
G36*
X146556933Y-82828547D02*
G01*
X144635925Y-82828547D01*
X144635925Y-89231908D01*
X143604272Y-89231908D01*
X142971961Y-89204680D01*
X142531617Y-89135511D01*
X142430322Y-89089611D01*
X142379402Y-88835821D01*
X142336544Y-88235561D01*
X142305333Y-87369228D01*
X142289357Y-86317219D01*
X142288025Y-85899625D01*
X142288025Y-82851937D01*
X141274160Y-82786880D01*
X140260294Y-82721824D01*
X140260294Y-80800816D01*
X143408614Y-80734638D01*
X146556933Y-80668460D01*
X146556933Y-82828547D01*
G37*
G36*
X137645588Y-80949745D02*
G01*
X138766177Y-81014261D01*
X138830057Y-82116529D01*
X138788910Y-83099265D01*
X138581050Y-83965743D01*
X138560253Y-84017418D01*
X138362467Y-84551323D01*
X138355701Y-84876247D01*
X138546156Y-85168016D01*
X138603095Y-85231945D01*
X138815538Y-85597775D01*
X138954602Y-86189663D01*
X139038042Y-87094384D01*
X139054886Y-87439879D01*
X139130151Y-89231908D01*
X136738446Y-89231908D01*
X136738446Y-87885309D01*
X136683003Y-86893220D01*
X136487697Y-86250474D01*
X136109058Y-85890548D01*
X135503619Y-85746920D01*
X135335125Y-85737725D01*
X134497269Y-85710059D01*
X134572520Y-87470984D01*
X134647771Y-89231908D01*
X132323112Y-89231908D01*
X132190684Y-85250158D01*
X132154624Y-83984668D01*
X132134169Y-82865540D01*
X132129671Y-81962909D01*
X132141482Y-81346911D01*
X132169771Y-81087973D01*
X132430795Y-80983042D01*
X132970371Y-80917972D01*
X133326164Y-80907538D01*
X134371042Y-80907538D01*
X134434155Y-82348295D01*
X134497269Y-83789051D01*
X135170462Y-83854407D01*
X135834409Y-83746517D01*
X136278018Y-83275028D01*
X136498849Y-82443432D01*
X136525000Y-81916118D01*
X136525000Y-80885229D01*
X137645588Y-80949745D01*
G37*
G36*
X151790800Y-80874861D02*
G01*
X151977209Y-80897278D01*
X152853572Y-81014261D01*
X152919024Y-82289809D01*
X152988997Y-82992729D01*
X153103530Y-83511643D01*
X153209459Y-83704404D01*
X153632803Y-83780068D01*
X154049593Y-83617698D01*
X154256764Y-83298743D01*
X154257818Y-83283904D01*
X154310999Y-83092981D01*
X154382771Y-83203406D01*
X154555398Y-83424097D01*
X154713704Y-83278569D01*
X154831106Y-82827320D01*
X154881021Y-82130844D01*
X154881303Y-82068891D01*
X154881303Y-80907538D01*
X157229202Y-80907538D01*
X157227887Y-82241572D01*
X157181434Y-83049658D01*
X157062621Y-83760808D01*
X156939672Y-84125390D01*
X156769432Y-84574299D01*
X156877396Y-84934029D01*
X157047709Y-85162901D01*
X157254599Y-85512740D01*
X157376954Y-86002415D01*
X157433038Y-86737805D01*
X157442647Y-87452423D01*
X157442647Y-89254217D01*
X156339538Y-89189701D01*
X155236428Y-89125185D01*
X155218950Y-87717087D01*
X155155898Y-86728858D01*
X154966052Y-86092853D01*
X154604187Y-85742268D01*
X154025077Y-85610304D01*
X153787941Y-85603337D01*
X152960294Y-85603337D01*
X152960294Y-89231908D01*
X152053151Y-89215057D01*
X151423468Y-89180400D01*
X150959464Y-89114480D01*
X150879202Y-89090547D01*
X150784340Y-88849516D01*
X150708360Y-88264575D01*
X150651484Y-87416783D01*
X150613936Y-86387198D01*
X150595937Y-85256879D01*
X150597709Y-84106885D01*
X150619476Y-83018273D01*
X150661460Y-82072103D01*
X150723883Y-81349432D01*
X150806968Y-80931320D01*
X150856620Y-80861704D01*
X151210365Y-80836764D01*
X151790800Y-80874861D01*
G37*
G36*
X167885052Y-81318010D02*
G01*
X168397075Y-80901729D01*
X168952015Y-80723017D01*
X169496492Y-80694093D01*
X170603549Y-80835250D01*
X171415026Y-81249323D01*
X171904615Y-81922216D01*
X171933792Y-82000131D01*
X172032229Y-82494737D01*
X172110626Y-83292539D01*
X172159256Y-84269969D01*
X172170378Y-85005451D01*
X172131459Y-86428787D01*
X171992853Y-87481809D01*
X171721786Y-88215819D01*
X171285485Y-88682116D01*
X170651176Y-88932003D01*
X169786085Y-89016778D01*
X169606647Y-89018463D01*
X168878310Y-88976266D01*
X168380331Y-88803259D01*
X167920587Y-88429813D01*
X167885052Y-88394545D01*
X167261135Y-87770628D01*
X167261135Y-84856278D01*
X169395588Y-84856278D01*
X169410866Y-86073288D01*
X169454627Y-86987017D01*
X169523769Y-87555556D01*
X169609034Y-87737790D01*
X169699183Y-87531549D01*
X169766866Y-86940765D01*
X169808980Y-86007346D01*
X169822479Y-84856278D01*
X169807202Y-83639267D01*
X169763440Y-82725539D01*
X169694298Y-82157000D01*
X169609034Y-81974765D01*
X169518885Y-82181006D01*
X169451201Y-82771790D01*
X169409087Y-83705210D01*
X169395588Y-84856278D01*
X167261135Y-84856278D01*
X167261135Y-81941927D01*
X167885052Y-81318010D01*
G37*
G36*
X111845049Y-80737549D02*
G01*
X112288170Y-80819787D01*
X112395163Y-80890533D01*
X112432308Y-81157638D01*
X112457821Y-81764103D01*
X112472458Y-82627409D01*
X112476972Y-83665043D01*
X112472120Y-84794485D01*
X112458655Y-85933221D01*
X112437334Y-86998734D01*
X112408911Y-87908506D01*
X112374141Y-88580022D01*
X112333779Y-88930765D01*
X112321326Y-88960512D01*
X111994457Y-89071996D01*
X111437488Y-89105158D01*
X110841261Y-89052671D01*
X110698109Y-89022817D01*
X110164496Y-88892494D01*
X110164496Y-80800816D01*
X111211072Y-80734423D01*
X111845049Y-80737549D01*
G37*
D11*
%TO.C,SW_Reset1*%
X239137500Y-58162500D02*
X233937500Y-58162500D01*
X233937500Y-58162500D02*
X233937500Y-52962500D01*
X239137500Y-52962500D02*
X239137500Y-58162500D01*
X233937500Y-52962500D02*
X239137500Y-52962500D01*
X237537500Y-55562500D02*
G75*
G03*
X237537500Y-55562500I-1000000J0D01*
G01*
D13*
%TO.C,SW41*%
X35375000Y-35175000D02*
X37775000Y-35175000D01*
X35375000Y-43275000D02*
X35375000Y-47375000D01*
X44775000Y-35175000D02*
X47175000Y-35175000D01*
X35375000Y-47375000D02*
X47175000Y-47375000D01*
X35375000Y-39275000D02*
X35375000Y-35175000D01*
X41275000Y-41775000D02*
X41275000Y-40775000D01*
X47175000Y-43275000D02*
X47175000Y-47375000D01*
X40775000Y-41275000D02*
X41775000Y-41275000D01*
X39975000Y-35175000D02*
X42575000Y-35175000D01*
X37175000Y-49075000D02*
X37175000Y-48475000D01*
X37475000Y-48775000D02*
X37175000Y-49075000D01*
X37175000Y-48475000D02*
X37475000Y-48775000D01*
X47175000Y-35175000D02*
X47175000Y-39275000D01*
X44275000Y-41275000D02*
G75*
G03*
X44275000Y-41275000I-3000000J0D01*
G01*
%TD*%
D14*
%TO.C,D42*%
X236537500Y-45720000D03*
D15*
X236537500Y-43180000D03*
%TD*%
D16*
%TO.C,R5*%
X37248000Y-85344000D03*
D17*
X45048000Y-85344000D03*
%TD*%
D14*
%TO.C,D43*%
X236537500Y-39370000D03*
D15*
X236537500Y-36830000D03*
%TD*%
M02*
