%TF.GenerationSoftware,KiCad,Pcbnew,(6.0.7)*%
%TF.CreationDate,2022-10-29T13:55:09+02:00*%
%TF.ProjectId,Didaktik,44696461-6b74-4696-9b2e-6b696361645f,rev?*%
%TF.SameCoordinates,Original*%
%TF.FileFunction,Paste,Bot*%
%TF.FilePolarity,Positive*%
%FSLAX46Y46*%
G04 Gerber Fmt 4.6, Leading zero omitted, Abs format (unit mm)*
G04 Created by KiCad (PCBNEW (6.0.7)) date 2022-10-29 13:55:09*
%MOMM*%
%LPD*%
G01*
G04 APERTURE LIST*
G04 Aperture macros list*
%AMRoundRect*
0 Rectangle with rounded corners*
0 $1 Rounding radius*
0 $2 $3 $4 $5 $6 $7 $8 $9 X,Y pos of 4 corners*
0 Add a 4 corners polygon primitive as box body*
4,1,4,$2,$3,$4,$5,$6,$7,$8,$9,$2,$3,0*
0 Add four circle primitives for the rounded corners*
1,1,$1+$1,$2,$3*
1,1,$1+$1,$4,$5*
1,1,$1+$1,$6,$7*
1,1,$1+$1,$8,$9*
0 Add four rect primitives between the rounded corners*
20,1,$1+$1,$2,$3,$4,$5,0*
20,1,$1+$1,$4,$5,$6,$7,0*
20,1,$1+$1,$6,$7,$8,$9,0*
20,1,$1+$1,$8,$9,$2,$3,0*%
%AMRotRect*
0 Rectangle, with rotation*
0 The origin of the aperture is its center*
0 $1 length*
0 $2 width*
0 $3 Rotation angle, in degrees counterclockwise*
0 Add horizontal line*
21,1,$1,$2,0,0,$3*%
G04 Aperture macros list end*
%ADD10R,0.900000X1.200000*%
%ADD11R,1.200000X1.800000*%
%ADD12R,0.600000X1.550000*%
%ADD13RoundRect,0.140000X0.170000X-0.140000X0.170000X0.140000X-0.170000X0.140000X-0.170000X-0.140000X0*%
%ADD14RoundRect,0.140000X0.021213X-0.219203X0.219203X-0.021213X-0.021213X0.219203X-0.219203X0.021213X0*%
%ADD15RoundRect,0.135000X0.135000X0.185000X-0.135000X0.185000X-0.135000X-0.185000X0.135000X-0.185000X0*%
%ADD16RotRect,1.400000X1.200000X45.000000*%
%ADD17RoundRect,0.250000X0.000000X0.388909X-0.388909X0.000000X0.000000X-0.388909X0.388909X0.000000X0*%
%ADD18RoundRect,0.062500X0.291682X0.380070X-0.380070X-0.291682X-0.291682X-0.380070X0.380070X0.291682X0*%
%ADD19RoundRect,0.062500X-0.291682X0.380070X-0.380070X0.291682X0.291682X-0.380070X0.380070X-0.291682X0*%
%ADD20R,0.700000X1.000000*%
%ADD21R,0.700000X0.600000*%
%ADD22RoundRect,0.140000X0.219203X0.021213X0.021213X0.219203X-0.219203X-0.021213X-0.021213X-0.219203X0*%
%ADD23RoundRect,0.135000X-0.185000X0.135000X-0.185000X-0.135000X0.185000X-0.135000X0.185000X0.135000X0*%
%ADD24RoundRect,0.135000X0.226274X0.035355X0.035355X0.226274X-0.226274X-0.035355X-0.035355X-0.226274X0*%
%ADD25RoundRect,0.135000X0.185000X-0.135000X0.185000X0.135000X-0.185000X0.135000X-0.185000X-0.135000X0*%
%ADD26RoundRect,0.250000X-0.625000X0.375000X-0.625000X-0.375000X0.625000X-0.375000X0.625000X0.375000X0*%
%ADD27RoundRect,0.140000X-0.219203X-0.021213X-0.021213X-0.219203X0.219203X0.021213X0.021213X0.219203X0*%
G04 APERTURE END LIST*
D10*
%TO.C,D29*%
X166750000Y-104775000D03*
X163450000Y-104775000D03*
%TD*%
D11*
%TO.C,J1*%
X230312500Y-39321000D03*
X224712500Y-39321000D03*
D12*
X226012500Y-43196000D03*
X227012500Y-43196000D03*
X228012500Y-43196000D03*
X229012500Y-43196000D03*
%TD*%
D10*
%TO.C,D6*%
X71500000Y-68262500D03*
X68200000Y-68262500D03*
%TD*%
D13*
%TO.C,C1*%
X41656000Y-72743000D03*
X41656000Y-71783000D03*
%TD*%
D10*
%TO.C,D14*%
X109600000Y-68262500D03*
X106300000Y-68262500D03*
%TD*%
%TO.C,D40*%
X233425000Y-87312500D03*
X230125000Y-87312500D03*
%TD*%
%TO.C,D8*%
X71500000Y-106362500D03*
X68200000Y-106362500D03*
%TD*%
%TO.C,D3*%
X61975000Y-85725000D03*
X58675000Y-85725000D03*
%TD*%
%TO.C,D36*%
X214375000Y-85725000D03*
X211075000Y-85725000D03*
%TD*%
%TO.C,D32*%
X195325000Y-87312500D03*
X192025000Y-87312500D03*
%TD*%
D14*
%TO.C,C4*%
X52683089Y-85656080D03*
X53361911Y-84977258D03*
%TD*%
D10*
%TO.C,D1*%
X42925000Y-47625000D03*
X39625000Y-47625000D03*
%TD*%
D15*
%TO.C,R4*%
X35435000Y-80264000D03*
X34415000Y-80264000D03*
%TD*%
D16*
%TO.C,Y1*%
X49294142Y-83048696D03*
X50849777Y-81493061D03*
X52051858Y-82695142D03*
X50496223Y-84250777D03*
%TD*%
D10*
%TO.C,D15*%
X119125000Y-87312500D03*
X115825000Y-87312500D03*
%TD*%
D17*
%TO.C,U1*%
X42956239Y-81340478D03*
X44794716Y-79502000D03*
X42037000Y-82259716D03*
X41117761Y-77663522D03*
X42956239Y-77663522D03*
X41117761Y-79502000D03*
X42037000Y-80421239D03*
X41117761Y-81340478D03*
X43875478Y-80421239D03*
X42956239Y-79502000D03*
X42037000Y-78582761D03*
X40198522Y-78582761D03*
X42037000Y-76744284D03*
X40198522Y-80421239D03*
X43875478Y-78582761D03*
X39279284Y-79502000D03*
D18*
X42629202Y-75374264D03*
X42982755Y-75727818D03*
X43336309Y-76081371D03*
X43689862Y-76434924D03*
X44043415Y-76788478D03*
X44396969Y-77142031D03*
X44750522Y-77495585D03*
X45104076Y-77849138D03*
X45457629Y-78202691D03*
X45811182Y-78556245D03*
X46164736Y-78909798D03*
D19*
X46164736Y-80094202D03*
X45811182Y-80447755D03*
X45457629Y-80801309D03*
X45104076Y-81154862D03*
X44750522Y-81508415D03*
X44396969Y-81861969D03*
X44043415Y-82215522D03*
X43689862Y-82569076D03*
X43336309Y-82922629D03*
X42982755Y-83276182D03*
X42629202Y-83629736D03*
D18*
X41444798Y-83629736D03*
X41091245Y-83276182D03*
X40737691Y-82922629D03*
X40384138Y-82569076D03*
X40030585Y-82215522D03*
X39677031Y-81861969D03*
X39323478Y-81508415D03*
X38969924Y-81154862D03*
X38616371Y-80801309D03*
X38262818Y-80447755D03*
X37909264Y-80094202D03*
D19*
X37909264Y-78909798D03*
X38262818Y-78556245D03*
X38616371Y-78202691D03*
X38969924Y-77849138D03*
X39323478Y-77495585D03*
X39677031Y-77142031D03*
X40030585Y-76788478D03*
X40384138Y-76434924D03*
X40737691Y-76081371D03*
X41091245Y-75727818D03*
X41444798Y-75374264D03*
%TD*%
D20*
%TO.C,D25*%
X226512500Y-48552000D03*
D21*
X226512500Y-46852000D03*
X228512500Y-46852000D03*
X228512500Y-48752000D03*
%TD*%
D10*
%TO.C,D34*%
X195325000Y-47625000D03*
X192025000Y-47625000D03*
%TD*%
%TO.C,D23*%
X157225000Y-87312500D03*
X153925000Y-87312500D03*
%TD*%
%TO.C,D21*%
X138175000Y-49212500D03*
X134875000Y-49212500D03*
%TD*%
%TO.C,D39*%
X223900000Y-68262500D03*
X220600000Y-68262500D03*
%TD*%
%TO.C,D30*%
X176275000Y-49212500D03*
X172975000Y-49212500D03*
%TD*%
%TO.C,D41*%
X228662500Y-106362500D03*
X225362500Y-106362500D03*
%TD*%
%TO.C,D20*%
X128650000Y-104775000D03*
X125350000Y-104775000D03*
%TD*%
%TO.C,D24*%
X147700000Y-106362500D03*
X144400000Y-106362500D03*
%TD*%
%TO.C,D26*%
X157225000Y-47625000D03*
X153925000Y-47625000D03*
%TD*%
%TO.C,D22*%
X147700000Y-68262500D03*
X144400000Y-68262500D03*
%TD*%
%TO.C,D13*%
X100075000Y-49212500D03*
X96775000Y-49212500D03*
%TD*%
D22*
%TO.C,C3*%
X48944911Y-85592580D03*
X48266089Y-84913758D03*
%TD*%
D10*
%TO.C,D7*%
X81025000Y-87312500D03*
X77725000Y-87312500D03*
%TD*%
%TO.C,D4*%
X47687500Y-104775000D03*
X44387500Y-104775000D03*
%TD*%
D23*
%TO.C,R2*%
X45212000Y-70991000D03*
X45212000Y-72011000D03*
%TD*%
D10*
%TO.C,D38*%
X214375000Y-49212500D03*
X211075000Y-49212500D03*
%TD*%
D24*
%TO.C,R3*%
X49509624Y-78338624D03*
X48788376Y-77617376D03*
%TD*%
D10*
%TO.C,D31*%
X185800000Y-68262500D03*
X182500000Y-68262500D03*
%TD*%
%TO.C,D2*%
X52450000Y-66675000D03*
X49150000Y-66675000D03*
%TD*%
%TO.C,D9*%
X81025000Y-47625000D03*
X77725000Y-47625000D03*
%TD*%
%TO.C,D12*%
X90550000Y-104775000D03*
X87250000Y-104775000D03*
%TD*%
%TO.C,D35*%
X204850000Y-66675000D03*
X201550000Y-66675000D03*
%TD*%
D25*
%TO.C,R9*%
X239769074Y-39512851D03*
X239769074Y-38492851D03*
%TD*%
D26*
%TO.C,F1*%
X231775000Y-47749000D03*
X231775000Y-50549000D03*
%TD*%
D10*
%TO.C,D33*%
X185800000Y-106362500D03*
X182500000Y-106362500D03*
%TD*%
%TO.C,D17*%
X119125000Y-47625000D03*
X115825000Y-47625000D03*
%TD*%
%TO.C,D27*%
X166750000Y-66675000D03*
X163450000Y-66675000D03*
%TD*%
%TO.C,D16*%
X109600000Y-106362500D03*
X106300000Y-106362500D03*
%TD*%
%TO.C,D28*%
X176275000Y-85725000D03*
X172975000Y-85725000D03*
%TD*%
%TO.C,D18*%
X128650000Y-66675000D03*
X125350000Y-66675000D03*
%TD*%
D25*
%TO.C,R8*%
X239712500Y-46547500D03*
X239712500Y-45527500D03*
%TD*%
D10*
%TO.C,D5*%
X61975000Y-49212500D03*
X58675000Y-49212500D03*
%TD*%
%TO.C,D19*%
X138175000Y-85725000D03*
X134875000Y-85725000D03*
%TD*%
D22*
%TO.C,C5*%
X36407411Y-77428411D03*
X35728589Y-76749589D03*
%TD*%
D10*
%TO.C,D10*%
X90550000Y-66675000D03*
X87250000Y-66675000D03*
%TD*%
D23*
%TO.C,R1*%
X44196000Y-70991000D03*
X44196000Y-72011000D03*
%TD*%
D22*
%TO.C,C7*%
X50377411Y-77428411D03*
X49698589Y-76749589D03*
%TD*%
D14*
%TO.C,C6*%
X45761589Y-75650411D03*
X46440411Y-74971589D03*
%TD*%
D10*
%TO.C,D37*%
X204850000Y-104775000D03*
X201550000Y-104775000D03*
%TD*%
D27*
%TO.C,C2*%
X39792589Y-85131589D03*
X40471411Y-85810411D03*
%TD*%
D13*
%TO.C,C8*%
X47371000Y-72743000D03*
X47371000Y-71783000D03*
%TD*%
D10*
%TO.C,D11*%
X100075000Y-85725000D03*
X96775000Y-85725000D03*
%TD*%
M02*
