%TF.GenerationSoftware,KiCad,Pcbnew,(6.0.7)*%
%TF.CreationDate,2022-10-29T13:55:09+02:00*%
%TF.ProjectId,Didaktik,44696461-6b74-4696-9b2e-6b696361645f,rev?*%
%TF.SameCoordinates,Original*%
%TF.FileFunction,Soldermask,Bot*%
%TF.FilePolarity,Negative*%
%FSLAX46Y46*%
G04 Gerber Fmt 4.6, Leading zero omitted, Abs format (unit mm)*
G04 Created by KiCad (PCBNEW (6.0.7)) date 2022-10-29 13:55:09*
%MOMM*%
%LPD*%
G01*
G04 APERTURE LIST*
G04 Aperture macros list*
%AMRoundRect*
0 Rectangle with rounded corners*
0 $1 Rounding radius*
0 $2 $3 $4 $5 $6 $7 $8 $9 X,Y pos of 4 corners*
0 Add a 4 corners polygon primitive as box body*
4,1,4,$2,$3,$4,$5,$6,$7,$8,$9,$2,$3,0*
0 Add four circle primitives for the rounded corners*
1,1,$1+$1,$2,$3*
1,1,$1+$1,$4,$5*
1,1,$1+$1,$6,$7*
1,1,$1+$1,$8,$9*
0 Add four rect primitives between the rounded corners*
20,1,$1+$1,$2,$3,$4,$5,0*
20,1,$1+$1,$4,$5,$6,$7,0*
20,1,$1+$1,$6,$7,$8,$9,0*
20,1,$1+$1,$8,$9,$2,$3,0*%
%AMHorizOval*
0 Thick line with rounded ends*
0 $1 width*
0 $2 $3 position (X,Y) of the first rounded end (center of the circle)*
0 $4 $5 position (X,Y) of the second rounded end (center of the circle)*
0 Add line between two ends*
20,1,$1,$2,$3,$4,$5,0*
0 Add two circle primitives to create the rounded ends*
1,1,$1,$2,$3*
1,1,$1,$4,$5*%
%AMRotRect*
0 Rectangle, with rotation*
0 The origin of the aperture is its center*
0 $1 length*
0 $2 width*
0 $3 Rotation angle, in degrees counterclockwise*
0 Add horizontal line*
21,1,$1,$2,0,0,$3*%
G04 Aperture macros list end*
%ADD10C,1.200000*%
%ADD11C,1.700000*%
%ADD12C,1.750000*%
%ADD13C,3.987800*%
%ADD14C,2.000000*%
%ADD15C,2.250000*%
%ADD16HorizOval,2.250000X0.019771X0.290016X-0.019771X-0.290016X0*%
%ADD17HorizOval,2.250000X0.654995X0.730004X-0.654995X-0.730004X0*%
%ADD18R,0.900000X1.200000*%
%ADD19R,1.200000X1.800000*%
%ADD20R,0.600000X1.550000*%
%ADD21RoundRect,0.140000X0.170000X-0.140000X0.170000X0.140000X-0.170000X0.140000X-0.170000X-0.140000X0*%
%ADD22RoundRect,0.140000X0.021213X-0.219203X0.219203X-0.021213X-0.021213X0.219203X-0.219203X0.021213X0*%
%ADD23RoundRect,0.135000X0.135000X0.185000X-0.135000X0.185000X-0.135000X-0.185000X0.135000X-0.185000X0*%
%ADD24RotRect,1.400000X1.200000X45.000000*%
%ADD25RoundRect,0.062500X0.291682X0.380070X-0.380070X-0.291682X-0.291682X-0.380070X0.380070X0.291682X0*%
%ADD26RoundRect,0.062500X-0.291682X0.380070X-0.380070X0.291682X0.291682X-0.380070X0.380070X-0.291682X0*%
%ADD27RotRect,5.200000X5.200000X225.000000*%
%ADD28R,0.700000X1.000000*%
%ADD29R,0.700000X0.600000*%
%ADD30R,1.700000X1.700000*%
%ADD31RoundRect,0.140000X0.219203X0.021213X0.021213X0.219203X-0.219203X-0.021213X-0.021213X-0.219203X0*%
%ADD32RoundRect,0.135000X-0.185000X0.135000X-0.185000X-0.135000X0.185000X-0.135000X0.185000X0.135000X0*%
%ADD33RoundRect,0.135000X0.226274X0.035355X0.035355X0.226274X-0.226274X-0.035355X-0.035355X-0.226274X0*%
%ADD34RoundRect,0.135000X0.185000X-0.135000X0.185000X0.135000X-0.185000X0.135000X-0.185000X-0.135000X0*%
%ADD35RoundRect,0.250000X-0.625000X0.375000X-0.625000X-0.375000X0.625000X-0.375000X0.625000X0.375000X0*%
%ADD36RoundRect,0.140000X-0.219203X-0.021213X-0.021213X-0.219203X0.219203X0.021213X0.021213X0.219203X0*%
G04 APERTURE END LIST*
D10*
%TO.C,SW3*%
X45580000Y-64525000D03*
D11*
X56300000Y-60325000D03*
D12*
X55880000Y-60325000D03*
X45720000Y-60325000D03*
D13*
X50800000Y-60325000D03*
D11*
X45300000Y-60325000D03*
D14*
X55800000Y-56525000D03*
D15*
X53340000Y-55245000D03*
D16*
X53319771Y-55534984D03*
D17*
X47644995Y-57054996D03*
D15*
X48300000Y-56325000D03*
D14*
X50800000Y-54425000D03*
%TD*%
D13*
%TO.C,SW20*%
X136525000Y-79375000D03*
D12*
X131445000Y-79375000D03*
D10*
X131305000Y-83575000D03*
D12*
X141605000Y-79375000D03*
D11*
X131025000Y-79375000D03*
X142025000Y-79375000D03*
D16*
X139044771Y-74584984D03*
D15*
X139065000Y-74295000D03*
D14*
X141525000Y-75575000D03*
X136525000Y-73475000D03*
D15*
X134025000Y-75375000D03*
D17*
X133369995Y-76104996D03*
%TD*%
D12*
%TO.C,SW10*%
X84455000Y-41275000D03*
D10*
X74155000Y-45475000D03*
D11*
X84875000Y-41275000D03*
D12*
X74295000Y-41275000D03*
D11*
X73875000Y-41275000D03*
D13*
X79375000Y-41275000D03*
D16*
X81894771Y-36484984D03*
D15*
X81915000Y-36195000D03*
D14*
X84375000Y-37475000D03*
X79375000Y-35375000D03*
D17*
X76219995Y-38004996D03*
D15*
X76875000Y-37275000D03*
%TD*%
D12*
%TO.C,SW9*%
X74930000Y-98425000D03*
D10*
X64630000Y-102625000D03*
D12*
X64770000Y-98425000D03*
D13*
X69850000Y-98425000D03*
D11*
X64350000Y-98425000D03*
X75350000Y-98425000D03*
D14*
X74850000Y-94625000D03*
D16*
X72369771Y-93634984D03*
D15*
X72390000Y-93345000D03*
D17*
X66694995Y-95154996D03*
D15*
X67350000Y-94425000D03*
D14*
X69850000Y-92525000D03*
%TD*%
D13*
%TO.C,SW12*%
X98425000Y-79375000D03*
D11*
X103925000Y-79375000D03*
X92925000Y-79375000D03*
D12*
X103505000Y-79375000D03*
D10*
X93205000Y-83575000D03*
D12*
X93345000Y-79375000D03*
D14*
X103425000Y-75575000D03*
D15*
X100965000Y-74295000D03*
D16*
X100944771Y-74584984D03*
D15*
X95925000Y-75375000D03*
D17*
X95269995Y-76104996D03*
D14*
X98425000Y-73475000D03*
%TD*%
D12*
%TO.C,SW31*%
X179070000Y-60325000D03*
D11*
X189650000Y-60325000D03*
D13*
X184150000Y-60325000D03*
D12*
X189230000Y-60325000D03*
D11*
X178650000Y-60325000D03*
D10*
X178930000Y-64525000D03*
D16*
X186669771Y-55534984D03*
D14*
X189150000Y-56525000D03*
D15*
X186690000Y-55245000D03*
D17*
X180994995Y-57054996D03*
D14*
X184150000Y-54425000D03*
D15*
X181650000Y-56325000D03*
%TD*%
D13*
%TO.C,SW23*%
X146050000Y-60325000D03*
D11*
X151550000Y-60325000D03*
D12*
X140970000Y-60325000D03*
D11*
X140550000Y-60325000D03*
D12*
X151130000Y-60325000D03*
D10*
X140830000Y-64525000D03*
D16*
X148569771Y-55534984D03*
D15*
X148590000Y-55245000D03*
D14*
X151050000Y-56525000D03*
D15*
X143550000Y-56325000D03*
D14*
X146050000Y-54425000D03*
D17*
X142894995Y-57054996D03*
%TD*%
D12*
%TO.C,SW5*%
X51117500Y-98425000D03*
D10*
X40817500Y-102625000D03*
D12*
X40957500Y-98425000D03*
D11*
X40537500Y-98425000D03*
D13*
X46037500Y-98425000D03*
D11*
X51537500Y-98425000D03*
D16*
X48557271Y-93634984D03*
D14*
X51037500Y-94625000D03*
D15*
X48577500Y-93345000D03*
D17*
X42882495Y-95154996D03*
D14*
X46037500Y-92525000D03*
D15*
X43537500Y-94425000D03*
%TD*%
D10*
%TO.C,SW40*%
X226555000Y-83575000D03*
D11*
X226275000Y-79375000D03*
D13*
X231775000Y-79375000D03*
D12*
X226695000Y-79375000D03*
X236855000Y-79375000D03*
D11*
X237275000Y-79375000D03*
D14*
X236775000Y-75575000D03*
D15*
X234315000Y-74295000D03*
D16*
X234294771Y-74584984D03*
D14*
X231775000Y-73475000D03*
D15*
X229275000Y-75375000D03*
D17*
X228619995Y-76104996D03*
%TD*%
D12*
%TO.C,SW34*%
X188595000Y-41275000D03*
D13*
X193675000Y-41275000D03*
D10*
X188455000Y-45475000D03*
D11*
X199175000Y-41275000D03*
X188175000Y-41275000D03*
D12*
X198755000Y-41275000D03*
D16*
X196194771Y-36484984D03*
D15*
X196215000Y-36195000D03*
D14*
X198675000Y-37475000D03*
D15*
X191175000Y-37275000D03*
D17*
X190519995Y-38004996D03*
D14*
X193675000Y-35375000D03*
%TD*%
D10*
%TO.C,SW19*%
X121780000Y-64525000D03*
D12*
X132080000Y-60325000D03*
D11*
X132500000Y-60325000D03*
D12*
X121920000Y-60325000D03*
D13*
X127000000Y-60325000D03*
D11*
X121500000Y-60325000D03*
D14*
X132000000Y-56525000D03*
D16*
X129519771Y-55534984D03*
D15*
X129540000Y-55245000D03*
D14*
X127000000Y-54425000D03*
D15*
X124500000Y-56325000D03*
D17*
X123844995Y-57054996D03*
%TD*%
D12*
%TO.C,SW27*%
X170180000Y-60325000D03*
D10*
X159880000Y-64525000D03*
D11*
X159600000Y-60325000D03*
D13*
X165100000Y-60325000D03*
D11*
X170600000Y-60325000D03*
D12*
X160020000Y-60325000D03*
D16*
X167619771Y-55534984D03*
D15*
X167640000Y-55245000D03*
D14*
X170100000Y-56525000D03*
D17*
X161944995Y-57054996D03*
D14*
X165100000Y-54425000D03*
D15*
X162600000Y-56325000D03*
%TD*%
D11*
%TO.C,SW38*%
X207225000Y-41275000D03*
D13*
X212725000Y-41275000D03*
D12*
X217805000Y-41275000D03*
D11*
X218225000Y-41275000D03*
D12*
X207645000Y-41275000D03*
D10*
X207505000Y-45475000D03*
D14*
X217725000Y-37475000D03*
D16*
X215244771Y-36484984D03*
D15*
X215265000Y-36195000D03*
D14*
X212725000Y-35375000D03*
D17*
X209569995Y-38004996D03*
D15*
X210225000Y-37275000D03*
%TD*%
D13*
%TO.C,SW15*%
X107950000Y-60325000D03*
D10*
X102730000Y-64525000D03*
D11*
X113450000Y-60325000D03*
X102450000Y-60325000D03*
D12*
X113030000Y-60325000D03*
X102870000Y-60325000D03*
D14*
X112950000Y-56525000D03*
D15*
X110490000Y-55245000D03*
D16*
X110469771Y-55534984D03*
D14*
X107950000Y-54425000D03*
D17*
X104794995Y-57054996D03*
D15*
X105450000Y-56325000D03*
%TD*%
D12*
%TO.C,SW32*%
X188595000Y-79375000D03*
D10*
X188455000Y-83575000D03*
D12*
X198755000Y-79375000D03*
D13*
X193675000Y-79375000D03*
D11*
X188175000Y-79375000D03*
X199175000Y-79375000D03*
D16*
X196194771Y-74584984D03*
D15*
X196215000Y-74295000D03*
D14*
X198675000Y-75575000D03*
X193675000Y-73475000D03*
D17*
X190519995Y-76104996D03*
D15*
X191175000Y-75375000D03*
%TD*%
D13*
%TO.C,SW21*%
X127000000Y-98425000D03*
D12*
X132080000Y-98425000D03*
X121920000Y-98425000D03*
D11*
X132500000Y-98425000D03*
D10*
X121780000Y-102625000D03*
D11*
X121500000Y-98425000D03*
D15*
X129540000Y-93345000D03*
D14*
X132000000Y-94625000D03*
D16*
X129519771Y-93634984D03*
D14*
X127000000Y-92525000D03*
D17*
X123844995Y-95154996D03*
D15*
X124500000Y-94425000D03*
%TD*%
D12*
%TO.C,SW7*%
X74930000Y-60325000D03*
X64770000Y-60325000D03*
D13*
X69850000Y-60325000D03*
D11*
X75350000Y-60325000D03*
D10*
X64630000Y-64525000D03*
D11*
X64350000Y-60325000D03*
D15*
X72390000Y-55245000D03*
D16*
X72369771Y-55534984D03*
D14*
X74850000Y-56525000D03*
D15*
X67350000Y-56325000D03*
D14*
X69850000Y-54425000D03*
D17*
X66694995Y-57054996D03*
%TD*%
D11*
%TO.C,SW11*%
X94400000Y-60325000D03*
D12*
X93980000Y-60325000D03*
D10*
X83680000Y-64525000D03*
D13*
X88900000Y-60325000D03*
D12*
X83820000Y-60325000D03*
D11*
X83400000Y-60325000D03*
D16*
X91419771Y-55534984D03*
D14*
X93900000Y-56525000D03*
D15*
X91440000Y-55245000D03*
D17*
X85744995Y-57054996D03*
D14*
X88900000Y-54425000D03*
D15*
X86400000Y-56325000D03*
%TD*%
D12*
%TO.C,SW14*%
X93345000Y-41275000D03*
D11*
X103925000Y-41275000D03*
D13*
X98425000Y-41275000D03*
D12*
X103505000Y-41275000D03*
D10*
X93205000Y-45475000D03*
D11*
X92925000Y-41275000D03*
D16*
X100944771Y-36484984D03*
D14*
X103425000Y-37475000D03*
D15*
X100965000Y-36195000D03*
D17*
X95269995Y-38004996D03*
D14*
X98425000Y-35375000D03*
D15*
X95925000Y-37275000D03*
%TD*%
D11*
%TO.C,SW41*%
X221512500Y-98425000D03*
D12*
X232092500Y-98425000D03*
D13*
X227012500Y-98425000D03*
D11*
X232512500Y-98425000D03*
D10*
X221792500Y-102625000D03*
D12*
X221932500Y-98425000D03*
D15*
X229552500Y-93345000D03*
D16*
X229532271Y-93634984D03*
D14*
X232012500Y-94625000D03*
D17*
X223857495Y-95154996D03*
D15*
X224512500Y-94425000D03*
D14*
X227012500Y-92525000D03*
%TD*%
D12*
%TO.C,SW30*%
X169545000Y-41275000D03*
X179705000Y-41275000D03*
D10*
X169405000Y-45475000D03*
D11*
X180125000Y-41275000D03*
D13*
X174625000Y-41275000D03*
D11*
X169125000Y-41275000D03*
D14*
X179625000Y-37475000D03*
D15*
X177165000Y-36195000D03*
D16*
X177144771Y-36484984D03*
D14*
X174625000Y-35375000D03*
D17*
X171469995Y-38004996D03*
D15*
X172125000Y-37275000D03*
%TD*%
D12*
%TO.C,SW8*%
X74295000Y-79375000D03*
D13*
X79375000Y-79375000D03*
D10*
X74155000Y-83575000D03*
D11*
X84875000Y-79375000D03*
D12*
X84455000Y-79375000D03*
D11*
X73875000Y-79375000D03*
D15*
X81915000Y-74295000D03*
D16*
X81894771Y-74584984D03*
D14*
X84375000Y-75575000D03*
X79375000Y-73475000D03*
D15*
X76875000Y-75375000D03*
D17*
X76219995Y-76104996D03*
%TD*%
D13*
%TO.C,SW18*%
X117475000Y-41275000D03*
D11*
X111975000Y-41275000D03*
D10*
X112255000Y-45475000D03*
D12*
X122555000Y-41275000D03*
X112395000Y-41275000D03*
D11*
X122975000Y-41275000D03*
D14*
X122475000Y-37475000D03*
D15*
X120015000Y-36195000D03*
D16*
X119994771Y-36484984D03*
D15*
X114975000Y-37275000D03*
D14*
X117475000Y-35375000D03*
D17*
X114319995Y-38004996D03*
%TD*%
D11*
%TO.C,SW24*%
X150075000Y-79375000D03*
D10*
X150355000Y-83575000D03*
D12*
X160655000Y-79375000D03*
D13*
X155575000Y-79375000D03*
D12*
X150495000Y-79375000D03*
D11*
X161075000Y-79375000D03*
D16*
X158094771Y-74584984D03*
D15*
X158115000Y-74295000D03*
D14*
X160575000Y-75575000D03*
X155575000Y-73475000D03*
D15*
X153075000Y-75375000D03*
D17*
X152419995Y-76104996D03*
%TD*%
D12*
%TO.C,SW2*%
X46355000Y-41275000D03*
D11*
X46775000Y-41275000D03*
D12*
X36195000Y-41275000D03*
D10*
X36055000Y-45475000D03*
D13*
X41275000Y-41275000D03*
D11*
X35775000Y-41275000D03*
D16*
X43794771Y-36484984D03*
D14*
X46275000Y-37475000D03*
D15*
X43815000Y-36195000D03*
D17*
X38119995Y-38004996D03*
D14*
X41275000Y-35375000D03*
D15*
X38775000Y-37275000D03*
%TD*%
D12*
%TO.C,SW28*%
X169545000Y-79375000D03*
D13*
X174625000Y-79375000D03*
D11*
X180125000Y-79375000D03*
X169125000Y-79375000D03*
D10*
X169405000Y-83575000D03*
D12*
X179705000Y-79375000D03*
D15*
X177165000Y-74295000D03*
D16*
X177144771Y-74584984D03*
D14*
X179625000Y-75575000D03*
D17*
X171469995Y-76104996D03*
D15*
X172125000Y-75375000D03*
D14*
X174625000Y-73475000D03*
%TD*%
D13*
%TO.C,SW13*%
X88900000Y-98425000D03*
D10*
X83680000Y-102625000D03*
D12*
X93980000Y-98425000D03*
X83820000Y-98425000D03*
D11*
X94400000Y-98425000D03*
X83400000Y-98425000D03*
D16*
X91419771Y-93634984D03*
D14*
X93900000Y-94625000D03*
D15*
X91440000Y-93345000D03*
X86400000Y-94425000D03*
D14*
X88900000Y-92525000D03*
D17*
X85744995Y-95154996D03*
%TD*%
D12*
%TO.C,SW36*%
X207645000Y-79375000D03*
X217805000Y-79375000D03*
D11*
X207225000Y-79375000D03*
X218225000Y-79375000D03*
D10*
X207505000Y-83575000D03*
D13*
X212725000Y-79375000D03*
D16*
X215244771Y-74584984D03*
D14*
X217725000Y-75575000D03*
D15*
X215265000Y-74295000D03*
D14*
X212725000Y-73475000D03*
D15*
X210225000Y-75375000D03*
D17*
X209569995Y-76104996D03*
%TD*%
D11*
%TO.C,SW6*%
X65825000Y-41275000D03*
D12*
X55245000Y-41275000D03*
D13*
X60325000Y-41275000D03*
D10*
X55105000Y-45475000D03*
D11*
X54825000Y-41275000D03*
D12*
X65405000Y-41275000D03*
D15*
X62865000Y-36195000D03*
D16*
X62844771Y-36484984D03*
D14*
X65325000Y-37475000D03*
D15*
X57825000Y-37275000D03*
D17*
X57169995Y-38004996D03*
D14*
X60325000Y-35375000D03*
%TD*%
D12*
%TO.C,SW25*%
X140970000Y-98425000D03*
D13*
X146050000Y-98425000D03*
D12*
X151130000Y-98425000D03*
D11*
X151550000Y-98425000D03*
D10*
X140830000Y-102625000D03*
D11*
X140550000Y-98425000D03*
D14*
X151050000Y-94625000D03*
D15*
X148590000Y-93345000D03*
D16*
X148569771Y-93634984D03*
D17*
X142894995Y-95154996D03*
D14*
X146050000Y-92525000D03*
D15*
X143550000Y-94425000D03*
%TD*%
D12*
%TO.C,SW26*%
X160655000Y-41275000D03*
D10*
X150355000Y-45475000D03*
D11*
X161075000Y-41275000D03*
D13*
X155575000Y-41275000D03*
D11*
X150075000Y-41275000D03*
D12*
X150495000Y-41275000D03*
D16*
X158094771Y-36484984D03*
D15*
X158115000Y-36195000D03*
D14*
X160575000Y-37475000D03*
X155575000Y-35375000D03*
D15*
X153075000Y-37275000D03*
D17*
X152419995Y-38004996D03*
%TD*%
D12*
%TO.C,SW35*%
X208280000Y-60325000D03*
D10*
X197980000Y-64525000D03*
D11*
X208700000Y-60325000D03*
X197700000Y-60325000D03*
D13*
X203200000Y-60325000D03*
D12*
X198120000Y-60325000D03*
D15*
X205740000Y-55245000D03*
D14*
X208200000Y-56525000D03*
D16*
X205719771Y-55534984D03*
D14*
X203200000Y-54425000D03*
D17*
X200044995Y-57054996D03*
D15*
X200700000Y-56325000D03*
%TD*%
D13*
%TO.C,SW4*%
X60325000Y-79375000D03*
D11*
X54825000Y-79375000D03*
D10*
X55105000Y-83575000D03*
D12*
X55245000Y-79375000D03*
X65405000Y-79375000D03*
D11*
X65825000Y-79375000D03*
D15*
X62865000Y-74295000D03*
D16*
X62844771Y-74584984D03*
D14*
X65325000Y-75575000D03*
D17*
X57169995Y-76104996D03*
D14*
X60325000Y-73475000D03*
D15*
X57825000Y-75375000D03*
%TD*%
D13*
%TO.C,SW37*%
X203200000Y-98425000D03*
D11*
X208700000Y-98425000D03*
X197700000Y-98425000D03*
D12*
X198120000Y-98425000D03*
D10*
X197980000Y-102625000D03*
D12*
X208280000Y-98425000D03*
D16*
X205719771Y-93634984D03*
D15*
X205740000Y-93345000D03*
D14*
X208200000Y-94625000D03*
D17*
X200044995Y-95154996D03*
D14*
X203200000Y-92525000D03*
D15*
X200700000Y-94425000D03*
%TD*%
D12*
%TO.C,SW39*%
X227330000Y-60325000D03*
D13*
X222250000Y-60325000D03*
D10*
X217030000Y-64525000D03*
D11*
X216750000Y-60325000D03*
X227750000Y-60325000D03*
D12*
X217170000Y-60325000D03*
D14*
X227250000Y-56525000D03*
D16*
X224769771Y-55534984D03*
D15*
X224790000Y-55245000D03*
X219750000Y-56325000D03*
D17*
X219094995Y-57054996D03*
D14*
X222250000Y-54425000D03*
%TD*%
D12*
%TO.C,SW22*%
X131445000Y-41275000D03*
D13*
X136525000Y-41275000D03*
D11*
X142025000Y-41275000D03*
D12*
X141605000Y-41275000D03*
D11*
X131025000Y-41275000D03*
D10*
X131305000Y-45475000D03*
D16*
X139044771Y-36484984D03*
D15*
X139065000Y-36195000D03*
D14*
X141525000Y-37475000D03*
D17*
X133369995Y-38004996D03*
D14*
X136525000Y-35375000D03*
D15*
X134025000Y-37275000D03*
%TD*%
D12*
%TO.C,SW16*%
X112395000Y-79375000D03*
X122555000Y-79375000D03*
D13*
X117475000Y-79375000D03*
D11*
X111975000Y-79375000D03*
X122975000Y-79375000D03*
D10*
X112255000Y-83575000D03*
D14*
X122475000Y-75575000D03*
D16*
X119994771Y-74584984D03*
D15*
X120015000Y-74295000D03*
X114975000Y-75375000D03*
D17*
X114319995Y-76104996D03*
D14*
X117475000Y-73475000D03*
%TD*%
D13*
%TO.C,SW33*%
X184150000Y-98425000D03*
D11*
X189650000Y-98425000D03*
X178650000Y-98425000D03*
D12*
X179070000Y-98425000D03*
D10*
X178930000Y-102625000D03*
D12*
X189230000Y-98425000D03*
D14*
X189150000Y-94625000D03*
D15*
X186690000Y-93345000D03*
D16*
X186669771Y-93634984D03*
D17*
X180994995Y-95154996D03*
D14*
X184150000Y-92525000D03*
D15*
X181650000Y-94425000D03*
%TD*%
D12*
%TO.C,SW29*%
X170180000Y-98425000D03*
D11*
X170600000Y-98425000D03*
X159600000Y-98425000D03*
D12*
X160020000Y-98425000D03*
D13*
X165100000Y-98425000D03*
D10*
X159880000Y-102625000D03*
D16*
X167619771Y-93634984D03*
D15*
X167640000Y-93345000D03*
D14*
X170100000Y-94625000D03*
D17*
X161944995Y-95154996D03*
D15*
X162600000Y-94425000D03*
D14*
X165100000Y-92525000D03*
%TD*%
D11*
%TO.C,SW17*%
X113450000Y-98425000D03*
D12*
X102870000Y-98425000D03*
D11*
X102450000Y-98425000D03*
D12*
X113030000Y-98425000D03*
D13*
X107950000Y-98425000D03*
D10*
X102730000Y-102625000D03*
D14*
X112950000Y-94625000D03*
D15*
X110490000Y-93345000D03*
D16*
X110469771Y-93634984D03*
D17*
X104794995Y-95154996D03*
D15*
X105450000Y-94425000D03*
D14*
X107950000Y-92525000D03*
%TD*%
D18*
%TO.C,D29*%
X166750000Y-104775000D03*
X163450000Y-104775000D03*
%TD*%
D19*
%TO.C,J1*%
X230312500Y-39321000D03*
X224712500Y-39321000D03*
D20*
X226012500Y-43196000D03*
X227012500Y-43196000D03*
X228012500Y-43196000D03*
X229012500Y-43196000D03*
%TD*%
D18*
%TO.C,D6*%
X71500000Y-68262500D03*
X68200000Y-68262500D03*
%TD*%
D21*
%TO.C,C1*%
X41656000Y-72743000D03*
X41656000Y-71783000D03*
%TD*%
D18*
%TO.C,D14*%
X109600000Y-68262500D03*
X106300000Y-68262500D03*
%TD*%
%TO.C,D40*%
X233425000Y-87312500D03*
X230125000Y-87312500D03*
%TD*%
%TO.C,D8*%
X71500000Y-106362500D03*
X68200000Y-106362500D03*
%TD*%
%TO.C,D3*%
X61975000Y-85725000D03*
X58675000Y-85725000D03*
%TD*%
%TO.C,D36*%
X214375000Y-85725000D03*
X211075000Y-85725000D03*
%TD*%
%TO.C,D32*%
X195325000Y-87312500D03*
X192025000Y-87312500D03*
%TD*%
D22*
%TO.C,C4*%
X52683089Y-85656080D03*
X53361911Y-84977258D03*
%TD*%
D18*
%TO.C,D1*%
X42925000Y-47625000D03*
X39625000Y-47625000D03*
%TD*%
D23*
%TO.C,R4*%
X35435000Y-80264000D03*
X34415000Y-80264000D03*
%TD*%
D24*
%TO.C,Y1*%
X49294142Y-83048696D03*
X50849777Y-81493061D03*
X52051858Y-82695142D03*
X50496223Y-84250777D03*
%TD*%
D18*
%TO.C,D15*%
X119125000Y-87312500D03*
X115825000Y-87312500D03*
%TD*%
D25*
%TO.C,U1*%
X42629202Y-75374264D03*
X42982755Y-75727818D03*
X43336309Y-76081371D03*
X43689862Y-76434924D03*
X44043415Y-76788478D03*
X44396969Y-77142031D03*
X44750522Y-77495585D03*
X45104076Y-77849138D03*
X45457629Y-78202691D03*
X45811182Y-78556245D03*
X46164736Y-78909798D03*
D26*
X46164736Y-80094202D03*
X45811182Y-80447755D03*
X45457629Y-80801309D03*
X45104076Y-81154862D03*
X44750522Y-81508415D03*
X44396969Y-81861969D03*
X44043415Y-82215522D03*
X43689862Y-82569076D03*
X43336309Y-82922629D03*
X42982755Y-83276182D03*
X42629202Y-83629736D03*
D25*
X41444798Y-83629736D03*
X41091245Y-83276182D03*
X40737691Y-82922629D03*
X40384138Y-82569076D03*
X40030585Y-82215522D03*
X39677031Y-81861969D03*
X39323478Y-81508415D03*
X38969924Y-81154862D03*
X38616371Y-80801309D03*
X38262818Y-80447755D03*
X37909264Y-80094202D03*
D26*
X37909264Y-78909798D03*
X38262818Y-78556245D03*
X38616371Y-78202691D03*
X38969924Y-77849138D03*
X39323478Y-77495585D03*
X39677031Y-77142031D03*
X40030585Y-76788478D03*
X40384138Y-76434924D03*
X40737691Y-76081371D03*
X41091245Y-75727818D03*
X41444798Y-75374264D03*
D27*
X42037000Y-79502000D03*
%TD*%
D28*
%TO.C,D25*%
X226512500Y-48552000D03*
D29*
X226512500Y-46852000D03*
X228512500Y-46852000D03*
X228512500Y-48752000D03*
%TD*%
D18*
%TO.C,D34*%
X195325000Y-47625000D03*
X192025000Y-47625000D03*
%TD*%
%TO.C,D23*%
X157225000Y-87312500D03*
X153925000Y-87312500D03*
%TD*%
%TO.C,D21*%
X138175000Y-49212500D03*
X134875000Y-49212500D03*
%TD*%
%TO.C,D39*%
X223900000Y-68262500D03*
X220600000Y-68262500D03*
%TD*%
%TO.C,D30*%
X176275000Y-49212500D03*
X172975000Y-49212500D03*
%TD*%
%TO.C,D41*%
X228662500Y-106362500D03*
X225362500Y-106362500D03*
%TD*%
%TO.C,D20*%
X128650000Y-104775000D03*
X125350000Y-104775000D03*
%TD*%
%TO.C,D24*%
X147700000Y-106362500D03*
X144400000Y-106362500D03*
%TD*%
%TO.C,D26*%
X157225000Y-47625000D03*
X153925000Y-47625000D03*
%TD*%
%TO.C,D22*%
X147700000Y-68262500D03*
X144400000Y-68262500D03*
%TD*%
%TO.C,D13*%
X100075000Y-49212500D03*
X96775000Y-49212500D03*
%TD*%
D11*
%TO.C,J2*%
X56713935Y-101357192D03*
X59253935Y-101357192D03*
X56713935Y-98817192D03*
X59253935Y-98817192D03*
X56713935Y-96277192D03*
D30*
X59253935Y-96277192D03*
%TD*%
D31*
%TO.C,C3*%
X48944911Y-85592580D03*
X48266089Y-84913758D03*
%TD*%
D18*
%TO.C,D7*%
X81025000Y-87312500D03*
X77725000Y-87312500D03*
%TD*%
%TO.C,D4*%
X47687500Y-104775000D03*
X44387500Y-104775000D03*
%TD*%
D32*
%TO.C,R2*%
X45212000Y-70991000D03*
X45212000Y-72011000D03*
%TD*%
D18*
%TO.C,D38*%
X214375000Y-49212500D03*
X211075000Y-49212500D03*
%TD*%
D33*
%TO.C,R3*%
X49509624Y-78338624D03*
X48788376Y-77617376D03*
%TD*%
D18*
%TO.C,D31*%
X185800000Y-68262500D03*
X182500000Y-68262500D03*
%TD*%
%TO.C,D2*%
X52450000Y-66675000D03*
X49150000Y-66675000D03*
%TD*%
%TO.C,D9*%
X81025000Y-47625000D03*
X77725000Y-47625000D03*
%TD*%
%TO.C,D12*%
X90550000Y-104775000D03*
X87250000Y-104775000D03*
%TD*%
%TO.C,D35*%
X204850000Y-66675000D03*
X201550000Y-66675000D03*
%TD*%
D34*
%TO.C,R9*%
X239769074Y-39512851D03*
X239769074Y-38492851D03*
%TD*%
D35*
%TO.C,F1*%
X231775000Y-47749000D03*
X231775000Y-50549000D03*
%TD*%
D18*
%TO.C,D33*%
X185800000Y-106362500D03*
X182500000Y-106362500D03*
%TD*%
%TO.C,D17*%
X119125000Y-47625000D03*
X115825000Y-47625000D03*
%TD*%
%TO.C,D27*%
X166750000Y-66675000D03*
X163450000Y-66675000D03*
%TD*%
%TO.C,D16*%
X109600000Y-106362500D03*
X106300000Y-106362500D03*
%TD*%
%TO.C,D28*%
X176275000Y-85725000D03*
X172975000Y-85725000D03*
%TD*%
%TO.C,D18*%
X128650000Y-66675000D03*
X125350000Y-66675000D03*
%TD*%
D34*
%TO.C,R8*%
X239712500Y-46547500D03*
X239712500Y-45527500D03*
%TD*%
D18*
%TO.C,D5*%
X61975000Y-49212500D03*
X58675000Y-49212500D03*
%TD*%
%TO.C,D19*%
X138175000Y-85725000D03*
X134875000Y-85725000D03*
%TD*%
D31*
%TO.C,C5*%
X36407411Y-77428411D03*
X35728589Y-76749589D03*
%TD*%
D18*
%TO.C,D10*%
X90550000Y-66675000D03*
X87250000Y-66675000D03*
%TD*%
D32*
%TO.C,R1*%
X44196000Y-70991000D03*
X44196000Y-72011000D03*
%TD*%
D31*
%TO.C,C7*%
X50377411Y-77428411D03*
X49698589Y-76749589D03*
%TD*%
D22*
%TO.C,C6*%
X45761589Y-75650411D03*
X46440411Y-74971589D03*
%TD*%
D18*
%TO.C,D37*%
X204850000Y-104775000D03*
X201550000Y-104775000D03*
%TD*%
D36*
%TO.C,C2*%
X39792589Y-85131589D03*
X40471411Y-85810411D03*
%TD*%
D21*
%TO.C,C8*%
X47371000Y-72743000D03*
X47371000Y-71783000D03*
%TD*%
D18*
%TO.C,D11*%
X100075000Y-85725000D03*
X96775000Y-85725000D03*
%TD*%
M02*
