M48
; DRILL file {KiCad (6.0.7)} date Sat Oct 29 13:55:15 2022
; FORMAT={-:-/ absolute / inch / decimal}
; #@! TF.CreationDate,2022-10-29T13:55:15+02:00
; #@! TF.GenerationSoftware,Kicad,Pcbnew,(6.0.7)
; #@! TF.FileFunction,Plated,1,2,PTH
FMAT,2
INCH
; #@! TA.AperFunction,Plated,PTH,ViaDrill
T1C0.0157
; #@! TA.AperFunction,Plated,PTH,ComponentDrill
T2C0.0390
; #@! TA.AperFunction,Plated,PTH,ComponentDrill
T3C0.0394
; #@! TA.AperFunction,Plated,PTH,ComponentDrill
T4C0.0472
; #@! TA.AperFunction,Plated,PTH,ComponentDrill
T5C0.0579
%
G90
G05
T1
X1.32Y-3.16
X1.345Y-3.295
X1.3695Y-1.946
X1.38Y-2.995
X1.39Y-3.065
X1.4088Y-1.9476
X1.4481Y-1.9493
X1.49Y-1.9488
X1.5323Y-3.3118
X1.535Y-3.385
X1.565Y-3.29
X1.585Y-2.87
X1.62Y-3.405
X1.63Y-3.99
X1.64Y-2.795
X1.6774Y-3.3972
X1.695Y-3.99
X1.7Y-3.365
X1.83Y-2.915
X1.865Y-2.795
X1.89Y-3.085
X1.91Y-2.865
X1.925Y-3.415
X1.985Y-2.995
X2.0242Y-2.9403
X2.035Y-2.995
X2.07Y-3.43
X2.0935Y-3.0622
X2.105Y-3.6
X2.105Y-3.79
X2.25Y-1.8438
X2.25Y-1.9062
X2.3331Y-3.7198
X2.625Y-2.5938
X2.625Y-2.6562
X2.63Y-4.095
X2.63Y-4.16
X3.005Y-3.345
X3.005Y-3.41
X3.75Y-1.8438
X3.75Y-1.9688
X4.125Y-2.595
X4.125Y-4.095
X4.125Y-4.22
X4.1286Y-2.714
X4.505Y-3.345
X4.505Y-3.47
X5.2429Y-1.8465
X5.25Y-1.9688
X5.625Y-2.595
X5.625Y-2.715
X5.625Y-4.095
X5.625Y-4.22
X6.005Y-3.345
X6.005Y-3.47
X6.75Y-1.8438
X6.75Y-1.9688
X7.125Y-2.59
X7.125Y-2.715
X7.125Y-4.095
X7.125Y-4.22
X7.505Y-3.345
X7.505Y-3.47
X8.19Y-1.875
X8.24Y-1.965
X8.242Y-1.8983
X8.275Y-1.87
X8.5675Y-2.625
X8.62Y-2.65
X8.62Y-2.72
X8.6525Y-2.62
X8.7575Y-4.125
X8.81Y-4.15
X8.81Y-4.22
X8.8425Y-4.12
X8.88Y-1.7656
X8.88Y-1.955
X8.9425Y-3.38
X8.99Y-3.395
X8.995Y-3.475
X9.015Y-1.7656
X9.0275Y-3.37
X9.0956Y-2.2998
X9.31Y-1.66
X9.31Y-1.935
X9.5Y-2.26
T2
X9.3125Y-1.4858
X9.3125Y-1.5858
X9.3125Y-1.7625
X9.3125Y-1.8625
T3
X2.2328Y-3.7904
X2.2328Y-3.8904
X2.2328Y-3.9904
X2.3328Y-3.7904
X2.3328Y-3.8904
X2.3328Y-3.9904
T4
X1.625Y-1.3927
X1.8125Y-3.6427
X1.8219Y-1.4754
X2.0Y-2.1427
X2.0094Y-3.7254
X2.1969Y-2.2254
X2.375Y-1.3927
X2.375Y-2.8927
X2.5719Y-1.4754
X2.5719Y-2.9754
X2.75Y-2.1427
X2.75Y-3.6427
X2.9469Y-2.2254
X2.9469Y-3.7254
X3.125Y-1.3927
X3.125Y-2.8927
X3.3219Y-1.4754
X3.3219Y-2.9754
X3.5Y-2.1427
X3.5Y-3.6427
X3.6969Y-2.2254
X3.6969Y-3.7254
X3.875Y-1.3927
X3.875Y-2.8927
X4.0719Y-1.4754
X4.0719Y-2.9754
X4.25Y-2.1427
X4.25Y-3.6427
X4.4469Y-2.2254
X4.4469Y-3.7254
X4.625Y-1.3927
X4.625Y-2.8927
X4.8219Y-1.4754
X4.8219Y-2.9754
X5.0Y-2.1427
X5.0Y-3.6427
X5.1969Y-2.2254
X5.1969Y-3.7254
X5.375Y-1.3927
X5.375Y-2.8927
X5.5719Y-1.4754
X5.5719Y-2.9754
X5.75Y-2.1427
X5.75Y-3.6427
X5.9469Y-2.2254
X5.9469Y-3.7254
X6.125Y-1.3927
X6.125Y-2.8927
X6.3219Y-1.4754
X6.3219Y-2.9754
X6.5Y-2.1427
X6.5Y-3.6427
X6.6969Y-2.2254
X6.6969Y-3.7254
X6.875Y-1.3927
X6.875Y-2.8927
X7.0719Y-1.4754
X7.0719Y-2.9754
X7.25Y-2.1427
X7.25Y-3.6427
X7.4469Y-2.2254
X7.4469Y-3.7254
X7.625Y-1.3927
X7.625Y-2.8927
X7.8219Y-1.4754
X7.8219Y-2.9754
X8.0Y-2.1427
X8.0Y-3.6427
X8.1969Y-2.2254
X8.1969Y-3.7254
X8.375Y-1.3927
X8.375Y-2.8927
X8.5719Y-1.4754
X8.5719Y-2.9754
X8.75Y-2.1427
X8.9375Y-3.6427
X8.9469Y-2.2254
X9.125Y-2.8927
X9.1344Y-3.7254
X9.3219Y-2.9754
T5
X1.475Y-1.525
X1.5266Y-1.4675
X1.6625Y-3.775
X1.7141Y-3.7175
X1.7234Y-1.4478
X1.725Y-1.425
X1.85Y-2.275
X1.9016Y-2.2175
X1.9109Y-3.6978
X1.9125Y-3.675
X2.0984Y-2.1978
X2.1Y-2.175
X2.225Y-1.525
X2.225Y-3.025
X2.2766Y-1.4675
X2.2766Y-2.9675
X2.4734Y-1.4478
X2.4734Y-2.9478
X2.475Y-1.425
X2.475Y-2.925
X2.6Y-2.275
X2.6Y-3.775
X2.6516Y-2.2175
X2.6516Y-3.7175
X2.8484Y-2.1978
X2.8484Y-3.6978
X2.85Y-2.175
X2.85Y-3.675
X2.975Y-1.525
X2.975Y-3.025
X3.0266Y-1.4675
X3.0266Y-2.9675
X3.2234Y-1.4478
X3.2234Y-2.9478
X3.225Y-1.425
X3.225Y-2.925
X3.35Y-2.275
X3.35Y-3.775
X3.4016Y-2.2175
X3.4016Y-3.7175
X3.5984Y-2.1978
X3.5984Y-3.6978
X3.6Y-2.175
X3.6Y-3.675
X3.725Y-1.525
X3.725Y-3.025
X3.7766Y-1.4675
X3.7766Y-2.9675
X3.9734Y-1.4478
X3.9734Y-2.9478
X3.975Y-1.425
X3.975Y-2.925
X4.1Y-2.275
X4.1Y-3.775
X4.1516Y-2.2175
X4.1516Y-3.7175
X4.3484Y-2.1978
X4.3484Y-3.6978
X4.35Y-2.175
X4.35Y-3.675
X4.475Y-1.525
X4.475Y-3.025
X4.5266Y-1.4675
X4.5266Y-2.9675
X4.7234Y-1.4478
X4.7234Y-2.9478
X4.725Y-1.425
X4.725Y-2.925
X4.85Y-2.275
X4.85Y-3.775
X4.9016Y-2.2175
X4.9016Y-3.7175
X5.0984Y-2.1978
X5.0984Y-3.6978
X5.1Y-2.175
X5.1Y-3.675
X5.225Y-1.525
X5.225Y-3.025
X5.2766Y-1.4675
X5.2766Y-2.9675
X5.4734Y-1.4478
X5.4734Y-2.9478
X5.475Y-1.425
X5.475Y-2.925
X5.6Y-2.275
X5.6Y-3.775
X5.6516Y-2.2175
X5.6516Y-3.7175
X5.8484Y-2.1978
X5.8484Y-3.6978
X5.85Y-2.175
X5.85Y-3.675
X5.975Y-1.525
X5.975Y-3.025
X6.0266Y-1.4675
X6.0266Y-2.9675
X6.2234Y-1.4478
X6.2234Y-2.9478
X6.225Y-1.425
X6.225Y-2.925
X6.35Y-2.275
X6.35Y-3.775
X6.4016Y-2.2175
X6.4016Y-3.7175
X6.5984Y-2.1978
X6.5984Y-3.6978
X6.6Y-2.175
X6.6Y-3.675
X6.725Y-1.525
X6.725Y-3.025
X6.7766Y-1.4675
X6.7766Y-2.9675
X6.9734Y-1.4478
X6.9734Y-2.9478
X6.975Y-1.425
X6.975Y-2.925
X7.1Y-2.275
X7.1Y-3.775
X7.1516Y-2.2175
X7.1516Y-3.7175
X7.3484Y-2.1978
X7.3484Y-3.6978
X7.35Y-2.175
X7.35Y-3.675
X7.475Y-1.525
X7.475Y-3.025
X7.5266Y-1.4675
X7.5266Y-2.9675
X7.7234Y-1.4478
X7.7234Y-2.9478
X7.725Y-1.425
X7.725Y-2.925
X7.85Y-2.275
X7.85Y-3.775
X7.9016Y-2.2175
X7.9016Y-3.7175
X8.0984Y-2.1978
X8.0984Y-3.6978
X8.1Y-2.175
X8.1Y-3.675
X8.225Y-1.525
X8.225Y-3.025
X8.2766Y-1.4675
X8.2766Y-2.9675
X8.4734Y-1.4478
X8.4734Y-2.9478
X8.475Y-1.425
X8.475Y-2.925
X8.6Y-2.275
X8.6516Y-2.2175
X8.7875Y-3.775
X8.8391Y-3.7175
X8.8484Y-2.1978
X8.85Y-2.175
X8.975Y-3.025
X9.0266Y-2.9675
X9.0359Y-3.6978
X9.0375Y-3.675
X9.2234Y-2.9478
X9.225Y-2.925
T0
M30
