%TF.GenerationSoftware,KiCad,Pcbnew,(6.0.7)*%
%TF.CreationDate,2022-12-24T21:54:13+01:00*%
%TF.ProjectId,Didaktik multilayout switchplate,44696461-6b74-4696-9b20-6d756c74696c,rev?*%
%TF.SameCoordinates,Original*%
%TF.FileFunction,Copper,L2,Bot*%
%TF.FilePolarity,Positive*%
%FSLAX46Y46*%
G04 Gerber Fmt 4.6, Leading zero omitted, Abs format (unit mm)*
G04 Created by KiCad (PCBNEW (6.0.7)) date 2022-12-24 21:54:13*
%MOMM*%
%LPD*%
G01*
G04 APERTURE LIST*
G04 APERTURE END LIST*
%TA.AperFunction,NonConductor*%
G36*
X41912877Y-26892482D02*
G01*
X42016196Y-26898283D01*
X42017170Y-26898342D01*
X42207338Y-26910792D01*
X42219411Y-26911582D01*
X42232285Y-26913093D01*
X42374239Y-26937211D01*
X42377715Y-26937852D01*
X42443893Y-26951015D01*
X42540948Y-26970320D01*
X42551220Y-26972817D01*
X42695385Y-27014350D01*
X42700931Y-27016089D01*
X42784391Y-27044421D01*
X42853440Y-27067861D01*
X42861156Y-27070766D01*
X43000931Y-27128664D01*
X43008442Y-27132067D01*
X43152831Y-27203274D01*
X43158052Y-27206002D01*
X43289327Y-27278559D01*
X43298380Y-27284072D01*
X43436752Y-27376533D01*
X43439663Y-27378538D01*
X43557103Y-27461871D01*
X43567269Y-27469901D01*
X43718313Y-27602372D01*
X43719194Y-27603152D01*
X43758016Y-27637847D01*
X43795480Y-27698154D01*
X43800053Y-27731378D01*
X43804483Y-29069648D01*
X43809000Y-30434083D01*
X43813355Y-31749803D01*
X43813273Y-31750000D01*
X43813356Y-31750200D01*
X43813356Y-31750201D01*
X43813384Y-31750268D01*
X43813590Y-31750765D01*
X43813593Y-31750766D01*
X43813593Y-31750767D01*
X43813827Y-31750863D01*
X43814157Y-31751000D01*
X43814160Y-31751000D01*
X43814359Y-31751082D01*
X43814555Y-31751000D01*
X229234801Y-31751000D01*
X229234997Y-31751082D01*
X229235196Y-31751000D01*
X229235198Y-31751000D01*
X229235401Y-31750916D01*
X229235763Y-31750767D01*
X229235765Y-31750765D01*
X229235952Y-31750313D01*
X229235999Y-31750201D01*
X229235999Y-31750200D01*
X229236082Y-31750000D01*
X229236000Y-31749803D01*
X229240055Y-30463537D01*
X229243267Y-29444343D01*
X230769255Y-29444343D01*
X230769263Y-29444439D01*
X230769765Y-29450418D01*
X230769765Y-29450421D01*
X230773087Y-29489975D01*
X230785682Y-29639961D01*
X230839791Y-29828663D01*
X230842610Y-29834148D01*
X230926704Y-29997778D01*
X230926707Y-29997783D01*
X230929522Y-30003260D01*
X231051457Y-30157104D01*
X231056150Y-30161098D01*
X231056151Y-30161099D01*
X231194350Y-30278715D01*
X231200952Y-30284334D01*
X231206330Y-30287340D01*
X231206332Y-30287341D01*
X231235875Y-30303852D01*
X231372312Y-30380104D01*
X231559010Y-30440766D01*
X231753935Y-30464009D01*
X231760070Y-30463537D01*
X231760072Y-30463537D01*
X231943521Y-30449422D01*
X231943525Y-30449421D01*
X231949663Y-30448949D01*
X231955595Y-30447293D01*
X231955599Y-30447292D01*
X232044200Y-30422554D01*
X232138738Y-30396158D01*
X232313958Y-30307648D01*
X232321353Y-30301871D01*
X232463788Y-30190588D01*
X232463789Y-30190587D01*
X232468649Y-30186790D01*
X232596919Y-30038187D01*
X232693883Y-29867500D01*
X232755847Y-29681230D01*
X232761836Y-29633819D01*
X232780009Y-29489975D01*
X232780010Y-29489965D01*
X232780451Y-29486472D01*
X232780843Y-29458387D01*
X232761687Y-29263018D01*
X232704948Y-29075090D01*
X232612788Y-28901762D01*
X232608898Y-28896992D01*
X232608895Y-28896988D01*
X232492606Y-28754404D01*
X232492604Y-28754402D01*
X232488717Y-28749636D01*
X232337460Y-28624505D01*
X232164780Y-28531137D01*
X231977253Y-28473088D01*
X231971131Y-28472445D01*
X231971128Y-28472444D01*
X231788151Y-28453213D01*
X231788149Y-28453213D01*
X231782022Y-28452569D01*
X231662685Y-28463429D01*
X231592665Y-28469801D01*
X231592664Y-28469801D01*
X231586524Y-28470360D01*
X231398205Y-28525786D01*
X231224237Y-28616733D01*
X231219439Y-28620590D01*
X231219437Y-28620592D01*
X231076049Y-28735880D01*
X231076045Y-28735884D01*
X231071249Y-28739740D01*
X231067290Y-28744458D01*
X231067289Y-28744459D01*
X231066235Y-28745715D01*
X230945065Y-28890119D01*
X230942102Y-28895508D01*
X230942099Y-28895513D01*
X230938664Y-28901762D01*
X230850494Y-29062143D01*
X230848633Y-29068010D01*
X230848632Y-29068012D01*
X230792999Y-29243390D01*
X230791137Y-29249260D01*
X230769255Y-29444343D01*
X229243267Y-29444343D01*
X229248666Y-27731363D01*
X229268882Y-27663305D01*
X229290705Y-27637809D01*
X229328045Y-27604440D01*
X229328923Y-27603663D01*
X229481504Y-27469840D01*
X229491673Y-27461808D01*
X229608805Y-27378698D01*
X229611716Y-27376693D01*
X229611956Y-27376533D01*
X229750417Y-27284016D01*
X229759471Y-27278503D01*
X229890481Y-27206097D01*
X229895701Y-27203369D01*
X230040381Y-27132021D01*
X230047892Y-27128618D01*
X230187440Y-27070817D01*
X230195157Y-27067912D01*
X230347919Y-27016058D01*
X230353539Y-27014296D01*
X230497376Y-26972859D01*
X230507676Y-26970356D01*
X230671315Y-26937808D01*
X230674792Y-26937167D01*
X230816362Y-26913116D01*
X230829226Y-26911606D01*
X231030689Y-26898405D01*
X231031865Y-26898333D01*
X231136075Y-26892482D01*
X231143138Y-26892284D01*
X232405815Y-26892284D01*
X232412877Y-26892482D01*
X232516196Y-26898283D01*
X232517170Y-26898342D01*
X232707338Y-26910792D01*
X232719411Y-26911582D01*
X232732285Y-26913093D01*
X232874239Y-26937211D01*
X232877715Y-26937852D01*
X232943893Y-26951015D01*
X233040948Y-26970320D01*
X233051220Y-26972817D01*
X233195385Y-27014350D01*
X233200931Y-27016089D01*
X233284391Y-27044421D01*
X233353440Y-27067861D01*
X233361156Y-27070766D01*
X233500931Y-27128664D01*
X233508442Y-27132067D01*
X233652831Y-27203274D01*
X233658052Y-27206002D01*
X233789327Y-27278559D01*
X233798380Y-27284072D01*
X233936752Y-27376533D01*
X233939663Y-27378538D01*
X234057103Y-27461871D01*
X234067269Y-27469901D01*
X234218313Y-27602372D01*
X234219194Y-27603152D01*
X234253678Y-27633970D01*
X234257974Y-27637809D01*
X234258025Y-27637855D01*
X234295489Y-27698162D01*
X234300062Y-27731364D01*
X234314000Y-31749803D01*
X234313918Y-31750000D01*
X234314001Y-31750200D01*
X234314001Y-31750202D01*
X234314069Y-31750364D01*
X234314235Y-31750765D01*
X234314237Y-31750766D01*
X234314238Y-31750768D01*
X234314625Y-31750927D01*
X234314802Y-31751000D01*
X234314804Y-31751000D01*
X234315004Y-31751082D01*
X234315200Y-31751000D01*
X239708000Y-31751000D01*
X239716989Y-31751321D01*
X239851237Y-31760923D01*
X239852133Y-31760990D01*
X239934231Y-31767451D01*
X239951129Y-31769943D01*
X240070846Y-31795986D01*
X240073477Y-31796587D01*
X240121668Y-31808156D01*
X240166837Y-31819001D01*
X240181454Y-31823464D01*
X240293750Y-31865349D01*
X240297934Y-31866995D01*
X240388984Y-31904708D01*
X240401153Y-31910530D01*
X240505443Y-31967477D01*
X240510892Y-31970631D01*
X240595730Y-32022620D01*
X240605405Y-32029185D01*
X240700150Y-32100111D01*
X240706470Y-32105167D01*
X240782415Y-32170029D01*
X240789680Y-32176746D01*
X240873254Y-32260320D01*
X240879971Y-32267585D01*
X240944833Y-32343530D01*
X240949889Y-32349850D01*
X241020815Y-32444595D01*
X241027380Y-32454270D01*
X241079369Y-32539108D01*
X241082523Y-32544557D01*
X241139470Y-32648847D01*
X241145292Y-32661016D01*
X241183005Y-32752066D01*
X241184651Y-32756250D01*
X241226536Y-32868546D01*
X241231000Y-32883165D01*
X241253413Y-32976523D01*
X241254014Y-32979154D01*
X241280057Y-33098871D01*
X241282549Y-33115769D01*
X241289010Y-33197867D01*
X241289077Y-33198763D01*
X241298679Y-33333011D01*
X241299000Y-33342000D01*
X241299000Y-106358001D01*
X241298680Y-106366980D01*
X241289895Y-106489953D01*
X241289014Y-106502281D01*
X241288947Y-106503173D01*
X241282571Y-106584311D01*
X241280085Y-106601193D01*
X241253916Y-106721630D01*
X241253315Y-106724259D01*
X241231060Y-106817065D01*
X241226612Y-106831655D01*
X241184577Y-106944495D01*
X241182957Y-106948614D01*
X241145394Y-107039412D01*
X241139596Y-107051547D01*
X241082500Y-107156250D01*
X241079366Y-107161670D01*
X241027548Y-107246344D01*
X241021004Y-107256003D01*
X240949913Y-107351112D01*
X240944896Y-107357394D01*
X240880216Y-107433246D01*
X240873523Y-107440498D01*
X240789749Y-107524420D01*
X240782498Y-107531135D01*
X240706791Y-107595922D01*
X240700481Y-107600980D01*
X240605514Y-107672225D01*
X240595860Y-107678792D01*
X240557016Y-107702657D01*
X240511244Y-107730779D01*
X240505844Y-107733913D01*
X240401269Y-107791178D01*
X240389142Y-107796999D01*
X240298414Y-107834720D01*
X240294237Y-107836370D01*
X240181543Y-107878578D01*
X240166969Y-107883051D01*
X240074047Y-107905507D01*
X240071525Y-107906087D01*
X240053154Y-107910113D01*
X239951151Y-107932464D01*
X239934279Y-107934979D01*
X239895802Y-107938072D01*
X239853567Y-107941467D01*
X239852892Y-107941519D01*
X239717071Y-107951463D01*
X239707685Y-107951799D01*
X237632490Y-107948562D01*
X234323109Y-107943400D01*
X234323107Y-107943400D01*
X234315200Y-107943388D01*
X234315003Y-107943305D01*
X234314237Y-107943620D01*
X234314237Y-107943621D01*
X234314236Y-107943621D01*
X234313918Y-107944385D01*
X234314000Y-107944583D01*
X234303655Y-111226562D01*
X234301334Y-111963027D01*
X234281118Y-112031085D01*
X234259297Y-112056578D01*
X234247196Y-112067393D01*
X234222747Y-112089243D01*
X234221862Y-112090026D01*
X234119413Y-112179869D01*
X234068256Y-112224730D01*
X234058105Y-112232748D01*
X234057952Y-112232857D01*
X233942168Y-112315014D01*
X233939257Y-112317019D01*
X233799244Y-112410577D01*
X233790190Y-112416090D01*
X233660140Y-112487969D01*
X233654920Y-112490697D01*
X233509158Y-112562581D01*
X233501647Y-112565984D01*
X233363029Y-112623403D01*
X233355312Y-112626308D01*
X233307424Y-112642564D01*
X233201403Y-112678554D01*
X233195826Y-112680303D01*
X233052999Y-112721451D01*
X233042708Y-112723952D01*
X232877515Y-112756810D01*
X232874077Y-112757444D01*
X232733953Y-112781250D01*
X232721091Y-112782760D01*
X232687656Y-112784951D01*
X232515796Y-112796212D01*
X232514621Y-112796284D01*
X232421238Y-112801527D01*
X232414511Y-112801905D01*
X232407448Y-112802103D01*
X231144184Y-112802103D01*
X231137124Y-112801905D01*
X231034663Y-112796153D01*
X231033638Y-112796090D01*
X230942721Y-112790132D01*
X230830357Y-112782767D01*
X230817494Y-112781257D01*
X230676648Y-112757328D01*
X230673172Y-112756687D01*
X230508781Y-112723989D01*
X230498481Y-112721486D01*
X230410250Y-112696068D01*
X230355148Y-112680194D01*
X230349544Y-112678437D01*
X230196213Y-112626388D01*
X230188496Y-112623484D01*
X230049419Y-112565877D01*
X230041922Y-112562480D01*
X229896671Y-112490850D01*
X229891454Y-112488124D01*
X229760931Y-112415986D01*
X229751878Y-112410473D01*
X229751758Y-112410393D01*
X229612461Y-112317316D01*
X229609620Y-112315360D01*
X229493088Y-112232675D01*
X229482923Y-112224646D01*
X229329633Y-112090211D01*
X229328751Y-112089430D01*
X229291985Y-112056573D01*
X229254520Y-111996266D01*
X229249947Y-111963040D01*
X229247558Y-111241150D01*
X229243745Y-110089343D01*
X230769255Y-110089343D01*
X230769263Y-110089439D01*
X230769765Y-110095418D01*
X230769765Y-110095421D01*
X230781570Y-110236000D01*
X230785682Y-110284961D01*
X230787381Y-110290886D01*
X230835107Y-110457327D01*
X230839791Y-110473663D01*
X230842610Y-110479148D01*
X230926704Y-110642778D01*
X230926707Y-110642783D01*
X230929522Y-110648260D01*
X231051457Y-110802104D01*
X231056150Y-110806098D01*
X231056151Y-110806099D01*
X231194350Y-110923715D01*
X231200952Y-110929334D01*
X231206330Y-110932340D01*
X231206332Y-110932341D01*
X231255352Y-110959737D01*
X231372312Y-111025104D01*
X231559010Y-111085766D01*
X231753935Y-111109009D01*
X231760070Y-111108537D01*
X231760072Y-111108537D01*
X231943521Y-111094422D01*
X231943525Y-111094421D01*
X231949663Y-111093949D01*
X231955595Y-111092293D01*
X231955599Y-111092292D01*
X232053511Y-111064954D01*
X232138738Y-111041158D01*
X232313958Y-110952648D01*
X232321353Y-110946871D01*
X232463788Y-110835588D01*
X232463789Y-110835587D01*
X232468649Y-110831790D01*
X232596919Y-110683187D01*
X232615502Y-110650476D01*
X232690836Y-110517863D01*
X232693883Y-110512500D01*
X232755847Y-110326230D01*
X232769791Y-110215856D01*
X232780009Y-110134975D01*
X232780010Y-110134965D01*
X232780451Y-110131472D01*
X232780843Y-110103387D01*
X232761687Y-109908018D01*
X232704948Y-109720090D01*
X232612788Y-109546762D01*
X232608898Y-109541992D01*
X232608895Y-109541988D01*
X232492606Y-109399404D01*
X232492604Y-109399402D01*
X232488717Y-109394636D01*
X232337460Y-109269505D01*
X232164780Y-109176137D01*
X231977253Y-109118088D01*
X231971131Y-109117445D01*
X231971128Y-109117444D01*
X231788151Y-109098213D01*
X231788149Y-109098213D01*
X231782022Y-109097569D01*
X231662685Y-109108429D01*
X231592665Y-109114801D01*
X231592664Y-109114801D01*
X231586524Y-109115360D01*
X231398205Y-109170786D01*
X231224237Y-109261733D01*
X231219439Y-109265590D01*
X231219437Y-109265592D01*
X231076049Y-109380880D01*
X231076045Y-109380884D01*
X231071249Y-109384740D01*
X231067290Y-109389458D01*
X231067289Y-109389459D01*
X230956013Y-109522072D01*
X230945065Y-109535119D01*
X230942102Y-109540508D01*
X230942099Y-109540513D01*
X230872160Y-109667732D01*
X230850494Y-109707143D01*
X230848633Y-109713010D01*
X230848632Y-109713012D01*
X230810138Y-109834361D01*
X230791137Y-109894260D01*
X230769255Y-110089343D01*
X229243745Y-110089343D01*
X229243588Y-110041960D01*
X229236671Y-107952355D01*
X229236671Y-107952353D01*
X229236645Y-107944584D01*
X229236727Y-107944387D01*
X229236410Y-107943622D01*
X229236408Y-107943621D01*
X229236407Y-107943619D01*
X229236020Y-107943460D01*
X229235843Y-107943387D01*
X229235841Y-107943387D01*
X229235641Y-107943305D01*
X229235445Y-107943387D01*
X43815199Y-107943387D01*
X43815003Y-107943305D01*
X43814804Y-107943387D01*
X43814802Y-107943387D01*
X43814599Y-107943471D01*
X43814237Y-107943620D01*
X43814235Y-107943622D01*
X43813918Y-107944387D01*
X43814000Y-107944584D01*
X43803655Y-111226562D01*
X43801334Y-111963025D01*
X43781118Y-112031083D01*
X43759296Y-112056578D01*
X43722536Y-112089430D01*
X43722087Y-112089831D01*
X43721207Y-112090610D01*
X43568464Y-112224572D01*
X43558296Y-112232603D01*
X43441315Y-112315606D01*
X43438423Y-112317598D01*
X43328164Y-112391271D01*
X43299546Y-112410393D01*
X43290493Y-112415906D01*
X43159588Y-112488255D01*
X43154367Y-112490983D01*
X43009569Y-112562389D01*
X43002060Y-112565792D01*
X42862594Y-112623559D01*
X42854912Y-112626451D01*
X42702001Y-112678356D01*
X42696397Y-112680113D01*
X42552668Y-112721519D01*
X42542368Y-112724022D01*
X42378548Y-112756606D01*
X42375072Y-112757247D01*
X42233676Y-112781269D01*
X42220811Y-112782779D01*
X42197816Y-112784286D01*
X42018814Y-112796015D01*
X42017822Y-112796076D01*
X41913987Y-112801905D01*
X41906925Y-112802103D01*
X40644184Y-112802103D01*
X40637122Y-112801905D01*
X40535529Y-112796201D01*
X40534695Y-112796151D01*
X40357482Y-112784522D01*
X40330093Y-112782725D01*
X40317240Y-112781215D01*
X40177657Y-112757501D01*
X40174197Y-112756863D01*
X40173911Y-112756806D01*
X40104049Y-112742911D01*
X40008439Y-112723894D01*
X39998139Y-112721391D01*
X39855759Y-112680374D01*
X39850140Y-112678612D01*
X39695803Y-112626225D01*
X39688086Y-112623321D01*
X39549813Y-112566049D01*
X39542302Y-112562645D01*
X39396119Y-112490557D01*
X39390900Y-112487830D01*
X39261237Y-112416171D01*
X39252183Y-112410659D01*
X39233826Y-112398394D01*
X39111580Y-112316714D01*
X39108744Y-112314761D01*
X38993300Y-112232851D01*
X38983141Y-112224827D01*
X38827170Y-112088046D01*
X38826291Y-112087268D01*
X38804259Y-112067581D01*
X38791980Y-112056608D01*
X38754513Y-111996304D01*
X38749938Y-111963092D01*
X38747384Y-111226562D01*
X38743899Y-110221956D01*
X40269255Y-110221956D01*
X40269263Y-110222052D01*
X40269765Y-110228031D01*
X40269765Y-110228034D01*
X40275043Y-110290886D01*
X40285682Y-110417574D01*
X40287381Y-110423499D01*
X40301043Y-110471143D01*
X40339791Y-110606276D01*
X40342610Y-110611761D01*
X40426704Y-110775391D01*
X40426707Y-110775396D01*
X40429522Y-110780873D01*
X40551457Y-110934717D01*
X40556150Y-110938711D01*
X40556151Y-110938712D01*
X40694350Y-111056328D01*
X40700952Y-111061947D01*
X40706330Y-111064953D01*
X40706332Y-111064954D01*
X40735875Y-111081465D01*
X40872312Y-111157717D01*
X41059010Y-111218379D01*
X41253935Y-111241622D01*
X41260070Y-111241150D01*
X41260072Y-111241150D01*
X41443521Y-111227035D01*
X41443525Y-111227034D01*
X41449663Y-111226562D01*
X41455595Y-111224906D01*
X41455599Y-111224905D01*
X41544201Y-111200166D01*
X41638738Y-111173771D01*
X41813958Y-111085261D01*
X41821353Y-111079484D01*
X41963788Y-110968201D01*
X41963789Y-110968200D01*
X41968649Y-110964403D01*
X42083117Y-110831790D01*
X42092895Y-110820462D01*
X42092895Y-110820461D01*
X42096919Y-110815800D01*
X42104700Y-110802104D01*
X42133438Y-110751516D01*
X42193883Y-110645113D01*
X42255847Y-110458843D01*
X42272792Y-110324714D01*
X42280009Y-110267588D01*
X42280010Y-110267578D01*
X42280451Y-110264085D01*
X42280843Y-110236000D01*
X42261687Y-110040631D01*
X42204948Y-109852703D01*
X42128986Y-109709839D01*
X42115682Y-109684817D01*
X42115680Y-109684814D01*
X42112788Y-109679375D01*
X42108898Y-109674605D01*
X42108895Y-109674601D01*
X41992606Y-109532017D01*
X41992604Y-109532015D01*
X41988717Y-109527249D01*
X41837460Y-109402118D01*
X41664780Y-109308750D01*
X41477253Y-109250701D01*
X41471131Y-109250058D01*
X41471128Y-109250057D01*
X41288151Y-109230826D01*
X41288149Y-109230826D01*
X41282022Y-109230182D01*
X41162685Y-109241042D01*
X41092665Y-109247414D01*
X41092664Y-109247414D01*
X41086524Y-109247973D01*
X40898205Y-109303399D01*
X40724237Y-109394346D01*
X40719439Y-109398203D01*
X40719437Y-109398205D01*
X40576049Y-109513493D01*
X40576045Y-109513497D01*
X40571249Y-109517353D01*
X40567290Y-109522071D01*
X40567289Y-109522072D01*
X40543394Y-109550549D01*
X40445065Y-109667732D01*
X40442102Y-109673121D01*
X40442099Y-109673126D01*
X40416281Y-109720090D01*
X40350494Y-109839756D01*
X40348633Y-109845623D01*
X40348632Y-109845625D01*
X40292999Y-110021003D01*
X40291137Y-110026873D01*
X40269255Y-110221956D01*
X38743899Y-110221956D01*
X38736000Y-107944584D01*
X38736082Y-107944386D01*
X38735764Y-107943621D01*
X38735762Y-107943619D01*
X38735339Y-107943446D01*
X38735197Y-107943387D01*
X38735196Y-107943387D01*
X38734996Y-107943305D01*
X38734799Y-107943387D01*
X36862122Y-107945335D01*
X33342253Y-107948995D01*
X33332760Y-107948647D01*
X33282775Y-107944923D01*
X33216526Y-107939986D01*
X33215737Y-107939924D01*
X33103849Y-107930665D01*
X33086359Y-107927970D01*
X32969154Y-107901375D01*
X32966117Y-107900647D01*
X32900798Y-107884113D01*
X32859861Y-107873751D01*
X32845006Y-107868993D01*
X32761363Y-107836370D01*
X32732835Y-107825243D01*
X32728028Y-107823252D01*
X32627916Y-107779360D01*
X32615841Y-107773274D01*
X32511322Y-107713343D01*
X32505112Y-107709539D01*
X32413679Y-107649833D01*
X32404386Y-107643144D01*
X32351099Y-107600980D01*
X32309895Y-107568377D01*
X32302786Y-107562308D01*
X32222423Y-107488373D01*
X32215780Y-107481788D01*
X32133433Y-107393864D01*
X32125994Y-107385160D01*
X32058872Y-107298987D01*
X32054562Y-107293111D01*
X32004733Y-107220884D01*
X31986164Y-107193967D01*
X31979093Y-107182439D01*
X31927018Y-107086310D01*
X31924634Y-107081684D01*
X31871711Y-106973552D01*
X31865730Y-106959133D01*
X31830102Y-106855518D01*
X31829123Y-106852553D01*
X31792857Y-106737920D01*
X31788719Y-106720723D01*
X31770396Y-106611301D01*
X31770229Y-106610274D01*
X31752563Y-106499147D01*
X31751000Y-106479365D01*
X31751000Y-105440000D01*
X34288918Y-105440000D01*
X34289000Y-105440198D01*
X34289235Y-105440765D01*
X34290000Y-105441082D01*
X34290198Y-105441000D01*
X53052302Y-105441000D01*
X53052500Y-105441082D01*
X53053265Y-105440765D01*
X53053500Y-105440198D01*
X53053582Y-105440000D01*
X53338918Y-105440000D01*
X53339000Y-105440198D01*
X53339235Y-105440765D01*
X53340000Y-105441082D01*
X53340198Y-105441000D01*
X219739802Y-105441000D01*
X219740000Y-105441082D01*
X219740765Y-105440765D01*
X219741000Y-105440198D01*
X219741082Y-105440000D01*
X220026418Y-105440000D01*
X220026500Y-105440198D01*
X220026735Y-105440765D01*
X220027500Y-105441082D01*
X220027698Y-105441000D01*
X238789802Y-105441000D01*
X238790000Y-105441082D01*
X238790765Y-105440765D01*
X238791000Y-105440198D01*
X238791082Y-105440000D01*
X238791000Y-105439802D01*
X238791000Y-91440198D01*
X238791082Y-91440000D01*
X238790765Y-91439235D01*
X238790198Y-91439000D01*
X238790000Y-91438918D01*
X238789802Y-91439000D01*
X220027698Y-91439000D01*
X220027500Y-91438918D01*
X220027302Y-91439000D01*
X220026735Y-91439235D01*
X220026418Y-91440000D01*
X220026500Y-91440198D01*
X220026500Y-105439802D01*
X220026418Y-105440000D01*
X219741082Y-105440000D01*
X219741000Y-105439802D01*
X219741000Y-91440198D01*
X219741082Y-91440000D01*
X219740765Y-91439235D01*
X219740198Y-91439000D01*
X219740000Y-91438918D01*
X219739802Y-91439000D01*
X197317000Y-91439000D01*
X197248879Y-91418998D01*
X197202386Y-91365342D01*
X197191000Y-91313000D01*
X197191000Y-90440198D01*
X197191082Y-90440000D01*
X197190765Y-90439235D01*
X197190198Y-90439000D01*
X197190000Y-90438918D01*
X197189802Y-90439000D01*
X190190198Y-90439000D01*
X190190000Y-90438918D01*
X190189802Y-90439000D01*
X190189235Y-90439235D01*
X190188918Y-90440000D01*
X190189000Y-90440198D01*
X190189000Y-91313000D01*
X190168998Y-91381121D01*
X190115342Y-91427614D01*
X190063000Y-91439000D01*
X187792000Y-91439000D01*
X187723879Y-91418998D01*
X187677386Y-91365342D01*
X187666000Y-91313000D01*
X187666000Y-90440198D01*
X187666082Y-90440000D01*
X187665765Y-90439235D01*
X187665198Y-90439000D01*
X187665000Y-90438918D01*
X187664802Y-90439000D01*
X180665198Y-90439000D01*
X180665000Y-90438918D01*
X180664802Y-90439000D01*
X180664235Y-90439235D01*
X180663918Y-90440000D01*
X180664000Y-90440198D01*
X180664000Y-91313000D01*
X180643998Y-91381121D01*
X180590342Y-91427614D01*
X180538000Y-91439000D01*
X171155000Y-91439000D01*
X171086879Y-91418998D01*
X171040386Y-91365342D01*
X171029000Y-91313000D01*
X171029000Y-90440198D01*
X171029082Y-90440000D01*
X171028765Y-90439235D01*
X171028198Y-90439000D01*
X171028000Y-90438918D01*
X171027802Y-90439000D01*
X164028198Y-90439000D01*
X164028000Y-90438918D01*
X164027802Y-90439000D01*
X164027235Y-90439235D01*
X164026918Y-90440000D01*
X164027000Y-90440198D01*
X164027000Y-91313000D01*
X164006998Y-91381121D01*
X163953342Y-91427614D01*
X163901000Y-91439000D01*
X149692000Y-91439000D01*
X149623879Y-91418998D01*
X149577386Y-91365342D01*
X149566000Y-91313000D01*
X149566000Y-90440198D01*
X149566082Y-90440000D01*
X149565765Y-90439235D01*
X149565198Y-90439000D01*
X149565000Y-90438918D01*
X149564802Y-90439000D01*
X140152198Y-90439000D01*
X140152000Y-90438918D01*
X140151802Y-90439000D01*
X140151235Y-90439235D01*
X140150918Y-90440000D01*
X140151000Y-90440198D01*
X140151000Y-91313000D01*
X140130998Y-91381121D01*
X140077342Y-91427614D01*
X140025000Y-91439000D01*
X133055000Y-91439000D01*
X132986879Y-91418998D01*
X132940386Y-91365342D01*
X132929000Y-91313000D01*
X132929000Y-90440198D01*
X132929082Y-90440000D01*
X132928765Y-90439235D01*
X132928198Y-90439000D01*
X132928000Y-90438918D01*
X132927802Y-90439000D01*
X123515198Y-90439000D01*
X123515000Y-90438918D01*
X123514802Y-90439000D01*
X123514235Y-90439235D01*
X123513918Y-90440000D01*
X123514000Y-90440198D01*
X123514000Y-91313000D01*
X123493998Y-91381121D01*
X123440342Y-91427614D01*
X123388000Y-91439000D01*
X109179000Y-91439000D01*
X109110879Y-91418998D01*
X109064386Y-91365342D01*
X109053000Y-91313000D01*
X109053000Y-90440198D01*
X109053082Y-90440000D01*
X109052765Y-90439235D01*
X109052198Y-90439000D01*
X109052000Y-90438918D01*
X109051802Y-90439000D01*
X102052198Y-90439000D01*
X102052000Y-90438918D01*
X102051802Y-90439000D01*
X102051235Y-90439235D01*
X102050918Y-90440000D01*
X102051000Y-90440198D01*
X102051000Y-91313000D01*
X102030998Y-91381121D01*
X101977342Y-91427614D01*
X101925000Y-91439000D01*
X92542000Y-91439000D01*
X92473879Y-91418998D01*
X92427386Y-91365342D01*
X92416000Y-91313000D01*
X92416000Y-90440198D01*
X92416082Y-90440000D01*
X92415765Y-90439235D01*
X92415198Y-90439000D01*
X92415000Y-90438918D01*
X92414802Y-90439000D01*
X85415198Y-90439000D01*
X85415000Y-90438918D01*
X85414802Y-90439000D01*
X85414235Y-90439235D01*
X85413918Y-90440000D01*
X85414000Y-90440198D01*
X85414000Y-91313000D01*
X85393998Y-91381121D01*
X85340342Y-91427614D01*
X85288000Y-91439000D01*
X83017000Y-91439000D01*
X82948879Y-91418998D01*
X82902386Y-91365342D01*
X82891000Y-91313000D01*
X82891000Y-90440198D01*
X82891082Y-90440000D01*
X82890765Y-90439235D01*
X82890198Y-90439000D01*
X82890000Y-90438918D01*
X82889802Y-90439000D01*
X75890198Y-90439000D01*
X75890000Y-90438918D01*
X75889802Y-90439000D01*
X75889235Y-90439235D01*
X75888918Y-90440000D01*
X75889000Y-90440198D01*
X75889000Y-91313000D01*
X75868998Y-91381121D01*
X75815342Y-91427614D01*
X75763000Y-91439000D01*
X53340198Y-91439000D01*
X53340000Y-91438918D01*
X53339802Y-91439000D01*
X53339235Y-91439235D01*
X53338918Y-91440000D01*
X53339000Y-91440198D01*
X53339000Y-105439802D01*
X53338918Y-105440000D01*
X53053582Y-105440000D01*
X53053500Y-105439802D01*
X53053500Y-91440198D01*
X53053582Y-91440000D01*
X53053265Y-91439235D01*
X53052698Y-91439000D01*
X53052500Y-91438918D01*
X53052302Y-91439000D01*
X34290198Y-91439000D01*
X34290000Y-91438918D01*
X34289802Y-91439000D01*
X34289235Y-91439235D01*
X34288918Y-91440000D01*
X34289000Y-91440198D01*
X34289000Y-105439802D01*
X34288918Y-105440000D01*
X31751000Y-105440000D01*
X31751000Y-86390000D01*
X53338918Y-86390000D01*
X53339000Y-86390198D01*
X53339235Y-86390765D01*
X53340000Y-86391082D01*
X53340198Y-86391000D01*
X67339802Y-86391000D01*
X67340000Y-86391082D01*
X67340765Y-86390765D01*
X67341000Y-86390198D01*
X67341082Y-86390000D01*
X72388918Y-86390000D01*
X72389000Y-86390198D01*
X72389235Y-86390765D01*
X72390000Y-86391082D01*
X72390198Y-86391000D01*
X86389802Y-86391000D01*
X86390000Y-86391082D01*
X86390765Y-86390765D01*
X86391000Y-86390198D01*
X86391082Y-86390000D01*
X91438918Y-86390000D01*
X91439000Y-86390198D01*
X91439235Y-86390765D01*
X91440000Y-86391082D01*
X91440198Y-86391000D01*
X105439802Y-86391000D01*
X105440000Y-86391082D01*
X105440765Y-86390765D01*
X105441000Y-86390198D01*
X105441082Y-86390000D01*
X110488918Y-86390000D01*
X110489000Y-86390198D01*
X110489235Y-86390765D01*
X110490000Y-86391082D01*
X110490198Y-86391000D01*
X124489802Y-86391000D01*
X124490000Y-86391082D01*
X124490765Y-86390765D01*
X124491000Y-86390198D01*
X124491082Y-86390000D01*
X129538918Y-86390000D01*
X129539000Y-86390198D01*
X129539235Y-86390765D01*
X129540000Y-86391082D01*
X129540198Y-86391000D01*
X143539802Y-86391000D01*
X143540000Y-86391082D01*
X143540765Y-86390765D01*
X143541000Y-86390198D01*
X143541082Y-86390000D01*
X148588918Y-86390000D01*
X148589000Y-86390198D01*
X148589235Y-86390765D01*
X148590000Y-86391082D01*
X148590198Y-86391000D01*
X162589802Y-86391000D01*
X162590000Y-86391082D01*
X162590765Y-86390765D01*
X162591000Y-86390198D01*
X162591082Y-86390000D01*
X167638918Y-86390000D01*
X167639000Y-86390198D01*
X167639235Y-86390765D01*
X167640000Y-86391082D01*
X167640198Y-86391000D01*
X181639802Y-86391000D01*
X181640000Y-86391082D01*
X181640765Y-86390765D01*
X181641000Y-86390198D01*
X181641082Y-86390000D01*
X186688918Y-86390000D01*
X186689000Y-86390198D01*
X186689235Y-86390765D01*
X186690000Y-86391082D01*
X186690198Y-86391000D01*
X200689802Y-86391000D01*
X200690000Y-86391082D01*
X200690765Y-86390765D01*
X200691000Y-86390198D01*
X200691082Y-86390000D01*
X205738918Y-86390000D01*
X205739000Y-86390198D01*
X205739235Y-86390765D01*
X205740000Y-86391082D01*
X205740198Y-86391000D01*
X219739802Y-86391000D01*
X219740000Y-86391082D01*
X219740765Y-86390765D01*
X219741000Y-86390198D01*
X219741082Y-86390000D01*
X224788918Y-86390000D01*
X224789000Y-86390198D01*
X224789235Y-86390765D01*
X224790000Y-86391082D01*
X224790198Y-86391000D01*
X238789802Y-86391000D01*
X238790000Y-86391082D01*
X238790765Y-86390765D01*
X238791000Y-86390198D01*
X238791082Y-86390000D01*
X238791000Y-86389802D01*
X238791000Y-72390198D01*
X238791082Y-72390000D01*
X238790765Y-72389235D01*
X238790198Y-72389000D01*
X238790000Y-72388918D01*
X238789802Y-72389000D01*
X224790198Y-72389000D01*
X224790000Y-72388918D01*
X224789802Y-72389000D01*
X224789235Y-72389235D01*
X224788918Y-72390000D01*
X224789000Y-72390198D01*
X224789000Y-86389802D01*
X224788918Y-86390000D01*
X219741082Y-86390000D01*
X219741000Y-86389802D01*
X219741000Y-72390198D01*
X219741082Y-72390000D01*
X219740765Y-72389235D01*
X219740198Y-72389000D01*
X219740000Y-72388918D01*
X219739802Y-72389000D01*
X205740198Y-72389000D01*
X205740000Y-72388918D01*
X205739802Y-72389000D01*
X205739235Y-72389235D01*
X205738918Y-72390000D01*
X205739000Y-72390198D01*
X205739000Y-86389802D01*
X205738918Y-86390000D01*
X200691082Y-86390000D01*
X200691000Y-86389802D01*
X200691000Y-72390198D01*
X200691082Y-72390000D01*
X200690765Y-72389235D01*
X200690198Y-72389000D01*
X200690000Y-72388918D01*
X200689802Y-72389000D01*
X186690198Y-72389000D01*
X186690000Y-72388918D01*
X186689802Y-72389000D01*
X186689235Y-72389235D01*
X186688918Y-72390000D01*
X186689000Y-72390198D01*
X186689000Y-86389802D01*
X186688918Y-86390000D01*
X181641082Y-86390000D01*
X181641000Y-86389802D01*
X181641000Y-72390198D01*
X181641082Y-72390000D01*
X181640765Y-72389235D01*
X181640198Y-72389000D01*
X181640000Y-72388918D01*
X181639802Y-72389000D01*
X167640198Y-72389000D01*
X167640000Y-72388918D01*
X167639802Y-72389000D01*
X167639235Y-72389235D01*
X167638918Y-72390000D01*
X167639000Y-72390198D01*
X167639000Y-86389802D01*
X167638918Y-86390000D01*
X162591082Y-86390000D01*
X162591000Y-86389802D01*
X162591000Y-72390198D01*
X162591082Y-72390000D01*
X162590765Y-72389235D01*
X162590198Y-72389000D01*
X162590000Y-72388918D01*
X162589802Y-72389000D01*
X148590198Y-72389000D01*
X148590000Y-72388918D01*
X148589802Y-72389000D01*
X148589235Y-72389235D01*
X148588918Y-72390000D01*
X148589000Y-72390198D01*
X148589000Y-86389802D01*
X148588918Y-86390000D01*
X143541082Y-86390000D01*
X143541000Y-86389802D01*
X143541000Y-72390198D01*
X143541082Y-72390000D01*
X143540765Y-72389235D01*
X143540198Y-72389000D01*
X143540000Y-72388918D01*
X143539802Y-72389000D01*
X129540198Y-72389000D01*
X129540000Y-72388918D01*
X129539802Y-72389000D01*
X129539235Y-72389235D01*
X129538918Y-72390000D01*
X129539000Y-72390198D01*
X129539000Y-86389802D01*
X129538918Y-86390000D01*
X124491082Y-86390000D01*
X124491000Y-86389802D01*
X124491000Y-72390198D01*
X124491082Y-72390000D01*
X124490765Y-72389235D01*
X124490198Y-72389000D01*
X124490000Y-72388918D01*
X124489802Y-72389000D01*
X110490198Y-72389000D01*
X110490000Y-72388918D01*
X110489802Y-72389000D01*
X110489235Y-72389235D01*
X110488918Y-72390000D01*
X110489000Y-72390198D01*
X110489000Y-86389802D01*
X110488918Y-86390000D01*
X105441082Y-86390000D01*
X105441000Y-86389802D01*
X105441000Y-72390198D01*
X105441082Y-72390000D01*
X105440765Y-72389235D01*
X105440198Y-72389000D01*
X105440000Y-72388918D01*
X105439802Y-72389000D01*
X91440198Y-72389000D01*
X91440000Y-72388918D01*
X91439802Y-72389000D01*
X91439235Y-72389235D01*
X91438918Y-72390000D01*
X91439000Y-72390198D01*
X91439000Y-86389802D01*
X91438918Y-86390000D01*
X86391082Y-86390000D01*
X86391000Y-86389802D01*
X86391000Y-72390198D01*
X86391082Y-72390000D01*
X86390765Y-72389235D01*
X86390198Y-72389000D01*
X86390000Y-72388918D01*
X86389802Y-72389000D01*
X72390198Y-72389000D01*
X72390000Y-72388918D01*
X72389802Y-72389000D01*
X72389235Y-72389235D01*
X72388918Y-72390000D01*
X72389000Y-72390198D01*
X72389000Y-86389802D01*
X72388918Y-86390000D01*
X67341082Y-86390000D01*
X67341000Y-86389802D01*
X67341000Y-72390198D01*
X67341082Y-72390000D01*
X67340765Y-72389235D01*
X67340198Y-72389000D01*
X67340000Y-72388918D01*
X67339802Y-72389000D01*
X53340198Y-72389000D01*
X53340000Y-72388918D01*
X53339802Y-72389000D01*
X53339235Y-72389235D01*
X53338918Y-72390000D01*
X53339000Y-72390198D01*
X53339000Y-86389802D01*
X53338918Y-86390000D01*
X31751000Y-86390000D01*
X31751000Y-67340000D01*
X43813918Y-67340000D01*
X43814000Y-67340198D01*
X43814235Y-67340765D01*
X43815000Y-67341082D01*
X43815198Y-67341000D01*
X57814802Y-67341000D01*
X57815000Y-67341082D01*
X57815765Y-67340765D01*
X57816000Y-67340198D01*
X57816082Y-67340000D01*
X62863918Y-67340000D01*
X62864000Y-67340198D01*
X62864235Y-67340765D01*
X62865000Y-67341082D01*
X62865198Y-67341000D01*
X76864802Y-67341000D01*
X76865000Y-67341082D01*
X76865765Y-67340765D01*
X76866000Y-67340198D01*
X76866082Y-67340000D01*
X81913918Y-67340000D01*
X81914000Y-67340198D01*
X81914235Y-67340765D01*
X81915000Y-67341082D01*
X81915198Y-67341000D01*
X95914802Y-67341000D01*
X95915000Y-67341082D01*
X95915765Y-67340765D01*
X95916000Y-67340198D01*
X95916082Y-67340000D01*
X100963918Y-67340000D01*
X100964000Y-67340198D01*
X100964235Y-67340765D01*
X100965000Y-67341082D01*
X100965198Y-67341000D01*
X114964802Y-67341000D01*
X114965000Y-67341082D01*
X114965765Y-67340765D01*
X114966000Y-67340198D01*
X114966082Y-67340000D01*
X120013918Y-67340000D01*
X120014000Y-67340198D01*
X120014235Y-67340765D01*
X120015000Y-67341082D01*
X120015198Y-67341000D01*
X134014802Y-67341000D01*
X134015000Y-67341082D01*
X134015765Y-67340765D01*
X134016000Y-67340198D01*
X134016082Y-67340000D01*
X139063918Y-67340000D01*
X139064000Y-67340198D01*
X139064235Y-67340765D01*
X139065000Y-67341082D01*
X139065198Y-67341000D01*
X153064802Y-67341000D01*
X153065000Y-67341082D01*
X153065765Y-67340765D01*
X153066000Y-67340198D01*
X153066082Y-67340000D01*
X158113918Y-67340000D01*
X158114000Y-67340198D01*
X158114235Y-67340765D01*
X158115000Y-67341082D01*
X158115198Y-67341000D01*
X172114802Y-67341000D01*
X172115000Y-67341082D01*
X172115765Y-67340765D01*
X172116000Y-67340198D01*
X172116082Y-67340000D01*
X177163918Y-67340000D01*
X177164000Y-67340198D01*
X177164235Y-67340765D01*
X177165000Y-67341082D01*
X177165198Y-67341000D01*
X191164802Y-67341000D01*
X191165000Y-67341082D01*
X191165765Y-67340765D01*
X191166000Y-67340198D01*
X191166082Y-67340000D01*
X196213918Y-67340000D01*
X196214000Y-67340198D01*
X196214235Y-67340765D01*
X196215000Y-67341082D01*
X196215198Y-67341000D01*
X210214802Y-67341000D01*
X210215000Y-67341082D01*
X210215765Y-67340765D01*
X210216000Y-67340198D01*
X210216082Y-67340000D01*
X215263918Y-67340000D01*
X215264000Y-67340198D01*
X215264235Y-67340765D01*
X215265000Y-67341082D01*
X215265198Y-67341000D01*
X229264802Y-67341000D01*
X229265000Y-67341082D01*
X229265765Y-67340765D01*
X229266000Y-67340198D01*
X229266082Y-67340000D01*
X229266000Y-67339802D01*
X229266000Y-55577500D01*
X234296670Y-55577500D01*
X234315969Y-55871945D01*
X234373536Y-56161352D01*
X234468385Y-56440769D01*
X234598894Y-56705415D01*
X234762830Y-56950762D01*
X234957387Y-57172613D01*
X235179238Y-57367170D01*
X235424585Y-57531106D01*
X235428284Y-57532930D01*
X235428289Y-57532933D01*
X235564093Y-57599904D01*
X235689231Y-57661615D01*
X235693136Y-57662940D01*
X235693137Y-57662941D01*
X235964735Y-57755136D01*
X235964739Y-57755137D01*
X235968648Y-57756464D01*
X235972692Y-57757268D01*
X235972698Y-57757270D01*
X236254016Y-57813228D01*
X236254022Y-57813229D01*
X236258055Y-57814031D01*
X236262160Y-57814300D01*
X236262167Y-57814301D01*
X236548381Y-57833060D01*
X236552500Y-57833330D01*
X236556619Y-57833060D01*
X236842833Y-57814301D01*
X236842840Y-57814300D01*
X236846945Y-57814031D01*
X236850978Y-57813229D01*
X236850984Y-57813228D01*
X237132302Y-57757270D01*
X237132308Y-57757268D01*
X237136352Y-57756464D01*
X237140261Y-57755137D01*
X237140265Y-57755136D01*
X237411863Y-57662941D01*
X237411864Y-57662940D01*
X237415769Y-57661615D01*
X237540907Y-57599904D01*
X237676711Y-57532933D01*
X237676716Y-57532930D01*
X237680415Y-57531106D01*
X237925762Y-57367170D01*
X238147613Y-57172613D01*
X238342170Y-56950762D01*
X238506106Y-56705415D01*
X238636615Y-56440769D01*
X238731464Y-56161352D01*
X238789031Y-55871945D01*
X238808330Y-55577500D01*
X238789031Y-55283055D01*
X238731464Y-54993648D01*
X238636615Y-54714231D01*
X238506106Y-54449585D01*
X238342170Y-54204238D01*
X238147613Y-53982387D01*
X237925762Y-53787830D01*
X237680415Y-53623894D01*
X237676716Y-53622070D01*
X237676711Y-53622067D01*
X237428564Y-53499695D01*
X237415769Y-53493385D01*
X237411863Y-53492059D01*
X237140265Y-53399864D01*
X237140261Y-53399863D01*
X237136352Y-53398536D01*
X237132308Y-53397732D01*
X237132302Y-53397730D01*
X236850984Y-53341772D01*
X236850978Y-53341771D01*
X236846945Y-53340969D01*
X236842840Y-53340700D01*
X236842833Y-53340699D01*
X236556619Y-53321940D01*
X236552500Y-53321670D01*
X236548381Y-53321940D01*
X236262167Y-53340699D01*
X236262160Y-53340700D01*
X236258055Y-53340969D01*
X236254022Y-53341771D01*
X236254016Y-53341772D01*
X235972698Y-53397730D01*
X235972692Y-53397732D01*
X235968648Y-53398536D01*
X235964739Y-53399863D01*
X235964735Y-53399864D01*
X235693137Y-53492059D01*
X235689231Y-53493385D01*
X235676436Y-53499695D01*
X235428289Y-53622067D01*
X235428284Y-53622070D01*
X235424585Y-53623894D01*
X235179238Y-53787830D01*
X234957387Y-53982387D01*
X234762830Y-54204238D01*
X234598894Y-54449585D01*
X234468385Y-54714231D01*
X234373536Y-54993648D01*
X234315969Y-55283055D01*
X234296670Y-55577500D01*
X229266000Y-55577500D01*
X229266000Y-53340198D01*
X229266082Y-53340000D01*
X229265765Y-53339235D01*
X229265198Y-53339000D01*
X229265000Y-53338918D01*
X229264802Y-53339000D01*
X215265198Y-53339000D01*
X215265000Y-53338918D01*
X215264802Y-53339000D01*
X215264235Y-53339235D01*
X215263918Y-53340000D01*
X215264000Y-53340198D01*
X215264000Y-67339802D01*
X215263918Y-67340000D01*
X210216082Y-67340000D01*
X210216000Y-67339802D01*
X210216000Y-53340198D01*
X210216082Y-53340000D01*
X210215765Y-53339235D01*
X210215198Y-53339000D01*
X210215000Y-53338918D01*
X210214802Y-53339000D01*
X196215198Y-53339000D01*
X196215000Y-53338918D01*
X196214802Y-53339000D01*
X196214235Y-53339235D01*
X196213918Y-53340000D01*
X196214000Y-53340198D01*
X196214000Y-67339802D01*
X196213918Y-67340000D01*
X191166082Y-67340000D01*
X191166000Y-67339802D01*
X191166000Y-53340198D01*
X191166082Y-53340000D01*
X191165765Y-53339235D01*
X191165198Y-53339000D01*
X191165000Y-53338918D01*
X191164802Y-53339000D01*
X177165198Y-53339000D01*
X177165000Y-53338918D01*
X177164802Y-53339000D01*
X177164235Y-53339235D01*
X177163918Y-53340000D01*
X177164000Y-53340198D01*
X177164000Y-67339802D01*
X177163918Y-67340000D01*
X172116082Y-67340000D01*
X172116000Y-67339802D01*
X172116000Y-53340198D01*
X172116082Y-53340000D01*
X172115765Y-53339235D01*
X172115198Y-53339000D01*
X172115000Y-53338918D01*
X172114802Y-53339000D01*
X158115198Y-53339000D01*
X158115000Y-53338918D01*
X158114802Y-53339000D01*
X158114235Y-53339235D01*
X158113918Y-53340000D01*
X158114000Y-53340198D01*
X158114000Y-67339802D01*
X158113918Y-67340000D01*
X153066082Y-67340000D01*
X153066000Y-67339802D01*
X153066000Y-53340198D01*
X153066082Y-53340000D01*
X153065765Y-53339235D01*
X153065198Y-53339000D01*
X153065000Y-53338918D01*
X153064802Y-53339000D01*
X139065198Y-53339000D01*
X139065000Y-53338918D01*
X139064802Y-53339000D01*
X139064235Y-53339235D01*
X139063918Y-53340000D01*
X139064000Y-53340198D01*
X139064000Y-67339802D01*
X139063918Y-67340000D01*
X134016082Y-67340000D01*
X134016000Y-67339802D01*
X134016000Y-53340198D01*
X134016082Y-53340000D01*
X134015765Y-53339235D01*
X134015198Y-53339000D01*
X134015000Y-53338918D01*
X134014802Y-53339000D01*
X120015198Y-53339000D01*
X120015000Y-53338918D01*
X120014802Y-53339000D01*
X120014235Y-53339235D01*
X120013918Y-53340000D01*
X120014000Y-53340198D01*
X120014000Y-67339802D01*
X120013918Y-67340000D01*
X114966082Y-67340000D01*
X114966000Y-67339802D01*
X114966000Y-53340198D01*
X114966082Y-53340000D01*
X114965765Y-53339235D01*
X114965198Y-53339000D01*
X114965000Y-53338918D01*
X114964802Y-53339000D01*
X100965198Y-53339000D01*
X100965000Y-53338918D01*
X100964802Y-53339000D01*
X100964235Y-53339235D01*
X100963918Y-53340000D01*
X100964000Y-53340198D01*
X100964000Y-67339802D01*
X100963918Y-67340000D01*
X95916082Y-67340000D01*
X95916000Y-67339802D01*
X95916000Y-53340198D01*
X95916082Y-53340000D01*
X95915765Y-53339235D01*
X95915198Y-53339000D01*
X95915000Y-53338918D01*
X95914802Y-53339000D01*
X81915198Y-53339000D01*
X81915000Y-53338918D01*
X81914802Y-53339000D01*
X81914235Y-53339235D01*
X81913918Y-53340000D01*
X81914000Y-53340198D01*
X81914000Y-67339802D01*
X81913918Y-67340000D01*
X76866082Y-67340000D01*
X76866000Y-67339802D01*
X76866000Y-53340198D01*
X76866082Y-53340000D01*
X76865765Y-53339235D01*
X76865198Y-53339000D01*
X76865000Y-53338918D01*
X76864802Y-53339000D01*
X62865198Y-53339000D01*
X62865000Y-53338918D01*
X62864802Y-53339000D01*
X62864235Y-53339235D01*
X62863918Y-53340000D01*
X62864000Y-53340198D01*
X62864000Y-67339802D01*
X62863918Y-67340000D01*
X57816082Y-67340000D01*
X57816000Y-67339802D01*
X57816000Y-53340198D01*
X57816082Y-53340000D01*
X57815765Y-53339235D01*
X57815198Y-53339000D01*
X57815000Y-53338918D01*
X57814802Y-53339000D01*
X43815198Y-53339000D01*
X43815000Y-53338918D01*
X43814802Y-53339000D01*
X43814235Y-53339235D01*
X43813918Y-53340000D01*
X43814000Y-53340198D01*
X43814000Y-67339802D01*
X43813918Y-67340000D01*
X31751000Y-67340000D01*
X31751000Y-48290000D01*
X34288918Y-48290000D01*
X34289000Y-48290198D01*
X34289235Y-48290765D01*
X34290000Y-48291082D01*
X34290198Y-48291000D01*
X48289802Y-48291000D01*
X48290000Y-48291082D01*
X48290765Y-48290765D01*
X48291000Y-48290198D01*
X48291082Y-48290000D01*
X53338918Y-48290000D01*
X53339000Y-48290198D01*
X53339235Y-48290765D01*
X53340000Y-48291082D01*
X53340198Y-48291000D01*
X67339802Y-48291000D01*
X67340000Y-48291082D01*
X67340765Y-48290765D01*
X67341000Y-48290198D01*
X67341082Y-48290000D01*
X72388918Y-48290000D01*
X72389000Y-48290198D01*
X72389235Y-48290765D01*
X72390000Y-48291082D01*
X72390198Y-48291000D01*
X86389802Y-48291000D01*
X86390000Y-48291082D01*
X86390765Y-48290765D01*
X86391000Y-48290198D01*
X86391082Y-48290000D01*
X91438918Y-48290000D01*
X91439000Y-48290198D01*
X91439235Y-48290765D01*
X91440000Y-48291082D01*
X91440198Y-48291000D01*
X105439802Y-48291000D01*
X105440000Y-48291082D01*
X105440765Y-48290765D01*
X105441000Y-48290198D01*
X105441082Y-48290000D01*
X110488918Y-48290000D01*
X110489000Y-48290198D01*
X110489235Y-48290765D01*
X110490000Y-48291082D01*
X110490198Y-48291000D01*
X124489802Y-48291000D01*
X124490000Y-48291082D01*
X124490765Y-48290765D01*
X124491000Y-48290198D01*
X124491082Y-48290000D01*
X129538918Y-48290000D01*
X129539000Y-48290198D01*
X129539235Y-48290765D01*
X129540000Y-48291082D01*
X129540198Y-48291000D01*
X143539802Y-48291000D01*
X143540000Y-48291082D01*
X143540765Y-48290765D01*
X143541000Y-48290198D01*
X143541082Y-48290000D01*
X148588918Y-48290000D01*
X148589000Y-48290198D01*
X148589235Y-48290765D01*
X148590000Y-48291082D01*
X148590198Y-48291000D01*
X162589802Y-48291000D01*
X162590000Y-48291082D01*
X162590765Y-48290765D01*
X162591000Y-48290198D01*
X162591082Y-48290000D01*
X167638918Y-48290000D01*
X167639000Y-48290198D01*
X167639235Y-48290765D01*
X167640000Y-48291082D01*
X167640198Y-48291000D01*
X181639802Y-48291000D01*
X181640000Y-48291082D01*
X181640765Y-48290765D01*
X181641000Y-48290198D01*
X181641082Y-48290000D01*
X186688918Y-48290000D01*
X186689000Y-48290198D01*
X186689235Y-48290765D01*
X186690000Y-48291082D01*
X186690198Y-48291000D01*
X200689802Y-48291000D01*
X200690000Y-48291082D01*
X200690765Y-48290765D01*
X200691000Y-48290198D01*
X200691082Y-48290000D01*
X205738918Y-48290000D01*
X205739000Y-48290198D01*
X205739235Y-48290765D01*
X205740000Y-48291082D01*
X205740198Y-48291000D01*
X219739802Y-48291000D01*
X219740000Y-48291082D01*
X219740765Y-48290765D01*
X219741000Y-48290198D01*
X219741082Y-48290000D01*
X219741000Y-48289802D01*
X219741000Y-44462584D01*
X234293967Y-44462584D01*
X234313266Y-44757029D01*
X234370833Y-45046436D01*
X234465682Y-45325853D01*
X234596191Y-45590499D01*
X234760127Y-45835846D01*
X234954684Y-46057697D01*
X235176535Y-46252254D01*
X235421882Y-46416190D01*
X235425581Y-46418014D01*
X235425586Y-46418017D01*
X235561390Y-46484988D01*
X235686528Y-46546699D01*
X235690433Y-46548024D01*
X235690434Y-46548025D01*
X235962032Y-46640220D01*
X235962036Y-46640221D01*
X235965945Y-46641548D01*
X235969989Y-46642352D01*
X235969995Y-46642354D01*
X236251313Y-46698312D01*
X236251319Y-46698313D01*
X236255352Y-46699115D01*
X236259457Y-46699384D01*
X236259464Y-46699385D01*
X236545678Y-46718144D01*
X236549797Y-46718414D01*
X236553916Y-46718144D01*
X236840130Y-46699385D01*
X236840137Y-46699384D01*
X236844242Y-46699115D01*
X236848275Y-46698313D01*
X236848281Y-46698312D01*
X237129599Y-46642354D01*
X237129605Y-46642352D01*
X237133649Y-46641548D01*
X237137558Y-46640221D01*
X237137562Y-46640220D01*
X237409160Y-46548025D01*
X237409161Y-46548024D01*
X237413066Y-46546699D01*
X237538204Y-46484988D01*
X237674008Y-46418017D01*
X237674013Y-46418014D01*
X237677712Y-46416190D01*
X237923059Y-46252254D01*
X238144910Y-46057697D01*
X238339467Y-45835846D01*
X238503403Y-45590499D01*
X238633912Y-45325853D01*
X238728761Y-45046436D01*
X238786328Y-44757029D01*
X238805627Y-44462584D01*
X238786328Y-44168139D01*
X238728761Y-43878732D01*
X238633912Y-43599315D01*
X238503403Y-43334669D01*
X238339467Y-43089322D01*
X238144910Y-42867471D01*
X237923059Y-42672914D01*
X237677712Y-42508978D01*
X237674013Y-42507154D01*
X237674008Y-42507151D01*
X237425861Y-42384779D01*
X237413066Y-42378469D01*
X237409160Y-42377143D01*
X237137562Y-42284948D01*
X237137558Y-42284947D01*
X237133649Y-42283620D01*
X237129605Y-42282816D01*
X237129599Y-42282814D01*
X236848281Y-42226856D01*
X236848275Y-42226855D01*
X236844242Y-42226053D01*
X236840137Y-42225784D01*
X236840130Y-42225783D01*
X236553916Y-42207024D01*
X236549797Y-42206754D01*
X236545678Y-42207024D01*
X236259464Y-42225783D01*
X236259457Y-42225784D01*
X236255352Y-42226053D01*
X236251319Y-42226855D01*
X236251313Y-42226856D01*
X235969995Y-42282814D01*
X235969989Y-42282816D01*
X235965945Y-42283620D01*
X235962036Y-42284947D01*
X235962032Y-42284948D01*
X235690434Y-42377143D01*
X235686528Y-42378469D01*
X235673733Y-42384779D01*
X235425586Y-42507151D01*
X235425581Y-42507154D01*
X235421882Y-42508978D01*
X235176535Y-42672914D01*
X234954684Y-42867471D01*
X234760127Y-43089322D01*
X234596191Y-43334669D01*
X234465682Y-43599315D01*
X234370833Y-43878732D01*
X234313266Y-44168139D01*
X234293967Y-44462584D01*
X219741000Y-44462584D01*
X219741000Y-38112584D01*
X234316531Y-38112584D01*
X234335830Y-38407029D01*
X234393397Y-38696436D01*
X234488246Y-38975853D01*
X234618755Y-39240499D01*
X234782691Y-39485846D01*
X234977248Y-39707697D01*
X235199099Y-39902254D01*
X235444446Y-40066190D01*
X235448145Y-40068014D01*
X235448150Y-40068017D01*
X235583954Y-40134988D01*
X235709092Y-40196699D01*
X235712997Y-40198024D01*
X235712998Y-40198025D01*
X235984596Y-40290220D01*
X235984600Y-40290221D01*
X235988509Y-40291548D01*
X235992553Y-40292352D01*
X235992559Y-40292354D01*
X236273877Y-40348312D01*
X236273883Y-40348313D01*
X236277916Y-40349115D01*
X236282021Y-40349384D01*
X236282028Y-40349385D01*
X236568242Y-40368144D01*
X236572361Y-40368414D01*
X236576480Y-40368144D01*
X236862694Y-40349385D01*
X236862701Y-40349384D01*
X236866806Y-40349115D01*
X236870839Y-40348313D01*
X236870845Y-40348312D01*
X237152163Y-40292354D01*
X237152169Y-40292352D01*
X237156213Y-40291548D01*
X237160122Y-40290221D01*
X237160126Y-40290220D01*
X237431724Y-40198025D01*
X237431725Y-40198024D01*
X237435630Y-40196699D01*
X237560768Y-40134988D01*
X237696572Y-40068017D01*
X237696577Y-40068014D01*
X237700276Y-40066190D01*
X237945623Y-39902254D01*
X238167474Y-39707697D01*
X238362031Y-39485846D01*
X238525967Y-39240499D01*
X238656476Y-38975853D01*
X238751325Y-38696436D01*
X238808892Y-38407029D01*
X238828191Y-38112584D01*
X238808892Y-37818139D01*
X238751325Y-37528732D01*
X238656476Y-37249315D01*
X238525967Y-36984669D01*
X238362031Y-36739322D01*
X238167474Y-36517471D01*
X237945623Y-36322914D01*
X237700276Y-36158978D01*
X237696577Y-36157154D01*
X237696572Y-36157151D01*
X237448425Y-36034779D01*
X237435630Y-36028469D01*
X237431724Y-36027143D01*
X237160126Y-35934948D01*
X237160122Y-35934947D01*
X237156213Y-35933620D01*
X237152169Y-35932816D01*
X237152163Y-35932814D01*
X236870845Y-35876856D01*
X236870839Y-35876855D01*
X236866806Y-35876053D01*
X236862701Y-35875784D01*
X236862694Y-35875783D01*
X236576480Y-35857024D01*
X236572361Y-35856754D01*
X236568242Y-35857024D01*
X236282028Y-35875783D01*
X236282021Y-35875784D01*
X236277916Y-35876053D01*
X236273883Y-35876855D01*
X236273877Y-35876856D01*
X235992559Y-35932814D01*
X235992553Y-35932816D01*
X235988509Y-35933620D01*
X235984600Y-35934947D01*
X235984596Y-35934948D01*
X235712998Y-36027143D01*
X235709092Y-36028469D01*
X235696297Y-36034779D01*
X235448150Y-36157151D01*
X235448145Y-36157154D01*
X235444446Y-36158978D01*
X235199099Y-36322914D01*
X234977248Y-36517471D01*
X234782691Y-36739322D01*
X234618755Y-36984669D01*
X234488246Y-37249315D01*
X234393397Y-37528732D01*
X234335830Y-37818139D01*
X234316531Y-38112584D01*
X219741000Y-38112584D01*
X219741000Y-34290198D01*
X219741082Y-34290000D01*
X219740765Y-34289235D01*
X219740198Y-34289000D01*
X219740000Y-34288918D01*
X219739802Y-34289000D01*
X205740198Y-34289000D01*
X205740000Y-34288918D01*
X205739802Y-34289000D01*
X205739235Y-34289235D01*
X205738918Y-34290000D01*
X205739000Y-34290198D01*
X205739000Y-48289802D01*
X205738918Y-48290000D01*
X200691082Y-48290000D01*
X200691000Y-48289802D01*
X200691000Y-34290198D01*
X200691082Y-34290000D01*
X200690765Y-34289235D01*
X200690198Y-34289000D01*
X200690000Y-34288918D01*
X200689802Y-34289000D01*
X186690198Y-34289000D01*
X186690000Y-34288918D01*
X186689802Y-34289000D01*
X186689235Y-34289235D01*
X186688918Y-34290000D01*
X186689000Y-34290198D01*
X186689000Y-48289802D01*
X186688918Y-48290000D01*
X181641082Y-48290000D01*
X181641000Y-48289802D01*
X181641000Y-34290198D01*
X181641082Y-34290000D01*
X181640765Y-34289235D01*
X181640198Y-34289000D01*
X181640000Y-34288918D01*
X181639802Y-34289000D01*
X167640198Y-34289000D01*
X167640000Y-34288918D01*
X167639802Y-34289000D01*
X167639235Y-34289235D01*
X167638918Y-34290000D01*
X167639000Y-34290198D01*
X167639000Y-48289802D01*
X167638918Y-48290000D01*
X162591082Y-48290000D01*
X162591000Y-48289802D01*
X162591000Y-34290198D01*
X162591082Y-34290000D01*
X162590765Y-34289235D01*
X162590198Y-34289000D01*
X162590000Y-34288918D01*
X162589802Y-34289000D01*
X148590198Y-34289000D01*
X148590000Y-34288918D01*
X148589802Y-34289000D01*
X148589235Y-34289235D01*
X148588918Y-34290000D01*
X148589000Y-34290198D01*
X148589000Y-48289802D01*
X148588918Y-48290000D01*
X143541082Y-48290000D01*
X143541000Y-48289802D01*
X143541000Y-34290198D01*
X143541082Y-34290000D01*
X143540765Y-34289235D01*
X143540198Y-34289000D01*
X143540000Y-34288918D01*
X143539802Y-34289000D01*
X129540198Y-34289000D01*
X129540000Y-34288918D01*
X129539802Y-34289000D01*
X129539235Y-34289235D01*
X129538918Y-34290000D01*
X129539000Y-34290198D01*
X129539000Y-48289802D01*
X129538918Y-48290000D01*
X124491082Y-48290000D01*
X124491000Y-48289802D01*
X124491000Y-34290198D01*
X124491082Y-34290000D01*
X124490765Y-34289235D01*
X124490198Y-34289000D01*
X124490000Y-34288918D01*
X124489802Y-34289000D01*
X110490198Y-34289000D01*
X110490000Y-34288918D01*
X110489802Y-34289000D01*
X110489235Y-34289235D01*
X110488918Y-34290000D01*
X110489000Y-34290198D01*
X110489000Y-48289802D01*
X110488918Y-48290000D01*
X105441082Y-48290000D01*
X105441000Y-48289802D01*
X105441000Y-34290198D01*
X105441082Y-34290000D01*
X105440765Y-34289235D01*
X105440198Y-34289000D01*
X105440000Y-34288918D01*
X105439802Y-34289000D01*
X91440198Y-34289000D01*
X91440000Y-34288918D01*
X91439802Y-34289000D01*
X91439235Y-34289235D01*
X91438918Y-34290000D01*
X91439000Y-34290198D01*
X91439000Y-48289802D01*
X91438918Y-48290000D01*
X86391082Y-48290000D01*
X86391000Y-48289802D01*
X86391000Y-34290198D01*
X86391082Y-34290000D01*
X86390765Y-34289235D01*
X86390198Y-34289000D01*
X86390000Y-34288918D01*
X86389802Y-34289000D01*
X72390198Y-34289000D01*
X72390000Y-34288918D01*
X72389802Y-34289000D01*
X72389235Y-34289235D01*
X72388918Y-34290000D01*
X72389000Y-34290198D01*
X72389000Y-48289802D01*
X72388918Y-48290000D01*
X67341082Y-48290000D01*
X67341000Y-48289802D01*
X67341000Y-34290198D01*
X67341082Y-34290000D01*
X67340765Y-34289235D01*
X67340198Y-34289000D01*
X67340000Y-34288918D01*
X67339802Y-34289000D01*
X53340198Y-34289000D01*
X53340000Y-34288918D01*
X53339802Y-34289000D01*
X53339235Y-34289235D01*
X53338918Y-34290000D01*
X53339000Y-34290198D01*
X53339000Y-48289802D01*
X53338918Y-48290000D01*
X48291082Y-48290000D01*
X48291000Y-48289802D01*
X48291000Y-34290198D01*
X48291082Y-34290000D01*
X48290765Y-34289235D01*
X48290198Y-34289000D01*
X48290000Y-34288918D01*
X48289802Y-34289000D01*
X34290198Y-34289000D01*
X34290000Y-34288918D01*
X34289802Y-34289000D01*
X34289235Y-34289235D01*
X34288918Y-34290000D01*
X34289000Y-34290198D01*
X34289000Y-48289802D01*
X34288918Y-48290000D01*
X31751000Y-48290000D01*
X31751000Y-33342000D01*
X31751321Y-33333011D01*
X31760923Y-33198763D01*
X31760990Y-33197867D01*
X31767451Y-33115769D01*
X31769943Y-33098871D01*
X31795986Y-32979154D01*
X31796587Y-32976523D01*
X31819000Y-32883165D01*
X31823464Y-32868546D01*
X31865349Y-32756250D01*
X31866995Y-32752066D01*
X31904708Y-32661016D01*
X31910530Y-32648847D01*
X31967477Y-32544557D01*
X31970631Y-32539108D01*
X32022620Y-32454270D01*
X32029185Y-32444595D01*
X32100111Y-32349850D01*
X32105167Y-32343530D01*
X32170029Y-32267585D01*
X32176746Y-32260320D01*
X32260320Y-32176746D01*
X32267585Y-32170029D01*
X32343530Y-32105167D01*
X32349850Y-32100111D01*
X32444595Y-32029185D01*
X32454270Y-32022620D01*
X32539108Y-31970631D01*
X32544557Y-31967477D01*
X32648847Y-31910530D01*
X32661016Y-31904708D01*
X32752066Y-31866995D01*
X32756250Y-31865349D01*
X32868546Y-31823464D01*
X32883163Y-31819001D01*
X32928332Y-31808156D01*
X32976523Y-31796587D01*
X32979154Y-31795986D01*
X33098871Y-31769943D01*
X33115769Y-31767451D01*
X33197867Y-31760990D01*
X33198763Y-31760923D01*
X33333011Y-31751321D01*
X33342000Y-31751000D01*
X38734801Y-31751000D01*
X38734997Y-31751082D01*
X38735196Y-31751000D01*
X38735198Y-31751000D01*
X38735401Y-31750916D01*
X38735763Y-31750767D01*
X38735765Y-31750765D01*
X38735952Y-31750313D01*
X38735999Y-31750201D01*
X38735999Y-31750200D01*
X38736082Y-31750000D01*
X38736000Y-31749803D01*
X38740055Y-30463537D01*
X38743267Y-29444343D01*
X40269255Y-29444343D01*
X40269263Y-29444439D01*
X40269765Y-29450418D01*
X40269765Y-29450421D01*
X40273087Y-29489975D01*
X40285682Y-29639961D01*
X40339791Y-29828663D01*
X40342610Y-29834148D01*
X40426704Y-29997778D01*
X40426707Y-29997783D01*
X40429522Y-30003260D01*
X40551457Y-30157104D01*
X40556150Y-30161098D01*
X40556151Y-30161099D01*
X40694350Y-30278715D01*
X40700952Y-30284334D01*
X40706330Y-30287340D01*
X40706332Y-30287341D01*
X40735875Y-30303852D01*
X40872312Y-30380104D01*
X41059010Y-30440766D01*
X41253935Y-30464009D01*
X41260070Y-30463537D01*
X41260072Y-30463537D01*
X41443521Y-30449422D01*
X41443525Y-30449421D01*
X41449663Y-30448949D01*
X41455595Y-30447293D01*
X41455599Y-30447292D01*
X41544200Y-30422554D01*
X41638738Y-30396158D01*
X41813958Y-30307648D01*
X41821353Y-30301871D01*
X41963788Y-30190588D01*
X41963789Y-30190587D01*
X41968649Y-30186790D01*
X42096919Y-30038187D01*
X42193883Y-29867500D01*
X42255847Y-29681230D01*
X42261836Y-29633819D01*
X42280009Y-29489975D01*
X42280010Y-29489965D01*
X42280451Y-29486472D01*
X42280843Y-29458387D01*
X42261687Y-29263018D01*
X42204948Y-29075090D01*
X42112788Y-28901762D01*
X42108898Y-28896992D01*
X42108895Y-28896988D01*
X41992606Y-28754404D01*
X41992604Y-28754402D01*
X41988717Y-28749636D01*
X41837460Y-28624505D01*
X41664780Y-28531137D01*
X41477253Y-28473088D01*
X41471131Y-28472445D01*
X41471128Y-28472444D01*
X41288151Y-28453213D01*
X41288149Y-28453213D01*
X41282022Y-28452569D01*
X41162685Y-28463429D01*
X41092665Y-28469801D01*
X41092664Y-28469801D01*
X41086524Y-28470360D01*
X40898205Y-28525786D01*
X40724237Y-28616733D01*
X40719439Y-28620590D01*
X40719437Y-28620592D01*
X40576049Y-28735880D01*
X40576045Y-28735884D01*
X40571249Y-28739740D01*
X40567290Y-28744458D01*
X40567289Y-28744459D01*
X40566235Y-28745715D01*
X40445065Y-28890119D01*
X40442102Y-28895508D01*
X40442099Y-28895513D01*
X40438664Y-28901762D01*
X40350494Y-29062143D01*
X40348633Y-29068010D01*
X40348632Y-29068012D01*
X40292999Y-29243390D01*
X40291137Y-29249260D01*
X40269255Y-29444343D01*
X38743267Y-29444343D01*
X38748666Y-27731363D01*
X38768882Y-27663305D01*
X38790705Y-27637809D01*
X38828045Y-27604440D01*
X38828923Y-27603663D01*
X38981504Y-27469840D01*
X38991673Y-27461808D01*
X39108805Y-27378698D01*
X39111716Y-27376693D01*
X39111956Y-27376533D01*
X39250417Y-27284016D01*
X39259471Y-27278503D01*
X39390481Y-27206097D01*
X39395701Y-27203369D01*
X39540381Y-27132021D01*
X39547892Y-27128618D01*
X39687440Y-27070817D01*
X39695157Y-27067912D01*
X39847919Y-27016058D01*
X39853539Y-27014296D01*
X39997376Y-26972859D01*
X40007676Y-26970356D01*
X40171315Y-26937808D01*
X40174792Y-26937167D01*
X40316362Y-26913116D01*
X40329226Y-26911606D01*
X40530689Y-26898405D01*
X40531865Y-26898333D01*
X40636075Y-26892482D01*
X40643138Y-26892284D01*
X41905815Y-26892284D01*
X41912877Y-26892482D01*
G37*
%TD.AperFunction*%
M02*
