%TF.GenerationSoftware,KiCad,Pcbnew,(6.0.7)*%
%TF.CreationDate,2023-01-01T22:38:36+01:00*%
%TF.ProjectId,Didaktik multilayout switchplate,44696461-6b74-4696-9b20-6d756c74696c,rev?*%
%TF.SameCoordinates,Original*%
%TF.FileFunction,Legend,Top*%
%TF.FilePolarity,Positive*%
%FSLAX46Y46*%
G04 Gerber Fmt 4.6, Leading zero omitted, Abs format (unit mm)*
G04 Created by KiCad (PCBNEW (6.0.7)) date 2023-01-01 22:38:36*
%MOMM*%
%LPD*%
G01*
G04 APERTURE LIST*
%TA.AperFunction,Profile*%
%ADD10C,0.200000*%
%TD*%
%TA.AperFunction,Profile*%
%ADD11C,0.150000*%
%TD*%
%ADD12C,0.150000*%
G04 APERTURE END LIST*
D10*
X238790000Y-105440000D02*
X238790000Y-91440000D01*
X125928000Y-105440000D02*
X129252500Y-105440000D01*
X76865000Y-53340000D02*
X62865000Y-53340000D01*
X148590000Y-72390000D02*
X148590000Y-86390000D01*
X110490000Y-72390000D02*
X110490000Y-86390000D01*
X224790000Y-86390000D02*
X238790000Y-86390000D01*
X34290000Y-91440000D02*
X34290000Y-105440000D01*
X129540000Y-105440000D02*
X130515000Y-105440000D01*
X191165000Y-105440000D02*
X196215000Y-105440000D01*
X229235645Y-107944387D02*
X43815000Y-107944387D01*
X229249132Y-112019616D02*
G75*
G03*
X231140645Y-112803103I1891468J1891416D01*
G01*
X41910645Y-112803103D02*
X40640645Y-112803103D01*
X110490000Y-91440000D02*
X109052000Y-91440000D01*
X92415000Y-90440000D02*
X85415000Y-90440000D01*
X200690000Y-48290000D02*
X200690000Y-34290000D01*
X238790000Y-91440000D02*
X234027500Y-91440000D01*
X205740000Y-86390000D02*
X219740000Y-86390000D01*
X196215000Y-67340000D02*
X210215000Y-67340000D01*
X177165000Y-53340000D02*
X177165000Y-67340000D01*
X33337500Y-31750000D02*
X38735000Y-31750000D01*
X72390000Y-105440000D02*
X75890000Y-105440000D01*
X124490000Y-48290000D02*
X124490000Y-34290000D01*
X172115000Y-105440000D02*
X177165000Y-105440000D01*
X129540000Y-72390000D02*
X129540000Y-86390000D01*
X171028000Y-91440000D02*
X171028000Y-90440000D01*
X82890000Y-105440000D02*
X85415000Y-105440000D01*
X190190000Y-91440000D02*
X187665000Y-91440000D01*
X95915000Y-67340000D02*
X95915000Y-53340000D01*
X148590000Y-48290000D02*
X162590000Y-48290000D01*
X181640000Y-34290000D02*
X167640000Y-34290000D01*
X114965000Y-91440000D02*
X110490000Y-91440000D01*
X53052500Y-91440000D02*
X48290000Y-91440000D01*
X172115000Y-91440000D02*
X171028000Y-91440000D01*
X62865000Y-53340000D02*
X62865000Y-67340000D01*
X134015000Y-91440000D02*
X132928000Y-91440000D01*
X186690000Y-86390000D02*
X200690000Y-86390000D01*
X229265000Y-67340000D02*
X229265000Y-53340000D01*
X86390000Y-105440000D02*
X91440000Y-105440000D01*
X43815000Y-53340000D02*
X43815000Y-67340000D01*
X162590000Y-91440000D02*
X158115000Y-91440000D01*
X177165000Y-105440000D02*
X180665000Y-105440000D01*
X124490000Y-34290000D02*
X110490000Y-34290000D01*
X162590000Y-105440000D02*
X164028000Y-105440000D01*
X41910645Y-112803093D02*
G75*
G03*
X43802156Y-112019614I55J2674893D01*
G01*
X187665000Y-90440000D02*
X180665000Y-90440000D01*
X148590000Y-34290000D02*
X148590000Y-48290000D01*
X43800850Y-27674789D02*
G75*
G03*
X41909355Y-26891284I-1891450J-1891311D01*
G01*
X120015000Y-105440000D02*
X123515000Y-105440000D01*
X186690000Y-72390000D02*
X186690000Y-86390000D01*
X91440000Y-34290000D02*
X91440000Y-48290000D01*
X172115000Y-67340000D02*
X172115000Y-53340000D01*
X241300000Y-33337500D02*
G75*
G03*
X239712500Y-31750000I-1587500J0D01*
G01*
X239712500Y-107952798D02*
G75*
G03*
X241300000Y-106362500I-2800J1590298D01*
G01*
X232410645Y-112803122D02*
G75*
G03*
X234302156Y-112019614I55J2674822D01*
G01*
X86390000Y-34290000D02*
X72390000Y-34290000D01*
X114965000Y-105440000D02*
X115252500Y-105440000D01*
X139065000Y-105440000D02*
X140152000Y-105440000D01*
X39052500Y-105440000D02*
X48290000Y-105440000D01*
X181640000Y-48290000D02*
X181640000Y-34290000D01*
X53052500Y-105440000D02*
X53052500Y-91440000D01*
X186690000Y-105440000D02*
X187665000Y-105440000D01*
X219740000Y-86390000D02*
X219740000Y-72390000D01*
X205740000Y-48290000D02*
X219740000Y-48290000D01*
X62865000Y-67340000D02*
X76865000Y-67340000D01*
X53340000Y-48290000D02*
X67340000Y-48290000D01*
X238822361Y-38112584D02*
G75*
G03*
X238822361Y-38112584I-2250000J0D01*
G01*
X164028000Y-105440000D02*
X167640000Y-105440000D01*
X40639355Y-26891284D02*
X41909355Y-26891284D01*
X140152000Y-90440000D02*
X140152000Y-91440000D01*
X38735000Y-107944387D02*
X33337500Y-107950000D01*
X238790000Y-86390000D02*
X238790000Y-72390000D01*
X38747844Y-27674773D02*
X38735000Y-31750000D01*
X67340000Y-105440000D02*
X72390000Y-105440000D01*
X91440000Y-86390000D02*
X105440000Y-86390000D01*
X95915000Y-53340000D02*
X81915000Y-53340000D01*
X34290000Y-48290000D02*
X48290000Y-48290000D01*
X43815000Y-67340000D02*
X57815000Y-67340000D01*
X220027500Y-91440000D02*
X220027500Y-105440000D01*
X177165000Y-91440000D02*
X172115000Y-91440000D01*
X125928000Y-90440000D02*
X123515000Y-90440000D01*
X187665000Y-91440000D02*
X187665000Y-90440000D01*
X43800866Y-27674773D02*
X43814355Y-31750000D01*
X162590000Y-34290000D02*
X148590000Y-34290000D01*
X197190000Y-91440000D02*
X197190000Y-90440000D01*
X53340000Y-91440000D02*
X53340000Y-105440000D01*
X130515000Y-90440000D02*
X125928000Y-90440000D01*
X124490000Y-86390000D02*
X124490000Y-72390000D01*
X109052000Y-91440000D02*
X109052000Y-90440000D01*
X180665000Y-105440000D02*
X181640000Y-105440000D01*
X153065000Y-67340000D02*
X153065000Y-53340000D01*
X43802156Y-112019614D02*
X43815000Y-107944387D01*
X115252500Y-91440000D02*
X114965000Y-91440000D01*
X167640000Y-48290000D02*
X181640000Y-48290000D01*
X210215000Y-91440000D02*
X205740000Y-91440000D01*
X67340000Y-72390000D02*
X53340000Y-72390000D01*
X153065000Y-105440000D02*
X157827500Y-105440000D01*
X120015000Y-91440000D02*
X115252500Y-91440000D01*
X229247844Y-27674773D02*
X229235000Y-31750000D01*
X224790000Y-72390000D02*
X224790000Y-86390000D01*
X219740000Y-105440000D02*
X219740000Y-91440000D01*
X110490000Y-34290000D02*
X110490000Y-48290000D01*
X149565000Y-91440000D02*
X149565000Y-90440000D01*
X95915000Y-91440000D02*
X92415000Y-91440000D01*
X140152000Y-105440000D02*
X142565000Y-105440000D01*
X92415000Y-91440000D02*
X92415000Y-90440000D01*
X186690000Y-34290000D02*
X186690000Y-48290000D01*
X110490000Y-86390000D02*
X124490000Y-86390000D01*
X81915000Y-67340000D02*
X95915000Y-67340000D01*
X102052000Y-105440000D02*
X105440000Y-105440000D01*
X197190000Y-105440000D02*
X200690000Y-105440000D01*
X105440000Y-34290000D02*
X91440000Y-34290000D01*
X234302156Y-112019614D02*
X234315000Y-107944387D01*
X124490000Y-105440000D02*
X125928000Y-105440000D01*
X140152000Y-91440000D02*
X139065000Y-91440000D01*
X180665000Y-91440000D02*
X177165000Y-91440000D01*
X191165000Y-67340000D02*
X191165000Y-53340000D01*
X162590000Y-86390000D02*
X162590000Y-72390000D01*
X53340000Y-34290000D02*
X53340000Y-48290000D01*
X48290000Y-48290000D02*
X48290000Y-34290000D01*
X229265000Y-53340000D02*
X215265000Y-53340000D01*
X167640000Y-34290000D02*
X167640000Y-48290000D01*
X229249134Y-112019614D02*
X229235645Y-107944387D01*
X180665000Y-90440000D02*
X180665000Y-91440000D01*
X39052500Y-91440000D02*
X34290000Y-91440000D01*
X219740000Y-48290000D02*
X219740000Y-34290000D01*
X72390000Y-48290000D02*
X86390000Y-48290000D01*
X167640000Y-72390000D02*
X167640000Y-86390000D01*
X200690000Y-34290000D02*
X186690000Y-34290000D01*
X149565000Y-90440000D02*
X147152000Y-90440000D01*
X62865000Y-105440000D02*
X67340000Y-105440000D01*
X234027500Y-105440000D02*
X238790000Y-105440000D01*
X72390000Y-72390000D02*
X72390000Y-86390000D01*
X197190000Y-90440000D02*
X190190000Y-90440000D01*
X33337500Y-31750000D02*
G75*
G03*
X31750000Y-33337500I0J-1587500D01*
G01*
X72390000Y-34290000D02*
X72390000Y-48290000D01*
X147152000Y-90440000D02*
X142565000Y-90440000D01*
X205740000Y-34290000D02*
X205740000Y-48290000D01*
X53340000Y-72390000D02*
X53340000Y-86390000D01*
X67340000Y-86390000D02*
X67340000Y-72390000D01*
X234315000Y-31750000D02*
X239712500Y-31750000D01*
X100965000Y-53340000D02*
X100965000Y-67340000D01*
X82890000Y-91440000D02*
X82890000Y-90440000D01*
X215265000Y-53340000D02*
X215265000Y-67340000D01*
X114965000Y-53340000D02*
X100965000Y-53340000D01*
X91440000Y-105440000D02*
X92415000Y-105440000D01*
X85415000Y-91440000D02*
X82890000Y-91440000D01*
X238790000Y-72390000D02*
X224790000Y-72390000D01*
X102052000Y-90440000D02*
X102052000Y-91440000D01*
X57815000Y-53340000D02*
X43815000Y-53340000D01*
X238799797Y-44462584D02*
G75*
G03*
X238799797Y-44462584I-2250000J0D01*
G01*
X134015000Y-53340000D02*
X120015000Y-53340000D01*
X85415000Y-90440000D02*
X85415000Y-91440000D01*
X129540000Y-34290000D02*
X129540000Y-48290000D01*
X86390000Y-48290000D02*
X86390000Y-34290000D01*
X190190000Y-105440000D02*
X191165000Y-105440000D01*
X190190000Y-90440000D02*
X190190000Y-91440000D01*
X187665000Y-105440000D02*
X190190000Y-105440000D01*
X149565000Y-105440000D02*
X153065000Y-105440000D01*
X143540000Y-72390000D02*
X129540000Y-72390000D01*
X167640000Y-105440000D02*
X171028000Y-105440000D01*
X205740000Y-91440000D02*
X200690000Y-91440000D01*
X130515000Y-105440000D02*
X132928000Y-105440000D01*
X53340000Y-86390000D02*
X67340000Y-86390000D01*
X167640000Y-86390000D02*
X181640000Y-86390000D01*
X72390000Y-86390000D02*
X86390000Y-86390000D01*
X105440000Y-72390000D02*
X91440000Y-72390000D01*
X210215000Y-105440000D02*
X219740000Y-105440000D01*
X143540000Y-105440000D02*
X143827500Y-105440000D01*
X232775000Y-110103387D02*
G75*
G03*
X232775000Y-110103387I-1000000J0D01*
G01*
X158115000Y-105440000D02*
X162590000Y-105440000D01*
X132928000Y-90440000D02*
X130515000Y-90440000D01*
X67340000Y-48290000D02*
X67340000Y-34290000D01*
X72390000Y-91440000D02*
X67340000Y-91440000D01*
X224790000Y-105440000D02*
X234027500Y-105440000D01*
X81915000Y-105440000D02*
X82890000Y-105440000D01*
X142565000Y-105440000D02*
X143540000Y-105440000D01*
X177165000Y-67340000D02*
X191165000Y-67340000D01*
X219740000Y-34290000D02*
X205740000Y-34290000D01*
X48290000Y-91440000D02*
X39052500Y-91440000D01*
X224790000Y-91440000D02*
X220027500Y-91440000D01*
X132928000Y-91440000D02*
X132928000Y-90440000D01*
X238802500Y-55577500D02*
G75*
G03*
X238802500Y-55577500I-2250000J0D01*
G01*
X132928000Y-105440000D02*
X134015000Y-105440000D01*
X38749134Y-112019614D02*
X38735000Y-107944387D01*
X143540000Y-48290000D02*
X143540000Y-34290000D01*
X164028000Y-91440000D02*
X162590000Y-91440000D01*
X172115000Y-53340000D02*
X158115000Y-53340000D01*
X186690000Y-48290000D02*
X200690000Y-48290000D01*
X124490000Y-72390000D02*
X110490000Y-72390000D01*
X196215000Y-53340000D02*
X196215000Y-67340000D01*
X143540000Y-86390000D02*
X143540000Y-72390000D01*
X162590000Y-72390000D02*
X148590000Y-72390000D01*
X157827500Y-105440000D02*
X158115000Y-105440000D01*
X164028000Y-90440000D02*
X164028000Y-91440000D01*
X200690000Y-72390000D02*
X186690000Y-72390000D01*
X148590000Y-105440000D02*
X149565000Y-105440000D01*
X57815000Y-67340000D02*
X57815000Y-53340000D01*
X109052000Y-105440000D02*
X110490000Y-105440000D01*
X143540000Y-34290000D02*
X129540000Y-34290000D01*
X91440000Y-48290000D02*
X105440000Y-48290000D01*
X102052000Y-91440000D02*
X100965000Y-91440000D01*
X143827500Y-105440000D02*
X147152000Y-105440000D01*
X171028000Y-90440000D02*
X164028000Y-90440000D01*
X105440000Y-105440000D02*
X109052000Y-105440000D01*
X31750000Y-106489500D02*
X31750000Y-33337500D01*
X129252500Y-105440000D02*
X129540000Y-105440000D01*
X231139355Y-26891298D02*
G75*
G03*
X229247844Y-27674773I-55J-2674902D01*
G01*
X82890000Y-90440000D02*
X75890000Y-90440000D01*
X75890000Y-90440000D02*
X75890000Y-91440000D01*
X234300866Y-27674773D02*
X234315000Y-31750000D01*
X139065000Y-91440000D02*
X134015000Y-91440000D01*
X205740000Y-105440000D02*
X210215000Y-105440000D01*
X181640000Y-105440000D02*
X186690000Y-105440000D01*
X147152000Y-105440000D02*
X148590000Y-105440000D01*
X34290000Y-34290000D02*
X34290000Y-48290000D01*
X162590000Y-48290000D02*
X162590000Y-34290000D01*
X100965000Y-67340000D02*
X114965000Y-67340000D01*
X81915000Y-53340000D02*
X81915000Y-67340000D01*
X200690000Y-105440000D02*
X205740000Y-105440000D01*
X109052000Y-90440000D02*
X102052000Y-90440000D01*
X158115000Y-91440000D02*
X157827500Y-91440000D01*
X153065000Y-91440000D02*
X149565000Y-91440000D01*
X215265000Y-67340000D02*
X229265000Y-67340000D01*
X158115000Y-67340000D02*
X172115000Y-67340000D01*
X76865000Y-105440000D02*
X81915000Y-105440000D01*
X234300850Y-27674789D02*
G75*
G03*
X232409355Y-26891284I-1891450J-1891311D01*
G01*
X210215000Y-67340000D02*
X210215000Y-53340000D01*
X85415000Y-105440000D02*
X86390000Y-105440000D01*
X76865000Y-67340000D02*
X76865000Y-53340000D01*
X134015000Y-105440000D02*
X139065000Y-105440000D01*
X34290000Y-105440000D02*
X39052500Y-105440000D01*
X110490000Y-105440000D02*
X114965000Y-105440000D01*
X129540000Y-48290000D02*
X143540000Y-48290000D01*
X153065000Y-53340000D02*
X139065000Y-53340000D01*
X142565000Y-90440000D02*
X140152000Y-90440000D01*
X100965000Y-91440000D02*
X95915000Y-91440000D01*
X129540000Y-86390000D02*
X143540000Y-86390000D01*
X48290000Y-34290000D02*
X34290000Y-34290000D01*
X86390000Y-72390000D02*
X72390000Y-72390000D01*
X234027500Y-91440000D02*
X224790000Y-91440000D01*
X171028000Y-105440000D02*
X172115000Y-105440000D01*
X100965000Y-105440000D02*
X102052000Y-105440000D01*
X158115000Y-53340000D02*
X158115000Y-67340000D01*
X120015000Y-67340000D02*
X134015000Y-67340000D01*
X181640000Y-86390000D02*
X181640000Y-72390000D01*
X115252500Y-105440000D02*
X120015000Y-105440000D01*
X67340000Y-34290000D02*
X53340000Y-34290000D01*
X105440000Y-48290000D02*
X105440000Y-34290000D01*
X232410645Y-112803103D02*
X231140645Y-112803103D01*
X220027500Y-105440000D02*
X224790000Y-105440000D01*
X239712500Y-107952807D02*
X234315000Y-107944387D01*
X219740000Y-72390000D02*
X205740000Y-72390000D01*
X53340000Y-105440000D02*
X62865000Y-105440000D01*
X42275000Y-29458387D02*
G75*
G03*
X42275000Y-29458387I-1000000J0D01*
G01*
X200690000Y-86390000D02*
X200690000Y-72390000D01*
X181640000Y-72390000D02*
X167640000Y-72390000D01*
X241300000Y-33337500D02*
X241300000Y-106362500D01*
X91440000Y-72390000D02*
X91440000Y-86390000D01*
X134015000Y-67340000D02*
X134015000Y-53340000D01*
X139065000Y-53340000D02*
X139065000Y-67340000D01*
X38749111Y-112019637D02*
G75*
G03*
X40640645Y-112803103I1891489J1891537D01*
G01*
X123515000Y-105440000D02*
X124490000Y-105440000D01*
X191165000Y-53340000D02*
X177165000Y-53340000D01*
X48290000Y-105440000D02*
X53052500Y-105440000D01*
X219740000Y-91440000D02*
X210215000Y-91440000D01*
X232775000Y-29458387D02*
G75*
G03*
X232775000Y-29458387I-1000000J0D01*
G01*
X205740000Y-72390000D02*
X205740000Y-86390000D01*
X231139355Y-26891284D02*
X232409355Y-26891284D01*
X95915000Y-105440000D02*
X100965000Y-105440000D01*
X67340000Y-91440000D02*
X62865000Y-91440000D01*
D11*
X31750020Y-106489498D02*
G75*
G03*
X33337500Y-107950000I1587480J132498D01*
G01*
D10*
X210215000Y-53340000D02*
X196215000Y-53340000D01*
X62865000Y-91440000D02*
X53340000Y-91440000D01*
X157827500Y-91440000D02*
X153065000Y-91440000D01*
X114965000Y-67340000D02*
X114965000Y-53340000D01*
X196215000Y-105440000D02*
X197190000Y-105440000D01*
X123515000Y-91440000D02*
X120015000Y-91440000D01*
X86390000Y-86390000D02*
X86390000Y-72390000D01*
X139065000Y-67340000D02*
X153065000Y-67340000D01*
X43814355Y-31750000D02*
X229235000Y-31750000D01*
X75890000Y-105440000D02*
X76865000Y-105440000D01*
X42275000Y-110236000D02*
G75*
G03*
X42275000Y-110236000I-1000000J0D01*
G01*
X123515000Y-90440000D02*
X123515000Y-91440000D01*
X148590000Y-86390000D02*
X162590000Y-86390000D01*
X105440000Y-86390000D02*
X105440000Y-72390000D01*
X120015000Y-53340000D02*
X120015000Y-67340000D01*
X75890000Y-91440000D02*
X72390000Y-91440000D01*
X92415000Y-105440000D02*
X95915000Y-105440000D01*
X110490000Y-48290000D02*
X124490000Y-48290000D01*
X200690000Y-91440000D02*
X197190000Y-91440000D01*
X40639355Y-26891298D02*
G75*
G03*
X38747844Y-27674773I-55J-2674902D01*
G01*
D12*
X34020238Y-62564880D02*
X36020238Y-62564880D01*
X36020238Y-63041071D01*
X35925000Y-63326785D01*
X35734523Y-63517261D01*
X35544047Y-63612500D01*
X35163095Y-63707738D01*
X34877380Y-63707738D01*
X34496428Y-63612500D01*
X34305952Y-63517261D01*
X34115476Y-63326785D01*
X34020238Y-63041071D01*
X34020238Y-62564880D01*
X34020238Y-64564880D02*
X35353571Y-64564880D01*
X36020238Y-64564880D02*
X35925000Y-64469642D01*
X35829761Y-64564880D01*
X35925000Y-64660119D01*
X36020238Y-64564880D01*
X35829761Y-64564880D01*
X34020238Y-66374404D02*
X36020238Y-66374404D01*
X34115476Y-66374404D02*
X34020238Y-66183928D01*
X34020238Y-65802976D01*
X34115476Y-65612500D01*
X34210714Y-65517261D01*
X34401190Y-65422023D01*
X34972619Y-65422023D01*
X35163095Y-65517261D01*
X35258333Y-65612500D01*
X35353571Y-65802976D01*
X35353571Y-66183928D01*
X35258333Y-66374404D01*
X34020238Y-68183928D02*
X35067857Y-68183928D01*
X35258333Y-68088690D01*
X35353571Y-67898214D01*
X35353571Y-67517261D01*
X35258333Y-67326785D01*
X34115476Y-68183928D02*
X34020238Y-67993452D01*
X34020238Y-67517261D01*
X34115476Y-67326785D01*
X34305952Y-67231547D01*
X34496428Y-67231547D01*
X34686904Y-67326785D01*
X34782142Y-67517261D01*
X34782142Y-67993452D01*
X34877380Y-68183928D01*
X34020238Y-69136309D02*
X36020238Y-69136309D01*
X34782142Y-69326785D02*
X34020238Y-69898214D01*
X35353571Y-69898214D02*
X34591666Y-69136309D01*
X35353571Y-70469642D02*
X35353571Y-71231547D01*
X36020238Y-70755357D02*
X34305952Y-70755357D01*
X34115476Y-70850595D01*
X34020238Y-71041071D01*
X34020238Y-71231547D01*
X34020238Y-71898214D02*
X35353571Y-71898214D01*
X36020238Y-71898214D02*
X35925000Y-71802976D01*
X35829761Y-71898214D01*
X35925000Y-71993452D01*
X36020238Y-71898214D01*
X35829761Y-71898214D01*
X34020238Y-72850595D02*
X36020238Y-72850595D01*
X34782142Y-73041071D02*
X34020238Y-73612500D01*
X35353571Y-73612500D02*
X34591666Y-72850595D01*
X35353571Y-76850595D02*
X34020238Y-76850595D01*
X36115476Y-76374404D02*
X34686904Y-75898214D01*
X34686904Y-77136309D01*
X36020238Y-78279166D02*
X36020238Y-78469642D01*
X35925000Y-78660119D01*
X35829761Y-78755357D01*
X35639285Y-78850595D01*
X35258333Y-78945833D01*
X34782142Y-78945833D01*
X34401190Y-78850595D01*
X34210714Y-78755357D01*
X34115476Y-78660119D01*
X34020238Y-78469642D01*
X34020238Y-78279166D01*
X34115476Y-78088690D01*
X34210714Y-77993452D01*
X34401190Y-77898214D01*
X34782142Y-77802976D01*
X35258333Y-77802976D01*
X35639285Y-77898214D01*
X35829761Y-77993452D01*
X35925000Y-78088690D01*
X36020238Y-78279166D01*
X35353571Y-81136309D02*
X34020238Y-81612500D01*
X35353571Y-82088690D01*
X34020238Y-83898214D02*
X34020238Y-82755357D01*
X34020238Y-83326785D02*
X36020238Y-83326785D01*
X35734523Y-83136309D01*
X35544047Y-82945833D01*
X35448809Y-82755357D01*
X34210714Y-84755357D02*
X34115476Y-84850595D01*
X34020238Y-84755357D01*
X34115476Y-84660119D01*
X34210714Y-84755357D01*
X34020238Y-84755357D01*
X36020238Y-86088690D02*
X36020238Y-86279166D01*
X35925000Y-86469642D01*
X35829761Y-86564880D01*
X35639285Y-86660119D01*
X35258333Y-86755357D01*
X34782142Y-86755357D01*
X34401190Y-86660119D01*
X34210714Y-86564880D01*
X34115476Y-86469642D01*
X34020238Y-86279166D01*
X34020238Y-86088690D01*
X34115476Y-85898214D01*
X34210714Y-85802976D01*
X34401190Y-85707738D01*
X34782142Y-85612500D01*
X35258333Y-85612500D01*
X35639285Y-85707738D01*
X35829761Y-85802976D01*
X35925000Y-85898214D01*
X36020238Y-86088690D01*
M02*
