%TF.GenerationSoftware,KiCad,Pcbnew,(7.0.0)*%
%TF.CreationDate,2023-05-29T16:40:41+02:00*%
%TF.ProjectId,Didaktik,44696461-6b74-4696-9b2e-6b696361645f,rev?*%
%TF.SameCoordinates,Original*%
%TF.FileFunction,Legend,Bot*%
%TF.FilePolarity,Positive*%
%FSLAX46Y46*%
G04 Gerber Fmt 4.6, Leading zero omitted, Abs format (unit mm)*
G04 Created by KiCad (PCBNEW (7.0.0)) date 2023-05-29 16:40:41*
%MOMM*%
%LPD*%
G01*
G04 APERTURE LIST*
G04 Aperture macros list*
%AMRoundRect*
0 Rectangle with rounded corners*
0 $1 Rounding radius*
0 $2 $3 $4 $5 $6 $7 $8 $9 X,Y pos of 4 corners*
0 Add a 4 corners polygon primitive as box body*
4,1,4,$2,$3,$4,$5,$6,$7,$8,$9,$2,$3,0*
0 Add four circle primitives for the rounded corners*
1,1,$1+$1,$2,$3*
1,1,$1+$1,$4,$5*
1,1,$1+$1,$6,$7*
1,1,$1+$1,$8,$9*
0 Add four rect primitives between the rounded corners*
20,1,$1+$1,$2,$3,$4,$5,0*
20,1,$1+$1,$4,$5,$6,$7,0*
20,1,$1+$1,$6,$7,$8,$9,0*
20,1,$1+$1,$8,$9,$2,$3,0*%
G04 Aperture macros list end*
%ADD10C,0.150000*%
%ADD11C,0.125000*%
%ADD12C,0.120000*%
%ADD13C,0.250000*%
%ADD14C,1.750000*%
%ADD15C,3.987800*%
%ADD16C,2.250000*%
%ADD17C,3.048000*%
%ADD18R,1.600000X1.200000*%
%ADD19R,1.600000X1.600000*%
%ADD20C,1.600000*%
%ADD21R,2.000000X2.000000*%
%ADD22C,2.000000*%
%ADD23R,1.100000X1.100000*%
%ADD24R,1.350000X1.350000*%
%ADD25O,1.350000X1.350000*%
%ADD26RoundRect,0.140000X0.170000X-0.140000X0.170000X0.140000X-0.170000X0.140000X-0.170000X-0.140000X0*%
%ADD27RoundRect,0.135000X-0.135000X-0.185000X0.135000X-0.185000X0.135000X0.185000X-0.135000X0.185000X0*%
%ADD28R,1.400000X1.200000*%
%ADD29RoundRect,0.062500X-0.475000X-0.062500X0.475000X-0.062500X0.475000X0.062500X-0.475000X0.062500X0*%
%ADD30RoundRect,0.062500X-0.062500X-0.475000X0.062500X-0.475000X0.062500X0.475000X-0.062500X0.475000X0*%
%ADD31R,5.200000X5.200000*%
%ADD32RoundRect,0.150000X-0.587500X-0.150000X0.587500X-0.150000X0.587500X0.150000X-0.587500X0.150000X0*%
%ADD33RoundRect,0.250000X-0.625000X0.375000X-0.625000X-0.375000X0.625000X-0.375000X0.625000X0.375000X0*%
%ADD34RoundRect,0.135000X0.135000X0.185000X-0.135000X0.185000X-0.135000X-0.185000X0.135000X-0.185000X0*%
%ADD35R,1.800000X1.200000*%
%ADD36R,1.550000X0.600000*%
%ADD37C,1.700000*%
%ADD38R,1.700000X1.700000*%
%ADD39RoundRect,0.140000X-0.170000X0.140000X-0.170000X-0.140000X0.170000X-0.140000X0.170000X0.140000X0*%
%ADD40R,2.300000X2.300000*%
%ADD41RoundRect,0.135000X0.185000X-0.135000X0.185000X0.135000X-0.185000X0.135000X-0.185000X-0.135000X0*%
%ADD42R,0.700000X1.000000*%
%ADD43R,0.700000X0.600000*%
%ADD44RoundRect,0.140000X-0.140000X-0.170000X0.140000X-0.170000X0.140000X0.170000X-0.140000X0.170000X0*%
%ADD45O,1.700000X1.700000*%
%ADD46RoundRect,0.140000X0.140000X0.170000X-0.140000X0.170000X-0.140000X-0.170000X0.140000X-0.170000X0*%
%ADD47RoundRect,0.140000X-0.021213X0.219203X-0.219203X0.021213X0.021213X-0.219203X0.219203X-0.021213X0*%
G04 APERTURE END LIST*
D10*
X89233333Y-85092380D02*
X89423809Y-85092380D01*
X89423809Y-85092380D02*
X89519047Y-85140000D01*
X89519047Y-85140000D02*
X89566666Y-85187619D01*
X89566666Y-85187619D02*
X89661904Y-85330476D01*
X89661904Y-85330476D02*
X89709523Y-85520952D01*
X89709523Y-85520952D02*
X89709523Y-85901904D01*
X89709523Y-85901904D02*
X89661904Y-85997142D01*
X89661904Y-85997142D02*
X89614285Y-86044761D01*
X89614285Y-86044761D02*
X89519047Y-86092380D01*
X89519047Y-86092380D02*
X89328571Y-86092380D01*
X89328571Y-86092380D02*
X89233333Y-86044761D01*
X89233333Y-86044761D02*
X89185714Y-85997142D01*
X89185714Y-85997142D02*
X89138095Y-85901904D01*
X89138095Y-85901904D02*
X89138095Y-85663809D01*
X89138095Y-85663809D02*
X89185714Y-85568571D01*
X89185714Y-85568571D02*
X89233333Y-85520952D01*
X89233333Y-85520952D02*
X89328571Y-85473333D01*
X89328571Y-85473333D02*
X89519047Y-85473333D01*
X89519047Y-85473333D02*
X89614285Y-85520952D01*
X89614285Y-85520952D02*
X89661904Y-85568571D01*
X89661904Y-85568571D02*
X89709523Y-85663809D01*
X88709523Y-85092380D02*
X88709523Y-85901904D01*
X88709523Y-85901904D02*
X88661904Y-85997142D01*
X88661904Y-85997142D02*
X88614285Y-86044761D01*
X88614285Y-86044761D02*
X88519047Y-86092380D01*
X88519047Y-86092380D02*
X88328571Y-86092380D01*
X88328571Y-86092380D02*
X88233333Y-86044761D01*
X88233333Y-86044761D02*
X88185714Y-85997142D01*
X88185714Y-85997142D02*
X88138095Y-85901904D01*
X88138095Y-85901904D02*
X88138095Y-85092380D01*
X130222182Y-86757169D02*
X130174563Y-86709550D01*
X130174563Y-86709550D02*
X130079325Y-86661930D01*
X130079325Y-86661930D02*
X129841230Y-86661930D01*
X129841230Y-86661930D02*
X129745992Y-86709550D01*
X129745992Y-86709550D02*
X129698373Y-86757169D01*
X129698373Y-86757169D02*
X129650754Y-86852407D01*
X129650754Y-86852407D02*
X129650754Y-86947645D01*
X129650754Y-86947645D02*
X129698373Y-87090502D01*
X129698373Y-87090502D02*
X130269801Y-87661930D01*
X130269801Y-87661930D02*
X129650754Y-87661930D01*
X129222182Y-86661930D02*
X129222182Y-87471454D01*
X129222182Y-87471454D02*
X129174563Y-87566692D01*
X129174563Y-87566692D02*
X129126944Y-87614311D01*
X129126944Y-87614311D02*
X129031706Y-87661930D01*
X129031706Y-87661930D02*
X128841230Y-87661930D01*
X128841230Y-87661930D02*
X128745992Y-87614311D01*
X128745992Y-87614311D02*
X128698373Y-87566692D01*
X128698373Y-87566692D02*
X128650754Y-87471454D01*
X128650754Y-87471454D02*
X128650754Y-86661930D01*
X89300999Y-34170917D02*
X89300999Y-32420917D01*
X89300999Y-32420917D02*
X88884332Y-32420917D01*
X88884332Y-32420917D02*
X88634332Y-32504251D01*
X88634332Y-32504251D02*
X88467666Y-32670917D01*
X88467666Y-32670917D02*
X88384332Y-32837584D01*
X88384332Y-32837584D02*
X88300999Y-33170917D01*
X88300999Y-33170917D02*
X88300999Y-33420917D01*
X88300999Y-33420917D02*
X88384332Y-33754251D01*
X88384332Y-33754251D02*
X88467666Y-33920917D01*
X88467666Y-33920917D02*
X88634332Y-34087584D01*
X88634332Y-34087584D02*
X88884332Y-34170917D01*
X88884332Y-34170917D02*
X89300999Y-34170917D01*
X87550999Y-34170917D02*
X87550999Y-33004251D01*
X87550999Y-32420917D02*
X87634332Y-32504251D01*
X87634332Y-32504251D02*
X87550999Y-32587584D01*
X87550999Y-32587584D02*
X87467666Y-32504251D01*
X87467666Y-32504251D02*
X87550999Y-32420917D01*
X87550999Y-32420917D02*
X87550999Y-32587584D01*
X85967666Y-34170917D02*
X85967666Y-32420917D01*
X85967666Y-34087584D02*
X86134333Y-34170917D01*
X86134333Y-34170917D02*
X86467666Y-34170917D01*
X86467666Y-34170917D02*
X86634333Y-34087584D01*
X86634333Y-34087584D02*
X86717666Y-34004251D01*
X86717666Y-34004251D02*
X86800999Y-33837584D01*
X86800999Y-33837584D02*
X86800999Y-33337584D01*
X86800999Y-33337584D02*
X86717666Y-33170917D01*
X86717666Y-33170917D02*
X86634333Y-33087584D01*
X86634333Y-33087584D02*
X86467666Y-33004251D01*
X86467666Y-33004251D02*
X86134333Y-33004251D01*
X86134333Y-33004251D02*
X85967666Y-33087584D01*
X84384333Y-34170917D02*
X84384333Y-33254251D01*
X84384333Y-33254251D02*
X84467666Y-33087584D01*
X84467666Y-33087584D02*
X84634333Y-33004251D01*
X84634333Y-33004251D02*
X84967666Y-33004251D01*
X84967666Y-33004251D02*
X85134333Y-33087584D01*
X84384333Y-34087584D02*
X84551000Y-34170917D01*
X84551000Y-34170917D02*
X84967666Y-34170917D01*
X84967666Y-34170917D02*
X85134333Y-34087584D01*
X85134333Y-34087584D02*
X85217666Y-33920917D01*
X85217666Y-33920917D02*
X85217666Y-33754251D01*
X85217666Y-33754251D02*
X85134333Y-33587584D01*
X85134333Y-33587584D02*
X84967666Y-33504251D01*
X84967666Y-33504251D02*
X84551000Y-33504251D01*
X84551000Y-33504251D02*
X84384333Y-33420917D01*
X83551000Y-34170917D02*
X83551000Y-32420917D01*
X83384333Y-33504251D02*
X82884333Y-34170917D01*
X82884333Y-33004251D02*
X83551000Y-33670917D01*
X82384333Y-33004251D02*
X81717666Y-33004251D01*
X82134333Y-32420917D02*
X82134333Y-33920917D01*
X82134333Y-33920917D02*
X82051000Y-34087584D01*
X82051000Y-34087584D02*
X81884333Y-34170917D01*
X81884333Y-34170917D02*
X81717666Y-34170917D01*
X81134333Y-34170917D02*
X81134333Y-33004251D01*
X81134333Y-32420917D02*
X81217666Y-32504251D01*
X81217666Y-32504251D02*
X81134333Y-32587584D01*
X81134333Y-32587584D02*
X81051000Y-32504251D01*
X81051000Y-32504251D02*
X81134333Y-32420917D01*
X81134333Y-32420917D02*
X81134333Y-32587584D01*
X80301000Y-34170917D02*
X80301000Y-32420917D01*
X80134333Y-33504251D02*
X79634333Y-34170917D01*
X79634333Y-33004251D02*
X80301000Y-33670917D01*
X77084333Y-33004251D02*
X77084333Y-34170917D01*
X77501000Y-32337584D02*
X77917666Y-33587584D01*
X77917666Y-33587584D02*
X76834333Y-33587584D01*
X75834333Y-32420917D02*
X75667666Y-32420917D01*
X75667666Y-32420917D02*
X75500999Y-32504251D01*
X75500999Y-32504251D02*
X75417666Y-32587584D01*
X75417666Y-32587584D02*
X75334333Y-32754251D01*
X75334333Y-32754251D02*
X75250999Y-33087584D01*
X75250999Y-33087584D02*
X75250999Y-33504251D01*
X75250999Y-33504251D02*
X75334333Y-33837584D01*
X75334333Y-33837584D02*
X75417666Y-34004251D01*
X75417666Y-34004251D02*
X75500999Y-34087584D01*
X75500999Y-34087584D02*
X75667666Y-34170917D01*
X75667666Y-34170917D02*
X75834333Y-34170917D01*
X75834333Y-34170917D02*
X76000999Y-34087584D01*
X76000999Y-34087584D02*
X76084333Y-34004251D01*
X76084333Y-34004251D02*
X76167666Y-33837584D01*
X76167666Y-33837584D02*
X76250999Y-33504251D01*
X76250999Y-33504251D02*
X76250999Y-33087584D01*
X76250999Y-33087584D02*
X76167666Y-32754251D01*
X76167666Y-32754251D02*
X76084333Y-32587584D01*
X76084333Y-32587584D02*
X76000999Y-32504251D01*
X76000999Y-32504251D02*
X75834333Y-32420917D01*
X73617666Y-33004251D02*
X73200999Y-34170917D01*
X73200999Y-34170917D02*
X72784332Y-33004251D01*
X71200999Y-34170917D02*
X72200999Y-34170917D01*
X71700999Y-34170917D02*
X71700999Y-32420917D01*
X71700999Y-32420917D02*
X71867666Y-32670917D01*
X71867666Y-32670917D02*
X72034333Y-32837584D01*
X72034333Y-32837584D02*
X72200999Y-32920917D01*
X70450999Y-34004251D02*
X70367666Y-34087584D01*
X70367666Y-34087584D02*
X70450999Y-34170917D01*
X70450999Y-34170917D02*
X70534332Y-34087584D01*
X70534332Y-34087584D02*
X70450999Y-34004251D01*
X70450999Y-34004251D02*
X70450999Y-34170917D01*
X68700999Y-34170917D02*
X69700999Y-34170917D01*
X69200999Y-34170917D02*
X69200999Y-32420917D01*
X69200999Y-32420917D02*
X69367666Y-32670917D01*
X69367666Y-32670917D02*
X69534333Y-32837584D01*
X69534333Y-32837584D02*
X69700999Y-32920917D01*
X66900999Y-34170917D02*
X66900999Y-32420917D01*
X66900999Y-33087584D02*
X66734332Y-33004251D01*
X66734332Y-33004251D02*
X66400999Y-33004251D01*
X66400999Y-33004251D02*
X66234332Y-33087584D01*
X66234332Y-33087584D02*
X66150999Y-33170917D01*
X66150999Y-33170917D02*
X66067666Y-33337584D01*
X66067666Y-33337584D02*
X66067666Y-33837584D01*
X66067666Y-33837584D02*
X66150999Y-34004251D01*
X66150999Y-34004251D02*
X66234332Y-34087584D01*
X66234332Y-34087584D02*
X66400999Y-34170917D01*
X66400999Y-34170917D02*
X66734332Y-34170917D01*
X66734332Y-34170917D02*
X66900999Y-34087584D01*
X65484333Y-33004251D02*
X65067666Y-34170917D01*
X64650999Y-33004251D02*
X65067666Y-34170917D01*
X65067666Y-34170917D02*
X65234333Y-34587584D01*
X65234333Y-34587584D02*
X65317666Y-34670917D01*
X65317666Y-34670917D02*
X65484333Y-34754251D01*
X61934333Y-34004251D02*
X62017666Y-34087584D01*
X62017666Y-34087584D02*
X62267666Y-34170917D01*
X62267666Y-34170917D02*
X62434333Y-34170917D01*
X62434333Y-34170917D02*
X62684333Y-34087584D01*
X62684333Y-34087584D02*
X62851000Y-33920917D01*
X62851000Y-33920917D02*
X62934333Y-33754251D01*
X62934333Y-33754251D02*
X63017666Y-33420917D01*
X63017666Y-33420917D02*
X63017666Y-33170917D01*
X63017666Y-33170917D02*
X62934333Y-32837584D01*
X62934333Y-32837584D02*
X62851000Y-32670917D01*
X62851000Y-32670917D02*
X62684333Y-32504251D01*
X62684333Y-32504251D02*
X62434333Y-32420917D01*
X62434333Y-32420917D02*
X62267666Y-32420917D01*
X62267666Y-32420917D02*
X62017666Y-32504251D01*
X62017666Y-32504251D02*
X61934333Y-32587584D01*
X60434333Y-34170917D02*
X60434333Y-33254251D01*
X60434333Y-33254251D02*
X60517666Y-33087584D01*
X60517666Y-33087584D02*
X60684333Y-33004251D01*
X60684333Y-33004251D02*
X61017666Y-33004251D01*
X61017666Y-33004251D02*
X61184333Y-33087584D01*
X60434333Y-34087584D02*
X60601000Y-34170917D01*
X60601000Y-34170917D02*
X61017666Y-34170917D01*
X61017666Y-34170917D02*
X61184333Y-34087584D01*
X61184333Y-34087584D02*
X61267666Y-33920917D01*
X61267666Y-33920917D02*
X61267666Y-33754251D01*
X61267666Y-33754251D02*
X61184333Y-33587584D01*
X61184333Y-33587584D02*
X61017666Y-33504251D01*
X61017666Y-33504251D02*
X60601000Y-33504251D01*
X60601000Y-33504251D02*
X60434333Y-33420917D01*
X59351000Y-34170917D02*
X59517667Y-34087584D01*
X59517667Y-34087584D02*
X59601000Y-33920917D01*
X59601000Y-33920917D02*
X59601000Y-32420917D01*
X58851000Y-33004251D02*
X58434333Y-34170917D01*
X58434333Y-34170917D02*
X58017666Y-33004251D01*
X57351000Y-34170917D02*
X57351000Y-33004251D01*
X57351000Y-32420917D02*
X57434333Y-32504251D01*
X57434333Y-32504251D02*
X57351000Y-32587584D01*
X57351000Y-32587584D02*
X57267667Y-32504251D01*
X57267667Y-32504251D02*
X57351000Y-32420917D01*
X57351000Y-32420917D02*
X57351000Y-32587584D01*
X56517667Y-33004251D02*
X56517667Y-34170917D01*
X56517667Y-33170917D02*
X56434334Y-33087584D01*
X56434334Y-33087584D02*
X56267667Y-33004251D01*
X56267667Y-33004251D02*
X56017667Y-33004251D01*
X56017667Y-33004251D02*
X55851000Y-33087584D01*
X55851000Y-33087584D02*
X55767667Y-33254251D01*
X55767667Y-33254251D02*
X55767667Y-34170917D01*
X55017667Y-33004251D02*
X53767667Y-33004251D01*
X54517667Y-32254251D02*
X55017667Y-34504251D01*
X53934334Y-33754251D02*
X55184334Y-33754251D01*
X54434334Y-34504251D02*
X53934334Y-32254251D01*
X52851001Y-32420917D02*
X52684334Y-32420917D01*
X52684334Y-32420917D02*
X52517667Y-32504251D01*
X52517667Y-32504251D02*
X52434334Y-32587584D01*
X52434334Y-32587584D02*
X52351001Y-32754251D01*
X52351001Y-32754251D02*
X52267667Y-33087584D01*
X52267667Y-33087584D02*
X52267667Y-33504251D01*
X52267667Y-33504251D02*
X52351001Y-33837584D01*
X52351001Y-33837584D02*
X52434334Y-34004251D01*
X52434334Y-34004251D02*
X52517667Y-34087584D01*
X52517667Y-34087584D02*
X52684334Y-34170917D01*
X52684334Y-34170917D02*
X52851001Y-34170917D01*
X52851001Y-34170917D02*
X53017667Y-34087584D01*
X53017667Y-34087584D02*
X53101001Y-34004251D01*
X53101001Y-34004251D02*
X53184334Y-33837584D01*
X53184334Y-33837584D02*
X53267667Y-33504251D01*
X53267667Y-33504251D02*
X53267667Y-33087584D01*
X53267667Y-33087584D02*
X53184334Y-32754251D01*
X53184334Y-32754251D02*
X53101001Y-32587584D01*
X53101001Y-32587584D02*
X53017667Y-32504251D01*
X53017667Y-32504251D02*
X52851001Y-32420917D01*
X50684334Y-32420917D02*
X51517667Y-32420917D01*
X51517667Y-32420917D02*
X51601000Y-33254251D01*
X51601000Y-33254251D02*
X51517667Y-33170917D01*
X51517667Y-33170917D02*
X51351000Y-33087584D01*
X51351000Y-33087584D02*
X50934334Y-33087584D01*
X50934334Y-33087584D02*
X50767667Y-33170917D01*
X50767667Y-33170917D02*
X50684334Y-33254251D01*
X50684334Y-33254251D02*
X50601000Y-33420917D01*
X50601000Y-33420917D02*
X50601000Y-33837584D01*
X50601000Y-33837584D02*
X50684334Y-34004251D01*
X50684334Y-34004251D02*
X50767667Y-34087584D01*
X50767667Y-34087584D02*
X50934334Y-34170917D01*
X50934334Y-34170917D02*
X51351000Y-34170917D01*
X51351000Y-34170917D02*
X51517667Y-34087584D01*
X51517667Y-34087584D02*
X51601000Y-34004251D01*
X49101000Y-32420917D02*
X49434333Y-32420917D01*
X49434333Y-32420917D02*
X49601000Y-32504251D01*
X49601000Y-32504251D02*
X49684333Y-32587584D01*
X49684333Y-32587584D02*
X49851000Y-32837584D01*
X49851000Y-32837584D02*
X49934333Y-33170917D01*
X49934333Y-33170917D02*
X49934333Y-33837584D01*
X49934333Y-33837584D02*
X49851000Y-34004251D01*
X49851000Y-34004251D02*
X49767667Y-34087584D01*
X49767667Y-34087584D02*
X49601000Y-34170917D01*
X49601000Y-34170917D02*
X49267667Y-34170917D01*
X49267667Y-34170917D02*
X49101000Y-34087584D01*
X49101000Y-34087584D02*
X49017667Y-34004251D01*
X49017667Y-34004251D02*
X48934333Y-33837584D01*
X48934333Y-33837584D02*
X48934333Y-33420917D01*
X48934333Y-33420917D02*
X49017667Y-33254251D01*
X49017667Y-33254251D02*
X49101000Y-33170917D01*
X49101000Y-33170917D02*
X49267667Y-33087584D01*
X49267667Y-33087584D02*
X49601000Y-33087584D01*
X49601000Y-33087584D02*
X49767667Y-33170917D01*
X49767667Y-33170917D02*
X49851000Y-33254251D01*
X49851000Y-33254251D02*
X49934333Y-33420917D01*
X48351000Y-32420917D02*
X47267666Y-32420917D01*
X47267666Y-32420917D02*
X47851000Y-33087584D01*
X47851000Y-33087584D02*
X47601000Y-33087584D01*
X47601000Y-33087584D02*
X47434333Y-33170917D01*
X47434333Y-33170917D02*
X47351000Y-33254251D01*
X47351000Y-33254251D02*
X47267666Y-33420917D01*
X47267666Y-33420917D02*
X47267666Y-33837584D01*
X47267666Y-33837584D02*
X47351000Y-34004251D01*
X47351000Y-34004251D02*
X47434333Y-34087584D01*
X47434333Y-34087584D02*
X47601000Y-34170917D01*
X47601000Y-34170917D02*
X48101000Y-34170917D01*
X48101000Y-34170917D02*
X48267666Y-34087584D01*
X48267666Y-34087584D02*
X48351000Y-34004251D01*
X184483333Y-85092380D02*
X184673809Y-85092380D01*
X184673809Y-85092380D02*
X184769047Y-85140000D01*
X184769047Y-85140000D02*
X184816666Y-85187619D01*
X184816666Y-85187619D02*
X184911904Y-85330476D01*
X184911904Y-85330476D02*
X184959523Y-85520952D01*
X184959523Y-85520952D02*
X184959523Y-85901904D01*
X184959523Y-85901904D02*
X184911904Y-85997142D01*
X184911904Y-85997142D02*
X184864285Y-86044761D01*
X184864285Y-86044761D02*
X184769047Y-86092380D01*
X184769047Y-86092380D02*
X184578571Y-86092380D01*
X184578571Y-86092380D02*
X184483333Y-86044761D01*
X184483333Y-86044761D02*
X184435714Y-85997142D01*
X184435714Y-85997142D02*
X184388095Y-85901904D01*
X184388095Y-85901904D02*
X184388095Y-85663809D01*
X184388095Y-85663809D02*
X184435714Y-85568571D01*
X184435714Y-85568571D02*
X184483333Y-85520952D01*
X184483333Y-85520952D02*
X184578571Y-85473333D01*
X184578571Y-85473333D02*
X184769047Y-85473333D01*
X184769047Y-85473333D02*
X184864285Y-85520952D01*
X184864285Y-85520952D02*
X184911904Y-85568571D01*
X184911904Y-85568571D02*
X184959523Y-85663809D01*
X183959523Y-85092380D02*
X183959523Y-85901904D01*
X183959523Y-85901904D02*
X183911904Y-85997142D01*
X183911904Y-85997142D02*
X183864285Y-86044761D01*
X183864285Y-86044761D02*
X183769047Y-86092380D01*
X183769047Y-86092380D02*
X183578571Y-86092380D01*
X183578571Y-86092380D02*
X183483333Y-86044761D01*
X183483333Y-86044761D02*
X183435714Y-85997142D01*
X183435714Y-85997142D02*
X183388095Y-85901904D01*
X183388095Y-85901904D02*
X183388095Y-85092380D01*
X80232142Y-86679880D02*
X79565476Y-86679880D01*
X79565476Y-86679880D02*
X79994047Y-87679880D01*
X79184523Y-86679880D02*
X79184523Y-87489404D01*
X79184523Y-87489404D02*
X79136904Y-87584642D01*
X79136904Y-87584642D02*
X79089285Y-87632261D01*
X79089285Y-87632261D02*
X78994047Y-87679880D01*
X78994047Y-87679880D02*
X78803571Y-87679880D01*
X78803571Y-87679880D02*
X78708333Y-87632261D01*
X78708333Y-87632261D02*
X78660714Y-87584642D01*
X78660714Y-87584642D02*
X78613095Y-87489404D01*
X78613095Y-87489404D02*
X78613095Y-86679880D01*
X222940476Y-82917380D02*
X223273809Y-82441190D01*
X223511904Y-82917380D02*
X223511904Y-81917380D01*
X223511904Y-81917380D02*
X223130952Y-81917380D01*
X223130952Y-81917380D02*
X223035714Y-81965000D01*
X223035714Y-81965000D02*
X222988095Y-82012619D01*
X222988095Y-82012619D02*
X222940476Y-82107857D01*
X222940476Y-82107857D02*
X222940476Y-82250714D01*
X222940476Y-82250714D02*
X222988095Y-82345952D01*
X222988095Y-82345952D02*
X223035714Y-82393571D01*
X223035714Y-82393571D02*
X223130952Y-82441190D01*
X223130952Y-82441190D02*
X223511904Y-82441190D01*
X221988095Y-81965000D02*
X222083333Y-81917380D01*
X222083333Y-81917380D02*
X222226190Y-81917380D01*
X222226190Y-81917380D02*
X222369047Y-81965000D01*
X222369047Y-81965000D02*
X222464285Y-82060238D01*
X222464285Y-82060238D02*
X222511904Y-82155476D01*
X222511904Y-82155476D02*
X222559523Y-82345952D01*
X222559523Y-82345952D02*
X222559523Y-82488809D01*
X222559523Y-82488809D02*
X222511904Y-82679285D01*
X222511904Y-82679285D02*
X222464285Y-82774523D01*
X222464285Y-82774523D02*
X222369047Y-82869761D01*
X222369047Y-82869761D02*
X222226190Y-82917380D01*
X222226190Y-82917380D02*
X222130952Y-82917380D01*
X222130952Y-82917380D02*
X221988095Y-82869761D01*
X221988095Y-82869761D02*
X221940476Y-82822142D01*
X221940476Y-82822142D02*
X221940476Y-82488809D01*
X221940476Y-82488809D02*
X222130952Y-82488809D01*
X221178571Y-82393571D02*
X221035714Y-82441190D01*
X221035714Y-82441190D02*
X220988095Y-82488809D01*
X220988095Y-82488809D02*
X220940476Y-82584047D01*
X220940476Y-82584047D02*
X220940476Y-82726904D01*
X220940476Y-82726904D02*
X220988095Y-82822142D01*
X220988095Y-82822142D02*
X221035714Y-82869761D01*
X221035714Y-82869761D02*
X221130952Y-82917380D01*
X221130952Y-82917380D02*
X221511904Y-82917380D01*
X221511904Y-82917380D02*
X221511904Y-81917380D01*
X221511904Y-81917380D02*
X221178571Y-81917380D01*
X221178571Y-81917380D02*
X221083333Y-81965000D01*
X221083333Y-81965000D02*
X221035714Y-82012619D01*
X221035714Y-82012619D02*
X220988095Y-82107857D01*
X220988095Y-82107857D02*
X220988095Y-82203095D01*
X220988095Y-82203095D02*
X221035714Y-82298333D01*
X221035714Y-82298333D02*
X221083333Y-82345952D01*
X221083333Y-82345952D02*
X221178571Y-82393571D01*
X221178571Y-82393571D02*
X221511904Y-82393571D01*
X165957142Y-100967380D02*
X165338095Y-100967380D01*
X165338095Y-100967380D02*
X165671428Y-101348333D01*
X165671428Y-101348333D02*
X165528571Y-101348333D01*
X165528571Y-101348333D02*
X165433333Y-101395952D01*
X165433333Y-101395952D02*
X165385714Y-101443571D01*
X165385714Y-101443571D02*
X165338095Y-101538809D01*
X165338095Y-101538809D02*
X165338095Y-101776904D01*
X165338095Y-101776904D02*
X165385714Y-101872142D01*
X165385714Y-101872142D02*
X165433333Y-101919761D01*
X165433333Y-101919761D02*
X165528571Y-101967380D01*
X165528571Y-101967380D02*
X165814285Y-101967380D01*
X165814285Y-101967380D02*
X165909523Y-101919761D01*
X165909523Y-101919761D02*
X165957142Y-101872142D01*
X164909523Y-100967380D02*
X164909523Y-101776904D01*
X164909523Y-101776904D02*
X164861904Y-101872142D01*
X164861904Y-101872142D02*
X164814285Y-101919761D01*
X164814285Y-101919761D02*
X164719047Y-101967380D01*
X164719047Y-101967380D02*
X164528571Y-101967380D01*
X164528571Y-101967380D02*
X164433333Y-101919761D01*
X164433333Y-101919761D02*
X164385714Y-101872142D01*
X164385714Y-101872142D02*
X164338095Y-101776904D01*
X164338095Y-101776904D02*
X164338095Y-100967380D01*
X106319974Y-86891703D02*
X106272355Y-86844084D01*
X106272355Y-86844084D02*
X106177117Y-86796464D01*
X106177117Y-86796464D02*
X105939022Y-86796464D01*
X105939022Y-86796464D02*
X105843784Y-86844084D01*
X105843784Y-86844084D02*
X105796165Y-86891703D01*
X105796165Y-86891703D02*
X105748546Y-86986941D01*
X105748546Y-86986941D02*
X105748546Y-87082179D01*
X105748546Y-87082179D02*
X105796165Y-87225036D01*
X105796165Y-87225036D02*
X106367593Y-87796464D01*
X106367593Y-87796464D02*
X105748546Y-87796464D01*
X105319974Y-86796464D02*
X105319974Y-87605988D01*
X105319974Y-87605988D02*
X105272355Y-87701226D01*
X105272355Y-87701226D02*
X105224736Y-87748845D01*
X105224736Y-87748845D02*
X105129498Y-87796464D01*
X105129498Y-87796464D02*
X104939022Y-87796464D01*
X104939022Y-87796464D02*
X104843784Y-87748845D01*
X104843784Y-87748845D02*
X104796165Y-87701226D01*
X104796165Y-87701226D02*
X104748546Y-87605988D01*
X104748546Y-87605988D02*
X104748546Y-86796464D01*
X37933189Y-60946380D02*
X37933189Y-59946380D01*
X37504618Y-60898761D02*
X37361761Y-60946380D01*
X37361761Y-60946380D02*
X37123666Y-60946380D01*
X37123666Y-60946380D02*
X37028428Y-60898761D01*
X37028428Y-60898761D02*
X36980809Y-60851142D01*
X36980809Y-60851142D02*
X36933190Y-60755904D01*
X36933190Y-60755904D02*
X36933190Y-60660666D01*
X36933190Y-60660666D02*
X36980809Y-60565428D01*
X36980809Y-60565428D02*
X37028428Y-60517809D01*
X37028428Y-60517809D02*
X37123666Y-60470190D01*
X37123666Y-60470190D02*
X37314142Y-60422571D01*
X37314142Y-60422571D02*
X37409380Y-60374952D01*
X37409380Y-60374952D02*
X37456999Y-60327333D01*
X37456999Y-60327333D02*
X37504618Y-60232095D01*
X37504618Y-60232095D02*
X37504618Y-60136857D01*
X37504618Y-60136857D02*
X37456999Y-60041619D01*
X37456999Y-60041619D02*
X37409380Y-59994000D01*
X37409380Y-59994000D02*
X37314142Y-59946380D01*
X37314142Y-59946380D02*
X37076047Y-59946380D01*
X37076047Y-59946380D02*
X36933190Y-59994000D01*
X36504618Y-60946380D02*
X36504618Y-59946380D01*
X36504618Y-59946380D02*
X36123666Y-59946380D01*
X36123666Y-59946380D02*
X36028428Y-59994000D01*
X36028428Y-59994000D02*
X35980809Y-60041619D01*
X35980809Y-60041619D02*
X35933190Y-60136857D01*
X35933190Y-60136857D02*
X35933190Y-60279714D01*
X35933190Y-60279714D02*
X35980809Y-60374952D01*
X35980809Y-60374952D02*
X36028428Y-60422571D01*
X36028428Y-60422571D02*
X36123666Y-60470190D01*
X36123666Y-60470190D02*
X36504618Y-60470190D01*
X151764880Y-101967380D02*
X152336308Y-101967380D01*
X152050594Y-101967380D02*
X152050594Y-100967380D01*
X152050594Y-100967380D02*
X152145832Y-101110238D01*
X152145832Y-101110238D02*
X152241070Y-101205476D01*
X152241070Y-101205476D02*
X152336308Y-101253095D01*
X151336308Y-101872142D02*
X151288689Y-101919761D01*
X151288689Y-101919761D02*
X151336308Y-101967380D01*
X151336308Y-101967380D02*
X151383927Y-101919761D01*
X151383927Y-101919761D02*
X151336308Y-101872142D01*
X151336308Y-101872142D02*
X151336308Y-101967380D01*
X150383928Y-100967380D02*
X150860118Y-100967380D01*
X150860118Y-100967380D02*
X150907737Y-101443571D01*
X150907737Y-101443571D02*
X150860118Y-101395952D01*
X150860118Y-101395952D02*
X150764880Y-101348333D01*
X150764880Y-101348333D02*
X150526785Y-101348333D01*
X150526785Y-101348333D02*
X150431547Y-101395952D01*
X150431547Y-101395952D02*
X150383928Y-101443571D01*
X150383928Y-101443571D02*
X150336309Y-101538809D01*
X150336309Y-101538809D02*
X150336309Y-101776904D01*
X150336309Y-101776904D02*
X150383928Y-101872142D01*
X150383928Y-101872142D02*
X150431547Y-101919761D01*
X150431547Y-101919761D02*
X150526785Y-101967380D01*
X150526785Y-101967380D02*
X150764880Y-101967380D01*
X150764880Y-101967380D02*
X150860118Y-101919761D01*
X150860118Y-101919761D02*
X150907737Y-101872142D01*
X149907737Y-100967380D02*
X149907737Y-101776904D01*
X149907737Y-101776904D02*
X149860118Y-101872142D01*
X149860118Y-101872142D02*
X149812499Y-101919761D01*
X149812499Y-101919761D02*
X149717261Y-101967380D01*
X149717261Y-101967380D02*
X149526785Y-101967380D01*
X149526785Y-101967380D02*
X149431547Y-101919761D01*
X149431547Y-101919761D02*
X149383928Y-101872142D01*
X149383928Y-101872142D02*
X149336309Y-101776904D01*
X149336309Y-101776904D02*
X149336309Y-100967380D01*
X123189880Y-101967380D02*
X123761308Y-101967380D01*
X123475594Y-101967380D02*
X123475594Y-100967380D01*
X123475594Y-100967380D02*
X123570832Y-101110238D01*
X123570832Y-101110238D02*
X123666070Y-101205476D01*
X123666070Y-101205476D02*
X123761308Y-101253095D01*
X122761308Y-101872142D02*
X122713689Y-101919761D01*
X122713689Y-101919761D02*
X122761308Y-101967380D01*
X122761308Y-101967380D02*
X122808927Y-101919761D01*
X122808927Y-101919761D02*
X122761308Y-101872142D01*
X122761308Y-101872142D02*
X122761308Y-101967380D01*
X121808928Y-100967380D02*
X122285118Y-100967380D01*
X122285118Y-100967380D02*
X122332737Y-101443571D01*
X122332737Y-101443571D02*
X122285118Y-101395952D01*
X122285118Y-101395952D02*
X122189880Y-101348333D01*
X122189880Y-101348333D02*
X121951785Y-101348333D01*
X121951785Y-101348333D02*
X121856547Y-101395952D01*
X121856547Y-101395952D02*
X121808928Y-101443571D01*
X121808928Y-101443571D02*
X121761309Y-101538809D01*
X121761309Y-101538809D02*
X121761309Y-101776904D01*
X121761309Y-101776904D02*
X121808928Y-101872142D01*
X121808928Y-101872142D02*
X121856547Y-101919761D01*
X121856547Y-101919761D02*
X121951785Y-101967380D01*
X121951785Y-101967380D02*
X122189880Y-101967380D01*
X122189880Y-101967380D02*
X122285118Y-101919761D01*
X122285118Y-101919761D02*
X122332737Y-101872142D01*
X121332737Y-100967380D02*
X121332737Y-101776904D01*
X121332737Y-101776904D02*
X121285118Y-101872142D01*
X121285118Y-101872142D02*
X121237499Y-101919761D01*
X121237499Y-101919761D02*
X121142261Y-101967380D01*
X121142261Y-101967380D02*
X120951785Y-101967380D01*
X120951785Y-101967380D02*
X120856547Y-101919761D01*
X120856547Y-101919761D02*
X120808928Y-101872142D01*
X120808928Y-101872142D02*
X120761309Y-101776904D01*
X120761309Y-101776904D02*
X120761309Y-100967380D01*
X108807142Y-100967380D02*
X108188095Y-100967380D01*
X108188095Y-100967380D02*
X108521428Y-101348333D01*
X108521428Y-101348333D02*
X108378571Y-101348333D01*
X108378571Y-101348333D02*
X108283333Y-101395952D01*
X108283333Y-101395952D02*
X108235714Y-101443571D01*
X108235714Y-101443571D02*
X108188095Y-101538809D01*
X108188095Y-101538809D02*
X108188095Y-101776904D01*
X108188095Y-101776904D02*
X108235714Y-101872142D01*
X108235714Y-101872142D02*
X108283333Y-101919761D01*
X108283333Y-101919761D02*
X108378571Y-101967380D01*
X108378571Y-101967380D02*
X108664285Y-101967380D01*
X108664285Y-101967380D02*
X108759523Y-101919761D01*
X108759523Y-101919761D02*
X108807142Y-101872142D01*
X107759523Y-100967380D02*
X107759523Y-101776904D01*
X107759523Y-101776904D02*
X107711904Y-101872142D01*
X107711904Y-101872142D02*
X107664285Y-101919761D01*
X107664285Y-101919761D02*
X107569047Y-101967380D01*
X107569047Y-101967380D02*
X107378571Y-101967380D01*
X107378571Y-101967380D02*
X107283333Y-101919761D01*
X107283333Y-101919761D02*
X107235714Y-101872142D01*
X107235714Y-101872142D02*
X107188095Y-101776904D01*
X107188095Y-101776904D02*
X107188095Y-100967380D01*
X194532142Y-86679880D02*
X193865476Y-86679880D01*
X193865476Y-86679880D02*
X194294047Y-87679880D01*
X193484523Y-86679880D02*
X193484523Y-87489404D01*
X193484523Y-87489404D02*
X193436904Y-87584642D01*
X193436904Y-87584642D02*
X193389285Y-87632261D01*
X193389285Y-87632261D02*
X193294047Y-87679880D01*
X193294047Y-87679880D02*
X193103571Y-87679880D01*
X193103571Y-87679880D02*
X193008333Y-87632261D01*
X193008333Y-87632261D02*
X192960714Y-87584642D01*
X192960714Y-87584642D02*
X192913095Y-87489404D01*
X192913095Y-87489404D02*
X192913095Y-86679880D01*
X156384523Y-101062619D02*
X156336904Y-101015000D01*
X156336904Y-101015000D02*
X156241666Y-100967380D01*
X156241666Y-100967380D02*
X156003571Y-100967380D01*
X156003571Y-100967380D02*
X155908333Y-101015000D01*
X155908333Y-101015000D02*
X155860714Y-101062619D01*
X155860714Y-101062619D02*
X155813095Y-101157857D01*
X155813095Y-101157857D02*
X155813095Y-101253095D01*
X155813095Y-101253095D02*
X155860714Y-101395952D01*
X155860714Y-101395952D02*
X156432142Y-101967380D01*
X156432142Y-101967380D02*
X155813095Y-101967380D01*
X155384523Y-100967380D02*
X155384523Y-101776904D01*
X155384523Y-101776904D02*
X155336904Y-101872142D01*
X155336904Y-101872142D02*
X155289285Y-101919761D01*
X155289285Y-101919761D02*
X155194047Y-101967380D01*
X155194047Y-101967380D02*
X155003571Y-101967380D01*
X155003571Y-101967380D02*
X154908333Y-101919761D01*
X154908333Y-101919761D02*
X154860714Y-101872142D01*
X154860714Y-101872142D02*
X154813095Y-101776904D01*
X154813095Y-101776904D02*
X154813095Y-100967380D01*
X46989880Y-101967380D02*
X47561308Y-101967380D01*
X47275594Y-101967380D02*
X47275594Y-100967380D01*
X47275594Y-100967380D02*
X47370832Y-101110238D01*
X47370832Y-101110238D02*
X47466070Y-101205476D01*
X47466070Y-101205476D02*
X47561308Y-101253095D01*
X46561308Y-101872142D02*
X46513689Y-101919761D01*
X46513689Y-101919761D02*
X46561308Y-101967380D01*
X46561308Y-101967380D02*
X46608927Y-101919761D01*
X46608927Y-101919761D02*
X46561308Y-101872142D01*
X46561308Y-101872142D02*
X46561308Y-101967380D01*
X45608928Y-100967380D02*
X46085118Y-100967380D01*
X46085118Y-100967380D02*
X46132737Y-101443571D01*
X46132737Y-101443571D02*
X46085118Y-101395952D01*
X46085118Y-101395952D02*
X45989880Y-101348333D01*
X45989880Y-101348333D02*
X45751785Y-101348333D01*
X45751785Y-101348333D02*
X45656547Y-101395952D01*
X45656547Y-101395952D02*
X45608928Y-101443571D01*
X45608928Y-101443571D02*
X45561309Y-101538809D01*
X45561309Y-101538809D02*
X45561309Y-101776904D01*
X45561309Y-101776904D02*
X45608928Y-101872142D01*
X45608928Y-101872142D02*
X45656547Y-101919761D01*
X45656547Y-101919761D02*
X45751785Y-101967380D01*
X45751785Y-101967380D02*
X45989880Y-101967380D01*
X45989880Y-101967380D02*
X46085118Y-101919761D01*
X46085118Y-101919761D02*
X46132737Y-101872142D01*
X45132737Y-100967380D02*
X45132737Y-101776904D01*
X45132737Y-101776904D02*
X45085118Y-101872142D01*
X45085118Y-101872142D02*
X45037499Y-101919761D01*
X45037499Y-101919761D02*
X44942261Y-101967380D01*
X44942261Y-101967380D02*
X44751785Y-101967380D01*
X44751785Y-101967380D02*
X44656547Y-101919761D01*
X44656547Y-101919761D02*
X44608928Y-101872142D01*
X44608928Y-101872142D02*
X44561309Y-101776904D01*
X44561309Y-101776904D02*
X44561309Y-100967380D01*
X137382142Y-102554880D02*
X136715476Y-102554880D01*
X136715476Y-102554880D02*
X137144047Y-103554880D01*
X136334523Y-102554880D02*
X136334523Y-103364404D01*
X136334523Y-103364404D02*
X136286904Y-103459642D01*
X136286904Y-103459642D02*
X136239285Y-103507261D01*
X136239285Y-103507261D02*
X136144047Y-103554880D01*
X136144047Y-103554880D02*
X135953571Y-103554880D01*
X135953571Y-103554880D02*
X135858333Y-103507261D01*
X135858333Y-103507261D02*
X135810714Y-103459642D01*
X135810714Y-103459642D02*
X135763095Y-103364404D01*
X135763095Y-103364404D02*
X135763095Y-102554880D01*
X15700951Y-118493380D02*
X15700951Y-119207666D01*
X15700951Y-119207666D02*
X15653332Y-119350523D01*
X15653332Y-119350523D02*
X15558094Y-119445761D01*
X15558094Y-119445761D02*
X15415237Y-119493380D01*
X15415237Y-119493380D02*
X15319999Y-119493380D01*
X16653332Y-119493380D02*
X16177142Y-119493380D01*
X16177142Y-119493380D02*
X16177142Y-118493380D01*
X17558094Y-119398142D02*
X17510475Y-119445761D01*
X17510475Y-119445761D02*
X17367618Y-119493380D01*
X17367618Y-119493380D02*
X17272380Y-119493380D01*
X17272380Y-119493380D02*
X17129523Y-119445761D01*
X17129523Y-119445761D02*
X17034285Y-119350523D01*
X17034285Y-119350523D02*
X16986666Y-119255285D01*
X16986666Y-119255285D02*
X16939047Y-119064809D01*
X16939047Y-119064809D02*
X16939047Y-118921952D01*
X16939047Y-118921952D02*
X16986666Y-118731476D01*
X16986666Y-118731476D02*
X17034285Y-118636238D01*
X17034285Y-118636238D02*
X17129523Y-118541000D01*
X17129523Y-118541000D02*
X17272380Y-118493380D01*
X17272380Y-118493380D02*
X17367618Y-118493380D01*
X17367618Y-118493380D02*
X17510475Y-118541000D01*
X17510475Y-118541000D02*
X17558094Y-118588619D01*
X18272380Y-118493380D02*
X18272380Y-119207666D01*
X18272380Y-119207666D02*
X18224761Y-119350523D01*
X18224761Y-119350523D02*
X18129523Y-119445761D01*
X18129523Y-119445761D02*
X17986666Y-119493380D01*
X17986666Y-119493380D02*
X17891428Y-119493380D01*
X19224761Y-119493380D02*
X18748571Y-119493380D01*
X18748571Y-119493380D02*
X18748571Y-118493380D01*
X20129523Y-119398142D02*
X20081904Y-119445761D01*
X20081904Y-119445761D02*
X19939047Y-119493380D01*
X19939047Y-119493380D02*
X19843809Y-119493380D01*
X19843809Y-119493380D02*
X19700952Y-119445761D01*
X19700952Y-119445761D02*
X19605714Y-119350523D01*
X19605714Y-119350523D02*
X19558095Y-119255285D01*
X19558095Y-119255285D02*
X19510476Y-119064809D01*
X19510476Y-119064809D02*
X19510476Y-118921952D01*
X19510476Y-118921952D02*
X19558095Y-118731476D01*
X19558095Y-118731476D02*
X19605714Y-118636238D01*
X19605714Y-118636238D02*
X19700952Y-118541000D01*
X19700952Y-118541000D02*
X19843809Y-118493380D01*
X19843809Y-118493380D02*
X19939047Y-118493380D01*
X19939047Y-118493380D02*
X20081904Y-118541000D01*
X20081904Y-118541000D02*
X20129523Y-118588619D01*
X20843809Y-118493380D02*
X20843809Y-119207666D01*
X20843809Y-119207666D02*
X20796190Y-119350523D01*
X20796190Y-119350523D02*
X20700952Y-119445761D01*
X20700952Y-119445761D02*
X20558095Y-119493380D01*
X20558095Y-119493380D02*
X20462857Y-119493380D01*
X21796190Y-119493380D02*
X21320000Y-119493380D01*
X21320000Y-119493380D02*
X21320000Y-118493380D01*
X22700952Y-119398142D02*
X22653333Y-119445761D01*
X22653333Y-119445761D02*
X22510476Y-119493380D01*
X22510476Y-119493380D02*
X22415238Y-119493380D01*
X22415238Y-119493380D02*
X22272381Y-119445761D01*
X22272381Y-119445761D02*
X22177143Y-119350523D01*
X22177143Y-119350523D02*
X22129524Y-119255285D01*
X22129524Y-119255285D02*
X22081905Y-119064809D01*
X22081905Y-119064809D02*
X22081905Y-118921952D01*
X22081905Y-118921952D02*
X22129524Y-118731476D01*
X22129524Y-118731476D02*
X22177143Y-118636238D01*
X22177143Y-118636238D02*
X22272381Y-118541000D01*
X22272381Y-118541000D02*
X22415238Y-118493380D01*
X22415238Y-118493380D02*
X22510476Y-118493380D01*
X22510476Y-118493380D02*
X22653333Y-118541000D01*
X22653333Y-118541000D02*
X22700952Y-118588619D01*
X23415238Y-118493380D02*
X23415238Y-119207666D01*
X23415238Y-119207666D02*
X23367619Y-119350523D01*
X23367619Y-119350523D02*
X23272381Y-119445761D01*
X23272381Y-119445761D02*
X23129524Y-119493380D01*
X23129524Y-119493380D02*
X23034286Y-119493380D01*
X24367619Y-119493380D02*
X23891429Y-119493380D01*
X23891429Y-119493380D02*
X23891429Y-118493380D01*
X25272381Y-119398142D02*
X25224762Y-119445761D01*
X25224762Y-119445761D02*
X25081905Y-119493380D01*
X25081905Y-119493380D02*
X24986667Y-119493380D01*
X24986667Y-119493380D02*
X24843810Y-119445761D01*
X24843810Y-119445761D02*
X24748572Y-119350523D01*
X24748572Y-119350523D02*
X24700953Y-119255285D01*
X24700953Y-119255285D02*
X24653334Y-119064809D01*
X24653334Y-119064809D02*
X24653334Y-118921952D01*
X24653334Y-118921952D02*
X24700953Y-118731476D01*
X24700953Y-118731476D02*
X24748572Y-118636238D01*
X24748572Y-118636238D02*
X24843810Y-118541000D01*
X24843810Y-118541000D02*
X24986667Y-118493380D01*
X24986667Y-118493380D02*
X25081905Y-118493380D01*
X25081905Y-118493380D02*
X25224762Y-118541000D01*
X25224762Y-118541000D02*
X25272381Y-118588619D01*
X227964880Y-101967380D02*
X228536308Y-101967380D01*
X228250594Y-101967380D02*
X228250594Y-100967380D01*
X228250594Y-100967380D02*
X228345832Y-101110238D01*
X228345832Y-101110238D02*
X228441070Y-101205476D01*
X228441070Y-101205476D02*
X228536308Y-101253095D01*
X227536308Y-101872142D02*
X227488689Y-101919761D01*
X227488689Y-101919761D02*
X227536308Y-101967380D01*
X227536308Y-101967380D02*
X227583927Y-101919761D01*
X227583927Y-101919761D02*
X227536308Y-101872142D01*
X227536308Y-101872142D02*
X227536308Y-101967380D01*
X226583928Y-100967380D02*
X227060118Y-100967380D01*
X227060118Y-100967380D02*
X227107737Y-101443571D01*
X227107737Y-101443571D02*
X227060118Y-101395952D01*
X227060118Y-101395952D02*
X226964880Y-101348333D01*
X226964880Y-101348333D02*
X226726785Y-101348333D01*
X226726785Y-101348333D02*
X226631547Y-101395952D01*
X226631547Y-101395952D02*
X226583928Y-101443571D01*
X226583928Y-101443571D02*
X226536309Y-101538809D01*
X226536309Y-101538809D02*
X226536309Y-101776904D01*
X226536309Y-101776904D02*
X226583928Y-101872142D01*
X226583928Y-101872142D02*
X226631547Y-101919761D01*
X226631547Y-101919761D02*
X226726785Y-101967380D01*
X226726785Y-101967380D02*
X226964880Y-101967380D01*
X226964880Y-101967380D02*
X227060118Y-101919761D01*
X227060118Y-101919761D02*
X227107737Y-101872142D01*
X226107737Y-100967380D02*
X226107737Y-101776904D01*
X226107737Y-101776904D02*
X226060118Y-101872142D01*
X226060118Y-101872142D02*
X226012499Y-101919761D01*
X226012499Y-101919761D02*
X225917261Y-101967380D01*
X225917261Y-101967380D02*
X225726785Y-101967380D01*
X225726785Y-101967380D02*
X225631547Y-101919761D01*
X225631547Y-101919761D02*
X225583928Y-101872142D01*
X225583928Y-101872142D02*
X225536309Y-101776904D01*
X225536309Y-101776904D02*
X225536309Y-100967380D01*
X136858333Y-100967380D02*
X137048809Y-100967380D01*
X137048809Y-100967380D02*
X137144047Y-101015000D01*
X137144047Y-101015000D02*
X137191666Y-101062619D01*
X137191666Y-101062619D02*
X137286904Y-101205476D01*
X137286904Y-101205476D02*
X137334523Y-101395952D01*
X137334523Y-101395952D02*
X137334523Y-101776904D01*
X137334523Y-101776904D02*
X137286904Y-101872142D01*
X137286904Y-101872142D02*
X137239285Y-101919761D01*
X137239285Y-101919761D02*
X137144047Y-101967380D01*
X137144047Y-101967380D02*
X136953571Y-101967380D01*
X136953571Y-101967380D02*
X136858333Y-101919761D01*
X136858333Y-101919761D02*
X136810714Y-101872142D01*
X136810714Y-101872142D02*
X136763095Y-101776904D01*
X136763095Y-101776904D02*
X136763095Y-101538809D01*
X136763095Y-101538809D02*
X136810714Y-101443571D01*
X136810714Y-101443571D02*
X136858333Y-101395952D01*
X136858333Y-101395952D02*
X136953571Y-101348333D01*
X136953571Y-101348333D02*
X137144047Y-101348333D01*
X137144047Y-101348333D02*
X137239285Y-101395952D01*
X137239285Y-101395952D02*
X137286904Y-101443571D01*
X137286904Y-101443571D02*
X137334523Y-101538809D01*
X136334523Y-100967380D02*
X136334523Y-101776904D01*
X136334523Y-101776904D02*
X136286904Y-101872142D01*
X136286904Y-101872142D02*
X136239285Y-101919761D01*
X136239285Y-101919761D02*
X136144047Y-101967380D01*
X136144047Y-101967380D02*
X135953571Y-101967380D01*
X135953571Y-101967380D02*
X135858333Y-101919761D01*
X135858333Y-101919761D02*
X135810714Y-101872142D01*
X135810714Y-101872142D02*
X135763095Y-101776904D01*
X135763095Y-101776904D02*
X135763095Y-100967380D01*
X185007142Y-86679880D02*
X184388095Y-86679880D01*
X184388095Y-86679880D02*
X184721428Y-87060833D01*
X184721428Y-87060833D02*
X184578571Y-87060833D01*
X184578571Y-87060833D02*
X184483333Y-87108452D01*
X184483333Y-87108452D02*
X184435714Y-87156071D01*
X184435714Y-87156071D02*
X184388095Y-87251309D01*
X184388095Y-87251309D02*
X184388095Y-87489404D01*
X184388095Y-87489404D02*
X184435714Y-87584642D01*
X184435714Y-87584642D02*
X184483333Y-87632261D01*
X184483333Y-87632261D02*
X184578571Y-87679880D01*
X184578571Y-87679880D02*
X184864285Y-87679880D01*
X184864285Y-87679880D02*
X184959523Y-87632261D01*
X184959523Y-87632261D02*
X185007142Y-87584642D01*
X183959523Y-86679880D02*
X183959523Y-87489404D01*
X183959523Y-87489404D02*
X183911904Y-87584642D01*
X183911904Y-87584642D02*
X183864285Y-87632261D01*
X183864285Y-87632261D02*
X183769047Y-87679880D01*
X183769047Y-87679880D02*
X183578571Y-87679880D01*
X183578571Y-87679880D02*
X183483333Y-87632261D01*
X183483333Y-87632261D02*
X183435714Y-87584642D01*
X183435714Y-87584642D02*
X183388095Y-87489404D01*
X183388095Y-87489404D02*
X183388095Y-86679880D01*
X144366151Y-86755603D02*
X144318532Y-86707984D01*
X144318532Y-86707984D02*
X144223294Y-86660364D01*
X144223294Y-86660364D02*
X143985199Y-86660364D01*
X143985199Y-86660364D02*
X143889961Y-86707984D01*
X143889961Y-86707984D02*
X143842342Y-86755603D01*
X143842342Y-86755603D02*
X143794723Y-86850841D01*
X143794723Y-86850841D02*
X143794723Y-86946079D01*
X143794723Y-86946079D02*
X143842342Y-87088936D01*
X143842342Y-87088936D02*
X144413770Y-87660364D01*
X144413770Y-87660364D02*
X143794723Y-87660364D01*
X143366151Y-86660364D02*
X143366151Y-87469888D01*
X143366151Y-87469888D02*
X143318532Y-87565126D01*
X143318532Y-87565126D02*
X143270913Y-87612745D01*
X143270913Y-87612745D02*
X143175675Y-87660364D01*
X143175675Y-87660364D02*
X142985199Y-87660364D01*
X142985199Y-87660364D02*
X142889961Y-87612745D01*
X142889961Y-87612745D02*
X142842342Y-87565126D01*
X142842342Y-87565126D02*
X142794723Y-87469888D01*
X142794723Y-87469888D02*
X142794723Y-86660364D01*
X127857142Y-86679880D02*
X127238095Y-86679880D01*
X127238095Y-86679880D02*
X127571428Y-87060833D01*
X127571428Y-87060833D02*
X127428571Y-87060833D01*
X127428571Y-87060833D02*
X127333333Y-87108452D01*
X127333333Y-87108452D02*
X127285714Y-87156071D01*
X127285714Y-87156071D02*
X127238095Y-87251309D01*
X127238095Y-87251309D02*
X127238095Y-87489404D01*
X127238095Y-87489404D02*
X127285714Y-87584642D01*
X127285714Y-87584642D02*
X127333333Y-87632261D01*
X127333333Y-87632261D02*
X127428571Y-87679880D01*
X127428571Y-87679880D02*
X127714285Y-87679880D01*
X127714285Y-87679880D02*
X127809523Y-87632261D01*
X127809523Y-87632261D02*
X127857142Y-87584642D01*
X126809523Y-86679880D02*
X126809523Y-87489404D01*
X126809523Y-87489404D02*
X126761904Y-87584642D01*
X126761904Y-87584642D02*
X126714285Y-87632261D01*
X126714285Y-87632261D02*
X126619047Y-87679880D01*
X126619047Y-87679880D02*
X126428571Y-87679880D01*
X126428571Y-87679880D02*
X126333333Y-87632261D01*
X126333333Y-87632261D02*
X126285714Y-87584642D01*
X126285714Y-87584642D02*
X126238095Y-87489404D01*
X126238095Y-87489404D02*
X126238095Y-86679880D01*
X89757142Y-86679880D02*
X89138095Y-86679880D01*
X89138095Y-86679880D02*
X89471428Y-87060833D01*
X89471428Y-87060833D02*
X89328571Y-87060833D01*
X89328571Y-87060833D02*
X89233333Y-87108452D01*
X89233333Y-87108452D02*
X89185714Y-87156071D01*
X89185714Y-87156071D02*
X89138095Y-87251309D01*
X89138095Y-87251309D02*
X89138095Y-87489404D01*
X89138095Y-87489404D02*
X89185714Y-87584642D01*
X89185714Y-87584642D02*
X89233333Y-87632261D01*
X89233333Y-87632261D02*
X89328571Y-87679880D01*
X89328571Y-87679880D02*
X89614285Y-87679880D01*
X89614285Y-87679880D02*
X89709523Y-87632261D01*
X89709523Y-87632261D02*
X89757142Y-87584642D01*
X88709523Y-86679880D02*
X88709523Y-87489404D01*
X88709523Y-87489404D02*
X88661904Y-87584642D01*
X88661904Y-87584642D02*
X88614285Y-87632261D01*
X88614285Y-87632261D02*
X88519047Y-87679880D01*
X88519047Y-87679880D02*
X88328571Y-87679880D01*
X88328571Y-87679880D02*
X88233333Y-87632261D01*
X88233333Y-87632261D02*
X88185714Y-87584642D01*
X88185714Y-87584642D02*
X88138095Y-87489404D01*
X88138095Y-87489404D02*
X88138095Y-86679880D01*
X168313204Y-86710759D02*
X168265585Y-86663140D01*
X168265585Y-86663140D02*
X168170347Y-86615520D01*
X168170347Y-86615520D02*
X167932252Y-86615520D01*
X167932252Y-86615520D02*
X167837014Y-86663140D01*
X167837014Y-86663140D02*
X167789395Y-86710759D01*
X167789395Y-86710759D02*
X167741776Y-86805997D01*
X167741776Y-86805997D02*
X167741776Y-86901235D01*
X167741776Y-86901235D02*
X167789395Y-87044092D01*
X167789395Y-87044092D02*
X168360823Y-87615520D01*
X168360823Y-87615520D02*
X167741776Y-87615520D01*
X167313204Y-86615520D02*
X167313204Y-87425044D01*
X167313204Y-87425044D02*
X167265585Y-87520282D01*
X167265585Y-87520282D02*
X167217966Y-87567901D01*
X167217966Y-87567901D02*
X167122728Y-87615520D01*
X167122728Y-87615520D02*
X166932252Y-87615520D01*
X166932252Y-87615520D02*
X166837014Y-87567901D01*
X166837014Y-87567901D02*
X166789395Y-87520282D01*
X166789395Y-87520282D02*
X166741776Y-87425044D01*
X166741776Y-87425044D02*
X166741776Y-86615520D01*
X146907142Y-86679880D02*
X146288095Y-86679880D01*
X146288095Y-86679880D02*
X146621428Y-87060833D01*
X146621428Y-87060833D02*
X146478571Y-87060833D01*
X146478571Y-87060833D02*
X146383333Y-87108452D01*
X146383333Y-87108452D02*
X146335714Y-87156071D01*
X146335714Y-87156071D02*
X146288095Y-87251309D01*
X146288095Y-87251309D02*
X146288095Y-87489404D01*
X146288095Y-87489404D02*
X146335714Y-87584642D01*
X146335714Y-87584642D02*
X146383333Y-87632261D01*
X146383333Y-87632261D02*
X146478571Y-87679880D01*
X146478571Y-87679880D02*
X146764285Y-87679880D01*
X146764285Y-87679880D02*
X146859523Y-87632261D01*
X146859523Y-87632261D02*
X146907142Y-87584642D01*
X145859523Y-86679880D02*
X145859523Y-87489404D01*
X145859523Y-87489404D02*
X145811904Y-87584642D01*
X145811904Y-87584642D02*
X145764285Y-87632261D01*
X145764285Y-87632261D02*
X145669047Y-87679880D01*
X145669047Y-87679880D02*
X145478571Y-87679880D01*
X145478571Y-87679880D02*
X145383333Y-87632261D01*
X145383333Y-87632261D02*
X145335714Y-87584642D01*
X145335714Y-87584642D02*
X145288095Y-87489404D01*
X145288095Y-87489404D02*
X145288095Y-86679880D01*
X118284523Y-101062619D02*
X118236904Y-101015000D01*
X118236904Y-101015000D02*
X118141666Y-100967380D01*
X118141666Y-100967380D02*
X117903571Y-100967380D01*
X117903571Y-100967380D02*
X117808333Y-101015000D01*
X117808333Y-101015000D02*
X117760714Y-101062619D01*
X117760714Y-101062619D02*
X117713095Y-101157857D01*
X117713095Y-101157857D02*
X117713095Y-101253095D01*
X117713095Y-101253095D02*
X117760714Y-101395952D01*
X117760714Y-101395952D02*
X118332142Y-101967380D01*
X118332142Y-101967380D02*
X117713095Y-101967380D01*
X117284523Y-100967380D02*
X117284523Y-101776904D01*
X117284523Y-101776904D02*
X117236904Y-101872142D01*
X117236904Y-101872142D02*
X117189285Y-101919761D01*
X117189285Y-101919761D02*
X117094047Y-101967380D01*
X117094047Y-101967380D02*
X116903571Y-101967380D01*
X116903571Y-101967380D02*
X116808333Y-101919761D01*
X116808333Y-101919761D02*
X116760714Y-101872142D01*
X116760714Y-101872142D02*
X116713095Y-101776904D01*
X116713095Y-101776904D02*
X116713095Y-100967380D01*
D11*
X42595618Y-87027690D02*
X42595618Y-86694357D01*
X42595618Y-86789595D02*
X42571808Y-86741976D01*
X42571808Y-86741976D02*
X42547999Y-86718166D01*
X42547999Y-86718166D02*
X42500380Y-86694357D01*
X42500380Y-86694357D02*
X42452761Y-86694357D01*
X42095618Y-87003880D02*
X42143237Y-87027690D01*
X42143237Y-87027690D02*
X42238475Y-87027690D01*
X42238475Y-87027690D02*
X42286094Y-87003880D01*
X42286094Y-87003880D02*
X42309903Y-86956261D01*
X42309903Y-86956261D02*
X42309903Y-86765785D01*
X42309903Y-86765785D02*
X42286094Y-86718166D01*
X42286094Y-86718166D02*
X42238475Y-86694357D01*
X42238475Y-86694357D02*
X42143237Y-86694357D01*
X42143237Y-86694357D02*
X42095618Y-86718166D01*
X42095618Y-86718166D02*
X42071808Y-86765785D01*
X42071808Y-86765785D02*
X42071808Y-86813404D01*
X42071808Y-86813404D02*
X42309903Y-86861023D01*
X41881332Y-87003880D02*
X41833713Y-87027690D01*
X41833713Y-87027690D02*
X41738475Y-87027690D01*
X41738475Y-87027690D02*
X41690856Y-87003880D01*
X41690856Y-87003880D02*
X41667047Y-86956261D01*
X41667047Y-86956261D02*
X41667047Y-86932452D01*
X41667047Y-86932452D02*
X41690856Y-86884833D01*
X41690856Y-86884833D02*
X41738475Y-86861023D01*
X41738475Y-86861023D02*
X41809904Y-86861023D01*
X41809904Y-86861023D02*
X41857523Y-86837214D01*
X41857523Y-86837214D02*
X41881332Y-86789595D01*
X41881332Y-86789595D02*
X41881332Y-86765785D01*
X41881332Y-86765785D02*
X41857523Y-86718166D01*
X41857523Y-86718166D02*
X41809904Y-86694357D01*
X41809904Y-86694357D02*
X41738475Y-86694357D01*
X41738475Y-86694357D02*
X41690856Y-86718166D01*
X41452761Y-87027690D02*
X41452761Y-86694357D01*
X41452761Y-86527690D02*
X41476570Y-86551500D01*
X41476570Y-86551500D02*
X41452761Y-86575309D01*
X41452761Y-86575309D02*
X41428951Y-86551500D01*
X41428951Y-86551500D02*
X41452761Y-86527690D01*
X41452761Y-86527690D02*
X41452761Y-86575309D01*
X41238475Y-87003880D02*
X41190856Y-87027690D01*
X41190856Y-87027690D02*
X41095618Y-87027690D01*
X41095618Y-87027690D02*
X41047999Y-87003880D01*
X41047999Y-87003880D02*
X41024190Y-86956261D01*
X41024190Y-86956261D02*
X41024190Y-86932452D01*
X41024190Y-86932452D02*
X41047999Y-86884833D01*
X41047999Y-86884833D02*
X41095618Y-86861023D01*
X41095618Y-86861023D02*
X41167047Y-86861023D01*
X41167047Y-86861023D02*
X41214666Y-86837214D01*
X41214666Y-86837214D02*
X41238475Y-86789595D01*
X41238475Y-86789595D02*
X41238475Y-86765785D01*
X41238475Y-86765785D02*
X41214666Y-86718166D01*
X41214666Y-86718166D02*
X41167047Y-86694357D01*
X41167047Y-86694357D02*
X41095618Y-86694357D01*
X41095618Y-86694357D02*
X41047999Y-86718166D01*
X40881332Y-86694357D02*
X40690856Y-86694357D01*
X40809904Y-86527690D02*
X40809904Y-86956261D01*
X40809904Y-86956261D02*
X40786094Y-87003880D01*
X40786094Y-87003880D02*
X40738475Y-87027690D01*
X40738475Y-87027690D02*
X40690856Y-87027690D01*
X40452761Y-87027690D02*
X40500380Y-87003880D01*
X40500380Y-87003880D02*
X40524190Y-86980071D01*
X40524190Y-86980071D02*
X40547999Y-86932452D01*
X40547999Y-86932452D02*
X40547999Y-86789595D01*
X40547999Y-86789595D02*
X40524190Y-86741976D01*
X40524190Y-86741976D02*
X40500380Y-86718166D01*
X40500380Y-86718166D02*
X40452761Y-86694357D01*
X40452761Y-86694357D02*
X40381333Y-86694357D01*
X40381333Y-86694357D02*
X40333714Y-86718166D01*
X40333714Y-86718166D02*
X40309904Y-86741976D01*
X40309904Y-86741976D02*
X40286095Y-86789595D01*
X40286095Y-86789595D02*
X40286095Y-86932452D01*
X40286095Y-86932452D02*
X40309904Y-86980071D01*
X40309904Y-86980071D02*
X40333714Y-87003880D01*
X40333714Y-87003880D02*
X40381333Y-87027690D01*
X40381333Y-87027690D02*
X40452761Y-87027690D01*
X40071809Y-87027690D02*
X40071809Y-86694357D01*
X40071809Y-86789595D02*
X40047999Y-86741976D01*
X40047999Y-86741976D02*
X40024190Y-86718166D01*
X40024190Y-86718166D02*
X39976571Y-86694357D01*
X39976571Y-86694357D02*
X39928952Y-86694357D01*
X42255142Y-87837690D02*
X42255142Y-87337690D01*
X42255142Y-87528166D02*
X42207523Y-87504357D01*
X42207523Y-87504357D02*
X42112285Y-87504357D01*
X42112285Y-87504357D02*
X42064666Y-87528166D01*
X42064666Y-87528166D02*
X42040856Y-87551976D01*
X42040856Y-87551976D02*
X42017047Y-87599595D01*
X42017047Y-87599595D02*
X42017047Y-87742452D01*
X42017047Y-87742452D02*
X42040856Y-87790071D01*
X42040856Y-87790071D02*
X42064666Y-87813880D01*
X42064666Y-87813880D02*
X42112285Y-87837690D01*
X42112285Y-87837690D02*
X42207523Y-87837690D01*
X42207523Y-87837690D02*
X42255142Y-87813880D01*
X41588475Y-87504357D02*
X41588475Y-87837690D01*
X41802761Y-87504357D02*
X41802761Y-87766261D01*
X41802761Y-87766261D02*
X41778951Y-87813880D01*
X41778951Y-87813880D02*
X41731332Y-87837690D01*
X41731332Y-87837690D02*
X41659904Y-87837690D01*
X41659904Y-87837690D02*
X41612285Y-87813880D01*
X41612285Y-87813880D02*
X41588475Y-87790071D01*
X41397999Y-87504357D02*
X41136094Y-87504357D01*
X41136094Y-87504357D02*
X41397999Y-87837690D01*
X41397999Y-87837690D02*
X41136094Y-87837690D01*
X40993237Y-87504357D02*
X40731332Y-87504357D01*
X40731332Y-87504357D02*
X40993237Y-87837690D01*
X40993237Y-87837690D02*
X40731332Y-87837690D01*
X40350380Y-87813880D02*
X40397999Y-87837690D01*
X40397999Y-87837690D02*
X40493237Y-87837690D01*
X40493237Y-87837690D02*
X40540856Y-87813880D01*
X40540856Y-87813880D02*
X40564665Y-87766261D01*
X40564665Y-87766261D02*
X40564665Y-87575785D01*
X40564665Y-87575785D02*
X40540856Y-87528166D01*
X40540856Y-87528166D02*
X40493237Y-87504357D01*
X40493237Y-87504357D02*
X40397999Y-87504357D01*
X40397999Y-87504357D02*
X40350380Y-87528166D01*
X40350380Y-87528166D02*
X40326570Y-87575785D01*
X40326570Y-87575785D02*
X40326570Y-87623404D01*
X40326570Y-87623404D02*
X40564665Y-87671023D01*
X40112285Y-87837690D02*
X40112285Y-87504357D01*
X40112285Y-87599595D02*
X40088475Y-87551976D01*
X40088475Y-87551976D02*
X40064666Y-87528166D01*
X40064666Y-87528166D02*
X40017047Y-87504357D01*
X40017047Y-87504357D02*
X39969428Y-87504357D01*
D10*
X57967285Y-90156380D02*
X57967285Y-89156380D01*
X57967285Y-89537333D02*
X57872047Y-89489714D01*
X57872047Y-89489714D02*
X57681571Y-89489714D01*
X57681571Y-89489714D02*
X57586333Y-89537333D01*
X57586333Y-89537333D02*
X57538714Y-89584952D01*
X57538714Y-89584952D02*
X57491095Y-89680190D01*
X57491095Y-89680190D02*
X57491095Y-89965904D01*
X57491095Y-89965904D02*
X57538714Y-90061142D01*
X57538714Y-90061142D02*
X57586333Y-90108761D01*
X57586333Y-90108761D02*
X57681571Y-90156380D01*
X57681571Y-90156380D02*
X57872047Y-90156380D01*
X57872047Y-90156380D02*
X57967285Y-90108761D01*
X56633952Y-89489714D02*
X56633952Y-90156380D01*
X57062523Y-89489714D02*
X57062523Y-90013523D01*
X57062523Y-90013523D02*
X57014904Y-90108761D01*
X57014904Y-90108761D02*
X56919666Y-90156380D01*
X56919666Y-90156380D02*
X56776809Y-90156380D01*
X56776809Y-90156380D02*
X56681571Y-90108761D01*
X56681571Y-90108761D02*
X56633952Y-90061142D01*
X56252999Y-89489714D02*
X55729190Y-89489714D01*
X55729190Y-89489714D02*
X56252999Y-90156380D01*
X56252999Y-90156380D02*
X55729190Y-90156380D01*
X55443475Y-89489714D02*
X54919666Y-89489714D01*
X54919666Y-89489714D02*
X55443475Y-90156380D01*
X55443475Y-90156380D02*
X54919666Y-90156380D01*
X54157761Y-90108761D02*
X54252999Y-90156380D01*
X54252999Y-90156380D02*
X54443475Y-90156380D01*
X54443475Y-90156380D02*
X54538713Y-90108761D01*
X54538713Y-90108761D02*
X54586332Y-90013523D01*
X54586332Y-90013523D02*
X54586332Y-89632571D01*
X54586332Y-89632571D02*
X54538713Y-89537333D01*
X54538713Y-89537333D02*
X54443475Y-89489714D01*
X54443475Y-89489714D02*
X54252999Y-89489714D01*
X54252999Y-89489714D02*
X54157761Y-89537333D01*
X54157761Y-89537333D02*
X54110142Y-89632571D01*
X54110142Y-89632571D02*
X54110142Y-89727809D01*
X54110142Y-89727809D02*
X54586332Y-89823047D01*
X53681570Y-90156380D02*
X53681570Y-89489714D01*
X53681570Y-89680190D02*
X53633951Y-89584952D01*
X53633951Y-89584952D02*
X53586332Y-89537333D01*
X53586332Y-89537333D02*
X53491094Y-89489714D01*
X53491094Y-89489714D02*
X53395856Y-89489714D01*
%TO.C,SW_Reset2*%
X240299404Y-59487261D02*
X240156547Y-59534880D01*
X240156547Y-59534880D02*
X239918452Y-59534880D01*
X239918452Y-59534880D02*
X239823214Y-59487261D01*
X239823214Y-59487261D02*
X239775595Y-59439642D01*
X239775595Y-59439642D02*
X239727976Y-59344404D01*
X239727976Y-59344404D02*
X239727976Y-59249166D01*
X239727976Y-59249166D02*
X239775595Y-59153928D01*
X239775595Y-59153928D02*
X239823214Y-59106309D01*
X239823214Y-59106309D02*
X239918452Y-59058690D01*
X239918452Y-59058690D02*
X240108928Y-59011071D01*
X240108928Y-59011071D02*
X240204166Y-58963452D01*
X240204166Y-58963452D02*
X240251785Y-58915833D01*
X240251785Y-58915833D02*
X240299404Y-58820595D01*
X240299404Y-58820595D02*
X240299404Y-58725357D01*
X240299404Y-58725357D02*
X240251785Y-58630119D01*
X240251785Y-58630119D02*
X240204166Y-58582500D01*
X240204166Y-58582500D02*
X240108928Y-58534880D01*
X240108928Y-58534880D02*
X239870833Y-58534880D01*
X239870833Y-58534880D02*
X239727976Y-58582500D01*
X239394642Y-58534880D02*
X239156547Y-59534880D01*
X239156547Y-59534880D02*
X238966071Y-58820595D01*
X238966071Y-58820595D02*
X238775595Y-59534880D01*
X238775595Y-59534880D02*
X238537500Y-58534880D01*
X238394643Y-59630119D02*
X237632738Y-59630119D01*
X236823214Y-59534880D02*
X237156547Y-59058690D01*
X237394642Y-59534880D02*
X237394642Y-58534880D01*
X237394642Y-58534880D02*
X237013690Y-58534880D01*
X237013690Y-58534880D02*
X236918452Y-58582500D01*
X236918452Y-58582500D02*
X236870833Y-58630119D01*
X236870833Y-58630119D02*
X236823214Y-58725357D01*
X236823214Y-58725357D02*
X236823214Y-58868214D01*
X236823214Y-58868214D02*
X236870833Y-58963452D01*
X236870833Y-58963452D02*
X236918452Y-59011071D01*
X236918452Y-59011071D02*
X237013690Y-59058690D01*
X237013690Y-59058690D02*
X237394642Y-59058690D01*
X236013690Y-59487261D02*
X236108928Y-59534880D01*
X236108928Y-59534880D02*
X236299404Y-59534880D01*
X236299404Y-59534880D02*
X236394642Y-59487261D01*
X236394642Y-59487261D02*
X236442261Y-59392023D01*
X236442261Y-59392023D02*
X236442261Y-59011071D01*
X236442261Y-59011071D02*
X236394642Y-58915833D01*
X236394642Y-58915833D02*
X236299404Y-58868214D01*
X236299404Y-58868214D02*
X236108928Y-58868214D01*
X236108928Y-58868214D02*
X236013690Y-58915833D01*
X236013690Y-58915833D02*
X235966071Y-59011071D01*
X235966071Y-59011071D02*
X235966071Y-59106309D01*
X235966071Y-59106309D02*
X236442261Y-59201547D01*
X235585118Y-59487261D02*
X235489880Y-59534880D01*
X235489880Y-59534880D02*
X235299404Y-59534880D01*
X235299404Y-59534880D02*
X235204166Y-59487261D01*
X235204166Y-59487261D02*
X235156547Y-59392023D01*
X235156547Y-59392023D02*
X235156547Y-59344404D01*
X235156547Y-59344404D02*
X235204166Y-59249166D01*
X235204166Y-59249166D02*
X235299404Y-59201547D01*
X235299404Y-59201547D02*
X235442261Y-59201547D01*
X235442261Y-59201547D02*
X235537499Y-59153928D01*
X235537499Y-59153928D02*
X235585118Y-59058690D01*
X235585118Y-59058690D02*
X235585118Y-59011071D01*
X235585118Y-59011071D02*
X235537499Y-58915833D01*
X235537499Y-58915833D02*
X235442261Y-58868214D01*
X235442261Y-58868214D02*
X235299404Y-58868214D01*
X235299404Y-58868214D02*
X235204166Y-58915833D01*
X234347023Y-59487261D02*
X234442261Y-59534880D01*
X234442261Y-59534880D02*
X234632737Y-59534880D01*
X234632737Y-59534880D02*
X234727975Y-59487261D01*
X234727975Y-59487261D02*
X234775594Y-59392023D01*
X234775594Y-59392023D02*
X234775594Y-59011071D01*
X234775594Y-59011071D02*
X234727975Y-58915833D01*
X234727975Y-58915833D02*
X234632737Y-58868214D01*
X234632737Y-58868214D02*
X234442261Y-58868214D01*
X234442261Y-58868214D02*
X234347023Y-58915833D01*
X234347023Y-58915833D02*
X234299404Y-59011071D01*
X234299404Y-59011071D02*
X234299404Y-59106309D01*
X234299404Y-59106309D02*
X234775594Y-59201547D01*
X234013689Y-58868214D02*
X233632737Y-58868214D01*
X233870832Y-58534880D02*
X233870832Y-59392023D01*
X233870832Y-59392023D02*
X233823213Y-59487261D01*
X233823213Y-59487261D02*
X233727975Y-59534880D01*
X233727975Y-59534880D02*
X233632737Y-59534880D01*
X233347022Y-58630119D02*
X233299403Y-58582500D01*
X233299403Y-58582500D02*
X233204165Y-58534880D01*
X233204165Y-58534880D02*
X232966070Y-58534880D01*
X232966070Y-58534880D02*
X232870832Y-58582500D01*
X232870832Y-58582500D02*
X232823213Y-58630119D01*
X232823213Y-58630119D02*
X232775594Y-58725357D01*
X232775594Y-58725357D02*
X232775594Y-58820595D01*
X232775594Y-58820595D02*
X232823213Y-58963452D01*
X232823213Y-58963452D02*
X233394641Y-59534880D01*
X233394641Y-59534880D02*
X232775594Y-59534880D01*
%TO.C,R5*%
X43688000Y-86106000D02*
X43688000Y-84582000D01*
X43688000Y-84582000D02*
X38608000Y-84582000D01*
X39370000Y-84582000D02*
X39370000Y-86106000D01*
X39243000Y-84582000D02*
X39243000Y-86106000D01*
X39116000Y-86106000D02*
X39116000Y-84582000D01*
X38989000Y-84582000D02*
X38989000Y-86106000D01*
X38862000Y-86106000D02*
X38862000Y-84582000D01*
X38735000Y-84582000D02*
X38735000Y-86106000D01*
X38608000Y-86106000D02*
X43688000Y-86106000D01*
X38608000Y-84582000D02*
X38608000Y-86106000D01*
D12*
%TO.C,D29*%
X176800000Y-103800000D02*
X176800000Y-99950000D01*
X178800000Y-103800000D02*
X176800000Y-103800000D01*
X178800000Y-103800000D02*
X178800000Y-99950000D01*
%TO.C,J3*%
X223310000Y-80847500D02*
X221190000Y-80847500D01*
X223310000Y-76787500D02*
X223310000Y-80847500D01*
X223310000Y-76787500D02*
X221190000Y-76787500D01*
X222250000Y-74727500D02*
X221190000Y-74727500D01*
X221190000Y-76787500D02*
X221190000Y-80847500D01*
X221190000Y-74727500D02*
X221190000Y-75787500D01*
%TO.C,D6*%
X72025000Y-62525000D02*
X72025000Y-58675000D01*
X74025000Y-62525000D02*
X72025000Y-62525000D01*
X74025000Y-62525000D02*
X74025000Y-58675000D01*
%TO.C,C1*%
X38438500Y-65512836D02*
X38438500Y-65297164D01*
X39158500Y-65512836D02*
X39158500Y-65297164D01*
%TO.C,D14*%
X110125000Y-62525000D02*
X110125000Y-58675000D01*
X112125000Y-62525000D02*
X110125000Y-62525000D01*
X112125000Y-62525000D02*
X112125000Y-58675000D01*
%TO.C,D40*%
X233950000Y-81575000D02*
X233950000Y-77725000D01*
X235950000Y-81575000D02*
X233950000Y-81575000D01*
X235950000Y-81575000D02*
X235950000Y-77725000D01*
%TO.C,D8*%
X72025000Y-103800000D02*
X72025000Y-99950000D01*
X74025000Y-103800000D02*
X72025000Y-103800000D01*
X74025000Y-103800000D02*
X74025000Y-99950000D01*
%TO.C,D3*%
X62500000Y-81575000D02*
X62500000Y-77725000D01*
X64500000Y-81575000D02*
X62500000Y-81575000D01*
X64500000Y-81575000D02*
X64500000Y-77725000D01*
%TO.C,D36*%
X214900000Y-81575000D02*
X214900000Y-77725000D01*
X216900000Y-81575000D02*
X214900000Y-81575000D01*
X216900000Y-81575000D02*
X216900000Y-77725000D01*
%TO.C,D32*%
X195850000Y-81575000D02*
X195850000Y-77725000D01*
X197850000Y-81575000D02*
X195850000Y-81575000D01*
X197850000Y-81575000D02*
X197850000Y-77725000D01*
%TO.C,C4*%
X38438500Y-63445086D02*
X38438500Y-63229414D01*
X39158500Y-63445086D02*
X39158500Y-63229414D01*
%TO.C,D1*%
X43450000Y-43475000D02*
X43450000Y-39625000D01*
X45450000Y-43475000D02*
X43450000Y-43475000D01*
X45450000Y-43475000D02*
X45450000Y-39625000D01*
%TO.C,R4*%
X47471359Y-75058000D02*
X47778641Y-75058000D01*
X47471359Y-75818000D02*
X47778641Y-75818000D01*
%TO.C,Y1*%
X44354500Y-64987250D02*
X40354500Y-64987250D01*
X44354500Y-61687250D02*
X44354500Y-64987250D01*
%TO.C,D15*%
X119650000Y-81575000D02*
X119650000Y-77725000D01*
X121650000Y-81575000D02*
X119650000Y-81575000D01*
X121650000Y-81575000D02*
X121650000Y-77725000D01*
%TO.C,U1*%
X38427000Y-68807750D02*
X38427000Y-69532750D01*
X39152000Y-68807750D02*
X38427000Y-68807750D01*
X39152000Y-76027750D02*
X38427000Y-76027750D01*
X44922000Y-68807750D02*
X45647000Y-68807750D01*
X44922000Y-76027750D02*
X45647000Y-76027750D01*
X45647000Y-68807750D02*
X45647000Y-69532750D01*
X45647000Y-76027750D02*
X45647000Y-75302750D01*
%TO.C,Q1*%
X44958000Y-87213000D02*
X44308000Y-87213000D01*
X44958000Y-87213000D02*
X45608000Y-87213000D01*
X44958000Y-90333000D02*
X43283000Y-90333000D01*
X44958000Y-90333000D02*
X45608000Y-90333000D01*
%TO.C,D34*%
X195850000Y-43475000D02*
X195850000Y-39625000D01*
X197850000Y-43475000D02*
X195850000Y-43475000D01*
X197850000Y-43475000D02*
X197850000Y-39625000D01*
%TO.C,D23*%
X157750000Y-81575000D02*
X157750000Y-77725000D01*
X159750000Y-81575000D02*
X157750000Y-81575000D01*
X159750000Y-81575000D02*
X159750000Y-77725000D01*
%TO.C,D21*%
X138700000Y-43475000D02*
X138700000Y-39625000D01*
X140700000Y-43475000D02*
X138700000Y-43475000D01*
X140700000Y-43475000D02*
X140700000Y-39625000D01*
%TO.C,D39*%
X224425000Y-62525000D02*
X224425000Y-58675000D01*
X226425000Y-62525000D02*
X224425000Y-62525000D01*
X226425000Y-62525000D02*
X226425000Y-58675000D01*
%TO.C,D30*%
X176800000Y-43475000D02*
X176800000Y-39625000D01*
X178800000Y-43475000D02*
X176800000Y-43475000D01*
X178800000Y-43475000D02*
X178800000Y-39625000D01*
%TO.C,D41*%
X233950000Y-103800000D02*
X233950000Y-99950000D01*
X235950000Y-103800000D02*
X233950000Y-103800000D01*
X235950000Y-103800000D02*
X235950000Y-99950000D01*
%TO.C,D20*%
X138700000Y-103800000D02*
X138700000Y-99950000D01*
X140700000Y-103800000D02*
X138700000Y-103800000D01*
X140700000Y-103800000D02*
X140700000Y-99950000D01*
%TO.C,D24*%
X157750000Y-103800000D02*
X157750000Y-99950000D01*
X159750000Y-103800000D02*
X157750000Y-103800000D01*
X159750000Y-103800000D02*
X159750000Y-99950000D01*
%TO.C,F1*%
X234717000Y-48165936D02*
X234717000Y-49370064D01*
X232897000Y-48165936D02*
X232897000Y-49370064D01*
%TO.C,D26*%
X157750000Y-43475000D02*
X157750000Y-39625000D01*
X159750000Y-43475000D02*
X157750000Y-43475000D01*
X159750000Y-43475000D02*
X159750000Y-39625000D01*
%TO.C,R6*%
X55906641Y-84885577D02*
X55599359Y-84885577D01*
X55906641Y-84125577D02*
X55599359Y-84125577D01*
%TO.C,D22*%
X148225000Y-62525000D02*
X148225000Y-58675000D01*
X150225000Y-62525000D02*
X148225000Y-62525000D01*
X150225000Y-62525000D02*
X150225000Y-58675000D01*
D10*
%TO.C,J1*%
X227950000Y-41100000D02*
X230350000Y-41100000D01*
X230350000Y-41100000D02*
X230350000Y-40100000D01*
X226150000Y-36100000D02*
X226150000Y-40100000D01*
X230350000Y-36100000D02*
X230350000Y-35100000D01*
X230350000Y-35100000D02*
X227950000Y-35100000D01*
D12*
%TO.C,D13*%
X100600000Y-43475000D02*
X100600000Y-39625000D01*
X102600000Y-43475000D02*
X100600000Y-43475000D01*
X102600000Y-43475000D02*
X102600000Y-39625000D01*
D13*
%TO.C,J2*%
X39457000Y-59249000D02*
X39457000Y-56749000D01*
X39457000Y-56749000D02*
X34457000Y-56749000D01*
X34457000Y-59249000D02*
X39457000Y-59249000D01*
X34457000Y-56749000D02*
X34457000Y-59249000D01*
D12*
%TO.C,C3*%
X46143500Y-63229414D02*
X46143500Y-63445086D01*
X45423500Y-63229414D02*
X45423500Y-63445086D01*
%TO.C,D7*%
X81550000Y-81575000D02*
X81550000Y-77725000D01*
X83550000Y-81575000D02*
X81550000Y-81575000D01*
X83550000Y-81575000D02*
X83550000Y-77725000D01*
%TO.C,D4*%
X48212500Y-103800000D02*
X48212500Y-99950000D01*
X50212500Y-103800000D02*
X48212500Y-103800000D01*
X50212500Y-103800000D02*
X50212500Y-99950000D01*
%TO.C,R2*%
X34707859Y-72863250D02*
X35015141Y-72863250D01*
X34707859Y-73623250D02*
X35015141Y-73623250D01*
%TO.C,D38*%
X214900000Y-43475000D02*
X214900000Y-39625000D01*
X216900000Y-43475000D02*
X214900000Y-43475000D01*
X216900000Y-43475000D02*
X216900000Y-39625000D01*
%TO.C,R3*%
X36930359Y-64644000D02*
X37237641Y-64644000D01*
X36930359Y-65404000D02*
X37237641Y-65404000D01*
%TO.C,D31*%
X186325000Y-62525000D02*
X186325000Y-58675000D01*
X188325000Y-62525000D02*
X186325000Y-62525000D01*
X188325000Y-62525000D02*
X188325000Y-58675000D01*
%TO.C,D2*%
X52975000Y-62525000D02*
X52975000Y-58675000D01*
X54975000Y-62525000D02*
X52975000Y-62525000D01*
X54975000Y-62525000D02*
X54975000Y-58675000D01*
%TO.C,LS1*%
X61363000Y-94399000D02*
X61363000Y-85179000D01*
X61363000Y-85179000D02*
X50143000Y-85179000D01*
X50143000Y-94399000D02*
X61363000Y-94399000D01*
X50143000Y-85179000D02*
X50143000Y-94399000D01*
%TO.C,D9*%
X81550000Y-43475000D02*
X81550000Y-39625000D01*
X83550000Y-43475000D02*
X81550000Y-43475000D01*
X83550000Y-43475000D02*
X83550000Y-39625000D01*
%TO.C,D12*%
X91075000Y-103800000D02*
X91075000Y-99950000D01*
X93075000Y-103800000D02*
X91075000Y-103800000D01*
X93075000Y-103800000D02*
X93075000Y-99950000D01*
%TO.C,D35*%
X205375000Y-62525000D02*
X205375000Y-58675000D01*
X207375000Y-62525000D02*
X205375000Y-62525000D01*
X207375000Y-62525000D02*
X207375000Y-58675000D01*
%TO.C,R9*%
X239389074Y-38253641D02*
X239389074Y-37946359D01*
X240149074Y-38253641D02*
X240149074Y-37946359D01*
%TO.C,D33*%
X195850000Y-103800000D02*
X195850000Y-99950000D01*
X197850000Y-103800000D02*
X195850000Y-103800000D01*
X197850000Y-103800000D02*
X197850000Y-99950000D01*
%TO.C,D17*%
X119650000Y-43412500D02*
X119650000Y-39562500D01*
X121650000Y-43412500D02*
X119650000Y-43412500D01*
X121650000Y-43412500D02*
X121650000Y-39562500D01*
%TO.C,D27*%
X167275000Y-62525000D02*
X167275000Y-58675000D01*
X169275000Y-62525000D02*
X167275000Y-62525000D01*
X169275000Y-62525000D02*
X169275000Y-58675000D01*
%TO.C,D25*%
X229855000Y-44541000D02*
X231155000Y-44541000D01*
X231155000Y-47661000D02*
X229155000Y-47661000D01*
%TO.C,D16*%
X110125000Y-103800000D02*
X110125000Y-99950000D01*
X112125000Y-103800000D02*
X110125000Y-103800000D01*
X112125000Y-103800000D02*
X112125000Y-99950000D01*
%TO.C,D28*%
X176800000Y-81575000D02*
X176800000Y-77725000D01*
X178800000Y-81575000D02*
X176800000Y-81575000D01*
X178800000Y-81575000D02*
X178800000Y-77725000D01*
%TO.C,D18*%
X129175000Y-62525000D02*
X129175000Y-58675000D01*
X131175000Y-62525000D02*
X129175000Y-62525000D01*
X131175000Y-62525000D02*
X131175000Y-58675000D01*
%TO.C,R8*%
X239332500Y-44603641D02*
X239332500Y-44296359D01*
X240092500Y-44603641D02*
X240092500Y-44296359D01*
%TO.C,D5*%
X62500000Y-43475000D02*
X62500000Y-39625000D01*
X64500000Y-43475000D02*
X62500000Y-43475000D01*
X64500000Y-43475000D02*
X64500000Y-39625000D01*
%TO.C,D19*%
X138700000Y-81575000D02*
X138700000Y-77725000D01*
X140700000Y-81575000D02*
X138700000Y-81575000D01*
X140700000Y-81575000D02*
X140700000Y-77725000D01*
%TO.C,C5*%
X47390164Y-69744000D02*
X47605836Y-69744000D01*
X47390164Y-70464000D02*
X47605836Y-70464000D01*
%TO.C,D10*%
X91075000Y-62525000D02*
X91075000Y-58675000D01*
X93075000Y-62525000D02*
X91075000Y-62525000D01*
X93075000Y-62525000D02*
X93075000Y-58675000D01*
%TO.C,R1*%
X34707859Y-73879250D02*
X35015141Y-73879250D01*
X34707859Y-74639250D02*
X35015141Y-74639250D01*
%TO.C,SW_Reset2*%
X235207500Y-52967500D02*
X237867500Y-52967500D01*
X235207500Y-55567500D02*
X235207500Y-52967500D01*
X235207500Y-55567500D02*
X237867500Y-55567500D01*
X235207500Y-56837500D02*
X235207500Y-58167500D01*
X235207500Y-58167500D02*
X236537500Y-58167500D01*
X237867500Y-55567500D02*
X237867500Y-52967500D01*
%TO.C,C7*%
X45191000Y-77743164D02*
X45191000Y-77958836D01*
X44471000Y-77743164D02*
X44471000Y-77958836D01*
%TO.C,C6*%
X35858336Y-72460250D02*
X35642664Y-72460250D01*
X35858336Y-71740250D02*
X35642664Y-71740250D01*
%TO.C,D37*%
X214900000Y-103800000D02*
X214900000Y-99950000D01*
X216900000Y-103800000D02*
X214900000Y-103800000D01*
X216900000Y-103800000D02*
X216900000Y-99950000D01*
%TO.C,C2*%
X37351310Y-77612557D02*
X37198807Y-77765060D01*
X36842193Y-77103440D02*
X36689690Y-77255943D01*
%TO.C,C8*%
X35223336Y-71317250D02*
X35007664Y-71317250D01*
X35223336Y-70597250D02*
X35007664Y-70597250D01*
%TO.C,D11*%
X100600000Y-81575000D02*
X100600000Y-77725000D01*
X102600000Y-81575000D02*
X100600000Y-81575000D01*
X102600000Y-81575000D02*
X102600000Y-77725000D01*
%TD*%
%LPC*%
D14*
%TO.C,SW33*%
X83820000Y-98425000D03*
D15*
X88900000Y-98425000D03*
D14*
X93980000Y-98425000D03*
D16*
X85090000Y-95885000D03*
X91440000Y-93345000D03*
%TD*%
D14*
%TO.C,SW15*%
X121920000Y-60325000D03*
D15*
X127000000Y-60325000D03*
D14*
X132080000Y-60325000D03*
D16*
X123190000Y-57785000D03*
X129540000Y-55245000D03*
%TD*%
D15*
%TO.C,SW36c1*%
X79375000Y-90170000D03*
D17*
X79375000Y-105410000D03*
D14*
X131445000Y-98425000D03*
D15*
X136525000Y-98425000D03*
D14*
X141605000Y-98425000D03*
D15*
X193675000Y-90170000D03*
D17*
X193675000Y-105410000D03*
D16*
X132715000Y-95885000D03*
X139065000Y-93345000D03*
%TD*%
D14*
%TO.C,SW7*%
X150495000Y-41275000D03*
D15*
X155575000Y-41275000D03*
D14*
X160655000Y-41275000D03*
D16*
X151765000Y-38735000D03*
X158115000Y-36195000D03*
%TD*%
D14*
%TO.C,SW27*%
X169545000Y-79375000D03*
D15*
X174625000Y-79375000D03*
D14*
X179705000Y-79375000D03*
D16*
X170815000Y-76835000D03*
X177165000Y-74295000D03*
%TD*%
D15*
%TO.C,SW34b1*%
X88900000Y-90170000D03*
D17*
X88900000Y-105410000D03*
D14*
X102870000Y-98425000D03*
D15*
X107950000Y-98425000D03*
D14*
X113030000Y-98425000D03*
D15*
X127000000Y-90170000D03*
D17*
X127000000Y-105410000D03*
D16*
X104140000Y-95885000D03*
X110490000Y-93345000D03*
%TD*%
D14*
%TO.C,SW14*%
X102870000Y-60325000D03*
D15*
X107950000Y-60325000D03*
D14*
X113030000Y-60325000D03*
D16*
X104140000Y-57785000D03*
X110490000Y-55245000D03*
%TD*%
D14*
%TO.C,SW33a1*%
X74295000Y-98425000D03*
D15*
X79375000Y-98425000D03*
D14*
X84455000Y-98425000D03*
D16*
X75565000Y-95885000D03*
X81915000Y-93345000D03*
%TD*%
D14*
%TO.C,SW9*%
X188595000Y-41275000D03*
D15*
X193675000Y-41275000D03*
D14*
X198755000Y-41275000D03*
D16*
X189865000Y-38735000D03*
X196215000Y-36195000D03*
%TD*%
D14*
%TO.C,SW29*%
X207645000Y-79375000D03*
D15*
X212725000Y-79375000D03*
D14*
X217805000Y-79375000D03*
D16*
X208915000Y-76835000D03*
X215265000Y-74295000D03*
%TD*%
D14*
%TO.C,SW8*%
X169545000Y-41275000D03*
D15*
X174625000Y-41275000D03*
D14*
X179705000Y-41275000D03*
D16*
X170815000Y-38735000D03*
X177165000Y-36195000D03*
%TD*%
D15*
%TO.C,SW35b1*%
X105568750Y-90170000D03*
D17*
X105568750Y-105410000D03*
D14*
X112395000Y-98425000D03*
D15*
X117475000Y-98425000D03*
D14*
X122555000Y-98425000D03*
D15*
X129381250Y-90170000D03*
D17*
X129381250Y-105410000D03*
D16*
X113665000Y-95885000D03*
X120015000Y-93345000D03*
%TD*%
D14*
%TO.C,SW2*%
X55245000Y-41275000D03*
D15*
X60325000Y-41275000D03*
D14*
X65405000Y-41275000D03*
D16*
X56515000Y-38735000D03*
X62865000Y-36195000D03*
%TD*%
D14*
%TO.C,SW34*%
X102870000Y-98425000D03*
D15*
X107950000Y-98425000D03*
D14*
X113030000Y-98425000D03*
D16*
X104140000Y-95885000D03*
X110490000Y-93345000D03*
%TD*%
D14*
%TO.C,SW24*%
X112395000Y-79375000D03*
D15*
X117475000Y-79375000D03*
D14*
X122555000Y-79375000D03*
D16*
X113665000Y-76835000D03*
X120015000Y-74295000D03*
%TD*%
D14*
%TO.C,SW31*%
X40957500Y-98425000D03*
D15*
X46037500Y-98425000D03*
D14*
X51117500Y-98425000D03*
D16*
X42227500Y-95885000D03*
X48577500Y-93345000D03*
%TD*%
D14*
%TO.C,SW37a1*%
X169545000Y-98425000D03*
D15*
X174625000Y-98425000D03*
D14*
X179705000Y-98425000D03*
D16*
X170815000Y-95885000D03*
X177165000Y-93345000D03*
%TD*%
D14*
%TO.C,SW20*%
X217170000Y-60325000D03*
D15*
X222250000Y-60325000D03*
D14*
X227330000Y-60325000D03*
D16*
X218440000Y-57785000D03*
X224790000Y-55245000D03*
%TD*%
D14*
%TO.C,SW5*%
X112395000Y-41275000D03*
D15*
X117475000Y-41275000D03*
D14*
X122555000Y-41275000D03*
D16*
X113665000Y-38735000D03*
X120015000Y-36195000D03*
%TD*%
D18*
%TO.C,R5*%
X39747999Y-85343999D03*
D19*
X37247999Y-85343999D03*
D20*
X45048000Y-85344000D03*
D18*
X42547999Y-85343999D03*
%TD*%
D14*
%TO.C,SW40a1*%
X226695000Y-98425000D03*
D15*
X231775000Y-98425000D03*
D14*
X236855000Y-98425000D03*
D16*
X227965000Y-95885000D03*
X234315000Y-93345000D03*
%TD*%
D14*
%TO.C,SW35*%
X121920000Y-98425000D03*
D15*
X127000000Y-98425000D03*
D14*
X132080000Y-98425000D03*
D16*
X123190000Y-95885000D03*
X129540000Y-93345000D03*
%TD*%
D14*
%TO.C,SW31a1*%
X36195000Y-98425000D03*
D15*
X41275000Y-98425000D03*
D14*
X46355000Y-98425000D03*
D16*
X37465000Y-95885000D03*
X43815000Y-93345000D03*
%TD*%
D14*
%TO.C,SW38*%
X179070000Y-98425000D03*
D15*
X184150000Y-98425000D03*
D14*
X189230000Y-98425000D03*
D16*
X180340000Y-95885000D03*
X186690000Y-93345000D03*
%TD*%
D14*
%TO.C,SW12*%
X64770000Y-60325000D03*
D15*
X69850000Y-60325000D03*
D14*
X74930000Y-60325000D03*
D16*
X66040000Y-57785000D03*
X72390000Y-55245000D03*
%TD*%
D14*
%TO.C,SW22*%
X74295000Y-79375000D03*
D15*
X79375000Y-79375000D03*
D14*
X84455000Y-79375000D03*
D16*
X75565000Y-76835000D03*
X81915000Y-74295000D03*
%TD*%
D14*
%TO.C,SW36a1*%
X145732500Y-98425000D03*
D15*
X150812500Y-98425000D03*
D14*
X155892500Y-98425000D03*
D16*
X147002500Y-95885000D03*
X153352500Y-93345000D03*
%TD*%
D15*
%TO.C,SW36b1*%
X143668750Y-90170000D03*
D17*
X143668750Y-105410000D03*
D14*
X150495000Y-98425000D03*
D15*
X155575000Y-98425000D03*
D14*
X160655000Y-98425000D03*
D15*
X167481250Y-90170000D03*
D17*
X167481250Y-105410000D03*
D16*
X151765000Y-95885000D03*
X158115000Y-93345000D03*
%TD*%
D14*
%TO.C,SW10*%
X207645000Y-41275000D03*
D15*
X212725000Y-41275000D03*
D14*
X217805000Y-41275000D03*
D16*
X208915000Y-38735000D03*
X215265000Y-36195000D03*
%TD*%
D15*
%TO.C,SW35c1*%
X88900000Y-90170000D03*
D17*
X88900000Y-105410000D03*
D14*
X131445000Y-98425000D03*
D15*
X136525000Y-98425000D03*
D14*
X141605000Y-98425000D03*
D15*
X184150000Y-90170000D03*
D17*
X184150000Y-105410000D03*
D16*
X132715000Y-95885000D03*
X139065000Y-93345000D03*
%TD*%
D14*
%TO.C,SW6*%
X131318000Y-41275000D03*
D15*
X136398000Y-41275000D03*
D14*
X141478000Y-41275000D03*
D16*
X132588000Y-38735000D03*
X138938000Y-36195000D03*
%TD*%
D14*
%TO.C,SW19*%
X198120000Y-60325000D03*
D15*
X203200000Y-60325000D03*
D14*
X208280000Y-60325000D03*
D16*
X199390000Y-57785000D03*
X205740000Y-55245000D03*
%TD*%
D14*
%TO.C,SW3*%
X74295000Y-41275000D03*
D15*
X79375000Y-41275000D03*
D14*
X84455000Y-41275000D03*
D16*
X75565000Y-38735000D03*
X81915000Y-36195000D03*
%TD*%
D14*
%TO.C,SW17*%
X160020000Y-60325000D03*
D15*
X165100000Y-60325000D03*
D14*
X170180000Y-60325000D03*
D16*
X161290000Y-57785000D03*
X167640000Y-55245000D03*
%TD*%
D14*
%TO.C,SW39*%
X198120000Y-98425000D03*
D15*
X203200000Y-98425000D03*
D14*
X208280000Y-98425000D03*
D16*
X199390000Y-95885000D03*
X205740000Y-93345000D03*
%TD*%
D14*
%TO.C,SW11*%
X45720000Y-60325000D03*
D15*
X50800000Y-60325000D03*
D14*
X55880000Y-60325000D03*
D16*
X46990000Y-57785000D03*
X53340000Y-55245000D03*
%TD*%
D14*
%TO.C,SW21*%
X55245000Y-79375000D03*
D15*
X60325000Y-79375000D03*
D14*
X65405000Y-79375000D03*
D16*
X56515000Y-76835000D03*
X62865000Y-74295000D03*
%TD*%
D14*
%TO.C,SW16*%
X140970000Y-60325000D03*
D15*
X146050000Y-60325000D03*
D14*
X151130000Y-60325000D03*
D16*
X142240000Y-57785000D03*
X148590000Y-55245000D03*
%TD*%
D14*
%TO.C,SW18*%
X179070000Y-60325000D03*
D15*
X184150000Y-60325000D03*
D14*
X189230000Y-60325000D03*
D16*
X180340000Y-57785000D03*
X186690000Y-55245000D03*
%TD*%
D21*
%TO.C,SW42*%
X229274999Y-86874999D03*
D22*
X234275000Y-86875000D03*
X231775000Y-86875000D03*
X234275000Y-72375000D03*
X229275000Y-72375000D03*
%TD*%
D14*
%TO.C,SW32a1*%
X55245000Y-98425000D03*
D15*
X60325000Y-98425000D03*
D14*
X65405000Y-98425000D03*
D16*
X56515000Y-95885000D03*
X62865000Y-93345000D03*
%TD*%
D15*
%TO.C,SW37b1*%
X146050000Y-90170000D03*
D17*
X146050000Y-105410000D03*
D14*
X160020000Y-98425000D03*
D15*
X165100000Y-98425000D03*
D14*
X170180000Y-98425000D03*
D15*
X184150000Y-90170000D03*
D17*
X184150000Y-105410000D03*
D16*
X161290000Y-95885000D03*
X167640000Y-93345000D03*
%TD*%
D14*
%TO.C,SW34a1*%
X93345000Y-98425000D03*
D15*
X98425000Y-98425000D03*
D14*
X103505000Y-98425000D03*
D16*
X94615000Y-95885000D03*
X100965000Y-93345000D03*
%TD*%
D14*
%TO.C,SW36*%
X140970000Y-98425000D03*
D15*
X146050000Y-98425000D03*
D14*
X151130000Y-98425000D03*
D16*
X142240000Y-95885000D03*
X148590000Y-93345000D03*
%TD*%
D14*
%TO.C,SW28*%
X188595000Y-79375000D03*
D15*
X193675000Y-79375000D03*
D14*
X198755000Y-79375000D03*
D16*
X189865000Y-76835000D03*
X196215000Y-74295000D03*
%TD*%
D14*
%TO.C,SW1*%
X36195000Y-41275000D03*
D15*
X41275000Y-41275000D03*
D14*
X46355000Y-41275000D03*
D16*
X37465000Y-38735000D03*
X43815000Y-36195000D03*
%TD*%
D14*
%TO.C,SW40*%
X221932500Y-98425000D03*
D15*
X227012500Y-98425000D03*
D14*
X232092500Y-98425000D03*
D16*
X223202500Y-95885000D03*
X229552500Y-93345000D03*
%TD*%
D14*
%TO.C,SW39a1*%
X207645000Y-98425000D03*
D15*
X212725000Y-98425000D03*
D14*
X217805000Y-98425000D03*
D16*
X208915000Y-95885000D03*
X215265000Y-93345000D03*
%TD*%
D14*
%TO.C,SW37*%
X160020000Y-98425000D03*
D15*
X165100000Y-98425000D03*
D14*
X170180000Y-98425000D03*
D16*
X161290000Y-95885000D03*
X167640000Y-93345000D03*
%TD*%
D14*
%TO.C,SW4*%
X93345000Y-41275000D03*
D15*
X98425000Y-41275000D03*
D14*
X103505000Y-41275000D03*
D16*
X94615000Y-38735000D03*
X100965000Y-36195000D03*
%TD*%
D14*
%TO.C,SW35a1*%
X117157500Y-98425000D03*
D15*
X122237500Y-98425000D03*
D14*
X127317500Y-98425000D03*
D16*
X118427500Y-95885000D03*
X124777500Y-93345000D03*
%TD*%
D14*
%TO.C,SW32*%
X64770000Y-98425000D03*
D15*
X69850000Y-98425000D03*
D14*
X74930000Y-98425000D03*
D16*
X66040000Y-95885000D03*
X72390000Y-93345000D03*
%TD*%
D14*
%TO.C,SW26*%
X150495000Y-79375000D03*
D15*
X155575000Y-79375000D03*
D14*
X160655000Y-79375000D03*
D16*
X151765000Y-76835000D03*
X158115000Y-74295000D03*
%TD*%
D14*
%TO.C,SW30*%
X226695000Y-79375000D03*
D15*
X231775000Y-79375000D03*
D14*
X236855000Y-79375000D03*
D16*
X227965000Y-76835000D03*
X234315000Y-74295000D03*
%TD*%
D14*
%TO.C,SW38a1*%
X188595000Y-98425000D03*
D15*
X193675000Y-98425000D03*
D14*
X198755000Y-98425000D03*
D16*
X189865000Y-95885000D03*
X196215000Y-93345000D03*
%TD*%
D14*
%TO.C,SW13*%
X83820000Y-60325000D03*
D15*
X88900000Y-60325000D03*
D14*
X93980000Y-60325000D03*
D16*
X85090000Y-57785000D03*
X91440000Y-55245000D03*
%TD*%
D21*
%TO.C,SW41*%
X38774999Y-48774999D03*
D22*
X43775000Y-48775000D03*
X41275000Y-48775000D03*
X43775000Y-34275000D03*
X38775000Y-34275000D03*
%TD*%
D14*
%TO.C,SW25*%
X131445000Y-79375000D03*
D15*
X136525000Y-79375000D03*
D14*
X141605000Y-79375000D03*
D16*
X132715000Y-76835000D03*
X139065000Y-74295000D03*
%TD*%
D14*
%TO.C,SW23*%
X93345000Y-79375000D03*
D15*
X98425000Y-79375000D03*
D14*
X103505000Y-79375000D03*
D16*
X94615000Y-76835000D03*
X100965000Y-74295000D03*
%TD*%
D23*
%TO.C,D29*%
X177799999Y-102999999D03*
X177799999Y-100199999D03*
%TD*%
D24*
%TO.C,J3*%
X222249999Y-75787499D03*
D25*
X222249999Y-77787499D03*
X222249999Y-79787499D03*
%TD*%
D23*
%TO.C,D6*%
X73024999Y-61724999D03*
X73024999Y-58924999D03*
%TD*%
D26*
%TO.C,C1*%
X38798500Y-65885000D03*
X38798500Y-64925000D03*
%TD*%
D23*
%TO.C,D14*%
X111124999Y-61724999D03*
X111124999Y-58924999D03*
%TD*%
%TO.C,D40*%
X234949999Y-80774999D03*
X234949999Y-77974999D03*
%TD*%
%TO.C,D8*%
X73024999Y-102999999D03*
X73024999Y-100199999D03*
%TD*%
%TO.C,D3*%
X63499999Y-80774999D03*
X63499999Y-77974999D03*
%TD*%
%TO.C,D36*%
X215899999Y-80774999D03*
X215899999Y-77974999D03*
%TD*%
%TO.C,D32*%
X196849999Y-80774999D03*
X196849999Y-77974999D03*
%TD*%
D26*
%TO.C,C4*%
X38798500Y-63817250D03*
X38798500Y-62857250D03*
%TD*%
D23*
%TO.C,D1*%
X44449999Y-42674999D03*
X44449999Y-39874999D03*
%TD*%
D27*
%TO.C,R4*%
X47115000Y-75438000D03*
X48135000Y-75438000D03*
%TD*%
D28*
%TO.C,Y1*%
X43454499Y-64187249D03*
X41254499Y-64187249D03*
X41254499Y-62487249D03*
X43454499Y-62487249D03*
%TD*%
D23*
%TO.C,D15*%
X120649999Y-80774999D03*
X120649999Y-77974999D03*
%TD*%
D29*
%TO.C,U1*%
X38699500Y-74917750D03*
X38699500Y-74417750D03*
X38699500Y-73917750D03*
X38699500Y-73417750D03*
X38699500Y-72917750D03*
X38699500Y-72417750D03*
X38699500Y-71917750D03*
X38699500Y-71417750D03*
X38699500Y-70917750D03*
X38699500Y-70417750D03*
X38699500Y-69917750D03*
D30*
X39537000Y-69080250D03*
X40037000Y-69080250D03*
X40537000Y-69080250D03*
X41037000Y-69080250D03*
X41537000Y-69080250D03*
X42037000Y-69080250D03*
X42537000Y-69080250D03*
X43037000Y-69080250D03*
X43537000Y-69080250D03*
X44037000Y-69080250D03*
X44537000Y-69080250D03*
D29*
X45374500Y-69917750D03*
X45374500Y-70417750D03*
X45374500Y-70917750D03*
X45374500Y-71417750D03*
X45374500Y-71917750D03*
X45374500Y-72417750D03*
X45374500Y-72917750D03*
X45374500Y-73417750D03*
X45374500Y-73917750D03*
X45374500Y-74417750D03*
X45374500Y-74917750D03*
D30*
X44537000Y-75755250D03*
X44037000Y-75755250D03*
X43537000Y-75755250D03*
X43037000Y-75755250D03*
X42537000Y-75755250D03*
X42037000Y-75755250D03*
X41537000Y-75755250D03*
X41037000Y-75755250D03*
X40537000Y-75755250D03*
X40037000Y-75755250D03*
X39537000Y-75755250D03*
D31*
X42036999Y-72417749D03*
%TD*%
D32*
%TO.C,Q1*%
X44020500Y-89723000D03*
X44020500Y-87823000D03*
X45895500Y-88773000D03*
%TD*%
D23*
%TO.C,D34*%
X196849999Y-42674999D03*
X196849999Y-39874999D03*
%TD*%
%TO.C,D23*%
X158749999Y-80774999D03*
X158749999Y-77974999D03*
%TD*%
%TO.C,D21*%
X139699999Y-42674999D03*
X139699999Y-39874999D03*
%TD*%
%TO.C,D39*%
X225424999Y-61724999D03*
X225424999Y-58924999D03*
%TD*%
%TO.C,D30*%
X177799999Y-42674999D03*
X177799999Y-39874999D03*
%TD*%
%TO.C,D41*%
X234949999Y-102999999D03*
X234949999Y-100199999D03*
%TD*%
%TO.C,D20*%
X139699999Y-102999999D03*
X139699999Y-100199999D03*
%TD*%
%TO.C,D24*%
X158749999Y-102999999D03*
X158749999Y-100199999D03*
%TD*%
D33*
%TO.C,F1*%
X233807000Y-47368000D03*
X233807000Y-50168000D03*
%TD*%
D23*
%TO.C,D26*%
X158749999Y-42674999D03*
X158749999Y-39874999D03*
%TD*%
D34*
%TO.C,R6*%
X56263000Y-84505577D03*
X55243000Y-84505577D03*
%TD*%
D23*
%TO.C,D22*%
X149224999Y-61724999D03*
X149224999Y-58924999D03*
%TD*%
D35*
%TO.C,J1*%
X226849999Y-40899999D03*
X226849999Y-35299999D03*
D36*
X230724999Y-39599999D03*
X230724999Y-38599999D03*
X230724999Y-37599999D03*
X230724999Y-36599999D03*
%TD*%
D23*
%TO.C,D13*%
X101599999Y-42674999D03*
X101599999Y-39874999D03*
%TD*%
D37*
%TO.C,J2*%
X38227000Y-52959000D03*
X35687000Y-52959000D03*
X38227000Y-55499000D03*
X35687000Y-55499000D03*
X38227000Y-58039000D03*
D38*
X35686999Y-58038999D03*
%TD*%
D39*
%TO.C,C3*%
X45783500Y-62857250D03*
X45783500Y-63817250D03*
%TD*%
D23*
%TO.C,D7*%
X82549999Y-80774999D03*
X82549999Y-77974999D03*
%TD*%
%TO.C,D4*%
X49212499Y-102999999D03*
X49212499Y-100199999D03*
%TD*%
D27*
%TO.C,R2*%
X34351500Y-73243250D03*
X35371500Y-73243250D03*
%TD*%
D23*
%TO.C,D38*%
X215899999Y-42674999D03*
X215899999Y-39874999D03*
%TD*%
D27*
%TO.C,R3*%
X36574000Y-65024000D03*
X37594000Y-65024000D03*
%TD*%
D23*
%TO.C,D31*%
X187324999Y-61724999D03*
X187324999Y-58924999D03*
%TD*%
%TO.C,D2*%
X53974999Y-61724999D03*
X53974999Y-58924999D03*
%TD*%
D40*
%TO.C,LS1*%
X62252999Y-89788999D03*
X49252999Y-89788999D03*
%TD*%
D23*
%TO.C,D9*%
X82549999Y-42674999D03*
X82549999Y-39874999D03*
%TD*%
%TO.C,D12*%
X92074999Y-102999999D03*
X92074999Y-100199999D03*
%TD*%
%TO.C,D35*%
X206374999Y-61724999D03*
X206374999Y-58924999D03*
%TD*%
D41*
%TO.C,R9*%
X239769074Y-38610000D03*
X239769074Y-37590000D03*
%TD*%
D23*
%TO.C,D33*%
X196849999Y-102999999D03*
X196849999Y-100199999D03*
%TD*%
%TO.C,D17*%
X120649999Y-42612499D03*
X120649999Y-39812499D03*
%TD*%
%TO.C,D27*%
X168274999Y-61724999D03*
X168274999Y-58924999D03*
%TD*%
D42*
%TO.C,D25*%
X229504999Y-46850999D03*
D43*
X229504999Y-45150999D03*
X231504999Y-45150999D03*
X231504999Y-47050999D03*
%TD*%
D23*
%TO.C,D16*%
X111124999Y-102999999D03*
X111124999Y-100199999D03*
%TD*%
%TO.C,D28*%
X177799999Y-80774999D03*
X177799999Y-77974999D03*
%TD*%
%TO.C,D18*%
X130174999Y-61724999D03*
X130174999Y-58924999D03*
%TD*%
D41*
%TO.C,R8*%
X239712500Y-44960000D03*
X239712500Y-43940000D03*
%TD*%
D23*
%TO.C,D5*%
X63499999Y-42674999D03*
X63499999Y-39874999D03*
%TD*%
%TO.C,D19*%
X139699999Y-80774999D03*
X139699999Y-77974999D03*
%TD*%
D44*
%TO.C,C5*%
X47018000Y-70104000D03*
X47978000Y-70104000D03*
%TD*%
D23*
%TO.C,D10*%
X92074999Y-61724999D03*
X92074999Y-58924999D03*
%TD*%
D27*
%TO.C,R1*%
X34351500Y-74259250D03*
X35371500Y-74259250D03*
%TD*%
D38*
%TO.C,SW_Reset2*%
X236537499Y-56837499D03*
D45*
X236537499Y-54297499D03*
%TD*%
D39*
%TO.C,C7*%
X44831000Y-77371000D03*
X44831000Y-78331000D03*
%TD*%
D46*
%TO.C,C6*%
X36230500Y-72100250D03*
X35270500Y-72100250D03*
%TD*%
D23*
%TO.C,D37*%
X215899999Y-102999999D03*
X215899999Y-100199999D03*
%TD*%
D47*
%TO.C,C2*%
X37359911Y-77094839D03*
X36681089Y-77773661D03*
%TD*%
D46*
%TO.C,C8*%
X35595500Y-70957250D03*
X34635500Y-70957250D03*
%TD*%
D23*
%TO.C,D11*%
X101599999Y-80774999D03*
X101599999Y-77974999D03*
%TD*%
M02*
