%TF.GenerationSoftware,KiCad,Pcbnew,(7.0.0)*%
%TF.CreationDate,2023-05-29T16:40:41+02:00*%
%TF.ProjectId,Didaktik,44696461-6b74-4696-9b2e-6b696361645f,rev?*%
%TF.SameCoordinates,Original*%
%TF.FileFunction,Other,Comment*%
%FSLAX46Y46*%
G04 Gerber Fmt 4.6, Leading zero omitted, Abs format (unit mm)*
G04 Created by KiCad (PCBNEW (7.0.0)) date 2023-05-29 16:40:41*
%MOMM*%
%LPD*%
G01*
G04 APERTURE LIST*
%ADD10C,0.100000*%
%ADD11C,0.200000*%
%ADD12C,0.150000*%
G04 APERTURE END LIST*
D10*
X238782564Y-44450000D02*
G75*
G03*
X238782564Y-44450000I-2245064J0D01*
G01*
D11*
X31750000Y-88900000D02*
X12700000Y-88900000D01*
X33337500Y-107950000D02*
X239712500Y-107950000D01*
X222250000Y-31750000D02*
X222250000Y-50800000D01*
X31750000Y-50800000D02*
X41275000Y-50800000D01*
X239712500Y-107950000D02*
X260350000Y-107950000D01*
X12700000Y6350000D02*
X260350000Y6350000D01*
X260350000Y6350000D02*
X260350000Y-127000000D01*
X260350000Y-127000000D02*
X12700000Y-127000000D01*
X12700000Y-127000000D02*
X12700000Y6350000D01*
X239712500Y-107950000D02*
G75*
G03*
X241300000Y-106362500I0J1587500D01*
G01*
D12*
X12700000Y-17462500D02*
X260350000Y-17462500D01*
X165100000Y-17462500D02*
X169862500Y-3175000D01*
D11*
X50800000Y-69850000D02*
X41275000Y-69850000D01*
D12*
X41275000Y-69850000D02*
X12700000Y-69850000D01*
D11*
X33337500Y-107950000D02*
X12700000Y-107950000D01*
X31750000Y-50800000D02*
X12700000Y-50800000D01*
X33337500Y-31750000D02*
G75*
G03*
X31750000Y-33337500I0J-1587500D01*
G01*
X231775000Y-50927000D02*
X231775000Y-69850000D01*
D12*
X231775000Y-50800000D02*
X260350000Y-50800000D01*
D11*
X231775000Y-69850000D02*
X241300000Y-69850000D01*
X41275000Y-69850000D02*
X41275000Y-50800000D01*
X241300000Y-88900000D02*
X260350000Y-88900000D01*
X50800000Y-88900000D02*
X50800000Y-69850000D01*
X222250000Y-31750000D02*
X260350000Y-31750000D01*
D12*
X163512500Y-17462500D02*
X168275000Y-3175000D01*
D11*
X31750000Y-88900000D02*
X50800000Y-88900000D01*
X31750000Y-106362500D02*
G75*
G03*
X33337500Y-107950000I1587500J0D01*
G01*
D12*
X174625000Y-17462500D02*
X179387500Y-3175000D01*
X12700000Y-3175000D02*
X260350000Y-3175000D01*
D11*
X31750000Y-33337500D02*
X31750000Y-50800000D01*
D12*
X171450000Y-17462500D02*
X176212500Y-3175000D01*
D11*
X241300000Y-69850000D02*
X241300000Y-106362500D01*
D10*
X238782564Y-55562500D02*
G75*
G03*
X238782564Y-55562500I-2245064J0D01*
G01*
D11*
X31750000Y-31750000D02*
X222250000Y-31750000D01*
D12*
X190500000Y-17462500D02*
X195262500Y-3175000D01*
X184150000Y-17462500D02*
X188912500Y-3175000D01*
D11*
X31750000Y-31750000D02*
X12700000Y-31750000D01*
X222250000Y-50800000D02*
X231775000Y-50800000D01*
X31750000Y-88900000D02*
X31750000Y-106362500D01*
D10*
X238805128Y-38100000D02*
G75*
G03*
X238805128Y-38100000I-2245064J0D01*
G01*
D12*
X179387500Y-17462500D02*
X184150000Y-3175000D01*
D11*
X241300000Y-69850000D02*
X260350000Y-69850000D01*
D12*
X168275000Y-17462500D02*
X173037500Y-3175000D01*
X246301191Y-57399404D02*
X246301191Y-54066071D01*
X246301191Y-55018452D02*
X246539286Y-54542261D01*
X246539286Y-54542261D02*
X246777381Y-54304166D01*
X246777381Y-54304166D02*
X247253572Y-54066071D01*
X247253572Y-54066071D02*
X247729762Y-54066071D01*
X251301191Y-57161309D02*
X250825000Y-57399404D01*
X250825000Y-57399404D02*
X249872619Y-57399404D01*
X249872619Y-57399404D02*
X249396429Y-57161309D01*
X249396429Y-57161309D02*
X249158333Y-56685119D01*
X249158333Y-56685119D02*
X249158333Y-54780357D01*
X249158333Y-54780357D02*
X249396429Y-54304166D01*
X249396429Y-54304166D02*
X249872619Y-54066071D01*
X249872619Y-54066071D02*
X250825000Y-54066071D01*
X250825000Y-54066071D02*
X251301191Y-54304166D01*
X251301191Y-54304166D02*
X251539286Y-54780357D01*
X251539286Y-54780357D02*
X251539286Y-55256547D01*
X251539286Y-55256547D02*
X249158333Y-55732738D01*
X253444047Y-57161309D02*
X253920238Y-57399404D01*
X253920238Y-57399404D02*
X254872619Y-57399404D01*
X254872619Y-57399404D02*
X255348809Y-57161309D01*
X255348809Y-57161309D02*
X255586905Y-56685119D01*
X255586905Y-56685119D02*
X255586905Y-56447023D01*
X255586905Y-56447023D02*
X255348809Y-55970833D01*
X255348809Y-55970833D02*
X254872619Y-55732738D01*
X254872619Y-55732738D02*
X254158333Y-55732738D01*
X254158333Y-55732738D02*
X253682143Y-55494642D01*
X253682143Y-55494642D02*
X253444047Y-55018452D01*
X253444047Y-55018452D02*
X253444047Y-54780357D01*
X253444047Y-54780357D02*
X253682143Y-54304166D01*
X253682143Y-54304166D02*
X254158333Y-54066071D01*
X254158333Y-54066071D02*
X254872619Y-54066071D01*
X254872619Y-54066071D02*
X255348809Y-54304166D01*
X37197619Y-12949404D02*
X37197619Y-7949404D01*
X37197619Y-7949404D02*
X38388095Y-7949404D01*
X38388095Y-7949404D02*
X39102381Y-8187500D01*
X39102381Y-8187500D02*
X39578571Y-8663690D01*
X39578571Y-8663690D02*
X39816666Y-9139880D01*
X39816666Y-9139880D02*
X40054762Y-10092261D01*
X40054762Y-10092261D02*
X40054762Y-10806547D01*
X40054762Y-10806547D02*
X39816666Y-11758928D01*
X39816666Y-11758928D02*
X39578571Y-12235119D01*
X39578571Y-12235119D02*
X39102381Y-12711309D01*
X39102381Y-12711309D02*
X38388095Y-12949404D01*
X38388095Y-12949404D02*
X37197619Y-12949404D01*
X42197619Y-12949404D02*
X42197619Y-9616071D01*
X42197619Y-7949404D02*
X41959523Y-8187500D01*
X41959523Y-8187500D02*
X42197619Y-8425595D01*
X42197619Y-8425595D02*
X42435714Y-8187500D01*
X42435714Y-8187500D02*
X42197619Y-7949404D01*
X42197619Y-7949404D02*
X42197619Y-8425595D01*
X46721428Y-12949404D02*
X46721428Y-7949404D01*
X46721428Y-12711309D02*
X46245237Y-12949404D01*
X46245237Y-12949404D02*
X45292856Y-12949404D01*
X45292856Y-12949404D02*
X44816666Y-12711309D01*
X44816666Y-12711309D02*
X44578571Y-12473214D01*
X44578571Y-12473214D02*
X44340475Y-11997023D01*
X44340475Y-11997023D02*
X44340475Y-10568452D01*
X44340475Y-10568452D02*
X44578571Y-10092261D01*
X44578571Y-10092261D02*
X44816666Y-9854166D01*
X44816666Y-9854166D02*
X45292856Y-9616071D01*
X45292856Y-9616071D02*
X46245237Y-9616071D01*
X46245237Y-9616071D02*
X46721428Y-9854166D01*
X51245238Y-12949404D02*
X51245238Y-10330357D01*
X51245238Y-10330357D02*
X51007143Y-9854166D01*
X51007143Y-9854166D02*
X50530952Y-9616071D01*
X50530952Y-9616071D02*
X49578571Y-9616071D01*
X49578571Y-9616071D02*
X49102381Y-9854166D01*
X51245238Y-12711309D02*
X50769047Y-12949404D01*
X50769047Y-12949404D02*
X49578571Y-12949404D01*
X49578571Y-12949404D02*
X49102381Y-12711309D01*
X49102381Y-12711309D02*
X48864285Y-12235119D01*
X48864285Y-12235119D02*
X48864285Y-11758928D01*
X48864285Y-11758928D02*
X49102381Y-11282738D01*
X49102381Y-11282738D02*
X49578571Y-11044642D01*
X49578571Y-11044642D02*
X50769047Y-11044642D01*
X50769047Y-11044642D02*
X51245238Y-10806547D01*
X53626191Y-12949404D02*
X53626191Y-7949404D01*
X54102381Y-11044642D02*
X55530953Y-12949404D01*
X55530953Y-9616071D02*
X53626191Y-11520833D01*
X56959524Y-9616071D02*
X58864286Y-9616071D01*
X57673810Y-7949404D02*
X57673810Y-12235119D01*
X57673810Y-12235119D02*
X57911905Y-12711309D01*
X57911905Y-12711309D02*
X58388095Y-12949404D01*
X58388095Y-12949404D02*
X58864286Y-12949404D01*
X60530953Y-12949404D02*
X60530953Y-9616071D01*
X60530953Y-7949404D02*
X60292857Y-8187500D01*
X60292857Y-8187500D02*
X60530953Y-8425595D01*
X60530953Y-8425595D02*
X60769048Y-8187500D01*
X60769048Y-8187500D02*
X60530953Y-7949404D01*
X60530953Y-7949404D02*
X60530953Y-8425595D01*
X62911905Y-12949404D02*
X62911905Y-7949404D01*
X63388095Y-11044642D02*
X64816667Y-12949404D01*
X64816667Y-9616071D02*
X62911905Y-11520833D01*
X72102381Y-9616071D02*
X72102381Y-12949404D01*
X70911905Y-7711309D02*
X69721428Y-11282738D01*
X69721428Y-11282738D02*
X72816667Y-11282738D01*
X75673810Y-7949404D02*
X76150000Y-7949404D01*
X76150000Y-7949404D02*
X76626191Y-8187500D01*
X76626191Y-8187500D02*
X76864286Y-8425595D01*
X76864286Y-8425595D02*
X77102381Y-8901785D01*
X77102381Y-8901785D02*
X77340476Y-9854166D01*
X77340476Y-9854166D02*
X77340476Y-11044642D01*
X77340476Y-11044642D02*
X77102381Y-11997023D01*
X77102381Y-11997023D02*
X76864286Y-12473214D01*
X76864286Y-12473214D02*
X76626191Y-12711309D01*
X76626191Y-12711309D02*
X76150000Y-12949404D01*
X76150000Y-12949404D02*
X75673810Y-12949404D01*
X75673810Y-12949404D02*
X75197619Y-12711309D01*
X75197619Y-12711309D02*
X74959524Y-12473214D01*
X74959524Y-12473214D02*
X74721429Y-11997023D01*
X74721429Y-11997023D02*
X74483333Y-11044642D01*
X74483333Y-11044642D02*
X74483333Y-9854166D01*
X74483333Y-9854166D02*
X74721429Y-8901785D01*
X74721429Y-8901785D02*
X74959524Y-8425595D01*
X74959524Y-8425595D02*
X75197619Y-8187500D01*
X75197619Y-8187500D02*
X75673810Y-7949404D01*
X245467857Y-46048809D02*
X244991666Y-46286904D01*
X244991666Y-46286904D02*
X244039285Y-46286904D01*
X244039285Y-46286904D02*
X243563095Y-46048809D01*
X243563095Y-46048809D02*
X243325000Y-45810714D01*
X243325000Y-45810714D02*
X243086904Y-45334523D01*
X243086904Y-45334523D02*
X243086904Y-43905952D01*
X243086904Y-43905952D02*
X243325000Y-43429761D01*
X243325000Y-43429761D02*
X243563095Y-43191666D01*
X243563095Y-43191666D02*
X244039285Y-42953571D01*
X244039285Y-42953571D02*
X244991666Y-42953571D01*
X244991666Y-42953571D02*
X245467857Y-43191666D01*
X249753571Y-46286904D02*
X249753571Y-43667857D01*
X249753571Y-43667857D02*
X249515476Y-43191666D01*
X249515476Y-43191666D02*
X249039285Y-42953571D01*
X249039285Y-42953571D02*
X248086904Y-42953571D01*
X248086904Y-42953571D02*
X247610714Y-43191666D01*
X249753571Y-46048809D02*
X249277380Y-46286904D01*
X249277380Y-46286904D02*
X248086904Y-46286904D01*
X248086904Y-46286904D02*
X247610714Y-46048809D01*
X247610714Y-46048809D02*
X247372618Y-45572619D01*
X247372618Y-45572619D02*
X247372618Y-45096428D01*
X247372618Y-45096428D02*
X247610714Y-44620238D01*
X247610714Y-44620238D02*
X248086904Y-44382142D01*
X248086904Y-44382142D02*
X249277380Y-44382142D01*
X249277380Y-44382142D02*
X249753571Y-44144047D01*
X252134524Y-42953571D02*
X252134524Y-47953571D01*
X252134524Y-43191666D02*
X252610714Y-42953571D01*
X252610714Y-42953571D02*
X253563095Y-42953571D01*
X253563095Y-42953571D02*
X254039286Y-43191666D01*
X254039286Y-43191666D02*
X254277381Y-43429761D01*
X254277381Y-43429761D02*
X254515476Y-43905952D01*
X254515476Y-43905952D02*
X254515476Y-45334523D01*
X254515476Y-45334523D02*
X254277381Y-45810714D01*
X254277381Y-45810714D02*
X254039286Y-46048809D01*
X254039286Y-46048809D02*
X253563095Y-46286904D01*
X253563095Y-46286904D02*
X252610714Y-46286904D01*
X252610714Y-46286904D02*
X252134524Y-46048809D01*
X256420238Y-46048809D02*
X256896429Y-46286904D01*
X256896429Y-46286904D02*
X257848810Y-46286904D01*
X257848810Y-46286904D02*
X258325000Y-46048809D01*
X258325000Y-46048809D02*
X258563096Y-45572619D01*
X258563096Y-45572619D02*
X258563096Y-45334523D01*
X258563096Y-45334523D02*
X258325000Y-44858333D01*
X258325000Y-44858333D02*
X257848810Y-44620238D01*
X257848810Y-44620238D02*
X257134524Y-44620238D01*
X257134524Y-44620238D02*
X256658334Y-44382142D01*
X256658334Y-44382142D02*
X256420238Y-43905952D01*
X256420238Y-43905952D02*
X256420238Y-43667857D01*
X256420238Y-43667857D02*
X256658334Y-43191666D01*
X256658334Y-43191666D02*
X257134524Y-42953571D01*
X257134524Y-42953571D02*
X257848810Y-42953571D01*
X257848810Y-42953571D02*
X258325000Y-43191666D01*
X248991666Y-38005001D02*
X249325000Y-37671667D01*
X249325000Y-37671667D02*
X249991666Y-37338334D01*
X249991666Y-37338334D02*
X251325000Y-38005001D01*
X251325000Y-38005001D02*
X251991666Y-37671667D01*
X251991666Y-37671667D02*
X252325000Y-37338334D01*
X223965476Y-9616071D02*
X223965476Y-12949404D01*
X222775000Y-7711309D02*
X221584523Y-11282738D01*
X221584523Y-11282738D02*
X224679762Y-11282738D01*
X227536905Y-7949404D02*
X228013095Y-7949404D01*
X228013095Y-7949404D02*
X228489286Y-8187500D01*
X228489286Y-8187500D02*
X228727381Y-8425595D01*
X228727381Y-8425595D02*
X228965476Y-8901785D01*
X228965476Y-8901785D02*
X229203571Y-9854166D01*
X229203571Y-9854166D02*
X229203571Y-11044642D01*
X229203571Y-11044642D02*
X228965476Y-11997023D01*
X228965476Y-11997023D02*
X228727381Y-12473214D01*
X228727381Y-12473214D02*
X228489286Y-12711309D01*
X228489286Y-12711309D02*
X228013095Y-12949404D01*
X228013095Y-12949404D02*
X227536905Y-12949404D01*
X227536905Y-12949404D02*
X227060714Y-12711309D01*
X227060714Y-12711309D02*
X226822619Y-12473214D01*
X226822619Y-12473214D02*
X226584524Y-11997023D01*
X226584524Y-11997023D02*
X226346428Y-11044642D01*
X226346428Y-11044642D02*
X226346428Y-9854166D01*
X226346428Y-9854166D02*
X226584524Y-8901785D01*
X226584524Y-8901785D02*
X226822619Y-8425595D01*
X226822619Y-8425595D02*
X227060714Y-8187500D01*
X227060714Y-8187500D02*
X227536905Y-7949404D01*
X234108333Y-12711309D02*
X234584524Y-12949404D01*
X234584524Y-12949404D02*
X235536905Y-12949404D01*
X235536905Y-12949404D02*
X236013095Y-12711309D01*
X236013095Y-12711309D02*
X236251191Y-12235119D01*
X236251191Y-12235119D02*
X236251191Y-11997023D01*
X236251191Y-11997023D02*
X236013095Y-11520833D01*
X236013095Y-11520833D02*
X235536905Y-11282738D01*
X235536905Y-11282738D02*
X234822619Y-11282738D01*
X234822619Y-11282738D02*
X234346429Y-11044642D01*
X234346429Y-11044642D02*
X234108333Y-10568452D01*
X234108333Y-10568452D02*
X234108333Y-10330357D01*
X234108333Y-10330357D02*
X234346429Y-9854166D01*
X234346429Y-9854166D02*
X234822619Y-9616071D01*
X234822619Y-9616071D02*
X235536905Y-9616071D01*
X235536905Y-9616071D02*
X236013095Y-9854166D01*
X237917857Y-7949404D02*
X239108333Y-12949404D01*
X239108333Y-12949404D02*
X240060714Y-9377976D01*
X240060714Y-9377976D02*
X241013095Y-12949404D01*
X241013095Y-12949404D02*
X242203572Y-7949404D01*
M02*
