%TF.GenerationSoftware,KiCad,Pcbnew,(6.0.7)*%
%TF.CreationDate,2023-01-04T12:42:10+01:00*%
%TF.ProjectId,Didaktik multilayout,44696461-6b74-4696-9b20-6d756c74696c,rev?*%
%TF.SameCoordinates,Original*%
%TF.FileFunction,Other,Comment*%
%FSLAX46Y46*%
G04 Gerber Fmt 4.6, Leading zero omitted, Abs format (unit mm)*
G04 Created by KiCad (PCBNEW (6.0.7)) date 2023-01-04 12:42:10*
%MOMM*%
%LPD*%
G01*
G04 APERTURE LIST*
%ADD10C,0.100000*%
%ADD11C,0.200000*%
%ADD12C,0.150000*%
G04 APERTURE END LIST*
D10*
X238782564Y-44450000D02*
G75*
G03*
X238782564Y-44450000I-2245064J0D01*
G01*
D11*
X31750000Y-88900000D02*
X12700000Y-88900000D01*
X33337500Y-107950000D02*
X239712500Y-107950000D01*
X222250000Y-31750000D02*
X222250000Y-50800000D01*
X31750000Y-50800000D02*
X41275000Y-50800000D01*
X239712500Y-107950000D02*
X260350000Y-107950000D01*
X12700000Y6350000D02*
X260350000Y6350000D01*
X260350000Y6350000D02*
X260350000Y-127000000D01*
X260350000Y-127000000D02*
X12700000Y-127000000D01*
X12700000Y-127000000D02*
X12700000Y6350000D01*
X239712500Y-107950000D02*
G75*
G03*
X241300000Y-106362500I0J1587500D01*
G01*
D12*
X12700000Y-17462500D02*
X260350000Y-17462500D01*
X165100000Y-17462500D02*
X169862500Y-3175000D01*
D11*
X50800000Y-69850000D02*
X41275000Y-69850000D01*
D12*
X41275000Y-69850000D02*
X12700000Y-69850000D01*
D11*
X33337500Y-107950000D02*
X12700000Y-107950000D01*
X31750000Y-50800000D02*
X12700000Y-50800000D01*
X33337500Y-31750000D02*
G75*
G03*
X31750000Y-33337500I0J-1587500D01*
G01*
X231775000Y-50927000D02*
X231775000Y-69850000D01*
D12*
X231775000Y-50800000D02*
X260350000Y-50800000D01*
D11*
X231775000Y-69850000D02*
X241300000Y-69850000D01*
X41275000Y-69850000D02*
X41275000Y-50800000D01*
X241300000Y-88900000D02*
X260350000Y-88900000D01*
X50800000Y-88900000D02*
X50800000Y-69850000D01*
X222250000Y-31750000D02*
X260350000Y-31750000D01*
D12*
X163512500Y-17462500D02*
X168275000Y-3175000D01*
D11*
X31750000Y-88900000D02*
X50800000Y-88900000D01*
X31750000Y-106362500D02*
G75*
G03*
X33337500Y-107950000I1587500J0D01*
G01*
D12*
X174625000Y-17462500D02*
X179387500Y-3175000D01*
X12700000Y-3175000D02*
X260350000Y-3175000D01*
D11*
X31750000Y-33337500D02*
X31750000Y-50800000D01*
D12*
X171450000Y-17462500D02*
X176212500Y-3175000D01*
D11*
X241300000Y-69850000D02*
X241300000Y-106362500D01*
D10*
X238782564Y-55562500D02*
G75*
G03*
X238782564Y-55562500I-2245064J0D01*
G01*
D11*
X31750000Y-31750000D02*
X222250000Y-31750000D01*
D12*
X190500000Y-17462500D02*
X195262500Y-3175000D01*
X184150000Y-17462500D02*
X188912500Y-3175000D01*
D11*
X31750000Y-31750000D02*
X12700000Y-31750000D01*
X222250000Y-50800000D02*
X231775000Y-50800000D01*
X31750000Y-88900000D02*
X31750000Y-106362500D01*
D10*
X238805128Y-38100000D02*
G75*
G03*
X238805128Y-38100000I-2245064J0D01*
G01*
D12*
X179387500Y-17462500D02*
X184150000Y-3175000D01*
D11*
X241300000Y-69850000D02*
X260350000Y-69850000D01*
D12*
X168275000Y-17462500D02*
X173037500Y-3175000D01*
X246301190Y-57824404D02*
X246301190Y-54491071D01*
X246301190Y-55443452D02*
X246539285Y-54967261D01*
X246777380Y-54729166D01*
X247253571Y-54491071D01*
X247729761Y-54491071D01*
X251301190Y-57586309D02*
X250825000Y-57824404D01*
X249872619Y-57824404D01*
X249396428Y-57586309D01*
X249158333Y-57110119D01*
X249158333Y-55205357D01*
X249396428Y-54729166D01*
X249872619Y-54491071D01*
X250825000Y-54491071D01*
X251301190Y-54729166D01*
X251539285Y-55205357D01*
X251539285Y-55681547D01*
X249158333Y-56157738D01*
X253444047Y-57586309D02*
X253920238Y-57824404D01*
X254872619Y-57824404D01*
X255348809Y-57586309D01*
X255586904Y-57110119D01*
X255586904Y-56872023D01*
X255348809Y-56395833D01*
X254872619Y-56157738D01*
X254158333Y-56157738D01*
X253682142Y-55919642D01*
X253444047Y-55443452D01*
X253444047Y-55205357D01*
X253682142Y-54729166D01*
X254158333Y-54491071D01*
X254872619Y-54491071D01*
X255348809Y-54729166D01*
X36792857Y-13374404D02*
X36792857Y-8374404D01*
X37983333Y-8374404D01*
X38697619Y-8612500D01*
X39173809Y-9088690D01*
X39411904Y-9564880D01*
X39650000Y-10517261D01*
X39650000Y-11231547D01*
X39411904Y-12183928D01*
X39173809Y-12660119D01*
X38697619Y-13136309D01*
X37983333Y-13374404D01*
X36792857Y-13374404D01*
X41792857Y-13374404D02*
X41792857Y-10041071D01*
X41792857Y-8374404D02*
X41554761Y-8612500D01*
X41792857Y-8850595D01*
X42030952Y-8612500D01*
X41792857Y-8374404D01*
X41792857Y-8850595D01*
X46316666Y-13374404D02*
X46316666Y-8374404D01*
X46316666Y-13136309D02*
X45840476Y-13374404D01*
X44888095Y-13374404D01*
X44411904Y-13136309D01*
X44173809Y-12898214D01*
X43935714Y-12422023D01*
X43935714Y-10993452D01*
X44173809Y-10517261D01*
X44411904Y-10279166D01*
X44888095Y-10041071D01*
X45840476Y-10041071D01*
X46316666Y-10279166D01*
X50840476Y-13374404D02*
X50840476Y-10755357D01*
X50602380Y-10279166D01*
X50126190Y-10041071D01*
X49173809Y-10041071D01*
X48697619Y-10279166D01*
X50840476Y-13136309D02*
X50364285Y-13374404D01*
X49173809Y-13374404D01*
X48697619Y-13136309D01*
X48459523Y-12660119D01*
X48459523Y-12183928D01*
X48697619Y-11707738D01*
X49173809Y-11469642D01*
X50364285Y-11469642D01*
X50840476Y-11231547D01*
X53221428Y-13374404D02*
X53221428Y-8374404D01*
X53697619Y-11469642D02*
X55126190Y-13374404D01*
X55126190Y-10041071D02*
X53221428Y-11945833D01*
X56554761Y-10041071D02*
X58459523Y-10041071D01*
X57269047Y-8374404D02*
X57269047Y-12660119D01*
X57507142Y-13136309D01*
X57983333Y-13374404D01*
X58459523Y-13374404D01*
X60126190Y-13374404D02*
X60126190Y-10041071D01*
X60126190Y-8374404D02*
X59888095Y-8612500D01*
X60126190Y-8850595D01*
X60364285Y-8612500D01*
X60126190Y-8374404D01*
X60126190Y-8850595D01*
X62507142Y-13374404D02*
X62507142Y-8374404D01*
X62983333Y-11469642D02*
X64411904Y-13374404D01*
X64411904Y-10041071D02*
X62507142Y-11945833D01*
X72507142Y-10041071D02*
X72507142Y-13374404D01*
X71316666Y-8136309D02*
X70126190Y-11707738D01*
X73221428Y-11707738D01*
X76078571Y-8374404D02*
X76554761Y-8374404D01*
X77030952Y-8612500D01*
X77269047Y-8850595D01*
X77507142Y-9326785D01*
X77745238Y-10279166D01*
X77745238Y-11469642D01*
X77507142Y-12422023D01*
X77269047Y-12898214D01*
X77030952Y-13136309D01*
X76554761Y-13374404D01*
X76078571Y-13374404D01*
X75602380Y-13136309D01*
X75364285Y-12898214D01*
X75126190Y-12422023D01*
X74888095Y-11469642D01*
X74888095Y-10279166D01*
X75126190Y-9326785D01*
X75364285Y-8850595D01*
X75602380Y-8612500D01*
X76078571Y-8374404D01*
X245467857Y-46473809D02*
X244991666Y-46711904D01*
X244039285Y-46711904D01*
X243563095Y-46473809D01*
X243325000Y-46235714D01*
X243086904Y-45759523D01*
X243086904Y-44330952D01*
X243325000Y-43854761D01*
X243563095Y-43616666D01*
X244039285Y-43378571D01*
X244991666Y-43378571D01*
X245467857Y-43616666D01*
X249753571Y-46711904D02*
X249753571Y-44092857D01*
X249515476Y-43616666D01*
X249039285Y-43378571D01*
X248086904Y-43378571D01*
X247610714Y-43616666D01*
X249753571Y-46473809D02*
X249277380Y-46711904D01*
X248086904Y-46711904D01*
X247610714Y-46473809D01*
X247372619Y-45997619D01*
X247372619Y-45521428D01*
X247610714Y-45045238D01*
X248086904Y-44807142D01*
X249277380Y-44807142D01*
X249753571Y-44569047D01*
X252134523Y-43378571D02*
X252134523Y-48378571D01*
X252134523Y-43616666D02*
X252610714Y-43378571D01*
X253563095Y-43378571D01*
X254039285Y-43616666D01*
X254277380Y-43854761D01*
X254515476Y-44330952D01*
X254515476Y-45759523D01*
X254277380Y-46235714D01*
X254039285Y-46473809D01*
X253563095Y-46711904D01*
X252610714Y-46711904D01*
X252134523Y-46473809D01*
X256420238Y-46473809D02*
X256896428Y-46711904D01*
X257848809Y-46711904D01*
X258325000Y-46473809D01*
X258563095Y-45997619D01*
X258563095Y-45759523D01*
X258325000Y-45283333D01*
X257848809Y-45045238D01*
X257134523Y-45045238D01*
X256658333Y-44807142D01*
X256420238Y-44330952D01*
X256420238Y-44092857D01*
X256658333Y-43616666D01*
X257134523Y-43378571D01*
X257848809Y-43378571D01*
X258325000Y-43616666D01*
X248991666Y-38600000D02*
X249325000Y-38266666D01*
X249991666Y-37933333D01*
X251325000Y-38600000D01*
X251991666Y-38266666D01*
X252325000Y-37933333D01*
X223560714Y-10041071D02*
X223560714Y-13374404D01*
X222370238Y-8136309D02*
X221179761Y-11707738D01*
X224275000Y-11707738D01*
X227132142Y-8374404D02*
X227608333Y-8374404D01*
X228084523Y-8612500D01*
X228322619Y-8850595D01*
X228560714Y-9326785D01*
X228798809Y-10279166D01*
X228798809Y-11469642D01*
X228560714Y-12422023D01*
X228322619Y-12898214D01*
X228084523Y-13136309D01*
X227608333Y-13374404D01*
X227132142Y-13374404D01*
X226655952Y-13136309D01*
X226417857Y-12898214D01*
X226179761Y-12422023D01*
X225941666Y-11469642D01*
X225941666Y-10279166D01*
X226179761Y-9326785D01*
X226417857Y-8850595D01*
X226655952Y-8612500D01*
X227132142Y-8374404D01*
X234513095Y-13136309D02*
X234989285Y-13374404D01*
X235941666Y-13374404D01*
X236417857Y-13136309D01*
X236655952Y-12660119D01*
X236655952Y-12422023D01*
X236417857Y-11945833D01*
X235941666Y-11707738D01*
X235227380Y-11707738D01*
X234751190Y-11469642D01*
X234513095Y-10993452D01*
X234513095Y-10755357D01*
X234751190Y-10279166D01*
X235227380Y-10041071D01*
X235941666Y-10041071D01*
X236417857Y-10279166D01*
X238322619Y-8374404D02*
X239513095Y-13374404D01*
X240465476Y-9802976D01*
X241417857Y-13374404D01*
X242608333Y-8374404D01*
M02*
