%TF.GenerationSoftware,KiCad,Pcbnew,(6.0.7)*%
%TF.CreationDate,2023-01-04T12:42:10+01:00*%
%TF.ProjectId,Didaktik multilayout,44696461-6b74-4696-9b20-6d756c74696c,rev?*%
%TF.SameCoordinates,Original*%
%TF.FileFunction,Legend,Bot*%
%TF.FilePolarity,Positive*%
%FSLAX46Y46*%
G04 Gerber Fmt 4.6, Leading zero omitted, Abs format (unit mm)*
G04 Created by KiCad (PCBNEW (6.0.7)) date 2023-01-04 12:42:10*
%MOMM*%
%LPD*%
G01*
G04 APERTURE LIST*
G04 Aperture macros list*
%AMRoundRect*
0 Rectangle with rounded corners*
0 $1 Rounding radius*
0 $2 $3 $4 $5 $6 $7 $8 $9 X,Y pos of 4 corners*
0 Add a 4 corners polygon primitive as box body*
4,1,4,$2,$3,$4,$5,$6,$7,$8,$9,$2,$3,0*
0 Add four circle primitives for the rounded corners*
1,1,$1+$1,$2,$3*
1,1,$1+$1,$4,$5*
1,1,$1+$1,$6,$7*
1,1,$1+$1,$8,$9*
0 Add four rect primitives between the rounded corners*
20,1,$1+$1,$2,$3,$4,$5,0*
20,1,$1+$1,$4,$5,$6,$7,0*
20,1,$1+$1,$6,$7,$8,$9,0*
20,1,$1+$1,$8,$9,$2,$3,0*%
G04 Aperture macros list end*
%ADD10C,0.150000*%
%ADD11C,0.125000*%
%ADD12C,0.120000*%
%ADD13C,0.250000*%
%ADD14C,1.750000*%
%ADD15C,3.987800*%
%ADD16C,2.250000*%
%ADD17C,3.048000*%
%ADD18R,1.600000X1.200000*%
%ADD19R,1.600000X1.600000*%
%ADD20C,1.600000*%
%ADD21R,2.000000X2.000000*%
%ADD22C,2.000000*%
%ADD23R,1.200000X0.900000*%
%ADD24R,1.350000X1.350000*%
%ADD25O,1.350000X1.350000*%
%ADD26RoundRect,0.140000X0.170000X-0.140000X0.170000X0.140000X-0.170000X0.140000X-0.170000X-0.140000X0*%
%ADD27RoundRect,0.135000X-0.135000X-0.185000X0.135000X-0.185000X0.135000X0.185000X-0.135000X0.185000X0*%
%ADD28R,1.400000X1.200000*%
%ADD29RoundRect,0.062500X-0.475000X-0.062500X0.475000X-0.062500X0.475000X0.062500X-0.475000X0.062500X0*%
%ADD30RoundRect,0.062500X-0.062500X-0.475000X0.062500X-0.475000X0.062500X0.475000X-0.062500X0.475000X0*%
%ADD31R,5.200000X5.200000*%
%ADD32RoundRect,0.150000X-0.587500X-0.150000X0.587500X-0.150000X0.587500X0.150000X-0.587500X0.150000X0*%
%ADD33RoundRect,0.250000X-0.625000X0.375000X-0.625000X-0.375000X0.625000X-0.375000X0.625000X0.375000X0*%
%ADD34RoundRect,0.135000X0.135000X0.185000X-0.135000X0.185000X-0.135000X-0.185000X0.135000X-0.185000X0*%
%ADD35R,1.800000X1.200000*%
%ADD36R,1.550000X0.600000*%
%ADD37C,1.700000*%
%ADD38R,1.700000X1.700000*%
%ADD39RoundRect,0.140000X-0.170000X0.140000X-0.170000X-0.140000X0.170000X-0.140000X0.170000X0.140000X0*%
%ADD40R,2.300000X2.300000*%
%ADD41RoundRect,0.135000X0.185000X-0.135000X0.185000X0.135000X-0.185000X0.135000X-0.185000X-0.135000X0*%
%ADD42R,0.700000X1.000000*%
%ADD43R,0.700000X0.600000*%
%ADD44RoundRect,0.140000X-0.140000X-0.170000X0.140000X-0.170000X0.140000X0.170000X-0.140000X0.170000X0*%
%ADD45RoundRect,0.140000X0.140000X0.170000X-0.140000X0.170000X-0.140000X-0.170000X0.140000X-0.170000X0*%
%ADD46RoundRect,0.140000X-0.021213X0.219203X-0.219203X0.021213X0.021213X-0.219203X0.219203X-0.021213X0*%
G04 APERTURE END LIST*
D10*
X89233333Y-85177380D02*
X89423809Y-85177380D01*
X89519047Y-85225000D01*
X89566666Y-85272619D01*
X89661904Y-85415476D01*
X89709523Y-85605952D01*
X89709523Y-85986904D01*
X89661904Y-86082142D01*
X89614285Y-86129761D01*
X89519047Y-86177380D01*
X89328571Y-86177380D01*
X89233333Y-86129761D01*
X89185714Y-86082142D01*
X89138095Y-85986904D01*
X89138095Y-85748809D01*
X89185714Y-85653571D01*
X89233333Y-85605952D01*
X89328571Y-85558333D01*
X89519047Y-85558333D01*
X89614285Y-85605952D01*
X89661904Y-85653571D01*
X89709523Y-85748809D01*
X88709523Y-85177380D02*
X88709523Y-85986904D01*
X88661904Y-86082142D01*
X88614285Y-86129761D01*
X88519047Y-86177380D01*
X88328571Y-86177380D01*
X88233333Y-86129761D01*
X88185714Y-86082142D01*
X88138095Y-85986904D01*
X88138095Y-85177380D01*
X130222182Y-86842169D02*
X130174563Y-86794550D01*
X130079325Y-86746930D01*
X129841230Y-86746930D01*
X129745992Y-86794550D01*
X129698373Y-86842169D01*
X129650754Y-86937407D01*
X129650754Y-87032645D01*
X129698373Y-87175502D01*
X130269801Y-87746930D01*
X129650754Y-87746930D01*
X129222182Y-86746930D02*
X129222182Y-87556454D01*
X129174563Y-87651692D01*
X129126944Y-87699311D01*
X129031706Y-87746930D01*
X128841230Y-87746930D01*
X128745992Y-87699311D01*
X128698373Y-87651692D01*
X128650754Y-87556454D01*
X128650754Y-86746930D01*
X89867666Y-34319666D02*
X89867666Y-32569666D01*
X89451000Y-32569666D01*
X89201000Y-32653000D01*
X89034333Y-32819666D01*
X88951000Y-32986333D01*
X88867666Y-33319666D01*
X88867666Y-33569666D01*
X88951000Y-33903000D01*
X89034333Y-34069666D01*
X89201000Y-34236333D01*
X89451000Y-34319666D01*
X89867666Y-34319666D01*
X88117666Y-34319666D02*
X88117666Y-33153000D01*
X88117666Y-32569666D02*
X88201000Y-32653000D01*
X88117666Y-32736333D01*
X88034333Y-32653000D01*
X88117666Y-32569666D01*
X88117666Y-32736333D01*
X86534333Y-34319666D02*
X86534333Y-32569666D01*
X86534333Y-34236333D02*
X86701000Y-34319666D01*
X87034333Y-34319666D01*
X87201000Y-34236333D01*
X87284333Y-34153000D01*
X87367666Y-33986333D01*
X87367666Y-33486333D01*
X87284333Y-33319666D01*
X87201000Y-33236333D01*
X87034333Y-33153000D01*
X86701000Y-33153000D01*
X86534333Y-33236333D01*
X84951000Y-34319666D02*
X84951000Y-33403000D01*
X85034333Y-33236333D01*
X85201000Y-33153000D01*
X85534333Y-33153000D01*
X85701000Y-33236333D01*
X84951000Y-34236333D02*
X85117666Y-34319666D01*
X85534333Y-34319666D01*
X85701000Y-34236333D01*
X85784333Y-34069666D01*
X85784333Y-33903000D01*
X85701000Y-33736333D01*
X85534333Y-33653000D01*
X85117666Y-33653000D01*
X84951000Y-33569666D01*
X84117666Y-34319666D02*
X84117666Y-32569666D01*
X83951000Y-33653000D02*
X83451000Y-34319666D01*
X83451000Y-33153000D02*
X84117666Y-33819666D01*
X82951000Y-33153000D02*
X82284333Y-33153000D01*
X82701000Y-32569666D02*
X82701000Y-34069666D01*
X82617666Y-34236333D01*
X82451000Y-34319666D01*
X82284333Y-34319666D01*
X81701000Y-34319666D02*
X81701000Y-33153000D01*
X81701000Y-32569666D02*
X81784333Y-32653000D01*
X81701000Y-32736333D01*
X81617666Y-32653000D01*
X81701000Y-32569666D01*
X81701000Y-32736333D01*
X80867666Y-34319666D02*
X80867666Y-32569666D01*
X80701000Y-33653000D02*
X80201000Y-34319666D01*
X80201000Y-33153000D02*
X80867666Y-33819666D01*
X77367666Y-33153000D02*
X77367666Y-34319666D01*
X77784333Y-32486333D02*
X78201000Y-33736333D01*
X77117666Y-33736333D01*
X76117666Y-32569666D02*
X75951000Y-32569666D01*
X75784333Y-32653000D01*
X75701000Y-32736333D01*
X75617666Y-32903000D01*
X75534333Y-33236333D01*
X75534333Y-33653000D01*
X75617666Y-33986333D01*
X75701000Y-34153000D01*
X75784333Y-34236333D01*
X75951000Y-34319666D01*
X76117666Y-34319666D01*
X76284333Y-34236333D01*
X76367666Y-34153000D01*
X76451000Y-33986333D01*
X76534333Y-33653000D01*
X76534333Y-33236333D01*
X76451000Y-32903000D01*
X76367666Y-32736333D01*
X76284333Y-32653000D01*
X76117666Y-32569666D01*
X73617666Y-33153000D02*
X73201000Y-34319666D01*
X72784333Y-33153000D01*
X71201000Y-34319666D02*
X72201000Y-34319666D01*
X71701000Y-34319666D02*
X71701000Y-32569666D01*
X71867666Y-32819666D01*
X72034333Y-32986333D01*
X72201000Y-33069666D01*
X70451000Y-34153000D02*
X70367666Y-34236333D01*
X70451000Y-34319666D01*
X70534333Y-34236333D01*
X70451000Y-34153000D01*
X70451000Y-34319666D01*
X69284333Y-32569666D02*
X69117666Y-32569666D01*
X68951000Y-32653000D01*
X68867666Y-32736333D01*
X68784333Y-32903000D01*
X68701000Y-33236333D01*
X68701000Y-33653000D01*
X68784333Y-33986333D01*
X68867666Y-34153000D01*
X68951000Y-34236333D01*
X69117666Y-34319666D01*
X69284333Y-34319666D01*
X69451000Y-34236333D01*
X69534333Y-34153000D01*
X69617666Y-33986333D01*
X69701000Y-33653000D01*
X69701000Y-33236333D01*
X69617666Y-32903000D01*
X69534333Y-32736333D01*
X69451000Y-32653000D01*
X69284333Y-32569666D01*
X66617666Y-34319666D02*
X66617666Y-32569666D01*
X66617666Y-33236333D02*
X66451000Y-33153000D01*
X66117666Y-33153000D01*
X65951000Y-33236333D01*
X65867666Y-33319666D01*
X65784333Y-33486333D01*
X65784333Y-33986333D01*
X65867666Y-34153000D01*
X65951000Y-34236333D01*
X66117666Y-34319666D01*
X66451000Y-34319666D01*
X66617666Y-34236333D01*
X65201000Y-33153000D02*
X64784333Y-34319666D01*
X64367666Y-33153000D02*
X64784333Y-34319666D01*
X64951000Y-34736333D01*
X65034333Y-34819666D01*
X65201000Y-34903000D01*
X61367666Y-34153000D02*
X61451000Y-34236333D01*
X61701000Y-34319666D01*
X61867666Y-34319666D01*
X62117666Y-34236333D01*
X62284333Y-34069666D01*
X62367666Y-33903000D01*
X62451000Y-33569666D01*
X62451000Y-33319666D01*
X62367666Y-32986333D01*
X62284333Y-32819666D01*
X62117666Y-32653000D01*
X61867666Y-32569666D01*
X61701000Y-32569666D01*
X61451000Y-32653000D01*
X61367666Y-32736333D01*
X59867666Y-34319666D02*
X59867666Y-33403000D01*
X59951000Y-33236333D01*
X60117666Y-33153000D01*
X60451000Y-33153000D01*
X60617666Y-33236333D01*
X59867666Y-34236333D02*
X60034333Y-34319666D01*
X60451000Y-34319666D01*
X60617666Y-34236333D01*
X60701000Y-34069666D01*
X60701000Y-33903000D01*
X60617666Y-33736333D01*
X60451000Y-33653000D01*
X60034333Y-33653000D01*
X59867666Y-33569666D01*
X58784333Y-34319666D02*
X58951000Y-34236333D01*
X59034333Y-34069666D01*
X59034333Y-32569666D01*
X58284333Y-33153000D02*
X57867666Y-34319666D01*
X57451000Y-33153000D01*
X56784333Y-34319666D02*
X56784333Y-33153000D01*
X56784333Y-32569666D02*
X56867666Y-32653000D01*
X56784333Y-32736333D01*
X56701000Y-32653000D01*
X56784333Y-32569666D01*
X56784333Y-32736333D01*
X55951000Y-33153000D02*
X55951000Y-34319666D01*
X55951000Y-33319666D02*
X55867666Y-33236333D01*
X55701000Y-33153000D01*
X55451000Y-33153000D01*
X55284333Y-33236333D01*
X55201000Y-33403000D01*
X55201000Y-34319666D01*
X54450999Y-33153000D02*
X53200999Y-33153000D01*
X53950999Y-32403000D02*
X54450999Y-34653000D01*
X53367666Y-33903000D02*
X54617666Y-33903000D01*
X53867666Y-34653000D02*
X53367666Y-32403000D01*
X52284333Y-32569666D02*
X52117666Y-32569666D01*
X51950999Y-32653000D01*
X51867666Y-32736333D01*
X51784333Y-32903000D01*
X51700999Y-33236333D01*
X51700999Y-33653000D01*
X51784333Y-33986333D01*
X51867666Y-34153000D01*
X51950999Y-34236333D01*
X52117666Y-34319666D01*
X52284333Y-34319666D01*
X52450999Y-34236333D01*
X52534333Y-34153000D01*
X52617666Y-33986333D01*
X52700999Y-33653000D01*
X52700999Y-33236333D01*
X52617666Y-32903000D01*
X52534333Y-32736333D01*
X52450999Y-32653000D01*
X52284333Y-32569666D01*
X50117666Y-32569666D02*
X50950999Y-32569666D01*
X51034333Y-33403000D01*
X50950999Y-33319666D01*
X50784333Y-33236333D01*
X50367666Y-33236333D01*
X50200999Y-33319666D01*
X50117666Y-33403000D01*
X50034333Y-33569666D01*
X50034333Y-33986333D01*
X50117666Y-34153000D01*
X50200999Y-34236333D01*
X50367666Y-34319666D01*
X50784333Y-34319666D01*
X50950999Y-34236333D01*
X51034333Y-34153000D01*
X48534333Y-32569666D02*
X48867666Y-32569666D01*
X49034333Y-32653000D01*
X49117666Y-32736333D01*
X49284333Y-32986333D01*
X49367666Y-33319666D01*
X49367666Y-33986333D01*
X49284333Y-34153000D01*
X49200999Y-34236333D01*
X49034333Y-34319666D01*
X48700999Y-34319666D01*
X48534333Y-34236333D01*
X48450999Y-34153000D01*
X48367666Y-33986333D01*
X48367666Y-33569666D01*
X48450999Y-33403000D01*
X48534333Y-33319666D01*
X48700999Y-33236333D01*
X49034333Y-33236333D01*
X49200999Y-33319666D01*
X49284333Y-33403000D01*
X49367666Y-33569666D01*
X47784333Y-32569666D02*
X46700999Y-32569666D01*
X47284333Y-33236333D01*
X47034333Y-33236333D01*
X46867666Y-33319666D01*
X46784333Y-33403000D01*
X46700999Y-33569666D01*
X46700999Y-33986333D01*
X46784333Y-34153000D01*
X46867666Y-34236333D01*
X47034333Y-34319666D01*
X47534333Y-34319666D01*
X47700999Y-34236333D01*
X47784333Y-34153000D01*
X184483333Y-85177380D02*
X184673809Y-85177380D01*
X184769047Y-85225000D01*
X184816666Y-85272619D01*
X184911904Y-85415476D01*
X184959523Y-85605952D01*
X184959523Y-85986904D01*
X184911904Y-86082142D01*
X184864285Y-86129761D01*
X184769047Y-86177380D01*
X184578571Y-86177380D01*
X184483333Y-86129761D01*
X184435714Y-86082142D01*
X184388095Y-85986904D01*
X184388095Y-85748809D01*
X184435714Y-85653571D01*
X184483333Y-85605952D01*
X184578571Y-85558333D01*
X184769047Y-85558333D01*
X184864285Y-85605952D01*
X184911904Y-85653571D01*
X184959523Y-85748809D01*
X183959523Y-85177380D02*
X183959523Y-85986904D01*
X183911904Y-86082142D01*
X183864285Y-86129761D01*
X183769047Y-86177380D01*
X183578571Y-86177380D01*
X183483333Y-86129761D01*
X183435714Y-86082142D01*
X183388095Y-85986904D01*
X183388095Y-85177380D01*
X80232142Y-86764880D02*
X79565476Y-86764880D01*
X79994047Y-87764880D01*
X79184523Y-86764880D02*
X79184523Y-87574404D01*
X79136904Y-87669642D01*
X79089285Y-87717261D01*
X78994047Y-87764880D01*
X78803571Y-87764880D01*
X78708333Y-87717261D01*
X78660714Y-87669642D01*
X78613095Y-87574404D01*
X78613095Y-86764880D01*
X222940476Y-83002380D02*
X223273809Y-82526190D01*
X223511904Y-83002380D02*
X223511904Y-82002380D01*
X223130952Y-82002380D01*
X223035714Y-82050000D01*
X222988095Y-82097619D01*
X222940476Y-82192857D01*
X222940476Y-82335714D01*
X222988095Y-82430952D01*
X223035714Y-82478571D01*
X223130952Y-82526190D01*
X223511904Y-82526190D01*
X221988095Y-82050000D02*
X222083333Y-82002380D01*
X222226190Y-82002380D01*
X222369047Y-82050000D01*
X222464285Y-82145238D01*
X222511904Y-82240476D01*
X222559523Y-82430952D01*
X222559523Y-82573809D01*
X222511904Y-82764285D01*
X222464285Y-82859523D01*
X222369047Y-82954761D01*
X222226190Y-83002380D01*
X222130952Y-83002380D01*
X221988095Y-82954761D01*
X221940476Y-82907142D01*
X221940476Y-82573809D01*
X222130952Y-82573809D01*
X221178571Y-82478571D02*
X221035714Y-82526190D01*
X220988095Y-82573809D01*
X220940476Y-82669047D01*
X220940476Y-82811904D01*
X220988095Y-82907142D01*
X221035714Y-82954761D01*
X221130952Y-83002380D01*
X221511904Y-83002380D01*
X221511904Y-82002380D01*
X221178571Y-82002380D01*
X221083333Y-82050000D01*
X221035714Y-82097619D01*
X220988095Y-82192857D01*
X220988095Y-82288095D01*
X221035714Y-82383333D01*
X221083333Y-82430952D01*
X221178571Y-82478571D01*
X221511904Y-82478571D01*
X165957142Y-101052380D02*
X165338095Y-101052380D01*
X165671428Y-101433333D01*
X165528571Y-101433333D01*
X165433333Y-101480952D01*
X165385714Y-101528571D01*
X165338095Y-101623809D01*
X165338095Y-101861904D01*
X165385714Y-101957142D01*
X165433333Y-102004761D01*
X165528571Y-102052380D01*
X165814285Y-102052380D01*
X165909523Y-102004761D01*
X165957142Y-101957142D01*
X164909523Y-101052380D02*
X164909523Y-101861904D01*
X164861904Y-101957142D01*
X164814285Y-102004761D01*
X164719047Y-102052380D01*
X164528571Y-102052380D01*
X164433333Y-102004761D01*
X164385714Y-101957142D01*
X164338095Y-101861904D01*
X164338095Y-101052380D01*
X106319974Y-86976703D02*
X106272355Y-86929084D01*
X106177117Y-86881464D01*
X105939022Y-86881464D01*
X105843784Y-86929084D01*
X105796165Y-86976703D01*
X105748546Y-87071941D01*
X105748546Y-87167179D01*
X105796165Y-87310036D01*
X106367593Y-87881464D01*
X105748546Y-87881464D01*
X105319974Y-86881464D02*
X105319974Y-87690988D01*
X105272355Y-87786226D01*
X105224736Y-87833845D01*
X105129498Y-87881464D01*
X104939022Y-87881464D01*
X104843784Y-87833845D01*
X104796165Y-87786226D01*
X104748546Y-87690988D01*
X104748546Y-86881464D01*
X37933190Y-61031380D02*
X37933190Y-60031380D01*
X37504619Y-60983761D02*
X37361761Y-61031380D01*
X37123666Y-61031380D01*
X37028428Y-60983761D01*
X36980809Y-60936142D01*
X36933190Y-60840904D01*
X36933190Y-60745666D01*
X36980809Y-60650428D01*
X37028428Y-60602809D01*
X37123666Y-60555190D01*
X37314142Y-60507571D01*
X37409380Y-60459952D01*
X37457000Y-60412333D01*
X37504619Y-60317095D01*
X37504619Y-60221857D01*
X37457000Y-60126619D01*
X37409380Y-60079000D01*
X37314142Y-60031380D01*
X37076047Y-60031380D01*
X36933190Y-60079000D01*
X36504619Y-61031380D02*
X36504619Y-60031380D01*
X36123666Y-60031380D01*
X36028428Y-60079000D01*
X35980809Y-60126619D01*
X35933190Y-60221857D01*
X35933190Y-60364714D01*
X35980809Y-60459952D01*
X36028428Y-60507571D01*
X36123666Y-60555190D01*
X36504619Y-60555190D01*
X151764880Y-102052380D02*
X152336309Y-102052380D01*
X152050595Y-102052380D02*
X152050595Y-101052380D01*
X152145833Y-101195238D01*
X152241071Y-101290476D01*
X152336309Y-101338095D01*
X151336309Y-101957142D02*
X151288690Y-102004761D01*
X151336309Y-102052380D01*
X151383928Y-102004761D01*
X151336309Y-101957142D01*
X151336309Y-102052380D01*
X150383928Y-101052380D02*
X150860119Y-101052380D01*
X150907738Y-101528571D01*
X150860119Y-101480952D01*
X150764880Y-101433333D01*
X150526785Y-101433333D01*
X150431547Y-101480952D01*
X150383928Y-101528571D01*
X150336309Y-101623809D01*
X150336309Y-101861904D01*
X150383928Y-101957142D01*
X150431547Y-102004761D01*
X150526785Y-102052380D01*
X150764880Y-102052380D01*
X150860119Y-102004761D01*
X150907738Y-101957142D01*
X149907738Y-101052380D02*
X149907738Y-101861904D01*
X149860119Y-101957142D01*
X149812500Y-102004761D01*
X149717261Y-102052380D01*
X149526785Y-102052380D01*
X149431547Y-102004761D01*
X149383928Y-101957142D01*
X149336309Y-101861904D01*
X149336309Y-101052380D01*
X123189880Y-102052380D02*
X123761309Y-102052380D01*
X123475595Y-102052380D02*
X123475595Y-101052380D01*
X123570833Y-101195238D01*
X123666071Y-101290476D01*
X123761309Y-101338095D01*
X122761309Y-101957142D02*
X122713690Y-102004761D01*
X122761309Y-102052380D01*
X122808928Y-102004761D01*
X122761309Y-101957142D01*
X122761309Y-102052380D01*
X121808928Y-101052380D02*
X122285119Y-101052380D01*
X122332738Y-101528571D01*
X122285119Y-101480952D01*
X122189880Y-101433333D01*
X121951785Y-101433333D01*
X121856547Y-101480952D01*
X121808928Y-101528571D01*
X121761309Y-101623809D01*
X121761309Y-101861904D01*
X121808928Y-101957142D01*
X121856547Y-102004761D01*
X121951785Y-102052380D01*
X122189880Y-102052380D01*
X122285119Y-102004761D01*
X122332738Y-101957142D01*
X121332738Y-101052380D02*
X121332738Y-101861904D01*
X121285119Y-101957142D01*
X121237500Y-102004761D01*
X121142261Y-102052380D01*
X120951785Y-102052380D01*
X120856547Y-102004761D01*
X120808928Y-101957142D01*
X120761309Y-101861904D01*
X120761309Y-101052380D01*
X108807142Y-101052380D02*
X108188095Y-101052380D01*
X108521428Y-101433333D01*
X108378571Y-101433333D01*
X108283333Y-101480952D01*
X108235714Y-101528571D01*
X108188095Y-101623809D01*
X108188095Y-101861904D01*
X108235714Y-101957142D01*
X108283333Y-102004761D01*
X108378571Y-102052380D01*
X108664285Y-102052380D01*
X108759523Y-102004761D01*
X108807142Y-101957142D01*
X107759523Y-101052380D02*
X107759523Y-101861904D01*
X107711904Y-101957142D01*
X107664285Y-102004761D01*
X107569047Y-102052380D01*
X107378571Y-102052380D01*
X107283333Y-102004761D01*
X107235714Y-101957142D01*
X107188095Y-101861904D01*
X107188095Y-101052380D01*
X194532142Y-86764880D02*
X193865476Y-86764880D01*
X194294047Y-87764880D01*
X193484523Y-86764880D02*
X193484523Y-87574404D01*
X193436904Y-87669642D01*
X193389285Y-87717261D01*
X193294047Y-87764880D01*
X193103571Y-87764880D01*
X193008333Y-87717261D01*
X192960714Y-87669642D01*
X192913095Y-87574404D01*
X192913095Y-86764880D01*
X156384523Y-101147619D02*
X156336904Y-101100000D01*
X156241666Y-101052380D01*
X156003571Y-101052380D01*
X155908333Y-101100000D01*
X155860714Y-101147619D01*
X155813095Y-101242857D01*
X155813095Y-101338095D01*
X155860714Y-101480952D01*
X156432142Y-102052380D01*
X155813095Y-102052380D01*
X155384523Y-101052380D02*
X155384523Y-101861904D01*
X155336904Y-101957142D01*
X155289285Y-102004761D01*
X155194047Y-102052380D01*
X155003571Y-102052380D01*
X154908333Y-102004761D01*
X154860714Y-101957142D01*
X154813095Y-101861904D01*
X154813095Y-101052380D01*
X46989880Y-102052380D02*
X47561309Y-102052380D01*
X47275595Y-102052380D02*
X47275595Y-101052380D01*
X47370833Y-101195238D01*
X47466071Y-101290476D01*
X47561309Y-101338095D01*
X46561309Y-101957142D02*
X46513690Y-102004761D01*
X46561309Y-102052380D01*
X46608928Y-102004761D01*
X46561309Y-101957142D01*
X46561309Y-102052380D01*
X45608928Y-101052380D02*
X46085119Y-101052380D01*
X46132738Y-101528571D01*
X46085119Y-101480952D01*
X45989880Y-101433333D01*
X45751785Y-101433333D01*
X45656547Y-101480952D01*
X45608928Y-101528571D01*
X45561309Y-101623809D01*
X45561309Y-101861904D01*
X45608928Y-101957142D01*
X45656547Y-102004761D01*
X45751785Y-102052380D01*
X45989880Y-102052380D01*
X46085119Y-102004761D01*
X46132738Y-101957142D01*
X45132738Y-101052380D02*
X45132738Y-101861904D01*
X45085119Y-101957142D01*
X45037500Y-102004761D01*
X44942261Y-102052380D01*
X44751785Y-102052380D01*
X44656547Y-102004761D01*
X44608928Y-101957142D01*
X44561309Y-101861904D01*
X44561309Y-101052380D01*
X137382142Y-102639880D02*
X136715476Y-102639880D01*
X137144047Y-103639880D01*
X136334523Y-102639880D02*
X136334523Y-103449404D01*
X136286904Y-103544642D01*
X136239285Y-103592261D01*
X136144047Y-103639880D01*
X135953571Y-103639880D01*
X135858333Y-103592261D01*
X135810714Y-103544642D01*
X135763095Y-103449404D01*
X135763095Y-102639880D01*
X227964880Y-102052380D02*
X228536309Y-102052380D01*
X228250595Y-102052380D02*
X228250595Y-101052380D01*
X228345833Y-101195238D01*
X228441071Y-101290476D01*
X228536309Y-101338095D01*
X227536309Y-101957142D02*
X227488690Y-102004761D01*
X227536309Y-102052380D01*
X227583928Y-102004761D01*
X227536309Y-101957142D01*
X227536309Y-102052380D01*
X226583928Y-101052380D02*
X227060119Y-101052380D01*
X227107738Y-101528571D01*
X227060119Y-101480952D01*
X226964880Y-101433333D01*
X226726785Y-101433333D01*
X226631547Y-101480952D01*
X226583928Y-101528571D01*
X226536309Y-101623809D01*
X226536309Y-101861904D01*
X226583928Y-101957142D01*
X226631547Y-102004761D01*
X226726785Y-102052380D01*
X226964880Y-102052380D01*
X227060119Y-102004761D01*
X227107738Y-101957142D01*
X226107738Y-101052380D02*
X226107738Y-101861904D01*
X226060119Y-101957142D01*
X226012500Y-102004761D01*
X225917261Y-102052380D01*
X225726785Y-102052380D01*
X225631547Y-102004761D01*
X225583928Y-101957142D01*
X225536309Y-101861904D01*
X225536309Y-101052380D01*
X136858333Y-101052380D02*
X137048809Y-101052380D01*
X137144047Y-101100000D01*
X137191666Y-101147619D01*
X137286904Y-101290476D01*
X137334523Y-101480952D01*
X137334523Y-101861904D01*
X137286904Y-101957142D01*
X137239285Y-102004761D01*
X137144047Y-102052380D01*
X136953571Y-102052380D01*
X136858333Y-102004761D01*
X136810714Y-101957142D01*
X136763095Y-101861904D01*
X136763095Y-101623809D01*
X136810714Y-101528571D01*
X136858333Y-101480952D01*
X136953571Y-101433333D01*
X137144047Y-101433333D01*
X137239285Y-101480952D01*
X137286904Y-101528571D01*
X137334523Y-101623809D01*
X136334523Y-101052380D02*
X136334523Y-101861904D01*
X136286904Y-101957142D01*
X136239285Y-102004761D01*
X136144047Y-102052380D01*
X135953571Y-102052380D01*
X135858333Y-102004761D01*
X135810714Y-101957142D01*
X135763095Y-101861904D01*
X135763095Y-101052380D01*
X185007142Y-86764880D02*
X184388095Y-86764880D01*
X184721428Y-87145833D01*
X184578571Y-87145833D01*
X184483333Y-87193452D01*
X184435714Y-87241071D01*
X184388095Y-87336309D01*
X184388095Y-87574404D01*
X184435714Y-87669642D01*
X184483333Y-87717261D01*
X184578571Y-87764880D01*
X184864285Y-87764880D01*
X184959523Y-87717261D01*
X185007142Y-87669642D01*
X183959523Y-86764880D02*
X183959523Y-87574404D01*
X183911904Y-87669642D01*
X183864285Y-87717261D01*
X183769047Y-87764880D01*
X183578571Y-87764880D01*
X183483333Y-87717261D01*
X183435714Y-87669642D01*
X183388095Y-87574404D01*
X183388095Y-86764880D01*
X144366151Y-86840603D02*
X144318532Y-86792984D01*
X144223294Y-86745364D01*
X143985199Y-86745364D01*
X143889961Y-86792984D01*
X143842342Y-86840603D01*
X143794723Y-86935841D01*
X143794723Y-87031079D01*
X143842342Y-87173936D01*
X144413770Y-87745364D01*
X143794723Y-87745364D01*
X143366151Y-86745364D02*
X143366151Y-87554888D01*
X143318532Y-87650126D01*
X143270913Y-87697745D01*
X143175675Y-87745364D01*
X142985199Y-87745364D01*
X142889961Y-87697745D01*
X142842342Y-87650126D01*
X142794723Y-87554888D01*
X142794723Y-86745364D01*
X127857142Y-86764880D02*
X127238095Y-86764880D01*
X127571428Y-87145833D01*
X127428571Y-87145833D01*
X127333333Y-87193452D01*
X127285714Y-87241071D01*
X127238095Y-87336309D01*
X127238095Y-87574404D01*
X127285714Y-87669642D01*
X127333333Y-87717261D01*
X127428571Y-87764880D01*
X127714285Y-87764880D01*
X127809523Y-87717261D01*
X127857142Y-87669642D01*
X126809523Y-86764880D02*
X126809523Y-87574404D01*
X126761904Y-87669642D01*
X126714285Y-87717261D01*
X126619047Y-87764880D01*
X126428571Y-87764880D01*
X126333333Y-87717261D01*
X126285714Y-87669642D01*
X126238095Y-87574404D01*
X126238095Y-86764880D01*
X89757142Y-86764880D02*
X89138095Y-86764880D01*
X89471428Y-87145833D01*
X89328571Y-87145833D01*
X89233333Y-87193452D01*
X89185714Y-87241071D01*
X89138095Y-87336309D01*
X89138095Y-87574404D01*
X89185714Y-87669642D01*
X89233333Y-87717261D01*
X89328571Y-87764880D01*
X89614285Y-87764880D01*
X89709523Y-87717261D01*
X89757142Y-87669642D01*
X88709523Y-86764880D02*
X88709523Y-87574404D01*
X88661904Y-87669642D01*
X88614285Y-87717261D01*
X88519047Y-87764880D01*
X88328571Y-87764880D01*
X88233333Y-87717261D01*
X88185714Y-87669642D01*
X88138095Y-87574404D01*
X88138095Y-86764880D01*
X168313204Y-86795759D02*
X168265585Y-86748140D01*
X168170347Y-86700520D01*
X167932252Y-86700520D01*
X167837014Y-86748140D01*
X167789395Y-86795759D01*
X167741776Y-86890997D01*
X167741776Y-86986235D01*
X167789395Y-87129092D01*
X168360823Y-87700520D01*
X167741776Y-87700520D01*
X167313204Y-86700520D02*
X167313204Y-87510044D01*
X167265585Y-87605282D01*
X167217966Y-87652901D01*
X167122728Y-87700520D01*
X166932252Y-87700520D01*
X166837014Y-87652901D01*
X166789395Y-87605282D01*
X166741776Y-87510044D01*
X166741776Y-86700520D01*
X146907142Y-86764880D02*
X146288095Y-86764880D01*
X146621428Y-87145833D01*
X146478571Y-87145833D01*
X146383333Y-87193452D01*
X146335714Y-87241071D01*
X146288095Y-87336309D01*
X146288095Y-87574404D01*
X146335714Y-87669642D01*
X146383333Y-87717261D01*
X146478571Y-87764880D01*
X146764285Y-87764880D01*
X146859523Y-87717261D01*
X146907142Y-87669642D01*
X145859523Y-86764880D02*
X145859523Y-87574404D01*
X145811904Y-87669642D01*
X145764285Y-87717261D01*
X145669047Y-87764880D01*
X145478571Y-87764880D01*
X145383333Y-87717261D01*
X145335714Y-87669642D01*
X145288095Y-87574404D01*
X145288095Y-86764880D01*
X118284523Y-101147619D02*
X118236904Y-101100000D01*
X118141666Y-101052380D01*
X117903571Y-101052380D01*
X117808333Y-101100000D01*
X117760714Y-101147619D01*
X117713095Y-101242857D01*
X117713095Y-101338095D01*
X117760714Y-101480952D01*
X118332142Y-102052380D01*
X117713095Y-102052380D01*
X117284523Y-101052380D02*
X117284523Y-101861904D01*
X117236904Y-101957142D01*
X117189285Y-102004761D01*
X117094047Y-102052380D01*
X116903571Y-102052380D01*
X116808333Y-102004761D01*
X116760714Y-101957142D01*
X116713095Y-101861904D01*
X116713095Y-101052380D01*
D11*
X42636095Y-87072690D02*
X42636095Y-86739357D01*
X42636095Y-86834595D02*
X42612285Y-86786976D01*
X42588476Y-86763166D01*
X42540857Y-86739357D01*
X42493238Y-86739357D01*
X42136095Y-87048880D02*
X42183714Y-87072690D01*
X42278952Y-87072690D01*
X42326571Y-87048880D01*
X42350380Y-87001261D01*
X42350380Y-86810785D01*
X42326571Y-86763166D01*
X42278952Y-86739357D01*
X42183714Y-86739357D01*
X42136095Y-86763166D01*
X42112285Y-86810785D01*
X42112285Y-86858404D01*
X42350380Y-86906023D01*
X41921809Y-87048880D02*
X41874190Y-87072690D01*
X41778952Y-87072690D01*
X41731333Y-87048880D01*
X41707523Y-87001261D01*
X41707523Y-86977452D01*
X41731333Y-86929833D01*
X41778952Y-86906023D01*
X41850380Y-86906023D01*
X41898000Y-86882214D01*
X41921809Y-86834595D01*
X41921809Y-86810785D01*
X41898000Y-86763166D01*
X41850380Y-86739357D01*
X41778952Y-86739357D01*
X41731333Y-86763166D01*
X41493238Y-87072690D02*
X41493238Y-86739357D01*
X41493238Y-86572690D02*
X41517047Y-86596500D01*
X41493238Y-86620309D01*
X41469428Y-86596500D01*
X41493238Y-86572690D01*
X41493238Y-86620309D01*
X41278952Y-87048880D02*
X41231333Y-87072690D01*
X41136095Y-87072690D01*
X41088476Y-87048880D01*
X41064666Y-87001261D01*
X41064666Y-86977452D01*
X41088476Y-86929833D01*
X41136095Y-86906023D01*
X41207523Y-86906023D01*
X41255142Y-86882214D01*
X41278952Y-86834595D01*
X41278952Y-86810785D01*
X41255142Y-86763166D01*
X41207523Y-86739357D01*
X41136095Y-86739357D01*
X41088476Y-86763166D01*
X40921809Y-86739357D02*
X40731333Y-86739357D01*
X40850380Y-86572690D02*
X40850380Y-87001261D01*
X40826571Y-87048880D01*
X40778952Y-87072690D01*
X40731333Y-87072690D01*
X40493238Y-87072690D02*
X40540857Y-87048880D01*
X40564666Y-87025071D01*
X40588476Y-86977452D01*
X40588476Y-86834595D01*
X40564666Y-86786976D01*
X40540857Y-86763166D01*
X40493238Y-86739357D01*
X40421809Y-86739357D01*
X40374190Y-86763166D01*
X40350380Y-86786976D01*
X40326571Y-86834595D01*
X40326571Y-86977452D01*
X40350380Y-87025071D01*
X40374190Y-87048880D01*
X40421809Y-87072690D01*
X40493238Y-87072690D01*
X40112285Y-87072690D02*
X40112285Y-86739357D01*
X40112285Y-86834595D02*
X40088476Y-86786976D01*
X40064666Y-86763166D01*
X40017047Y-86739357D01*
X39969428Y-86739357D01*
X42255142Y-87877690D02*
X42255142Y-87377690D01*
X42255142Y-87568166D02*
X42207523Y-87544357D01*
X42112285Y-87544357D01*
X42064666Y-87568166D01*
X42040857Y-87591976D01*
X42017047Y-87639595D01*
X42017047Y-87782452D01*
X42040857Y-87830071D01*
X42064666Y-87853880D01*
X42112285Y-87877690D01*
X42207523Y-87877690D01*
X42255142Y-87853880D01*
X41588476Y-87544357D02*
X41588476Y-87877690D01*
X41802761Y-87544357D02*
X41802761Y-87806261D01*
X41778952Y-87853880D01*
X41731333Y-87877690D01*
X41659904Y-87877690D01*
X41612285Y-87853880D01*
X41588476Y-87830071D01*
X41398000Y-87544357D02*
X41136095Y-87544357D01*
X41398000Y-87877690D01*
X41136095Y-87877690D01*
X40993238Y-87544357D02*
X40731333Y-87544357D01*
X40993238Y-87877690D01*
X40731333Y-87877690D01*
X40350380Y-87853880D02*
X40398000Y-87877690D01*
X40493238Y-87877690D01*
X40540857Y-87853880D01*
X40564666Y-87806261D01*
X40564666Y-87615785D01*
X40540857Y-87568166D01*
X40493238Y-87544357D01*
X40398000Y-87544357D01*
X40350380Y-87568166D01*
X40326571Y-87615785D01*
X40326571Y-87663404D01*
X40564666Y-87711023D01*
X40112285Y-87877690D02*
X40112285Y-87544357D01*
X40112285Y-87639595D02*
X40088476Y-87591976D01*
X40064666Y-87568166D01*
X40017047Y-87544357D01*
X39969428Y-87544357D01*
D10*
X57967285Y-90241380D02*
X57967285Y-89241380D01*
X57967285Y-89622333D02*
X57872047Y-89574714D01*
X57681571Y-89574714D01*
X57586333Y-89622333D01*
X57538714Y-89669952D01*
X57491095Y-89765190D01*
X57491095Y-90050904D01*
X57538714Y-90146142D01*
X57586333Y-90193761D01*
X57681571Y-90241380D01*
X57872047Y-90241380D01*
X57967285Y-90193761D01*
X56633952Y-89574714D02*
X56633952Y-90241380D01*
X57062523Y-89574714D02*
X57062523Y-90098523D01*
X57014904Y-90193761D01*
X56919666Y-90241380D01*
X56776809Y-90241380D01*
X56681571Y-90193761D01*
X56633952Y-90146142D01*
X56252999Y-89574714D02*
X55729190Y-89574714D01*
X56252999Y-90241380D01*
X55729190Y-90241380D01*
X55443476Y-89574714D02*
X54919666Y-89574714D01*
X55443476Y-90241380D01*
X54919666Y-90241380D01*
X54157761Y-90193761D02*
X54252999Y-90241380D01*
X54443476Y-90241380D01*
X54538714Y-90193761D01*
X54586333Y-90098523D01*
X54586333Y-89717571D01*
X54538714Y-89622333D01*
X54443476Y-89574714D01*
X54252999Y-89574714D01*
X54157761Y-89622333D01*
X54110142Y-89717571D01*
X54110142Y-89812809D01*
X54586333Y-89908047D01*
X53681571Y-90241380D02*
X53681571Y-89574714D01*
X53681571Y-89765190D02*
X53633952Y-89669952D01*
X53586333Y-89622333D01*
X53491095Y-89574714D01*
X53395857Y-89574714D01*
%TO.C,R5*%
X38735000Y-84582000D02*
X38735000Y-86106000D01*
X38608000Y-86106000D02*
X43688000Y-86106000D01*
X38862000Y-86106000D02*
X38862000Y-84582000D01*
X39243000Y-84582000D02*
X39243000Y-86106000D01*
X39370000Y-84582000D02*
X39370000Y-86106000D01*
X38608000Y-84582000D02*
X38608000Y-86106000D01*
X43688000Y-86106000D02*
X43688000Y-84582000D01*
X39116000Y-86106000D02*
X39116000Y-84582000D01*
X38989000Y-84582000D02*
X38989000Y-86106000D01*
X43688000Y-84582000D02*
X38608000Y-84582000D01*
D12*
%TO.C,D29*%
X178800000Y-103850000D02*
X176800000Y-103850000D01*
X178800000Y-103850000D02*
X178800000Y-99950000D01*
X176800000Y-103850000D02*
X176800000Y-99950000D01*
%TO.C,J3*%
X222250000Y-74727500D02*
X221190000Y-74727500D01*
X223310000Y-76787500D02*
X223310000Y-80847500D01*
X221190000Y-76787500D02*
X221190000Y-80847500D01*
X223310000Y-80847500D02*
X221190000Y-80847500D01*
X221190000Y-74727500D02*
X221190000Y-75787500D01*
X223310000Y-76787500D02*
X221190000Y-76787500D01*
%TO.C,D6*%
X72025000Y-62575000D02*
X72025000Y-58675000D01*
X74025000Y-62575000D02*
X72025000Y-62575000D01*
X74025000Y-62575000D02*
X74025000Y-58675000D01*
%TO.C,C1*%
X39158500Y-65512836D02*
X39158500Y-65297164D01*
X38438500Y-65512836D02*
X38438500Y-65297164D01*
%TO.C,D14*%
X112125000Y-62575000D02*
X110125000Y-62575000D01*
X112125000Y-62575000D02*
X112125000Y-58675000D01*
X110125000Y-62575000D02*
X110125000Y-58675000D01*
%TO.C,D40*%
X235950000Y-81625000D02*
X235950000Y-77725000D01*
X235950000Y-81625000D02*
X233950000Y-81625000D01*
X233950000Y-81625000D02*
X233950000Y-77725000D01*
%TO.C,D8*%
X74025000Y-103850000D02*
X72025000Y-103850000D01*
X72025000Y-103850000D02*
X72025000Y-99950000D01*
X74025000Y-103850000D02*
X74025000Y-99950000D01*
%TO.C,D3*%
X64500000Y-81625000D02*
X64500000Y-77725000D01*
X62500000Y-81625000D02*
X62500000Y-77725000D01*
X64500000Y-81625000D02*
X62500000Y-81625000D01*
%TO.C,D36*%
X216900000Y-81625000D02*
X214900000Y-81625000D01*
X214900000Y-81625000D02*
X214900000Y-77725000D01*
X216900000Y-81625000D02*
X216900000Y-77725000D01*
%TO.C,D32*%
X197850000Y-81625000D02*
X197850000Y-77725000D01*
X195850000Y-81625000D02*
X195850000Y-77725000D01*
X197850000Y-81625000D02*
X195850000Y-81625000D01*
%TO.C,C4*%
X39158500Y-63445086D02*
X39158500Y-63229414D01*
X38438500Y-63445086D02*
X38438500Y-63229414D01*
%TO.C,D1*%
X45450000Y-43525000D02*
X43450000Y-43525000D01*
X45450000Y-43525000D02*
X45450000Y-39625000D01*
X43450000Y-43525000D02*
X43450000Y-39625000D01*
%TO.C,R4*%
X47471359Y-75058000D02*
X47778641Y-75058000D01*
X47471359Y-75818000D02*
X47778641Y-75818000D01*
%TO.C,Y1*%
X44354500Y-64987250D02*
X40354500Y-64987250D01*
X44354500Y-61687250D02*
X44354500Y-64987250D01*
%TO.C,D15*%
X121650000Y-81625000D02*
X119650000Y-81625000D01*
X121650000Y-81625000D02*
X121650000Y-77725000D01*
X119650000Y-81625000D02*
X119650000Y-77725000D01*
%TO.C,U1*%
X39152000Y-76027750D02*
X38427000Y-76027750D01*
X39152000Y-68807750D02*
X38427000Y-68807750D01*
X44922000Y-76027750D02*
X45647000Y-76027750D01*
X45647000Y-76027750D02*
X45647000Y-75302750D01*
X45647000Y-68807750D02*
X45647000Y-69532750D01*
X44922000Y-68807750D02*
X45647000Y-68807750D01*
X38427000Y-68807750D02*
X38427000Y-69532750D01*
%TO.C,Q1*%
X44958000Y-87213000D02*
X45608000Y-87213000D01*
X44958000Y-87213000D02*
X44308000Y-87213000D01*
X44958000Y-90333000D02*
X45608000Y-90333000D01*
X44958000Y-90333000D02*
X43283000Y-90333000D01*
%TO.C,D34*%
X197850000Y-43525000D02*
X195850000Y-43525000D01*
X195850000Y-43525000D02*
X195850000Y-39625000D01*
X197850000Y-43525000D02*
X197850000Y-39625000D01*
%TO.C,D23*%
X159750000Y-81625000D02*
X159750000Y-77725000D01*
X159750000Y-81625000D02*
X157750000Y-81625000D01*
X157750000Y-81625000D02*
X157750000Y-77725000D01*
%TO.C,D21*%
X140700000Y-43525000D02*
X140700000Y-39625000D01*
X140700000Y-43525000D02*
X138700000Y-43525000D01*
X138700000Y-43525000D02*
X138700000Y-39625000D01*
%TO.C,D39*%
X224425000Y-62575000D02*
X224425000Y-58675000D01*
X226425000Y-62575000D02*
X226425000Y-58675000D01*
X226425000Y-62575000D02*
X224425000Y-62575000D01*
%TO.C,D30*%
X178800000Y-43525000D02*
X176800000Y-43525000D01*
X176800000Y-43525000D02*
X176800000Y-39625000D01*
X178800000Y-43525000D02*
X178800000Y-39625000D01*
%TO.C,D41*%
X235950000Y-103850000D02*
X235950000Y-99950000D01*
X235950000Y-103850000D02*
X233950000Y-103850000D01*
X233950000Y-103850000D02*
X233950000Y-99950000D01*
%TO.C,D20*%
X140700000Y-103850000D02*
X138700000Y-103850000D01*
X140700000Y-103850000D02*
X140700000Y-99950000D01*
X138700000Y-103850000D02*
X138700000Y-99950000D01*
%TO.C,D24*%
X157750000Y-103850000D02*
X157750000Y-99950000D01*
X159750000Y-103850000D02*
X159750000Y-99950000D01*
X159750000Y-103850000D02*
X157750000Y-103850000D01*
%TO.C,F1*%
X234717000Y-48165936D02*
X234717000Y-49370064D01*
X232897000Y-48165936D02*
X232897000Y-49370064D01*
%TO.C,D26*%
X159750000Y-43525000D02*
X159750000Y-39625000D01*
X157750000Y-43525000D02*
X157750000Y-39625000D01*
X159750000Y-43525000D02*
X157750000Y-43525000D01*
%TO.C,R6*%
X55906641Y-84125577D02*
X55599359Y-84125577D01*
X55906641Y-84885577D02*
X55599359Y-84885577D01*
%TO.C,D22*%
X150225000Y-62575000D02*
X150225000Y-58675000D01*
X148225000Y-62575000D02*
X148225000Y-58675000D01*
X150225000Y-62575000D02*
X148225000Y-62575000D01*
D10*
%TO.C,J1*%
X226150000Y-36100000D02*
X226150000Y-40100000D01*
X230350000Y-35100000D02*
X227950000Y-35100000D01*
X230350000Y-41100000D02*
X230350000Y-40100000D01*
X227950000Y-41100000D02*
X230350000Y-41100000D01*
X230350000Y-36100000D02*
X230350000Y-35100000D01*
D12*
%TO.C,D13*%
X102600000Y-43525000D02*
X102600000Y-39625000D01*
X102600000Y-43525000D02*
X100600000Y-43525000D01*
X100600000Y-43525000D02*
X100600000Y-39625000D01*
D13*
%TO.C,J2*%
X39457000Y-56749000D02*
X34457000Y-56749000D01*
X34457000Y-56749000D02*
X34457000Y-59249000D01*
X39457000Y-59249000D02*
X39457000Y-56749000D01*
X34457000Y-59249000D02*
X39457000Y-59249000D01*
D12*
%TO.C,C3*%
X46143500Y-63229414D02*
X46143500Y-63445086D01*
X45423500Y-63229414D02*
X45423500Y-63445086D01*
%TO.C,D7*%
X83550000Y-81625000D02*
X81550000Y-81625000D01*
X83550000Y-81625000D02*
X83550000Y-77725000D01*
X81550000Y-81625000D02*
X81550000Y-77725000D01*
%TO.C,D4*%
X50212500Y-103850000D02*
X48212500Y-103850000D01*
X50212500Y-103850000D02*
X50212500Y-99950000D01*
X48212500Y-103850000D02*
X48212500Y-99950000D01*
%TO.C,R2*%
X34707859Y-72863250D02*
X35015141Y-72863250D01*
X34707859Y-73623250D02*
X35015141Y-73623250D01*
%TO.C,D38*%
X216900000Y-43525000D02*
X216900000Y-39625000D01*
X214900000Y-43525000D02*
X214900000Y-39625000D01*
X216900000Y-43525000D02*
X214900000Y-43525000D01*
%TO.C,R3*%
X36930359Y-65404000D02*
X37237641Y-65404000D01*
X36930359Y-64644000D02*
X37237641Y-64644000D01*
%TO.C,D31*%
X188325000Y-62575000D02*
X186325000Y-62575000D01*
X188325000Y-62575000D02*
X188325000Y-58675000D01*
X186325000Y-62575000D02*
X186325000Y-58675000D01*
%TO.C,D2*%
X52975000Y-62575000D02*
X52975000Y-58675000D01*
X54975000Y-62575000D02*
X52975000Y-62575000D01*
X54975000Y-62575000D02*
X54975000Y-58675000D01*
%TO.C,LS1*%
X50143000Y-85179000D02*
X50143000Y-94399000D01*
X61363000Y-85179000D02*
X50143000Y-85179000D01*
X61363000Y-94399000D02*
X61363000Y-85179000D01*
X50143000Y-94399000D02*
X61363000Y-94399000D01*
%TO.C,D9*%
X83550000Y-43525000D02*
X81550000Y-43525000D01*
X83550000Y-43525000D02*
X83550000Y-39625000D01*
X81550000Y-43525000D02*
X81550000Y-39625000D01*
%TO.C,D12*%
X91075000Y-103850000D02*
X91075000Y-99950000D01*
X93075000Y-103850000D02*
X93075000Y-99950000D01*
X93075000Y-103850000D02*
X91075000Y-103850000D01*
%TO.C,D35*%
X207375000Y-62575000D02*
X207375000Y-58675000D01*
X207375000Y-62575000D02*
X205375000Y-62575000D01*
X205375000Y-62575000D02*
X205375000Y-58675000D01*
%TO.C,R9*%
X239389074Y-38253641D02*
X239389074Y-37946359D01*
X240149074Y-38253641D02*
X240149074Y-37946359D01*
%TO.C,D33*%
X197850000Y-103850000D02*
X195850000Y-103850000D01*
X195850000Y-103850000D02*
X195850000Y-99950000D01*
X197850000Y-103850000D02*
X197850000Y-99950000D01*
%TO.C,D17*%
X121650000Y-43462500D02*
X121650000Y-39562500D01*
X119650000Y-43462500D02*
X119650000Y-39562500D01*
X121650000Y-43462500D02*
X119650000Y-43462500D01*
%TO.C,D27*%
X169275000Y-62575000D02*
X169275000Y-58675000D01*
X167275000Y-62575000D02*
X167275000Y-58675000D01*
X169275000Y-62575000D02*
X167275000Y-62575000D01*
%TO.C,D25*%
X231155000Y-47661000D02*
X229155000Y-47661000D01*
X229855000Y-44541000D02*
X231155000Y-44541000D01*
%TO.C,D16*%
X110125000Y-103850000D02*
X110125000Y-99950000D01*
X112125000Y-103850000D02*
X110125000Y-103850000D01*
X112125000Y-103850000D02*
X112125000Y-99950000D01*
%TO.C,D28*%
X178800000Y-81625000D02*
X176800000Y-81625000D01*
X176800000Y-81625000D02*
X176800000Y-77725000D01*
X178800000Y-81625000D02*
X178800000Y-77725000D01*
%TO.C,D18*%
X129175000Y-62575000D02*
X129175000Y-58675000D01*
X131175000Y-62575000D02*
X129175000Y-62575000D01*
X131175000Y-62575000D02*
X131175000Y-58675000D01*
%TO.C,R8*%
X239332500Y-44603641D02*
X239332500Y-44296359D01*
X240092500Y-44603641D02*
X240092500Y-44296359D01*
%TO.C,D5*%
X64500000Y-43525000D02*
X62500000Y-43525000D01*
X62500000Y-43525000D02*
X62500000Y-39625000D01*
X64500000Y-43525000D02*
X64500000Y-39625000D01*
%TO.C,D19*%
X140700000Y-81625000D02*
X138700000Y-81625000D01*
X140700000Y-81625000D02*
X140700000Y-77725000D01*
X138700000Y-81625000D02*
X138700000Y-77725000D01*
%TO.C,C5*%
X47390164Y-69744000D02*
X47605836Y-69744000D01*
X47390164Y-70464000D02*
X47605836Y-70464000D01*
%TO.C,D10*%
X93075000Y-62575000D02*
X93075000Y-58675000D01*
X91075000Y-62575000D02*
X91075000Y-58675000D01*
X93075000Y-62575000D02*
X91075000Y-62575000D01*
%TO.C,R1*%
X34707859Y-73879250D02*
X35015141Y-73879250D01*
X34707859Y-74639250D02*
X35015141Y-74639250D01*
%TO.C,C7*%
X45191000Y-77743164D02*
X45191000Y-77958836D01*
X44471000Y-77743164D02*
X44471000Y-77958836D01*
%TO.C,C6*%
X35858336Y-72460250D02*
X35642664Y-72460250D01*
X35858336Y-71740250D02*
X35642664Y-71740250D01*
%TO.C,D37*%
X214900000Y-103850000D02*
X214900000Y-99950000D01*
X216900000Y-103850000D02*
X216900000Y-99950000D01*
X216900000Y-103850000D02*
X214900000Y-103850000D01*
%TO.C,C2*%
X37351310Y-77612557D02*
X37198807Y-77765060D01*
X36842193Y-77103440D02*
X36689690Y-77255943D01*
%TO.C,C8*%
X35223336Y-70597250D02*
X35007664Y-70597250D01*
X35223336Y-71317250D02*
X35007664Y-71317250D01*
%TO.C,D11*%
X102600000Y-81625000D02*
X100600000Y-81625000D01*
X102600000Y-81625000D02*
X102600000Y-77725000D01*
X100600000Y-81625000D02*
X100600000Y-77725000D01*
%TD*%
%LPC*%
D14*
%TO.C,SW33*%
X83820000Y-98425000D03*
X93980000Y-98425000D03*
D15*
X88900000Y-98425000D03*
D16*
X85090000Y-95885000D03*
X91440000Y-93345000D03*
%TD*%
D15*
%TO.C,SW15*%
X127000000Y-60325000D03*
D14*
X121920000Y-60325000D03*
X132080000Y-60325000D03*
D16*
X123190000Y-57785000D03*
X129540000Y-55245000D03*
%TD*%
D17*
%TO.C,SW36c1*%
X79375000Y-105410000D03*
X193675000Y-105410000D03*
D15*
X79375000Y-90170000D03*
D14*
X131445000Y-98425000D03*
D15*
X193675000Y-90170000D03*
X136525000Y-98425000D03*
D14*
X141605000Y-98425000D03*
D16*
X132715000Y-95885000D03*
X139065000Y-93345000D03*
%TD*%
D15*
%TO.C,SW7*%
X155575000Y-41275000D03*
D14*
X160655000Y-41275000D03*
X150495000Y-41275000D03*
D16*
X151765000Y-38735000D03*
X158115000Y-36195000D03*
%TD*%
D14*
%TO.C,SW27*%
X169545000Y-79375000D03*
X179705000Y-79375000D03*
D15*
X174625000Y-79375000D03*
D16*
X170815000Y-76835000D03*
X177165000Y-74295000D03*
%TD*%
D14*
%TO.C,SW34b1*%
X102870000Y-98425000D03*
D17*
X88900000Y-105410000D03*
D15*
X88900000Y-90170000D03*
X127000000Y-90170000D03*
X107950000Y-98425000D03*
D14*
X113030000Y-98425000D03*
D17*
X127000000Y-105410000D03*
D16*
X104140000Y-95885000D03*
X110490000Y-93345000D03*
%TD*%
D14*
%TO.C,SW14*%
X102870000Y-60325000D03*
D15*
X107950000Y-60325000D03*
D14*
X113030000Y-60325000D03*
D16*
X104140000Y-57785000D03*
X110490000Y-55245000D03*
%TD*%
D15*
%TO.C,SW33a1*%
X79375000Y-98425000D03*
D14*
X74295000Y-98425000D03*
X84455000Y-98425000D03*
D16*
X75565000Y-95885000D03*
X81915000Y-93345000D03*
%TD*%
D14*
%TO.C,SW9*%
X188595000Y-41275000D03*
X198755000Y-41275000D03*
D15*
X193675000Y-41275000D03*
D16*
X189865000Y-38735000D03*
X196215000Y-36195000D03*
%TD*%
D14*
%TO.C,SW29*%
X217805000Y-79375000D03*
X207645000Y-79375000D03*
D15*
X212725000Y-79375000D03*
D16*
X208915000Y-76835000D03*
X215265000Y-74295000D03*
%TD*%
D14*
%TO.C,SW8*%
X179705000Y-41275000D03*
X169545000Y-41275000D03*
D15*
X174625000Y-41275000D03*
D16*
X170815000Y-38735000D03*
X177165000Y-36195000D03*
%TD*%
D17*
%TO.C,SW35b1*%
X105568750Y-105410000D03*
D15*
X105568750Y-90170000D03*
X129381250Y-90170000D03*
X117475000Y-98425000D03*
D14*
X122555000Y-98425000D03*
D17*
X129381250Y-105410000D03*
D14*
X112395000Y-98425000D03*
D16*
X113665000Y-95885000D03*
X120015000Y-93345000D03*
%TD*%
D14*
%TO.C,SW2*%
X55245000Y-41275000D03*
D15*
X60325000Y-41275000D03*
D14*
X65405000Y-41275000D03*
D16*
X56515000Y-38735000D03*
X62865000Y-36195000D03*
%TD*%
D14*
%TO.C,SW34*%
X113030000Y-98425000D03*
X102870000Y-98425000D03*
D15*
X107950000Y-98425000D03*
D16*
X104140000Y-95885000D03*
X110490000Y-93345000D03*
%TD*%
D14*
%TO.C,SW24*%
X112395000Y-79375000D03*
X122555000Y-79375000D03*
D15*
X117475000Y-79375000D03*
D16*
X113665000Y-76835000D03*
X120015000Y-74295000D03*
%TD*%
D14*
%TO.C,SW31*%
X40957500Y-98425000D03*
D15*
X46037500Y-98425000D03*
D14*
X51117500Y-98425000D03*
D16*
X42227500Y-95885000D03*
X48577500Y-93345000D03*
%TD*%
D14*
%TO.C,SW37a1*%
X169545000Y-98425000D03*
X179705000Y-98425000D03*
D15*
X174625000Y-98425000D03*
D16*
X170815000Y-95885000D03*
X177165000Y-93345000D03*
%TD*%
D14*
%TO.C,SW20*%
X227330000Y-60325000D03*
X217170000Y-60325000D03*
D15*
X222250000Y-60325000D03*
D16*
X218440000Y-57785000D03*
X224790000Y-55245000D03*
%TD*%
D15*
%TO.C,SW5*%
X117475000Y-41275000D03*
D14*
X112395000Y-41275000D03*
X122555000Y-41275000D03*
D16*
X113665000Y-38735000D03*
X120015000Y-36195000D03*
%TD*%
D18*
%TO.C,R5*%
X39748000Y-85344000D03*
D19*
X37248000Y-85344000D03*
D20*
X45048000Y-85344000D03*
D18*
X42548000Y-85344000D03*
%TD*%
D14*
%TO.C,SW40a1*%
X226695000Y-98425000D03*
X236855000Y-98425000D03*
D15*
X231775000Y-98425000D03*
D16*
X227965000Y-95885000D03*
X234315000Y-93345000D03*
%TD*%
D14*
%TO.C,SW35*%
X132080000Y-98425000D03*
D15*
X127000000Y-98425000D03*
D14*
X121920000Y-98425000D03*
D16*
X123190000Y-95885000D03*
X129540000Y-93345000D03*
%TD*%
D14*
%TO.C,SW31a1*%
X36195000Y-98425000D03*
D15*
X41275000Y-98425000D03*
D14*
X46355000Y-98425000D03*
D16*
X37465000Y-95885000D03*
X43815000Y-93345000D03*
%TD*%
D14*
%TO.C,SW38*%
X189230000Y-98425000D03*
D15*
X184150000Y-98425000D03*
D14*
X179070000Y-98425000D03*
D16*
X180340000Y-95885000D03*
X186690000Y-93345000D03*
%TD*%
D15*
%TO.C,SW12*%
X69850000Y-60325000D03*
D14*
X74930000Y-60325000D03*
X64770000Y-60325000D03*
D16*
X66040000Y-57785000D03*
X72390000Y-55245000D03*
%TD*%
D14*
%TO.C,SW22*%
X84455000Y-79375000D03*
X74295000Y-79375000D03*
D15*
X79375000Y-79375000D03*
D16*
X75565000Y-76835000D03*
X81915000Y-74295000D03*
%TD*%
D15*
%TO.C,SW36a1*%
X150812500Y-98425000D03*
D14*
X155892500Y-98425000D03*
X145732500Y-98425000D03*
D16*
X147002500Y-95885000D03*
X153352500Y-93345000D03*
%TD*%
D17*
%TO.C,SW36b1*%
X143668750Y-105410000D03*
D15*
X167481250Y-90170000D03*
X155575000Y-98425000D03*
X143668750Y-90170000D03*
D17*
X167481250Y-105410000D03*
D14*
X150495000Y-98425000D03*
X160655000Y-98425000D03*
D16*
X151765000Y-95885000D03*
X158115000Y-93345000D03*
%TD*%
D15*
%TO.C,SW10*%
X212725000Y-41275000D03*
D14*
X217805000Y-41275000D03*
X207645000Y-41275000D03*
D16*
X208915000Y-38735000D03*
X215265000Y-36195000D03*
%TD*%
D17*
%TO.C,SW35c1*%
X184150000Y-105410000D03*
D15*
X88900000Y-90170000D03*
D17*
X88900000Y-105410000D03*
D15*
X136525000Y-98425000D03*
D14*
X141605000Y-98425000D03*
X131445000Y-98425000D03*
D15*
X184150000Y-90170000D03*
D16*
X132715000Y-95885000D03*
X139065000Y-93345000D03*
%TD*%
D15*
%TO.C,SW6*%
X136398000Y-41275000D03*
D14*
X131318000Y-41275000D03*
X141478000Y-41275000D03*
D16*
X132588000Y-38735000D03*
X138938000Y-36195000D03*
%TD*%
D14*
%TO.C,SW19*%
X198120000Y-60325000D03*
X208280000Y-60325000D03*
D15*
X203200000Y-60325000D03*
D16*
X199390000Y-57785000D03*
X205740000Y-55245000D03*
%TD*%
D14*
%TO.C,SW3*%
X74295000Y-41275000D03*
X84455000Y-41275000D03*
D15*
X79375000Y-41275000D03*
D16*
X75565000Y-38735000D03*
X81915000Y-36195000D03*
%TD*%
D14*
%TO.C,SW17*%
X160020000Y-60325000D03*
D15*
X165100000Y-60325000D03*
D14*
X170180000Y-60325000D03*
D16*
X161290000Y-57785000D03*
X167640000Y-55245000D03*
%TD*%
D14*
%TO.C,SW39*%
X208280000Y-98425000D03*
X198120000Y-98425000D03*
D15*
X203200000Y-98425000D03*
D16*
X199390000Y-95885000D03*
X205740000Y-93345000D03*
%TD*%
D15*
%TO.C,SW11*%
X50800000Y-60325000D03*
D14*
X45720000Y-60325000D03*
X55880000Y-60325000D03*
D16*
X46990000Y-57785000D03*
X53340000Y-55245000D03*
%TD*%
D15*
%TO.C,SW21*%
X60325000Y-79375000D03*
D14*
X65405000Y-79375000D03*
X55245000Y-79375000D03*
D16*
X56515000Y-76835000D03*
X62865000Y-74295000D03*
%TD*%
D15*
%TO.C,SW16*%
X146050000Y-60325000D03*
D14*
X151130000Y-60325000D03*
X140970000Y-60325000D03*
D16*
X142240000Y-57785000D03*
X148590000Y-55245000D03*
%TD*%
D14*
%TO.C,SW18*%
X179070000Y-60325000D03*
D15*
X184150000Y-60325000D03*
D14*
X189230000Y-60325000D03*
D16*
X180340000Y-57785000D03*
X186690000Y-55245000D03*
%TD*%
D21*
%TO.C,SW42*%
X229275000Y-86875000D03*
D22*
X234275000Y-86875000D03*
X231775000Y-86875000D03*
X234275000Y-72375000D03*
X229275000Y-72375000D03*
%TD*%
D15*
%TO.C,SW32a1*%
X60325000Y-98425000D03*
D14*
X65405000Y-98425000D03*
X55245000Y-98425000D03*
D16*
X56515000Y-95885000D03*
X62865000Y-93345000D03*
%TD*%
D17*
%TO.C,SW37b1*%
X184150000Y-105410000D03*
D15*
X146050000Y-90170000D03*
D14*
X160020000Y-98425000D03*
X170180000Y-98425000D03*
D15*
X165100000Y-98425000D03*
X184150000Y-90170000D03*
D17*
X146050000Y-105410000D03*
D16*
X161290000Y-95885000D03*
X167640000Y-93345000D03*
%TD*%
D14*
%TO.C,SW34a1*%
X93345000Y-98425000D03*
X103505000Y-98425000D03*
D15*
X98425000Y-98425000D03*
D16*
X94615000Y-95885000D03*
X100965000Y-93345000D03*
%TD*%
D15*
%TO.C,SW36*%
X146050000Y-98425000D03*
D14*
X140970000Y-98425000D03*
X151130000Y-98425000D03*
D16*
X142240000Y-95885000D03*
X148590000Y-93345000D03*
%TD*%
D15*
%TO.C,SW28*%
X193675000Y-79375000D03*
D14*
X188595000Y-79375000D03*
X198755000Y-79375000D03*
D16*
X189865000Y-76835000D03*
X196215000Y-74295000D03*
%TD*%
D15*
%TO.C,SW1*%
X41275000Y-41275000D03*
D14*
X36195000Y-41275000D03*
X46355000Y-41275000D03*
D16*
X37465000Y-38735000D03*
X43815000Y-36195000D03*
%TD*%
D14*
%TO.C,SW40*%
X232092500Y-98425000D03*
D15*
X227012500Y-98425000D03*
D14*
X221932500Y-98425000D03*
D16*
X223202500Y-95885000D03*
X229552500Y-93345000D03*
%TD*%
D15*
%TO.C,SW39a1*%
X212725000Y-98425000D03*
D14*
X207645000Y-98425000D03*
X217805000Y-98425000D03*
D16*
X208915000Y-95885000D03*
X215265000Y-93345000D03*
%TD*%
D14*
%TO.C,SW37*%
X170180000Y-98425000D03*
D15*
X165100000Y-98425000D03*
D14*
X160020000Y-98425000D03*
D16*
X161290000Y-95885000D03*
X167640000Y-93345000D03*
%TD*%
D15*
%TO.C,SW4*%
X98425000Y-41275000D03*
D14*
X93345000Y-41275000D03*
X103505000Y-41275000D03*
D16*
X94615000Y-38735000D03*
X100965000Y-36195000D03*
%TD*%
D14*
%TO.C,SW35a1*%
X117157500Y-98425000D03*
X127317500Y-98425000D03*
D15*
X122237500Y-98425000D03*
D16*
X118427500Y-95885000D03*
X124777500Y-93345000D03*
%TD*%
D14*
%TO.C,SW32*%
X74930000Y-98425000D03*
X64770000Y-98425000D03*
D15*
X69850000Y-98425000D03*
D16*
X66040000Y-95885000D03*
X72390000Y-93345000D03*
%TD*%
D14*
%TO.C,SW26*%
X160655000Y-79375000D03*
D15*
X155575000Y-79375000D03*
D14*
X150495000Y-79375000D03*
D16*
X151765000Y-76835000D03*
X158115000Y-74295000D03*
%TD*%
D15*
%TO.C,SW30*%
X231775000Y-79375000D03*
D14*
X226695000Y-79375000D03*
X236855000Y-79375000D03*
D16*
X227965000Y-76835000D03*
X234315000Y-74295000D03*
%TD*%
D15*
%TO.C,SW38a1*%
X193675000Y-98425000D03*
D14*
X198755000Y-98425000D03*
X188595000Y-98425000D03*
D16*
X189865000Y-95885000D03*
X196215000Y-93345000D03*
%TD*%
D15*
%TO.C,SW13*%
X88900000Y-60325000D03*
D14*
X83820000Y-60325000D03*
X93980000Y-60325000D03*
D16*
X85090000Y-57785000D03*
X91440000Y-55245000D03*
%TD*%
D21*
%TO.C,SW41*%
X38775000Y-48775000D03*
D22*
X43775000Y-48775000D03*
X41275000Y-48775000D03*
X43775000Y-34275000D03*
X38775000Y-34275000D03*
%TD*%
D14*
%TO.C,SW25*%
X131445000Y-79375000D03*
D15*
X136525000Y-79375000D03*
D14*
X141605000Y-79375000D03*
D16*
X132715000Y-76835000D03*
X139065000Y-74295000D03*
%TD*%
D15*
%TO.C,SW23*%
X98425000Y-79375000D03*
D14*
X103505000Y-79375000D03*
X93345000Y-79375000D03*
D16*
X94615000Y-76835000D03*
X100965000Y-74295000D03*
%TD*%
D23*
%TO.C,D29*%
X177800000Y-103250000D03*
X177800000Y-99950000D03*
%TD*%
D24*
%TO.C,J3*%
X222250000Y-75787500D03*
D25*
X222250000Y-77787500D03*
X222250000Y-79787500D03*
%TD*%
D23*
%TO.C,D6*%
X73025000Y-61975000D03*
X73025000Y-58675000D03*
%TD*%
D26*
%TO.C,C1*%
X38798500Y-65885000D03*
X38798500Y-64925000D03*
%TD*%
D23*
%TO.C,D14*%
X111125000Y-61975000D03*
X111125000Y-58675000D03*
%TD*%
%TO.C,D40*%
X234950000Y-81025000D03*
X234950000Y-77725000D03*
%TD*%
%TO.C,D8*%
X73025000Y-103250000D03*
X73025000Y-99950000D03*
%TD*%
%TO.C,D3*%
X63500000Y-81025000D03*
X63500000Y-77725000D03*
%TD*%
%TO.C,D36*%
X215900000Y-81025000D03*
X215900000Y-77725000D03*
%TD*%
%TO.C,D32*%
X196850000Y-81025000D03*
X196850000Y-77725000D03*
%TD*%
D26*
%TO.C,C4*%
X38798500Y-63817250D03*
X38798500Y-62857250D03*
%TD*%
D23*
%TO.C,D1*%
X44450000Y-42925000D03*
X44450000Y-39625000D03*
%TD*%
D27*
%TO.C,R4*%
X47115000Y-75438000D03*
X48135000Y-75438000D03*
%TD*%
D28*
%TO.C,Y1*%
X43454500Y-64187250D03*
X41254500Y-64187250D03*
X41254500Y-62487250D03*
X43454500Y-62487250D03*
%TD*%
D23*
%TO.C,D15*%
X120650000Y-81025000D03*
X120650000Y-77725000D03*
%TD*%
D29*
%TO.C,U1*%
X38699500Y-74917750D03*
X38699500Y-74417750D03*
X38699500Y-73917750D03*
X38699500Y-73417750D03*
X38699500Y-72917750D03*
X38699500Y-72417750D03*
X38699500Y-71917750D03*
X38699500Y-71417750D03*
X38699500Y-70917750D03*
X38699500Y-70417750D03*
X38699500Y-69917750D03*
D30*
X39537000Y-69080250D03*
X40037000Y-69080250D03*
X40537000Y-69080250D03*
X41037000Y-69080250D03*
X41537000Y-69080250D03*
X42037000Y-69080250D03*
X42537000Y-69080250D03*
X43037000Y-69080250D03*
X43537000Y-69080250D03*
X44037000Y-69080250D03*
X44537000Y-69080250D03*
D29*
X45374500Y-69917750D03*
X45374500Y-70417750D03*
X45374500Y-70917750D03*
X45374500Y-71417750D03*
X45374500Y-71917750D03*
X45374500Y-72417750D03*
X45374500Y-72917750D03*
X45374500Y-73417750D03*
X45374500Y-73917750D03*
X45374500Y-74417750D03*
X45374500Y-74917750D03*
D30*
X44537000Y-75755250D03*
X44037000Y-75755250D03*
X43537000Y-75755250D03*
X43037000Y-75755250D03*
X42537000Y-75755250D03*
X42037000Y-75755250D03*
X41537000Y-75755250D03*
X41037000Y-75755250D03*
X40537000Y-75755250D03*
X40037000Y-75755250D03*
X39537000Y-75755250D03*
D31*
X42037000Y-72417750D03*
%TD*%
D32*
%TO.C,Q1*%
X44020500Y-89723000D03*
X44020500Y-87823000D03*
X45895500Y-88773000D03*
%TD*%
D23*
%TO.C,D34*%
X196850000Y-42925000D03*
X196850000Y-39625000D03*
%TD*%
%TO.C,D23*%
X158750000Y-81025000D03*
X158750000Y-77725000D03*
%TD*%
%TO.C,D21*%
X139700000Y-42925000D03*
X139700000Y-39625000D03*
%TD*%
%TO.C,D39*%
X225425000Y-61975000D03*
X225425000Y-58675000D03*
%TD*%
%TO.C,D30*%
X177800000Y-42925000D03*
X177800000Y-39625000D03*
%TD*%
%TO.C,D41*%
X234950000Y-103250000D03*
X234950000Y-99950000D03*
%TD*%
%TO.C,D20*%
X139700000Y-103250000D03*
X139700000Y-99950000D03*
%TD*%
%TO.C,D24*%
X158750000Y-103250000D03*
X158750000Y-99950000D03*
%TD*%
D33*
%TO.C,F1*%
X233807000Y-47368000D03*
X233807000Y-50168000D03*
%TD*%
D23*
%TO.C,D26*%
X158750000Y-42925000D03*
X158750000Y-39625000D03*
%TD*%
D34*
%TO.C,R6*%
X56263000Y-84505577D03*
X55243000Y-84505577D03*
%TD*%
D23*
%TO.C,D22*%
X149225000Y-61975000D03*
X149225000Y-58675000D03*
%TD*%
D35*
%TO.C,J1*%
X226850000Y-35300000D03*
X226850000Y-40900000D03*
D36*
X230725000Y-39600000D03*
X230725000Y-38600000D03*
X230725000Y-37600000D03*
X230725000Y-36600000D03*
%TD*%
D23*
%TO.C,D13*%
X101600000Y-42925000D03*
X101600000Y-39625000D03*
%TD*%
D37*
%TO.C,J2*%
X38227000Y-52959000D03*
X35687000Y-52959000D03*
X38227000Y-55499000D03*
X35687000Y-55499000D03*
X38227000Y-58039000D03*
D38*
X35687000Y-58039000D03*
%TD*%
D39*
%TO.C,C3*%
X45783500Y-62857250D03*
X45783500Y-63817250D03*
%TD*%
D23*
%TO.C,D7*%
X82550000Y-81025000D03*
X82550000Y-77725000D03*
%TD*%
%TO.C,D4*%
X49212500Y-103250000D03*
X49212500Y-99950000D03*
%TD*%
D27*
%TO.C,R2*%
X34351500Y-73243250D03*
X35371500Y-73243250D03*
%TD*%
D23*
%TO.C,D38*%
X215900000Y-42925000D03*
X215900000Y-39625000D03*
%TD*%
D27*
%TO.C,R3*%
X36574000Y-65024000D03*
X37594000Y-65024000D03*
%TD*%
D23*
%TO.C,D31*%
X187325000Y-61975000D03*
X187325000Y-58675000D03*
%TD*%
%TO.C,D2*%
X53975000Y-61975000D03*
X53975000Y-58675000D03*
%TD*%
D40*
%TO.C,LS1*%
X62253000Y-89789000D03*
X49253000Y-89789000D03*
%TD*%
D23*
%TO.C,D9*%
X82550000Y-42925000D03*
X82550000Y-39625000D03*
%TD*%
%TO.C,D12*%
X92075000Y-103250000D03*
X92075000Y-99950000D03*
%TD*%
%TO.C,D35*%
X206375000Y-61975000D03*
X206375000Y-58675000D03*
%TD*%
D41*
%TO.C,R9*%
X239769074Y-38610000D03*
X239769074Y-37590000D03*
%TD*%
D23*
%TO.C,D33*%
X196850000Y-103250000D03*
X196850000Y-99950000D03*
%TD*%
%TO.C,D17*%
X120650000Y-42862500D03*
X120650000Y-39562500D03*
%TD*%
%TO.C,D27*%
X168275000Y-61975000D03*
X168275000Y-58675000D03*
%TD*%
D42*
%TO.C,D25*%
X229505000Y-46851000D03*
D43*
X229505000Y-45151000D03*
X231505000Y-45151000D03*
X231505000Y-47051000D03*
%TD*%
D23*
%TO.C,D16*%
X111125000Y-103250000D03*
X111125000Y-99950000D03*
%TD*%
%TO.C,D28*%
X177800000Y-81025000D03*
X177800000Y-77725000D03*
%TD*%
%TO.C,D18*%
X130175000Y-61975000D03*
X130175000Y-58675000D03*
%TD*%
D41*
%TO.C,R8*%
X239712500Y-44960000D03*
X239712500Y-43940000D03*
%TD*%
D23*
%TO.C,D5*%
X63500000Y-42925000D03*
X63500000Y-39625000D03*
%TD*%
%TO.C,D19*%
X139700000Y-81025000D03*
X139700000Y-77725000D03*
%TD*%
D44*
%TO.C,C5*%
X47018000Y-70104000D03*
X47978000Y-70104000D03*
%TD*%
D23*
%TO.C,D10*%
X92075000Y-61975000D03*
X92075000Y-58675000D03*
%TD*%
D27*
%TO.C,R1*%
X34351500Y-74259250D03*
X35371500Y-74259250D03*
%TD*%
D39*
%TO.C,C7*%
X44831000Y-77371000D03*
X44831000Y-78331000D03*
%TD*%
D45*
%TO.C,C6*%
X36230500Y-72100250D03*
X35270500Y-72100250D03*
%TD*%
D23*
%TO.C,D37*%
X215900000Y-103250000D03*
X215900000Y-99950000D03*
%TD*%
D46*
%TO.C,C2*%
X37359911Y-77094839D03*
X36681089Y-77773661D03*
%TD*%
D45*
%TO.C,C8*%
X35595500Y-70957250D03*
X34635500Y-70957250D03*
%TD*%
D23*
%TO.C,D11*%
X101600000Y-81025000D03*
X101600000Y-77725000D03*
%TD*%
M02*
